<?xml version="1.0" standalone="no"?>
<!DOCTYPE svg PUBLIC "-//W3C//DTD SVG 20010904//EN"
 "http://www.w3.org/TR/2001/REC-SVG-20010904/DTD/svg10.dtd">
<svg version="1.0" xmlns="http://www.w3.org/2000/svg"
 width="1536.000000pt" height="1536.000000pt" viewBox="0 0 1536.000000 1536.000000"
 preserveAspectRatio="xMidYMid meet">
<metadata>
Created by potrace 1.11, written by Peter Selinger 2001-2013
</metadata>
<g transform="translate(0.000000,1536.000000) scale(0.100000,-0.100000)"
fill="#000000" stroke="none">
<path d="M4026 12749 c-38 -5 -113 -18 -166 -29 -580 -118 -982 -522 -1099
-1105 -24 -118 -41 -278 -41 -380 0 -340 227 -791 677 -1348 180 -223 183
-227 183 -256 0 -15 -158 -478 -350 -1030 -224 -641 -354 -1029 -361 -1074
-15 -96 -5 -324 20 -460 84 -458 337 -976 733 -1504 277 -369 611 -727 1093
-1173 320 -297 1089 -1021 2069 -1949 472 -448 894 -847 937 -888 128 -120 49
-171 780 500 344 314 1106 1013 1694 1552 589 538 1156 1065 1260 1170 806
808 1257 1529 1392 2220 25 131 23 413 -4 510 -11 39 -200 580 -421 1204 -258
727 -400 1140 -396 1153 3 11 67 101 143 201 276 367 440 670 513 945 20 76
23 109 21 257 -5 660 -322 1163 -868 1378 -227 90 -432 121 -750 114 -221 -5
-297 -14 -461 -56 -229 -58 -438 -172 -603 -326 -44 -41 -92 -77 -106 -81 -18
-4 -76 8 -178 39 -304 92 -633 170 -961 227 -202 35 -227 33 -252 -25 -12 -30
-5 -62 97 -456 333 -1283 625 -2398 754 -2884 256 -961 251 -934 242 -1190 -8
-231 -50 -405 -142 -600 -173 -363 -477 -631 -855 -755 -215 -71 -256 -75
-785 -75 -507 1 -544 3 -737 60 -706 204 -1137 940 -1003 1710 23 132 400
1620 810 3195 96 371 192 739 212 817 40 155 38 186 -12 213 -78 42 -900 -122
-1356 -269 -86 -28 -170 -51 -185 -51 -24 0 -49 19 -126 94 -94 92 -231 192
-331 243 -148 74 -346 132 -540 158 -129 16 -425 19 -541 4z"/>
<path d="M7345 9451 c-86 -39 -134 -115 -135 -211 0 -30 22 -273 49 -539 49
-474 50 -484 78 -530 17 -27 48 -58 77 -76 l49 -30 452 0 452 0 49 30 c29 18
60 49 77 77 29 46 29 51 79 567 45 467 49 526 37 568 -17 61 -88 137 -144 152
-27 7 -214 11 -560 11 -484 0 -523 -2 -560 -19z"/>
</g>
</svg>
