<?xml version="1.0" encoding="UTF-8"?>
<svg width="303px" height="267px" viewBox="0 0 303 267" version="1.1" xmlns="http://www.w3.org/2000/svg" xmlns:xlink="http://www.w3.org/1999/xlink">
    <!-- Generator: Sketch 63.1 (92452) - https://sketch.com -->
    <title>diagram-org-cluster</title>
    <desc>Created with Sketch.</desc>
    <defs>
        <linearGradient x1="50%" y1="-1.86863171%" x2="50%" y2="100%" id="linearGradient-1">
            <stop stop-color="#EE485D" offset="0%"></stop>
            <stop stop-color="#00AB60" stop-opacity="0.2" offset="52.8399493%"></stop>
            <stop stop-color="#008FFF" stop-opacity="0.5" offset="100%"></stop>
        </linearGradient>
        <path d="M30,0 C46.5685425,-3.04359188e-15 60,13.4314575 60,30 C60,46.5685425 46.5685425,60 30,60 C13.4314575,60 2.02906125e-15,46.5685425 0,30 C-2.02906125e-15,13.4314575 13.4314575,3.04359188e-15 30,0 Z" id="path-2"></path>
        <linearGradient x1="50%" y1="0%" x2="50%" y2="60.409068%" id="linearGradient-4">
            <stop stop-color="#A4AFB8" offset="0%"></stop>
            <stop stop-color="#062F4D" offset="100%"></stop>
        </linearGradient>
        <linearGradient x1="50%" y1="0%" x2="50%" y2="60.409068%" id="linearGradient-5">
            <stop stop-color="#A4AFB8" offset="0%"></stop>
            <stop stop-color="#062F4D" offset="100%"></stop>
        </linearGradient>
        <path d="M30,0 C46.5685425,-3.04359188e-15 60,13.4314575 60,30 C60,46.5685425 46.5685425,60 30,60 C13.4314575,60 2.02906125e-15,46.5685425 0,30 C-2.02906125e-15,13.4314575 13.4314575,3.04359188e-15 30,0 Z" id="path-6"></path>
        <path d="M30,0 C46.5685425,-3.04359188e-15 60,13.4314575 60,30 C60,46.5685425 46.5685425,60 30,60 C13.4314575,60 2.02906125e-15,46.5685425 0,30 C-2.02906125e-15,13.4314575 13.4314575,3.04359188e-15 30,0 Z" id="path-8"></path>
        <path d="M30,0 C46.5685425,-3.04359188e-15 60,13.4314575 60,30 C60,46.5685425 46.5685425,60 30,60 C13.4314575,60 2.02906125e-15,46.5685425 0,30 C-2.02906125e-15,13.4314575 13.4314575,3.04359188e-15 30,0 Z" id="path-10"></path>
    </defs>
    <g id="Page-1" stroke="none" stroke-width="1" fill="none" fill-rule="evenodd">
        <g id="Homepage" transform="translate(-267.000000, -2478.000000)">
            <g id="---Feature--03" transform="translate(164.000000, 2386.001161)">
                <g id="diagram-org-cluster" transform="translate(105.000000, 92.000000)">
                    <g id="Group-5" transform="translate(149.500000, 97.500000) rotate(-180.000000) translate(-149.500000, -97.500000) translate(30.000000, 0.000000)">
                        <path d="M121,27.5 C97.9421117,27.5 77.0671117,36.8460558 61.9565838,51.9565838 C46.8460558,67.0671117 37.5,87.9421117 37.5,111 C37.5,134.057888 46.8460558,154.932888 61.9565838,170.043416 C77.0671117,185.153944 97.9421117,194.5 121,194.5 C144.057888,194.5 164.932888,185.153944 180.043416,170.043416 C195.153944,154.932888 204.5,134.057888 204.5,111 C204.5,87.9421117 195.153944,67.0671117 180.043416,51.9565838 C164.932888,36.8460558 144.057888,27.5 121,27.5 Z" id="bg" stroke="url(#linearGradient-1)" fill="#FFFFFF"></path>
                        <polygon id="Rectangle" fill="#EE485D" opacity="0.6" transform="translate(119.500000, 10.500000) rotate(-90.000000) translate(-119.500000, -10.500000) " points="119 -109 120 -109 120 130 119 130"></polygon>
                        <polygon id="Rectangle" fill="#EE485D" opacity="0.6" points="238 1.09215414e-12 239 1.09215414e-12 239 10 238 10"></polygon>
                        <polygon id="Rectangle" fill="#EE485D" opacity="0.6" points="82 1.88796201e-12 83 1.88796201e-12 83 10 82 10"></polygon>
                        <polygon id="Rectangle" fill="#EE485D" opacity="0.6" points="120 10 121 10 121 20 120 20"></polygon>
                        <polygon id="Rectangle" fill="#EE485D" opacity="0.6" points="161 1.09215414e-12 162 1.09215414e-12 162 10 161 10"></polygon>
                        <polygon id="Rectangle" fill="#EE485D" opacity="0.6" points="1.25055521e-12 1.09215414e-12 1 1.09215414e-12 1 10 1.70530257e-12 10"></polygon>
                        <g id="Kuma-logo" transform="translate(122.500000, 109.000000) scale(-1, -1) translate(-122.500000, -109.000000) translate(95.000000, 91.000000)" fill-rule="nonzero">
                            <path d="M6.05740741,35.1914815 C6.23555556,34.2322222 7.42777778,24.4888889 22.5018519,23.4885185 C37.85,22.7074074 39.3025926,32.3274074 39.3025926,35.2051852 L45.9762963,35.2051852 C46.6751852,30.1759259 42.9340741,11.6348148 20.597037,14.54 C4.5637037,16.6092593 4.00185185,34.1911111 4.00185185,35.2051852 L6.05740741,35.1914815 Z" id="Path" fill="#EE485D"></path>
                            <path d="M23.8448148,35.1914815 C23.8448148,35.1914815 17.3492593,19.3362963 39.6725926,2.30259259 C40.4125926,-1.31518519 42.1803704,1.2337037 42.1803704,1.2337037 L44.7977778,2.00111111 C44.7977778,2.00111111 49.3337037,3.22074074 49.6762963,3.78259259 C50.2244444,4.68703704 50.3751852,5.56407407 50.8548148,5.71481481 C51.3344444,5.86555556 54.3766667,7.08518519 54.3766667,7.08518519 L53.4585185,9.49703704 C49.2678362,10.6721518 45.3256248,12.5991456 41.8240741,15.1840741 C35.0544444,20.6655556 28.3396296,29.4359259 29.1207407,35.2462963 L23.8448148,35.1914815 Z" id="Path" fill="#3DB664" style="mix-blend-mode: multiply;"></path>
                            <path d="M50.8548148,5.74222222 C50.3751852,5.59148148 50.2518519,4.74185185 49.69,3.85111111 C49.3611111,3.28925926 42.1803704,1.24740741 42.1803704,1.24740741 C42.1803704,1.24740741 40.4125926,-1.27407407 39.6725926,2.33 C39.6725926,2.33 35.4107407,2.75481481 30.9022222,3.27555556 C24.8588889,3.97444444 16.9655556,2.94666667 10.0451852,8.03074074 C-1.26037037,16.3351852 0.452592593,33.272963 0.452592593,35.2051852 L2.23407407,35.2051852 C2.23407407,34.4925926 2.42592593,17.1025926 16.9655556,12.2925926 C33.917037,6.49592593 41.8240741,15.1292593 41.8240741,15.1292593 C45.3479694,12.5845941 49.2835728,10.665466 53.4585185,9.45592593 L54.3766667,7.04407407 C54.3766667,7.04407407 51.3207407,5.85185185 50.8548148,5.74222222 Z" id="Path" fill="#00CDDE" style="mix-blend-mode: multiply;"></path>
                            <path d="M13.0737037,35.1914815 L18.98,35.1914815 C19.6789464,33.7254949 20.2920795,32.220116 20.8162963,30.682963 C22.5977778,25.4755556 25.3933333,17.4862963 19.3637037,15.4033333 C9.86703704,12.6625926 6.4137037,20.4325926 5.07074074,23.0774074 C3.29318597,26.8742777 2.32706031,31.0001477 2.23407407,35.1914815 L4.00185185,35.1914815 C4.16071422,32.8452666 4.66877746,30.5358883 5.50925926,28.3396296 C8.07185185,22.5703704 12.2514815,21.9537037 14.4303704,22.6251852 C17.8151852,23.6666667 13.4711111,34.3144444 13.0737037,35.1914815 Z" id="Path" fill="#006ED9" opacity="0.9" style="mix-blend-mode: multiply;"></path>
                            <path d="M17.8562963,15.0881481 C18.7559157,14.8382538 19.6716566,14.6505269 20.597037,14.5262963 C23.0217613,14.1890746 25.4773898,14.133892 27.9148148,14.3618519 C28.8223017,13.0018431 29.8107524,11.6976373 30.8748148,10.4562963 C26.155052,10.0270835 21.3989405,10.6543659 16.9518519,12.2925926 C13.4353577,13.4328218 10.3231684,15.5647191 7.98962963,18.4318519 C10.3854688,15.5467819 14.2000739,14.2540546 17.8562963,15.0881481 L17.8562963,15.0881481 Z" id="Path" fill="#00E8C2"></path>
                        </g>
                    </g>
                    <g id="Shape" transform="translate(0.000000, 205.000000)">
                        <mask id="mask-3" fill="white">
                            <use xlink:href="#path-2"></use>
                        </mask>
                        <path stroke-opacity="0.2" stroke="#062F4D" stroke-width="2" d="M30,-1 C21.4395864,-1 13.6895864,2.46979319 8.07968978,8.07968978 C2.46979319,13.6895864 -1,21.4395864 -1,30 C-1,38.5604136 2.46979319,46.3104136 8.07968978,51.9203102 C13.6895864,57.5302068 21.4395864,61 30,61 C38.5604136,61 46.3104136,57.5302068 51.9203102,51.9203102 C57.5302068,46.3104136 61,38.5604136 61,30 C61,21.4395864 57.5302068,13.6895864 51.9203102,8.07968978 C46.3104136,2.46979319 38.5604136,-1 30,-1 Z"></path>
                        <path d="M14.3770005,14.4 C17.124065,14.4 19.3510007,16.5785966 19.3510007,19.2660318 C19.3510007,21.9534669 17.124065,24.1320635 14.3770005,24.1320635 C11.629936,24.1320635 9.40300027,21.9534669 9.40300027,19.2660318 C9.40300027,16.5785966 11.629936,14.4 14.3770005,14.4 Z M23.4960009,45.2182012 L22.6670009,45.2182012 L21.8380008,44.4071959 L21.0090008,31.4311112 L20.1800008,31.4311112 L20.1800008,47.6512171 L18.5220007,64.6823283 L17.6930006,65.4933336 L11.0610003,65.4933336 L10.2320003,64.6823283 L8.57400023,47.6512171 L8.57400023,31.4311112 L7.74500019,31.4311112 L6.91600015,44.4071959 L6.08700011,45.2182012 L5.25800008,45.2182012 C4.35008091,45.2001128 3.61848977,44.484402 3.6,43.5961906 L3.6,38.7301589 C3.6,38.7301589 3.88186001,28.0524631 4.46216004,27.8626879 C7.58708238,26.5103346 10.9602071,25.7929638 14.3770005,25.7540741 C19.6577307,25.7540741 22.8908309,27.4052809 24.3084209,28.3492911 C24.880431,28.7296526 25.154001,38.7301589 25.154001,38.7301589 L25.154001,43.5961906 C25.1696892,44.0308981 25.0000507,44.4524404 24.68565,44.7600165 C24.3712493,45.0675926 23.9403538,45.2335489 23.4960009,45.2182012 Z M13.5480005,46.8402118 L15.2060005,46.8402118 L15.2060005,65.4933336 L13.5480005,65.4933336 L13.5480005,46.8402118 Z" fill="url(#linearGradient-4)" opacity="0.4" mask="url(#mask-3)"></path>
                        <path d="M45.5770005,14.4 C48.324065,14.4 50.5510007,16.5785966 50.5510007,19.2660318 C50.5510007,21.9534669 48.324065,24.1320635 45.5770005,24.1320635 C42.829936,24.1320635 40.6030003,21.9534669 40.6030003,19.2660318 C40.6030003,16.5785966 42.829936,14.4 45.5770005,14.4 Z M54.6960009,45.2182012 L53.8670009,45.2182012 L53.0380008,44.4071959 L52.2090008,31.4311112 L51.3800008,31.4311112 L51.3800008,47.6512171 L49.7220007,64.6823283 L48.8930006,65.4933336 L42.2610003,65.4933336 L41.4320003,64.6823283 L39.7740002,47.6512171 L39.7740002,31.4311112 L38.9450002,31.4311112 L38.1160002,44.4071959 L37.2870001,45.2182012 L36.4580001,45.2182012 C35.5500809,45.2001128 34.8184898,44.484402 34.8,43.5961906 L34.8,38.7301589 C34.8,38.7301589 35.08186,28.0524631 35.66216,27.8626879 C38.7870824,26.5103346 42.1602071,25.7929638 45.5770005,25.7540741 C50.8577307,25.7540741 54.0908309,27.4052809 55.5084209,28.3492911 C56.080431,28.7296526 56.354001,38.7301589 56.354001,38.7301589 L56.354001,43.5961906 C56.3696892,44.0308981 56.2000507,44.4524404 55.88565,44.7600165 C55.5712493,45.0675926 55.1403538,45.2335489 54.6960009,45.2182012 Z M44.7480005,46.8402118 L46.4060005,46.8402118 L46.4060005,65.4933336 L44.7480005,65.4933336 L44.7480005,46.8402118 Z" fill="url(#linearGradient-4)" opacity="0.4" mask="url(#mask-3)"></path>
                        <path d="M30.2392658,13.2 C34.276705,13.2 37.5496961,16.4019458 37.5496961,20.351746 C37.5496961,24.3015463 34.276705,27.5034921 30.2392658,27.5034921 C26.2018266,27.5034921 22.9288354,24.3015463 22.9288354,20.351746 C22.9288354,16.4019458 26.2018266,13.2 30.2392658,13.2 Z M43.6417214,58.4943915 L42.4233164,58.4943915 L41.2049113,57.3024339 L39.9865063,38.2311111 L38.7681012,38.2311111 L38.7681012,62.0702646 L36.3312911,87.1013757 L35.112886,88.2933333 L25.3656455,88.2933333 L24.1472405,87.1013757 L21.7104304,62.0702646 L21.7104304,38.2311111 L20.4920253,38.2311111 L19.2736202,57.3024339 L18.0552152,58.4943915 L16.8368101,58.4943915 C15.5024154,58.4678065 14.4271749,57.4159058 14.4,56.1104762 L14.4,48.9587302 C14.4,48.9587302 14.8142577,33.2654154 15.6671413,32.9864974 C20.259929,30.998905 25.2175068,29.9445647 30.2392658,29.8874074 C38.000506,29.8874074 42.7522857,32.3142332 44.8357584,33.701672 C45.6764579,34.2607001 46.0785316,48.9587302 46.0785316,48.9587302 L46.0785316,56.1104762 C46.101589,56.7493782 45.8522664,57.3689309 45.3901827,57.8209843 C44.928099,58.2730378 44.2947995,58.5169485 43.6417214,58.4943915 Z M29.0208607,60.8783069 L31.4576708,60.8783069 L31.4576708,88.2933333 L29.0208607,88.2933333 L29.0208607,60.8783069 Z" fill="url(#linearGradient-5)" mask="url(#mask-3)"></path>
                    </g>
                    <g id="Shape" transform="translate(77.000000, 205.000000)">
                        <mask id="mask-7" fill="white">
                            <use xlink:href="#path-6"></use>
                        </mask>
                        <path stroke-opacity="0.2" stroke="#062F4D" stroke-width="2" d="M30,-1 C21.4395864,-1 13.6895864,2.46979319 8.07968978,8.07968978 C2.46979319,13.6895864 -1,21.4395864 -1,30 C-1,38.5604136 2.46979319,46.3104136 8.07968978,51.9203102 C13.6895864,57.5302068 21.4395864,61 30,61 C38.5604136,61 46.3104136,57.5302068 51.9203102,51.9203102 C57.5302068,46.3104136 61,38.5604136 61,30 C61,21.4395864 57.5302068,13.6895864 51.9203102,8.07968978 C46.3104136,2.46979319 38.5604136,-1 30,-1 Z"></path>
                        <path d="M14.3770005,14.4 C17.124065,14.4 19.3510007,16.5785966 19.3510007,19.2660318 C19.3510007,21.9534669 17.124065,24.1320635 14.3770005,24.1320635 C11.629936,24.1320635 9.40300027,21.9534669 9.40300027,19.2660318 C9.40300027,16.5785966 11.629936,14.4 14.3770005,14.4 Z M23.4960009,45.2182012 L22.6670009,45.2182012 L21.8380008,44.4071959 L21.0090008,31.4311112 L20.1800008,31.4311112 L20.1800008,47.6512171 L18.5220007,64.6823283 L17.6930006,65.4933336 L11.0610003,65.4933336 L10.2320003,64.6823283 L8.57400023,47.6512171 L8.57400023,31.4311112 L7.74500019,31.4311112 L6.91600015,44.4071959 L6.08700011,45.2182012 L5.25800008,45.2182012 C4.35008091,45.2001128 3.61848977,44.484402 3.6,43.5961906 L3.6,38.7301589 C3.6,38.7301589 3.88186001,28.0524631 4.46216004,27.8626879 C7.58708238,26.5103346 10.9602071,25.7929638 14.3770005,25.7540741 C19.6577307,25.7540741 22.8908309,27.4052809 24.3084209,28.3492911 C24.880431,28.7296526 25.154001,38.7301589 25.154001,38.7301589 L25.154001,43.5961906 C25.1696892,44.0308981 25.0000507,44.4524404 24.68565,44.7600165 C24.3712493,45.0675926 23.9403538,45.2335489 23.4960009,45.2182012 Z M13.5480005,46.8402118 L15.2060005,46.8402118 L15.2060005,65.4933336 L13.5480005,65.4933336 L13.5480005,46.8402118 Z" fill="url(#linearGradient-4)" opacity="0.4" mask="url(#mask-7)"></path>
                        <path d="M45.5770005,14.4 C48.324065,14.4 50.5510007,16.5785966 50.5510007,19.2660318 C50.5510007,21.9534669 48.324065,24.1320635 45.5770005,24.1320635 C42.829936,24.1320635 40.6030003,21.9534669 40.6030003,19.2660318 C40.6030003,16.5785966 42.829936,14.4 45.5770005,14.4 Z M54.6960009,45.2182012 L53.8670009,45.2182012 L53.0380008,44.4071959 L52.2090008,31.4311112 L51.3800008,31.4311112 L51.3800008,47.6512171 L49.7220007,64.6823283 L48.8930006,65.4933336 L42.2610003,65.4933336 L41.4320003,64.6823283 L39.7740002,47.6512171 L39.7740002,31.4311112 L38.9450002,31.4311112 L38.1160002,44.4071959 L37.2870001,45.2182012 L36.4580001,45.2182012 C35.5500809,45.2001128 34.8184898,44.484402 34.8,43.5961906 L34.8,38.7301589 C34.8,38.7301589 35.08186,28.0524631 35.66216,27.8626879 C38.7870824,26.5103346 42.1602071,25.7929638 45.5770005,25.7540741 C50.8577307,25.7540741 54.0908309,27.4052809 55.5084209,28.3492911 C56.080431,28.7296526 56.354001,38.7301589 56.354001,38.7301589 L56.354001,43.5961906 C56.3696892,44.0308981 56.2000507,44.4524404 55.88565,44.7600165 C55.5712493,45.0675926 55.1403538,45.2335489 54.6960009,45.2182012 Z M44.7480005,46.8402118 L46.4060005,46.8402118 L46.4060005,65.4933336 L44.7480005,65.4933336 L44.7480005,46.8402118 Z" fill="url(#linearGradient-4)" opacity="0.4" mask="url(#mask-7)"></path>
                        <path d="M30.2392658,13.2 C34.276705,13.2 37.5496961,16.4019458 37.5496961,20.351746 C37.5496961,24.3015463 34.276705,27.5034921 30.2392658,27.5034921 C26.2018266,27.5034921 22.9288354,24.3015463 22.9288354,20.351746 C22.9288354,16.4019458 26.2018266,13.2 30.2392658,13.2 Z M43.6417214,58.4943915 L42.4233164,58.4943915 L41.2049113,57.3024339 L39.9865063,38.2311111 L38.7681012,38.2311111 L38.7681012,62.0702646 L36.3312911,87.1013757 L35.112886,88.2933333 L25.3656455,88.2933333 L24.1472405,87.1013757 L21.7104304,62.0702646 L21.7104304,38.2311111 L20.4920253,38.2311111 L19.2736202,57.3024339 L18.0552152,58.4943915 L16.8368101,58.4943915 C15.5024154,58.4678065 14.4271749,57.4159058 14.4,56.1104762 L14.4,48.9587302 C14.4,48.9587302 14.8142577,33.2654154 15.6671413,32.9864974 C20.259929,30.998905 25.2175068,29.9445647 30.2392658,29.8874074 C38.000506,29.8874074 42.7522857,32.3142332 44.8357584,33.701672 C45.6764579,34.2607001 46.0785316,48.9587302 46.0785316,48.9587302 L46.0785316,56.1104762 C46.101589,56.7493782 45.8522664,57.3689309 45.3901827,57.8209843 C44.928099,58.2730378 44.2947995,58.5169485 43.6417214,58.4943915 Z M29.0208607,60.8783069 L31.4576708,60.8783069 L31.4576708,88.2933333 L29.0208607,88.2933333 L29.0208607,60.8783069 Z" fill="url(#linearGradient-5)" mask="url(#mask-7)"></path>
                    </g>
                    <g id="Shape" transform="translate(157.000000, 205.000000)">
                        <mask id="mask-9" fill="white">
                            <use xlink:href="#path-8"></use>
                        </mask>
                        <path stroke-opacity="0.2" stroke="#062F4D" stroke-width="2" d="M30,-1 C21.4395864,-1 13.6895864,2.46979319 8.07968978,8.07968978 C2.46979319,13.6895864 -1,21.4395864 -1,30 C-1,38.5604136 2.46979319,46.3104136 8.07968978,51.9203102 C13.6895864,57.5302068 21.4395864,61 30,61 C38.5604136,61 46.3104136,57.5302068 51.9203102,51.9203102 C57.5302068,46.3104136 61,38.5604136 61,30 C61,21.4395864 57.5302068,13.6895864 51.9203102,8.07968978 C46.3104136,2.46979319 38.5604136,-1 30,-1 Z"></path>
                        <path d="M14.3770005,14.4 C17.124065,14.4 19.3510007,16.5785966 19.3510007,19.2660318 C19.3510007,21.9534669 17.124065,24.1320635 14.3770005,24.1320635 C11.629936,24.1320635 9.40300027,21.9534669 9.40300027,19.2660318 C9.40300027,16.5785966 11.629936,14.4 14.3770005,14.4 Z M23.4960009,45.2182012 L22.6670009,45.2182012 L21.8380008,44.4071959 L21.0090008,31.4311112 L20.1800008,31.4311112 L20.1800008,47.6512171 L18.5220007,64.6823283 L17.6930006,65.4933336 L11.0610003,65.4933336 L10.2320003,64.6823283 L8.57400023,47.6512171 L8.57400023,31.4311112 L7.74500019,31.4311112 L6.91600015,44.4071959 L6.08700011,45.2182012 L5.25800008,45.2182012 C4.35008091,45.2001128 3.61848977,44.484402 3.6,43.5961906 L3.6,38.7301589 C3.6,38.7301589 3.88186001,28.0524631 4.46216004,27.8626879 C7.58708238,26.5103346 10.9602071,25.7929638 14.3770005,25.7540741 C19.6577307,25.7540741 22.8908309,27.4052809 24.3084209,28.3492911 C24.880431,28.7296526 25.154001,38.7301589 25.154001,38.7301589 L25.154001,43.5961906 C25.1696892,44.0308981 25.0000507,44.4524404 24.68565,44.7600165 C24.3712493,45.0675926 23.9403538,45.2335489 23.4960009,45.2182012 Z M13.5480005,46.8402118 L15.2060005,46.8402118 L15.2060005,65.4933336 L13.5480005,65.4933336 L13.5480005,46.8402118 Z" fill="url(#linearGradient-4)" opacity="0.4" mask="url(#mask-9)"></path>
                        <path d="M45.5770005,14.4 C48.324065,14.4 50.5510007,16.5785966 50.5510007,19.2660318 C50.5510007,21.9534669 48.324065,24.1320635 45.5770005,24.1320635 C42.829936,24.1320635 40.6030003,21.9534669 40.6030003,19.2660318 C40.6030003,16.5785966 42.829936,14.4 45.5770005,14.4 Z M54.6960009,45.2182012 L53.8670009,45.2182012 L53.0380008,44.4071959 L52.2090008,31.4311112 L51.3800008,31.4311112 L51.3800008,47.6512171 L49.7220007,64.6823283 L48.8930006,65.4933336 L42.2610003,65.4933336 L41.4320003,64.6823283 L39.7740002,47.6512171 L39.7740002,31.4311112 L38.9450002,31.4311112 L38.1160002,44.4071959 L37.2870001,45.2182012 L36.4580001,45.2182012 C35.5500809,45.2001128 34.8184898,44.484402 34.8,43.5961906 L34.8,38.7301589 C34.8,38.7301589 35.08186,28.0524631 35.66216,27.8626879 C38.7870824,26.5103346 42.1602071,25.7929638 45.5770005,25.7540741 C50.8577307,25.7540741 54.0908309,27.4052809 55.5084209,28.3492911 C56.080431,28.7296526 56.354001,38.7301589 56.354001,38.7301589 L56.354001,43.5961906 C56.3696892,44.0308981 56.2000507,44.4524404 55.88565,44.7600165 C55.5712493,45.0675926 55.1403538,45.2335489 54.6960009,45.2182012 Z M44.7480005,46.8402118 L46.4060005,46.8402118 L46.4060005,65.4933336 L44.7480005,65.4933336 L44.7480005,46.8402118 Z" fill="url(#linearGradient-4)" opacity="0.4" mask="url(#mask-9)"></path>
                        <path d="M30.2392658,13.2 C34.276705,13.2 37.5496961,16.4019458 37.5496961,20.351746 C37.5496961,24.3015463 34.276705,27.5034921 30.2392658,27.5034921 C26.2018266,27.5034921 22.9288354,24.3015463 22.9288354,20.351746 C22.9288354,16.4019458 26.2018266,13.2 30.2392658,13.2 Z M43.6417214,58.4943915 L42.4233164,58.4943915 L41.2049113,57.3024339 L39.9865063,38.2311111 L38.7681012,38.2311111 L38.7681012,62.0702646 L36.3312911,87.1013757 L35.112886,88.2933333 L25.3656455,88.2933333 L24.1472405,87.1013757 L21.7104304,62.0702646 L21.7104304,38.2311111 L20.4920253,38.2311111 L19.2736202,57.3024339 L18.0552152,58.4943915 L16.8368101,58.4943915 C15.5024154,58.4678065 14.4271749,57.4159058 14.4,56.1104762 L14.4,48.9587302 C14.4,48.9587302 14.8142577,33.2654154 15.6671413,32.9864974 C20.259929,30.998905 25.2175068,29.9445647 30.2392658,29.8874074 C38.000506,29.8874074 42.7522857,32.3142332 44.8357584,33.701672 C45.6764579,34.2607001 46.0785316,48.9587302 46.0785316,48.9587302 L46.0785316,56.1104762 C46.101589,56.7493782 45.8522664,57.3689309 45.3901827,57.8209843 C44.928099,58.2730378 44.2947995,58.5169485 43.6417214,58.4943915 Z M29.0208607,60.8783069 L31.4576708,60.8783069 L31.4576708,88.2933333 L29.0208607,88.2933333 L29.0208607,60.8783069 Z" fill="url(#linearGradient-5)" mask="url(#mask-9)"></path>
                    </g>
                    <g id="Shape" transform="translate(239.000000, 205.000000)">
                        <mask id="mask-11" fill="white">
                            <use xlink:href="#path-10"></use>
                        </mask>
                        <path stroke-opacity="0.2" stroke="#062F4D" stroke-width="2" d="M30,-1 C21.4395864,-1 13.6895864,2.46979319 8.07968978,8.07968978 C2.46979319,13.6895864 -1,21.4395864 -1,30 C-1,38.5604136 2.46979319,46.3104136 8.07968978,51.9203102 C13.6895864,57.5302068 21.4395864,61 30,61 C38.5604136,61 46.3104136,57.5302068 51.9203102,51.9203102 C57.5302068,46.3104136 61,38.5604136 61,30 C61,21.4395864 57.5302068,13.6895864 51.9203102,8.07968978 C46.3104136,2.46979319 38.5604136,-1 30,-1 Z"></path>
                        <path d="M14.3770005,14.4 C17.124065,14.4 19.3510007,16.5785966 19.3510007,19.2660318 C19.3510007,21.9534669 17.124065,24.1320635 14.3770005,24.1320635 C11.629936,24.1320635 9.40300027,21.9534669 9.40300027,19.2660318 C9.40300027,16.5785966 11.629936,14.4 14.3770005,14.4 Z M23.4960009,45.2182012 L22.6670009,45.2182012 L21.8380008,44.4071959 L21.0090008,31.4311112 L20.1800008,31.4311112 L20.1800008,47.6512171 L18.5220007,64.6823283 L17.6930006,65.4933336 L11.0610003,65.4933336 L10.2320003,64.6823283 L8.57400023,47.6512171 L8.57400023,31.4311112 L7.74500019,31.4311112 L6.91600015,44.4071959 L6.08700011,45.2182012 L5.25800008,45.2182012 C4.35008091,45.2001128 3.61848977,44.484402 3.6,43.5961906 L3.6,38.7301589 C3.6,38.7301589 3.88186001,28.0524631 4.46216004,27.8626879 C7.58708238,26.5103346 10.9602071,25.7929638 14.3770005,25.7540741 C19.6577307,25.7540741 22.8908309,27.4052809 24.3084209,28.3492911 C24.880431,28.7296526 25.154001,38.7301589 25.154001,38.7301589 L25.154001,43.5961906 C25.1696892,44.0308981 25.0000507,44.4524404 24.68565,44.7600165 C24.3712493,45.0675926 23.9403538,45.2335489 23.4960009,45.2182012 Z M13.5480005,46.8402118 L15.2060005,46.8402118 L15.2060005,65.4933336 L13.5480005,65.4933336 L13.5480005,46.8402118 Z" fill="url(#linearGradient-4)" opacity="0.4" mask="url(#mask-11)"></path>
                        <path d="M45.5770005,14.4 C48.324065,14.4 50.5510007,16.5785966 50.5510007,19.2660318 C50.5510007,21.9534669 48.324065,24.1320635 45.5770005,24.1320635 C42.829936,24.1320635 40.6030003,21.9534669 40.6030003,19.2660318 C40.6030003,16.5785966 42.829936,14.4 45.5770005,14.4 Z M54.6960009,45.2182012 L53.8670009,45.2182012 L53.0380008,44.4071959 L52.2090008,31.4311112 L51.3800008,31.4311112 L51.3800008,47.6512171 L49.7220007,64.6823283 L48.8930006,65.4933336 L42.2610003,65.4933336 L41.4320003,64.6823283 L39.7740002,47.6512171 L39.7740002,31.4311112 L38.9450002,31.4311112 L38.1160002,44.4071959 L37.2870001,45.2182012 L36.4580001,45.2182012 C35.5500809,45.2001128 34.8184898,44.484402 34.8,43.5961906 L34.8,38.7301589 C34.8,38.7301589 35.08186,28.0524631 35.66216,27.8626879 C38.7870824,26.5103346 42.1602071,25.7929638 45.5770005,25.7540741 C50.8577307,25.7540741 54.0908309,27.4052809 55.5084209,28.3492911 C56.080431,28.7296526 56.354001,38.7301589 56.354001,38.7301589 L56.354001,43.5961906 C56.3696892,44.0308981 56.2000507,44.4524404 55.88565,44.7600165 C55.5712493,45.0675926 55.1403538,45.2335489 54.6960009,45.2182012 Z M44.7480005,46.8402118 L46.4060005,46.8402118 L46.4060005,65.4933336 L44.7480005,65.4933336 L44.7480005,46.8402118 Z" fill="url(#linearGradient-4)" opacity="0.4" mask="url(#mask-11)"></path>
                        <path d="M30.2392658,13.2 C34.276705,13.2 37.5496961,16.4019458 37.5496961,20.351746 C37.5496961,24.3015463 34.276705,27.5034921 30.2392658,27.5034921 C26.2018266,27.5034921 22.9288354,24.3015463 22.9288354,20.351746 C22.9288354,16.4019458 26.2018266,13.2 30.2392658,13.2 Z M43.6417214,58.4943915 L42.4233164,58.4943915 L41.2049113,57.3024339 L39.9865063,38.2311111 L38.7681012,38.2311111 L38.7681012,62.0702646 L36.3312911,87.1013757 L35.112886,88.2933333 L25.3656455,88.2933333 L24.1472405,87.1013757 L21.7104304,62.0702646 L21.7104304,38.2311111 L20.4920253,38.2311111 L19.2736202,57.3024339 L18.0552152,58.4943915 L16.8368101,58.4943915 C15.5024154,58.4678065 14.4271749,57.4159058 14.4,56.1104762 L14.4,48.9587302 C14.4,48.9587302 14.8142577,33.2654154 15.6671413,32.9864974 C20.259929,30.998905 25.2175068,29.9445647 30.2392658,29.8874074 C38.000506,29.8874074 42.7522857,32.3142332 44.8357584,33.701672 C45.6764579,34.2607001 46.0785316,48.9587302 46.0785316,48.9587302 L46.0785316,56.1104762 C46.101589,56.7493782 45.8522664,57.3689309 45.3901827,57.8209843 C44.928099,58.2730378 44.2947995,58.5169485 43.6417214,58.4943915 Z M29.0208607,60.8783069 L31.4576708,60.8783069 L31.4576708,88.2933333 L29.0208607,88.2933333 L29.0208607,60.8783069 Z" fill="url(#linearGradient-5)" mask="url(#mask-11)"></path>
                    </g>
                </g>
            </g>
        </g>
    </g>
</svg>