<svg xmlns="http://www.w3.org/2000/svg" preserveAspectRatio="xMidYMid" width="440" height="81" viewBox="0 0 440 81"><defs><style>.cls-2 { opacity: 0.2; } .cls-3 { fill: #6f8493; } .cls-4 { fill: #345469; opacity: 0.5; }</style></defs><g id="enterprise-footersvg" class="cls-2" fill-rule="evenodd"><path d="M438 81V46h-74v35h-2V46c0-1.105.895-2 2-2h74c1.105 0 2 .895 2 2v35h-2zM340 2H234v79h-2V2c0-1.105.895-2 2-2h106c1.105 0 2 .895 2 2v79h-2V2zM196 57h-64v24h-2V57c0-1.105.895-2 2-2h8V37c0-1.105.895-2 2-2h22V10c0-.552.448-1 1-1s1 .448 1 1v25h20c1.105 0 2 .895 2 2v18h8c1.105 0 2 .895 2 2v24h-2V57zm-10-20h-44v18h44V37zM70 57H2v24H0V47c0-1.105.895-2 2-2h68c1.105 0 2 .895 2 2v34h-2V57zm0-10H2v8h68v-8z" id="path-1" class="cls-3"/><path d="M405 76v-2h25v2h-25zm0-12h25v2h-25v-2zm0-10h25v2h-25v-2zm-33 20h25v2h-25v-2zm0-10h25v2h-25v-2zm0-10h25v2h-25v-2zm-46 22v-6h2v4h4v2h-6zm0-14v-6h2v4h4v2h-6zm0-12v-6h2v4h4v2h-6zm0-12v-6h2v4h4v2h-6zm0-14V10h2v12h4v2h-6zm-14 52v-6h2v4h4v2h-6zm0-14v-6h2v4h4v2h-6zm0-12v-6h2v4h4v2h-6zm0-12v-6h2v4h4v2h-6zm0-14V10h2v12h4v2h-6zm-14 52v-6h2v4h4v2h-6zm0-14v-6h2v4h4v2h-6zm0-12v-6h2v4h4v2h-6zm0-12v-6h2v4h4v2h-6zm0-14V10h2v12h4v2h-6zm-14 52v-6h2v4h4v2h-6zm0-14v-6h2v4h4v2h-6zm0-12v-6h2v4h4v2h-6zm0-12v-6h2v4h4v2h-6zm0-14V10h2v12h4v2h-6zm-14 52v-6h2v4h4v2h-6zm0-14v-6h2v4h4v2h-6zm0-12v-6h2v4h4v2h-6zm0-12v-6h2v4h4v2h-6zm0-14V10h2v12h4v2h-6zm-14 52v-6h2v4h4v2h-6zm0-14v-6h2v4h4v2h-6zm0-12v-6h2v4h4v2h-6zm0-12v-6h2v4h4v2h-6zm0-14V10h2v12h4v2h-6zm-14 52v-6h2v4h4v2h-6zm0-14v-6h2v4h4v2h-6zm0-12v-6h2v4h4v2h-6zm0-12v-6h2v4h4v2h-6zm0-14V10h2v12h4v2h-6zm-56 42c0-.552.448-1 1-1s1 .448 1 1v15h-2V66zm-9 0c0-.552.448-1 1-1s1 .448 1 1v15h-2V66zm-9 0c0-.552.448-1 1-1s1 .448 1 1v15h-2V66zm-9 0c0-.552.448-1 1-1s1 .448 1 1v15h-2V66zm-9 0c0-.552.448-1 1-1s1 .448 1 1v15h-2V66zm-9 0c0-.552.448-1 1-1s1 .448 1 1v15h-2V66zM61 77c-.552 0-1-.448-1-1s.448-1 1-1 1 .448 1 1-.448 1-1 1zm0-10H51c-.552 0-1-.448-1-1s.448-1 1-1h10c.552 0 1 .448 1 1s-.448 1-1 1zm-20 0H31c-.552 0-1-.448-1-1s.448-1 1-1h10c.552 0 1 .448 1 1s-.448 1-1 1zm-20 0H11c-.552 0-1-.448-1-1s.448-1 1-1h10c.552 0 1 .448 1 1s-.448 1-1 1zm-10 8c.552 0 1 .448 1 1s-.448 1-1 1-1-.448-1-1 .448-1 1-1zm10 0h10c.552 0 1 .448 1 1s-.448 1-1 1H21c-.552 0-1-.448-1-1s.448-1 1-1zm20 0h10c.552 0 1 .448 1 1s-.448 1-1 1H41c-.552 0-1-.448-1-1s.448-1 1-1z" id="path-2" class="cls-4"/></g></svg>