<svg xmlns="http://www.w3.org/2000/svg" preserveAspectRatio="xMidYMid" width="64" height="64" viewBox="0 0 64 64"><defs><style>.cls-3{fill:#fff}.cls-4{fill:#e8f6ea}.cls-5{fill:#bfe5c6}.cls-6{fill:#40bb53}</style></defs><g id="icn-installationsvg"><path id="rect-1" class="cls-3" d="M2 2h60v8H2z"/><path id="rect-2" class="cls-4" d="M2 10h60v52H2z"/><path d="M2 60h60a2 2 0 0 1-2 2H4a2 2 0 0 1-2-2z" id="path-1" class="cls-5" fill-rule="evenodd"/><path d="M60 64H4a4 4 0 0 1-4-4V4a4 4 0 0 1 4-4h56a4 4 0 0 1 4 4v56a4 4 0 0 1-4 4zm2-60a2 2 0 0 0-2-2H4a2 2 0 0 0-2 2v6h60V4zm0 8H2v48a2 2 0 0 0 2 2h56a2 2 0 0 0 2-2V12zM45 50h-8a1 1 0 0 1 0-2h8a1 1 0 0 1 0 2zm-8-8h2a1 1 0 0 1 0 2h-2a1 1 0 0 1 0-2zm8-10h-8a1 1 0 0 1 0-2h8a1 1 0 0 1 0 2zM35 20H23a1 1 0 0 1 0-2h12a1 1 0 0 1 0 2zm-9 5a1 1 0 0 1-1 1h-6a1 1 0 0 1 0-2h6a1 1 0 0 1 1 1zm-9-5H9a1 1 0 0 1 0-2h8a1 1 0 0 1 0 2zm-8 4h4a1 1 0 0 1 0 2H9a1 1 0 0 1 0-2zm0 6h12a1 1 0 0 1 0 2H9a1 1 0 0 1 0-2zm0 6h6a1 1 0 0 1 0 2H9a1 1 0 0 1 0-2zm0 6h10a1 1 0 0 1 0 2H9a1 1 0 0 1 0-2zm0 6h12a1 1 0 0 1 0 2H9a1 1 0 0 1 0-2zm16-10h-4a1 1 0 0 1 0-2h4a1 1 0 0 1 0 2zm2-8h4a1 1 0 0 1 0 2h-4a1 1 0 0 1 0-2zm-2 12h6a1 1 0 0 1 0 2h-6a1 1 0 0 1 0-2zm2 6h4a1 1 0 0 1 0 2h-4a1 1 0 0 1 0-2zM50 5a1 1 0 1 1 0 2 1 1 0 0 1 0-2zm4 0a1 1 0 1 1 0 2 1 1 0 0 1 0-2zm4 0a1 1 0 1 1 0 2 1 1 0 0 1 0-2z" id="path-2" class="cls-6" fill-rule="evenodd"/></g></svg>