<svg width="16" height="16" xmlns="http://www.w3.org/2000/svg"><path d="M8 .737c-4.418 0-8 3.365-8 7.515 0 3.32 2.292 6.136 5.471 7.13.4.069.526-.154.526-.353 0-.179.004-.678 0-1.305-2.225.454-2.686-.99-2.686-.99-.363-.868-.887-1.099-.887-1.099-.727-.466.054-.457.054-.457.803.053 1.226.775 1.226.775.714 1.147 1.872.816 2.328.624.073-.486.28-.817.508-1.005-1.776-.19-3.644-.834-3.644-3.713 0-.821.312-1.491.823-2.017-.082-.19-.357-.954.079-1.988 0 0 .672-.202 2.2.77A8.122 8.122 0 0 1 8 4.372c.68.003 1.364.086 2.004.252 1.527-.972 2.198-.77 2.198-.77.436 1.034.162 1.799.08 1.988.511.526.822 1.196.822 2.017 0 2.887-1.87 3.522-3.653 3.707.287.233.548.684.548 1.385v2.08c0 .2.129.423.535.35C13.71 14.386 16 11.571 16 8.251c0-4.15-3.582-7.514-8-7.514z" fill="#AAB4BB" fill-rule="evenodd"/></svg>