<svg xmlns="http://www.w3.org/2000/svg" preserveAspectRatio="xMidYMid" width="99" height="32" viewBox="0 0 99 32"><defs><style>.cls-3 { fill: #ffffff; } .cls-7 { fill: #abb3c9; } .cls-8 { fill: #10313f; } .cls-9 { fill: #b4bfd1; } .cls-11 { fill: #143b4c; } .cls-12 { fill: #d6dce6; } .cls-13 { fill: #99a0ba; } .cls-16 { fill: #61b9e8; } .cls-17 { fill: #4baad3; } .cls-18 { fill: #0d252c; } .cls-20 { fill: #0b0b0b; } .cls-22 { fill: #525365; }</style></defs><g id="logo-headersvg"><path d="M92.24 17.86v-3.022h6.44v5.3c-1.44 1.582-3.38 2.602-5.9 2.602-3.98 0-7.222-2.66-7.222-6.9 0-4.242 3.24-6.903 7.22-6.903 2.982 0 4.782 1.58 5.703 3.24l-2.88 1.5c-.5-.88-1.52-1.7-2.82-1.7-2.18 0-3.72 1.68-3.72 3.862 0 2.18 1.54 3.86 3.72 3.86.98 0 1.98-.4 2.46-.8v-1.04h-3zm-17.76-3.082V22.5h-3.442V9.157h3.54L79.98 16.5V9.156h3.46V22.5h-3.32l-5.64-7.722zm-12.7 7.962c-4.08 0-7.142-2.84-7.142-6.9 0-4.062 3.06-6.903 7.14-6.903 4.082 0 7.123 2.84 7.123 6.902 0 4.06-3.04 6.9-7.12 6.9zm0-10.762c-2.22 0-3.64 1.68-3.64 3.86 0 2.16 1.42 3.86 3.64 3.86 2.2 0 3.62-1.7 3.62-3.86 0-2.18-1.42-3.86-3.62-3.86zm-7 10.522h-4.22l-3.5-5.02-.9 1.12v3.9h-3.442V9.157h3.44v5.48l4.1-5.48H54.5l-5.18 6.24 5.46 7.103z" id="path-1" class="cls-3" fill-rule="evenodd"/><circle id="circle-1" class="cls-3" cx="16" cy="16" r="16"/><g id="jason-head" fill-rule="evenodd"><g id="bg-1"><path d="M25.78 18.98l-.073-.003-.004-.06c-.015-.19-.295-.703-.402-.884l-.052-.09.31-.025c-.255-.328-.314-.69-.162-1.008.137-.285.433-.492.705-.492.036.003.71.072.678 1.327-.032 1.2-.898 1.235-.997 1.235zM22 18.66c-.013.018-.023.038-.035.056-.138.287-.3.673-.442 1.023.776-.2 2.307-.36 1.085 3.235-.345 1.014-1.328 1.875-2.743 2.434.173.03.367.075.576.132-1.188.303-2.763.566-4.685.578l.14-.028c-2.93-.002-6.135-.966-6.692-3.117-.434-1.68 1.468-3.132 1.486-3.146l.074-.056s-2.34-.242-2.45-2.302c-.108-2.06 1.057-2.016 1.676-3.225.62-1.208 2.33-.483 4.34-.54 2.01-.056 2.178.23 4.03-.138 1.854-.368 4.12.954 5.248 2.508 1.097 1.51-1.182 1.94-1.61 2.58zm-15.3-.627c-.108.18-.388.695-.403.885l-.005.06-.073.002c-.1 0-.966-.035-.998-1.235-.033-1.255.642-1.324.67-1.326h.002c.278 0 .574.205.71.49.152.32.093.68-.162 1.008l.31.024-.053.09z" id="path-2" class="cls-7"/><path d="M26.128 16.218h-.024c-.065 0-.13.01-.196.026v-.133h.005c.143-1.078.202-2.056.18-2.944 0-6.365-5.543-8.61-5.543-8.61v.55c-.97-.78-1.906-1.377-1.906-1.377v.902c-.185-.11-.358-.21-.52-.298-.484-.325-1.187-.827-1.55-1.226l-.494 1.338-.372-1.205c-.14.424-1.378 1.2-1.378 1.202.003-.557-.166-1.446-.166-1.446l-2.482 2-.236-.732s-1.26.81-2.004 1.685v-.425s-3.71 2.455-3.71 7.406v.03c-.04.68-.03 1.408.037 2.192.04.916.102.96.102.96v.106c-.037.003-.903.09-.864 1.534.023.88.478 1.256.883 1.38.02.657.43 7.307 8.9 7.83h2.396c8.44-.52 8.875-7.126 8.898-7.82.41-.118.884-.492.908-1.39.04-1.443-.827-1.53-.864-1.534zm-19.904 2.7h-.01c-.09 0-.895-.033-.926-1.173-.032-1.21.608-1.26.608-1.26.475 0 1.107.73.405 1.49l.334.027s-.39.668-.41.916zm16.278-1.695c-.07 1.455-1.43 2.52-1.442 2.53l-.074.06.075.054c.02.015 1.485.778 1.05 2.46-.557 2.16-3.264 3.262-6.2 3.262-2.933 0-5.64-1.104-6.197-3.262-.435-1.683 1.03-2.446 1.05-2.46l.074-.056-.074-.058c-.013-.01-1.37-1.076-1.442-2.53-.04-.84.352-1.648 1.164-2.403.55-.51 1.286-.768 2.193-.768 1.378 0 2.708.597 3.234.914.528-.317 1.858-.914 3.236-.914.906 0 1.643.258 2.193.77.81.754 1.203 1.563 1.162 2.4zm4.21.522c-.03 1.14-.836 1.173-.927 1.173h-.01c-.018-.248-.41-.916-.41-.916l.334-.026c-.703-.762-.072-1.492.404-1.492 0 0 .64.052.607 1.26z" id="path-3" class="cls-8"/><path d="M20.71 21.585c0 1.41-2.11 2.553-4.71 2.553s-4.71-1.143-4.71-2.553 2.11-2.553 4.71-2.553 4.71 1.143 4.71 2.553z" id="path-4" class="cls-9"/></g><g id="details"><path d="M8.91 14c.612-.545 1.296-.98 2.123-1.17 1.193-.28 2.458-.076 3.594.32.39.136.77.293 1.133.483.226.118.236.164.465.042.726-.39 1.53-.673 2.345-.838.967-.195 2.008-.206 2.942.133 1.134.412 1.84 1.203 2.548 2.098-.48-1.09-1.18-2.02-2.315-2.573-.897-.436-1.943-.546-2.937-.437-.882.097-1.745.343-2.547.704-.215.097-.243.096-.458 0-.2-.09-.404-.173-.61-.248-.453-.164-.923-.296-1.4-.38-1.068-.19-2.202-.166-3.213.242-1.266.51-2.066 1.52-2.577 2.692.292-.37.576-.73.906-1.07z" id="path-5" class="cls-11"/><path d="M16.812 20.25c-.364 0-.762-.146-.91-.208-.15.062-.547.21-.912.21-.46 0-1.208-.246-1.208-.246s-.38-.58.2-1.137c.528-.508 1.875.126 1.875.126h.089s1.292-.577 1.875-.127c.64.494.198 1.136.198 1.136s-.746.245-1.206.245zm2.444 2.508s-1.1.84-3.288.84c-2.187 0-3.287-.84-3.287-.84s1.26.436 3.307.436c2.046 0 3.27-.436 3.27-.436z" id="path-6" class="cls-12"/><path d="M22.167 17.062c-1.533-3.195-6.262-1.31-6.262-1.31s-4.73-1.885-6.26 1.31c0 0-.124-2.073 2.327-2.67 1.592-.387 3.93.878 3.933.877.004 0 2.34-1.265 3.933-.877 2.452.596 2.33 2.67 2.33 2.67zM13.6 19.237l.01.266c-.635-.016-1.213.294-1.725.61.49-.41 1.042-.798 1.715-.876zm6.27.877c-.52-.358-1.1-.65-1.766-.64l.012-.265c.698.08 1.265.455 1.755.904z" id="path-7" class="cls-13"/><path d="M21.117 22.185c-.046-.147-.066-.3-.11-.448l-.067.06c-.334.294-.726.533-1.132.727-.73.35-1.528.564-2.336.674-1.07.146-2.182.135-3.247-.05-.768-.13-1.52-.36-2.207-.717-.367-.19-.722-.417-1.023-.694-.04.147-.06.3-.1.447-.123-.19-.146-.432-.05-.635.09-.19.323-.365.555-.325-.092.063-.177.137-.247.222-.034.042-.024.042.01.072l.064.06c.06.05.123.1.186.15.2.153.417.288.64.41.738.4 1.564.65 2.402.778 1.154.178 2.364.158 3.51-.07.764-.155 1.514-.414 2.177-.81.19-.115.372-.24.542-.38.05-.042.1-.086.147-.13.01-.008.02-.015.026-.025.013-.02.015-.015-.005-.04-.072-.09-.167-.17-.265-.233.278-.055.57.198.614.447.033.178.015.352-.083.51zm-3.58-2.537c0 .19-.24.344-.537.344-.297 0-.537-.155-.537-.344 0-.19.24-.344.537-.344.296 0 .537.153.537.344zm.563-.168c-.044-.287-.26-.543-.55-.634-.356-.11-.754-.07-1.116-.01.336-.143.776-.216 1.134-.116.168.047.32.126.434.253.033.036.062.08.088.12.014.02.136.267.112.273.026.235-.022.47-.193.652.07-.177.12-.345.09-.538zm-3.192.512c-.296 0-.536-.155-.536-.344 0-.19.24-.344.536-.344.296 0 .536.153.536.344 0 .19-.24.344-.536.344zm-.99-.91c-.11.142-.186.298-.197.477-.01.163.04.307.1.458-.284-.302-.252-.75.014-1.05.093-.09.184-.158.307-.21.145-.058.31-.08.466-.08.264 0 .548.052.79.158-.19-.033-.38-.052-.573-.056-.32-.005-.698.04-.904.302z" id="path-8" class="cls-8"/></g><g id="bowtie"><path d="M12.176 26.002s-.127-.542.886-.372c1.013.17 2.13.592 2.13.592s.075-.354.697-.313c.622.04.96.362.96.362s1.455-.612 2.056-.602c.602.01.644-.14.718.08.074.22.063.402 0 .712-.063.31-.36.662-.36.873 0 .21.39 1.4-.157 1.473-.548.075-2.332-.84-2.332-.84s-.126.36-.706.36c-.582 0-.888-.242-.888-.242s-1.94.772-2.268.727c-.327-.044-.348-.365-.306-.656.042-.29.158-.812.095-.863-.063-.05-.527-1.292-.527-1.292z" id="path-9" class="cls-16"/><path d="M12.984 27.387s.05.565.524.565c.473 0 1.487-.74 1.487-.74s.676.474 1.043.474c.366 0 .668-.474.668-.474s2.156.314 2.732-.39c.576-.702-.134.537-.134.537s.41 1.36-.056 1.472c-.467.11-2.405-.796-2.405-.796s-.513.312-.87.306c-.36-.007-.74-.234-.74-.234s-2.12.788-2.463.644c-.342-.144-.08-1.18.214-1.365z" id="path-10" class="cls-17"/><path d="M19.982 25.79c-.03-.13-.116-.23-.245-.29-.598-.28-2.272.373-2.874.626-.19-.238-.49-.39-.83-.39-.338 0-.638.153-.83.39-.6-.25-2.28-.906-2.877-.626-.13.06-.214.16-.245.29-.157.655.302 1.408.47 1.654-.094.257-.306.956-.048 1.38.078.125.233.18.44.18.555 0 1.484-.38 2.303-.78.192.21.474.345.79.345.332 0 .628-.15.82-.382.814.415 1.736.812 2.282.812.2 0 .348-.053.424-.177.26-.423.047-1.122-.046-1.38.167-.245.626-.998.468-1.654zm-7.152 2.85c-.18-.29.023-.948.107-1.156l.038-.09-.06-.08c-.172-.227-.59-.928-.464-1.444.004-.015.01-.03.044-.046.346-.162 1.635.25 2.537.626-.027.09-.042.183-.042.28v.842c0 .12.023.234.064.34-1.04.5-2.058.833-2.222.73zm3.87-1.068c0 .35-.298.635-.666.635-.368 0-.667-.285-.667-.635v-.84c0-.352.3-.637.667-.637.368 0 .666.285.666.636v.842zm2.426-.088c.085.207.286.864.115 1.15-.17.105-1.18-.248-2.207-.766.03-.094.047-.193.047-.296v-.84c0-.1-.016-.195-.044-.284.9-.376 2.19-.786 2.533-.624.033.016.04.03.042.046.15.62-.457 1.435-.464 1.444l-.06.08.038.09z" id="path-11" class="cls-18"/></g><g id="eyes"><path d="M19.776 18.177c-.1.206-.272.352-.486.407-.02.005-.038.01-.057.012-.418.075-.85-.22-.982-.668-.065-.227-.05-.46.046-.66.1-.206.273-.35.487-.406.435-.114.9.186 1.038.656.067.226.053.46-.044.66zm-6.984.43c-.02-.002-.04-.005-.06-.01-.413-.088-.683-.52-.614-.982.035-.233.15-.44.323-.587.18-.15.4-.22.62-.19.446.06.745.51.672.993-.073.488-.496.837-.94.777z" id="path-12" class="cls-20"/><path d="M19.18 17.568c-.162.03-.316-.07-.346-.222-.03-.15.076-.298.236-.326.16-.03.315.07.345.22.03.152-.076.298-.236.328zm-6.05.047c-.16-.034-.26-.184-.223-.334.035-.15.193-.243.353-.208.16.034.26.184.223.334-.035.15-.193.244-.353.21z" id="path-13" class="cls-3"/><path d="M19.506 18.164c-.006.02-.073.183-.302.19-.04 0-.078 0-.114-.008h-.004l-.04-.007c-.003-.002-.007-.002-.01-.002-.014-.004-.027-.008-.04-.01-.003 0-.005 0-.006-.003-.366-.11-.474-.51-.474-.51.013.016.03.03.043.046.357.4.948.3.948.3s0 .003-.002.004zm-6.675.184c-.038-.014-.07-.032-.1-.05l-.037-.022c-.004-.002-.01-.005-.012-.008-.017-.012-.033-.026-.05-.04l-.006-.007-.004-.004c-.01-.007-.02-.017-.028-.028-.227-.24-.165-.596-.165-.596.004.02.01.04.017.06.162.5.746.635.746.635l-.002.003c-.01.008-.14.143-.357.058z" id="path-14" class="cls-22"/></g></g></g></svg>