<svg xmlns="http://www.w3.org/2000/svg" preserveAspectRatio="xMidYMid" width="22" height="26" viewBox="0 0 22 26"><defs><style>.cls-4 { fill: #abb3c9; } .cls-5 { fill: #10313f; } .cls-6 { fill: #b4bfd1; } .cls-8 { fill: #143b4c; } .cls-9 { fill: #d6dce6; } .cls-10 { fill: #99a0ba; } .cls-13 { fill: #61b9e8; } .cls-14 { fill: #4baad3; } .cls-15 { fill: #0d252c; } .cls-17 { fill: #0b0b0b; } .cls-18 { fill: #ffffff; } .cls-19 { fill: #525365; }</style></defs><g id="jason-footersvg" fill-rule="evenodd"><g id="bg"><path d="M20.78 15.98l-.073-.003-.004-.06c-.015-.19-.295-.703-.402-.885l-.052-.09.31-.024c-.255-.328-.314-.69-.162-1.008.137-.285.433-.492.705-.492.036.003.712.072.678 1.327-.032 1.2-.898 1.235-.997 1.235zM17 15.66c-.013.018-.023.038-.035.056-.138.287-.3.674-.442 1.023.776-.2 2.308-.36 1.085 3.235-.345 1.014-1.328 1.875-2.743 2.434.173.03.367.075.576.132-1.188.303-2.763.565-4.685.578l.14-.028c-2.93-.002-6.135-.966-6.69-3.117-.436-1.678 1.466-3.132 1.484-3.146l.074-.056s-2.34-.242-2.45-2.302c-.108-2.06 1.057-2.015 1.676-3.224.62-1.21 2.33-.484 4.34-.54 2.01-.057 2.178.23 4.03-.138 1.854-.368 4.12.954 5.248 2.51 1.097 1.508-1.182 1.94-1.61 2.58zM1.7 15.03c-.108.182-.388.696-.403.886l-.004.06-.074.002c-.1 0-.966-.035-.998-1.235-.033-1.255.642-1.324.67-1.327h.002c.278 0 .574.207.71.492.152.32.093.68-.162 1.008l.31.024-.053.09z" id="path-1" class="cls-4"/><path d="M21.128 13.218h-.024c-.065 0-.13.01-.196.026v-.133h.005c.143-1.078.202-2.056.18-2.944 0-6.365-5.543-8.61-5.543-8.61v.55C14.58 1.326 13.644.73 13.644.73v.902c-.185-.11-.358-.208-.52-.298-.484-.325-1.187-.827-1.55-1.226l-.494 1.338L10.708.24c-.14.424-1.378 1.2-1.378 1.202.003-.557-.166-1.446-.166-1.446l-2.482 2-.236-.732s-1.26.81-2.004 1.686v-.425S.732 4.98.732 9.93v.032c-.04.677-.03 1.405.037 2.19.04.916.102.96.102.96v.106c-.037.003-.903.09-.864 1.534.023.88.478 1.256.883 1.38.02.657.43 7.307 8.9 7.83h2.396c8.44-.52 8.875-7.126 8.898-7.82.41-.118.884-.492.908-1.39.04-1.444-.827-1.53-.864-1.534zm-19.904 2.7h-.01c-.09 0-.895-.033-.926-1.173-.032-1.21.608-1.26.608-1.26.475 0 1.107.73.405 1.492l.334.026s-.39.668-.41.915zm16.278-1.694c-.07 1.454-1.43 2.52-1.442 2.53l-.073.06.074.053c.02.015 1.485.778 1.05 2.46-.557 2.16-3.264 3.263-6.2 3.263-2.933 0-5.64-1.104-6.197-3.262-.435-1.683 1.03-2.446 1.05-2.46l.074-.055-.074-.06c-.013-.01-1.37-1.075-1.442-2.53-.04-.838.352-1.647 1.164-2.402.55-.51 1.286-.768 2.193-.768 1.378 0 2.708.597 3.234.913.528-.316 1.858-.913 3.236-.913.907 0 1.643.258 2.193.77.81.754 1.203 1.563 1.162 2.402zm4.21.52c-.03 1.14-.836 1.174-.927 1.174h-.01c-.018-.247-.41-.915-.41-.915l.334-.026c-.703-.763-.07-1.493.404-1.493 0 0 .64.052.608 1.26z" id="path-2" class="cls-5"/><path d="M15.71 18.585c0 1.41-2.11 2.553-4.71 2.553s-4.71-1.143-4.71-2.553S8.4 16.032 11 16.032s4.71 1.143 4.71 2.553z" id="path-3" class="cls-6"/></g><g id="details"><path d="M3.91 11c.612-.545 1.296-.98 2.123-1.17 1.193-.278 2.458-.075 3.594.32.39.137.77.293 1.133.483.226.118.236.164.465.042.726-.39 1.53-.673 2.345-.838.967-.195 2.008-.206 2.942.133 1.134.412 1.84 1.203 2.548 2.098-.478-1.09-1.18-2.022-2.315-2.573-.897-.436-1.943-.546-2.937-.437-.882.097-1.745.343-2.547.704-.215.097-.243.096-.458 0-.2-.09-.404-.173-.61-.248-.453-.165-.923-.296-1.4-.38-1.068-.19-2.202-.166-3.213.242-1.266.51-2.066 1.52-2.577 2.692.292-.37.576-.73.906-1.07z" id="path-4" class="cls-8"/><path d="M11.812 17.25c-.364 0-.762-.146-.91-.208-.15.062-.547.21-.912.21-.46 0-1.207-.245-1.207-.245s-.38-.58.2-1.138c.527-.508 1.874.126 1.874.126h.09s1.29-.577 1.874-.127c.64.494.198 1.137.198 1.137s-.746.244-1.206.244zm2.444 2.508s-1.1.84-3.288.84c-2.187 0-3.287-.84-3.287-.84s1.26.436 3.307.436c2.046 0 3.27-.436 3.27-.436z" id="path-5" class="cls-9"/><path d="M17.167 14.062c-1.533-3.195-6.262-1.31-6.262-1.31s-4.73-1.885-6.26 1.31c0 0-.124-2.073 2.327-2.67 1.592-.387 3.93.88 3.933.877.004 0 2.34-1.265 3.933-.878 2.452.597 2.33 2.67 2.33 2.67zM8.6 16.237l.01.266c-.635-.016-1.213.294-1.725.61.49-.41 1.042-.798 1.715-.876zm6.27.877c-.52-.358-1.1-.65-1.766-.64l.012-.265c.698.08 1.265.455 1.755.904z" id="path-6" class="cls-10"/><path d="M16.117 19.185c-.046-.147-.066-.3-.11-.448l-.067.06c-.334.295-.726.533-1.132.727-.73.35-1.528.564-2.336.674-1.07.146-2.182.135-3.247-.05-.768-.13-1.52-.36-2.207-.717-.367-.19-.722-.417-1.023-.694-.04.147-.06.3-.1.447-.122-.19-.146-.432-.05-.635.09-.19.323-.365.555-.325-.092.063-.177.137-.247.222-.034.042-.024.042.01.072l.064.06c.06.05.123.1.186.15.2.152.417.288.64.41.738.4 1.564.65 2.402.778 1.154.178 2.364.16 3.51-.07.764-.155 1.514-.414 2.177-.81.19-.115.373-.24.542-.38.05-.042.1-.086.147-.13.01-.008.02-.015.026-.024.013-.02.015-.016-.005-.04-.072-.09-.167-.17-.265-.233.278-.055.57.198.614.446.033.18.015.353-.083.512zm-3.58-2.537c0 .19-.24.344-.537.344-.297 0-.537-.155-.537-.344 0-.19.24-.344.537-.344.296 0 .537.153.537.344zm.563-.168c-.044-.287-.26-.543-.55-.634-.356-.11-.754-.07-1.116-.01.336-.143.776-.216 1.134-.116.168.047.32.126.435.253.032.036.06.08.087.12.014.02.136.267.112.273.027.235-.022.47-.193.652.07-.177.12-.345.09-.538zm-3.192.512c-.296 0-.536-.155-.536-.344 0-.19.24-.344.536-.344.296 0 .536.153.536.344 0 .19-.24.344-.536.344zm-.99-.91c-.11.14-.186.298-.197.477-.01.163.04.307.1.458-.284-.302-.252-.75.014-1.05.093-.09.184-.158.307-.21.145-.058.31-.078.466-.08.264 0 .548.052.79.158-.19-.033-.38-.052-.573-.055-.32-.004-.698.04-.904.302z" id="path-7" class="cls-5"/></g><g id="bowtie"><path d="M7.176 23s-.127-.54.886-.37c1.013.17 2.13.592 2.13.592s.075-.355.697-.313c.622.04.96.362.96.362s1.455-.612 2.056-.602c.602.01.644-.14.718.08.074.22.063.402 0 .713-.063.31-.36.66-.36.872 0 .21.39 1.4-.157 1.474-.548.073-2.332-.843-2.332-.843s-.126.36-.706.36c-.582 0-.888-.24-.888-.24s-1.94.77-2.268.726c-.327-.044-.348-.365-.306-.656.042-.29.158-.812.095-.862C7.64 24.245 7.176 23 7.176 23z" id="path-8" class="cls-13"/><path d="M7.984 24.387s.05.565.524.565c.473 0 1.487-.74 1.487-.74s.676.474 1.043.474c.366 0 .668-.474.668-.474s2.156.314 2.732-.39c.576-.702-.134.537-.134.537s.41 1.362-.056 1.472c-.467.11-2.405-.797-2.405-.797s-.513.313-.87.306c-.36-.005-.74-.232-.74-.232s-2.12.788-2.463.644c-.342-.143-.08-1.18.214-1.365z" id="path-9" class="cls-14"/><path d="M14.982 22.79c-.03-.13-.116-.23-.245-.29-.598-.28-2.272.373-2.874.626-.19-.238-.49-.392-.83-.392-.338 0-.638.155-.83.393-.6-.252-2.28-.907-2.877-.627-.13.06-.214.16-.245.29-.157.655.302 1.408.47 1.654-.094.257-.306.956-.048 1.38.078.125.233.18.44.18.555 0 1.484-.38 2.303-.78.192.21.474.345.79.345.332 0 .628-.15.82-.382.814.415 1.736.812 2.282.812.2 0 .348-.053.424-.177.26-.423.047-1.122-.046-1.38.167-.245.626-.998.468-1.654zM7.83 25.64c-.18-.29.023-.948.107-1.155l.038-.092-.06-.08c-.172-.226-.59-.926-.464-1.443.004-.015.01-.03.044-.046.346-.162 1.635.25 2.537.626-.027.09-.042.183-.042.28v.842c0 .12.023.234.064.34-1.04.5-2.058.833-2.222.73zm3.87-1.068c0 .35-.298.635-.666.635-.368 0-.667-.284-.667-.635v-.84c0-.352.3-.636.667-.636.368 0 .666.284.666.635v.842zm2.426-.087c.085.206.286.863.115 1.148-.17.106-1.18-.247-2.207-.765.03-.094.047-.193.047-.296v-.84c0-.1-.016-.194-.044-.284.9-.376 2.19-.786 2.533-.624.033.016.04.03.042.046.15.62-.457 1.435-.463 1.443l-.062.08.038.092z" id="path-10" class="cls-15"/></g><g id="eyes"><path d="M14.776 15.177c-.1.206-.272.352-.486.407-.02.005-.038.01-.057.012-.418.075-.85-.22-.98-.668-.068-.227-.053-.46.043-.66.1-.206.273-.35.487-.406.435-.114.9.186 1.038.656.067.226.053.46-.044.66zm-6.984.43c-.02-.002-.04-.005-.06-.01-.413-.088-.683-.52-.614-.982.035-.233.15-.44.323-.587.18-.15.4-.22.62-.19.446.06.745.51.672.993-.073.488-.496.837-.94.777z" id="path-11" class="cls-17"/><path d="M14.18 14.568c-.162.03-.316-.07-.346-.222-.03-.15.076-.298.236-.326.16-.03.315.07.345.22.03.152-.076.298-.236.328zm-6.05.047c-.16-.034-.26-.184-.223-.334.035-.15.193-.243.353-.208.16.034.26.184.223.334-.035.15-.193.244-.353.21z" id="path-12" class="cls-18"/><path d="M14.506 15.164c-.006.02-.073.183-.302.19-.04 0-.078 0-.114-.008h-.004l-.04-.007c-.003-.002-.007-.002-.01-.002-.014-.004-.027-.008-.04-.01-.003 0-.005 0-.006-.003-.366-.11-.474-.51-.474-.51.013.016.03.03.043.046.357.4.948.3.948.3s0 .003-.002.004zm-6.675.184c-.038-.014-.07-.03-.1-.05l-.037-.022c-.004-.002-.01-.005-.012-.008-.017-.012-.033-.026-.05-.04l-.006-.007-.004-.004c-.01-.007-.02-.017-.028-.03-.227-.24-.165-.594-.165-.594.004.02.01.04.017.06.162.5.746.635.746.635l-.002.003c-.01.008-.14.142-.357.058z" id="path-13" class="cls-19"/></g></g></svg>