<svg height="32" viewBox="0 0 96 32" width="96" xmlns="http://www.w3.org/2000/svg"><g fill="#fff" fill-rule="evenodd"><path d="m11.5197255 26.1503163-.8635306 1.0892615 1.9496675 3.0352708-.2028406 1.4047695h8.2698045l.5715827-1.4047695-3.3235398-4.1245323z"/><path d="m16.0419367 7.67885738-2.9904407 5.21734602 14.5902655 17.2066497-.416374 1.5768941h6.6917954l1.2131552-5.5967952-15.6138652-18.40926159z"/><path d="m22.2409849.3230001-4.2139647 3.43183563-1.4202081 2.61190239h3.5270285l6.0583236 7.18176278 3.6022026-2.9461407v-1.87238004l-1.2526864-1.75031045.9247716-.95814965z"/><path d="m7.16694787 18.2954268h-1.97137726l-5.195441 6.5756128v6.8087722h5.57390395l.9827724-1.276564 4.30177584-5.5493238h6.2183927l1.9146726-2.9222434-6.7436396-7.9771529z"/><g transform="translate(41.69697 7.789676)"><path d="m18.8590803 15.8711309c-1.2517144 0-1.8997674-.2005429-2.4363553-.7572837-.8045578-.8021718-1.1175674-1.9159764-1.1175674-5.36912579 0-3.475109.3130096-4.56663101 1.1175674-5.39108536.513906-.53445827 1.1846409-.73500122 2.4363553-.73500122h4.1799419c1.2517144 0 1.9000914.20054295 2.4363553.73500122.8048818.82445435 1.1178914 1.91597636 1.1178914 5.39108536 0 3.47543189-.3130096 4.56695399-1.1178914 5.36912579-.5362639.5567408-1.1846409.7572837-2.4363553.7572837zm-.1561808-2.6978032h4.4929515v-6.86141073h-4.4929515z"/><path d="m36.7556798 7.49608918c.0012962.04230455.0022682.08654671.0022682.13240356v8.24260586h3.4200998v-8.64369176c0-1.80424068-.2015445-2.45043463-.7154505-2.94065074-.4695144-.46761061-1.1399253-.69043611-2.1907432-.69043611h-1.4973265c-.1840471 0-.3512447.00581284-.5087216.02163668h-.9999458l-1.723173 1.54944456v-1.32920255-.22024201h-1.1548305v.00064587h-2.2523082v12.25249606h3.4200998v-8.37500942h-.0006481v-1.13705592h1.9075441c.012637-.00032294.02495-.00032294.0379111-.00032294h.9610626c.0184695 0 .036615 0 .0544364.00032294h1.2406975v1.13705592z"/><path d="m9.95991911.23081531h4.06977289l-5.84608619 7.37261763 6.09331839 8.31397466h-4.31700509l-4.63455111-6.53233946-1.09909791-.00516697v6.53750643h-3.66506381v-15.68659229h3.66506381v6.08055267h1.09747778z"/><path d="m46.1939239 13.1776873h4.4929515v-6.8659318h-4.4929515zm4.4712418-9.55985981v1.54944457l-1.723173-1.54944457-2.5688821-.02163667c-1.2296806 0-1.9448071.2228255-2.5037528.7576067-.7374844.75728376-1.0952096 2.4110365-1.0952096 5.44081743 0 3.00717545.2906517 4.61636305 1.0057782 5.35136425.5589458.5347812 1.2238482.7802122 2.542636.7802122l4.3364468.0025835.0061565 1.7470811h-6.3574001l.0048604.7224067 1.5546792 1.7173711 5.0431485.0103339c1.2517144 0 1.9671649-.2225026 2.4139975-.6904361.5589457-.5793463.782524-.9378047.782524-3.0540011v-12.7627342z"/></g></g></svg>