<svg xmlns="http://www.w3.org/2000/svg" xmlns:xlink="http://www.w3.org/1999/xlink" preserveAspectRatio="xMidYMid" width="197" height="32" viewBox="0 0 197 32">
  <defs>
    <style>

      .cls-3 {
        fill: #000000;
      }

      .cls-5 {
        fill: #b7ca9d;
      }

      .cls-6 {
        fill: #3c482a;
      }

      .cls-7 {
        fill: #4a612c;
      }

      .cls-8 {
        fill: #759c3e;
      }
    </style>
  </defs>
  <g id="aws-cloud-formationsvg">
    <path d="M195.228,22.463 C195.228,22.463 195.228,16.868 195.228,16.868 C195.228,16.486 195.194,16.130 195.124,15.800 C195.055,15.470 194.934,15.183 194.761,14.940 C194.588,14.696 194.355,14.505 194.061,14.366 C193.767,14.227 193.401,14.158 192.963,14.158 C192.525,14.158 192.135,14.236 191.795,14.392 C191.455,14.549 191.167,14.763 190.931,15.035 C190.694,15.307 190.510,15.632 190.377,16.008 C190.245,16.385 190.173,16.793 190.161,17.233 C190.161,17.233 190.161,22.463 190.161,22.463 C190.161,22.463 189.072,22.463 189.072,22.463 C189.072,22.463 189.072,13.497 189.072,13.497 C189.072,13.497 190.161,13.497 190.161,13.497 C190.161,13.497 190.161,15.044 190.161,15.044 C190.161,15.044 190.196,15.044 190.196,15.044 C190.403,14.499 190.772,14.062 191.303,13.732 C191.833,13.402 192.415,13.237 193.049,13.237 C193.672,13.237 194.193,13.318 194.614,13.480 C195.035,13.642 195.372,13.871 195.626,14.166 C195.879,14.462 196.058,14.824 196.162,15.252 C196.266,15.681 196.318,16.162 196.318,16.695 C196.318,16.695 196.318,22.463 196.318,22.463 C196.318,22.463 195.228,22.463 195.228,22.463 ZM186.374,21.316 C186.017,21.745 185.576,22.084 185.051,22.333 C184.526,22.582 183.924,22.707 183.244,22.707 C182.564,22.707 181.961,22.582 181.437,22.333 C180.912,22.084 180.471,21.745 180.114,21.316 C179.757,20.888 179.486,20.387 179.301,19.813 C179.117,19.240 179.025,18.629 179.025,17.980 C179.025,17.332 179.117,16.721 179.301,16.147 C179.486,15.574 179.757,15.073 180.114,14.644 C180.471,14.216 180.912,13.874 181.437,13.619 C181.961,13.364 182.564,13.237 183.244,13.237 C183.924,13.237 184.526,13.364 185.051,13.619 C185.576,13.874 186.017,14.216 186.374,14.644 C186.731,15.073 187.002,15.574 187.187,16.147 C187.371,16.721 187.464,17.332 187.464,17.980 C187.464,18.629 187.371,19.240 187.187,19.813 C187.002,20.387 186.731,20.888 186.374,21.316 ZM186.175,16.582 C186.043,16.124 185.847,15.716 185.587,15.357 C185.328,14.998 185.002,14.708 184.610,14.488 C184.218,14.268 183.763,14.158 183.244,14.158 C182.725,14.158 182.270,14.268 181.878,14.488 C181.486,14.708 181.160,14.998 180.901,15.357 C180.641,15.716 180.445,16.124 180.313,16.582 C180.180,17.039 180.114,17.505 180.114,17.980 C180.114,18.455 180.180,18.922 180.313,19.379 C180.445,19.837 180.641,20.245 180.901,20.604 C181.160,20.963 181.486,21.253 181.878,21.473 C182.270,21.693 182.725,21.803 183.244,21.803 C183.763,21.803 184.218,21.693 184.610,21.473 C185.002,21.253 185.328,20.963 185.587,20.604 C185.847,20.245 186.043,19.837 186.175,19.379 C186.308,18.922 186.374,18.455 186.374,17.980 C186.374,17.505 186.308,17.039 186.175,16.582 ZM176.292,13.497 C176.292,13.497 177.382,13.497 177.382,13.497 C177.382,13.497 177.382,22.463 177.382,22.463 C177.382,22.463 176.292,22.463 176.292,22.463 C176.292,22.463 176.292,13.497 176.292,13.497 ZM176.292,10.057 C176.292,10.057 177.382,10.057 177.382,10.057 C177.382,10.057 177.382,11.812 177.382,11.812 C177.382,11.812 176.292,11.812 176.292,11.812 C176.292,11.812 176.292,10.057 176.292,10.057 ZM173.733,22.550 C173.007,22.550 172.499,22.408 172.211,22.124 C171.923,21.841 171.785,21.316 171.796,20.552 C171.796,20.552 171.796,14.418 171.796,14.418 C171.796,14.418 170.240,14.418 170.240,14.418 C170.240,14.418 170.240,13.497 170.240,13.497 C170.240,13.497 171.796,13.497 171.796,13.497 C171.796,13.497 171.796,10.804 171.796,10.804 C171.796,10.804 172.886,10.804 172.886,10.804 C172.886,10.804 172.886,13.497 172.886,13.497 C172.886,13.497 174.701,13.497 174.701,13.497 C174.701,13.497 174.701,14.418 174.701,14.418 C174.701,14.418 172.886,14.418 172.886,14.418 C172.886,14.418 172.886,20.465 172.886,20.465 C172.886,20.824 172.934,21.105 173.033,21.308 C173.130,21.511 173.375,21.624 173.768,21.647 C174.079,21.647 174.390,21.629 174.701,21.594 C174.701,21.594 174.701,22.515 174.701,22.515 C174.540,22.515 174.378,22.521 174.217,22.533 C174.056,22.544 173.894,22.550 173.733,22.550 ZM169.254,22.463 C168.977,22.463 168.755,22.426 168.588,22.350 C168.421,22.275 168.291,22.168 168.199,22.029 C168.107,21.890 168.046,21.725 168.018,21.534 C167.989,21.343 167.974,21.131 167.974,20.899 C167.974,20.899 167.940,20.899 167.940,20.899 C167.744,21.189 167.545,21.447 167.343,21.673 C167.141,21.899 166.917,22.087 166.669,22.237 C166.421,22.388 166.138,22.504 165.821,22.585 C165.504,22.666 165.127,22.707 164.689,22.707 C164.274,22.707 163.885,22.657 163.521,22.559 C163.158,22.461 162.841,22.304 162.570,22.090 C162.299,21.875 162.086,21.603 161.930,21.273 C161.775,20.943 161.697,20.552 161.697,20.100 C161.697,19.475 161.835,18.985 162.112,18.632 C162.389,18.279 162.755,18.009 163.210,17.824 C163.665,17.639 164.179,17.508 164.749,17.433 C165.320,17.358 165.899,17.285 166.487,17.216 C166.718,17.193 166.920,17.164 167.092,17.129 C167.265,17.094 167.409,17.033 167.525,16.946 C167.640,16.860 167.729,16.741 167.793,16.590 C167.856,16.440 167.888,16.243 167.888,15.999 C167.888,15.629 167.827,15.325 167.706,15.087 C167.585,14.850 167.418,14.662 167.205,14.523 C166.991,14.384 166.744,14.288 166.461,14.236 C166.179,14.184 165.876,14.158 165.553,14.158 C164.862,14.158 164.297,14.323 163.859,14.653 C163.420,14.983 163.190,15.513 163.167,16.243 C163.167,16.243 162.077,16.243 162.077,16.243 C162.112,15.721 162.221,15.270 162.406,14.887 C162.590,14.505 162.841,14.192 163.158,13.949 C163.475,13.706 163.847,13.526 164.274,13.410 C164.700,13.295 165.173,13.237 165.692,13.237 C166.083,13.237 166.476,13.274 166.868,13.350 C167.259,13.425 167.611,13.567 167.922,13.775 C168.234,13.984 168.487,14.277 168.683,14.653 C168.879,15.029 168.977,15.519 168.977,16.121 C168.977,16.121 168.977,20.882 168.977,20.882 C168.977,21.322 169.191,21.542 169.617,21.542 C169.744,21.542 169.859,21.519 169.963,21.473 C169.963,21.473 169.963,22.394 169.963,22.394 C169.836,22.417 169.724,22.434 169.626,22.446 C169.528,22.458 169.404,22.463 169.254,22.463 ZM167.888,17.563 C167.888,17.563 167.853,17.563 167.853,17.563 C167.784,17.691 167.651,17.783 167.456,17.841 C167.259,17.899 167.086,17.940 166.937,17.963 C166.476,18.044 166.000,18.117 165.510,18.180 C165.020,18.244 164.573,18.340 164.170,18.467 C163.766,18.594 163.435,18.777 163.176,19.014 C162.916,19.252 162.786,19.591 162.786,20.031 C162.786,20.309 162.841,20.555 162.951,20.769 C163.060,20.984 163.207,21.169 163.392,21.325 C163.576,21.482 163.789,21.600 164.032,21.681 C164.274,21.763 164.521,21.803 164.775,21.803 C165.190,21.803 165.588,21.739 165.968,21.612 C166.349,21.485 166.680,21.299 166.963,21.056 C167.245,20.813 167.470,20.517 167.637,20.170 C167.804,19.822 167.888,19.428 167.888,18.988 C167.888,18.988 167.888,17.563 167.888,17.563 ZM159.017,16.434 C159.017,15.693 158.861,15.128 158.550,14.740 C158.238,14.352 157.691,14.158 156.907,14.158 C156.434,14.158 156.042,14.248 155.731,14.427 C155.420,14.607 155.172,14.847 154.987,15.148 C154.803,15.449 154.673,15.794 154.598,16.182 C154.523,16.570 154.486,16.973 154.486,17.390 C154.486,17.390 154.486,22.463 154.486,22.463 C154.486,22.463 153.396,22.463 153.396,22.463 C153.396,22.463 153.396,16.382 153.396,16.382 C153.396,16.081 153.364,15.794 153.301,15.522 C153.238,15.250 153.134,15.012 152.990,14.809 C152.846,14.607 152.653,14.447 152.411,14.331 C152.169,14.216 151.875,14.158 151.529,14.158 C151.067,14.158 150.667,14.242 150.327,14.410 C149.987,14.578 149.710,14.809 149.497,15.105 C149.283,15.400 149.125,15.748 149.021,16.147 C148.917,16.547 148.866,16.984 148.866,17.459 C148.866,17.459 148.866,22.463 148.866,22.463 C148.866,22.463 147.776,22.463 147.776,22.463 C147.776,22.463 147.776,13.497 147.776,13.497 C147.776,13.497 148.779,13.497 148.779,13.497 C148.779,13.497 148.779,15.009 148.779,15.009 C148.779,15.009 148.831,15.009 148.831,15.009 C149.119,14.453 149.497,14.019 149.964,13.706 C150.431,13.393 151.027,13.237 151.754,13.237 C152.341,13.237 152.875,13.382 153.353,13.671 C153.831,13.961 154.151,14.401 154.313,14.992 C154.578,14.401 154.970,13.961 155.489,13.671 C156.008,13.382 156.561,13.237 157.149,13.237 C159.120,13.237 160.106,14.285 160.106,16.382 C160.106,16.382 160.106,22.463 160.106,22.463 C160.106,22.463 159.017,22.463 159.017,22.463 C159.017,22.463 159.017,16.434 159.017,16.434 ZM145.390,14.670 C144.986,14.827 144.637,15.050 144.343,15.339 C144.050,15.629 143.822,15.973 143.660,16.373 C143.499,16.773 143.418,17.210 143.418,17.685 C143.418,17.685 143.418,22.463 143.418,22.463 C143.418,22.463 142.329,22.463 142.329,22.463 C142.329,22.463 142.329,13.497 142.329,13.497 C142.329,13.497 143.332,13.497 143.332,13.497 C143.332,13.497 143.332,15.600 143.332,15.600 C143.332,15.600 143.366,15.600 143.366,15.600 C143.643,14.870 144.072,14.308 144.655,13.914 C145.237,13.521 145.931,13.341 146.739,13.376 C146.739,13.376 146.739,14.470 146.739,14.470 C146.243,14.447 145.793,14.514 145.390,14.670 ZM139.614,21.316 C139.256,21.745 138.815,22.084 138.291,22.333 C137.766,22.582 137.164,22.707 136.484,22.707 C135.803,22.707 135.201,22.582 134.677,22.333 C134.152,22.084 133.711,21.745 133.354,21.316 C132.996,20.888 132.725,20.387 132.541,19.813 C132.356,19.240 132.264,18.629 132.264,17.980 C132.264,17.332 132.356,16.721 132.541,16.147 C132.725,15.574 132.996,15.073 133.354,14.644 C133.711,14.216 134.152,13.874 134.677,13.619 C135.201,13.364 135.803,13.237 136.484,13.237 C137.164,13.237 137.766,13.364 138.291,13.619 C138.815,13.874 139.256,14.216 139.614,14.644 C139.971,15.073 140.242,15.574 140.427,16.147 C140.611,16.721 140.703,17.332 140.703,17.980 C140.703,18.629 140.611,19.240 140.427,19.813 C140.242,20.387 139.971,20.888 139.614,21.316 ZM139.415,16.582 C139.282,16.124 139.086,15.716 138.827,15.357 C138.568,14.998 138.242,14.708 137.850,14.488 C137.458,14.268 137.003,14.158 136.484,14.158 C135.965,14.158 135.509,14.268 135.118,14.488 C134.726,14.708 134.400,14.998 134.141,15.357 C133.881,15.716 133.685,16.124 133.553,16.582 C133.420,17.039 133.354,17.505 133.354,17.980 C133.354,18.455 133.420,18.922 133.553,19.379 C133.685,19.837 133.881,20.245 134.141,20.604 C134.400,20.963 134.726,21.253 135.118,21.473 C135.509,21.693 135.965,21.803 136.484,21.803 C137.003,21.803 137.458,21.693 137.850,21.473 C138.242,21.253 138.568,20.963 138.827,20.604 C139.086,20.245 139.282,19.837 139.415,19.379 C139.547,18.922 139.614,18.455 139.614,17.980 C139.614,17.505 139.547,17.039 139.415,16.582 ZM124.811,15.548 C124.811,15.548 130.725,15.548 130.725,15.548 C130.725,15.548 130.725,16.556 130.725,16.556 C130.725,16.556 124.811,16.556 124.811,16.556 C124.811,16.556 124.811,22.463 124.811,22.463 C124.811,22.463 123.635,22.463 123.635,22.463 C123.635,22.463 123.635,10.057 123.635,10.057 C123.635,10.057 131.469,10.057 131.469,10.057 C131.469,10.057 131.469,11.065 131.469,11.065 C131.469,11.065 124.811,11.065 124.811,11.065 C124.811,11.065 124.811,15.548 124.811,15.548 ZM120.349,20.760 C120.349,20.760 120.315,20.760 120.315,20.760 C120.199,21.050 120.030,21.316 119.805,21.560 C119.580,21.803 119.323,22.009 119.035,22.177 C118.747,22.345 118.439,22.475 118.110,22.568 C117.781,22.660 117.456,22.707 117.133,22.707 C116.453,22.707 115.862,22.582 115.360,22.333 C114.859,22.084 114.441,21.742 114.107,21.308 C113.772,20.873 113.524,20.369 113.363,19.796 C113.201,19.223 113.121,18.618 113.121,17.980 C113.121,17.343 113.201,16.738 113.363,16.165 C113.524,15.591 113.772,15.087 114.107,14.653 C114.441,14.218 114.859,13.874 115.360,13.619 C115.862,13.364 116.453,13.237 117.133,13.237 C117.467,13.237 117.793,13.277 118.110,13.358 C118.427,13.440 118.724,13.564 119.001,13.732 C119.277,13.900 119.522,14.106 119.736,14.349 C119.949,14.592 120.113,14.876 120.228,15.200 C120.228,15.200 120.263,15.200 120.263,15.200 C120.263,15.200 120.263,10.057 120.263,10.057 C120.263,10.057 121.352,10.057 121.352,10.057 C121.352,10.057 121.352,22.463 121.352,22.463 C121.352,22.463 120.349,22.463 120.349,22.463 C120.349,22.463 120.349,20.760 120.349,20.760 ZM120.099,16.599 C119.989,16.141 119.810,15.733 119.563,15.374 C119.315,15.015 118.992,14.722 118.594,14.496 C118.196,14.271 117.709,14.158 117.133,14.158 C116.614,14.158 116.170,14.271 115.801,14.496 C115.432,14.722 115.130,15.015 114.893,15.374 C114.657,15.733 114.484,16.141 114.375,16.599 C114.265,17.057 114.210,17.517 114.210,17.980 C114.210,18.444 114.265,18.904 114.375,19.362 C114.484,19.819 114.657,20.228 114.893,20.587 C115.130,20.946 115.432,21.238 115.801,21.464 C116.170,21.690 116.614,21.803 117.133,21.803 C117.709,21.803 118.196,21.690 118.594,21.464 C118.992,21.238 119.315,20.946 119.563,20.587 C119.810,20.228 119.989,19.819 120.099,19.362 C120.208,18.904 120.263,18.444 120.263,17.980 C120.263,17.517 120.208,17.057 120.099,16.599 ZM110.441,20.847 C110.441,20.847 110.406,20.847 110.406,20.847 C110.118,21.450 109.700,21.910 109.152,22.229 C108.605,22.547 107.996,22.707 107.328,22.707 C106.763,22.707 106.282,22.628 105.884,22.472 C105.486,22.316 105.163,22.093 104.915,21.803 C104.667,21.514 104.486,21.160 104.371,20.743 C104.255,20.326 104.198,19.851 104.198,19.318 C104.198,19.318 104.198,13.497 104.198,13.497 C104.198,13.497 105.287,13.497 105.287,13.497 C105.287,13.497 105.287,19.336 105.287,19.336 C105.310,20.147 105.497,20.760 105.849,21.177 C106.201,21.594 106.809,21.803 107.674,21.803 C108.146,21.803 108.550,21.702 108.884,21.499 C109.218,21.296 109.495,21.027 109.714,20.691 C109.933,20.355 110.095,19.970 110.198,19.535 C110.302,19.101 110.354,18.658 110.354,18.206 C110.354,18.206 110.354,13.497 110.354,13.497 C110.354,13.497 111.444,13.497 111.444,13.497 C111.444,13.497 111.444,22.463 111.444,22.463 C111.444,22.463 110.441,22.463 110.441,22.463 C110.441,22.463 110.441,20.847 110.441,20.847 ZM101.500,21.316 C101.143,21.745 100.702,22.084 100.177,22.333 C99.652,22.582 99.050,22.707 98.370,22.707 C97.690,22.707 97.087,22.582 96.563,22.333 C96.038,22.084 95.597,21.745 95.240,21.316 C94.882,20.888 94.611,20.387 94.427,19.813 C94.243,19.240 94.151,18.629 94.151,17.980 C94.151,17.332 94.243,16.721 94.427,16.147 C94.611,15.574 94.882,15.073 95.240,14.644 C95.597,14.216 96.038,13.874 96.563,13.619 C97.087,13.364 97.690,13.237 98.370,13.237 C99.050,13.237 99.652,13.364 100.177,13.619 C100.702,13.874 101.143,14.216 101.500,14.644 C101.857,15.073 102.128,15.574 102.313,16.147 C102.497,16.721 102.590,17.332 102.590,17.980 C102.590,18.629 102.497,19.240 102.313,19.813 C102.128,20.387 101.857,20.888 101.500,21.316 ZM101.301,16.582 C101.169,16.124 100.973,15.716 100.713,15.357 C100.454,14.998 100.128,14.708 99.736,14.488 C99.344,14.268 98.889,14.158 98.370,14.158 C97.851,14.158 97.396,14.268 97.004,14.488 C96.612,14.708 96.286,14.998 96.027,15.357 C95.767,15.716 95.571,16.124 95.439,16.582 C95.306,17.039 95.240,17.505 95.240,17.980 C95.240,18.455 95.306,18.922 95.439,19.379 C95.571,19.837 95.767,20.245 96.027,20.604 C96.286,20.963 96.612,21.253 97.004,21.473 C97.396,21.693 97.851,21.803 98.370,21.803 C98.889,21.803 99.344,21.693 99.736,21.473 C100.128,21.253 100.454,20.963 100.713,20.604 C100.973,20.245 101.169,19.837 101.301,19.379 C101.434,18.922 101.500,18.455 101.500,17.980 C101.500,17.505 101.434,17.039 101.301,16.582 ZM91.418,10.057 C91.418,10.057 92.508,10.057 92.508,10.057 C92.508,10.057 92.508,22.463 92.508,22.463 C92.508,22.463 91.418,22.463 91.418,22.463 C91.418,22.463 91.418,10.057 91.418,10.057 ZM81.120,20.005 C81.495,20.520 81.976,20.934 82.564,21.247 C83.152,21.560 83.855,21.716 84.674,21.716 C85.250,21.716 85.769,21.612 86.230,21.403 C86.691,21.195 87.089,20.911 87.424,20.552 C87.758,20.193 88.029,19.773 88.236,19.292 C88.444,18.812 88.576,18.293 88.634,17.737 C88.634,17.737 89.810,17.737 89.810,17.737 C89.729,18.502 89.551,19.191 89.274,19.805 C88.997,20.419 88.640,20.940 88.202,21.369 C87.763,21.797 87.248,22.127 86.654,22.359 C86.060,22.591 85.400,22.707 84.674,22.707 C83.706,22.707 82.855,22.530 82.123,22.177 C81.391,21.823 80.783,21.351 80.299,20.760 C79.815,20.170 79.451,19.486 79.209,18.710 C78.967,17.934 78.846,17.117 78.846,16.260 C78.846,15.403 78.967,14.586 79.209,13.810 C79.451,13.034 79.815,12.348 80.299,11.751 C80.783,11.155 81.391,10.680 82.123,10.326 C82.855,9.973 83.706,9.796 84.674,9.796 C85.262,9.796 85.835,9.883 86.395,10.057 C86.954,10.231 87.461,10.489 87.916,10.830 C88.372,11.172 88.752,11.592 89.058,12.090 C89.363,12.588 89.556,13.162 89.637,13.810 C89.637,13.810 88.461,13.810 88.461,13.810 C88.357,13.335 88.187,12.910 87.951,12.533 C87.715,12.157 87.426,11.841 87.086,11.586 C86.746,11.331 86.371,11.137 85.962,11.004 C85.553,10.871 85.124,10.804 84.674,10.804 C83.855,10.804 83.152,10.961 82.564,11.273 C81.976,11.586 81.495,12.000 81.120,12.516 C80.745,13.031 80.469,13.613 80.290,14.262 C80.111,14.911 80.022,15.577 80.022,16.260 C80.022,16.932 80.111,17.595 80.290,18.250 C80.469,18.904 80.745,19.489 81.120,20.005 ZM66.300,14.297 C66.571,14.424 66.946,14.552 67.424,14.679 C67.902,14.807 68.528,14.969 69.300,15.165 C69.531,15.212 69.851,15.296 70.260,15.417 C70.669,15.539 71.076,15.733 71.479,15.999 C71.883,16.266 72.232,16.622 72.526,17.068 C72.820,17.514 72.967,18.085 72.967,18.780 C72.967,19.347 72.857,19.874 72.638,20.361 C72.419,20.847 72.093,21.267 71.661,21.621 C71.229,21.974 70.693,22.249 70.053,22.446 C69.413,22.643 68.672,22.741 67.831,22.741 C67.150,22.741 66.490,22.657 65.850,22.489 C65.211,22.322 64.646,22.058 64.156,21.699 C63.666,21.340 63.277,20.882 62.989,20.326 C62.700,19.770 62.562,19.110 62.573,18.345 C62.573,18.345 65.202,18.345 65.202,18.345 C65.202,18.762 65.277,19.116 65.427,19.405 C65.577,19.695 65.775,19.929 66.023,20.109 C66.271,20.289 66.562,20.422 66.897,20.508 C67.231,20.595 67.577,20.639 67.934,20.639 C68.176,20.639 68.436,20.619 68.712,20.578 C68.989,20.538 69.249,20.459 69.491,20.343 C69.733,20.228 69.934,20.068 70.096,19.866 C70.257,19.663 70.338,19.405 70.338,19.092 C70.338,18.757 70.231,18.484 70.018,18.276 C69.805,18.067 69.525,17.893 69.179,17.754 C68.834,17.615 68.441,17.494 68.003,17.390 C67.565,17.285 67.122,17.170 66.672,17.042 C66.211,16.926 65.761,16.784 65.323,16.616 C64.885,16.449 64.493,16.231 64.147,15.965 C63.801,15.698 63.522,15.365 63.308,14.966 C63.095,14.566 62.989,14.082 62.989,13.515 C62.989,12.878 63.124,12.325 63.395,11.855 C63.666,11.386 64.020,10.995 64.458,10.682 C64.896,10.370 65.392,10.138 65.946,9.987 C66.499,9.837 67.052,9.762 67.606,9.762 C68.251,9.762 68.871,9.834 69.465,9.979 C70.058,10.124 70.586,10.358 71.047,10.682 C71.508,11.007 71.874,11.421 72.145,11.925 C72.416,12.429 72.552,13.040 72.552,13.758 C72.552,13.758 69.923,13.758 69.923,13.758 C69.900,13.387 69.822,13.080 69.690,12.837 C69.557,12.594 69.381,12.403 69.162,12.264 C68.943,12.125 68.692,12.026 68.410,11.968 C68.127,11.910 67.819,11.881 67.485,11.881 C67.266,11.881 67.046,11.905 66.828,11.951 C66.608,11.997 66.410,12.079 66.231,12.194 C66.052,12.310 65.905,12.455 65.790,12.629 C65.675,12.802 65.617,13.023 65.617,13.289 C65.617,13.532 65.663,13.729 65.755,13.880 C65.848,14.030 66.029,14.169 66.300,14.297 ZM56.089,22.463 C56.089,22.463 53.996,14.019 53.996,14.019 C53.996,14.019 53.962,14.019 53.962,14.019 C53.962,14.019 51.904,22.463 51.904,22.463 C51.904,22.463 49.154,22.463 49.154,22.463 C49.154,22.463 45.886,10.057 45.886,10.057 C45.886,10.057 48.601,10.057 48.601,10.057 C48.601,10.057 50.555,18.502 50.555,18.502 C50.555,18.502 50.589,18.502 50.589,18.502 C50.589,18.502 52.734,10.057 52.734,10.057 C52.734,10.057 55.276,10.057 55.276,10.057 C55.276,10.057 57.386,18.606 57.386,18.606 C57.386,18.606 57.420,18.606 57.420,18.606 C57.420,18.606 59.443,10.057 59.443,10.057 C59.443,10.057 62.107,10.057 62.107,10.057 C62.107,10.057 58.786,22.463 58.786,22.463 C58.786,22.463 56.089,22.463 56.089,22.463 ZM43.551,22.463 C43.551,22.463 42.617,19.701 42.617,19.701 C42.617,19.701 38.000,19.701 38.000,19.701 C38.000,19.701 37.031,22.463 37.031,22.463 C37.031,22.463 34.299,22.463 34.299,22.463 C34.299,22.463 38.968,10.057 38.968,10.057 C38.968,10.057 41.752,10.057 41.752,10.057 C41.752,10.057 46.370,22.463 46.370,22.463 C46.370,22.463 43.551,22.463 43.551,22.463 ZM40.352,13.115 C40.352,13.115 40.317,13.115 40.317,13.115 C40.317,13.115 38.709,17.668 38.709,17.668 C38.709,17.668 41.908,17.668 41.908,17.668 C41.908,17.668 40.352,13.115 40.352,13.115 Z" id="path-1" class="cls-3" fill-rule="evenodd"/>
    <g id="iso">
      <path d="M25.171,22.022 C25.171,22.022 13.602,25.845 13.602,25.845 C13.602,25.845 13.567,23.482 13.567,23.482 C13.567,23.482 21.501,21.511 21.501,21.511 C21.501,21.511 21.847,21.126 21.847,21.126 C21.847,21.126 25.171,22.022 25.171,22.022 " id="path-2" class="cls-5" fill-rule="evenodd"/>
      <path d="M13.875,8.603 C13.875,8.603 21.809,10.459 21.809,10.459 C21.809,10.459 25.299,10.293 25.299,10.293 C25.299,10.293 25.480,9.942 25.480,9.942 C25.480,9.942 14.425,5.949 14.425,5.949 C14.425,5.949 13.875,8.603 13.875,8.603 " id="path-3" class="cls-6" fill-rule="evenodd"/>
      <path d="M21.576,21.539 C21.576,21.539 25.269,22.051 25.269,22.051 C25.269,22.051 25.476,21.690 25.476,21.690 C25.476,21.690 25.476,10.193 25.476,10.193 C25.476,10.193 25.269,9.846 25.269,9.846 C25.269,9.846 21.576,10.358 21.576,10.358 C21.576,10.358 21.576,21.539 21.576,21.539 " id="path-4" class="cls-7" fill-rule="evenodd"/>
      <path d="M13.156,31.998 C13.156,31.998 26.296,25.376 26.296,25.376 C26.296,25.376 26.302,6.628 26.302,6.628 C26.302,6.628 13.156,0.002 13.156,0.002 C13.156,0.002 13.156,31.998 13.156,31.998 C13.156,31.998 13.156,31.998 13.156,31.998 ZM17.022,7.591 C17.022,7.591 24.610,9.869 24.610,9.869 C24.610,9.869 24.610,22.130 24.610,22.130 C24.610,22.130 17.022,24.409 17.022,24.409 C17.022,24.409 17.022,7.591 17.022,7.591 C17.022,7.591 17.022,7.591 17.022,7.591 Z" id="path-5" class="cls-8" fill-rule="evenodd"/>
      <path d="M4.936,21.642 C4.936,21.642 1.242,22.153 1.242,22.153 C1.242,22.153 1.139,21.775 1.139,21.775 C1.139,21.775 1.139,10.347 1.139,10.347 C1.139,10.347 1.242,9.949 1.242,9.949 C1.242,9.949 4.580,10.194 4.580,10.194 C4.580,10.194 4.936,10.460 4.936,10.460 C4.936,10.460 4.936,21.642 4.936,21.642 " id="path-6" class="cls-8" fill-rule="evenodd"/>
      <path d="M12.950,8.602 C12.950,8.602 5.016,10.459 5.016,10.459 C5.016,10.459 1.346,9.942 1.346,9.942 C1.346,9.942 1.484,9.724 1.484,9.724 C1.484,9.724 12.899,6.462 12.899,6.462 C12.899,6.462 12.950,8.602 12.950,8.602 " id="path-7" class="cls-6" fill-rule="evenodd"/>
      <path d="M1.654,22.088 C1.654,22.088 1.878,22.341 1.878,22.341 C1.878,22.341 13.207,25.537 13.207,25.537 C13.207,25.537 13.258,23.556 13.258,23.556 C13.258,23.556 5.324,21.575 5.324,21.575 C5.324,21.575 4.936,21.435 4.936,21.435 C4.936,21.435 1.654,22.088 1.654,22.088 " id="path-8" class="cls-5" fill-rule="evenodd"/>
      <path d="M13.165,0.002 C13.165,0.002 0.011,6.627 0.011,6.627 C0.011,6.627 0.017,25.376 0.017,25.376 C0.017,25.376 13.165,31.998 13.165,31.998 C13.165,31.998 13.361,31.701 13.361,31.701 C13.361,31.701 13.361,0.387 13.361,0.387 C13.361,0.387 13.165,0.002 13.165,0.002 C13.165,0.002 13.165,0.002 13.165,0.002 ZM9.319,24.409 C9.319,24.409 1.708,22.130 1.708,22.130 C1.708,22.130 1.708,9.869 1.708,9.869 C1.708,9.869 9.319,7.591 9.319,7.591 C9.319,7.591 9.319,24.409 9.319,24.409 C9.319,24.409 9.319,24.409 9.319,24.409 Z" id="path-9" class="cls-7" fill-rule="evenodd"/>
    </g>
  </g>
</svg>
