<svg xmlns="http://www.w3.org/2000/svg" xmlns:xlink="http://www.w3.org/1999/xlink" preserveAspectRatio="xMidYMid" width="147" height="47" viewBox="0 0 147 47">
  <defs>
    <style>

      .cls-3 {
        fill: #000000;
      }

      .cls-4 {
        fill: #fbb018;
      }
    </style>
  </defs>
  <g id="logo-amazon-linux-amisvg">
    <path d="M146.643,44.011 C146.643,44.011 146.661,45.991 146.661,45.991 C146.661,45.991 143.916,45.991 143.916,45.991 C143.916,45.991 143.902,44.011 143.902,44.011 C143.902,44.011 143.902,34.249 143.902,34.249 C143.902,34.249 143.916,32.268 143.916,32.268 C143.916,32.268 146.661,32.268 146.661,32.268 C146.661,32.268 146.643,34.249 146.643,34.249 C146.643,34.249 146.643,44.011 146.643,44.011 ZM140.664,45.991 C140.664,45.991 138.864,45.991 138.864,45.991 C138.504,45.991 138.444,45.931 138.444,45.591 C138.444,45.591 138.304,38.530 138.304,38.530 C138.304,38.530 138.304,37.850 138.304,37.850 C138.304,37.410 138.304,36.789 138.324,35.649 C138.024,36.969 137.784,37.910 137.584,38.550 C137.584,38.550 136.303,42.651 136.303,42.651 C136.203,42.951 136.183,42.971 135.843,42.971 C135.843,42.971 134.623,42.971 134.623,42.971 C134.303,42.971 134.283,42.951 134.183,42.631 C134.183,42.631 133.063,38.730 133.063,38.730 C132.943,38.310 132.543,36.689 132.323,35.649 C132.323,35.649 132.343,38.470 132.343,38.470 C132.343,38.470 132.343,38.790 132.343,38.790 C132.343,38.790 132.183,45.591 132.183,45.591 C132.183,45.931 132.123,45.991 131.763,45.991 C131.763,45.991 130.142,45.991 130.142,45.991 C129.842,45.991 129.742,45.911 129.742,45.691 C129.742,45.691 129.742,45.571 129.742,45.571 C129.742,45.571 130.322,32.669 130.322,32.669 C130.342,32.328 130.402,32.268 130.742,32.268 C130.742,32.268 132.723,32.268 132.723,32.268 C133.023,32.268 133.063,32.288 133.163,32.589 C133.163,32.589 134.763,37.650 134.763,37.650 C134.883,38.010 135.123,39.070 135.303,39.950 C135.643,38.670 135.763,38.290 135.983,37.630 C135.983,37.630 137.684,32.589 137.684,32.589 C137.784,32.288 137.804,32.268 138.124,32.268 C138.124,32.268 140.004,32.268 140.004,32.268 C140.364,32.268 140.404,32.328 140.424,32.669 C140.424,32.669 141.065,45.571 141.065,45.571 C141.065,45.571 141.085,45.731 141.085,45.731 C141.085,45.911 140.984,45.991 140.664,45.991 ZM128.084,45.991 C128.084,45.991 125.904,45.991 125.904,45.991 C125.564,45.991 125.524,45.971 125.444,45.651 C125.444,45.651 124.583,42.371 124.583,42.371 C124.583,42.371 121.203,42.371 121.203,42.371 C121.203,42.371 120.342,45.651 120.342,45.651 C120.262,45.971 120.242,45.991 119.902,45.991 C119.902,45.991 117.922,45.991 117.922,45.991 C117.622,45.991 117.522,45.931 117.522,45.771 C117.522,45.691 117.542,45.671 117.582,45.511 C117.582,45.511 121.523,32.609 121.523,32.609 C121.623,32.288 121.643,32.268 121.963,32.268 C121.963,32.268 124.043,32.268 124.043,32.268 C124.363,32.268 124.383,32.288 124.483,32.609 C124.483,32.609 128.424,45.511 128.424,45.511 C128.464,45.651 128.484,45.711 128.484,45.771 C128.484,45.931 128.384,45.991 128.084,45.991 ZM123.323,37.070 C123.143,36.249 123.083,35.889 122.823,34.369 C122.643,35.529 122.563,35.989 122.303,37.070 C122.303,37.070 121.503,40.490 121.503,40.490 C121.503,40.490 124.063,40.490 124.063,40.490 C124.063,40.490 123.323,37.070 123.323,37.070 ZM111.703,46.271 C111.563,46.311 111.563,46.311 111.503,46.311 C111.423,46.311 111.363,46.271 111.263,46.111 C111.263,46.111 109.863,43.971 109.863,43.971 C109.363,43.191 109.263,43.011 109.103,42.751 C108.883,43.131 108.643,43.511 108.343,43.971 C108.343,43.971 106.882,46.111 106.882,46.111 C106.762,46.291 106.722,46.311 106.642,46.311 C106.582,46.311 106.582,46.311 106.422,46.251 C106.422,46.251 104.782,45.671 104.782,45.671 C104.582,45.591 104.522,45.551 104.522,45.451 C104.522,45.371 104.522,45.351 104.642,45.191 C104.642,45.191 107.663,40.990 107.663,40.990 C107.663,40.990 105.002,37.130 105.002,37.130 C104.882,36.969 104.882,36.949 104.882,36.889 C104.882,36.789 104.962,36.729 105.142,36.669 C105.142,36.669 106.782,36.049 106.782,36.049 C106.922,35.989 106.942,35.989 107.002,35.989 C107.082,35.989 107.122,36.029 107.222,36.209 C107.222,36.209 108.343,38.030 108.343,38.030 C108.343,38.030 108.543,38.390 108.543,38.390 C108.603,38.490 108.663,38.610 108.743,38.710 C108.883,38.950 108.903,38.990 109.043,39.250 C109.483,38.550 109.523,38.530 109.863,38.030 C109.863,38.030 111.123,36.189 111.123,36.189 C111.223,36.029 111.303,35.989 111.383,35.989 C111.423,35.989 111.483,36.009 111.583,36.049 C111.583,36.049 113.204,36.649 113.204,36.649 C113.404,36.729 113.464,36.789 113.464,36.889 C113.464,36.949 113.464,36.969 113.344,37.130 C113.344,37.130 110.563,40.990 110.563,40.990 C110.563,40.990 113.544,45.311 113.544,45.311 C113.644,45.431 113.664,45.491 113.664,45.571 C113.664,45.651 113.584,45.711 113.384,45.771 C113.384,45.771 111.703,46.271 111.703,46.271 ZM101.743,46.231 C101.583,46.271 101.583,46.271 101.523,46.271 C101.303,46.271 101.083,45.871 100.923,45.171 C100.023,46.031 99.303,46.331 98.163,46.331 C97.163,46.331 96.382,46.031 95.902,45.471 C95.342,44.851 95.222,44.271 95.222,42.431 C95.222,42.431 95.222,36.569 95.222,36.569 C95.222,36.289 95.242,36.269 95.522,36.209 C95.522,36.209 97.383,35.809 97.383,35.809 C97.423,35.789 97.503,35.789 97.543,35.789 C97.703,35.789 97.763,35.869 97.763,36.109 C97.763,36.109 97.763,42.311 97.763,42.311 C97.763,43.211 97.803,43.511 97.943,43.771 C98.123,44.111 98.523,44.311 98.983,44.311 C99.543,44.311 100.043,44.091 100.643,43.591 C100.643,43.591 100.643,36.569 100.643,36.569 C100.643,36.289 100.663,36.269 100.943,36.209 C100.943,36.209 102.804,35.809 102.804,35.809 C102.804,35.809 103.004,35.789 103.004,35.789 C103.124,35.789 103.184,35.889 103.184,36.109 C103.184,36.109 103.184,43.471 103.184,43.471 C103.184,44.451 103.264,44.911 103.564,45.511 C103.604,45.571 103.624,45.651 103.624,45.691 C103.624,45.771 103.564,45.811 103.424,45.851 C103.424,45.851 101.743,46.231 101.743,46.231 ZM92.484,45.991 C92.484,45.991 90.623,45.991 90.623,45.991 C90.323,45.991 90.283,45.951 90.283,45.651 C90.283,45.651 90.283,39.490 90.283,39.490 C90.283,38.310 89.943,37.810 89.143,37.810 C88.563,37.810 88.103,38.030 87.403,38.630 C87.403,38.630 87.403,45.651 87.403,45.651 C87.403,45.951 87.363,45.991 87.063,45.991 C87.063,45.991 85.202,45.991 85.202,45.991 C84.902,45.991 84.862,45.951 84.862,45.651 C84.862,45.651 84.862,38.930 84.862,38.930 C84.862,38.070 84.722,37.350 84.442,36.749 C84.402,36.669 84.382,36.609 84.382,36.549 C84.382,36.489 84.442,36.409 84.542,36.369 C84.542,36.369 86.322,35.709 86.322,35.709 C86.382,35.689 86.483,35.669 86.523,35.669 C86.763,35.669 87.023,36.169 87.243,37.049 C88.243,36.129 89.103,35.769 90.243,35.769 C92.024,35.769 92.824,36.749 92.824,38.930 C92.824,38.930 92.824,45.651 92.824,45.651 C92.824,45.951 92.784,45.991 92.484,45.991 ZM80.743,34.789 C79.842,34.789 79.122,34.069 79.122,33.149 C79.122,32.268 79.862,31.548 80.763,31.548 C81.643,31.548 82.363,32.288 82.363,33.169 C82.363,34.069 81.643,34.789 80.743,34.789 ZM82.083,36.449 C82.083,36.449 82.083,45.651 82.083,45.651 C82.083,45.951 82.043,45.991 81.743,45.991 C81.743,45.991 79.882,45.991 79.882,45.991 C79.582,45.991 79.542,45.951 79.542,45.651 C79.542,45.651 79.542,37.970 79.542,37.970 C79.542,37.970 78.022,37.970 78.022,37.970 C77.722,37.970 77.682,37.930 77.682,37.630 C77.682,37.630 77.682,36.449 77.682,36.449 C77.682,36.149 77.722,36.109 78.022,36.109 C78.022,36.109 81.743,36.109 81.743,36.109 C82.043,36.109 82.083,36.149 82.083,36.449 ZM77.784,43.971 C77.784,43.971 77.424,45.631 77.424,45.631 C77.364,45.931 77.284,45.991 76.964,45.991 C76.964,45.991 70.342,45.991 70.342,45.991 C69.962,45.991 69.922,45.951 69.922,45.571 C69.922,45.571 69.922,32.689 69.922,32.689 C69.922,32.308 69.962,32.268 70.342,32.268 C70.342,32.268 72.243,32.268 72.243,32.268 C72.603,32.268 72.663,32.328 72.663,32.689 C72.663,32.689 72.663,43.511 72.663,43.511 C72.663,43.511 77.424,43.511 77.424,43.511 C77.704,43.511 77.824,43.571 77.824,43.731 C77.824,43.771 77.824,43.771 77.784,43.971 ZM62.864,45.991 C62.864,45.991 61.003,45.991 61.003,45.991 C60.703,45.991 60.663,45.951 60.663,45.651 C60.663,45.651 60.663,39.490 60.663,39.490 C60.663,38.310 60.323,37.810 59.523,37.810 C58.943,37.810 58.483,38.030 57.783,38.630 C57.783,38.630 57.783,45.651 57.783,45.651 C57.783,45.951 57.743,45.991 57.443,45.991 C57.443,45.991 55.582,45.991 55.582,45.991 C55.282,45.991 55.242,45.951 55.242,45.651 C55.242,45.651 55.242,38.930 55.242,38.930 C55.242,38.070 55.102,37.350 54.822,36.749 C54.782,36.669 54.762,36.609 54.762,36.549 C54.762,36.489 54.822,36.409 54.922,36.369 C54.922,36.369 56.702,35.709 56.702,35.709 C56.762,35.689 56.863,35.669 56.903,35.669 C57.143,35.669 57.403,36.169 57.623,37.049 C58.623,36.129 59.483,35.769 60.623,35.769 C62.404,35.769 63.204,36.749 63.204,38.930 C63.204,38.930 63.204,45.651 63.204,45.651 C63.204,45.951 63.164,45.991 62.864,45.991 ZM48.983,46.331 C46.242,46.331 44.622,44.371 44.622,41.050 C44.622,39.410 45.002,38.170 45.782,37.230 C46.642,36.209 47.623,35.769 49.063,35.769 C51.684,35.769 53.324,37.790 53.324,41.030 C53.324,44.291 51.664,46.331 48.983,46.331 ZM48.943,37.790 C47.803,37.790 47.323,38.750 47.323,41.050 C47.323,43.371 47.803,44.311 48.963,44.311 C50.143,44.311 50.623,43.351 50.623,41.070 C50.623,38.710 50.143,37.790 48.943,37.790 ZM43.263,45.731 C43.183,45.931 43.103,45.991 42.883,45.991 C42.883,45.991 36.482,45.991 36.482,45.991 C36.182,45.991 36.142,45.951 36.142,45.651 C36.142,45.651 36.142,44.271 36.142,44.271 C36.142,44.271 40.803,38.110 40.803,38.110 C40.803,38.110 36.902,38.110 36.902,38.110 C36.602,38.110 36.562,38.070 36.562,37.770 C36.562,37.770 36.562,36.449 36.562,36.449 C36.562,36.149 36.602,36.109 36.902,36.109 C36.902,36.109 43.203,36.109 43.203,36.109 C43.484,36.109 43.544,36.169 43.544,36.449 C43.544,36.449 43.544,37.910 43.544,37.910 C43.544,37.910 39.023,43.891 39.023,43.891 C39.023,43.891 43.604,43.891 43.604,43.891 C43.824,43.891 43.924,43.951 43.924,44.091 C43.924,44.151 43.904,44.211 43.864,44.311 C43.864,44.311 43.263,45.731 43.263,45.731 ZM33.263,46.251 C33.203,46.291 33.083,46.311 33.023,46.311 C32.843,46.311 32.643,45.931 32.423,45.131 C31.623,45.951 30.903,46.271 29.863,46.271 C28.022,46.271 26.862,45.091 26.862,43.251 C26.862,41.470 27.822,40.430 29.843,40.030 C30.363,39.930 30.983,39.870 32.083,39.850 C32.083,39.850 32.083,39.230 32.083,39.230 C32.083,38.090 31.763,37.730 30.763,37.730 C30.163,37.730 29.403,37.910 28.522,38.250 C28.442,38.290 28.362,38.310 28.302,38.310 C28.202,38.310 28.142,38.250 28.102,38.110 C28.102,38.110 27.682,36.909 27.682,36.909 C27.662,36.849 27.642,36.749 27.642,36.689 C27.642,36.269 29.463,35.769 31.063,35.769 C32.643,35.769 33.723,36.289 34.184,37.310 C34.384,37.730 34.464,38.210 34.464,38.970 C34.464,38.970 34.464,43.051 34.464,43.051 C34.464,43.931 34.584,44.511 34.924,45.211 C34.964,45.291 34.984,45.371 34.984,45.431 C34.984,45.511 34.924,45.591 34.824,45.631 C34.824,45.631 33.263,46.251 33.263,46.251 ZM32.083,41.510 C30.083,41.510 29.283,41.951 29.283,43.111 C29.283,43.891 29.843,44.491 30.563,44.491 C31.103,44.491 31.603,44.231 32.083,43.711 C32.083,43.711 32.083,41.510 32.083,41.510 ZM24.765,45.991 C24.765,45.991 22.924,45.991 22.924,45.991 C22.624,45.991 22.584,45.951 22.584,45.651 C22.584,45.651 22.584,39.310 22.584,39.310 C22.584,38.190 22.344,37.770 21.684,37.770 C21.144,37.770 20.684,38.010 19.964,38.670 C19.964,38.670 19.964,45.651 19.964,45.651 C19.964,45.951 19.924,45.991 19.624,45.991 C19.624,45.991 17.803,45.991 17.803,45.991 C17.503,45.991 17.463,45.951 17.463,45.651 C17.463,45.651 17.463,39.510 17.463,39.510 C17.463,38.190 17.263,37.810 16.543,37.810 C16.023,37.810 15.503,38.070 14.823,38.670 C14.823,38.670 14.823,45.651 14.823,45.651 C14.823,45.951 14.783,45.991 14.483,45.991 C14.483,45.991 12.662,45.991 12.662,45.991 C12.362,45.991 12.322,45.951 12.322,45.651 C12.322,45.651 12.322,38.930 12.322,38.930 C12.322,37.910 12.242,37.490 11.962,36.769 C11.922,36.689 11.902,36.609 11.902,36.549 C11.902,36.449 11.982,36.349 12.122,36.309 C12.122,36.309 13.742,35.769 13.742,35.769 C13.843,35.749 13.903,35.729 13.943,35.729 C14.163,35.729 14.403,36.289 14.583,37.170 C15.683,36.149 16.483,35.769 17.563,35.769 C18.604,35.769 19.304,36.209 19.744,37.170 C20.884,36.129 21.704,35.769 22.824,35.769 C23.725,35.769 24.405,36.129 24.745,36.769 C25.025,37.330 25.105,37.850 25.105,39.070 C25.105,39.070 25.105,45.651 25.105,45.651 C25.105,45.951 25.065,45.991 24.765,45.991 ZM10.564,45.991 C10.564,45.991 8.384,45.991 8.384,45.991 C8.044,45.991 8.004,45.971 7.924,45.651 C7.924,45.651 7.063,42.371 7.063,42.371 C7.063,42.371 3.683,42.371 3.683,42.371 C3.683,42.371 2.822,45.651 2.822,45.651 C2.742,45.971 2.722,45.991 2.382,45.991 C2.382,45.991 0.402,45.991 0.402,45.991 C0.102,45.991 0.002,45.931 0.002,45.771 C0.002,45.691 0.022,45.671 0.062,45.511 C0.062,45.511 4.003,32.609 4.003,32.609 C4.103,32.288 4.123,32.268 4.443,32.268 C4.443,32.268 6.523,32.268 6.523,32.268 C6.843,32.268 6.863,32.288 6.963,32.609 C6.963,32.609 10.904,45.511 10.904,45.511 C10.944,45.651 10.964,45.711 10.964,45.771 C10.964,45.931 10.864,45.991 10.564,45.991 ZM5.803,37.070 C5.623,36.249 5.563,35.889 5.303,34.369 C5.123,35.529 5.043,35.989 4.783,37.070 C4.783,37.070 3.983,40.490 3.983,40.490 C3.983,40.490 6.543,40.490 6.543,40.490 C6.543,40.490 5.803,37.070 5.803,37.070 Z" id="path-1" class="cls-3" fill-rule="evenodd"/>
    <path d="M73.375,8.869 C73.375,8.869 60.942,4.197 60.942,4.197 C60.942,4.197 73.390,0.006 73.390,0.006 C73.390,0.006 85.947,4.362 85.947,4.362 C85.947,4.362 73.375,8.869 73.375,8.869 ZM72.234,24.313 C72.234,24.313 60.936,20.119 60.936,20.119 C60.936,20.119 60.936,7.015 60.936,7.015 C60.936,7.015 72.234,10.920 72.234,10.920 C72.234,10.920 72.234,24.313 72.234,24.313 ZM85.939,20.119 C85.939,20.119 74.579,24.313 74.579,24.313 C74.579,24.313 74.579,10.920 74.579,10.920 C74.579,10.920 85.939,7.015 85.939,7.015 C85.939,7.015 85.939,20.119 85.939,20.119 Z" id="path-2" class="cls-4" fill-rule="evenodd"/>
  </g>
</svg>
