<svg height="42" preserveAspectRatio="xMidYMid" viewBox="0 0 105 42" width="105" xmlns="http://www.w3.org/2000/svg"><g fill-rule="evenodd"><path d="m104.079 41.283c0 .074-.073.13-.256.186 0 0-1.539.463-1.539.463-.128.037-.128.037-.183.037-.074 0-.129-.037-.22-.185 0 0-1.282-1.983-1.282-1.983-.458-.723-.55-.89-.697-1.131-.201.352-.421.704-.696 1.131 0 0-1.337 1.983-1.337 1.983-.11.167-.147.185-.22.185-.055 0-.055 0-.201-.056 0 0-1.503-.537-1.503-.537-.183-.074-.238-.111-.238-.204 0-.074 0-.093.11-.241 0 0 2.766-3.892 2.766-3.892s-2.436-3.577-2.436-3.577c-.11-.148-.11-.167-.11-.223 0-.092.073-.148.238-.203 0 0 1.502-.575 1.502-.575.129-.056.147-.056.202-.056.073 0 .11.038.201.204 0 0 1.026 1.687 1.026 1.687s.183.334.183.334c.055.092.11.203.184.296.128.223.146.26.274.501.403-.649.44-.668.752-1.131 0 0 1.154-1.705 1.154-1.705.091-.148.164-.186.238-.186.036 0 .091.019.183.056 0 0 1.484.556 1.484.556.183.074.238.13.238.222 0 .056 0 .075-.11.223 0 0-2.546 3.577-2.546 3.577s2.729 4.003 2.729 4.003c.092.112.11.167.11.241zm-10.916.612c-.147.037-.147.037-.201.037-.202 0-.404-.371-.55-1.019-.824.797-1.484 1.075-2.528 1.075-.916 0-1.631-.278-2.07-.797-.513-.575-.623-1.112-.623-2.818v-5.43c0-.26.018-.278.275-.334 0 0 1.703-.37 1.703-.37.037-.019.11-.019.147-.019.147 0 .202.074.202.297v5.745c0 .834.036 1.112.164 1.353.165.315.532.501.953.501.513 0 .971-.204 1.52-.668v-6.505c0-.26.019-.278.275-.334 0 0 1.704-.37 1.704-.37s.183-.019.183-.019c.11 0 .165.093.165.297v6.82c0 .908.073 1.335.348 1.891.037.055.055.129.055.167 0 .074-.055.111-.183.148 0 0-1.539.352-1.539.352zm-8.48-.222h-1.703c-.275 0-.312-.038-.312-.316v-5.708c0-1.094-.311-1.557-1.044-1.557-.531 0-.953.204-1.594.76v6.505c0 .278-.036.316-.311.316h-1.704c-.275 0-.311-.038-.311-.316v-6.227c0-.797-.128-1.464-.385-2.02-.037-.074-.055-.13-.055-.186 0-.055.055-.129.147-.166 0 0 1.63-.612 1.63-.612.055-.019.147-.037.183-.037.22 0 .458.463.66 1.279.916-.853 1.703-1.186 2.748-1.186 1.63 0 2.363.908 2.363 2.928v6.227c0 .278-.037.316-.312.316zm-10.752-10.38c-.824 0-1.484-.667-1.484-1.519 0-.816.678-1.483 1.502-1.483.806 0 1.466.686 1.466 1.501 0 .834-.66 1.501-1.484 1.501zm1.227 1.539v8.525c0 .278-.036.316-.311.316h-1.704c-.274 0-.311-.038-.311-.316v-7.117h-1.392c-.275 0-.312-.037-.312-.315v-1.093c0-.278.037-.315.312-.315h3.407c.275 0 .311.037.311.315zm-3.936 6.969s-.33 1.538-.33 1.538c-.055.278-.128.334-.421.334h-6.064c-.348 0-.385-.038-.385-.39v-11.936c0-.352.037-.389.385-.389h1.74c.33 0 .385.056.385.389v10.027h4.36c.256 0 .366.056.366.204 0 .037 0 .037-.036.223zm-13.664 1.872h-1.703c-.275 0-.312-.038-.312-.316v-5.708c0-1.094-.311-1.557-1.044-1.557-.531 0-.952.204-1.594.76v6.505c0 .278-.036.316-.311.316h-1.704c-.274 0-.311-.038-.311-.316v-6.227c0-.797-.128-1.464-.385-2.02-.036-.074-.055-.13-.055-.186 0-.055.055-.129.147-.166 0 0 1.63-.612 1.63-.612.055-.019.147-.037.183-.037.22 0 .458.463.66 1.279.916-.853 1.704-1.186 2.748-1.186 1.63 0 2.363.908 2.363 2.928v6.227c0 .278-.037.316-.312.316zm-12.711.315c-2.51 0-3.994-1.817-3.994-4.893 0-1.52.348-2.669 1.063-3.54.788-.946 1.685-1.353 3.004-1.353 2.4 0 3.902 1.872 3.902 4.874 0 3.021-1.52 4.912-3.975 4.912zm-.037-7.914c-1.044 0-1.484.889-1.484 3.021 0 2.15.44 3.021 1.503 3.021 1.08 0 1.52-.89 1.52-3.003 0-2.187-.44-3.039-1.539-3.039zm-5.201 7.358c-.073.185-.146.241-.348.241h-5.862c-.275 0-.311-.038-.311-.316v-1.278s4.268-5.709 4.268-5.709h-3.572c-.275 0-.312-.037-.312-.315v-1.223c0-.278.037-.315.312-.315h5.77c.257 0 .312.055.312.315v1.353s-4.14 5.541-4.14 5.541h4.195c.201 0 .293.056.293.186 0 .055-.018.111-.055.204 0 0-.55 1.316-.55 1.316zm-9.157.481c-.055.038-.165.056-.22.056-.165 0-.348-.352-.55-1.093-.733.759-1.392 1.056-2.345 1.056-1.685 0-2.748-1.093-2.748-2.799 0-1.649.88-2.613 2.73-2.984.476-.092 1.044-.148 2.052-.166v-.575c0-1.056-.293-1.39-1.209-1.39-.55 0-1.246.167-2.052.482-.073.037-.147.055-.202.055-.091 0-.146-.055-.183-.185 0 0-.384-1.112-.384-1.112-.019-.056-.037-.148-.037-.204 0-.389 1.667-.852 3.132-.852 1.448 0 2.437.481 2.858 1.427.183.389.257.834.257 1.538v3.781c0 .816.11 1.353.421 2.002.037.074.055.148.055.204 0 .074-.055.148-.147.185 0 0-1.428.574-1.428.574zm-1.081-4.392c-1.832 0-2.565.408-2.565 1.483 0 .722.513 1.278 1.172 1.278.495 0 .953-.24 1.393-.722zm-6.702 4.152h-1.685c-.275 0-.312-.038-.312-.316v-5.875c0-1.038-.22-1.427-.824-1.427-.495 0-.916.222-1.576.834v6.468c0 .278-.036.316-.311.316h-1.667c-.275 0-.312-.038-.312-.316v-5.69c0-1.223-.183-1.575-.842-1.575-.477 0-.953.241-1.576.797v6.468c0 .278-.036.316-.311.316h-1.667c-.275 0-.312-.038-.312-.316v-6.227c0-.945-.073-1.334-.329-2.002-.037-.074-.055-.148-.055-.204 0-.092.073-.185.201-.222 0 0 1.484-.5 1.484-.5.092-.019.147-.037.183-.037.202 0 .422.518.586 1.334 1.008-.945 1.741-1.297 2.73-1.297.953 0 1.594.407 1.997 1.297 1.044-.964 1.795-1.297 2.821-1.297.824 0 1.447.333 1.759.926.256.519.329 1.001.329 2.132v6.097c0 .278-.036.316-.311.316zm-13.005 0h-1.996c-.312 0-.348-.019-.422-.316 0 0-.787-3.039-.787-3.039h-3.096s-.788 3.039-.788 3.039c-.073.297-.092.316-.403.316h-1.814c-.274 0-.366-.056-.366-.204 0-.074.018-.093.055-.241 0 0 3.609-11.955 3.609-11.955.091-.296.11-.315.403-.315h1.905c.293 0 .311.019.403.315 0 0 3.609 11.955 3.609 11.955.037.129.055.185.055.241 0 .148-.092.204-.367.204zm-4.359-8.267c-.165-.76-.22-1.093-.458-2.502-.165 1.075-.239 1.501-.477 2.502 0 0-.733 3.17-.733 3.17h2.345s-.677-3.17-.677-3.17z"/><path d="m51.518 8.099s-11.352-4.266-11.352-4.266 11.365-3.827 11.365-3.827 11.465 3.978 11.465 3.978-11.478 4.115-11.478 4.115zm-1.299 14.727s-10.058-3.543-10.058-3.543v-11.965s10.058 3.281 10.058 3.281zm12.769-3.543s-10.058 3.543-10.058 3.543v-12.227s10.058-3.281 10.058-3.281z" fill="#f9af32"/></g></svg>