<svg xmlns="http://www.w3.org/2000/svg" xmlns:xlink="http://www.w3.org/1999/xlink" preserveAspectRatio="xMidYMid" width="94" height="36" viewBox="0 0 94 36">
  <defs>
    <style>

      .cls-3 {
        fill: #000000;
      }

      .cls-4 {
        fill: #fd9827;
      }
    </style>
  </defs>
  <g id="logo-awssvg">
    <path d="M92.860,25.337 C92.860,25.337 90.759,25.337 90.759,25.337 C90.565,25.324 90.409,25.182 90.386,24.998 C90.386,24.998 90.386,19.151 90.386,19.151 C90.386,17.973 90.523,16.251 89.075,16.251 C88.566,16.251 88.097,16.591 87.862,17.112 C87.568,17.769 87.529,18.426 87.529,19.151 C87.529,19.151 87.529,24.949 87.529,24.949 C87.526,25.164 87.344,25.337 87.121,25.337 C87.121,25.337 85.033,25.337 85.033,25.337 C84.823,25.323 84.657,25.156 84.657,24.950 C84.657,24.950 84.653,14.178 84.653,14.178 C84.671,13.982 84.845,13.827 85.057,13.827 C85.057,13.827 87.000,13.826 87.000,13.826 C87.183,13.836 87.334,13.961 87.373,14.128 C87.373,14.128 87.373,15.775 87.373,15.775 C87.373,15.775 87.412,15.775 87.412,15.775 C87.999,14.302 88.821,13.600 90.268,13.600 C91.207,13.600 92.127,13.940 92.714,14.869 C93.262,15.730 93.262,17.180 93.262,18.222 C93.262,18.222 93.262,24.998 93.262,24.998 C93.238,25.189 93.067,25.337 92.860,25.337 ZM86.289,30.107 C86.797,30.686 87.057,31.552 87.070,32.705 C87.070,32.705 82.426,32.705 82.426,32.705 C82.426,33.673 82.628,34.326 83.032,34.665 C83.438,35.003 83.864,35.172 84.316,35.172 C85.128,35.172 85.701,34.752 86.035,33.911 C86.035,33.911 86.962,34.102 86.962,34.102 C86.793,34.649 86.465,35.103 85.975,35.462 C85.486,35.821 84.911,36.000 84.249,36.000 C83.376,36.000 82.670,35.692 82.130,35.076 C81.590,34.461 81.320,33.653 81.320,32.655 C81.320,31.634 81.601,30.810 82.162,30.182 C82.722,29.553 83.427,29.239 84.275,29.239 C85.109,29.239 85.781,29.528 86.289,30.107 ZM84.305,29.997 C83.812,29.997 83.394,30.175 83.050,30.530 C82.707,30.885 82.514,31.362 82.472,31.962 C82.472,31.962 85.980,31.962 85.980,31.962 C85.972,31.603 85.913,31.284 85.803,31.005 C85.694,30.726 85.508,30.488 85.247,30.292 C84.986,30.095 84.672,29.997 84.305,29.997 ZM77.900,25.564 C74.872,25.564 73.223,22.890 73.223,19.559 C73.223,16.206 74.891,13.600 77.900,13.600 C80.986,13.600 82.655,16.274 82.655,19.672 C82.655,22.958 80.812,25.564 77.900,25.564 ZM79.278,17.117 C79.045,16.370 78.579,16.075 77.920,16.075 C76.385,16.075 76.289,18.182 76.289,19.496 C76.289,20.811 76.270,23.343 77.900,23.343 C79.511,23.343 79.589,21.354 79.589,19.972 C79.589,19.066 79.550,17.978 79.278,17.117 ZM72.540,25.013 C70.419,23.902 67.606,23.780 65.261,25.027 C65.021,25.155 64.771,24.897 64.771,24.670 C64.771,24.670 64.771,23.110 64.771,23.110 C64.771,22.860 64.775,22.433 65.027,22.052 C65.027,22.052 69.161,16.115 69.161,16.115 C69.161,16.115 65.561,16.114 65.561,16.114 C65.341,16.114 65.165,15.957 65.163,15.727 C65.163,15.727 65.163,14.188 65.163,14.188 C65.165,13.954 65.341,13.798 65.553,13.799 C65.553,13.799 72.442,13.798 72.442,13.798 C72.662,13.798 72.839,13.958 72.840,14.186 C72.840,14.186 72.839,15.506 72.839,15.506 C72.837,15.727 72.651,16.016 72.320,16.475 C72.320,16.475 68.752,21.575 68.752,21.575 C70.077,21.544 71.478,21.742 72.681,22.419 C72.953,22.572 73.025,22.798 73.046,23.020 C73.046,23.020 73.046,24.662 73.046,24.662 C73.046,24.888 72.800,25.150 72.540,25.013 ZM65.885,29.239 C65.985,29.239 66.117,29.247 66.277,29.262 C66.277,29.262 66.277,30.214 66.277,30.214 C66.277,30.214 66.075,30.214 66.075,30.214 C65.527,30.214 65.072,30.418 64.710,30.825 C64.347,31.232 64.154,31.768 64.129,32.431 C64.129,32.431 64.129,35.822 64.129,35.822 C64.129,35.822 63.132,35.822 63.132,35.822 C63.132,35.822 63.132,29.417 63.132,29.417 C63.132,29.417 64.005,29.417 64.005,29.417 C64.005,29.417 64.005,30.910 64.005,30.910 C64.313,30.211 64.622,29.757 64.932,29.550 C65.242,29.343 65.559,29.239 65.885,29.239 ZM62.027,25.315 C62.027,25.315 62.022,25.310 62.022,25.310 C61.883,25.434 61.684,25.443 61.527,25.359 C60.831,24.780 60.707,24.512 60.326,23.961 C59.175,25.134 58.361,25.486 56.870,25.486 C55.106,25.486 53.733,24.396 53.733,22.216 C53.733,20.513 54.655,19.355 55.969,18.787 C57.106,18.287 58.694,18.196 59.910,18.060 C59.910,18.060 59.910,17.788 59.910,17.788 C59.910,17.288 59.948,16.698 59.655,16.266 C59.399,15.880 58.910,15.721 58.478,15.721 C57.679,15.721 56.968,16.131 56.793,16.981 C56.758,17.170 56.620,17.357 56.430,17.367 C56.430,17.367 54.398,17.147 54.398,17.147 C54.227,17.108 54.036,16.970 54.086,16.708 C54.552,14.241 56.778,13.496 58.772,13.496 C59.792,13.496 61.125,13.768 61.929,14.540 C62.949,15.494 62.850,16.766 62.850,18.151 C62.850,18.151 62.850,21.420 62.850,21.420 C62.850,22.403 63.259,22.834 63.642,23.364 C63.775,23.555 63.805,23.782 63.635,23.921 C63.206,24.280 62.446,24.942 62.027,25.315 ZM59.910,19.741 C58.393,19.741 56.792,20.066 56.792,21.852 C56.792,22.761 57.263,23.374 58.066,23.374 C58.655,23.374 59.184,23.011 59.518,22.420 C59.929,21.693 59.910,21.012 59.910,20.195 C59.910,20.195 59.910,19.741 59.910,19.741 ZM55.437,30.868 C55.437,30.868 54.525,31.064 54.525,31.064 C54.263,30.399 53.726,30.067 52.912,30.067 C52.507,30.067 52.175,30.150 51.915,30.316 C51.656,30.482 51.526,30.714 51.526,31.013 C51.526,31.484 51.858,31.780 52.521,31.903 C52.521,31.903 53.766,32.132 53.766,32.132 C55.071,32.369 55.723,33.002 55.723,34.031 C55.723,34.620 55.480,35.095 54.994,35.457 C54.508,35.819 53.862,36.000 53.056,36.000 C51.540,36.000 50.602,35.387 50.243,34.162 C50.243,34.162 51.194,33.966 51.194,33.966 C51.405,34.770 52.073,35.172 53.197,35.172 C53.610,35.172 53.962,35.080 54.248,34.894 C54.536,34.709 54.680,34.447 54.680,34.110 C54.680,33.608 54.313,33.290 53.582,33.155 C53.582,33.155 52.234,32.898 52.234,32.898 C51.706,32.797 51.287,32.598 50.974,32.302 C50.662,32.006 50.507,31.615 50.507,31.129 C50.507,30.592 50.719,30.143 51.146,29.781 C51.571,29.420 52.145,29.239 52.867,29.239 C54.255,29.239 55.112,29.782 55.437,30.868 ZM52.143,24.949 C52.143,25.164 51.961,25.337 51.739,25.337 C51.739,25.337 49.645,25.337 49.645,25.337 C49.435,25.323 49.269,25.156 49.269,24.950 C49.269,24.950 49.269,19.242 49.269,19.242 C49.269,18.789 49.308,17.656 49.210,17.225 C49.054,16.500 48.584,16.296 47.977,16.296 C47.469,16.296 46.941,16.636 46.725,17.180 C46.510,17.724 46.530,18.630 46.530,19.242 C46.530,19.242 46.530,24.949 46.530,24.949 C46.530,25.164 46.349,25.337 46.126,25.337 C46.126,25.337 44.032,25.337 44.032,25.337 C43.822,25.323 43.656,25.156 43.656,24.950 C43.656,24.950 43.654,19.242 43.654,19.242 C43.654,18.041 43.849,16.274 42.363,16.274 C40.856,16.274 40.915,17.996 40.915,19.242 C40.915,19.242 40.914,24.949 40.914,24.949 C40.914,25.164 40.733,25.337 40.510,25.337 C40.510,25.337 38.414,25.337 38.414,25.337 C38.215,25.324 38.055,25.174 38.039,24.982 C38.039,24.982 38.040,14.215 38.040,14.215 C38.040,13.999 38.222,13.827 38.445,13.827 C38.445,13.827 40.397,13.826 40.397,13.826 C40.601,13.837 40.765,13.992 40.778,14.188 C40.778,14.188 40.778,15.594 40.778,15.594 C40.778,15.594 40.817,15.594 40.817,15.594 C41.325,14.234 42.284,13.600 43.575,13.600 C44.886,13.600 45.708,14.234 46.295,15.594 C46.803,14.234 47.957,13.600 49.190,13.600 C50.071,13.600 51.029,13.962 51.616,14.778 C52.281,15.685 52.145,16.999 52.145,18.154 C52.145,18.154 52.143,24.949 52.143,24.949 ZM40.148,30.107 C40.656,30.686 40.917,31.552 40.930,32.705 C40.930,32.705 36.285,32.705 36.285,32.705 C36.285,33.673 36.487,34.326 36.892,34.665 C37.296,35.003 37.725,35.172 38.175,35.172 C38.989,35.172 39.561,34.752 39.894,33.911 C39.894,33.911 40.821,34.102 40.821,34.102 C40.653,34.649 40.324,35.103 39.835,35.462 C39.345,35.821 38.770,36.000 38.108,36.000 C37.236,36.000 36.529,35.692 35.990,35.076 C35.450,34.461 35.180,33.653 35.180,32.655 C35.180,31.634 35.460,30.810 36.021,30.182 C36.582,29.553 37.286,29.239 38.134,29.239 C38.969,29.239 39.641,29.528 40.148,30.107 ZM36.910,30.530 C36.567,30.885 36.374,31.362 36.332,31.962 C36.332,31.962 39.840,31.962 39.840,31.962 C39.832,31.603 39.773,31.284 39.663,31.005 C39.553,30.726 39.368,30.488 39.107,30.292 C38.845,30.095 38.531,29.997 38.165,29.997 C37.672,29.997 37.253,30.175 36.910,30.530 ZM34.791,25.315 C34.791,25.315 34.786,25.310 34.786,25.310 C34.647,25.434 34.447,25.443 34.291,25.359 C33.595,24.780 33.470,24.512 33.089,23.961 C31.939,25.134 31.124,25.486 29.634,25.486 C27.869,25.486 26.497,24.396 26.497,22.216 C26.497,20.513 27.418,19.355 28.732,18.787 C29.869,18.287 31.458,18.196 32.673,18.060 C32.673,18.060 32.673,17.788 32.673,17.788 C32.673,17.288 32.712,16.698 32.418,16.266 C32.163,15.880 31.673,15.721 31.242,15.721 C30.443,15.721 29.732,16.131 29.557,16.981 C29.521,17.170 29.383,17.357 29.193,17.367 C29.193,17.367 27.162,17.147 27.162,17.147 C26.991,17.108 26.799,16.970 26.849,16.708 C27.316,14.241 29.541,13.496 31.535,13.496 C32.555,13.496 33.889,13.768 34.692,14.540 C35.712,15.494 35.614,16.766 35.614,18.151 C35.614,18.151 35.614,21.420 35.614,21.420 C35.614,22.403 36.022,22.834 36.405,23.364 C36.538,23.555 36.569,23.782 36.398,23.921 C35.970,24.280 35.209,24.942 34.791,25.315 ZM32.673,19.741 C31.157,19.741 29.555,20.066 29.555,21.852 C29.555,22.761 30.026,23.374 30.830,23.374 C31.418,23.374 31.948,23.011 32.281,22.420 C32.692,21.693 32.673,21.012 32.673,20.195 C32.673,20.195 32.673,19.741 32.673,19.741 ZM29.061,34.190 C29.061,34.190 30.389,29.417 30.389,29.417 C30.389,29.417 31.119,29.417 31.119,29.417 C31.119,29.417 32.562,34.205 32.562,34.205 C32.562,34.205 33.995,29.417 33.995,29.417 C33.995,29.417 34.800,29.417 34.800,29.417 C34.800,29.417 32.957,35.822 32.957,35.822 C32.957,35.822 32.157,35.822 32.157,35.822 C32.157,35.822 30.722,31.064 30.722,31.064 C30.722,31.064 29.408,35.822 29.408,35.822 C29.408,35.822 28.591,35.822 28.591,35.822 C28.591,35.822 26.677,29.417 26.677,29.417 C26.677,29.417 27.667,29.417 27.667,29.417 C27.667,29.417 29.061,34.190 29.061,34.190 ZM43.237,30.484 C43.692,29.654 44.318,29.239 45.119,29.239 C45.852,29.239 46.466,29.529 46.961,30.109 C47.456,30.689 47.703,31.531 47.703,32.635 C47.703,33.588 47.460,34.386 46.973,35.032 C46.486,35.677 45.852,36.000 45.072,36.000 C44.204,36.000 43.538,35.587 43.074,34.762 C43.074,34.762 42.719,35.822 42.719,35.822 C42.719,35.822 42.239,35.822 42.239,35.822 C42.239,35.822 42.239,27.174 42.239,27.174 C42.239,27.174 43.237,27.174 43.237,27.174 C43.237,27.174 43.237,30.484 43.237,30.484 ZM43.237,33.311 C43.283,33.969 43.484,34.446 43.841,34.743 C44.197,35.039 44.574,35.188 44.970,35.188 C45.476,35.188 45.884,34.968 46.194,34.528 C46.505,34.088 46.660,33.485 46.660,32.720 C46.660,31.895 46.510,31.246 46.211,30.774 C45.911,30.303 45.495,30.067 44.964,30.067 C44.546,30.067 44.170,30.235 43.835,30.570 C43.499,30.906 43.299,31.340 43.237,31.872 C43.237,31.872 43.237,33.311 43.237,33.311 ZM59.264,29.239 C60.098,29.239 60.770,29.528 61.278,30.107 C61.787,30.686 62.047,31.552 62.060,32.705 C62.060,32.705 57.415,32.705 57.415,32.705 C57.415,33.673 57.617,34.326 58.022,34.665 C58.427,35.003 58.854,35.172 59.305,35.172 C60.118,35.172 60.692,34.752 61.024,33.911 C61.024,33.911 61.951,34.102 61.951,34.102 C61.783,34.649 61.454,35.103 60.965,35.462 C60.476,35.821 59.900,36.000 59.239,36.000 C58.366,36.000 57.659,35.692 57.120,35.076 C56.580,34.461 56.310,33.653 56.310,32.655 C56.310,31.634 56.590,30.810 57.152,30.182 C57.712,29.553 58.416,29.239 59.264,29.239 ZM60.970,31.962 C60.961,31.603 60.902,31.284 60.793,31.005 C60.683,30.726 60.498,30.488 60.237,30.292 C59.976,30.095 59.661,29.997 59.295,29.997 C58.802,29.997 58.384,30.175 58.040,30.530 C57.696,30.885 57.504,31.362 57.461,31.962 C57.461,31.962 60.970,31.962 60.970,31.962 ZM69.822,34.623 C69.822,34.623 71.585,29.417 71.585,29.417 C71.585,29.417 72.469,29.417 72.469,29.417 C72.469,29.417 70.259,35.822 70.259,35.822 C70.259,35.822 69.226,35.822 69.226,35.822 C69.226,35.822 66.943,29.417 66.943,29.417 C66.943,29.417 68.046,29.417 68.046,29.417 C68.046,29.417 69.822,34.623 69.822,34.623 ZM74.332,28.280 C74.332,28.280 73.265,28.280 73.265,28.280 C73.265,28.280 73.265,27.174 73.265,27.174 C73.265,27.174 74.332,27.174 74.332,27.174 C74.332,27.174 74.332,28.280 74.332,28.280 ZM74.309,35.822 C74.309,35.822 73.312,35.822 73.312,35.822 C73.312,35.822 73.312,29.417 73.312,29.417 C73.312,29.417 74.309,29.417 74.309,29.417 C74.309,29.417 74.309,35.822 74.309,35.822 ZM77.957,29.239 C78.653,29.239 79.211,29.447 79.631,29.865 C80.051,30.282 80.311,30.821 80.413,31.481 C80.413,31.481 79.517,31.652 79.517,31.652 C79.348,30.596 78.837,30.067 77.986,30.067 C77.438,30.067 77.016,30.300 76.721,30.767 C76.426,31.233 76.279,31.838 76.279,32.581 C76.279,33.401 76.424,34.037 76.718,34.491 C77.011,34.945 77.423,35.172 77.954,35.172 C78.776,35.172 79.297,34.641 79.517,33.579 C79.517,33.579 80.413,33.737 80.413,33.737 C80.286,34.445 80.005,34.999 79.571,35.399 C79.136,35.800 78.594,36.000 77.944,36.000 C77.062,36.000 76.390,35.674 75.928,35.022 C75.466,34.371 75.235,33.575 75.235,32.635 C75.235,31.662 75.479,30.853 75.966,30.207 C76.454,29.562 77.117,29.239 77.957,29.239 ZM90.586,35.172 C91.000,35.172 91.350,35.080 91.637,34.894 C91.925,34.709 92.069,34.447 92.069,34.110 C92.069,33.608 91.703,33.290 90.972,33.155 C90.972,33.155 89.624,32.898 89.624,32.898 C89.096,32.797 88.677,32.598 88.364,32.302 C88.052,32.006 87.896,31.615 87.896,31.129 C87.896,30.592 88.109,30.143 88.535,29.781 C88.961,29.420 89.535,29.239 90.257,29.239 C91.644,29.239 92.501,29.782 92.826,30.868 C92.826,30.868 91.914,31.064 91.914,31.064 C91.653,30.399 91.115,30.067 90.301,30.067 C89.896,30.067 89.565,30.150 89.305,30.316 C89.046,30.482 88.916,30.714 88.916,31.013 C88.916,31.484 89.248,31.780 89.910,31.903 C89.910,31.903 91.156,32.132 91.156,32.132 C92.460,32.369 93.112,33.002 93.112,34.031 C93.112,34.620 92.870,35.095 92.383,35.457 C91.898,35.819 91.252,36.000 90.445,36.000 C88.930,36.000 87.992,35.387 87.633,34.162 C87.633,34.162 88.584,33.966 88.584,33.966 C88.795,34.770 89.463,35.172 90.586,35.172 Z" id="path-1" class="cls-3" fill-rule="evenodd"/>
    <path d="M38.594,12.179 C38.594,12.179 38.594,4.035 38.594,4.035 C38.594,4.035 44.077,2.165 44.077,2.165 C44.077,2.165 44.077,10.210 44.077,10.210 C44.077,10.210 38.594,12.179 38.594,12.179 ZM32.668,1.563 C32.668,1.563 38.218,-0.001 38.218,-0.001 C38.218,-0.001 43.363,1.660 43.363,1.660 C43.363,1.660 38.218,3.409 38.218,3.409 C38.218,3.409 32.668,1.563 32.668,1.563 ZM37.588,12.179 C37.588,12.179 32.105,10.210 32.105,10.210 C32.105,10.210 32.105,2.165 32.105,2.165 C32.105,2.165 37.588,4.035 37.588,4.035 C37.588,4.035 37.588,12.179 37.588,12.179 ZM25.799,4.035 C25.799,4.035 31.283,2.165 31.283,2.165 C31.283,2.165 31.283,10.210 31.283,10.210 C31.283,10.210 25.799,12.179 25.799,12.179 C25.799,12.179 25.799,4.035 25.799,4.035 ZM19.874,1.563 C19.874,1.563 25.423,-0.001 25.423,-0.001 C25.423,-0.001 30.569,1.660 30.569,1.660 C30.569,1.660 25.423,3.409 25.423,3.409 C25.423,3.409 19.874,1.563 19.874,1.563 ZM24.794,12.179 C24.794,12.179 19.310,10.210 19.310,10.210 C19.310,10.210 19.310,2.165 19.310,2.165 C19.310,2.165 24.794,4.035 24.794,4.035 C24.794,4.035 24.794,12.179 24.794,12.179 ZM18.895,14.648 C18.895,14.648 13.346,12.802 13.346,12.802 C13.346,12.802 18.895,11.238 18.895,11.238 C18.895,11.238 24.041,12.899 24.041,12.899 C24.041,12.899 18.895,14.648 18.895,14.648 ZM18.266,23.418 C18.266,23.418 12.782,21.449 12.782,21.449 C12.782,21.449 12.782,13.404 12.782,13.404 C12.782,13.404 18.266,15.274 18.266,15.274 C18.266,15.274 18.266,23.418 18.266,23.418 ZM12.628,25.887 C12.628,25.887 7.080,24.041 7.080,24.041 C7.080,24.041 12.628,22.478 12.628,22.478 C12.628,22.478 17.774,24.139 17.774,24.139 C17.774,24.139 12.628,25.887 12.628,25.887 ZM6.476,15.274 C6.476,15.274 11.960,13.404 11.960,13.404 C11.960,13.404 11.960,21.449 11.960,21.449 C11.960,21.449 6.476,23.418 6.476,23.418 C6.476,23.418 6.476,15.274 6.476,15.274 ZM0.551,12.802 C0.551,12.802 6.101,11.238 6.101,11.238 C6.101,11.238 11.247,12.899 11.247,12.899 C11.247,12.899 6.101,14.648 6.101,14.648 C6.101,14.648 0.551,12.802 0.551,12.802 ZM5.471,23.418 C5.471,23.418 -0.013,21.449 -0.013,21.449 C-0.013,21.449 -0.013,13.404 -0.013,13.404 C-0.013,13.404 5.471,15.274 5.471,15.274 C5.471,15.274 5.471,23.418 5.471,23.418 ZM11.999,34.658 C11.999,34.658 6.516,32.688 6.516,32.688 C6.516,32.688 6.516,24.643 6.516,24.643 C6.516,24.643 11.999,26.513 11.999,26.513 C11.999,26.513 11.999,34.658 11.999,34.658 ZM18.488,32.688 C18.488,32.688 13.005,34.658 13.005,34.658 C13.005,34.658 13.005,26.513 13.005,26.513 C13.005,26.513 18.488,24.643 18.488,24.643 C18.488,24.643 18.488,32.688 18.488,32.688 ZM24.755,21.449 C24.755,21.449 19.271,23.418 19.271,23.418 C19.271,23.418 19.271,15.274 19.271,15.274 C19.271,15.274 24.755,13.404 24.755,13.404 C24.755,13.404 24.755,21.449 24.755,21.449 Z" id="path-2" class="cls-4" fill-rule="evenodd"/>
  </g>
</svg>
