<svg height="30" viewBox="0 0 88 30" width="88" xmlns="http://www.w3.org/2000/svg" xmlns:xlink="http://www.w3.org/1999/xlink"><mask id="a" fill="#fff"><path d="m0 .44210526h87.2678947v29.55789474h-87.2678947" fill="#fff" fill-rule="evenodd"/></mask><mask id="b" fill="#fff"><path d="m0 .44210526h87.2678947v29.55789474h-87.2678947" fill="#fff" fill-rule="evenodd"/></mask><g fill="none" fill-rule="evenodd" transform="translate(.521739)"><g fill="#a80030"><path d="m14.1922105 16.0591579c-.4894737.0063158.0921053.2515789.731579.3505263.1773684-.138421.3368421-.2773684.4794737-.4131579-.3973685.0973684-.8026316.0994737-1.2110527.0626316"/><path d="m16.8200526 15.4039474c.2926316-.4026316.5052632-.8431579.58-1.2989474-.0657894.3242105-.2410526.6047368-.4073684.9010526-.9157895.5763158-.0868421-.3421052-.0010526-.6921052-.9836842 1.24-.1352632.7436842-.171579 1.09"/><path d="m17.7912632 12.8787368c.0594736-.8821052-.1731579-.6026315-.251579-.2668421.0910526.0478948.1631579.6221053.251579.2668421"/><path d="m12.3343684.82326316c.261579.04631579.5652632.08263158.521579.14526316.2868421-.0631579.3515789-.12052632-.521579-.14526316"/><path d="m12.8562105.96847368-.1836842.03842106.1710526-.01578948z"/><path d="m21.0077368 13.2130526c.0294737.7921053-.2310526 1.1768421-.4668421 1.8573685l-.4236842.2105263c-.3463158.6731579.0342106.4273684-.2136842.9626315-.5415789.4810527-1.6410526 1.5042106-1.9931579 1.5978948-.2573684-.0052632.1742105-.3031579.2305263-.4194737-.7242105.4968421-.5810526.7457895-1.688421 1.0484211l-.0321053-.0726316c-2.7305263 1.2847368-6.52368419-1.2610527-6.47368419-4.7342106-.02894737.2205264-.08315789.1652632-.14368421.2536843-.14052632-1.7863158.8257895-3.5810527 2.4552632-4.3152632 1.5942105-.78842105 3.4626315-.46526316 4.6036842.5994737-.6268421-.82105265-1.8752632-1.69210528-3.3536842-1.61157896-1.4494737.02368421-2.8052632.94421052-3.2573685 1.94473686-.74210523.4668421-.82894733 1.8010526-1.15210523 2.0457895-.43578947 3.1989473.81842106 4.5805263 2.94000003 6.2068421.3331579.2247368.0942105.2594736.138421.4305263-.7047368-.33-1.3494737-.8278948-1.8805263-1.4378948.281579.411579.5857895.8121053.9784211 1.1268421-.6647369-.2242105-1.55263162-1.61-1.81157898-1.6663157 1.14578948 2.0510526 4.64736838 3.5973684 6.48210528 2.83-.8489474.0310526-1.9273684.0173684-2.8805263-.3352632-.401579-.2063158-.9452632-.6326316-.8478948-.7121053 2.5031579.9342106 5.0878948.7073685 7.2531579-1.028421.551579-.4294737 1.1531579-1.1594737 1.3273684-1.1689474-.2621052.3936842.0447369.1894737-.1563157.5368421.5478947-.8852631-.2389474-.3605263.5668421-1.528421l.2978947.4094736c-.111579-.7352631.9126316-1.6273684.808421-2.79.2352632-.3552631.2621053.3831579.0126316 1.2005264.3457895-.9068421.091579-1.0531579.18-1.801579.0952632.251579.2221053.5189474.2868421.7847369-.2252631-.8768421.2305263-1.4763158.3436842-1.9857895-.1121052-.0489474-.3473684.3873684-.4021052-.6478948.008421-.4494736.1257895-.2352631.1705263-.3463157-.0878947-.0505264-.3194737-.3957895-.46-1.05684215.1010526-.15578947.2726316.40315785.4115789.42578945-.0894736-.52578945-.2431579-.92631576-.25-1.32999997-.4063157-.84894737-.1436842.11368421-.4726315-.36421053-.4326316-1.34894737.358421-.31315789.4121052-.92578947.6552632.94894736 1.0284211 2.42105263 1.2005263 3.02999997-.1310526-.74263155-.3426315-1.46315787-.6010526-2.15947366.1994737.08421053-.3210526-1.52842105.2589474-.46052631-.6189474-2.27631579-2.6478948-4.40368421-4.5142105-5.40157895.2278947.20894737.5157894.47105263.4126315.51210526-.9289473-.55210526-.7652631-.59578947-.898421-.82894737-.7557895-.30789473-.8063158.02526316-1.3057895.00052632-1.4263158-.75631579-1.7005263-.67631579-3.0126316-1.14947368l.0594737.27947368c-.9442105-.31473684-1.1005263.11842105-2.1205263.00052632-.0621053-.04842106.3268421-.17578948.6473684-.22210527-.9131579.12052632-.8705263-.18-1.7642105.0331579.22-.15421053.4536842-.25684211.688421-.38789474-.7447368.04526316-1.77789469.43315789-1.4589473.08-1.21473687.54210526-3.37157897 1.30263158-4.58210529 2.43789474l-.03842105-.25421053c-.55421053.66578947-2.41842105 1.98789474-2.56684211 2.85105263l-.14842105.03473684c-.28842105.48842106-.47526316 1.04210527-.70421053 1.54473685-.37736842.64315789-.55315789.24789473-.49947368.34842105-.74263158 1.50526316-1.11210526 2.77000002-1.43 3.80789472.22684211.3389474.00526316 2.0426316.09105263 3.4057895-.37263158 6.7336842 4.72578947 13.2715789 10.29894738 14.7805263.8168421.2926316 2.0310526.2821053 3.0642105.3110526-1.2189474-.348421-1.3757895-.1842105-2.5636842-.598421-.8568421-.4036842-1.0442105-.8642105-1.65105263-1.3910526l.24.4242105c-1.19-.4210527-.69210526-.5210527-1.66-.8273684l.25631579-.3347369c-.38578947-.0294737-1.02157894-.6494737-1.19526315-.9942105l-.42210527.0168421c-.5068421-.6247368-.77736842-1.0763158-.75736842-1.4257895l-.13631579.2431579c-.15421052-.2652631-1.86526316-2.3463158-.97789474-1.8621052-.16473684-.15-.38368421-.2447369-.62157894-.6768422l.18052631-.2063157c-.42631579-.5494737-.78578947-1.2542106-.75842105-1.4889474.22789474.3078947.38578947.3652631.54263158.4178947-1.07894737-2.6757894-1.13947368-.1468421-1.95578947-2.7236842l.17210526-.0136842c-.13210526-.2005263-.2131579-.4163158-.31894737-.6289474l.07526316-.7489473c-.77631579-.8968421-.21684211-3.8173685-.10473684-5.4184211.07736842-.6510526.64789473-1.3442105 1.08157894-2.43157893l-.26421052-.04526316c.50578947-.88105263 2.88526316-3.53947368 3.98789473-3.40315789.53421053-.67052632-.10631579-.00263158-.21052631-.17105264 1.17315789-1.21368421 1.54157895-.85736842 2.33315789-1.07631579.8531579-.50631578-.73263158.19842106-.32789473-.19263157 1.47578947-.37684211 1.04578947-.85684211 2.97052627-1.04789474.2031579.11526316-.4710526.17789474-.64.32789474 1.2289474-.60157895 3.8905264-.46473685 5.62.33368421 2.0047369.93789473 4.2589474 3.70842105 4.3478948 6.31526317l.1015789.0273684c-.0510526 1.0363158.1584211 2.2352632-.2057894 3.3357895z"/><path d="m8.84578947 16.7311053-.06894736.3431579c.32210526.4373684.57789473.9115789.98842105 1.2526315-.29578948-.5768421-.51473684-.8152631-.91947369-1.5957894"/><path d="m9.60657895 16.7016316c-.17052632-.1889474-.27052632-.4157895-.38421053-.6410527.10842105.3968422.33.7378948.53526316 1.0852632z"/><path d="m23.0731053 13.7745263-.071579.1810526c-.1321052.9368422-.4173684 1.8636843-.8542105 2.7231579.4826316-.9068421.7936842-1.8989473.9257895-2.9042105"/><path d="m12.4317368.58826316c.3305264-.12105263.8136843-.06631579 1.1657895-.14631579-.458421.03842105-.9142105.06157895-1.3642105.11894737z" mask="url(#a)"/><path d="m.805 6.77084211c.07631579.70578947-.53105263.98052631.13421053.51421052.35736842-.80421052-.13894737-.22157895-.13421053-.51421052"/><path d="m.02226316 10.0401579c.15368421-.47105264.18105263-.75368422.24-1.02684211-.42368421.54263158-.19526316.65789474-.24 1.02684211"/></g><path d="m30.0271053 17.6928421c0 6.8768421 3.658421 6.8768421 4.1947368 6.8768421 1.5121053 0 2.4878947-.8294737 2.9021053-2.2678947l.0489473 2.17c.4636842-.0247369.9268421-.0731579 1.6826316-.0731579.2684211 0 .4873684 0 .6831579.0247368.1952632 0 .39.0236842.6094737.0484211-.39-.78-.6826316-2.5357895-.6826316-6.341579 0-3.7068421 0-9.9742105.3168421-11.87684208-.8773684.41526316-1.6342105.68368421-3.2926316.82947369.6584211.70736842.6584211 1.07315789.6584211 4.29157899-.4626316-.1457895-1.0484211-.3168422-2.0484211-.3168422-4.3652631.0005264-5.0726315 3.8052632-5.0726315 6.6352632zm7.0721052-2.878421c-.0236842.0247368-.0236842 3.9505263-.0726316 4.9752631-.048421.8284211-.1221052 2.6089474-1.8778947 2.6089474-1.8047368 0-2.2436842-2.0731579-2.39-2.9747369-.1705263-1-.1705263-1.83-.1705263-2.1947368 0-1.1710526.0731579-4.44 2.8289474-4.44.8294736 0 1.2926315.2447368 1.658421.4389474z" fill="#000"/><path d="m49.8376316 16.6923158c0-2.8536842-.5605263-5.6589474-4.17-5.6589474-4.9747369 0-4.9747369 5.5131579-4.9747369 6.6826316 0 4.9505263 2.2189474 6.9015789 5.9505264 6.9015789 1.6573684 0 2.4631578-.2426315 2.9021052-.3657894-.0242105-.8778948.0973684-1.4389474.2447369-2.1947369-.5131579.3178948-1.171579.7321053-2.6347369.7321053-3.8047368 0-3.8536842-3.4642105-3.8536842-4.6589474h6.4884211zm-6.5842105-.2447369c.0247368-2.0242105.4394736-3.8289473 2.1705263-3.8289473 1.9026315 0 2.0478947 2.0968421 1.9994737 3.8289473z" fill="#000"/><path d="m50.7728947 20.3991579c0 1.8052632 0 2.8289474-.2926315 3.6089474 1 .3905263 2.2431579.6094736 3.7315789.6094736.9510526 0 3.7068421 0 5.1942105-3.0478947.7073685-1.4147368.9510527-3.3173684.9510527-4.7563158 0-.8778947-.0978948-2.8042105-.8047369-4.0242105-.6821052-1.1452632-1.78-1.7310526-2.95-1.7310526-2.3415789 0-3.0242105 1.9510526-3.3894737 2.9510526 0-1.2436842.0236842-5.58473685.2184211-7.80421053-1.5847369.73210526-2.5610526.85315789-3.6089474.95105263.9510527.38947368.9510527 2.00052632.9510527 7.2442105v5.9989474m6.998421-2.6584211c0 2.2678948-.4142105 5.3168421-3.2431579 5.3168421-.3905263 0-.8778947-.0742105-1.1947368-.1468421-.0489474-.8778947-.0489474-2.39-.0489474-4.1457894 0-2.0978948.2189474-3.1936842.3905263-3.731579.511579-1.7310526 1.6578948-1.7547368 1.8768421-1.7547368 1.8536842 0 2.2194737 2.5605263 2.2194737 4.4621052" fill="#000"/><path d="m65.0455263 24.4717895c-.488421-.0731579-.8305263-.1221053-1.5378947-.1221053-.7789474 0-1.3168421.0494737-1.8768421.1221053.2436842-.4636842.3410526-.6836842.4142105-2.2678948.0978947-2.1710526.1221053-7.9757894-.0484211-9.1952631-.1221052-.9273684-.3410526-1.0731579-.6826315-1.3168421 1.9994737-.1952632 2.5605263-.3410527 3.4868421-.78-.1942106 1.0721052-.22 1.61-.22 3.2431579-.0478948 8.4152631-.0726316 9.3168421.4647368 10.3168421" fill="#000"/><path d="m66.1476316 20.5696842c0 1.5368421.4636842 3.0726316 1.83 3.731579.6094737.268421 1.2189473.268421 1.4147368.268421 2.2442105 0 2.9994737-1.6589474 3.4631579-2.6831579-.0247368 1.0731579 0 1.7310526.0731579 2.5852632.4389474-.0247369.8778947-.0731579 1.61-.0731579.4142105 0 .8047369.048421 1.2189474.0731579-.2684211-.4142106-.4142105-.6589474-.4884211-1.61-.048421-.9263158-.048421-1.8531579-.048421-3.1457895l.0247368-4.9752632c0-1.8542105-.488421-3.6831579-4.1468421-3.6831579-2.4136842 0-3.8278947.7321053-4.5352631 1.0978948.2931578.5368421.5368421.9989474.7557894 2.0489474.9521053-.8294737 2.1957895-1.2684211 3.4631579-1.2684211 2.0252632 0 2.0252632 1.3415789 2.0252632 3.2431579-.4636842-.0236842-.8542105-.0721053-1.5131579-.0721053-3.0984211.0005263-5.1468421 1.1936842-5.1468421 4.4626316zm6.7073684-3.0005263c-.0484211 1.5368421-.0731579 2.61-.4884211 3.4631579-.5121052 1.0978947-1.3652631 1.4147368-1.9994736 1.4147368-1.4647369 0-1.7805264-1.2189473-1.7805264-2.4136842 0-2.2921052 2.0489474-2.4642105 2.9747369-2.4642105z" fill="#000"/><path d="m86.9023684 22.0575789c.0247369.8294737.0247369 1.7073685.3657895 2.4147369-.5373684-.0484211-.8542105-.1221053-1.8531579-.1221053-.5857895 0-.9026316.0494737-1.3663158.1221053.0968421-.3168421.1468421-.4389474.1952632-.8542105.0731579-.56.1221052-2.4384211.1221052-3.0973685v-2.6336842c0-1.1463158 0-2.8052631-.0742105-3.39-.048421-.4142105-.1694737-1.5357894-1.5852632-1.5357894-1.39 0-1.8531578 1.0236842-2.0242105 1.8531579-.1942105.8531578-.1942105 1.7805263-.1942105 5.3894736.0236842 3.1221053.0236842 3.4136842.2673684 4.2678948-.4142105-.0484211-.9263158-.0968421-1.6578947-.0968421-.5857895 0-.9757895.0236842-1.4626316.0968421.1705263-.3905263.2684211-.5857895.3168421-1.9510527.0494737-1.3415789.1468421-7.9268421-.0742105-9.4868421-.1210527-.9521052-.3657895-1.1710526-.6331579-1.4147368 1.9757895-.0978947 2.6089474-.4152632 3.2194737-.7310526v2.5842105c.2921052-.7568421.9015789-2.4394737 3.3410526-2.4394737 3.0489474 0 3.0726316 2.2194737 3.0973684 3.6821053z" fill="#000" mask="url(#b)"/><path d="m65.2513158 7.46021053-2.02 2.01894736-2.0189474-2.01894736 2.0189474-2.01894737z" fill="#a80030"/></g></svg>