<?xml version="1.0" encoding="UTF-8" standalone="no"?>
<svg width="88px" height="30px" viewBox="0 0 88 30" version="1.1" xmlns="http://www.w3.org/2000/svg" xmlns:xlink="http://www.w3.org/1999/xlink" xmlns:sketch="http://www.bohemiancoding.com/sketch/ns">
    <!-- Generator: Sketch Beta 3.4 (14718) - http://www.bohemiancoding.com/sketch -->
    <title>logo - debian</title>
    <desc>Created with Sketch Beta.</desc>
    <defs>
        <path id="path-1" d="M0,0.442105263 L87.2678947,0.442105263 L87.2678947,30 L0,30"></path>
        <path id="path-3" d="M0,0.442105263 L87.2678947,0.442105263 L87.2678947,30 L0,30"></path>
    </defs>
    <g id="Page-1" stroke="none" stroke-width="1" fill="none" fill-rule="evenodd" sketch:type="MSPage">
        <g id="logo---debian" sketch:type="MSLayerGroup" transform="translate(0.521739, 0.000000)">
            <path d="M14.1922105,16.0591579 C13.7027368,16.0654737 14.2843158,16.3107368 14.9237895,16.4096842 C15.1011579,16.2712632 15.2606316,16.1323158 15.4032632,15.9965263 C15.0058947,16.0938947 14.6006316,16.096 14.1922105,16.0591579" id="Fill-1" fill="#A80030" sketch:type="MSShapeGroup"></path>
            <path d="M16.8200526,15.4039474 C17.1126842,15.0013158 17.3253158,14.5607895 17.4000526,14.105 C17.3342632,14.4292105 17.159,14.7097368 16.9926842,15.0060526 C16.0768947,15.5823684 16.9058421,14.6639474 16.9916316,14.3139474 C16.0079474,15.5539474 16.8563684,15.0576316 16.8200526,15.4039474" id="Fill-3" fill="#A80030" sketch:type="MSShapeGroup"></path>
            <path d="M17.7912632,12.8787368 C17.8507368,11.9966316 17.6181053,12.2761053 17.5396842,12.6118947 C17.6307368,12.6597895 17.7028421,13.234 17.7912632,12.8787368" id="Fill-5" fill="#A80030" sketch:type="MSShapeGroup"></path>
            <path d="M12.3343684,0.823263158 C12.5959474,0.869578947 12.8996316,0.905894737 12.8559474,0.968526316 C13.1427895,0.905368421 13.2075263,0.848 12.3343684,0.823263158" id="Fill-7" fill="#A80030" sketch:type="MSShapeGroup"></path>
            <path d="M12.8562105,0.968473684 L12.6725263,1.00689474 L12.8435789,0.991105263 L12.8562105,0.968473684 Z" id="Fill-9" fill="#A80030" sketch:type="MSShapeGroup"></path>
            <path d="M21.0077368,13.2130526 C21.0372105,14.0051579 20.7766842,14.3898947 20.5408947,15.0704211 L20.1172105,15.2809474 C19.7708947,15.9541053 20.1514211,15.7083158 19.9035263,16.2435789 C19.3619474,16.7246316 18.2624737,17.7477895 17.9103684,17.8414737 C17.653,17.8362105 18.0845789,17.5383158 18.1408947,17.422 C17.4166842,17.9188421 17.5598421,18.1677895 16.4524737,18.4704211 L16.4203684,18.3977895 C13.6898421,19.6825263 9.89668421,17.1367368 9.94668421,13.6635789 C9.91773684,13.8841053 9.86352632,13.8288421 9.803,13.9172632 C9.66247368,12.1309474 10.6287895,10.3362105 12.2582632,9.602 C13.8524737,8.81357895 15.7208947,9.13673684 16.8619474,10.2014737 C16.2351053,9.38042105 14.9866842,8.50936842 13.5082632,8.58989474 C12.0587895,8.61357895 10.703,9.53410526 10.2508947,10.5346316 C9.50878947,11.0014737 9.42194737,12.3356842 9.09878947,12.5804211 C8.663,15.7793684 9.91721053,17.1609474 12.0387895,18.7872632 C12.3719474,19.012 12.133,19.0467368 12.1772105,19.2177895 C11.4724737,18.8877895 10.8277368,18.3898947 10.2966842,17.7798947 C10.5782632,18.1914737 10.8824737,18.592 11.2751053,18.9067368 C10.6103684,18.6825263 9.72247368,17.2967368 9.46352632,17.2404211 C10.6093158,19.2914737 14.1108947,20.8377895 15.9456316,20.0704211 C15.0966842,20.1014737 14.0182632,20.0877895 13.0651053,19.7351579 C12.6635263,19.5288421 12.1198421,19.1025263 12.2172105,19.0230526 C14.7203684,19.9572632 17.3051053,19.7304211 19.4703684,17.9946316 C20.0219474,17.5651579 20.6235263,16.8351579 20.7977368,16.8256842 C20.5356316,17.2193684 20.8424737,17.0151579 20.6414211,17.3625263 C21.1893158,16.4772632 20.4024737,17.002 21.2082632,15.8341053 L21.5061579,16.2435789 C21.3945789,15.5083158 22.4187895,14.6162105 22.3145789,13.4535789 C22.5498421,13.0983158 22.5766842,13.8367368 22.3272105,14.6541053 C22.673,13.7472632 22.4187895,13.6009474 22.5072105,12.8525263 C22.6024737,13.1041053 22.7293158,13.3714737 22.7940526,13.6372632 C22.5687895,12.7604211 23.0245789,12.1609474 23.1377368,11.6514737 C23.0256316,11.6025263 22.7903684,12.0388421 22.7356316,11.0035789 C22.7440526,10.5541053 22.8614211,10.7683158 22.9061579,10.6572632 C22.8182632,10.6067368 22.5866842,10.2614737 22.4461579,9.60042105 C22.5472105,9.44463158 22.7187895,10.0035789 22.8577368,10.0262105 C22.7682632,9.50042105 22.6145789,9.09989474 22.6077368,8.69621053 C22.2014211,7.84726316 22.4640526,8.80989474 22.1351053,8.332 C21.7024737,6.98305263 22.4935263,8.01884211 22.5472105,7.40621053 C23.2024737,8.35515789 23.5756316,9.82726316 23.7477368,10.4362105 C23.6166842,9.69357895 23.4051053,8.97305263 23.1466842,8.27673684 C23.3461579,8.36094737 22.8256316,6.74831579 23.4056316,7.81621053 C22.7866842,5.53989474 20.7577368,3.41252632 18.8914211,2.41463158 C19.1193158,2.62357895 19.4072105,2.88568421 19.3040526,2.92673684 C18.3751053,2.37463158 18.5387895,2.33094737 18.4056316,2.09778947 C17.6498421,1.78989474 17.5993158,2.12305263 17.0998421,2.09831579 C15.6735263,1.342 15.3993158,1.422 14.0872105,0.948842105 L14.1466842,1.22831579 C13.2024737,0.913578947 13.0461579,1.34673684 12.0261579,1.22884211 C11.9640526,1.18042105 12.353,1.05305263 12.6735263,1.00673684 C11.7603684,1.12726316 11.803,0.826736842 10.9093158,1.03989474 C11.1293158,0.885684211 11.363,0.783052632 11.5977368,0.652 C10.853,0.697263158 9.81984211,1.08515789 10.1387895,0.732 C8.92405263,1.27410526 6.76721053,2.03463158 5.55668421,3.16989474 L5.51826316,2.91568421 C4.96405263,3.58147368 3.09984211,4.90357895 2.95142105,5.76673684 L2.803,5.80147368 C2.51457895,6.28989474 2.32773684,6.84357895 2.09878947,7.34621053 C1.72142105,7.98936842 1.54563158,7.59410526 1.59931579,7.69463158 C0.856684211,9.19989474 0.487210526,10.4646316 0.169315789,11.5025263 C0.396157895,11.8414737 0.174578947,13.5451579 0.260368421,14.9083158 C-0.112263158,21.642 4.98615789,28.1798947 10.5593158,29.6888421 C11.3761579,29.9814737 12.5903684,29.9709474 13.6235263,29.9998947 C12.4045789,29.6514737 12.2477368,29.8156842 11.0598421,29.4014737 C10.203,28.9977895 10.0156316,28.5372632 9.40878947,28.0104211 L9.64878947,28.4346316 C8.45878947,28.0135789 8.95668421,27.9135789 7.98878947,27.6072632 L8.24510526,27.2725263 C7.85931579,27.2430526 7.22352632,26.6230526 7.04984211,26.2783158 L6.62773684,26.2951579 C6.12089474,25.6704211 5.85036842,25.2188421 5.87036842,24.8693684 L5.73405263,25.1125263 C5.57984211,24.8472632 3.86878947,22.7662105 4.75615789,23.2504211 C4.59142105,23.1004211 4.37247368,23.0056842 4.13457895,22.5735789 L4.31510526,22.3672632 C3.88878947,21.8177895 3.52931579,21.1130526 3.55668421,20.8783158 C3.78457895,21.1862105 3.94247368,21.2435789 4.09931579,21.2962105 C3.02036842,18.6204211 2.95984211,21.1493684 2.14352632,18.5725263 L2.31563158,18.5588421 C2.18352632,18.3583158 2.10247368,18.1425263 1.99668421,17.9298947 L2.07194737,17.1809474 C1.29563158,16.2841053 1.85510526,13.3635789 1.96721053,11.7625263 C2.04457895,11.1114737 2.61510526,10.4183158 3.04878947,9.33094737 L2.78457895,9.28568421 C3.29036842,8.40463158 5.66984211,5.74621053 6.77247368,5.88252632 C7.30668421,5.212 6.66615789,5.87989474 6.56194737,5.71147368 C7.73510526,4.49778947 8.10352632,4.85410526 8.89510526,4.63515789 C9.74826316,4.12884211 8.16247368,4.83357895 8.56721053,4.44252632 C10.043,4.06568421 9.613,3.58568421 11.5377368,3.39463158 C11.7408947,3.50989474 11.0666842,3.57252632 10.8977368,3.72252632 C12.1266842,3.12094737 14.7882632,3.25778947 16.5177368,4.05621053 C18.5224737,4.99410526 20.7766842,7.76463158 20.8656316,10.3714737 L20.9672105,10.3988421 C20.9161579,11.4351579 21.1256316,12.6341053 20.7614211,13.7346316 L21.0077368,13.2130526" id="Fill-11" fill="#A80030" sketch:type="MSShapeGroup"></path>
            <path d="M8.84578947,16.7311053 L8.77684211,17.0742632 C9.09894737,17.5116316 9.35473684,17.9858421 9.76526316,18.3268947 C9.46947368,17.7500526 9.25052632,17.5116316 8.84578947,16.7311053" id="Fill-13" fill="#A80030" sketch:type="MSShapeGroup"></path>
            <path d="M9.60657895,16.7016316 C9.43605263,16.5126842 9.33605263,16.2858421 9.22236842,16.0605789 C9.33078947,16.4574211 9.55236842,16.7984737 9.75763158,17.1458421 L9.60657895,16.7016316" id="Fill-15" fill="#A80030" sketch:type="MSShapeGroup"></path>
            <path d="M23.0731053,13.7745263 L23.0015263,13.9555789 C22.8694211,14.8924211 22.5841579,15.8192632 22.1473158,16.6787368 C22.6299474,15.7718947 22.941,14.7797895 23.0731053,13.7745263" id="Fill-17" fill="#A80030" sketch:type="MSShapeGroup"></path>
            <g id="Group-21">
                <mask id="mask-2" sketch:name="Clip 20" fill="white">
                    <use xlink:href="#path-1"></use>
                </mask>
                <g id="Clip-20"></g>
                <path d="M12.4317368,0.588263158 C12.7622632,0.467210526 13.2454211,0.521947368 13.5975263,0.441947368 C13.1391053,0.480368421 12.6833158,0.503526316 12.2333158,0.560894737 L12.4317368,0.588263158" id="Fill-19" fill="#A80030" sketch:type="MSShapeGroup" mask="url(#mask-2)"></path>
            </g>
            <path d="M0.805,6.77084211 C0.881315789,7.47663158 0.273947368,7.75136842 0.939210526,7.28505263 C1.29657895,6.48084211 0.800263158,7.06347368 0.805,6.77084211" id="Fill-22" fill="#A80030" sketch:type="MSShapeGroup"></path>
            <path d="M0.0222631579,10.0401579 C0.175947368,9.56910526 0.203315789,9.28647368 0.262263158,9.01331579 C-0.161421053,9.55594737 0.067,9.67121053 0.0222631579,10.0401579" id="Fill-24" fill="#A80030" sketch:type="MSShapeGroup"></path>
            <path d="M30.0271053,17.6928421 C30.0271053,24.5696842 33.6855263,24.5696842 34.2218421,24.5696842 C35.7339474,24.5696842 36.7097368,23.7402105 37.1239474,22.3017895 L37.1728947,24.4717895 C37.6365789,24.4470526 38.0997368,24.3986316 38.8555263,24.3986316 C39.1239474,24.3986316 39.3428947,24.3986316 39.5386842,24.4233684 C39.7339474,24.4233684 39.9286842,24.4470526 40.1481579,24.4717895 C39.7581579,23.6917895 39.4655263,21.936 39.4655263,18.1302105 C39.4655263,14.4233684 39.4655263,8.156 39.7823684,6.25336842 C38.905,6.66863158 38.1481579,6.93705263 36.4897368,7.08284211 C37.1481579,7.79021053 37.1481579,8.156 37.1481579,11.3744211 C36.6855263,11.2286316 36.0997368,11.0575789 35.0997368,11.0575789 C30.7344737,11.0581053 30.0271053,14.8628421 30.0271053,17.6928421 L30.0271053,17.6928421 Z M37.0992105,14.8144211 C37.0755263,14.8391579 37.0755263,18.7649474 37.0265789,19.7896842 C36.9781579,20.6181053 36.9044737,22.3986316 35.1486842,22.3986316 C33.3439474,22.3986316 32.905,20.3254737 32.7586842,19.4238947 C32.5881579,18.4238947 32.5881579,17.5938947 32.5881579,17.2291579 C32.5881579,16.0581053 32.6613158,12.7891579 35.4171053,12.7891579 C36.2465789,12.7891579 36.7097368,13.0338947 37.0755263,13.2281053 L37.0992105,14.8144211 Z" id="Fill-26" fill="#000000" sketch:type="MSShapeGroup"></path>
            <path d="M49.8376316,16.6923158 C49.8376316,13.8386316 49.2771053,11.0333684 45.6676316,11.0333684 C40.6928947,11.0333684 40.6928947,16.5465263 40.6928947,17.716 C40.6928947,22.6665263 42.9118421,24.6175789 46.6434211,24.6175789 C48.3007895,24.6175789 49.1065789,24.3749474 49.5455263,24.2517895 C49.5213158,23.3738947 49.6428947,22.8128421 49.7902632,22.0570526 C49.2771053,22.3749474 48.6186842,22.7891579 47.1555263,22.7891579 C43.3507895,22.7891579 43.3018421,19.3249474 43.3018421,18.1302105 L49.7902632,18.1302105 L49.8376316,16.6923158 L49.8376316,16.6923158 Z M43.2534211,16.4475789 C43.2781579,14.4233684 43.6928947,12.6186316 45.4239474,12.6186316 C47.3265789,12.6186316 47.4718421,14.7154737 47.4234211,16.4475789 L43.2534211,16.4475789 Z" id="Fill-28" fill="#000000" sketch:type="MSShapeGroup"></path>
            <path d="M50.7728947,20.3991579 C50.7728947,22.2044211 50.7728947,23.2281053 50.4802632,24.0081053 C51.4802632,24.3986316 52.7234211,24.6175789 54.2118421,24.6175789 C55.1628947,24.6175789 57.9186842,24.6175789 59.4060526,21.5696842 C60.1134211,20.1549474 60.3571053,18.2523158 60.3571053,16.8133684 C60.3571053,15.9354737 60.2592105,14.0091579 59.5523684,12.7891579 C58.8702632,11.6438947 57.7723684,11.0581053 56.6023684,11.0581053 C54.2607895,11.0581053 53.5781579,13.0091579 53.2128947,14.0091579 C53.2128947,12.7654737 53.2365789,8.42442105 53.4313158,6.20494737 C51.8465789,6.93705263 50.8702632,7.05810526 49.8223684,7.156 C50.7734211,7.54547368 50.7734211,9.15652632 50.7734211,14.4002105 L50.7734211,20.3991579 M57.7718421,17.7407368 C57.7718421,20.0086316 57.3576316,23.0575789 54.5286842,23.0575789 C54.1381579,23.0575789 53.6507895,22.9833684 53.3339474,22.9107368 C53.285,22.0328421 53.285,20.5207368 53.285,18.7649474 C53.285,16.6670526 53.5039474,15.5712632 53.6755263,15.0333684 C54.1871053,13.3023158 55.3334211,13.2786316 55.5523684,13.2786316 C57.4060526,13.2786316 57.7718421,15.8391579 57.7718421,17.7407368" id="Fill-30" fill="#000000" sketch:type="MSShapeGroup"></path>
            <path d="M65.0455263,24.4717895 C64.5571053,24.3986316 64.215,24.3496842 63.5076316,24.3496842 C62.7286842,24.3496842 62.1907895,24.3991579 61.6307895,24.4717895 C61.8744737,24.0081053 61.9718421,23.7881053 62.045,22.2038947 C62.1428947,20.0328421 62.1671053,14.2281053 61.9965789,13.0086316 C61.8744737,12.0812632 61.6555263,11.9354737 61.3139474,11.6917895 C63.3134211,11.4965263 63.8744737,11.3507368 64.8007895,10.9117895 C64.6065789,11.9838947 64.5807895,12.5217895 64.5807895,14.1549474 C64.5328947,22.5702105 64.5081579,23.4717895 65.0455263,24.4717895" id="Fill-32" fill="#000000" sketch:type="MSShapeGroup"></path>
            <path d="M66.1476316,20.5696842 C66.1476316,22.1065263 66.6113158,23.6423158 67.9776316,24.3012632 C68.5871053,24.5696842 69.1965789,24.5696842 69.3923684,24.5696842 C71.6365789,24.5696842 72.3918421,22.9107368 72.8555263,21.8865263 C72.8307895,22.9596842 72.8555263,23.6175789 72.9286842,24.4717895 C73.3676316,24.4470526 73.8065789,24.3986316 74.5386842,24.3986316 C74.9528947,24.3986316 75.3434211,24.4470526 75.7576316,24.4717895 C75.4892105,24.0575789 75.3434211,23.8128421 75.2692105,22.8617895 C75.2207895,21.9354737 75.2207895,21.0086316 75.2207895,19.716 L75.2455263,14.7407368 C75.2455263,12.8865263 74.7571053,11.0575789 71.0986842,11.0575789 C68.685,11.0575789 67.2707895,11.7896842 66.5634211,12.1554737 C66.8565789,12.6923158 67.1002632,13.1544211 67.3192105,14.2044211 C68.2713158,13.3749474 69.515,12.936 70.7823684,12.936 C72.8076316,12.936 72.8076316,14.2775789 72.8076316,16.1791579 C72.3439474,16.1554737 71.9534211,16.1070526 71.2944737,16.1070526 C68.1960526,16.1075789 66.1476316,17.3007368 66.1476316,20.5696842 L66.1476316,20.5696842 Z M72.855,17.5691579 C72.8065789,19.106 72.7818421,20.1791579 72.3665789,21.0323158 C71.8544737,22.1302105 71.0013158,22.4470526 70.3671053,22.4470526 C68.9023684,22.4470526 68.5865789,21.2281053 68.5865789,20.0333684 C68.5865789,17.7412632 70.6355263,17.5691579 71.5613158,17.5691579 L72.855,17.5691579 Z" id="Fill-34" fill="#000000" sketch:type="MSShapeGroup"></path>
            <g id="Group-38">
                <mask id="mask-4" sketch:name="Clip 37" fill="white">
                    <use xlink:href="#path-3"></use>
                </mask>
                <g id="Clip-37"></g>
                <path d="M86.9023684,22.0575789 C86.9271053,22.8870526 86.9271053,23.7649474 87.2681579,24.4723158 C86.7307895,24.4238947 86.4139474,24.3502105 85.415,24.3502105 C84.8292105,24.3502105 84.5123684,24.3996842 84.0486842,24.4723158 C84.1455263,24.1554737 84.1955263,24.0333684 84.2439474,23.6181053 C84.3171053,23.0581053 84.3660526,21.1796842 84.3660526,20.5207368 L84.3660526,17.8870526 C84.3660526,16.7407368 84.3660526,15.0817895 84.2918421,14.4970526 C84.2434211,14.0828421 84.1223684,12.9612632 82.7065789,12.9612632 C81.3165789,12.9612632 80.8534211,13.9849474 80.6823684,14.8144211 C80.4881579,15.6675789 80.4881579,16.5949474 80.4881579,20.2038947 C80.5118421,23.326 80.5118421,23.6175789 80.7555263,24.4717895 C80.3413158,24.4233684 79.8292105,24.3749474 79.0976316,24.3749474 C78.5118421,24.3749474 78.1218421,24.3986316 77.635,24.4717895 C77.8055263,24.0812632 77.9034211,23.886 77.9518421,22.5207368 C78.0013158,21.1791579 78.0986842,14.5938947 77.8776316,13.0338947 C77.7565789,12.0817895 77.5118421,11.8628421 77.2444737,11.6191579 C79.2202632,11.5212632 79.8534211,11.2038947 80.4639474,10.8881053 L80.4639474,13.4723158 C80.7560526,12.7154737 81.3655263,11.0328421 83.805,11.0328421 C86.8539474,11.0328421 86.8776316,13.2523158 86.9023684,14.7149474 L86.9023684,22.0575789" id="Fill-36" fill="#000000" sketch:type="MSShapeGroup" mask="url(#mask-4)"></path>
            </g>
            <path d="M65.2513158,7.46021053 L63.2313158,9.47915789 L61.2123684,7.46021053 L63.2313158,5.44126316 L65.2513158,7.46021053 Z" id="Fill-39" fill="#A80030" sketch:type="MSShapeGroup"></path>
        </g>
    </g>
</svg>