<?xml version="1.0" encoding="UTF-8" standalone="no"?>
<svg width="120px" height="28px" viewBox="0 0 120 28" version="1.1" xmlns="http://www.w3.org/2000/svg" xmlns:xlink="http://www.w3.org/1999/xlink" xmlns:sketch="http://www.bohemiancoding.com/sketch/ns">
    <!-- Generator: Sketch Beta 3.4 (14718) - http://www.bohemiancoding.com/sketch -->
    <title>logo - docker</title>
    <desc>Created with Sketch Beta.</desc>
    <defs>
        <path id="path-1" d="M0,0.039826087 L119.116696,0.039826087 L119.116696,28 L0,28 L0,0.039826087 Z"></path>
        <path id="path-3" d="M0,0.039826087 L119.116696,0.039826087 L119.116696,28 L0,28 L0,0.039826087 Z"></path>
    </defs>
    <g id="Page-1" stroke="none" stroke-width="1" fill="none" fill-rule="evenodd" sketch:type="MSPage">
        <g id="logo---docker" sketch:type="MSLayerGroup">
            <g id="Group-3">
                <mask id="mask-2" sketch:name="Clip 2" fill="white">
                    <use xlink:href="#path-1"></use>
                </mask>
                <g id="Clip-2"></g>
                <path d="M28.7134957,8.86906087 L33.1646261,8.86906087 L33.1646261,13.3822783 L35.4162783,13.3822783 C36.4555826,13.3822783 37.5244522,13.1986261 38.5091478,12.8674957 C38.9928,12.7052348 39.5350609,12.4789739 40.0128,12.1944522 C39.3842783,11.3805391 39.0635826,10.3530609 38.9689739,9.34053913 C38.8411478,7.96314783 39.1204522,6.16975652 40.0608,5.09184348 L40.5288,4.55497391 L41.0861913,4.99984348 C42.4905391,6.1188 43.670887,7.68123478 43.878887,9.46314783 C45.5698435,8.97027826 47.5540174,9.0868 49.0448,9.93949565 L49.6555826,10.2890609 L49.3336696,10.9120174 C48.0736696,13.3508 45.4394087,14.1069739 42.8634087,13.972887 C39.0093217,23.492887 30.6185391,28.0000174 20.4446261,28.0000174 C15.1881043,28.0000174 10.3654957,26.0513217 7.61975652,21.4274957 L7.57453913,21.3509739 L7.17471304,20.5441913 C6.24653913,18.5081913 5.93801739,16.2777565 6.1474087,14.0495826 L6.20984348,13.3822783 L10.0168,13.3822783 L10.0168,8.86906087 L14.4681043,8.86906087 L14.4681043,4.45497391 L23.3710609,4.45497391 L23.3710609,0.0396695652 L28.7134957,0.0396695652 L28.7134957,8.86906087 Z" id="Fill-1" fill="#394D54" sketch:type="MSShapeGroup" mask="url(#mask-2)"></path>
            </g>
            <path d="M43.1362957,10.5390609 C43.4347304,8.2381913 41.6987304,6.43106087 40.621687,5.57349565 C39.3808174,6.99575652 39.1879478,10.7237565 41.1343826,12.2934957 C40.0482957,13.2503652 37.7597739,14.1178435 35.4162957,14.1178435 L6.88586087,14.1178435 C6.6582087,16.5437565 7.08777391,18.7780174 8.06864348,20.6910609 L8.39316522,21.2795826 C8.59855652,21.6258435 8.82307826,21.9597565 9.06603478,22.2806261 C10.2389043,22.3552348 11.3202957,22.3808 12.3093391,22.3599304 L12.3098609,22.3599304 C14.2538609,22.3168 15.8404696,22.0894957 17.0432522,21.6755826 C17.2225565,21.6140174 17.4168174,21.7088 17.4789043,21.8858435 C17.5411652,22.062887 17.4463826,22.2569739 17.2677739,22.3181913 C17.1081217,22.3731478 16.9409913,22.4239304 16.7688174,22.4736696 L16.7679478,22.4736696 C15.821513,22.7416696 14.8060348,22.9221913 13.4964696,23.0016696 C13.573687,23.0032348 13.4157739,23.0138435 13.4150783,23.0138435 C13.3705565,23.0166261 13.3145565,23.0225391 13.269687,23.0249739 C12.7540348,23.0541913 12.1978609,23.0602783 11.6289913,23.0602783 C11.0065565,23.0602783 10.3938609,23.0482783 9.7089913,23.0138435 L9.69125217,23.0249739 C12.0688174,25.6750609 15.7853391,27.2637565 20.4446435,27.2637565 C30.3046435,27.2637565 38.6684696,22.9294957 42.3716,13.1971478 C44.9992522,13.4646261 47.5248174,12.8006261 48.6738609,10.5766261 C46.8439478,9.52966957 44.4907304,9.86358261 43.1362957,10.5390609" id="Fill-4" fill="#00AADA" sketch:type="MSShapeGroup"></path>
            <path d="M43.1362957,10.5390609 C43.4347304,8.2381913 41.6987304,6.43106087 40.621687,5.57349565 C39.3808174,6.99575652 39.1879478,10.7237565 41.1343826,12.2934957 C40.0482957,13.2503652 37.7597739,14.1178435 35.4162957,14.1178435 L8.57542609,14.1178435 C8.45873043,17.8329739 9.84916522,20.6538435 12.3093391,22.3599304 L12.3098609,22.3599304 C14.2538609,22.3168 15.8404696,22.0894957 17.0432522,21.6755826 C17.2225565,21.6140174 17.4168174,21.7088 17.4789043,21.8858435 C17.5411652,22.062887 17.4463826,22.2569739 17.2677739,22.3181913 C17.1081217,22.3731478 16.9409913,22.4239304 16.7688174,22.4736696 L16.7679478,22.4736696 C15.821513,22.7416696 14.7192522,22.9449739 13.4093391,23.0249739 C13.4084696,23.0249739 13.377513,22.9950609 13.377513,22.9950609 C16.7328174,24.7018435 21.5985565,24.6959304 27.177687,22.5712348 C33.4326435,20.1879304 39.2533391,15.6474087 43.3143826,10.4543652 C43.253687,10.4825391 43.193687,10.5098435 43.1362957,10.5390609" id="Fill-6" fill="#24B8EC" sketch:type="MSShapeGroup"></path>
            <path d="M6.93963478,17.0655478 C7.11650435,18.3657217 7.49998261,19.5825913 8.06867826,20.691113 L8.3932,21.2794609 C8.5985913,21.6258957 8.82311304,21.9598087 9.06606957,22.2805043 C10.2389391,22.355287 11.3203304,22.3806783 12.3098957,22.3598087 C14.2538957,22.3166783 15.8405043,22.0895478 17.043287,21.6756348 C17.2224174,21.6138957 17.4168522,21.7086783 17.4787652,21.8858957 C17.5412,22.0627652 17.4462435,22.2570261 17.2678087,22.3180696 C17.1081565,22.3732 16.9410261,22.4239826 16.7688522,22.4737217 L16.7679826,22.4737217 C15.8213739,22.7417217 14.7246783,22.9335478 13.4149391,23.0137217 C13.3704174,23.0166783 13.2919826,23.0172 13.2464174,23.019287 C12.7314609,23.0481565 12.1803304,23.0658957 11.6118087,23.0658957 C10.9895478,23.0658957 10.3532,23.0542435 9.66815652,23.019287 C12.0455478,25.6695478 15.7853739,27.2638087 20.4445043,27.2638087 C28.8862435,27.2638087 36.2297217,24.0864174 40.4925043,17.0655478 L6.93963478,17.0655478 Z" id="Fill-8" fill="#008BB8" sketch:type="MSShapeGroup"></path>
            <path d="M8.83238261,17.0655478 C9.33690435,19.3479826 10.5497739,21.1389391 12.3099478,22.3598087 C14.2539478,22.3166783 15.8405565,22.0895478 17.0433391,21.6756348 C17.2224696,21.6138957 17.4167304,21.7086783 17.4788174,21.8858957 C17.5412522,22.0627652 17.4462957,22.2570261 17.2678609,22.3180696 C17.1082087,22.3732 16.9410783,22.4239826 16.7689043,22.4737217 L16.7680348,22.4737217 C15.8214261,22.7417217 14.7016,22.9335478 13.3918609,23.0137217 C16.7471652,24.7208522 21.5989913,24.6959826 27.1777739,22.571113 C30.5520348,21.2848522 33.799687,19.371287 36.7139478,17.0655478 L8.83238261,17.0655478 Z" id="Fill-10" fill="#039BC6" sketch:type="MSShapeGroup"></path>
            <mask id="mask-4" sketch:name="Clip 13" fill="white">
                <use xlink:href="#path-3"></use>
            </mask>
            <g id="Clip-13"></g>
            <path d="M10.7584348,9.60469565 L14.6161739,9.60469565 L14.6161739,13.4311304 L10.7584348,13.4311304 L10.7584348,9.60469565 Z M11.0796522,9.92382609 L11.3843478,9.92382609 L11.3843478,13.1126957 L11.0796522,13.1126957 L11.0796522,9.92382609 Z M11.6518261,9.92382609 L11.9686957,9.92382609 L11.9686957,13.1126957 L11.6518261,13.1126957 L11.6518261,9.92382609 Z M12.2366957,9.92382609 L12.5533913,9.92382609 L12.5533913,13.1126957 L12.2366957,13.1126957 L12.2366957,9.92382609 Z M12.8212174,9.92382609 L13.1382609,9.92382609 L13.1382609,13.1126957 L12.8212174,13.1126957 L12.8212174,9.92382609 Z M13.4057391,9.92382609 L13.7224348,9.92382609 L13.7224348,13.1126957 L13.4057391,13.1126957 L13.4057391,9.92382609 Z M13.990087,9.92382609 L14.2951304,9.92382609 L14.2951304,13.1126957 L13.990087,13.1126957 L13.990087,9.92382609 Z" id="Fill-12" fill="#00ACD3" sketch:type="MSShapeGroup" mask="url(#mask-4)"></path>
            <path d="M15.2097391,5.19026087 L19.0681739,5.19026087 L19.0681739,9.01652174 L15.2097391,9.01652174 L15.2097391,5.19026087 Z M15.5314783,5.50904348 L15.8358261,5.50904348 L15.8358261,8.69756522 L15.5314783,8.69756522 L15.5314783,5.50904348 Z M16.1043478,5.50904348 L16.4208696,5.50904348 L16.4208696,8.69756522 L16.1043478,8.69756522 L16.1043478,5.50904348 Z M16.6878261,5.50904348 L17.0048696,5.50904348 L17.0048696,8.69756522 L16.6878261,8.69756522 L16.6878261,5.50904348 Z M17.2728696,5.50904348 L17.5892174,5.50904348 L17.5892174,8.69756522 L17.2728696,8.69756522 L17.2728696,5.50904348 Z M17.8577391,5.50904348 L18.1744348,5.50904348 L18.1744348,8.69756522 L17.8577391,8.69756522 L17.8577391,5.50904348 Z M18.442087,5.50904348 L18.7469565,5.50904348 L18.7469565,8.69756522 L18.442087,8.69756522 L18.442087,5.50904348 Z" id="Fill-14" fill="#00ACD3" sketch:type="MSShapeGroup" mask="url(#mask-4)"></path>
            <path d="M15.2097391,9.60469565 L19.0681739,9.60469565 L19.0681739,13.4311304 L15.2097391,13.4311304 L15.2097391,9.60469565 Z M15.5314783,9.92382609 L15.8358261,9.92382609 L15.8358261,13.1126957 L15.5314783,13.1126957 L15.5314783,9.92382609 Z M16.1043478,9.92382609 L16.4208696,9.92382609 L16.4208696,13.1126957 L16.1043478,13.1126957 L16.1043478,9.92382609 Z M16.6878261,9.92382609 L17.0048696,9.92382609 L17.0048696,13.1126957 L16.6878261,13.1126957 L16.6878261,9.92382609 Z M17.2728696,9.92382609 L17.5892174,9.92382609 L17.5892174,13.1126957 L17.2728696,13.1126957 L17.2728696,9.92382609 Z M17.8577391,9.92382609 L18.1744348,9.92382609 L18.1744348,13.1126957 L17.8577391,13.1126957 L17.8577391,9.92382609 Z M18.442087,9.92382609 L18.7469565,9.92382609 L18.7469565,13.1126957 L18.442087,13.1126957 L18.442087,9.92382609 Z" id="Fill-15" fill="#1FC2EF" sketch:type="MSShapeGroup" mask="url(#mask-4)"></path>
            <path d="M19.6617391,9.60469565 L23.52,9.60469565 L23.52,13.4311304 L19.6617391,13.4311304 L19.6617391,9.60469565 Z M19.9827826,9.92382609 L20.2874783,9.92382609 L20.2874783,13.1126957 L19.9827826,13.1126957 L19.9827826,9.92382609 Z M20.5554783,9.92382609 L20.8721739,9.92382609 L20.8721739,13.1126957 L20.5554783,13.1126957 L20.5554783,9.92382609 Z M21.1405217,9.92382609 L21.4570435,9.92382609 L21.4570435,13.1126957 L21.1405217,13.1126957 L21.1405217,9.92382609 Z M21.7250435,9.92382609 L22.0415652,9.92382609 L22.0415652,13.1126957 L21.7250435,13.1126957 L21.7250435,9.92382609 Z M22.3088696,9.92382609 L22.625913,9.92382609 L22.625913,13.1126957 L22.3088696,13.1126957 L22.3088696,9.92382609 Z M22.893913,9.92382609 L23.1984348,9.92382609 L23.1984348,13.1126957 L22.893913,13.1126957 L22.893913,9.92382609 Z" id="Fill-16" fill="#00ACD3" sketch:type="MSShapeGroup" mask="url(#mask-4)"></path>
            <path d="M19.6617391,5.19026087 L23.52,5.19026087 L23.52,9.01652174 L19.6617391,9.01652174 L19.6617391,5.19026087 Z M19.9827826,5.50904348 L20.2874783,5.50904348 L20.2874783,8.69756522 L19.9827826,8.69756522 L19.9827826,5.50904348 Z M20.5554783,5.50904348 L20.8721739,5.50904348 L20.8721739,8.69756522 L20.5554783,8.69756522 L20.5554783,5.50904348 Z M21.1405217,5.50904348 L21.4570435,5.50904348 L21.4570435,8.69756522 L21.1405217,8.69756522 L21.1405217,5.50904348 Z M21.7250435,5.50904348 L22.0415652,5.50904348 L22.0415652,8.69756522 L21.7250435,8.69756522 L21.7250435,5.50904348 Z M22.3088696,5.50904348 L22.625913,5.50904348 L22.625913,8.69756522 L22.3088696,8.69756522 L22.3088696,5.50904348 Z M22.893913,5.50904348 L23.1984348,5.50904348 L23.1984348,8.69756522 L22.893913,8.69756522 L22.893913,5.50904348 Z" id="Fill-17" fill="#1FC2EF" sketch:type="MSShapeGroup" mask="url(#mask-4)"></path>
            <path d="M24.1133913,9.60469565 L27.9716522,9.60469565 L27.9716522,13.4311304 L24.1133913,13.4311304 L24.1133913,9.60469565 Z M24.4346087,9.92382609 L24.7394783,9.92382609 L24.7394783,13.1126957 L24.4346087,13.1126957 L24.4346087,9.92382609 Z M25.0074783,9.92382609 L25.3241739,9.92382609 L25.3241739,13.1126957 L25.0074783,13.1126957 L25.0074783,9.92382609 Z M25.592,9.92382609 L25.9085217,9.92382609 L25.9085217,13.1126957 L25.592,13.1126957 L25.592,9.92382609 Z M26.1766957,9.92382609 L26.4932174,9.92382609 L26.4932174,13.1126957 L26.1766957,13.1126957 L26.1766957,9.92382609 Z M26.7610435,9.92382609 L27.077913,9.92382609 L27.077913,13.1126957 L26.7610435,13.1126957 L26.7610435,9.92382609 Z M27.3455652,9.92382609 L27.6506087,9.92382609 L27.6506087,13.1126957 L27.3455652,13.1126957 L27.3455652,9.92382609 Z" id="Fill-18" fill="#1FC2EF" sketch:type="MSShapeGroup" mask="url(#mask-4)"></path>
            <path d="M24.1133913,5.19026087 L27.9716522,5.19026087 L27.9716522,9.01652174 L24.1133913,9.01652174 L24.1133913,5.19026087 Z M24.4346087,5.50904348 L24.7394783,5.50904348 L24.7394783,8.69756522 L24.4346087,8.69756522 L24.4346087,5.50904348 Z M25.0074783,5.50904348 L25.3241739,5.50904348 L25.3241739,8.69756522 L25.0074783,8.69756522 L25.0074783,5.50904348 Z M25.592,5.50904348 L25.9085217,5.50904348 L25.9085217,8.69756522 L25.592,8.69756522 L25.592,5.50904348 Z M26.1766957,5.50904348 L26.4932174,5.50904348 L26.4932174,8.69756522 L26.1766957,8.69756522 L26.1766957,5.50904348 Z M26.7610435,5.50904348 L27.077913,5.50904348 L27.077913,8.69756522 L26.7610435,8.69756522 L26.7610435,5.50904348 Z M27.3455652,5.50904348 L27.6506087,5.50904348 L27.6506087,8.69756522 L27.3455652,8.69756522 L27.3455652,5.50904348 Z" id="Fill-19" fill="#00ACD3" sketch:type="MSShapeGroup" mask="url(#mask-4)"></path>
            <path d="M24.1133913,0.775304348 L27.9716522,0.775304348 L27.9716522,4.60156522 L24.1133913,4.60156522 L24.1133913,0.775304348 Z M24.4346087,1.09373913 L24.7394783,1.09373913 L24.7394783,4.28278261 L24.4346087,4.28278261 L24.4346087,1.09373913 Z M25.0074783,1.09373913 L25.3241739,1.09373913 L25.3241739,4.28278261 L25.0074783,4.28278261 L25.0074783,1.09373913 Z M25.592,1.09373913 L25.9085217,1.09373913 L25.9085217,4.28278261 L25.592,4.28278261 L25.592,1.09373913 Z M26.1766957,1.09373913 L26.4932174,1.09373913 L26.4932174,4.28278261 L26.1766957,4.28278261 L26.1766957,1.09373913 Z M26.7610435,1.09373913 L27.077913,1.09373913 L27.077913,4.28278261 L26.7610435,4.28278261 L26.7610435,1.09373913 Z M27.3455652,1.09373913 L27.6506087,1.09373913 L27.6506087,4.28278261 L27.3455652,4.28278261 L27.3455652,1.09373913 Z" id="Fill-20" fill="#1FC2EF" sketch:type="MSShapeGroup" mask="url(#mask-4)"></path>
            <path d="M28.5650435,9.60469565 L32.4227826,9.60469565 L32.4227826,13.4311304 L28.5650435,13.4311304 L28.5650435,9.60469565 Z M28.8866087,9.92382609 L29.1907826,9.92382609 L29.1907826,13.1126957 L28.8866087,13.1126957 L28.8866087,9.92382609 Z M29.4591304,9.92382609 L29.7753043,9.92382609 L29.7753043,13.1126957 L29.4591304,13.1126957 L29.4591304,9.92382609 Z M30.0434783,9.92382609 L30.3601739,9.92382609 L30.3601739,13.1126957 L30.0434783,13.1126957 L30.0434783,9.92382609 Z M30.6276522,9.92382609 L30.9443478,9.92382609 L30.9443478,13.1126957 L30.6276522,13.1126957 L30.6276522,9.92382609 Z M31.2126957,9.92382609 L31.5292174,9.92382609 L31.5292174,13.1126957 L31.2126957,13.1126957 L31.2126957,9.92382609 Z M31.7972174,9.92382609 L32.1017391,9.92382609 L32.1017391,13.1126957 L31.7972174,13.1126957 L31.7972174,9.92382609 Z" id="Fill-21" fill="#00ACD3" sketch:type="MSShapeGroup" mask="url(#mask-4)"></path>
            <path d="M18.8268522,19.6350261 C19.4146783,19.6350261 19.8915478,20.1075478 19.8915478,20.6899826 C19.8915478,21.2736348 19.4146783,21.7458087 18.8268522,21.7458087 C18.2386783,21.7458087 17.7625043,21.2736348 17.7625043,20.6899826 C17.7625043,20.1075478 18.2386783,19.6350261 18.8268522,19.6350261" id="Fill-22" fill="#D4EDF1" sketch:type="MSShapeGroup" mask="url(#mask-4)"></path>
            <path d="M18.8268522,19.9335826 C18.9240696,19.9335826 19.0167652,19.9525391 19.1023304,19.9852348 C19.0098087,20.0384522 18.9470261,20.1384522 18.9470261,20.2523652 C18.9470261,20.4228 19.0861565,20.560713 19.2581565,20.560713 C19.3758957,20.560713 19.4781565,20.4963652 19.5306783,20.4001913 C19.5682435,20.4895826 19.5885913,20.5871478 19.5885913,20.6901043 C19.5885913,21.1076696 19.2475478,21.4464522 18.8268522,21.4464522 C18.4058087,21.4464522 18.0642435,21.1076696 18.0642435,20.6901043 C18.0642435,20.272887 18.4058087,19.9335826 18.8268522,19.9335826" id="Fill-23" fill="#394D54" sketch:type="MSShapeGroup" mask="url(#mask-4)"></path>
            <path d="M0,17.4471826 L23.3154783,17.4471826 L26.1987826,17.4471826 L49.5135652,17.4471826 C48.4349565,17.1757043 46.102087,16.8097913 46.4871304,15.4084 C44.5267826,17.658313 39.7987826,16.9866609 38.6057391,15.8776174 C37.2775652,17.7887478 29.5424348,17.0621391 29.0033043,15.5732696 C27.3377391,17.5118783 22.1761739,17.5118783 20.510087,15.5732696 C19.9704348,17.0621391 12.2363478,17.7887478 10.9076522,15.8776174 C9.71408696,16.9866609 4.98678261,17.658313 3.0266087,15.4084 C3.41113043,16.8097913 1.07826087,17.1757043 0,17.4471826" id="Fill-24" fill="#394D54" sketch:type="MSShapeGroup" mask="url(#mask-4)"></path>
            <path d="M21.6563478,27.2413391 C19.0203478,26.0006435 17.5732174,24.3150783 16.768,22.473687 C15.7890435,22.7509043 14.6121739,22.9277739 13.2445217,23.0041217 C12.7290435,23.0331652 12.1876522,23.0470783 11.6189565,23.0470783 C10.9631304,23.0470783 10.2723478,23.0276 9.54747826,22.9898609 C11.9646957,25.3858609 14.938087,27.2303826 20.4445217,27.2637739 C20.8506087,27.2637739 21.2547826,27.2564696 21.6563478,27.2413391" id="Fill-25" fill="#BFDBE0" sketch:type="MSShapeGroup" mask="url(#mask-4)"></path>
            <path d="M17.747287,24.1722087 C17.3824174,23.6814261 17.0290261,23.0643826 16.7688522,22.4736 C15.7890261,22.7508174 14.6121565,22.9278609 13.2445043,23.0040348 C14.1836348,23.5097739 15.5276348,23.9781217 17.747287,24.1722087" id="Fill-26" fill="#D4EDF1" sketch:type="MSShapeGroup" mask="url(#mask-4)"></path>
            <path d="M61.6276348,12.3819652 L61.6276348,8.0844 C61.6276348,7.51970435 61.983287,7.06544348 62.5728522,7.06544348 L62.7359826,7.06544348 C63.3255478,7.06544348 63.6798087,7.51970435 63.6798087,8.0844 L63.6798087,17.1322261 C63.6798087,19.338313 62.5805043,21.0939652 60.6655478,22.2127478 C59.7772,22.7301391 58.7956348,22.9964 57.7658957,22.9964 L57.359113,22.9964 C55.1344174,22.9964 53.3662435,21.9056174 52.2372,20.0071826 C51.7126783,19.1259652 51.4462435,18.1539652 51.4462435,17.1322261 L51.4462435,16.7284 C51.4462435,14.5219652 52.5455478,12.7675304 54.4598087,11.6468348 C55.3486783,11.126487 56.3286783,10.862313 57.359113,10.862313 L57.7658957,10.862313 C59.2719826,10.862313 60.5502435,11.4410957 61.6276348,12.3819652 L61.6276348,12.3819652 Z M53.4980696,16.9301391 C53.4980696,18.5244 54.2772,19.7216174 55.6858957,20.4866609 C56.2549391,20.7950087 56.8732,20.9609217 57.523113,20.9609217 C59.1003304,20.9609217 60.2702435,20.2233565 61.0773739,18.8972696 C61.4523304,18.2807478 61.6276348,17.6059652 61.6276348,16.8885739 C61.6276348,15.5071826 60.9678087,14.4290957 59.8452,13.6287478 C59.1650261,13.142487 58.3985913,12.8993565 57.5629391,12.8993565 C55.8434609,12.8993565 54.6060696,13.7604 53.863113,15.2911826 C53.6126783,15.8082261 53.4980696,16.3572696 53.4980696,16.9301391 L53.4980696,16.9301391 Z M70.7994609,10.862313 L71.0841565,10.862313 C73.4620696,10.862313 75.2700696,12.006487 76.4161565,14.0650957 C76.8744174,14.8884 77.1194609,15.7871826 77.1194609,16.7284 L77.1194609,17.1322261 C77.1194609,19.338313 76.0225913,21.0967478 74.1048522,22.2127478 C73.2163304,22.7290957 72.2349391,22.9964 71.2058957,22.9964 L70.7994609,22.9964 C68.5744174,22.9964 66.8062435,21.9056174 65.6768522,20.0071826 C65.1528522,19.1259652 64.8858957,18.1539652 64.8858957,17.1322261 L64.8858957,16.7284 C64.8858957,14.5219652 65.9900696,12.7725739 67.8982435,11.6471826 C68.7862435,11.1242261 69.7681565,10.862313 70.7994609,10.862313 L70.7994609,10.862313 Z M66.9375478,16.9301391 C66.9375478,18.4770957 67.7038087,19.6150087 69.0218957,20.4150087 C69.6396348,20.7911826 70.3210261,20.9609217 71.0445043,20.9609217 C72.5853739,20.9609217 73.7245043,20.1861391 74.5180696,18.8955304 C74.8961565,18.2807478 75.0669391,17.6049217 75.0669391,16.8885739 C75.0669391,15.4496174 74.3686783,14.3515304 73.1740696,13.5548348 C72.5196348,13.1179652 71.791113,12.8993565 71.0027652,12.8993565 C69.283287,12.8993565 68.0458957,13.7604 67.3038087,15.2911826 C67.0521565,15.8082261 66.9375478,16.3572696 66.9375478,16.9301391 L66.9375478,16.9301391 Z M85.6505913,13.0616174 C85.3415478,12.9179652 84.7613739,12.870313 84.4265913,12.8576174 C82.7119826,12.7934435 81.4714609,13.7511826 80.743113,15.2510087 C80.4921565,15.7682261 80.3780696,16.3162261 80.3780696,16.8885739 C80.3780696,18.6322261 81.3003304,19.8525739 82.8700696,20.5965739 C83.4429391,20.8677043 84.1825913,20.9195304 84.8090261,20.9195304 C85.3601565,20.9195304 86.1389391,20.5850957 86.6278087,20.3546609 L86.7123304,20.3151826 L87.0914609,20.3151826 L87.1333739,20.3231826 C87.6008522,20.4198783 87.9526783,20.7130957 87.9526783,21.2108348 L87.9526783,21.4127478 C87.9526783,22.6513565 85.6688522,22.9358783 84.7975478,22.9953565 C81.7227652,23.2066609 79.423287,21.5318783 78.5460696,18.6235304 C78.3935478,18.1179652 78.3253739,17.6165739 78.3253739,17.090487 L78.3253739,16.6871826 C78.3253739,14.4804 79.4290261,12.7320522 81.3382435,11.6078783 C82.2267652,11.0849217 83.2078087,10.822487 84.2389391,10.822487 L84.6455478,10.822487 C85.739287,10.822487 86.747113,11.130487 87.6500696,11.742313 L87.7248522,11.7930957 L87.7707652,11.8694435 C87.8685043,12.0299652 87.9526783,12.2155304 87.9526783,12.406487 L87.9526783,12.6078783 C87.9526783,13.1275304 87.5605043,13.406487 87.0874609,13.4969217 L87.0485043,13.5033565 L86.9274609,13.5033565 C86.6208522,13.5033565 85.9248522,13.1896174 85.6505913,13.0616174 L85.6505913,13.0616174 Z M92.3083304,14.4400522 C93.1050261,13.6482261 93.9055478,12.858487 94.7145913,12.0797043 C94.9396348,11.8626609 95.7933739,10.9431826 96.1292,10.9431826 L96.4973739,10.9431826 L96.5385913,10.9518783 C97.007113,11.0482261 97.3582435,11.3421391 97.3582435,11.8409217 L97.3582435,12.0430087 C97.3582435,12.3830087 96.9559826,12.7786609 96.7344174,13.0115304 C96.2625913,13.5071826 95.7664174,13.986487 95.2838087,14.4722261 L92.8048522,16.9678783 C93.8716348,18.0292696 94.9382435,19.0911826 95.9975478,20.1605739 C96.2902435,20.4560522 96.583287,20.7525739 96.8719826,21.0524 C96.9733739,21.158313 97.1245043,21.2911826 97.2098957,21.4381391 C97.3015478,21.5767478 97.3582435,21.7327478 97.3582435,21.8991826 L97.3582435,22.1085739 L97.3458957,22.1572696 C97.2305913,22.6216174 96.9333739,22.9964 96.4144174,22.9964 L96.251287,22.9964 C95.9118087,22.9964 95.5283304,22.6150087 95.2959826,22.3977913 C94.8168522,21.9496174 94.3535478,21.4781391 93.883287,21.0207478 L92.3083304,19.4868348 L92.3083304,21.9386609 C92.3083304,22.502487 91.9516348,22.9564 91.3627652,22.9564 L91.2006783,22.9564 C90.6116348,22.9564 90.2561565,22.502487 90.2561565,21.9386609 L90.2561565,8.12387826 C90.2561565,7.55883478 90.6116348,7.10666087 91.2006783,7.10666087 L91.3627652,7.10666087 C91.9516348,7.10666087 92.3083304,7.55883478 92.3083304,8.12387826 L92.3083304,14.4400522 Z M117.886591,10.9431826 L118.09007,10.9431826 C118.705548,10.9431826 119.116678,11.3548348 119.116678,11.9617913 C119.116678,12.8045739 118.304678,13.0202261 117.602243,13.0202261 C116.679809,13.0202261 115.800504,13.5732696 115.164504,14.1934435 C114.372157,14.9687478 114.025548,15.9600522 114.025548,17.0511826 L114.025548,21.9779652 C114.025548,22.5433565 113.669548,22.9964 113.080678,22.9964 L112.918939,22.9964 C112.328678,22.9964 111.973026,22.5433565 111.973026,21.9779652 L111.973026,16.7682261 C111.973026,14.7673565 112.955113,13.1348348 114.59233,11.9885739 C115.570591,11.3042261 116.6892,10.9431826 117.886591,10.9431826 L117.886591,10.9431826 Z M103.300157,20.7077043 C104.046591,20.966487 104.898417,20.9296174 105.664678,20.7972696 C106.056157,20.6320522 107.058939,20.198487 107.427461,20.2616174 L107.485548,20.2715304 L107.537896,20.2972696 C107.762765,20.4057913 107.977896,20.5588348 108.092852,20.7856174 C108.36207,21.318313 108.232504,21.8534435 107.7052,22.1551826 L107.529548,22.2565739 C105.582765,23.3710087 103.51233,23.2164 101.571635,22.1757043 C100.643809,21.678313 99.9344174,20.9395304 99.4105913,20.0391826 L99.2881565,19.8290957 C98.0382435,17.6831826 98.207113,15.4250957 99.6166783,13.3840522 C100.102939,12.6786609 100.738765,12.1332696 101.48207,11.7071826 L101.763635,11.5461391 C103.597374,10.4965739 105.56207,10.5682261 107.4452,11.4894435 C108.457374,11.9849217 109.277026,12.7235304 109.84207,13.6941391 L109.944157,13.8685739 C110.354765,14.5750087 109.822765,15.1896174 109.273722,15.6101391 C108.63633,16.0969217 107.9932,16.6838783 107.382417,17.206487 C106.020678,18.3724 104.661548,19.5410957 103.300157,20.7077043 L103.300157,20.7077043 Z M101.537548,19.4802261 C103.0612,18.1849217 104.584157,16.8889217 106.102765,15.5882261 C106.621896,15.1445739 107.190939,14.6844 107.706591,14.2169217 C107.293026,13.7012696 106.602765,13.3284 106.016157,13.1066609 C104.832504,12.6595304 103.665548,12.8101391 102.579809,13.4311826 C101.159113,14.2444 100.553026,15.5405739 100.606243,17.1530957 C100.627809,17.7877043 100.799635,18.3995304 101.139809,18.9400522 C101.259287,19.1306609 101.393374,19.3096174 101.537548,19.4802261 L101.537548,19.4802261 Z" id="Fill-27" fill="#394D54" sketch:type="MSShapeGroup" mask="url(#mask-4)"></path>
        </g>
    </g>
</svg>