<?xml version="1.0" encoding="UTF-8" standalone="no"?>
<svg width="116px" height="42px" viewBox="0 0 116 42" version="1.1" xmlns="http://www.w3.org/2000/svg" xmlns:xlink="http://www.w3.org/1999/xlink" xmlns:sketch="http://www.bohemiancoding.com/sketch/ns">
    <!-- Generator: Sketch Beta 3.4 (14718) - http://www.bohemiancoding.com/sketch -->
    <title>logo - freeBSD</title>
    <desc>Created with Sketch Beta.</desc>
    <defs>
        <path id="path-1" d="M0,0.0723037975 L115.037468,0.0723037975 L115.037468,42 L0,42"></path>
    </defs>
    <g id="Page-1" stroke="none" stroke-width="1" fill="none" fill-rule="evenodd" sketch:type="MSPage">
        <g id="logo---freeBSD" sketch:type="MSLayerGroup">
            <path d="M77.1465038,22.2849873 C77.1465038,22.5816456 76.9067316,22.8208861 76.6100734,22.8208861 L69.3775671,22.8208861 C69.0809089,22.8208861 68.8406051,22.5816456 68.8406051,22.2849873 C68.8406051,21.9883291 69.0809089,21.7480253 69.3775671,21.7480253 L76.6100734,21.7480253 C76.9067316,21.7480253 77.1465038,21.9883291 77.1465038,22.2849873" id="Fill-1" fill="#000000" sketch:type="MSShapeGroup"></path>
            <path d="M75.7187165,25.2759722 C75.7187165,25.5705038 75.4810709,25.8081494 75.1870709,25.8081494 C74.8930709,25.8081494 74.6548937,25.5705038 74.6548937,25.2759722 C74.6548937,24.9825038 74.8930709,24.7443266 75.1870709,24.7443266 C75.4810709,24.7443266 75.7187165,24.9825038 75.7187165,25.2759722" id="Fill-3" fill="#000000" sketch:type="MSShapeGroup"></path>
            <path d="M70.2257544,21.7465899 C69.9317544,21.7465899 69.6941089,21.507881 69.6941089,21.2144127 C69.6941089,21.1867671 69.6962354,21.1596532 69.7010203,21.1330709 L68.9035519,21.1330709 L68.9035519,22.1400076 L70.2321342,22.1400076 L70.2321342,21.7460582 C70.2300076,21.7460582 70.227881,21.7465899 70.2257544,21.7465899" id="Fill-5" fill="#000000" sketch:type="MSShapeGroup"></path>
            <path d="M69.6941089,23.3212709 C69.6941089,23.0272709 69.9317544,22.7890937 70.2257544,22.7890937 C70.227881,22.7890937 70.2300076,22.7896253 70.2321342,22.7896253 L70.2321342,22.4153468 L68.9035519,22.4153468 L68.9035519,23.4228152 L69.7036785,23.4228152 C69.6972987,23.3903848 69.6941089,23.3558278 69.6941089,23.3212709" id="Fill-7" fill="#000000" sketch:type="MSShapeGroup"></path>
            <path d="M75.839719,20.9953215 C75.8705544,21.0623089 75.8870354,21.1362076 75.8870354,21.2143595 C75.8870354,21.5078278 75.6493899,21.7465367 75.3553899,21.7465367 C75.3420987,21.7465367 75.3293392,21.7449418 75.3160481,21.7438785 L75.3160481,22.2776506 L76.5069342,22.2776506 L76.5069342,20.9953215 L75.839719,20.9953215 Z" id="Fill-9" fill="#000000" sketch:type="MSShapeGroup"></path>
            <path d="M72.7718582,17.9274608 C70.3597823,17.9274608 68.4049215,19.8828532 68.4049215,22.2949291 C68.4049215,24.7070051 70.3597823,26.6623975 72.7718582,26.6623975 C73.8409975,26.6623975 74.8192253,26.2780177 75.5784152,25.6411063 L74.8123139,24.8867013 C74.2508962,25.329562 73.5422127,25.5937899 72.7718582,25.5937899 C70.9504405,25.5937899 69.4735291,24.1168785 69.4735291,22.2949291 C69.4735291,20.4729797 70.9504405,18.9966 72.7718582,18.9966 C74.5943392,18.9966 76.070719,20.4729797 76.070719,22.2949291 L76.070719,22.323638 L77.1393266,22.323638 C77.1393266,22.3140684 77.1403899,22.3044987 77.1403899,22.2949291 C77.1403899,19.8828532 75.1844658,17.9274608 72.7718582,17.9274608" id="Fill-11" fill="#000000" sketch:type="MSShapeGroup"></path>
            <path d="M87.1636633,22.2849873 C87.1636633,22.5816456 86.9238911,22.8208861 86.6272329,22.8208861 L79.3947266,22.8208861 C79.0980684,22.8208861 78.8582962,22.5816456 78.8582962,22.2849873 C78.8582962,21.9883291 79.0980684,21.7480253 79.3947266,21.7480253 L86.6272329,21.7480253 C86.9238911,21.7480253 87.1636633,21.9883291 87.1636633,22.2849873" id="Fill-13" fill="#000000" sketch:type="MSShapeGroup"></path>
            <path d="M85.7358759,25.2759722 C85.7358759,25.5705038 85.4982304,25.8081494 85.2042304,25.8081494 C84.9102304,25.8081494 84.6720532,25.5705038 84.6720532,25.2759722 C84.6720532,24.9825038 84.9102304,24.7443266 85.2042304,24.7443266 C85.4982304,24.7443266 85.7358759,24.9825038 85.7358759,25.2759722" id="Fill-15" fill="#000000" sketch:type="MSShapeGroup"></path>
            <path d="M80.2429139,21.7465899 C79.9489139,21.7465899 79.7112684,21.507881 79.7112684,21.2144127 C79.7112684,21.1867671 79.7144582,21.1596532 79.7181797,21.1330709 L78.9207114,21.1330709 L78.9207114,22.1400076 L80.2492937,22.1400076 L80.2492937,21.7460582 C80.2466354,21.7460582 80.2450405,21.7465899 80.2429139,21.7465899" id="Fill-17" fill="#000000" sketch:type="MSShapeGroup"></path>
            <path d="M79.7112684,23.3212709 C79.7112684,23.0272709 79.9489139,22.7890937 80.2429139,22.7890937 C80.2450405,22.7890937 80.2466354,22.7896253 80.2492937,22.7896253 L80.2492937,22.4153468 L78.9207114,22.4153468 L78.9207114,23.4228152 L79.720838,23.4228152 C79.7144582,23.3903848 79.7112684,23.3558278 79.7112684,23.3212709" id="Fill-19" fill="#000000" sketch:type="MSShapeGroup"></path>
            <path d="M85.8568785,20.9953215 C85.8871823,21.0623089 85.9047266,21.1362076 85.9047266,21.2143595 C85.9047266,21.5078278 85.6665494,21.7465367 85.3725494,21.7465367 C85.3587266,21.7465367 85.3464987,21.7449418 85.3332076,21.7438785 L85.3332076,22.2776506 L86.5240937,22.2776506 L86.5240937,20.9953215 L85.8568785,20.9953215 Z" id="Fill-21" fill="#000000" sketch:type="MSShapeGroup"></path>
            <path d="M82.7890177,17.9274608 C80.3774734,17.9274608 78.4215494,19.8828532 78.4215494,22.2949291 C78.4215494,24.7070051 80.3774734,26.6623975 82.7890177,26.6623975 C83.8586886,26.6623975 84.8374481,26.2780177 85.5955747,25.6411063 L84.8294734,24.8867013 C84.2680557,25.329562 83.5593722,25.5937899 82.7890177,25.5937899 C80.9676,25.5937899 79.4912203,24.1168785 79.4912203,22.2949291 C79.4912203,20.4729797 80.9676,18.9966 82.7890177,18.9966 C84.6114987,18.9966 86.0884101,20.4729797 86.0884101,22.2949291 C86.0884101,22.3044987 86.0878785,22.3140684 86.0878785,22.323638 L87.1564861,22.323638 C87.1564861,22.3140684 87.1570177,22.3044987 87.1570177,22.2949291 C87.1570177,19.8828532 85.2016253,17.9274608 82.7890177,17.9274608" id="Fill-23" fill="#000000" sketch:type="MSShapeGroup"></path>
            <path d="M64.7421494,18.9346633 C64.7432127,18.9389165 64.7453392,18.9442329 64.7474658,18.9484861 C63.7128835,19.1398785 62.929238,20.0458025 62.929238,21.1356759 C62.929238,21.176081 62.9303013,21.2154228 62.9324278,21.2558278 L62.9324278,26.1129418 C62.9324278,26.4159797 62.6862759,26.6621316 62.383238,26.6621316 C62.0791367,26.6621316 61.8329848,26.4159797 61.8329848,26.1129418 L61.8329848,20.9628911 C61.9440987,19.3727392 63.1828329,18.0930684 64.7543772,17.9186886 C64.9776684,17.9792962 65.1414152,18.1829165 65.1414152,18.4248152 C65.1414152,18.6714987 64.9712886,18.8777772 64.7421494,18.9346633" id="Fill-25" fill="#000000" sketch:type="MSShapeGroup"></path>
            <path d="M67.841643,19.5223975 C67.841643,19.8163975 67.6034658,20.0545747 67.3099975,20.0545747 C67.0159975,20.0545747 66.7783519,19.8163975 66.7783519,19.5223975 C66.7783519,19.2289291 67.0159975,18.9907519 67.3099975,18.9907519 C67.6034658,18.9907519 67.841643,19.2289291 67.841643,19.5223975" id="Fill-27" fill="#000000" sketch:type="MSShapeGroup"></path>
            <path d="M66.9797924,19.9694051 C67.1780962,19.6552025 67.4146785,19.3675823 67.6847544,19.1139873 C67.0802734,18.3622405 66.1525519,17.8805696 65.1131848,17.8805696 C63.3587544,17.8805696 61.9243747,19.2506203 61.8207038,20.9784684 L62.8972861,20.9784684 C62.9998937,19.8439367 63.9520709,18.9544937 65.1131848,18.9544937 C65.8957671,18.9544937 66.5831848,19.3590759 66.9797924,19.9694051" id="Fill-29" fill="#000000" sketch:type="MSShapeGroup"></path>
            <path d="M102.304663,26.6191215 C103.901195,26.4357038 105.386613,24.8944633 105.12717,23.2506152 C105.018182,22.5552228 104.562562,21.8385646 103.808689,21.3393494 C103.219094,20.9496532 100.339701,19.5881089 99.834638,19.2382861 C99.524157,19.0011722 98.9170177,18.3509696 98.8723595,17.9320329 C98.7506127,16.8028177 99.3673215,16.3200835 99.9914734,16.0308684 C100.249322,15.9096532 100.5816,15.8649949 100.718765,15.8495772 C101.8836,15.7129443 102.262132,15.9250709 103.328081,16.4306658 C103.438132,16.4827671 103.547119,16.4848937 103.665144,16.4662861 C104.023473,16.4104633 104.270689,16.2530962 104.214866,15.8947671 C104.172334,15.6289443 104.024537,15.5071975 103.747018,15.3695013 C103.003777,15.0016025 101.610334,14.5614 100.435929,14.745881 C100.416258,14.7490709 100.397651,14.7533241 100.37798,14.7565139 L100.375322,14.7395013 C98.7468911,15.0106405 97.4560557,16.4838304 97.7128405,18.1181089 C97.8516,18.9963873 98.5273215,19.7321848 99.2179291,20.181957 C99.6804608,20.5695266 101.353018,21.2415266 103.006967,22.1586152 C103.594435,22.4845139 103.830486,22.8056278 103.916613,23.5334506 C104.005929,24.288919 103.131372,25.1464633 102.447144,25.406438 C101.383853,25.7185139 100.134486,25.2761848 99.3019291,24.8354506 C99.053119,24.6738304 98.9393468,24.5882354 98.7102076,24.6243873 C98.3518785,24.6802101 98.1073215,25.0167418 98.1636759,25.3750709 C98.2014228,25.6132481 98.3385873,25.7807165 98.5719797,25.8833241 C100.052613,26.5356532 101.051043,26.7626658 102.304663,26.6191215" id="Fill-31" fill="#000000" sketch:type="MSShapeGroup"></path>
            <path d="M56.6599671,17.5608911 C56.6647519,17.5630177 56.6700684,17.5651443 56.6748532,17.5667392 C56.8742203,16.4869671 57.8205494,15.6687646 58.9572076,15.6687646 C58.9997392,15.6687646 59.0417392,15.6703595 59.0832076,15.6724861 L61.4112835,15.6724861 C61.7276127,15.6724861 61.9849291,15.4157013 61.9849291,15.0988405 C61.9849291,14.7819797 61.7276127,14.5251949 61.4112835,14.5251949 L58.7775114,14.5251949 C57.1171823,14.6416253 55.7822203,15.9340557 55.5998658,17.5752456 C55.6636633,17.8075747 55.8752582,17.9777013 56.1277899,17.9777013 C56.385638,17.9777013 56.6014861,17.8001316 56.6599671,17.5608911" id="Fill-33" fill="#000000" sketch:type="MSShapeGroup"></path>
            <path d="M55.9689342,20.7403975 C55.9689342,21.0519418 56.2214658,21.3044734 56.5330101,21.3044734 L60.1173646,21.3044734 C60.4289089,21.3044734 60.6809089,21.0519418 60.6809089,20.7403975 C60.6809089,20.4293848 60.4289089,20.1768532 60.1173646,20.1768532 L56.5330101,20.1768532 C56.2214658,20.1768532 55.9689342,20.4293848 55.9689342,20.7403975" id="Fill-35" fill="#000000" sketch:type="MSShapeGroup"></path>
            <path d="M58.1526152,15.0916633 C58.1526152,15.3978911 58.4327924,15.6467013 58.7788937,15.6467013 L59.2727924,15.6467013 C59.6188937,15.6467013 59.8996025,15.3978911 59.8996025,15.0916633 C59.8996025,14.7843722 59.6188937,14.535562 59.2727924,14.535562 L58.7788937,14.535562 C58.4327924,14.535562 58.1526152,14.7843722 58.1526152,15.0916633" id="Fill-37" fill="#000000" sketch:type="MSShapeGroup"></path>
            <path d="M56.1735114,16.5261494 C56.4903722,16.5261494 56.747157,16.712757 56.747157,16.9418962 L56.747157,26.1760481 C56.747157,26.405719 56.4903722,26.5917949 56.1735114,26.5917949 C55.8566506,26.5917949 55.5998658,26.405719 55.5998658,26.1760481 L55.5998658,17.4825797 C55.5998658,17.2529089 55.8566506,16.5261494 56.1735114,16.5261494" id="Fill-39" fill="#000000" sketch:type="MSShapeGroup"></path>
            <path d="M56.8136658,22.1245367 C56.8136658,21.9825873 56.8492861,21.8496759 56.9125519,21.7343089 C57.051843,21.4785873 57.321919,21.3047392 57.6334633,21.3047392 L57.9035392,21.3047392 L57.9035392,20.4796253 L55.9109316,20.4796253 L55.9109316,22.2877519 L56.8136658,22.2877519 L56.8136658,22.1245367 Z" id="Fill-41" fill="#000000" sketch:type="MSShapeGroup"></path>
            <path d="M56.8136658,19.3521114 C56.8136658,19.4935291 56.8492861,19.6264405 56.9125519,19.7423392 C57.051843,19.9985924 57.321919,20.1719089 57.6334633,20.1719089 L57.9035392,20.1719089 L57.9035392,20.9970228 L55.9109316,20.9970228 L55.9109316,19.1888962 L56.8136658,19.1888962 L56.8136658,19.3521114 Z" id="Fill-43" fill="#000000" sketch:type="MSShapeGroup"></path>
            <path d="M56.7160557,17.8241089 C56.7660304,16.6954253 57.6363342,15.7799316 58.7453468,15.660843 L58.7453468,14.5406658 C57.0196253,14.6650709 55.6511696,16.0792481 55.5996,17.8241089 L56.7160557,17.8241089 Z" id="Fill-45" fill="#000000" sketch:type="MSShapeGroup"></path>
            <path d="M89.0924203,26.1186304 C89.0924203,25.8198456 89.3662177,25.5763519 89.703281,25.5763519 L94.6603443,25.5763519 C94.9974076,25.5763519 95.2712051,25.8198456 95.2712051,26.1186304 C95.2712051,26.4174152 94.9974076,26.6603772 94.6603443,26.6603772 L89.703281,26.6603772 C89.3662177,26.6603772 89.0924203,26.4174152 89.0924203,26.1186304" id="Fill-47" fill="#000000" sketch:type="MSShapeGroup"></path>
            <path d="M89.5508582,26.6284785 C89.2515418,26.6284785 89.0091114,26.3552127 89.0091114,26.0181494 L89.0091114,17.7872127 C89.0091114,17.4496177 89.2515418,17.1763519 89.5508582,17.1763519 C89.8501747,17.1763519 90.0931367,17.4496177 90.0931367,17.7872127 L90.0931367,26.0181494 C90.0931367,26.3552127 89.8501747,26.6284785 89.5508582,26.6284785" id="Fill-49" fill="#000000" sketch:type="MSShapeGroup"></path>
            <path d="M94.3761797,19.7653595 L94.3761797,20.8254608 C95.6702051,20.8456633 96.7132937,21.9004481 96.7132937,23.1992582 C96.7132937,24.4980684 95.6702051,25.5528532 94.3761797,25.5730557 L94.3761797,26.6948278 C96.2858506,26.690043 97.8324076,25.1408278 97.8324076,23.2306253 C97.8324076,21.3198911 96.2858506,19.7701443 94.3761797,19.7653595" id="Fill-51" fill="#000000" sketch:type="MSShapeGroup"></path>
            <path d="M89.2943924,20.2590987 C89.2943924,20.5626684 89.5405443,20.8082886 89.8435823,20.8082886 L94.3024937,20.8082886 C94.6055316,20.8082886 94.8516835,20.5626684 94.8516835,20.2590987 C94.8516835,19.9560608 94.6055316,19.7099089 94.3024937,19.7099089 L89.8435823,19.7099089 C89.5405443,19.7099089 89.2943924,19.9560608 89.2943924,20.2590987" id="Fill-53" fill="#000000" sketch:type="MSShapeGroup"></path>
            <path d="M91.6712203,15.0770962 C91.6712203,15.375881 91.8232709,15.618843 92.0109418,15.618843 L93.3793975,15.618843 C93.5660051,15.618843 93.7180557,15.375881 93.7180557,15.0770962 C93.7180557,14.7783114 93.5660051,14.5353494 93.3793975,14.5353494 L92.0109418,14.5353494 C91.8232709,14.5353494 91.6712203,14.7783114 91.6712203,15.0770962" id="Fill-55" fill="#000000" sketch:type="MSShapeGroup"></path>
            <path d="M90.1178051,21.4688051 C90.1178051,21.3311089 90.1528937,21.2013873 90.2145646,21.0881468 C90.3496025,20.8388051 90.614362,20.6697418 90.9174,20.6697418 L91.1805646,20.6697418 L91.1805646,19.865362 L89.2374,19.865362 L89.2374,21.6277671 L90.1178051,21.6277671 L90.1178051,21.4688051 Z" id="Fill-57" fill="#000000" sketch:type="MSShapeGroup"></path>
            <path d="M90.1178051,18.9517823 C90.1178051,19.0900101 90.1528937,19.2197316 90.2145646,19.3329722 C90.3496025,19.5823139 90.614362,19.7513772 90.9174,19.7513772 L91.1805646,19.7513772 L91.1805646,20.555757 L89.2374,20.555757 L89.2374,18.7933519 L90.1178051,18.7933519 L90.1178051,18.9517823 Z" id="Fill-59" fill="#000000" sketch:type="MSShapeGroup"></path>
            <path d="M93.2568,14.5330101 L93.2568,15.5638709 C94.4168506,15.5681241 95.3557367,16.5096684 95.3557367,17.6707823 C95.3557367,18.8318962 94.4168506,19.7729089 93.2568,19.7776937 L93.2568,20.8090861 C94.986243,20.8048329 96.3876608,19.4012886 96.3876608,17.6707823 C96.3876608,15.9397443 94.986243,14.5367316 93.2568,14.5330101" id="Fill-61" fill="#000000" sketch:type="MSShapeGroup"></path>
            <path d="M93.101081,14.5947873 L93.101081,15.6054456 C94.2616633,15.6102304 95.2005494,16.5331671 95.2005494,17.6708886 C95.2005494,18.8091418 94.2616633,19.7315468 93.101081,19.7358 L93.101081,20.7464582 C94.8310557,20.7427367 96.2319418,19.3673696 96.2319418,17.6708886 C96.2319418,15.9744076 94.8310557,14.5990405 93.101081,14.5947873" id="Fill-63" fill="#000000" sketch:type="MSShapeGroup"></path>
            <path d="M90.0814937,17.7420759 C90.1298734,16.6415696 90.9783797,15.7489367 92.0608101,15.6325063 L92.0608101,14.541038 C90.3776203,14.6611899 89.0431899,16.0402785 88.9926835,17.7420759 L90.0814937,17.7420759 Z" id="Fill-65" fill="#000000" sketch:type="MSShapeGroup"></path>
            <path d="M106.320554,26.0215519 C106.320554,25.7450962 106.507694,25.5207418 106.738959,25.5207418 L110.133516,25.5207418 C110.364782,25.5207418 110.551922,25.7450962 110.551922,26.0215519 C110.551922,26.2985392 109.427491,26.5228937 109.196225,26.5228937 L106.738959,26.5228937 C106.507694,26.5228937 106.320554,26.2985392 106.320554,26.0215519" id="Fill-67" fill="#000000" sketch:type="MSShapeGroup"></path>
            <path d="M107.294529,24.7401797 C107.294529,24.8778759 107.329618,25.0075975 107.391289,25.1213696 C107.526327,25.3701797 107.790023,25.539243 108.093592,25.539243 L108.356757,25.539243 L108.356757,26.3441544 L106.414124,26.3441544 L106.414124,24.5812177 L107.294529,24.5812177 L107.294529,24.7401797 Z" id="Fill-69" fill="#000000" sketch:type="MSShapeGroup"></path>
            <g id="Group-73">
                <mask id="mask-2" sketch:name="Clip 72" fill="white">
                    <use xlink:href="#path-1"></use>
                </mask>
                <g id="Clip-72"></g>
                <path d="M109.319886,14.7863924 C109.267253,14.779481 109.224722,14.7757595 109.196544,14.7757595 L108.109861,14.7757595 L108.110392,14.7821392 L108.082747,14.7821392 C107.100797,14.7821392 106.294823,15.5322911 106.206038,16.4913797 L106.206038,25.9121392 C106.206038,26.2497342 106.449,26.523 106.747785,26.523 C107.047101,26.523 107.289532,26.2497342 107.289532,25.9121392 L107.289532,16.552519 C107.290595,16.4169494 107.325152,16.2898861 107.385759,16.1782405 C107.494747,15.9778101 107.687203,15.829481 107.916342,15.7789747 L109.71543,15.7789747 C112.168443,16.0873291 114.065354,18.1527722 114.065354,20.6546962 C114.065354,23.3240886 111.907405,25.4958608 109.218873,25.5686962 L109.218873,26.5272532 C112.444899,26.4538861 115.037734,23.8530759 115.037734,20.6546962 C115.037734,17.4908734 112.499127,14.9113291 109.319886,14.7863924" id="Fill-71" fill="#000000" sketch:type="MSShapeGroup" mask="url(#mask-2)"></path>
            </g>
            <path d="M0.579174684,0.699858228 C-1.94773671,3.22676962 4.54525063,13.817681 5.66223797,14.9341367 C6.77922532,16.0521873 9.73357975,14.9091494 12.2604911,12.3817063 C14.7879342,9.85426329 15.9315038,6.89937722 14.8139848,5.78292152 C13.6969975,4.66487089 3.10714937,-1.82705316 0.579174684,0.699858228" id="Fill-74" fill="#000000" sketch:type="MSShapeGroup"></path>
            <path d="M1.19540506,1.01448608 C-1.10662025,3.20433418 5.08758228,13.4549924 6.14236709,14.5640051 C7.19662025,15.6719544 9.91705063,14.7968658 12.2196076,12.6070177 C14.5221646,10.4177013 15.5338861,7.7440557 14.4791013,6.63557468 C13.4248481,5.52656203 3.49743038,-1.17429873 1.19540506,1.01448608" id="Fill-76" fill="#FFFFFF" sketch:type="MSShapeGroup"></path>
            <path d="M1.05058481,0.661420253 C-1.19721266,2.79863544 5.31757215,13.2965089 6.40797722,14.4427367 C7.49838228,15.5894962 10.2044582,14.7861797 12.4511924,12.6505595 C14.6979266,10.5128127 15.6352177,7.85086329 14.5453443,6.70463544 C13.4549392,5.55840759 3.29678734,-1.47473165 1.05058481,0.661420253" id="Fill-78" fill="#000000" sketch:type="MSShapeGroup"></path>
            <path d="M1.34703038,0.838989873 C-0.58975443,2.88476203 6.19138481,12.4480025 7.2844481,13.4825848 C8.3764481,14.5161038 10.8315873,13.6963063 12.7673089,11.6505342 C14.7046253,9.60423038 15.3888532,7.10762278 14.2963215,6.07357215 C13.2048532,5.03898987 3.28328354,-1.20678228 1.34703038,0.838989873" id="Fill-80" fill="#FFFFFF" sketch:type="MSShapeGroup"></path>
            <path d="M42.2178152,21.3976709 C42.2178152,32.7759494 32.9937646,42 21.6165494,42 C10.2377392,42 1.01422025,32.7759494 1.01422025,21.3976709 C1.01422025,10.0199241 10.2377392,0.795873418 21.6165494,0.795873418 C32.9937646,0.795873418 42.2178152,10.0199241 42.2178152,21.3976709" id="Fill-82" fill="#000000" sketch:type="MSShapeGroup"></path>
            <path d="M41.6934,21.3976709 C41.6934,32.4856709 32.7043367,41.4747342 21.6163367,41.4747342 C10.5278051,41.4747342 1.53927342,32.4856709 1.53927342,21.3976709 C1.53927342,10.3096709 10.5278051,1.32060759 21.6163367,1.32060759 C32.7043367,1.32060759 41.6934,10.3096709 41.6934,21.3976709" id="Fill-84" fill="#FFFFFF" sketch:type="MSShapeGroup"></path>
            <path d="M40.6426025,20.6106228 C40.6426025,31.5540152 31.7720962,40.4255848 20.8292354,40.4255848 C9.88531139,40.4255848 1.01427342,31.5540152 1.01427342,20.6106228 C1.01427342,9.66723038 9.88531139,0.795660759 20.8292354,0.795660759 C31.7720962,0.795660759 40.6426025,9.66723038 40.6426025,20.6106228" id="Fill-86" fill="#000000" sketch:type="MSShapeGroup"></path>
            <path d="M37.8877747,18.9694329 C37.8877747,28.7905215 29.9269139,36.750319 20.1074203,36.750319 C10.2873949,36.750319 2.32653418,28.7905215 2.32653418,18.9694329 C2.32653418,9.14940759 10.2873949,1.18907848 20.1074203,1.18907848 C29.9269139,1.18907848 37.8877747,9.14940759 37.8877747,18.9694329" id="Fill-88" fill="#FFFFFF" sketch:type="MSShapeGroup"></path>
            <path d="M42.2531165,0.640632911 C44.7688633,3.1558481 38.1791165,13.8233165 37.0514962,14.9530633 C35.9233443,16.0806835 32.9684582,14.9567848 30.453243,12.4405063 C27.9369646,9.92529114 26.8125342,6.97040506 27.9406861,5.84225316 C29.0693696,4.71356962 39.736838,-1.87511392 42.2531165,0.640632911" id="Fill-90" fill="#000000" sketch:type="MSShapeGroup"></path>
            <path d="M41.5947797,1.43033924 C43.8930835,3.72864304 37.6574127,13.6911494 36.5983747,14.7501873 C35.5388051,15.8092253 32.8162481,14.8044152 30.5179443,12.5061114 C28.2201722,10.2083392 27.215362,7.48684557 28.2749316,6.4267443 C29.3345013,5.36770633 39.2959443,-0.867964557 41.5947797,1.43033924" id="Fill-92" fill="#FFFFFF" sketch:type="MSShapeGroup"></path>
            <path d="M41.5116835,0.922564557 C43.7185443,3.13048861 37.1894051,13.2402608 36.1011266,14.3280076 C35.0128481,15.4157544 32.3418608,14.5087671 30.1334051,12.3003114 C27.925481,10.092919 27.017962,7.4214 28.1051772,6.33312152 C29.1939873,5.24431139 39.3032278,-1.28535949 41.5116835,0.922564557" id="Fill-94" fill="#000000" sketch:type="MSShapeGroup"></path>
            <path d="M41.618119,0.692574684 C43.6436886,2.86328354 36.5292076,12.7912329 35.3835114,13.8598405 C34.2383468,14.9273848 31.6683722,14.0342203 29.6443975,11.8635114 C27.6188278,9.69280253 26.9053595,7.06700506 28.0505241,5.99946076 C29.1962203,4.93032152 39.593081,-1.47760253 41.618119,0.692574684" id="Fill-96" fill="#FFFFFF" sketch:type="MSShapeGroup"></path>
            <path d="M37.0114101,14.4686278 C35.9475873,15.531919 33.1633595,14.4712861 30.7922203,12.1006785 C28.4216127,9.73007089 27.3625747,6.94637468 28.4253342,5.88202025 C28.6581949,5.64969114 29.3238152,5.16908354 30.2440937,4.58533671 C28.8804228,4.03880506 27.7326,4.00690633 27.1174861,4.62202025 C25.8617392,5.87776709 27.2977139,9.34834937 30.3227772,12.3739443 C33.3483722,15.3995392 36.8194861,16.8344506 38.0747013,15.5787038 C38.6409038,15.0125013 38.6579165,13.9938684 38.2304734,12.7700203 C37.6828785,13.6275646 37.233638,14.2448051 37.0114101,14.4686278" id="Fill-98" fill="#000000" sketch:type="MSShapeGroup"></path>
        </g>
    </g>
</svg>