<svg height="24" viewBox="0 0 191 24" width="191" xmlns="http://www.w3.org/2000/svg" xmlns:xlink="http://www.w3.org/1999/xlink"><mask id="a" fill="#fff"><path d="m0 .01610127h190.246076v23.98389873h-190.246076" fill="#fff" fill-rule="evenodd"/></mask><mask id="b" fill="#fff"><path d="m0 .01610127h190.246076v23.98389873h-190.246076z" fill="#fff" fill-rule="evenodd"/></mask><g fill="none" fill-rule="evenodd"><path d="m8.60835443 20.1763949-4.75736709-8.2398987 4.75736709-8.23989873h9.51453167l4.7573671 8.23989873-4.7573671 8.2398987z" fill="#cecdcb"/><path d="m9.41572658 19.1396962-4.22956962-7.2312911-2.31888607-3.964557c-.1689114-.29255696-.23929114-.69296202-.21235443-1.07635443l-2.43625317 4.21974683c-.2915443.5049114-.2915443 1.3311392 0 1.8361519l5.86187342 10.1529114c.29144304.5049114 1.00708861.9179747 1.59017721.9179747h6.97670888c.2790886-.1651646.5222278-.3890633.6643038-.6351393l2.3881519-4.219443z" fill="#f4b419"/><g fill="#7f8081"><path d="m90.2028354 11.6874025c.2966076-.1227341.32-.1445063.2105317-.4574177-.6265317-1.78764556-2.9837975-2.75260758-4.9914937-1.91554429-1.5838987.66065822-2.7305316 2.33518989-2.7305316 4.20810129 0 2.5235443 1.8215696 4.7676962 4.2961012 4.7676962 1.1342785 0 1.9409621-.1569621 2.6591393-.612557.1534177-.1429873 1.0213671-.8367595 1.0296709-.985519.0016202-.0345316-.1219241.0734177-.3106836.1778228-.5591899.2937722-1.3972658.4067848-2.0549873.4189367-1.3299241.0242026-2.3922026-.8821266-3.0853671-1.9578734-.4455696-.6928608-.734076-1.4844557-.8053671-2.334481-.1100759-1.3067342.2091139-2.8098228 1.6852658-3.17873419.9819747-.24546835 1.912.30481009 2.2736203 1.25043039.1639493.4292658.0650126.6524557-.3319494.8155949l-3.5507848 1.4836456 1.2105316.0775696c1.4417216-.5985823 3.0549874-1.1593924 4.4963038-1.7576709"/><path d="m79.2717671 4.40951899h2.6508354c-.3686076.2390886-.4928607.33802531-.6512405.58916455-.113519.17994937-.1432911.52131646-.1633417.8290633-.1548355 3.53934177-.0600507 7.10592406-.0831393 10.64587346.0148861.9646582.3941266.8509367 1.6490127.814481-.1893671.1602025-.4963038.4773671-.7337722.6135696-1.1319493 0-2.2122531-.0244051-3.344405-.0244051.4266329-.4398987.6448607-.7240506.6158987-1.8248101.0226835-3.6993418-.123443-7.24921519.1015696-10.81184811-.5305316.01569621-1.0126582.00789874-1.5436962.02298735.5012658-.25812659.9756962-.62217722 1.5022785-.85407595"/><path d="m75.4322633 12.6579342c.201924 1.2253164-.1097722 2.3871392-1.2169114 2.6934683-1.1337722.3134178-2.3877468-.5685063-2.7911899-2.147443-.4421266-1.7320506.0151899-2.8315949 1.0835443-3.1636456 1.2645064-.39351896 2.6157975.7473418 2.924557 2.6176203m2.8531645-3.36546838-1.1334683.73397468h-1.2904304c.5448101.3808608.9626329.9293165 1.1929114 1.5404557.2448608.6507342.2790886 1.3718481.0302785 2.0360506-.2352405.6264304-.7110886 1.1658735-1.4113418 1.5757975-.3980759.2330127-.5987848.5277975-.6208607.8116456-.0650127.8269367.9453164 1.4279493 1.5295189 1.8651139 1.278076.9568608 1.7770127 2.5267848.9312405 4.0433418-.8077974 1.4477974-2.7322531 2.0943797-4.776 2.1011645-2.5383291-.011443-4.1397468-1.1742785-4.2242025-2.7575696-.108962-2.0461772 1.9905823-3.0202532 3.887595-3.2421266.5310379-.0622785 1.0054683-.0523544 1.4518481-.0202531-.6713924-.4420254-.9220254-1.3425823-.5794431-1.944.0891139-.1571646.0324051-.1030886-.1367088-.0773671-1.5514937.2346329-3.1498735-.7785317-3.5239494-2.3088608-.1895696-.7773164-.0714937-1.5884557.2243038-2.2242025.6425316-1.3795443 2.0709873-2.14653167 3.6564051-2.14653167 1.6489113 0 3.1755949.0009114 4.7923037.01336709m-3.8051645 9.21488608c.190481.1393418.388962.2753418.5937215.4044557 1.1136203.7057215 1.4683544 1.5675949 1.3779241 2.3636456-.1092659.9594936-1.0293671 1.7153417-2.6058735 1.8111392-1.683443.1025823-3.9490632-.5640506-3.5293164-2.7780253.2234937-1.1791393 1.7881519-1.7880506 3.0826329-1.8308861.3579747-.0120506.7223291.017519 1.0809114.0296709" mask="url(#a)"/><path d="m66.7421975 13.7318076c.174481 1.736-.4081013 3.3484557-1.9661772 3.7088608-1.5939241.3692151-3.2837469-.953519-3.7057216-3.2004051-.4630886-2.4645063.3022785-4.0871899 1.8068861-4.48648102 1.782481-.47250633 3.5993924 1.32718992 3.8650127 3.97802532m-2.8746329-4.69518988c3.0417215 0 4.6286582 2.02258228 4.7708354 4.39159498.1408608 2.3603038-1.8054684 4.4716962-4.1872405 4.7247595-2.8641013.3037974-5.364962-1.6690633-5.364962-4.546633 0-2.516962 2.1479493-4.56972148 4.7813671-4.56972148"/><path d="m56.3493975 13.7318076c.1762025 1.736-.4129621 3.3484557-1.9890633 3.7088608-1.6126583.3692151-3.3225317-.953519-3.7495696-3.2004051-.4687595-2.4645063.3058227-4.0871899 1.8283544-4.48648102 1.8033418-.47250633 3.641519 1.32718992 3.9102785 3.97802532m-2.9087595-4.69518988c3.0780759 0 4.6836455 2.02258228 4.8275443 4.39159498.1423797 2.3603038-1.8266329 4.4716962-4.2367595 4.7247595-2.8978228.3037974-5.4282532-1.6690633-5.4282532-4.546633 0-2.516962 2.1731646-4.56972148 4.8374684-4.56972148"/><path d="m45.7926278 7.77047089 1.3830887-1.41063292c-2.3484557-1.944-6.3764051-2.1990886-9.0454684-.84951898-2.321519 1.17367088-4.0094177 3.50511392-4.0919494 6.10845571-.0867848 2.7400506 1.5054178 4.9077468 3.1218228 5.9979747 2.6677469 1.7986835 7.2932658 1.398481 10.079595-.0083038l-.0008102-.2611646h.0003038v-2.8717975l.6486076-.7593924h-4.0589367l-1.5031899.8464811 2.9192912-.0870887v2.5313418c0 .3591899.0048607.4169114-.5871393.608-.8330126.2186329-1.7733671.2618734-2.6327088.1898734-2.9149367-.2430379-5.1371139-2.5462278-5.6637975-5.4198481-.4993418-2.72597465.7861266-5.3045063 2.9597975-6.36840503 1.0616709-.51939241 2.3351899-.76374684 3.7152405-.32172152.8656202.27686076 1.6512405.77579747 2.3362025 1.46359494l-.4772658.86734177z"/><path d="m101.214603 8.30072911c-1.31676 0-2.3533169.42146836-3.1096714 1.26379747-.7564557.84283542-1.134481 1.99645572-1.134481 3.46156962 0 1.4983291.356557 2.6616709 1.0698735 3.4901266.7133164.8280506 1.7331645 1.241924 3.0592409 1.241924.88081 0 1.690025-.1122025 2.42724-.3373164v.6462785c-.694076.2442531-1.560709.366481-2.599696.366481-1.4744305 0-2.6353419-.4764557-3.4827343-1.4294684-.8474937-.9523038-1.2709874-2.2835443-1.2709874-3.9925063 0-1.067443.2020254-2.0084051.6066836-2.8222785.4045569-.81387341.9862278-1.44232911 1.7450126-1.88496202.7588861-.44263291 1.6409115-.66440506 2.6462785-.66440506 1.024506 0 1.941266.19159494 2.75038.57468354l-.294481.66055697c-.765874-.38268355-1.570431-.57448102-2.412658-.57448102"/><path d="m106.27281 18.2896203h-.710683v-11.17367093h.710683z" mask="url(#b)"/><path d="m109.139109 14.3759899c0 1.072405.235747 1.9092658.707443 2.5099747.471595.6007088 1.138329.9012658 1.999797.9012658.861773 0 1.528507-.300557 2-.9012658.471595-.6007089.707342-1.4375697.707342-2.5099747 0-1.0771646-.238177-1.9125064-.71443-2.5059241-.476456-.5937215-1.145317-.8906329-2.007291-.8906329-.86157 0-1.525975.2955949-1.992709.8866836-.466734.5913924-.700152 1.4278481-.700152 2.5098734m6.16162 0c0 1.2737215-.308962 2.2683544-.926683 2.9836962-.617216.7158481-1.469469 1.0738228-2.556152 1.0738228-.684962 0-1.288-.1652659-1.809722-.4957975-.522126-.3301266-.921721-.8042532-1.19919-1.4214684-.277873-.6180253-.416709-1.3309367-.416709-2.1402531 0-1.2733165.30876-2.2656203.92638-2.9764051.617722-.7109873 1.465013-1.0666329 2.542177-1.0666329 1.072405 0 1.913722.3604051 2.524152 1.0806076.610329.7207089.915747 1.7080506.915747 2.9624304" mask="url(#b)"/><path d="m117.826997 10.4838785v5.0554937c0 .7851139.165165 1.3558481.495494 1.7127088.330431.3566582.842532.5350886 1.536709.5350886.92881 0 1.612354-.2346329 2.05043-.7037974.438178-.4692659.657114-1.2329114.657114-2.291038v-4.3084557h.703697v7.8057721h-.603241l-.129215-1.076962h-.043038c-.507544.8138734-1.410025 1.2208608-2.707342 1.2208608-1.776304 0-2.664304-.9505823-2.664304-2.8509367v-5.0987342z" mask="url(#b)"/><path d="m128.48958 10.9794329c-.852253 0-1.492456.2992405-1.920912.897519-.428354.5985823-.642734 1.4672405-.642734 2.6069873 0 2.2118481.859544 3.3177722 2.578127 3.3177722.880709 0 1.527088-.2564051 1.938835-.7686076.411747-.512.617722-1.3573671.617722-2.5349873v-.1221266c0-1.2065823-.202329-2.0742279-.606886-2.6033418-.404456-.5288101-1.059241-.7932152-1.964152-.7932152m0-.646481c.565063 0 1.053367.1031899 1.465012.3090633.411545.2055696.780456.5574683 1.106026 1.0553924h.042835c-.028658-.6031392-.042835-1.1945317-.042835-1.77377216v-2.80759493h.703493v11.17356959h-.466531l-.179646-1.1916962h-.057316c-.593823.8903291-1.446076 1.335595-2.556557 1.335595-1.077165 0-1.90076-.3351899-2.470177-1.0054684-.570026-.6700759-.854785-1.6467848-.854785-2.929924 0-1.3498735.28243-2.3817722.847493-3.0950887.564659-.7132151 1.385823-1.0700759 2.462988-1.0700759" mask="url(#b)"/><path d="m138.528344 13.3206076h1.443241c1.182177 0 2.037164-.1953418 2.563848-.5853165.526582-.3902784.78957-1.0236962.78957-1.8995443 0-.8089114-.249013-1.40850629-.746633-1.79918984-.498228-.38987342-1.268557-.58491139-2.312304-.58491139h-1.737722zm5.586633-2.513519c0 1.0148861-.344911 1.7928101-1.034228 2.3339747-.689316.5407595-1.665721.8113418-2.92962.8113418h-1.622785v4.3372152h-.732759v-10.49863296h2.570937c2.499037 0 3.748455 1.00526582 3.748455 3.01610126z" mask="url(#b)"/><path d="m146.550886 18.2896203h-.710886v-11.17367093h.710886z" mask="url(#b)"/><path d="m150.779139 17.7871899c.833317 0 1.490329-.2382785 1.971342-.7147342.481215-.4761519.721924-1.1379241.721924-1.9853165v-.7686076l-1.364759.0574178c-1.096304.052962-1.877773.2241012-2.344507.5137215-.466835.2896202-.700152.7406582-.700152 1.353519 0 .4882025.149469.8679493.448912 1.1382278.298835.2705823.721519.4057722 1.26724.4057722zm2.87281.502481-.179544-1.235038h-.05762c-.392608.5026836-.796253.8583291-1.210026 1.0663291-.414379.2082026-.903696.3126076-1.468556.3126076-.765975 0-1.362127-.1965569-1.788152-.588962-.426026-.3924051-.639292-.936-.639292-1.630076 0-.7613164.317266-1.3527088.951595-1.7741772.63433-.4207595 1.552405-.6435443 2.754127-.6675443l1.486582-.0429367v-.5172658c0-.7421772-.150886-1.302076-.452557-1.6803038-.301772-.3781266-.787544-.5673924-1.457822-.5673924-.722937 0-1.472406.2013164-2.247494.603443l-.265823-.6180253c.85681-.4020253 1.704304-.6028354 2.541975-.6028354.857215 0 1.497417.222481 1.921114.6675443.423797.4452658.635645 1.1398481.635645 2.0827342v5.1918987z" mask="url(#b)"/><path d="m158.764496 17.8017215c.450127 0 .842532-.038481 1.178026-.1152405v.5746836c-.344709.1149367-.742279.1723544-1.192304.1723544-.689215 0-1.197975-.1844051-1.526076-.5533165-.327696-.3681012-.491848-.9477468-.491848-1.7377215v-5.0409114h-1.156051v-.4166076l1.156051-.3232405.35919-1.76648099h.366075v1.88860759h2.29114v.6177215h-2.29114v4.940557c0 .5985823.105216 1.0412152.316254 1.328405.21043.2871899.540962.4311899.990683.4311899" mask="url(#b)"/><path d="m164.531119 11.1015595h-1.83838v7.1880506h-.710886v-7.1880506h-1.450531v-.4166076l1.450531-.2657215v-.60313926c0-.95746836.176-1.6601519.527899-2.10794937.351899-.4473924.927595-.67108861 1.727291-.67108861.430785 0 .86157.06440507 1.292253.19341773l-.164861.61802531c-.383189-.11979747-.76405-.1795443-1.142076-.1795443-.555544 0-.949164.1638481-1.181367.4918481-.232202.328-.348253.8604557-.348253 1.59777215v.72526585h1.83838z" mask="url(#b)"/><path d="m166.038825 14.3759899c0 1.072405.235747 1.9092658.707443 2.5099747.471595.6007088 1.137924.9012658 1.999595.9012658.862178 0 1.528507-.300557 2.000203-.9012658.471595-.6007089.707544-1.4375697.707544-2.5099747 0-1.0771646-.23838-1.9125064-.714835-2.5059241-.476456-.5937215-1.145114-.8906329-2.006886-.8906329-.86157 0-1.526178.2955949-1.992912.8866836-.466734.5913924-.700152 1.4278481-.700152 2.5098734m6.161418 0c0 1.2737215-.308962 2.2683544-.926278 2.9836962-.617418.7158481-1.469874 1.0738228-2.556557 1.0738228-.68476 0-1.288-.1652659-1.809722-.4957975-.521721-.3301266-.921519-.8042532-1.198987-1.4214684-.278076-.6180253-.416709-1.3309367-.416709-2.1402531 0-1.2733165.308557-2.2656203.92638-2.9764051.617316-.7109873 1.465012-1.0666329 2.541974-1.0666329 1.072608 0 1.913722.3604051 2.524557 1.0806076.609924.7207089.915342 1.7080506.915342 2.9624304" mask="url(#b)"/><path d="m177.435382 10.3329722c.330734 0 .68476.0336202 1.062886.1006582l-.136709.6820253c-.325265-.0812152-.662886-.1218228-1.01205-.1218228-.665722 0-1.211747.2824304-1.637468.8471899-.426228.5650633-.63919 1.2782785-.63919 2.1401519v4.3084557h-.711089v-7.8057722h.603443l.071798 1.4073924h.050126c.32081-.574481.662886-.9778228 1.027038-1.2100253.363747-.2322025.804253-.3482531 1.321215-.3482531" mask="url(#b)"/><path d="m189.542187 18.2896608v-5.1203038c0-.7612152-.148152-1.3162532-.445063-1.6657216-.29681-.3494683-.751696-.5241519-1.364253-.5241519-.799696 0-1.391089.2199494-1.773772.6604557-.383291.4405064-.57438 1.1322532-.57438 2.0754431v4.5742785h-.725671v-5.3354937c0-1.3163544-.603038-1.9746836-1.809316-1.9746836-.819038 0-1.414988.2381773-1.788355.7142279-.373468.476557-.560101 1.2387848-.560101 2.2874937v4.3084557h-.710886v-7.8057722h.589063l.150481 1.0698734h.042937c.215797-.3875443.521721-.6881012.919291-.9011645.397367-.2131646.835443-.319595 1.314228-.319595 1.230481 0 2.020253.4619747 2.369721 1.3858228h.029064c.253367-.444962.594531-.7872405 1.022886-1.0266329.428861-.2394937.915747-.3591899 1.461468-.3591899.852051 0 1.491544.2273418 1.91757.6820253.425823.4552912.638987 1.1779241.638987 2.1689114v5.1057216z" mask="url(#b)"/></g><path d="m26.846319 11.0871899-5.8618734-10.15301268 2.3815696 4.12486075z" fill="#dd452e" mask="url(#b)"/><path d="m26.846319 11.0871899-3.4803038-6.02815193c-.300962-.18470886-.6473924-.30187341-.9568608-.30187341h-4.7181772l4.079595 7.19068354-4.0706836 7.1917975-2.3881519 4.2195443c-.1421772.2460759-.3852152.4698734-.6643038.6351392h4.7468355c.5830886 0 1.2986329-.4131645 1.5901772-.9179747l2.3313417-4.0378734 3.5305317-6.1151392c.2915443-.5049114.2915443-1.3311393 0-1.8361519" fill="#dd452e" mask="url(#b)"/><path d="m20.9844759.93416709c-.2915443-.50491139-1.0070886-.91807595-1.5902784-.91807595h-4.6103291-7.11321524c-.58298734 0-1.29863291.41316456-1.59017721.91807595l-3.42551899 5.93336709c-.02693671.38329114.04344304.7836962.21235443 1.07635443l2.31878481 3.96455699 4.13944304-7.15129117h8.36546836 4.7181772c.3094684 0 .6558987.11716456.9568608.30187342z" fill="#507cbe" mask="url(#b)"/><path d="m5.18613671 11.9084051 4.22956962 7.2312911h8.28415187l4.0706836-7.1917975-4.0794937-7.19078478h-8.36546835z" fill="#cecdcb" mask="url(#b)"/><path d="m2.80381772 6.60781772-.14987342.25964557c-.02693671.38339241.04344304.78379747.21235443 1.07635443l2.31888608 3.96455698 1.23362025-2.13124052z" fill="#4e70a8" mask="url(#b)"/><path d="m23.5231494 5.32938734-.1560507-.27037975c-.3008607-.18470886-.6471898-.30187341-.9567595-.30187341h-4.7180759l1.2280506 2.16465823z" fill="#c3422e" mask="url(#b)"/><path d="m14.2508253 23.994319h.4056709c.2791899-.1652658.5222279-.3890633.6643038-.6351393l2.3882532-4.219443h-2.5432912z" fill="#d19d2a" mask="url(#b)"/><path d="m13.5245367 15.6976709c-2.0446582 0-3.70815189-1.6634937-3.70815189-3.7081519 0-2.04465824 1.66349369-3.70815191 3.70815189-3.70815191s3.7081519 1.66349367 3.7081519 3.70815191c0 2.0446582-1.6634937 3.7081519-3.7081519 3.7081519" fill="#fefefe" mask="url(#b)"/><path d="m13.5245367 8.22838481c-2.073924 0-3.76121518 1.68718987-3.76121518 3.76111389 0 2.0739241 1.68729118 3.761114 3.76121518 3.761114 2.0738228 0 3.7611139-1.6871899 3.7611139-3.761114 0-2.07392402-1.6872911-3.76111389-3.7611139-3.76111389m0 .10592405c2.0186329 0 3.6551899 1.63655696 3.6551899 3.65518984 0 2.0187342-1.636557 3.6551899-3.6551899 3.6551899-2.0187342 0-3.65518986-1.6364557-3.65518986-3.6551899 0-2.01863288 1.63645566-3.65518984 3.65518986-3.65518984" fill="#cac8c6" mask="url(#b)"/><path d="m7.97284051 3.06420253c-.39443038 0-.71544304-.32101266-.71544304-.71544304 0-.39453164.32101266-.71544303.71544304-.71544303.39453164 0 .71544303.32091139.71544303.71544303 0 .39443038-.32091139.71544304-.71544303.71544304" fill="#fefefe" mask="url(#b)"/><path d="m7.97284051 1.58029367c-.42369621 0-.76840507.34470886-.76840507.76840506 0 .42379747.34470886.76850633.76840507.76850633.4236962 0 .76840506-.34470886.76840506-.76850633 0-.4236962-.34470886-.76840506-.76840506-.76840506m0 .10592405c.36587341 0 .66248101.2966076.66248101.66248101 0 .36597469-.2966076.66248102-.66248101.66248102-.36587342 0-.66248102-.29650633-.66248102-.66248102 0-.36587341.2966076-.66248101.66248102-.66248101" fill="#4472b8" mask="url(#b)"/><path d="m19.6962532 2.34873924c0 .36587342-.2966076.66248101-.662481.66248101-.3657722 0-.6624811-.29660759-.6624811-.66248101s.2967089-.66248101.6624811-.66248101c.3658734 0 .662481.29660759.662481.66248101" fill="#fefefe" mask="url(#b)"/><path d="m19.6962532 2.34873924c0 .36587342-.2966076.66248101-.662481.66248101-.3657722 0-.6624811-.29660759-.6624811-.66248101s.2967089-.66248101.6624811-.66248101c.3658734 0 .662481.29660759.662481.66248101z" mask="url(#b)" stroke="#4472b8"/><path d="m7.97284051 22.2406076c-.39443038 0-.71544304-.3209114-.71544304-.715443 0-.3945317.32101266-.7154431.71544304-.7154431.39453164 0 .71544303.3209114.71544303.7154431 0 .3945316-.32091139.715443-.71544303.715443" fill="#fefefe" mask="url(#b)"/><path d="m7.97284051 20.7567392c-.42369621 0-.76840507.3447089-.76840507.7684051 0 .4237975.34470886.7684051.76840507.7684051.4236962 0 .76840506-.3446076.76840506-.7684051 0-.4236962-.34470886-.7684051-.76840506-.7684051m0 .1059241c.36587341 0 .66248101.2966076.66248101.662481s-.2966076.662481-.66248101.662481c-.36587342 0-.66248102-.2966076-.66248102-.662481s.2966076-.662481.66248102-.662481" fill="#f2b01b" mask="url(#b)"/><path d="m19.0337924 22.2406076c-.3945316 0-.715443-.3209114-.715443-.715443 0-.3945317.3209114-.7154431.715443-.7154431.3945317 0 .715443.3209114.715443.7154431 0 .3945316-.3209113.715443-.715443.715443" fill="#fefefe" mask="url(#b)"/><path d="m19.0337924 20.7567392c-.4237975 0-.7684051.3447089-.7684051.7684051 0 .4237975.3446076.7684051.7684051.7684051s.7684051-.3446076.7684051-.7684051c0-.4236962-.3446076-.7684051-.7684051-.7684051m0 .1059241c.3658734 0 .662481.2966076.662481.662481s-.2966076.662481-.662481.662481-.662481-.2966076-.662481-.662481.2966076-.662481.662481-.662481" fill="#dd472e" mask="url(#b)"/><path d="m24.6016709 12.7049418c-.3944304 0-.7154431-.3209114-.7154431-.7154431 0-.3945316.3210127-.715443.7154431-.715443.3945316 0 .715443.3209114.715443.715443 0 .3945317-.3209114.7154431-.715443.7154431" fill="#fefefe" mask="url(#b)"/><path d="m24.6016709 11.2210734c-.4236962 0-.7684051.3447089-.7684051.7684051 0 .4237974.3447089.7685063.7684051.7685063s.768405-.3447089.768405-.7685063c0-.4236962-.3447088-.7684051-.768405-.7684051m0 .1059241c.3658734 0 .662481.2966076.662481.662481 0 .3659747-.2966076.662481-.662481.662481s-.662481-.2965063-.662481-.662481c0-.3658734.2966076-.662481.662481-.662481" fill="#dd472e" mask="url(#b)"/><path d="m2.39498734 12.7049418c-.39453164 0-.71544304-.3209114-.71544304-.7154431 0-.3945316.3209114-.715443.71544304-.715443.39453165 0 .71544304.3209114.71544304.715443 0 .3945317-.32091139.7154431-.71544304.7154431" fill="#fefefe" mask="url(#b)"/><path d="m2.39498734 11.2210734c-.4236962 0-.76840506.3447089-.76840506.7684051 0 .4237974.34470886.7685063.76840506.7685063.42379747 0 .76840507-.3447089.76840507-.7685063 0-.4236962-.3446076-.7684051-.76840507-.7684051m0 .1059241c.36587342 0 .66248101.2966076.66248101.662481 0 .3659747-.29660759.662481-.66248101.662481s-.66248101-.2965063-.66248101-.662481c0-.3658734.29660759-.662481.66248101-.662481" fill="#f2b01b" mask="url(#b)"/></g></svg>