<?xml version="1.0" encoding="UTF-8" standalone="no"?>
<svg width="150px" height="32px" viewBox="0 0 150 32" version="1.1" xmlns="http://www.w3.org/2000/svg" xmlns:xlink="http://www.w3.org/1999/xlink">
    <!-- Generator: Sketch 40 (33762) - http://www.bohemiancoding.com/sketch -->
    <title>logo-kubernetes</title>
    <desc>Created with Sketch.</desc>
    <defs></defs>
    <g id="Page-1" stroke="none" stroke-width="1" fill="none" fill-rule="evenodd">
        <g id="logo-kubernetes">
            <path d="M47.0994496,16.866055 C47.3900871,16.5489982 47.6873345,16.2187229 47.9911927,15.8752294 C48.3082513,15.5317505 48.6121042,15.1948712 48.9027523,14.8645872 C49.1933881,14.5211097 49.4642135,14.19744 49.7152294,13.893578 C49.9794424,13.589735 50.2040292,13.3255149 50.3889909,13.1009174 L53.8965138,13.1009174 C53.1963199,13.9067978 52.509348,14.6796418 51.8355964,15.4194495 C51.1750375,16.1460624 50.4484326,16.8990884 49.6557798,17.6785321 C50.0521028,18.0352352 50.4616436,18.4645916 50.8844037,18.9666055 C51.3071475,19.4554172 51.7166883,19.9640396 52.1130276,20.4924771 C52.509348,21.0209204 52.8726505,21.5493593 53.2029358,22.0777982 C53.5332002,22.60624 53.8106312,23.0884404 54.0352294,23.5244037 L50.6466055,23.5244037 C50.4352218,23.1809174 50.1908182,22.8044037 49.9133945,22.3948624 C49.6491674,21.9721116 49.365131,21.5559648 49.0612844,21.146422 C48.7574252,20.7236727 48.4337558,20.3207369 48.0902753,19.9376147 C47.759995,19.5544998 47.4297201,19.2308301 47.0994496,18.9666055 L47.0994496,23.5244037 L44.146789,23.5244037 L44.146789,8.62238532 L47.0994496,8.14678899 L47.0994496,16.866055 Z M64.3073056,23.1677064 C63.8052769,23.3130275 63.1579375,23.4451376 62.3652872,23.5640367 C61.5726193,23.6961468 60.7403258,23.7622018 59.8684065,23.7622018 C58.983263,23.7622018 58.243448,23.6433028 57.6489569,23.4055046 C57.0676696,23.1677064 56.6052843,22.8374312 56.2618004,22.4146789 C55.9183124,21.9787171 55.6739089,21.4634877 55.5285894,20.8689908 C55.383267,20.2744983 55.3106066,19.6205549 55.3106077,18.907156 L55.3106077,13.1009174 L58.2632689,13.1009174 L58.2632689,18.5504587 C58.2632645,19.5016558 58.3887691,20.1886268 58.6397826,20.6113761 C58.8907859,21.0341314 59.3597768,21.2455061 60.0467551,21.2455046 C60.2581239,21.2455061 60.4827111,21.2388991 60.7205166,21.2256881 C60.9583074,21.1992675 61.1696836,21.1728455 61.354645,21.146422 L61.354645,13.1009174 L64.3073056,13.1009174 L64.3073056,23.1677064 Z M76.788612,18.3126606 C76.7886017,19.1449585 76.6630971,19.8979846 76.4120982,20.5717431 C76.1742898,21.2455061 75.824198,21.820185 75.361823,22.2957798 C74.8994289,22.7713761 74.3313555,23.1412844 73.6576028,23.4055046 C72.983834,23.6565138 72.2175969,23.7820183 71.3588872,23.7820183 C71.0021856,23.7820183 70.6256718,23.7622018 70.2293459,23.7225688 C69.8462223,23.6961468 69.4631045,23.6565138 69.0799881,23.6036697 C68.7100769,23.5508257 68.3533797,23.4913761 68.0098964,23.4253211 C67.6664087,23.346055 67.3625555,23.266789 67.0983368,23.1875229 L67.0983368,8.62238532 L70.0509973,8.14678899 L70.0509973,13.3387156 C70.3812681,13.1934048 70.7247544,13.0811112 71.081456,13.0018349 C71.4381474,12.9225791 71.8212667,12.8829461 72.2308138,12.8829358 C72.970623,12.8829461 73.624568,13.0150561 74.1926487,13.2792661 C74.7607133,13.5302855 75.2363096,13.8935868 75.6194377,14.3691743 C76.0025467,14.8447794 76.2931889,15.4194569 76.4913643,16.093211 C76.6895191,16.7537673 76.7886017,17.4935839 76.788612,18.3126606 Z M73.7765019,18.2333945 C73.7764946,16.3310165 73.0763111,15.3798239 71.6759514,15.3798165 C71.3720924,15.3798239 71.0682406,15.4194569 70.7643918,15.4987156 C70.4737452,15.577989 70.235947,15.6770716 70.0509973,15.7959633 L70.0509973,21.1662385 C70.196314,21.192662 70.3812681,21.219084 70.6058597,21.2455046 C70.8304425,21.2587156 71.0748461,21.2653226 71.3390707,21.2653211 C72.1449364,21.2653226 72.7526414,20.9878928 73.16219,20.4330275 C73.5717239,19.8781681 73.7764946,19.1449585 73.7765019,18.2333945 Z M78.5624997,18.3919266 C78.5624997,17.4671618 78.7012153,16.6612917 78.9786465,15.9743119 C79.2692872,15.2741372 79.645801,14.6928528 80.1081878,14.2304587 C80.5705702,13.7680837 81.0990105,13.4179919 81.6935089,13.1801835 C82.3012109,12.9423956 82.9221283,12.8234965 83.5562612,12.8234862 C85.0358869,12.8234965 86.2050597,13.2792763 87.0637841,14.1908257 C87.9224894,15.0891831 88.3518472,16.4168881 88.3518575,18.173945 C88.3518472,18.3456925 88.3452373,18.5372521 88.332041,18.7486239 C88.3188153,18.9467934 88.3056087,19.125142 88.292408,19.2836697 L81.5944263,19.2836697 C81.6604769,19.8913791 81.9445136,20.3735809 82.4465364,20.7302752 C82.9485503,21.0869754 83.6223103,21.2653226 84.4678208,21.2653211 C85.0094648,21.2653226 85.5379052,21.219084 86.0531419,21.1266055 C86.5815735,21.0209204 87.0109313,20.8954158 87.3412153,20.7500917 L87.7375456,23.1478899 C87.5790032,23.227156 87.3676285,23.306422 87.1034171,23.3856881 C86.8391881,23.4649541 86.5419404,23.5310092 86.211674,23.5838532 C85.8946025,23.6499083 85.5511162,23.7027523 85.1812153,23.7423853 C84.8112997,23.7820183 84.4413929,23.8018349 84.0714905,23.8018349 C83.133503,23.8018349 82.3144219,23.6631193 81.6142428,23.3856881 C80.9272674,23.1082569 80.3525885,22.7317431 79.8902061,22.2561468 C79.4410303,21.7673409 79.1041496,21.192662 78.8795639,20.5321101 C78.6681878,19.8715626 78.5624997,19.1581695 78.5624997,18.3919266 Z M85.4982795,17.2623853 C85.4850685,17.011382 85.4388226,16.7669783 85.3595639,16.5291743 C85.2935015,16.2913835 85.181208,16.0800073 85.0226832,15.8950459 C84.8773547,15.7100991 84.6857951,15.5581725 84.4480043,15.4392661 C84.2234113,15.3203743 83.9393746,15.2609262 83.5958942,15.2609174 C83.2656131,15.2609262 82.9815779,15.3203743 82.7437841,15.4392661 C82.5059815,15.5449615 82.3078164,15.6902826 82.1492887,15.8752294 C81.9907522,16.0601908 81.8652476,16.2781725 81.7727749,16.5291743 C81.6935045,16.7669783 81.6340564,17.011382 81.5944263,17.2623853 L85.4982795,17.2623853 Z M96.9122817,15.7166972 C96.6480542,15.6506495 96.3375955,15.5845945 95.9809056,15.5185321 C95.6242025,15.4392734 95.2410832,15.3996404 94.8315478,15.399633 C94.6465892,15.3996404 94.4220021,15.4194569 94.1577863,15.4590826 C93.9067727,15.4855119 93.7152131,15.5185394 93.5831074,15.5581651 L93.5831074,23.5244037 L90.6304469,23.5244037 L90.6304469,13.6557798 C91.1588858,13.470836 91.7798032,13.2990928 92.4931991,13.1405505 C93.2198017,12.9688176 94.0256718,12.8829461 94.9108138,12.8829358 C95.0693401,12.8829461 95.2608997,12.8961615 95.4854927,12.9225688 C95.710074,12.9357945 95.9346612,12.9622121 96.1592542,13.0018349 C96.383834,13.0282672 96.6084212,13.0679002 96.8330157,13.1207339 C97.0575955,13.1603772 97.2491551,13.2132213 97.4076946,13.2792661 L96.9122817,15.7166972 Z M98.9905393,13.4576147 C99.4925547,13.3123039 100.139894,13.1801938 100.932558,13.0612844 C101.725214,12.9291846 102.557506,12.8631295 103.429438,12.8631193 C104.314569,12.8631295 105.04778,12.9820286 105.629071,13.2198165 C106.223558,13.4444139 106.692549,13.7680837 107.036044,14.1908257 C107.37952,14.6135868 107.623924,15.1156051 107.769255,15.6968807 C107.914566,16.2781725 107.987226,16.9255105 107.987237,17.6388991 L107.987237,23.5244037 L105.034576,23.5244037 L105.034576,17.9955963 C105.034569,17.0444095 104.909064,16.3706495 104.658062,15.9743119 C104.407046,15.577989 103.938055,15.3798239 103.25109,15.3798165 C103.039708,15.3798239 102.815121,15.3930422 102.577328,15.4194495 C102.339526,15.4326606 102.12815,15.4524844 101.9432,15.4788991 L101.9432,23.5244037 L98.9905393,23.5244037 L98.9905393,13.4576147 Z M110.183772,18.3919266 C110.183772,17.4671618 110.322488,16.6612917 110.599919,15.9743119 C110.89056,15.2741372 111.267074,14.6928528 111.72946,14.2304587 C112.191843,13.7680837 112.720283,13.4179919 113.314782,13.1801835 C113.922484,12.9423956 114.543401,12.8234965 115.177534,12.8234862 C116.65716,12.8234965 117.826334,13.2792763 118.685057,14.1908257 C119.543762,15.0891831 119.97312,16.4168881 119.97313,18.173945 C119.97312,18.3456925 119.96651,18.5372521 119.953314,18.7486239 C119.940088,18.9467934 119.926881,19.125142 119.913681,19.2836697 L113.215699,19.2836697 C113.281751,19.8913791 113.565786,20.3735809 114.067809,20.7302752 C114.569823,21.0869754 115.243583,21.2653226 116.089093,21.2653211 C116.630737,21.2653226 117.159178,21.219084 117.674415,21.1266055 C118.202846,21.0209204 118.632204,20.8954158 118.962488,20.7500917 L119.358818,23.1478899 C119.200277,23.227156 118.988901,23.306422 118.72469,23.3856881 C118.460461,23.4649541 118.163213,23.5310092 117.832947,23.5838532 C117.515875,23.6499083 117.172389,23.7027523 116.802488,23.7423853 C116.432574,23.7820183 116.062666,23.8018349 115.692763,23.8018349 C114.754777,23.8018349 113.935695,23.6631193 113.235515,23.3856881 C112.54854,23.1082569 111.973863,22.7317431 111.511479,22.2561468 C111.062303,21.7673409 110.725422,21.192662 110.500837,20.5321101 C110.28946,19.8715626 110.183772,19.1581695 110.183772,18.3919266 Z M117.119552,17.2623853 C117.106326,17.011382 117.060095,16.7669783 116.980837,16.5291743 C116.914774,16.2913835 116.802481,16.0800073 116.643956,15.8950459 C116.498627,15.7100991 116.307069,15.5581725 116.069277,15.4392661 C115.844684,15.3203743 115.560647,15.2609262 115.217167,15.2609174 C114.886887,15.2609262 114.602851,15.3203743 114.365057,15.4392661 C114.127254,15.5449615 113.929089,15.6902826 113.770561,15.8752294 C113.612025,16.0601908 113.486522,16.2781725 113.394048,16.5291743 C113.314779,16.7669783 113.255329,17.011382 113.215699,17.2623853 L117.119552,17.2623853 Z M122.152637,10.5049541 L125.105297,10.0293578 L125.105297,13.1009174 L128.652453,13.1009174 L128.652453,15.5581651 L125.105297,15.5581651 L125.105297,19.2242202 C125.105295,19.8451406 125.210981,20.3405534 125.422362,20.7104587 C125.646944,21.0803699 126.089513,21.2653226 126.750068,21.2653211 C127.067126,21.2653226 127.390796,21.2389006 127.721077,21.186055 C128.064558,21.1200029 128.375015,21.0341314 128.652453,20.9284404 L129.0686,23.227156 C128.711896,23.3724771 128.315565,23.4979817 127.879609,23.6036697 C127.44364,23.7093578 126.908594,23.7622018 126.274472,23.7622018 C125.468596,23.7622018 124.801441,23.6565138 124.273004,23.4451376 C123.744561,23.2205505 123.32181,22.9166972 123.004747,22.533578 C122.687681,22.1372492 122.463094,21.6616528 122.330986,21.106789 C122.212086,20.5519295 122.152637,19.9376176 122.152637,19.2638532 L122.152637,10.5049541 Z M130.155103,18.3919266 C130.155103,17.4671618 130.293817,16.6612917 130.57125,15.9743119 C130.861891,15.2741372 131.238404,14.6928528 131.700791,14.2304587 C132.163173,13.7680837 132.691614,13.4179919 133.286112,13.1801835 C133.893814,12.9423956 134.514732,12.8234965 135.148864,12.8234862 C136.62849,12.8234965 137.797663,13.2792763 138.656387,14.1908257 C139.515093,15.0891831 139.944451,16.4168881 139.944461,18.173945 C139.944451,18.3456925 139.937841,18.5372521 139.924644,18.7486239 C139.911419,18.9467934 139.898212,19.125142 139.885011,19.2836697 L133.18703,19.2836697 C133.25308,19.8913791 133.537117,20.3735809 134.03914,20.7302752 C134.541154,21.0869754 135.214914,21.2653226 136.060424,21.2653211 C136.602068,21.2653226 137.130509,21.219084 137.645745,21.1266055 C138.174177,21.0209204 138.603535,20.8954158 138.933819,20.7500917 L139.330149,23.1478899 C139.171606,23.227156 138.960232,23.306422 138.69602,23.3856881 C138.431791,23.4649541 138.134544,23.5310092 137.804277,23.5838532 C137.487206,23.6499083 137.14372,23.7027523 136.773819,23.7423853 C136.403903,23.7820183 136.033996,23.8018349 135.664094,23.8018349 C134.726106,23.8018349 133.907025,23.6631193 133.206846,23.3856881 C132.519871,23.1082569 131.945192,22.7317431 131.482809,22.2561468 C131.033634,21.7673409 130.696753,21.192662 130.472167,20.5321101 C130.26079,19.8715626 130.155103,19.1581695 130.155103,18.3919266 Z M137.090883,17.2623853 C137.077672,17.011382 137.031426,16.7669783 136.952167,16.5291743 C136.886105,16.2913835 136.773811,16.0800073 136.615286,15.8950459 C136.469958,15.7100991 136.278398,15.5581725 136.040608,15.4392661 C135.816015,15.3203743 135.531978,15.2609262 135.188497,15.2609174 C134.858216,15.2609262 134.574181,15.3203743 134.336387,15.4392661 C134.098585,15.5449615 133.90042,15.6902826 133.741892,15.8752294 C133.583355,16.0601908 133.457851,16.2781725 133.365378,16.5291743 C133.286108,16.7669783 133.226658,17.011382 133.18703,17.2623853 L137.090883,17.2623853 Z M145.215344,21.4040367 C145.756991,21.4040382 146.14011,21.3511941 146.364702,21.2455046 C146.589283,21.1398194 146.701576,20.9350488 146.701582,20.6311927 C146.701576,20.3933974 146.556255,20.1886268 146.265619,20.0168807 C145.974972,19.8319295 145.532404,19.6271604 144.937913,19.4025688 C144.475524,19.2308301 144.052772,19.0524815 143.669656,18.8675229 C143.299746,18.6825732 142.982682,18.4645916 142.718463,18.213578 C142.454241,17.9493637 142.249471,17.638905 142.104151,17.2822018 C141.958829,16.9255105 141.886168,16.4961541 141.886169,15.9941284 C141.886168,15.0165226 142.249471,14.2436785 142.976078,13.6755963 C143.70268,13.1075332 144.700111,12.8234965 145.968371,12.8234862 C146.602494,12.8234965 147.2102,12.8829461 147.791491,13.0018349 C148.372768,13.1075332 148.835153,13.2264323 149.178646,13.3585321 L148.663417,15.6572477 C148.319924,15.538356 147.94341,15.4326679 147.533876,15.3401835 C147.13754,15.2477152 146.688365,15.2014767 146.186353,15.2014679 C145.261578,15.2014767 144.799194,15.4590899 144.799197,15.9743119 C144.799194,16.0932183 144.819009,16.1989064 144.858646,16.2913761 C144.898275,16.3838606 144.977541,16.4763376 145.096445,16.5688073 C145.215339,16.6480807 145.373871,16.7405578 145.572041,16.8462385 C145.783413,16.9387215 146.047633,17.0444095 146.364702,17.1633028 C147.012035,17.4011068 147.547081,17.638905 147.969839,17.8766972 C148.392584,18.1012903 148.722859,18.352298 148.960665,18.6297248 C149.211667,18.8939494 149.383408,19.1911971 149.475894,19.5214679 C149.581573,19.8517461 149.634417,20.2348653 149.634426,20.6708257 C149.634417,21.7012859 149.244693,22.4807354 148.465252,23.0091743 C147.699008,23.5376147 146.609099,23.8018349 145.195527,23.8018349 C144.270754,23.8018349 143.49791,23.7225688 142.876995,23.5640367 C142.269287,23.4055046 141.846536,23.2733945 141.608738,23.1677064 L142.104151,20.7699083 C142.606168,20.9680763 143.121397,21.1266084 143.649839,21.2455046 C144.178277,21.3511941 144.700111,21.4040382 145.215344,21.4040367 Z" id="name" fill="#333333"></path>
            <g id="icon">
                <g id="svg2">
                    <g id="layer1" transform="translate(0.031346, 0.011526)">
                        <g id="g3052">
                            <path d="M16.2477775,0.0378235192 C15.9587708,0.0523942672 15.6756055,0.124109618 15.4148936,0.248762376 L4.04958921,5.68371113 C3.45370625,5.96852261 3.02089674,6.50717052 2.87366758,7.14719038 L0.0697703813,19.3554586 C-0.0610379692,19.9237371 0.0453977381,20.5203746 0.364840952,21.0095102 C0.403179918,21.0686962 0.444413115,21.1259849 0.488392669,21.1811707 L8.35500316,30.9701885 C8.76748376,31.4832992 9.39288296,31.7820683 10.0542027,31.7819394 L22.6695597,31.7790299 C23.3306321,31.7795121 23.9559872,31.4812994 24.3687592,30.9687337 L32.2324626,21.1782612 C32.6451639,20.6648933 32.79979,19.9928653 32.6525384,19.3525491 L29.8442806,7.14428088 C29.6970514,6.50426102 29.2642419,5.9656131 28.668359,5.68080163 L17.301601,0.248762376 C16.9736648,0.0919590943 16.6113049,0.01942724 16.2477775,0.0378235192 L16.2477775,0.0378235192 Z" id="path3055" fill="#326CE5"></path>
                            <path d="M16.3603944,4.19245756 C15.984706,4.19249573 15.6800885,4.53116589 15.6801332,4.94892794 C15.6801336,4.95533955 15.6814448,4.96146626 15.6815844,4.9678397 C15.6810309,5.02460338 15.6782912,5.0929883 15.6801332,5.14240979 C15.6890926,5.38336306 15.741573,5.56777844 15.7731603,5.78977387 C15.8303851,6.26491455 15.8783355,6.65877725 15.8487449,7.02485725 C15.8199674,7.16290262 15.7183729,7.28915217 15.6278054,7.37690692 L15.6118163,7.66494757 C15.2035749,7.6987988 14.7926027,7.76078608 14.3821134,7.85406517 C12.615778,8.25544509 11.0949944,9.16604411 9.93715865,10.3955147 C9.86202898,10.3442176 9.73059042,10.2498469 9.69150644,10.2209446 C9.57005156,10.2373598 9.44730034,10.2748654 9.28741965,10.1816663 C8.98299241,9.97657536 8.70572677,9.69347853 8.37022985,9.35245843 C8.21650337,9.18933129 8.10518054,9.03399557 7.92253657,8.87675493 C7.88105947,8.84104627 7.81776099,8.79274948 7.77136741,8.75601062 C7.62857628,8.64207129 7.46015895,8.58264996 7.29751024,8.57707628 C7.08839026,8.56991006 6.88707713,8.65173875 6.75533623,8.81711015 C6.52113055,9.11110387 6.59611464,9.5604552 6.92249444,9.82088816 C6.9258062,9.82352766 6.92933286,9.82557968 6.93266928,9.82816192 C6.97751861,9.86454791 7.03243907,9.91117023 7.0736636,9.94163248 C7.26747967,10.0848521 7.44452573,10.1581669 7.63764084,10.2718609 C8.04449519,10.5233261 8.38178243,10.7318349 8.64931137,10.983234 C8.75378182,11.0946875 8.77204119,11.2910788 8.78594504,11.3760167 L9.00397748,11.5709533 C7.83679249,13.328929 7.29660973,15.5003845 7.61583993,17.7129109 L7.3309442,17.7958317 C7.25585732,17.8928745 7.14975471,18.0455712 7.0387784,18.0911461 C6.68875761,18.2014842 6.29482892,18.2420021 5.81925028,18.2919017 C5.59597064,18.310483 5.40331741,18.2993943 5.16660651,18.3442727 C5.11450757,18.3541501 5.0419166,18.3730777 4.98491281,18.3864605 C4.98293133,18.3868795 4.98108009,18.387466 4.97909861,18.3879129 C4.9759915,18.3886345 4.97190947,18.3901428 4.96892376,18.3908224 C4.56797012,18.4877805 4.31039648,18.856622 4.39331811,19.2200304 C4.47625928,19.5835239 4.86790276,19.8045734 5.27126208,19.7175551 C5.27417383,19.7168894 5.27840191,19.7167777 5.28143693,19.7161027 C5.28599061,19.7150599 5.28999961,19.7128487 5.29451887,19.7117408 C5.35074682,19.6993877 5.42121119,19.6856437 5.47039838,19.6724625 C5.70312167,19.6101 5.8716683,19.5184703 6.08088921,19.4382476 C6.53099841,19.2766763 6.90379504,19.141701 7.26698569,19.0891074 C7.41867488,19.0772171 7.57849231,19.1827776 7.65799054,19.2273088 L7.95451466,19.1763925 C8.63687736,21.2937098 10.0668902,23.0050646 11.8776451,24.0789025 L11.7540933,24.3756716 C11.7986264,24.4909074 11.8477443,24.6468232 11.8145712,24.7606252 C11.682534,25.103304 11.4563715,25.4650025 11.1988374,25.8682459 C11.0741414,26.0545434 10.946523,26.1991195 10.8339964,26.4123227 C10.8070697,26.4633386 10.7727762,26.5417056 10.7467835,26.5956213 C10.5719463,26.9700094 10.7001936,27.4012133 11.0360398,27.5630305 C11.3739959,27.7258639 11.793489,27.5541232 11.9750329,27.1789763 C11.975312,27.1784456 11.9762283,27.1780546 11.9764841,27.1775239 C11.9766702,27.1771049 11.9762981,27.1764765 11.9764841,27.1760715 C12.0023424,27.1228834 12.0389765,27.0529707 12.06079,27.0029561 C12.1571722,26.7819727 12.1892424,26.5925972 12.2570192,26.378868 C12.4370091,25.9263759 12.5358993,25.4515969 12.783673,25.1557551 C12.8515214,25.0747438 12.9621368,25.043588 13.0768212,25.0128571 L13.2308974,24.733545 C14.8094867,25.3399689 16.5764644,25.5026989 18.3415778,25.1015969 C18.7442446,25.0100956 19.1329805,24.8916729 19.5087782,24.7495472 C19.5520814,24.82642 19.6325569,24.9741933 19.6541331,25.0114024 C19.7706771,25.0493506 19.8978848,25.0689472 20.0015315,25.2223412 C20.1869063,25.539313 20.3136795,25.9142979 20.4681209,26.36723 C20.5359089,26.5809555 20.5694098,26.7703394 20.6658037,26.9913181 C20.6877739,27.0416851 20.7242247,27.1125796 20.7501096,27.1658882 C20.9312716,27.5422539 21.352094,27.7145815 21.6905562,27.5513971 C22.026361,27.3894939 22.1547497,26.958329 21.9798125,26.5839879 C21.9538165,26.5300741 21.918075,26.4517038 21.891146,26.4006893 C21.7786082,26.1874922 21.6510103,26.0443578 21.526305,25.8580673 C21.2687495,25.4548374 21.0551373,25.1198593 20.923082,24.7771875 C20.8678652,24.6004495 20.9323977,24.4905322 20.9754097,24.3756763 C20.9496514,24.3461265 20.8945315,24.1792226 20.8620329,24.1007284 C22.7438517,22.9886862 24.1318711,21.2135118 24.7837097,19.1633044 C24.871732,19.1771499 25.0247217,19.2042404 25.0744196,19.2142207 C25.1767281,19.1466876 25.2707972,19.058573 25.4552496,19.0731098 C25.8184426,19.1256843 26.1912286,19.2607019 26.6413461,19.42225 C26.8505712,19.5024619 27.0191109,19.5955693 27.251837,19.6579196 C27.3010246,19.6710981 27.3714876,19.6833929 27.4277165,19.6957432 C27.4322376,19.6968511 27.4362424,19.699067 27.4407984,19.7001051 C27.4438357,19.7007847 27.4480615,19.7008918 27.4509733,19.7015575 C27.8543558,19.7884678 28.2460691,19.5675477 28.3289172,19.2040328 C28.4117458,18.840603 28.1542913,18.4716759 27.7533116,18.3748248 C27.6949868,18.3615515 27.6122707,18.3390086 27.5556288,18.3282728 C27.3189156,18.2834069 27.1262656,18.2944714 26.9029851,18.2759018 C26.4274041,18.2260269 26.0334833,18.1854656 25.6834569,18.0751462 C25.5407412,18.0197362 25.4392127,17.8497767 25.3898376,17.7798318 L25.1151167,17.6998205 C25.2575534,16.6684874 25.2191467,15.5951411 24.9726688,14.5211901 C24.723896,13.4372398 24.2842505,12.4458618 23.6979058,11.5724104 C23.7683762,11.5082947 23.9014581,11.3903496 23.9391951,11.3556525 C23.9502262,11.2334921 23.9407486,11.1054107 24.0671074,10.9701436 C24.3346229,10.7187305 24.6719371,10.5102571 25.078778,10.2587705 C25.271887,10.1450662 25.4504001,10.0717719 25.6442088,9.92854205 C25.6880362,9.89615301 25.7478829,9.84486059 25.7939244,9.80779773 C26.1202349,9.54727725 26.1953636,9.09795293 25.9610826,8.80401973 C25.7268015,8.51008652 25.2728154,8.48239971 24.946505,8.74292019 C24.9000583,8.77973586 24.8370338,8.82776219 24.7953358,8.86366451 C24.6127002,9.02091538 24.4999071,9.17623295 24.346189,9.339368 C24.0107102,9.68040579 23.7334157,9.96492338 23.4289992,10.1700307 C23.2970862,10.2468909 23.103871,10.2202966 23.0161887,10.2151279 L22.7574569,10.3998813 C21.2821017,8.85153445 19.2733725,7.86161078 17.110426,7.66931182 C17.1043764,7.57859496 17.096451,7.41461779 17.0944369,7.36526892 C17.0058886,7.28046742 16.8989208,7.20806925 16.8720438,7.02485725 C16.8424533,6.65877725 16.8918572,6.26491455 16.949082,5.78977387 C16.9806694,5.56777844 17.0331497,5.38336306 17.0421091,5.14240979 C17.0441464,5.08763528 17.0408765,5.00815329 17.0406579,4.94892794 C17.0406133,4.53116589 16.7360851,4.19241939 16.3603967,4.19245756 L16.3603944,4.19245756 Z M15.5086143,9.47320274 L15.3065709,13.0446158 L15.2920354,13.0518896 C15.2784841,13.3713924 15.0157466,13.6265161 14.693173,13.6265161 C14.5610367,13.6265161 14.439072,13.5840471 14.3399604,13.5115908 L14.3341462,13.5145003 L11.4081509,11.438571 C12.3074283,10.5535635 13.4576749,9.89954293 14.7832931,9.5983113 C15.0254423,9.54328541 15.2674837,9.50245603 15.5086143,9.47320274 L15.5086143,9.47320274 Z M17.213628,9.47320274 C18.7612965,9.66370851 20.1925912,10.3650846 21.2893811,11.4400257 L18.3822819,13.5028623 L18.372107,13.4985004 C18.1140752,13.6871147 17.750526,13.640316 17.549398,13.3879393 C17.4670075,13.2845491 17.4237778,13.1629818 17.4185785,13.0402539 L17.4156714,13.0388015 L17.213628,9.47320274 Z M10.3470596,12.7725774 L13.0186838,15.1641876 L13.0157767,15.1787351 C13.2569204,15.3885437 13.2924805,15.7526257 13.0913613,16.0050336 C13.0089764,16.1084279 12.8986983,16.177776 12.7803017,16.2101534 L12.7773946,16.2217914 L9.35283171,17.2110219 C9.17853227,15.6159089 9.5541681,14.0653322 10.3470596,12.7725774 L10.3470596,12.7725774 Z M22.354833,12.7740298 C22.7517846,13.4179635 23.0523763,14.1371727 23.2313234,14.9168777 C23.4081243,15.6872336 23.452495,16.456212 23.3795854,17.1993816 L19.93758,16.2072416 L19.9346729,16.1926941 C19.6264506,16.1083865 19.4370273,15.7945989 19.5087828,15.4798662 C19.5381808,15.3509348 19.6065646,15.2418625 19.6991978,15.1612758 L19.6977466,15.154002 L22.3548353,12.7740298 L22.354833,12.7740298 Z M15.8124062,15.3489386 L16.906929,15.3489386 L17.5871903,16.1999678 L17.3429939,17.2619359 L16.3603944,17.7347299 L15.3748877,17.2604811 L15.1306914,16.1985131 L15.8124062,15.3489386 Z M19.3212749,18.2613496 C19.3677871,18.2589987 19.4140965,18.2631931 19.4593622,18.2715329 L19.4651763,18.2642591 L23.0074767,18.8636164 C22.4890596,20.3213046 21.4970499,21.5841251 20.1716015,22.4292105 L18.7965435,19.105105 L18.8009019,19.099286 C18.6745891,18.8055432 18.8009949,18.4610783 19.0916118,18.3209944 C19.1660172,18.2851303 19.2437526,18.2652712 19.3212726,18.2613496 L19.3212749,18.2613496 Z M13.3718964,18.2758971 C13.6422213,18.2796911 13.884691,18.4674703 13.947502,18.7428721 C13.9769075,18.8718017 13.9625957,18.9995483 13.9140704,19.1123788 L13.9242452,19.1254716 L12.5637228,22.4161177 C11.2917083,21.5991949 10.2785442,20.3760204 9.73656881,18.8752568 L13.2483447,18.278809 L13.2541589,18.2860827 C13.2934401,18.2788481 13.3332785,18.2753571 13.3718964,18.2758995 L13.3718964,18.2758971 Z M16.3385911,19.7175574 C16.4327556,19.714094 16.5283038,19.7334307 16.6191262,19.7772022 C16.7381782,19.834579 16.8301458,19.9249206 16.8880329,20.0332383 L16.9011148,20.0332383 L18.6322924,23.1638619 C18.4076183,23.2392404 18.1766411,23.3036614 17.9404028,23.3573438 C16.6164154,23.6582049 15.2966347,23.5670453 14.1015783,23.1594977 L15.8283952,20.0346931 L15.8313023,20.0346931 C15.9349192,19.8408314 16.1314299,19.7251747 16.3385911,19.7175574 L16.3385911,19.7175574 Z" id="path3059" stroke="#FFFFFF" stroke-width="0.25" fill="#FFFFFF"></path>
                        </g>
                    </g>
                </g>
            </g>
        </g>
    </g>
</svg>