<svg height="32" viewBox="0 0 150 32" width="150" xmlns="http://www.w3.org/2000/svg"><g fill="none" fill-rule="evenodd"><path d="m47.0994496 16.866055c.2906375-.3170568.5878849-.6473321.8917431-.9908256.3170586-.3434789.6209115-.6803582.9115596-1.0106422.2906358-.3434775.5614612-.6671472.8124771-.9710092.264213-.303843.4887998-.5680631.6737615-.7926606h3.5075229c-.7001939.8058804-1.3871658 1.5787244-2.0609174 2.3185321-.6605589.7266129-1.3871638 1.4796389-2.1798166 2.2590826.396323.3567031.8058638.7860595 1.2286239 1.2880734.4227438.4888117.8322846.9974341 1.2286239 1.5258716.3963204.5284433.7596229 1.0568822 1.0899082 1.5853211.3302644.5284418.6076954 1.0106422.8322936 1.4466055h-3.3886239c-.2113837-.3434863-.4557873-.72-.733211-1.1295413-.2642271-.4227508-.5482635-.8388976-.8521101-1.2484404-.3038592-.4227493-.6275286-.8256851-.9710091-1.2088073-.3302803-.3831149-.6605552-.7067846-.9908257-.9710092v4.5577982h-2.9526606v-14.90201838l2.9526606-.47559633zm17.207856 6.3016514c-.5020287.1453211-1.1493681.2774312-1.9420184.3963303-.7926679.1321101-1.6249614.1981651-2.4968807.1981651-.8851435 0-1.6249585-.118899-2.2194496-.3566972-.5812873-.2377982-1.0436726-.5680734-1.3871565-.9908257-.343488-.4359618-.5878915-.9511912-.733211-1.5456881-.1453224-.5944925-.2179828-1.2484359-.2179817-1.9618348v-5.8062386h2.9526612v5.4495413c-.0000044.9511971.1255002 1.6381681.3765137 2.0609174.2510033.4227553.7199942.63413 1.4069725.6341285.2113688.0000015.435956-.0066055.6737615-.0198165.2377908-.0264206.449167-.0528426.6341284-.0792661v-8.0455046h2.9526606zm12.4813064-4.8550458c-.0000103.8322979-.1255149 1.585324-.3765138 2.2590825-.2378084.673763-.5879002 1.2484419-1.0502752 1.7240367-.4623941.4755963-1.0304675.8455046-1.7042202 1.1097248-.6737688.2510092-1.4400059.3765137-2.2987156.3765137-.3567016 0-.7332154-.0198165-1.1295413-.0594495-.3831236-.026422-.7662414-.066055-1.1493578-.1188991-.3699112-.052844-.7266084-.1122936-1.0700917-.1783486-.3434877-.0792661-.6473409-.1585321-.9115596-.2377982v-14.56513758l2.9526605-.47559633v5.19192661c.3302708-.1453108.6737571-.2576044 1.0304587-.3368807.3566914-.0792558.7398107-.1188888 1.1493578-.1188991.7398092.0000103 1.3937542.1321203 1.9618349.3963303.5680646.2510194 1.0436609.6143207 1.426789 1.0899082.383109.4756051.6737512 1.0502826.8719266 1.7240367.1981548.6605563.2972374 1.4003729.2972477 2.2194496zm-3.0121101-.0792661c-.0000073-1.902378-.7001908-2.8535706-2.1005505-2.853578-.303859.0000074-.6077108.0396404-.9115596.1188991-.2906466.0792734-.5284448.178356-.7133945.2972477v5.3702752c.1453167.0264235.3302708.0528455.5548624.0792661.2245828.013211.4689864.019818.733211.0198165.8058657.0000015 1.4135707-.2774283 1.8231193-.8322936.4095339-.5548594.6143046-1.288069.6143119-2.199633zm4.7859978.1585321c0-.9247648.1387156-1.7306349.4161468-2.4176147.2906407-.7001747.6671545-1.2814591 1.1295413-1.7438532.4623824-.462375.9908227-.8124668 1.5853211-1.0502752.607702-.2377879 1.2286194-.356687 1.8627523-.3566973 1.4796257.0000103 2.6487985.4557901 3.5075229 1.3673395.8587053.8983574 1.2880631 2.2260624 1.2880734 3.9831193-.0000103.1717475-.0066202.3633071-.0198165.5746789-.0132257.1981695-.0264323.3765181-.039633.5350458h-6.6979817c.0660506.6077094.3500873 1.0899112.8521101 1.4466055.5020139.3567002 1.1757739.5350474 2.0212844.5350459.541644.0000015 1.0700844-.0462371 1.5853211-.1387156.5284316-.1056851.9577894-.2311897 1.2880734-.3765138l.3963303 2.3977982c-.1585424.0792661-.3699171.1585321-.6341285.2377982-.264229.079266-.5614767.1453211-.8917431.1981651-.3170715.0660551-.6605578.1188991-1.0304587.1585321-.3699156.039633-.7398224.0594496-1.1097248.0594496-.9379875 0-1.7570686-.1387156-2.4572477-.4161468-.6869754-.2774312-1.2616543-.653945-1.7240367-1.1295413-.4491758-.4888059-.7860565-1.0634848-1.0106422-1.7240367-.2113761-.6605475-.3170642-1.3739406-.3170642-2.1401835zm6.9357798-1.1295413c-.013211-.2510033-.0594569-.495407-.1387156-.733211-.0660624-.2377908-.1783559-.449167-.3368807-.6341284-.1453285-.1849468-.3368881-.3368734-.5746789-.4557798-.224593-.1188918-.5086297-.1783399-.8521101-.1783487-.3302811.0000088-.6143163.0594569-.8521101.1783487-.2378026.1056954-.4359677.2510165-.5944954.4359633-.1585365.1849614-.2840411.4029431-.3765138.6539449-.0792704.237804-.1387185.4822077-.1783486.733211zm11.4140022-1.5456881c-.2642275-.0660477-.5746862-.1321027-.9313761-.1981651-.3567031-.0792587-.7398224-.1188917-1.1493578-.1188991-.1849586.0000074-.4095457.0198239-.6737615.0594496-.2510136.0264293-.4425732.0594568-.5746789.0990825v7.9662386h-2.9526605v-9.8686239c.5284389-.1849438 1.1493563-.356687 1.8627522-.5152293.7266026-.1717329 1.5324727-.2576044 2.4176147-.2576147.1585263.0000103.3500859.0132257.5746789.039633.2245813.0132257.4491685.0396433.6737615.0792661.2245798.0264323.449167.0660653.6737615.118899.2245798.0396433.4161394.0924874.5746789.1585322zm2.0782576-2.2590825c.5020154-.1453108 1.1493547-.2774209 1.9420187-.3963303.792656-.1320998 1.624948-.1981549 2.49688-.1981651.885131.0000102 1.618342.1189093 2.199633.3566972.594487.2245974 1.063478.5482672 1.406973.9710092.343476.4227611.58788.9247794.733211 1.506055.145311.5812918.217971 1.2286298.217982 1.9420184v5.8855046h-2.952661v-5.5288074c-.000007-.9511868-.125512-1.6249468-.376514-2.0212844-.251016-.3963229-.720007-.594488-1.406972-.5944954-.211382.0000074-.435969.0132257-.673762.039633-.237802.0132111-.449178.0330349-.634128.0594496v8.0455046h-2.9526607zm11.1932327 4.9343119c0-.9247648.138716-1.7306349.416147-2.4176147.290641-.7001747.667155-1.2814591 1.129541-1.7438532.462383-.462375.990823-.8124668 1.585322-1.0502752.607702-.2377879 1.228619-.356687 1.862752-.3566973 1.479626.0000103 2.6488.4557901 3.507523 1.3673395.858705.8983574 1.288063 2.2260624 1.288073 3.9831193-.00001.1717475-.00662.3633071-.019816.5746789-.013226.1981695-.026433.3765181-.039633.5350458h-6.697982c.066052.6077094.350087 1.0899112.85211 1.4466055.502014.3567002 1.175774.5350474 2.021284.5350459.541644.0000015 1.070085-.0462371 1.585322-.1387156.528431-.1056851.957789-.2311897 1.288073-.3765138l.39633 2.3977982c-.158541.0792661-.369917.1585321-.634128.2377982-.264229.079266-.561477.1453211-.891743.1981651-.317072.0660551-.660558.1188991-1.030459.1585321-.369914.039633-.739822.0594496-1.109725.0594496-.937986 0-1.757068-.1387156-2.457248-.4161468-.686975-.2774312-1.261652-.653945-1.724036-1.1295413-.449176-.4888059-.786057-1.0634848-1.010642-1.7240367-.211377-.6605475-.317065-1.3739406-.317065-2.1401835zm6.93578-1.1295413c-.013226-.2510033-.059457-.495407-.138715-.733211-.066063-.2377908-.178356-.449167-.336881-.6341284-.145329-.1849468-.336887-.3368734-.574679-.4557798-.224593-.1188918-.50863-.1783399-.85211-.1783487-.33028.0000088-.614316.0594569-.85211.1783487-.237803.1056954-.435968.2510165-.594496.4359633-.158536.1849614-.284039.4029431-.376513.6539449-.079269.237804-.138719.4822077-.178349.733211zm5.033085-6.7574312 2.95266-.4755963v3.0715596h3.547156v2.4572477h-3.547156v3.6660551c-.000002.6209204.105684 1.1163332.317065 1.4862385.224582.3699112.667151.5548639 1.327706.5548624.317058.0000015.640728-.0264205.971009-.0792661.343481-.0660521.653938-.1519236.931376-.2576146l.416147 2.2987156c-.356704.1453211-.753035.2708257-1.188991.3765137-.435969.1056881-.971015.1585321-1.605137.1585321-.805876 0-1.473031-.105688-2.001468-.3170642-.528443-.2245871-.951194-.5284404-1.268257-.9115596-.317066-.3963288-.541653-.8719252-.673761-1.426789-.1189-.5548595-.178349-1.1691714-.178349-1.8429358zm8.002466 7.8869725c0-.9247648.138714-1.7306349.416147-2.4176147.290641-.7001747.667154-1.2814591 1.129541-1.7438532.462382-.462375.990823-.8124668 1.585321-1.0502752.607702-.2377879 1.22862-.356687 1.862752-.3566973 1.479626.0000103 2.648799.4557901 3.507523 1.3673395.858706.8983574 1.288064 2.2260624 1.288074 3.9831193-.00001.1717475-.00662.3633071-.019817.5746789-.013225.1981695-.026432.3765181-.039633.5350458h-6.697981c.06605.6077094.350087 1.0899112.85211 1.4466055.502014.3567002 1.175774.5350474 2.021284.5350459.541644.0000015 1.070085-.0462371 1.585321-.1387156.528432-.1056851.95779-.2311897 1.288074-.3765138l.39633 2.3977982c-.158543.0792661-.369917.1585321-.634129.2377982-.264229.079266-.561476.1453211-.891743.1981651-.317071.0660551-.660557.1188991-1.030458.1585321-.369916.039633-.739823.0594496-1.109725.0594496-.937988 0-1.757069-.1387156-2.457248-.4161468-.686975-.2774312-1.261654-.653945-1.724037-1.1295413-.449175-.4888059-.786056-1.0634848-1.010642-1.7240367-.211377-.6605475-.317064-1.3739406-.317064-2.1401835zm6.93578-1.1295413c-.013211-.2510033-.059457-.495407-.138716-.733211-.066062-.2377908-.178356-.449167-.336881-.6341284-.145328-.1849468-.336888-.3368734-.574678-.4557798-.224593-.1188918-.50863-.1783399-.852111-.1783487-.330281.0000088-.614316.0594569-.85211.1783487-.237802.1056954-.435967.2510165-.594495.4359633-.158537.1849614-.284041.4029431-.376514.6539449-.07927.237804-.13872.4822077-.178348.733211zm8.124461 4.1416514c.541647.0000015.924766-.0528426 1.149358-.1585321.224581-.1056852.336874-.3104558.33688-.6143119-.000006-.2377953-.145327-.4425659-.435963-.614312-.290647-.1849512-.733215-.3897203-1.327706-.6143119-.462389-.1717387-.885141-.3500873-1.268257-.5350459-.36991-.1849497-.686974-.4029313-.951193-.6539449-.264222-.2642143-.468992-.574673-.614312-.9313762-.145322-.3566913-.217983-.7860477-.217982-1.2880734-.000001-.9776058.363302-1.7504499 1.089909-2.3185321.726602-.5680631 1.724033-.8520998 2.992293-.8521101.634123.0000103 1.241829.0594599 1.82312.1783487.581277.1056983 1.043662.2245974 1.387155.3566972l-.515229 2.2987156c-.343493-.1188917-.720007-.2245798-1.129541-.3170642-.396336-.0924683-.845511-.1387068-1.347523-.1387156-.924775.0000088-1.387159.257622-1.387156.772844-.000003.1189064.019812.2245945.059449.3170642.039629.0924845.118895.1849615.237799.2774312.118894.0792734.277426.1717505.475596.2774312.211372.092483.475592.198171.792661.3170643.647333.237804 1.182379.4756022 1.605137.7133944.422745.2245931.75302.4756008.990826.7530276.251002.2642246.422743.5614723.515229.8917431.105679.3302782.158523.7133974.158532 1.1493578-.000009 1.0304602-.389733 1.8099097-1.169174 2.3383486-.766244.5284404-1.856153.7926606-3.269725.7926606-.924773 0-1.697617-.0792661-2.318532-.2377982-.607708-.1585321-1.030459-.2906422-1.268257-.3963303l.495413-2.3977981c.502017.198168 1.017246.3567001 1.545688.4755963.528438.1056895 1.050272.1585336 1.565505.1585321z" fill="#333"/><g transform="translate(.031346 .011526)"><path d="m16.2477775.03782352c-.2890067.01457075-.572172.0862861-.8328839.21093886l-11.36530439 5.43494875c-.59588296.28481148-1.02869247.82345939-1.17592163 1.46347925l-2.8038972 12.20826822c-.13080835.5682785-.02437264 1.164916.29507057 1.6540516.03833897.059186.07957217.1164747.12355172.1716605l7.86661049 9.7890178c.4124806.5131107 1.0378798.8118798 1.69919954.8117509l12.615357-.0029095c.6610724.0004822 1.2864275-.2977305 1.6991995-.8102962l7.8637034-9.7904725c.4127013-.5133679.5673274-1.1853959.4200758-1.8257121l-2.8082578-12.20826822c-.1472292-.64001986-.5800387-1.17866778-1.1759216-1.46347925l-11.366758-5.43203925c-.3279362-.15680329-.6902961-.22933514-1.0538235-.21093886z" fill="#326ce5"/><path d="m16.3603944 4.19245756c-.3756884.00003817-.6803059.33870833-.6802612.75647038.0000004.00641161.0013116.01253832.0014512.01891176-.0005535.05676368-.0032932.1251486-.0014512.17457009.0089594.24095327.0614398.42536865.0930271.64736408.0572248.47514068.1051752.86900338.0755846 1.23508338-.0287775.13804537-.130372.26429492-.2209395.35204967l-.0159891.28804065c-.4082414.03385123-.8192136.09583851-1.2297029.1891176-1.7663354.40137992-3.287119 1.31197894-4.44495475 2.54144953-.07512967-.0512971-.20656823-.1456678-.24565221-.1745701-.12145488.0164152-.2442061.0539208-.40408679-.0392783-.30442724-.20509094-.58169288-.48818777-.9171898-.82920787-.15372648-.16312714-.26504931-.31846286-.44769328-.4757035-.0414771-.03570866-.10477558-.08400545-.15116916-.12074431-.14279113-.11393933-.31120846-.17336066-.47385717-.17893434-.20911998-.00716622-.41043311.07466247-.54217401.24003387-.23420568.29399372-.15922159.74334505.16715821 1.00377801.00331176.0026395.00683842.00469152.01017484.00727376.04484933.03638599.09976979.08300831.14099432.11347056.19381607.14321962.37086213.21653442.56397724.33022842.40685435.2514652.74414159.459974 1.01167053.7113731.10447045.1114535.12272982.3078448.13663367.3927827l.21803244.1949366c-1.16718499 1.7579757-1.70736775 3.9294312-1.38813755 6.1419576l-.28489573.0829208c-.07508688.0970428-.18118949.2497395-.2921658.2953144-.35002079.1103381-.74394948.150856-1.21952812.2007556-.22327964.0185813-.41593287.0074926-.65264377.052371-.05209894.0098774-.12468991.028805-.1816937.0421878-.00198148.000419-.00383272.0010055-.0058142.0014524-.00310711.0007216-.00718914.0022299-.01017485.0029095-.40095364.0969581-.65852728.4657996-.57560565.829208.08294117.3634935.47458465.584543.87794397.4975247.00291175-.0006657.00713983-.0007774.01017485-.0014524.00455368-.0010428.00856268-.003254.01308194-.0043619.05622795-.0123531.12669232-.0260971.17587951-.0392783.23272329-.0623625.40126992-.1539922.61049083-.2342149.4501092-.1615713.82290583-.2965466 1.18609648-.3491402.15168919-.0118903.31150662.0936702.39100485.1382014l.29652412-.0509163c.6823627 2.1173173 2.11237554 3.8286721 3.92313044 4.90251l-.1235518.2967691c.0445331.1152358.093651.2711516.0604779.3849536-.1320372.3426788-.3581997.7043773-.6157338 1.1076207-.124696.1862975-.2523144.3308736-.364841.5440768-.0269267.0510159-.0612202.1293829-.0872129.1832986-.1748372.3743881-.0465899.805592.2892563.9674092.3379561.1628334.7574492-.0089073.9389931-.3840542.0002791-.0005307.0011954-.0009217.0014512-.0014524.0001861-.000419-.000186-.0010474 0-.0014524.0258583-.0531881.0624924-.1231008.0843059-.1731154.0963822-.2209834.1284524-.4103589.1962292-.6240881.1799899-.4524921.2788801-.9272711.5266538-1.2231129.0678484-.0810113.1784638-.1121671.2931482-.142898l.1540762-.2793121c1.5785893.6064239 3.345567.7691539 5.1106804.3680519.4026668-.0915013.7914027-.209924 1.1672004-.3520497.0433032.0768728.1237787.2246461.1453549.2618552.116544.0379482.2437517.0575448.3473984.2109388.1853748.3169718.312148.6919567.4665894 1.1448888.067788.2137255.1012889.4031094.1976828.6240881.0219702.050367.058421.1212615.0843059.1745701.181162.3763657.6019844.5486933.9404466.3855089.3358048-.1619032.4641935-.5930681.2892563-.9674092-.025996-.0539138-.0617375-.1322841-.0886665-.1832986-.1125378-.2131971-.2401357-.3563315-.364841-.542622-.2575555-.4032299-.4711677-.738208-.603223-1.0808798-.0552168-.176738.0093157-.2866553.0523277-.4015112-.0257583-.0295498-.0808782-.1964537-.1133768-.2749479 1.8818188-1.1120422 3.2698382-2.8872166 3.9216768-4.937424.0880223.0138455.241012.040936.2907099.0509163.1023085-.0675331.1963776-.1556477.38083-.1411109.363193.0525745.735979.1875921 1.1860965.3491402.2092251.0802119.3777648.1733193.6104909.2356696.0491876.0131785.1196506.0254733.1758795.0378236.0045211.0011079.0085259.0033238.0130819.0043619.0030373.0006796.0072631.0007867.0101749.0014524.4033825.0869103.7950958-.1340098.8779439-.4975247.0828286-.3634298-.1746259-.7323569-.5756056-.829208-.0583248-.0132733-.1410409-.0358162-.1976828-.046552-.2367132-.0448659-.4293632-.0338014-.6526437-.052371-.475581-.0498749-.8695018-.0904362-1.2195282-.2007556-.1427157-.05541-.2442442-.2253695-.2936193-.2953144l-.2747209-.0800113c.1424367-1.0313331.10403-2.1046794-.1424479-3.1786304-.2487728-1.0839503-.6884183-2.0753283-1.274763-2.9487797.0704704-.0641157.2035523-.1820608.2412893-.2167579.0110311-.1221604.0015535-.2502418.1279123-.3855089.2675155-.2514131.6048297-.4598865 1.0116706-.7113731.193109-.1137043.3716221-.1869986.5654308-.33022845.0438274-.03238904.1036741-.08368146.1497156-.12074432.3263105-.26052048.4014392-.7098448.1671582-1.003778-.2342811-.29393321-.6882672-.32162002-1.0145776-.06109954-.0464467.03681567-.1094712.084842-.1511692.12074432-.1826356.15725087-.2954287.31256844-.4491468.47570349-.3354788.34103779-.6127733.62555538-.9171898.8306627-.131913.0768602-.3251282.0502659-.4128105.0450972l-.2587318.1847534c-1.4753552-1.54834685-3.4840844-2.53827052-5.6470309-2.73056948-.0060496-.09071686-.013975-.25469403-.0159891-.3040429-.0885483-.0848015-.1955161-.15719967-.2223931-.34041167-.0295905-.36608.0198134-.7599427.0770382-1.23508338.0315874-.22199543.0840677-.40641081.0930271-.64736408.0020373-.05477451-.0012326-.1342565-.0014512-.19348185-.0000446-.41776205-.3045728-.75650855-.6802612-.75647038zm-.8517801 5.28074518-.2020434 3.57141306-.0145355.0072738c-.0135513.3195028-.2762888.5746265-.5988624.5746265-.1321363 0-.254101-.042469-.3532126-.1149253l-.0058142.0029095-2.9259953-2.0759293c.8992774-.8850075 2.049524-1.53902807 3.3751422-1.8402597.2421492-.05502589.4841906-.09585527.7253212-.12510856zm1.7050137 0c1.5476685.19050577 2.9789632.89188186 4.0757531 1.96682296l-2.9070992 2.0628366-.0101749-.0043619c-.2580318.1886143-.621581.1418156-.822709-.1105611-.0823905-.1033902-.1256202-.2249575-.1308195-.3476854l-.0029071-.0014524zm-6.8665684 3.29937466 2.6716242 2.3916102-.0029071.0145475c.2411437.2098086.2767038.5738906.0755846.8262985-.0823849.1033943-.192663.1727424-.3110596.2051198l-.0029071.011638-3.42456289.9892305c-.17429944-1.595113.20133639-3.1456897.99422789-4.4384445zm12.0077734.0014524c.3969516.6439337.6975433 1.3631429.8764904 2.1428479.1768009.7703559.2211716 1.5393343.148262 2.2825039l-3.4420054-.99214-.0029071-.0145475c-.3082223-.0843076-.4976456-.3980952-.4258901-.7128279.029398-.1289314.0977818-.2380037.190415-.3185904l-.0014512-.0072738 2.6570887-2.3799722zm-6.5424268 2.5749088h1.0945228l.6802613.8510292-.2441964 1.0619681-.9825995.472794-.9855067-.4742488-.2441963-1.061968zm3.5088687 2.912411c.0465122-.0023509.0928216.0018435.1380873.0101833l.0058141-.0072738 3.5423004.5993573c-.5184171 1.4576882-1.5104268 2.7205087-2.8358752 3.5655941l-1.375058-3.3241055.0043584-.005819c-.1263128-.2937428.000093-.6382077.2907099-.7782916.0744054-.0358641.1521408-.0557232.2296608-.0596448zm-5.9493785.0145475c.2703249.003794.5127946.1915732.5756056.466975.0294055.1289296.0150937.2566762-.0334316.3695067l.0101748.0130928-1.3605224 3.2906461c-1.2720145-.8169228-2.2851786-2.0400973-2.82715399-3.5408609l3.51177589-.5964478.0058142.0072737c.0392812-.0072346.0791196-.0107256.1177375-.0101832zm2.9666947 1.4416603c.0941645-.0034634.1897127.0158733.2805351.0596448.119052.0573768.2110196.1477184.2689067.2560361h.0130819l1.7311776 3.1306236c-.2246741.0753785-.4556513.1397995-.6918896.1934819-1.3239874.3008611-2.6437681.2097015-3.8388245-.1978461l1.7268169-3.1248046h.0029071c.1036169-.1938617.3001276-.3095184.5072888-.3171357z" fill="#fff" stroke="#fff" stroke-width=".25"/></g></g></svg>