<svg xmlns="http://www.w3.org/2000/svg" xmlns:xlink="http://www.w3.org/1999/xlink" preserveAspectRatio="xMidYMid" width="82" height="24" viewBox="0 0 82 24">
  <defs>
    <style>

      .cls-3 {
        fill: #393e40;
      }

      .cls-4 {
        fill: #8a9399;
      }
    </style>
  </defs>
  <g id="logo-othersvg">
    <path d="M78.088,13.626 C78.088,13.626 78.088,19.333 78.088,19.333 C78.088,19.333 76.305,19.333 76.305,19.333 C76.305,19.333 76.305,9.718 76.305,9.718 C76.305,9.718 77.709,9.718 77.709,9.718 C77.709,9.718 78.016,11.681 78.016,11.681 C78.736,10.583 79.888,9.592 81.527,9.520 C81.527,9.520 81.814,11.213 81.814,11.213 C80.158,11.285 78.754,12.365 78.088,13.626 ZM69.898,18.019 C71.321,18.019 72.401,17.479 73.481,16.651 C73.481,16.651 73.734,18.235 73.734,18.235 C72.689,19.045 71.393,19.531 69.772,19.531 C67.161,19.531 65.163,18.019 65.163,14.490 C65.163,11.411 67.036,9.520 69.538,9.520 C72.419,9.520 73.751,11.681 73.751,14.328 C73.751,14.328 73.751,14.706 73.751,14.706 C73.751,14.706 66.946,14.706 66.946,14.706 C67.017,16.975 68.115,18.019 69.898,18.019 ZM71.951,13.374 C71.753,11.807 70.997,10.907 69.520,10.907 C68.314,10.907 67.324,11.735 67.036,13.374 C67.036,13.374 71.951,13.374 71.951,13.374 ZM60.881,12.779 C60.881,11.771 60.413,11.105 59.297,11.105 C58.288,11.105 57.280,11.735 56.344,12.671 C56.344,12.671 56.344,19.333 56.344,19.333 C56.344,19.333 54.561,19.333 54.561,19.333 C54.561,19.333 54.561,5.055 54.561,5.055 C54.561,5.055 56.344,4.785 56.344,4.785 C56.344,4.785 56.344,10.997 56.344,10.997 C57.190,10.277 58.343,9.520 59.747,9.520 C61.655,9.520 62.663,10.601 62.663,12.347 C62.663,12.347 62.663,19.333 62.663,19.333 C62.663,19.333 60.881,19.333 60.881,19.333 C60.881,19.333 60.881,12.779 60.881,12.779 ZM50.998,17.929 C51.340,17.929 51.647,17.911 51.880,17.857 C51.880,17.857 52.114,19.369 52.114,19.369 C51.808,19.441 51.359,19.495 50.710,19.495 C48.999,19.495 47.865,18.883 47.865,16.957 C47.865,16.957 47.865,11.213 47.865,11.213 C47.865,11.213 46.353,11.213 46.353,11.213 C46.353,11.213 46.353,9.718 46.353,9.718 C46.353,9.718 47.865,9.718 47.865,9.718 C47.865,9.718 47.865,6.514 47.865,6.514 C47.865,6.514 49.594,6.244 49.594,6.244 C49.594,6.244 49.594,9.718 49.594,9.718 C49.594,9.718 51.791,9.718 51.791,9.718 C51.791,9.718 52.024,11.213 52.024,11.213 C52.024,11.213 49.594,11.213 49.594,11.213 C49.594,11.213 49.594,16.651 49.594,16.651 C49.594,17.443 49.954,17.929 50.998,17.929 ZM38.381,19.586 C34.582,19.586 32.169,16.867 32.169,12.833 C32.169,8.782 34.618,6.045 38.417,6.045 C42.234,6.045 44.647,8.764 44.647,12.797 C44.647,16.813 42.198,19.586 38.381,19.586 ZM38.399,7.702 C35.698,7.702 34.024,9.682 34.024,12.815 C34.024,15.930 35.716,17.929 38.399,17.929 C41.118,17.929 42.792,15.930 42.792,12.815 C42.792,9.682 41.100,7.702 38.399,7.702 Z" id="path-1" class="cls-3" fill-rule="evenodd"/>
    <path d="M22.000,24.000 C22.000,24.000 2.000,24.000 2.000,24.000 C0.895,24.000 -0.000,23.105 -0.000,22.000 C-0.000,22.000 -0.000,2.000 -0.000,2.000 C-0.000,0.895 0.895,-0.000 2.000,-0.000 C2.000,-0.000 22.000,-0.000 22.000,-0.000 C23.105,-0.000 24.000,0.895 24.000,2.000 C24.000,2.000 24.000,22.000 24.000,22.000 C24.000,23.105 23.105,24.000 22.000,24.000 ZM8.000,19.000 C8.000,19.000 16.000,19.000 16.000,19.000 C16.000,19.000 16.000,17.000 16.000,17.000 C16.000,17.000 8.000,17.000 8.000,17.000 C8.000,17.000 8.000,19.000 8.000,19.000 ZM14.000,15.000 C14.000,15.000 14.000,13.000 14.000,13.000 C14.000,13.000 10.000,13.000 10.000,13.000 C10.000,13.000 10.000,15.000 10.000,15.000 C10.000,15.000 14.000,15.000 14.000,15.000 ZM4.000,19.000 C4.000,19.000 6.000,19.000 6.000,19.000 C6.000,19.000 6.000,17.000 6.000,17.000 C6.000,17.000 4.000,17.000 4.000,17.000 C4.000,17.000 4.000,19.000 4.000,19.000 ZM4.000,15.000 C4.000,15.000 8.000,15.000 8.000,15.000 C8.000,15.000 8.000,13.000 8.000,13.000 C8.000,13.000 4.000,13.000 4.000,13.000 C4.000,13.000 4.000,15.000 4.000,15.000 ZM4.000,11.000 C4.000,11.000 6.000,11.000 6.000,11.000 C6.000,11.000 6.000,9.000 6.000,9.000 C6.000,9.000 4.000,9.000 4.000,9.000 C4.000,9.000 4.000,11.000 4.000,11.000 ZM8.000,5.000 C8.000,5.000 4.000,5.000 4.000,5.000 C4.000,5.000 4.000,7.000 4.000,7.000 C4.000,7.000 8.000,7.000 8.000,7.000 C8.000,7.000 8.000,5.000 8.000,5.000 ZM14.000,5.000 C14.000,5.000 10.000,5.000 10.000,5.000 C10.000,5.000 10.000,7.000 10.000,7.000 C10.000,7.000 14.000,7.000 14.000,7.000 C14.000,7.000 14.000,5.000 14.000,5.000 ZM16.000,9.000 C16.000,9.000 8.000,9.000 8.000,9.000 C8.000,9.000 8.000,11.000 8.000,11.000 C8.000,11.000 16.000,11.000 16.000,11.000 C16.000,11.000 16.000,9.000 16.000,9.000 ZM20.000,9.000 C20.000,9.000 18.000,9.000 18.000,9.000 C18.000,9.000 18.000,11.000 18.000,11.000 C18.000,11.000 20.000,11.000 20.000,11.000 C20.000,11.000 20.000,9.000 20.000,9.000 ZM20.000,13.000 C20.000,13.000 16.000,13.000 16.000,13.000 C16.000,13.000 16.000,15.000 16.000,15.000 C16.000,15.000 20.000,15.000 20.000,15.000 C20.000,15.000 20.000,13.000 20.000,13.000 Z" id="path-2" class="cls-4" fill-rule="evenodd"/>
  </g>
</svg>
