<svg height="24" preserveAspectRatio="xMidYMid" viewBox="0 0 89 24" width="89" xmlns="http://www.w3.org/2000/svg"><g fill-rule="evenodd"><path d="m81.243 14.122c.072 2.268 1.171 3.313 2.953 3.313 1.423 0 2.503-.541 3.583-1.369 0 0 .252 1.585.252 1.585-1.044.81-2.34 1.296-3.961 1.296-2.611 0-4.609-1.512-4.609-5.041 0-3.079 1.872-4.97 4.375-4.97 2.881 0 4.213 2.161 4.213 4.808v.378zm2.575-3.799c-1.206 0-2.197.828-2.485 2.466h4.916c-.198-1.566-.954-2.466-2.431-2.466zm-9.208 7.076c1.009 0 1.999-.27 2.989-1.081 0 0 .252 1.639.252 1.639-.918.666-1.998.99-3.403.99-2.665 0-4.627-1.8-4.627-4.987 0-3.277 2.088-5.024 4.753-5.024 1.423 0 2.485.414 3.187.882 0 0-.27 1.729-.27 1.729-.882-.666-1.8-1.062-2.953-1.062-1.728 0-2.917 1.224-2.917 3.439 0 2.358 1.279 3.475 2.989 3.475zm-9.07-4.358v5.708h-1.783v-9.615h1.404s.306 1.963.306 1.963c.721-1.099 1.873-2.089 3.512-2.161 0 0 .288 1.693.288 1.693-1.657.072-3.061 1.152-3.727 2.412zm-6.013 4.322c-.972.846-2.161 1.584-3.547 1.584-1.927 0-2.917-1.08-2.917-2.827v-6.986h1.782v6.554c0 1.008.469 1.675 1.585 1.675 1.008 0 2.017-.631 2.953-1.567v-6.662h1.782v9.615h-1.404s-.234-1.386-.234-1.386zm-13.053 1.584c-2.647 0-4.573-1.836-4.573-4.987 0-3.169 1.944-5.024 4.573-5.024 2.665 0 4.628 1.855 4.628 5.024 0 3.151-1.981 4.987-4.628 4.987zm0-8.534c-1.818 0-2.773 1.494-2.773 3.547 0 1.98.991 3.511 2.773 3.511 1.855 0 2.827-1.477 2.827-3.511 0-1.999-1.026-3.547-2.827-3.547zm-6.021 4.807c0 2.251-1.746 3.673-4.285 3.673-1.458 0-2.773-.324-3.763-.846 0 0 .27-1.837.27-1.837.9.594 2.179 1.117 3.547 1.117 1.422 0 2.449-.703 2.449-1.963 0-1.188-.558-1.674-2.611-2.557-2.557-1.116-3.511-1.926-3.511-3.799 0-2.107 1.656-3.457 4.105-3.457 1.315 0 2.287.306 3.079.738 0 0-.288 1.801-.288 1.801-.756-.54-1.765-.972-2.863-.972-1.548 0-2.251.792-2.251 1.746 0 .99.523 1.459 2.593 2.377 2.611 1.152 3.529 2.016 3.529 3.979z" fill="#393e40"/><path d="m22 24h-20c-1.105 0-2-.895-2-2v-20c0-1.105.895-2 2-2h20c1.105 0 2 .895 2 2v20c0 1.105-.895 2-2 2zm-14-5h8v-2h-8zm6-4v-2h-4v2zm-10 4h2v-2h-2zm0-4h4v-2h-4zm0-4h2v-2h-2zm4-6h-4v2h4zm6 0h-4v2h4zm2 4h-8v2h8zm4 0h-2v2h2zm0 4h-4v2h4z" fill="#8a9399"/></g></svg>