<svg height="22" viewBox="0 0 98 22" width="98" xmlns="http://www.w3.org/2000/svg"><g fill="none" fill-rule="evenodd"><path d="m91.6086875.11721875c3.2209375 0 5.8320625 2.611125 5.8320625 5.8320625s-2.611125 5.83206255-5.8320625 5.83206255-5.8320625-2.61112505-5.8320625-5.83206255 2.611125-5.8320625 5.8320625-5.8320625" fill="#dd4813"/><path d="m92.9744063 3.46465625c.3348124.19284375.7634687.07871875.9563124-.257125.1935313-.33378125.0787188-.76278125-.2560937-.95596875-.3355-.1931875-.7634688-.07871875-.957.2564375-.1928437.3348125-.0787188.763125.2567813.95665625m-1.4344688 4.53028125c-.3076563 0-.5998438-.06771875-.8617812-.19009375l-.4864063.87209375c.4059687.202125.8641875.314875 1.3481875.314875.2815313 0 .554125-.03815625.8133125-.11.0460625-.281875.213125-.540375.4791875-.69471875.2664063-.15365625.5737187-.1684375.8404687-.06703125.5180313-.510125.8549063-1.203125.9044063-1.9751875l-.9985938-.01409375c-.092125 1.045-.9690312 1.86415625-2.0387812 1.86415625m0-4.093375c1.06975 0 1.9466562.81984375 2.0387812 1.8665625l.9985938-.01615625c-.0495-.771375-.386375-1.464375-.9044063-1.9738125-.26675.10003125-.5747499.0859375-.8404687-.06840625-.2657187-.15365625-.433125-.41215625-.4791875-.694375-.2591875-.07115625-.5317812-.1106875-.8133125-.1106875-.484 0-.9422188.114125-1.3481875.3155625l.4864063.87209375c.2619374-.122375.5544687-.19078125.8617812-.19078125m-2.046 2.04771875c0-.693.3430625-1.30521875.8693437-1.67509375l-.5114999-.8586875c-.6132501.40940625-1.0697501 1.0360625-1.2595001 1.769625.2220626.18046875.3626563.455125.3626563.76415625 0 .30696875-.14025.58128125-.3626563.76278125.18975.73321875.64625 1.35953125 1.2595001 1.7689375l.5114999-.858c-.5262812-.369875-.8693437-.98140625-.8693437-1.67371875m3.4804688 2.48428125c-.3355001.19215625-.449625.62115625-.2567813.95528125.1935312.33584375.6218438.44996875.957.257125.3351563-.1931875.4503125-.62184375.2567812-.95665625-.1935312-.33515625-.6221875-.44996875-.9569999-.25575m-5.0032813-3.1851875c-.3874062 0-.699875.3135-.699875.70090625 0 .38603125.3124688.70021875.699875.70021875.38775 0 .7009062-.3141875.7009062-.70021875 0-.38740625-.3131562-.70090625-.7009062-.70090625" fill="#fff"/><g fill="#000"><path d="m11.6637812 21.250625c-.5929687.1485-1.3746562.3055937-2.34643745.4723125-.9728125.1660313-2.0975625.2495625-3.37459375.2495625-1.1103125 0-2.046-.16225-2.80465625-.4857188-.75934375-.3234687-1.3701875-.7816875-1.832875-1.3743125-.463375-.592625-.796125-1.2914687-.999625-2.0972187-.2041875-.8047188-.30559375-1.6977813-.30559375-2.6795313v-8.1087187h2.58259375v7.5532187c0 1.7589688.27775 3.0177813.83325 3.7764376.5555.7600312 1.4898125 1.1391874 2.80465625 1.1391874.27809375 0 .5644375-.0099687.86109375-.0285312.295625-.0182188.5740625-.0419375.83359375-.0694375.2585-.0278438.49465625-.0553438.70778125-.0831875.21278125-.0275.36575-.0594687.4585625-.0972813v-12.1904062h2.58293755v14.023625z"/><path d="m17.9667813 19.4174063c.2595312.07425.6249375.1443749 1.0972499.2079687.4719688.0656562 1.0594376.097625 1.7630938.097625 1.3884063 0 2.4994063-.4585625 3.3319688-1.3746562.8335937-.9164375 1.2502187-2.2171875 1.2502187-3.9012188 0-.7400938-.07425-1.4344688-.2220625-2.0838125-.1485-.6472812-.389125-1.2079375-.7225625-1.6792187-.3330937-.4726563-.7638125-.8425313-1.291125-1.11100005s-1.161875-.402875-1.9019687-.402875c-.7043438 0-1.351625.121-1.9435625.36128125-.5936563.24096875-1.0467188.490875-1.36125.7500625zm0-11.55206255c.3145312-.2035.792-.41628125 1.4303437-.63834375s1.3746563-.33309375 2.2075625-.33309375c1.03675 0 1.958.18528125 2.7634063.55515625.8050625.3705625 1.4856874.88825 2.0411874 1.55478125.5548126.66653125.9759063 1.46299995 1.2632813 2.38803125.2866875.9264062.4307187 1.94425.4307187 3.05525 0 1.166-.171875 2.2171875-.5135625 3.1515-.3434062.935-.8291249 1.7259687-1.4581874 2.3742813-.62975.6479687-1.3884063 1.148125-2.2773438 1.4994375-.88825.3516562-1.8882187.5276562-2.9992187.5276562-1.2038126 0-2.2680625-.083875-3.1930938-.25025-.9257187-.1667188-1.6850625-.3334375-2.2773437-.4998125v-20.68721875l2.5825937-.44446875v7.74709375z"/><path d="m42.5146563 21.250625c-.5929688.1485-1.375.3055937-2.3464375.4723125-.9717813.1660313-2.0968751.2495625-3.37425.2495625-1.1103126 0-2.0453125-.16225-2.8043125-.4857188-.7593438-.3234687-1.3701875-.7816875-1.8325313-1.3743125-.463375-.592625-.7957812-1.2914687-.9999687-2.0972187-.2038438-.8047188-.3055938-1.6977813-.3055938-2.6795313v-8.1087187h2.58225v7.5532187c0 1.7589688.2780937 3.0177813.83325 3.7764376.5558438.7600312 1.4905 1.1391874 2.8046563 1.1391874.2784374 0 .5651249-.0099687.8610937-.0285312.2952812-.0182188.573375-.0419375.83325-.0694375.2591875-.0278438.495-.0553438.7084687-.0831875.2124375-.0275.3650626-.0594687.4575313-.0972813v-12.1904062h2.5829375v14.023625z"/><path d="m46.2354063 7.64396875c.5922812-.1485 1.3784375-.30559375 2.3605312-.47265625.980375-.166375 2.1099375-.24990625 3.3873125-.24990625 1.148125 0 2.1013438.16259375 2.86.4860625.759.32415625 1.365375.7775625 1.8194688 1.36090625.4527187.58265625.7720625 1.2818438.9576875 2.0961875.1849374.8157188.2777499 1.71325.2777499 2.6939688v8.108375h-2.5825937v-7.5532188c0-.88825-.0605-1.6469062-.1804687-2.277-.1206563-.6300937-.3193438-1.1388437-.5970938-1.5269375-.27775-.38946875-.6479687-.67134375-1.1106562-.84734375-.4626875-.1766875-1.0374375-.264-1.7211563-.264-.2787812 0-.5654687.00928125-.86075.0275-.2963125.01890625-.5795625.04159375-.847.06978125-.2695.0275-.5090937.0605-.7225625.09659375-.213125.03746875-.3654062.06496875-.4582187.0831875v12.19075005h-2.58225z"/><path d="m63.8680625 7.227h5.4704375v2.16596875h-5.4704375v6.66462505c0 .7218749.0553438 1.3199999.1667188 1.7916249.111375.4716251.2780937.8425313.4998124 1.1099688.2220626.2684687.4991251.4582187.8329063.56925.3334375.111375.721875.1674063 1.166.1674063.7954375 0 1.4255313-.0886876 1.8885625-.2650313.4623438-.1756563.7775625-.3004375.944625-.3746875l.5548125 2.1109687c-.2595313.1299375-.71775.2966563-1.3746562.4994688-.65725.2038438-1.4018125.3055938-2.2350625.3055938-.98175 0-1.7916251-.1244375-2.4303125-.3743438-.638-.2505938-1.1519063-.6245937-1.5406875-1.1250937-.3887813-.4994688-.6617188-1.1147813-.8188125-1.846625-.158125-.7308125-.2365-1.5778126-.2365-2.5406563v-12.88478125l2.5825937-.44446875z"/><path d="m83.389625 21.250625c-.5933125.1485-1.3746563.3055937-2.3464375.4723125-.9717813.1660313-2.0972187.2495625-3.3735625.2495625-1.111 0-2.046-.16225-2.8053438-.4857188-.7593437-.3234687-1.3701875-.7816875-1.8321874-1.3743125-.4633751-.592625-.7961251-1.2914687-1.0003126-2.0972187-.2035-.8047188-.3055937-1.6977813-.3055937-2.6795313v-8.1087187h2.5832812v7.5532187c0 1.7589688.27775 3.0177813.83325 3.7764376.5548125.7600312 1.4898125 1.1391874 2.8046563 1.1391874.2774062 0 .5640937-.0099687.86075-.0285312.2952813-.0182188.5730312-.0419375.8325625-.0694375.2591875-.0278438.4953438-.0553438.7084687-.0831875.2120938-.0275.3654063-.0594687.4585625-.0972813v-12.1904062h2.5825938v14.023625z"/></g></g></svg>