<svg width="64" height="64" viewBox="0 0 64 64" fill="none" xmlns="http://www.w3.org/2000/svg">
<path fill-rule="evenodd" clip-rule="evenodd" d="M48.6667 12C50.5083 12 52 13.4917 52 15.3333V48.6667C52 50.5083 50.5083 52 48.6667 52H15.3333C13.4917 52 12 50.5083 12 48.6667V15.3333C12 13.4917 13.4917 12 15.3333 12H48.6667ZM48.6667 25.3333H15.3333V48.6667H48.6667V25.3333ZM48.6667 15.3333H15.3333V22H48.6667V15.3333ZM22 17V20.3333H18.6667V17H22ZM28.6667 17V20.3333H25.3333V17H28.6667ZM45.3333 17V20.3333H32V17H45.3333Z" fill="#1B4B7C"/>
<rect x="19" y="39" width="5" height="7" rx="1" fill="#1155CB"/>
<rect x="26" y="34" width="5" height="12" rx="1" fill="#1155CB"/>
<rect x="33" y="28" width="5" height="18" rx="1" fill="#1155CB"/>
<rect x="40" y="39" width="5" height="7" rx="1" fill="#1155CB"/>
</svg>
