<svg width="64" height="64" viewBox="0 0 64 64" fill="none" xmlns="http://www.w3.org/2000/svg">
<path fill-rule="evenodd" clip-rule="evenodd" d="M48.6667 12C50.5083 12 52 13.4917 52 15.3333V48.6667C52 50.5083 50.5083 52 48.6667 52H15.3333C13.4917 52 12 50.5083 12 48.6667V15.3333C12 13.4917 13.4917 12 15.3333 12H48.6667ZM48.6667 25.3333H15.3333V48.6667H48.6667V25.3333ZM48.6667 15.3333H15.3333V22H48.6667V15.3333ZM22 17V20.3333H18.6667V17H22ZM28.6667 17V20.3333H25.3333V17H28.6667ZM45.3333 17V20.3333H32V17H45.3333Z" fill="#1B4B7C"/>
<path d="M24.117 34.4604C24.4779 33.3527 25.0699 32.3343 25.8537 31.4725C25.9186 31.4013 26.0031 31.351 26.0965 31.3277C26.19 31.3045 26.2882 31.3094 26.3789 31.3419L28.2489 32.0074C28.3818 32.0545 28.5232 32.0722 28.6636 32.0595C28.8039 32.0467 28.9398 32.0037 29.062 31.9334C29.1841 31.8631 29.2896 31.7672 29.3712 31.6523C29.4528 31.5373 29.5085 31.4061 29.5345 31.2676L29.892 29.3206C29.9095 29.226 29.9546 29.1386 30.0216 29.0696C30.0887 29.0006 30.1747 28.953 30.2688 28.9329C31.4111 28.6906 32.5915 28.6906 33.7338 28.9329C33.9263 28.9741 34.0748 29.1267 34.1105 29.3206L34.468 31.2676C34.4937 31.4063 34.5491 31.5379 34.6306 31.653C34.712 31.7682 34.8176 31.8643 34.9399 31.9347C35.0621 32.005 35.1982 32.048 35.3388 32.0605C35.4793 32.0731 35.6209 32.0549 35.7537 32.0074L37.6237 31.3419C37.7143 31.3094 37.8126 31.3045 37.9061 31.3277C37.9995 31.351 38.084 31.4013 38.1489 31.4725C38.9313 32.3346 39.5239 33.3521 39.8842 34.4604C39.9139 34.5519 39.9157 34.6503 39.8892 34.7429C39.8628 34.8355 39.8093 34.9181 39.7357 34.9801L38.2204 36.2602C38.1125 36.351 38.0258 36.4642 37.9663 36.592C37.9068 36.7198 37.876 36.859 37.876 37C37.876 37.1409 37.9068 37.2802 37.9663 37.408C38.0258 37.5358 38.1125 37.649 38.2204 37.7397L39.7357 39.0199C39.8869 39.1477 39.9447 39.3526 39.8842 39.5396C39.5237 40.6471 38.9323 41.6655 38.1489 42.5275C38.084 42.5986 37.9995 42.649 37.9061 42.6723C37.8126 42.6955 37.7143 42.6906 37.6237 42.6581L35.7537 41.9926C35.6208 41.9455 35.4794 41.9278 35.339 41.9405C35.1987 41.9533 35.0628 41.9963 34.9406 42.0666C34.8184 42.1369 34.713 42.2328 34.6314 42.3477C34.5498 42.4626 34.4941 42.5939 34.468 42.7324L34.1105 44.6794C34.0932 44.7743 34.0479 44.8618 33.9806 44.9309C33.9132 44.9999 33.8268 45.0474 33.7324 45.0671C32.5906 45.3094 31.4106 45.3094 30.2688 45.0671C30.1744 45.0472 30.0881 44.9997 30.0208 44.9307C29.9535 44.8616 29.9082 44.7742 29.8907 44.6794L29.5345 42.7324C29.5089 42.5936 29.4535 42.4621 29.372 42.3469C29.2905 42.2318 29.185 42.1357 29.0627 42.0653C28.9405 41.9949 28.8043 41.952 28.6638 41.9394C28.5233 41.9269 28.3817 41.945 28.2489 41.9926L26.3789 42.6581C26.2882 42.6906 26.19 42.6955 26.0965 42.6723C26.0031 42.649 25.9186 42.5986 25.8537 42.5275C25.0704 41.6655 24.4789 40.6471 24.1184 39.5396C24.0887 39.448 24.0869 39.3497 24.1133 39.2571C24.1398 39.1645 24.1933 39.0819 24.2669 39.0199L25.7822 37.7397C25.8898 37.6489 25.9764 37.5356 26.0357 37.4078C26.0951 37.2801 26.1258 37.1409 26.1258 37C26.1258 36.8591 26.0951 36.7199 26.0357 36.5921C25.9764 36.4644 25.8898 36.3511 25.7822 36.2602L24.2669 34.9801C24.1933 34.9181 24.1398 34.8355 24.1133 34.7429C24.0869 34.6503 24.0887 34.5519 24.1184 34.4604H24.117ZM29.5937 37C29.5937 37.6382 29.8472 38.2502 30.2984 38.7015C30.7497 39.1527 31.3617 39.4062 31.9999 39.4062C32.6381 39.4062 33.2501 39.1527 33.7014 38.7015C34.1527 38.2502 34.4062 37.6382 34.4062 37C34.4062 36.3618 34.1527 35.7498 33.7014 35.2985C33.2501 34.8473 32.6381 34.5937 31.9999 34.5937C31.3617 34.5937 30.7497 34.8473 30.2984 35.2985C29.8472 35.7498 29.5937 36.3618 29.5937 37Z" fill="#1155CB"/>
</svg>
