<svg width="72" height="72" viewBox="0 0 72 72" fill="none" xmlns="http://www.w3.org/2000/svg">
<g clip-path="url(#clip0)">
<path d="M56.9032 39.5428V25.3346C58.2516 24.8538 59.2258 23.5762 59.2258 22.0645C59.2258 20.144 57.6625 18.5806 55.7419 18.5806C54.2302 18.5806 52.9527 19.5548 52.4718 20.9032H48.3676C48.6268 20.1751 48.7742 19.396 48.7742 18.5806C48.7742 14.7378 45.6493 11.6129 41.8064 11.6129C41.3874 11.6129 40.9729 11.6515 40.5652 11.7291C40.6185 11.3039 40.6452 10.878 40.6452 10.4516C40.6452 4.68826 35.9558 0 30.1935 0C26.1222 0 22.449 2.39573 20.7467 5.99698C19.4272 5.11637 17.8815 4.64516 16.2581 4.64516C12.1317 4.64516 8.71308 7.73551 8.19651 11.7246C7.79108 11.6503 7.38111 11.6129 6.96774 11.6129C3.12494 11.6129 0 14.7378 0 18.5806C0 22.4234 3.12494 25.5484 6.96774 25.5484H12.7742C13.4149 25.5484 13.9355 25.0295 13.9355 24.3871V23.2258H15.4013C15.9303 23.2258 16.393 22.8669 16.5251 22.3548C16.7066 21.6511 16.9759 20.9843 17.3241 20.3736C17.5832 19.9183 17.5067 19.3473 17.1358 18.9776L15.5776 17.4194L17.4194 15.5776L18.9776 17.1358C19.3473 17.5044 19.9183 17.5832 20.3736 17.3241C20.9843 16.9759 21.6511 16.7077 22.3548 16.5251C22.8669 16.393 23.2258 15.9303 23.2258 15.4013V13.9355H25.5484V15.4013C25.5484 15.9303 25.9062 16.393 26.4182 16.5251C27.1032 16.7026 27.7689 16.9748 28.3972 17.3298C28.8497 17.5889 29.4224 17.5101 29.7915 17.1421L31.3548 15.5776L33.1966 17.4194L31.6338 18.9838C31.2641 19.3529 31.1864 19.9257 31.4456 20.3793C31.8034 21.0053 32.0727 21.6699 32.2491 22.3537C32.38 22.8669 32.8439 23.2258 33.3729 23.2258H34.8387V24.3871C34.8387 25.0295 35.3592 25.5484 36 25.5484H41.8064C43.8631 25.5484 45.7082 24.6474 46.9858 23.2258H52.473C52.8234 24.2096 53.598 24.9842 54.5818 25.3346V39.5428C46.5435 40.1144 40.1144 46.5435 39.5428 54.5806H37.0439C36.5041 51.9343 34.1594 49.9355 31.3548 49.9355H30.1935V48.7742C30.1935 48.1317 29.673 47.6129 29.0323 47.6129H24.3871C23.7463 47.6129 23.2258 48.1317 23.2258 48.7742V62.7097C23.2258 63.3521 23.7463 63.871 24.3871 63.871H29.0323C29.673 63.871 30.1935 63.3521 30.1935 62.7097V61.5484H31.3548C34.1583 61.5484 36.5041 59.5496 37.0439 56.9032H39.5428C40.1422 65.326 47.1695 72 55.7419 72C64.7073 72 72 64.7073 72 55.7419C72 47.1695 65.326 40.1422 56.9032 39.5428ZM41.8064 23.2258H37.1613V22.0645C37.1613 21.4221 36.6408 20.9032 36 20.9032H34.2314C34.1259 20.6061 34.0074 20.3146 33.8736 20.0266L35.6598 18.2404C36.114 17.7862 36.114 17.0525 35.6598 16.5983L32.1759 13.1144C31.7404 12.6789 30.9693 12.6789 30.5338 13.1144L28.7476 14.9006C28.4596 14.769 28.167 14.6482 27.871 14.5428V12.7742C27.871 12.1317 27.3504 11.6129 26.7097 11.6129H22.0645C21.4238 11.6129 20.9032 12.1317 20.9032 12.7742V14.5405C20.6038 14.646 20.3095 14.7645 20.0232 14.896L18.2404 13.1144C17.7862 12.6602 17.0525 12.6602 16.5983 13.1144L13.1144 16.5983C12.8961 16.8155 12.7742 17.1103 12.7742 17.4194C12.7742 17.7284 12.8961 18.0232 13.1144 18.2404L14.8972 20.0232C14.7656 20.3084 14.6471 20.6027 14.5416 20.9032H12.7742C12.1334 20.9032 11.6129 21.4221 11.6129 22.0645V23.2258H6.96774C4.40587 23.2258 2.32258 21.1425 2.32258 18.5806C2.32258 16.0188 4.40587 13.9355 6.96774 13.9355C7.60849 13.9355 8.24074 14.0716 8.84577 14.3398C9.22058 14.5059 9.64926 14.435 9.98267 14.2003C10.3155 13.9667 10.5004 13.5465 10.4703 13.1399C10.4607 13.018 10.4516 12.8972 10.4516 12.7742C10.4516 9.57271 13.0566 6.96774 16.2581 6.96774C17.8395 6.96774 19.3195 7.59602 20.4246 8.73746C20.715 9.03459 21.1391 9.1565 21.5428 9.05443C21.946 8.95237 22.263 8.64333 22.3758 8.24414C23.3596 4.758 26.5736 2.32258 30.1935 2.32258C34.676 2.32258 38.3226 5.97032 38.3226 10.4516C38.3226 11.3657 38.1621 12.2797 37.8451 13.1711C37.683 13.6299 37.8219 14.1396 38.195 14.4521C38.5687 14.7634 39.096 14.8099 39.5162 14.5683C40.2494 14.1493 41.0188 13.9355 41.8064 13.9355C44.3683 13.9355 46.4516 16.0188 46.4516 18.5806C46.4516 21.1425 44.3683 23.2258 41.8064 23.2258ZM27.871 61.5484H25.5484V49.9355H27.871V61.5484ZM31.3548 59.2258H30.1935V52.2581H31.3548C33.2754 52.2581 34.8387 53.8214 34.8387 55.7419C34.8387 57.6625 33.2754 59.2258 31.3548 59.2258ZM69.6184 54.5806H64.9999C64.8196 49.9412 63.5852 45.8897 61.6879 43.1571C66.0694 45.2359 69.1988 49.5232 69.6184 54.5806ZM54.5806 42.0248V54.5806H48.8042C49.0776 48.3223 51.522 43.1038 54.5806 42.0248ZM54.5806 56.9032V69.4591C51.522 68.38 49.0776 63.1616 48.8042 56.9032H54.5806ZM56.9032 69.4591V56.9032H62.6796C62.4063 63.1616 59.9618 68.38 56.9032 69.4591ZM56.9032 54.5806V42.0248C59.9618 43.1038 62.4063 48.3223 62.6796 54.5806H56.9032ZM55.7419 20.9032C56.3815 20.9032 56.9032 21.4238 56.9032 22.0645C56.9032 22.7053 56.3815 23.2258 55.7419 23.2258C55.1023 23.2258 54.5806 22.7053 54.5806 22.0645C54.5806 21.4238 55.1023 20.9032 55.7419 20.9032ZM49.796 43.1571C47.8987 45.8897 46.6631 49.9412 46.4839 54.5806H41.8654C42.285 49.5232 45.4145 45.2359 49.796 43.1571ZM41.8654 56.9032H46.4839C46.6642 61.5427 47.8987 65.5942 49.796 68.3267C45.4145 66.248 42.285 61.9606 41.8654 56.9032ZM61.6879 68.3267C63.5852 65.5942 64.8208 61.5427 64.9999 56.9032H69.6184C69.1988 61.9606 66.0694 66.248 61.6879 68.3267Z" fill="url(#paint0_linear)"/>
<path d="M18.5806 48.7742C18.5806 48.1318 18.0601 47.6129 17.4194 47.6129H12.7742C12.1334 47.6129 11.6129 48.1318 11.6129 48.7742V49.9355H10.4516C7.64819 49.9355 5.30236 51.9343 4.76254 54.5807H4.64516C3.36423 54.5807 2.32258 53.539 2.32258 52.2581V45.2904C2.32258 44.0094 3.36423 42.9678 4.64516 42.9678H32.5161C35.078 42.9678 37.1613 40.8845 37.1613 38.3226C37.1613 35.7607 35.078 33.6775 32.5161 33.6775H27.871C26.59 33.6775 25.5484 32.6358 25.5484 31.3549V30.0762C28.1947 29.5364 30.1935 27.1917 30.1935 24.3871C30.1935 21.1856 27.5886 18.5807 24.3871 18.5807C21.1856 18.5807 18.5806 21.1856 18.5806 24.3871C18.5806 27.1906 20.5794 29.5364 23.2258 30.0762V31.3549C23.2258 33.9167 25.3091 36 27.871 36H32.5161C33.7971 36 34.8387 37.0417 34.8387 38.3226C34.8387 39.6035 33.7971 40.6452 32.5161 40.6452H4.64516C2.08329 40.6452 0 42.7285 0 45.2904V52.2581C0 54.82 2.08329 56.9033 4.64516 56.9033H4.76254C5.30236 59.5496 7.64705 61.5484 10.4516 61.5484H11.6129V62.7097C11.6129 63.3522 12.1334 63.871 12.7742 63.871H17.4194C18.0601 63.871 18.5806 63.3522 18.5806 62.7097V59.2258H20.9032V56.9033H18.5806V54.5807H20.9032V52.2581H18.5806V48.7742ZM20.9032 24.3871C20.9032 22.4666 22.4665 20.9033 24.3871 20.9033C26.3076 20.9033 27.871 22.4666 27.871 24.3871C27.871 26.3077 26.3076 27.871 24.3871 27.871C22.4665 27.871 20.9032 26.3077 20.9032 24.3871ZM10.4516 59.2258C8.53106 59.2258 6.96774 57.6625 6.96774 55.742C6.96774 53.8214 8.53106 52.2581 10.4516 52.2581H11.6129V59.2258H10.4516ZM16.2581 61.5484H13.9355V49.9355H16.2581V61.5484Z" fill="url(#paint1_linear)"/>
</g>
<defs>
<linearGradient id="paint0_linear" x1="36" y1="0" x2="36" y2="72" gradientUnits="userSpaceOnUse">
<stop stop-color="#F1A1A0"/>
<stop offset="0.145833" stop-color="#AA8DCD"/>
<stop offset="1" stop-color="#2656C4"/>
</linearGradient>
<linearGradient id="paint1_linear" x1="18.5806" y1="18.5807" x2="18.5806" y2="63.871" gradientUnits="userSpaceOnUse">
<stop stop-color="#F1A1A0"/>
<stop offset="0.145833" stop-color="#AA8DCD"/>
<stop offset="1" stop-color="#2656C4"/>
</linearGradient>
<clipPath id="clip0">
<rect width="72" height="72" fill="white"/>
</clipPath>
</defs>
</svg>
