<svg enable-background="new 0 0 1200 300" viewBox="0 0 1200 300" xmlns="http://www.w3.org/2000/svg" xmlns:xlink="http://www.w3.org/1999/xlink"><clipPath id="a"><path d="m0 0h1200v300.6h-1200z"/></clipPath><linearGradient id="b"><stop offset=".1451" stop-color="#8dffff"/><stop offset=".521" stop-color="#5100ff"/><stop offset="1" stop-color="#00e35a"/></linearGradient><linearGradient id="c" gradientTransform="matrix(.9966 .08297187 -.08297187 .9966 -6.1576 -41.9962)" gradientUnits="userSpaceOnUse" x1="-270.8185" x2="1246.1646" xlink:href="#b" y1="11.7831" y2="11.7831"/><linearGradient id="d" gradientTransform="matrix(.9966 .08297187 -.08297187 .9966 -6.1576 -41.9962)" gradientUnits="userSpaceOnUse" x1="-251.0023" x2="1225.2808" xlink:href="#b" y1="13.6197" y2="13.6197"/><linearGradient id="e" gradientTransform="matrix(.9966 .08297187 -.08297187 .9966 -6.1576 -41.9962)" gradientUnits="userSpaceOnUse" x1="-231.4719" x2="1204.8099" xlink:href="#b" y1="15.3063" y2="15.3063"/><linearGradient id="f" gradientTransform="matrix(.9966 .08297187 -.08297187 .9966 -6.1576 -41.9962)" gradientUnits="userSpaceOnUse" x1="-212.2332" x2="1184.7506" xlink:href="#b" y1="16.8487" y2="16.8487"/><linearGradient id="g" gradientTransform="matrix(.9966 .08297187 -.08297187 .9966 -6.1576 -41.9962)" gradientUnits="userSpaceOnUse" x1="-193.2917" x2="1165.1012" xlink:href="#b" y1="18.2526" y2="18.2526"/><linearGradient id="h" gradientTransform="matrix(.9966 .08297187 -.08297187 .9966 -6.1576 -41.9962)" gradientUnits="userSpaceOnUse" x1="-174.6518" x2="1145.8597" xlink:href="#b" y1="19.5236" y2="19.5236"/><linearGradient id="i" gradientTransform="matrix(.9966 .08297187 -.08297187 .9966 -6.1576 -41.9962)" gradientUnits="userSpaceOnUse" x1="-156.3176" x2="1127.0242" xlink:href="#b" y1="20.6672" y2="20.6672"/><linearGradient id="j" gradientTransform="matrix(.9966 .08297187 -.08297187 .9966 -6.1576 -41.9962)" gradientUnits="userSpaceOnUse" x1="-138.2925" x2="1108.5918" xlink:href="#b" y1="21.6888" y2="21.6888"/><linearGradient id="k" gradientTransform="matrix(.9966 .08297187 -.08297187 .9966 -6.1576 -41.9962)" gradientUnits="userSpaceOnUse" x1="-120.5793" x2="1090.5598" xlink:href="#b" y1="22.5936" y2="22.5936"/><linearGradient id="l" gradientTransform="matrix(.9966 .08297187 -.08297187 .9966 -6.1576 -41.9962)" gradientUnits="userSpaceOnUse" x1="-103.1805" x2="1072.9254" xlink:href="#b" y1="23.3867" y2="23.3867"/><linearGradient id="m" gradientTransform="matrix(.9966 .08297187 -.08297187 .9966 -6.1576 -41.9962)" gradientUnits="userSpaceOnUse" x1="-86.098" x2="1055.6852" xlink:href="#b" y1="24.073" y2="24.073"/><linearGradient id="n" gradientTransform="matrix(.9966 .08297187 -.08297187 .9966 -6.1576 -41.9962)" gradientUnits="userSpaceOnUse" x1="-69.333" x2="1038.8357" xlink:href="#b" y1="24.6575" y2="24.6575"/><linearGradient id="o" gradientTransform="matrix(.9966 .08297187 -.08297187 .9966 -6.1576 -41.9962)" gradientUnits="userSpaceOnUse" x1="-52.8866" x2="1022.3732" xlink:href="#b" y1="23.314" y2="23.314"/><linearGradient id="p" gradientTransform="matrix(.9966 .08297187 -.08297187 .9966 -6.1576 -41.9962)" gradientUnits="userSpaceOnUse" x1="-36.7592" x2="1006.294" xlink:href="#b" y1="18.1211" y2="18.1211"/><linearGradient id="q" gradientTransform="matrix(.9966 .08297187 -.08297187 .9966 -6.1576 -41.9962)" gradientUnits="userSpaceOnUse" x1="-20.951" x2="990.5941" xlink:href="#b" y1="13.1752" y2="13.1752"/><linearGradient id="r" gradientTransform="matrix(.9966 .08297187 -.08297187 .9966 -6.1576 -41.9962)" gradientUnits="userSpaceOnUse" x1="-5.4619" x2="975.2691" xlink:href="#b" y1="8.4673" y2="8.4673"/><linearGradient id="s" gradientTransform="matrix(.9966 .08297187 -.08297187 .9966 -6.1576 -41.9962)" gradientUnits="userSpaceOnUse" x1="9.7089" x2="960.3149" xlink:href="#b" y1="3.9885" y2="3.9885"/><linearGradient id="t" gradientTransform="matrix(.9966 .08297187 -.08297187 .9966 -6.1576 -41.9962)" gradientUnits="userSpaceOnUse" x1="24.5623" x2="945.7269" xlink:href="#b" y1="-.2695" y2="-.2695"/><linearGradient id="u" gradientTransform="matrix(.9966 .08297187 -.08297187 .9966 -6.1576 -41.9962)" gradientUnits="userSpaceOnUse" x1="39.0994" x2="931.5006" xlink:href="#b" y1="-4.3151" y2="-4.3151"/><linearGradient id="v" gradientTransform="matrix(.9966 .08297187 -.08297187 .9966 -6.1576 -41.9962)" gradientUnits="userSpaceOnUse" x1="53.3218" x2="917.6313" xlink:href="#b" y1="-8.1561" y2="-8.1561"/><linearGradient id="w" gradientTransform="matrix(.9966 .08297187 -.08297187 .9966 -6.1576 -41.9962)" gradientUnits="userSpaceOnUse" x1="67.2313" x2="904.1143" xlink:href="#b" y1="-11.8002" y2="-11.8002"/><linearGradient id="x" gradientTransform="matrix(.9966 .08297187 -.08297187 .9966 -6.1576 -41.9962)" gradientUnits="userSpaceOnUse" x1="80.83" x2="890.9446" xlink:href="#b" y1="-15.2551" y2="-15.2551"/><linearGradient id="y" gradientTransform="matrix(.9966 .08297187 -.08297187 .9966 -6.1576 -41.9962)" gradientUnits="userSpaceOnUse" x1="94.12" x2="878.1175" xlink:href="#b" y1="-18.5278" y2="-18.5278"/><linearGradient id="z" gradientTransform="matrix(.9966 .08297187 -.08297187 .9966 -6.1576 -41.9962)" gradientUnits="userSpaceOnUse" x1="107.1041" x2="865.6277" xlink:href="#b" y1="-21.6254" y2="-21.6254"/><linearGradient id="A" gradientTransform="matrix(.9966 .08297187 -.08297187 .9966 -6.1576 -41.9962)" gradientUnits="userSpaceOnUse" x1="119.7848" x2="853.4705" xlink:href="#b" y1="-24.5547" y2="-24.5547"/><linearGradient id="B" gradientTransform="matrix(.9966 .08297187 -.08297187 .9966 -6.1576 -41.9962)" gradientUnits="userSpaceOnUse" x1="132.165" x2="841.6404" xlink:href="#b" y1="-27.3222" y2="-27.3222"/><linearGradient id="C" gradientTransform="matrix(.9966 .08297187 -.08297187 .9966 -6.1576 -41.9962)" gradientUnits="userSpaceOnUse" x1="144.2479" x2="830.1327" xlink:href="#b" y1="-28.8147" y2="-28.8147"/><linearGradient id="D" gradientTransform="matrix(.9966 .08297187 -.08297187 .9966 -6.1576 -41.9962)" gradientUnits="userSpaceOnUse" x1="156.0368" x2="818.942" xlink:href="#b" y1="-29.5658" y2="-29.5658"/><linearGradient id="E" gradientTransform="matrix(.9966 .08297187 -.08297187 .9966 -6.1576 -41.9962)" gradientUnits="userSpaceOnUse" x1="167.5349" x2="808.0632" xlink:href="#b" y1="-30.2585" y2="-30.2585"/><linearGradient id="F" gradientTransform="matrix(.9966 .08297187 -.08297187 .9966 -6.1576 -41.9962)" gradientUnits="userSpaceOnUse" x1="178.7459" x2="797.4911" xlink:href="#b" y1="-30.8976" y2="-30.8976"/><linearGradient id="G" gradientTransform="matrix(.9966 .08297187 -.08297187 .9966 -6.1576 -41.9962)" gradientUnits="userSpaceOnUse" x1="189.6733" x2="787.2206" xlink:href="#b" y1="-31.4877" y2="-31.4877"/><linearGradient id="H" gradientTransform="matrix(.9966 .08297187 -.08297187 .9966 -6.1576 -41.9962)" gradientUnits="userSpaceOnUse" x1="200.3211" x2="777.2466" xlink:href="#b" y1="-32.0329" y2="-32.0329"/><linearGradient id="I" gradientTransform="matrix(.9966 .08297187 -.08297187 .9966 -6.1576 -41.9962)" gradientUnits="userSpaceOnUse" x1="210.693" x2="767.5638" xlink:href="#b" y1="-32.5367" y2="-32.5367"/><linearGradient id="J" gradientTransform="matrix(.9966 .08297187 -.08297187 .9966 -6.1576 -41.9962)" gradientUnits="userSpaceOnUse" x1="220.7931" x2="758.1672" xlink:href="#b" y1="-33.0025" y2="-33.0025"/><linearGradient id="K" gradientTransform="matrix(.9966 .08297187 -.08297187 .9966 -6.1576 -41.9962)" gradientUnits="userSpaceOnUse" x1="230.6254" x2="749.0517" xlink:href="#b" y1="-33.4336" y2="-33.4336"/><linearGradient id="L" gradientTransform="matrix(.9966 .08297187 -.08297187 .9966 -6.1576 -41.9962)" gradientUnits="userSpaceOnUse" x1="240.194" x2="740.2123" xlink:href="#b" y1="-33.8326" y2="-33.8326"/><linearGradient id="M" gradientTransform="matrix(.9966 .08297187 -.08297187 .9966 -6.1576 -41.9962)" gradientUnits="userSpaceOnUse" x1="249.5031" x2="731.644" xlink:href="#b" y1="-34.2022" y2="-34.2022"/><linearGradient id="N" gradientTransform="matrix(.9966 .08297187 -.08297187 .9966 -6.1576 -41.9962)" gradientUnits="userSpaceOnUse" x1="258.557" x2="723.3419" xlink:href="#b" y1="-34.5447" y2="-34.5447"/><linearGradient id="O" gradientTransform="matrix(.9966 .08297187 -.08297187 .9966 -6.1576 -41.9962)" gradientUnits="userSpaceOnUse" x1="267.3599" x2="715.3011" xlink:href="#b" y1="-34.8623" y2="-34.8623"/><linearGradient id="P" gradientTransform="matrix(.9966 .08297187 -.08297187 .9966 -6.1576 -41.9962)" gradientUnits="userSpaceOnUse" x1="275.9163" x2="707.5169" xlink:href="#b" y1="-35.1571" y2="-35.1571"/><linearGradient id="Q" gradientTransform="matrix(.9966 .08297187 -.08297187 .9966 -6.1576 -41.9962)" gradientUnits="userSpaceOnUse" x1="284.2305" x2="699.9901" xlink:href="#b" y1="-35.4308" y2="-35.4308"/><g clip-path="url(#a)" fill="none" stroke-miterlimit="10" stroke-width=".5"><path d="m-168.7-137.9c1067.7 1187.1 937.6-484.9 1348-3.6 389.2 456.5-1174.9 367.9-1458.8 120.9" stroke="url(#c)"/><path d="m-148.5-143.7c1012.3 1164.7 922.3-457.5 1310.8 14.4 368.5 447.6-1150.3 341-1421 97.8" stroke="url(#d)"/><path d="m-128.6-149.1c958.9 1142.2 906.6-431.1 1274.1 31.4 348.6 438.7-1125.9 315.1-1383.8 75.8" stroke="url(#e)"/><path d="m-109.2-154.1c907.5 1119.8 890.9-405.7 1238.2 47.4 329.3 429.8-1101.6 290.5-1347.2 55.1" stroke="url(#f)"/><path d="m-90.2-158.6c858 1097.3 875.1-381.4 1202.8 62.4 310.9 420.9-1077.4 266.8-1311 35.4" stroke="url(#g)"/><path d="m-71.6-162.8c810.3 1074.9 859.1-357.9 1168.1 76.5 293.2 412.1-1053.3 244.3-1275.5 16.9" stroke="url(#h)"/><path d="m-53.5-166.6c764.5 1052.5 843.1-335.4 1134.2 89.7 276 403.3-1029.5 222.7-1240.6-.6" stroke="url(#i)"/><path d="m-35.8-170c720.5 1030.2 827.1-313.9 1100.8 102 259.6 394.5-1005.8 202.1-1206.2-17.1" stroke="url(#j)"/><path d="m-18.5-173.1c678.1 1008 811-293.2 1068.1 113.5 243.9 385.8-982.4 182.5-1172.4-32.6" stroke="url(#k)"/><path d="m-1.6-175.8c637.4 985.9 794.9-273.4 1036 124.2 228.8 377.1-959.1 163.8-1139.2-47.2" stroke="url(#l)"/><path d="m14.9-178.3c598.3 964 778.9-254.3 1004.7 134.2 214.1 368.5-936.2 146-1106.7-60.9" stroke="url(#m)"/><path d="m30.9-180.4c560.8 942.2 762.9-236.1 974 143.4 200.2 360-913.4 129-1074.7-73.8" stroke="url(#n)"/><path d="m46.6-182.3c524.8 920.6 746.9-218.7 943.9 152 186.8 351.5-891 112.8-1043.4-85.8" stroke="url(#o)"/><path d="m61.9-183.9c490.2 899.1 730.9-202 914.4 159.8 174 343.2-868.7 97.5-1012.6-97" stroke="url(#p)"/><path d="m76.8-185.3c457 877.9 715.1-186 885.6 167.1 161.8 334.9-846.8 83-982.4-107.5" stroke="url(#q)"/><path d="m91.3-186.4c425.3 857 699.3-170.7 857.5 173.8 150 326.7-825.1 69.1-952.9-117.3" stroke="url(#r)"/><path d="m105.5-187.2c394.8 836.1 683.6-156.2 829.9 179.7 138.7 318.6-803.8 56-923.9-126.4" stroke="url(#s)"/><path d="m119.2-187.9c365.8 815.6 668.2-142.3 803 185.3 128 310.6-782.7 43.5-895.6-134.8" stroke="url(#t)"/><path d="m132.6-188.4c337.9 795.3 652.7-129 776.8 190.2 117.6 302.8-762 31.8-867.9-142.5" stroke="url(#u)"/><path d="m145.7-188.7c311.2 775.3 637.4-116.3 751.1 194.8 107.8 295-741.6 20.7-840.7-149.7" stroke="url(#v)"/><path d="m158.3-188.7c285.7 755.4 622.4-104.3 726.1 198.7 98.4 287.3-721.5 10.2-814.2-156.2" stroke="url(#w)"/><path d="m170.7-188.7c261.3 736 607.3-92.7 701.6 202.3 89.4 279.7-701.8.2-788.3-162.3" stroke="url(#x)"/><path d="m182.7-188.4c238.1 716.7 592.6-81.8 677.8 205.3 80.9 272.3-682.3-9.1-762.9-167.7" stroke="url(#y)"/><path d="m194.3-188c215.9 697.8 578-71.4 654.6 208 72.7 265-663.2-17.9-738.1-172.7" stroke="url(#z)"/><path d="m205.6-187.5c194.8 679.1 563.5-61.5 632 210.3 64.9 257.8-644.5-26.2-713.9-177.2" stroke="url(#A)"/><path d="m216.6-186.8c174.6 660.8 549.2-52.1 609.9 212.2 57.5 250.7-626.1-33.9-690.3-181.2" stroke="url(#B)"/><path d="m227.3-186c155.4 642.7 535.2-43.2 588.4 213.8 50.5 243.7-608-41.2-667.3-184.8" stroke="url(#C)"/><path d="m237.7-185.1c137.1 624.9 521.3-34.7 567.4 215 43.8 236.9-590.3-48.1-644.8-188" stroke="url(#D)"/><path d="m247.7-184.1c119.7 607.5 507.6-26.7 547 216 37.4 230.1-572.8-54.4-622.8-190.8" stroke="url(#E)"/><path d="m257.5-182.9c103.2 590.3 494.1-19.1 527.2 216.6 31.3 223.5-555.9-60.4-601.5-193.3" stroke="url(#F)"/><path d="m266.9-181.7c87.5 573.5 480.9-11.9 507.9 216.9 25.6 217.1-539.1-65.9-580.6-195.3" stroke="url(#G)"/><path d="m276.1-180.4c72.6 556.9 467.8-5.2 489.1 217 20.2 210.7-522.8-71.1-560.2-197" stroke="url(#H)"/><path d="m285-179c58.4 540.7 455 1.2 470.8 216.8 15 204.5-506.7-75.8-540.4-198.3" stroke="url(#I)"/><path d="m293.6-177.5c45.1 524.8 442.3 7.2 453.1 216.4 10.2 198.4-491.1-80.2-521.2-199.4" stroke="url(#J)"/><path d="m301.9-176c32.4 509.2 429.9 12.9 435.8 215.7 5.6 192.4-475.7-84.3-502.4-200.2" stroke="url(#K)"/><path d="m310-174.4c20.4 493.9 417.7 18.2 419.1 214.9 1.2 186.5-460.7-88-484.1-200.7" stroke="url(#L)"/><path d="m317.8-172.8c9.1 479 405.8 23.2 402.8 213.8-2.9 180.8-446-91.4-466.3-201" stroke="url(#M)"/><path d="m325.4-171c-1.6 464.3 394 27.9 387 212.6-6.7 175.2-431.7-94.5-449.1-201" stroke="url(#N)"/><path d="m332.7-169.3c-11.6 450 382.5 32.3 371.6 211.2-10.3 169.7-417.6-97.4-432.2-200.8" stroke="url(#O)"/><path d="m339.8-167.5c-21.1 435.9 371.2 36.4 356.8 209.6-13.7 164.3-404-99.9-415.9-200.3" stroke="url(#P)"/><path d="m346.7-165.6c-30 422.2 360.2 40.2 342.3 207.9-17 159-390.7-102.3-400.1-199.7" stroke="url(#Q)"/></g></svg>