<svg width="64" height="64" viewBox="0 0 64 64" fill="none" xmlns="http://www.w3.org/2000/svg">
<path fill-rule="evenodd" clip-rule="evenodd" d="M48.6667 12C50.5083 12 52 13.4917 52 15.3333V48.6667C52 50.5083 50.5083 52 48.6667 52H15.3333C13.4917 52 12 50.5083 12 48.6667V15.3333C12 13.4917 13.4917 12 15.3333 12H48.6667ZM48.6667 25.3333H15.3333V48.6667H48.6667V25.3333ZM48.6667 15.3333H15.3333V22H48.6667V15.3333ZM22 17V20.3333H18.6667V17H22ZM28.6667 17V20.3333H25.3333V17H28.6667ZM45.3333 17V20.3333H32V17H45.3333Z" fill="#1B4B7C"/>
<path fill-rule="evenodd" clip-rule="evenodd" d="M29.6002 28.6C29.6002 28.4409 29.6635 28.2883 29.776 28.1757C29.8885 28.0632 30.0411 28 30.2002 28H33.8002C33.9594 28 34.112 28.0632 34.2245 28.1757C34.337 28.2883 34.4002 28.4409 34.4002 28.6C34.4002 28.7591 34.337 28.9117 34.2245 29.0243C34.112 29.1368 33.9594 29.2 33.8002 29.2H32.6002V30.544C33.8805 30.642 35.1154 31.0614 36.1906 31.7632C36.2145 31.7299 36.241 31.6986 36.2698 31.6696L37.4698 30.4696C37.5395 30.3999 37.6222 30.3447 37.7132 30.307C37.8042 30.2693 37.9017 30.2499 38.0002 30.2499C38.0987 30.2499 38.1963 30.2693 38.2873 30.307C38.3783 30.3447 38.461 30.3999 38.5306 30.4696C38.6003 30.5393 38.6555 30.6219 38.6932 30.7129C38.7309 30.804 38.7503 30.9015 38.7503 31C38.7503 31.0985 38.7309 31.196 38.6932 31.2871C38.6555 31.3781 38.6003 31.4607 38.5306 31.5304L37.3606 32.7004C38.6174 33.9257 39.4166 35.5446 39.625 37.2874C39.8334 39.0302 39.4386 40.7919 38.5062 42.279C37.5738 43.7662 36.1601 44.889 34.5006 45.4607C32.841 46.0323 31.0357 46.0183 29.3853 45.4208C27.7348 44.8234 26.3388 43.6786 25.4297 42.1771C24.5206 40.6756 24.1533 38.9081 24.3888 37.1687C24.6244 35.4293 25.4487 33.8231 26.7244 32.6175C28.0001 31.4119 29.6503 30.6797 31.4002 30.5428V29.2H30.2002C30.0411 29.2 29.8885 29.1368 29.776 29.0243C29.6635 28.9117 29.6002 28.7591 29.6002 28.6ZM32.0002 38.2V32.92C31.1319 32.9199 30.2769 33.134 29.5111 33.5432C28.7452 33.9525 28.0921 34.5443 27.6096 35.2663C27.1272 35.9883 26.8302 36.8181 26.745 37.6822C26.6599 38.5464 26.7892 39.4182 27.1215 40.2205C27.4538 41.0227 27.9788 41.7307 28.65 42.2815C29.3213 42.8324 30.118 43.2092 30.9697 43.3786C31.8214 43.548 32.7017 43.5047 33.5326 43.2526C34.3635 43.0004 35.1195 42.5473 35.7334 41.9332L32.0002 38.2Z" fill="#1155CB"/>
</svg>
