<svg width="15" height="12" viewBox="0 0 15 12" fill="none" xmlns="http://www.w3.org/2000/svg">
<path d="M1.5 11.25C1.222 11.25 0.986 11.1527 0.792 10.958C0.597333 10.764 0.5 10.528 0.5 10.25C0.5 9.972 0.597333 9.736 0.792 9.542C0.986 9.34733 1.222 9.25 1.5 9.25C1.778 9.25 2.014 9.34733 2.208 9.542C2.40267 9.736 2.5 9.972 2.5 10.25C2.5 10.528 2.40267 10.764 2.208 10.958C2.014 11.1527 1.778 11.25 1.5 11.25ZM4 11V9.5H15V11H4ZM1.5 7C1.222 7 0.986 6.90267 0.792 6.708C0.597333 6.514 0.5 6.278 0.5 6C0.5 5.722 0.597333 5.486 0.792 5.292C0.986 5.09733 1.222 5 1.5 5C1.778 5 2.014 5.09733 2.208 5.292C2.40267 5.486 2.5 5.722 2.5 6C2.5 6.278 2.40267 6.514 2.208 6.708C2.014 6.90267 1.778 7 1.5 7ZM4 6.75V5.25H15V6.75H4ZM1.5 2.75C1.222 2.75 0.986 2.65267 0.792 2.458C0.597333 2.264 0.5 2.028 0.5 1.75C0.5 1.472 0.597333 1.236 0.792 1.042C0.986 0.847333 1.222 0.75 1.5 0.75C1.778 0.75 2.014 0.847333 2.208 1.042C2.40267 1.236 2.5 1.472 2.5 1.75C2.5 2.028 2.40267 2.264 2.208 2.458C2.014 2.65267 1.778 2.75 1.5 2.75ZM4 2.5V1H15V2.5H4Z" fill="black" fill-opacity="0.45"/>
</svg>
