<svg width="18" height="18" viewBox="0 0 18 18" fill="none" xmlns="http://www.w3.org/2000/svg">
<path d="M6.646 17.333L6.333 14.708C6.19433 14.6247 6.04167 14.5347 5.875 14.438C5.70833 14.3407 5.55567 14.2503 5.417 14.167L2.979 15.188L0.625 11.125L2.708 9.54199V8.45799L0.625 6.87499L2.979 2.81199L5.417 3.83299C5.55567 3.74966 5.70833 3.65966 5.875 3.56299C6.04167 3.46566 6.19433 3.37533 6.333 3.29199L6.646 0.666992H11.354L11.667 3.29199C11.8057 3.37533 11.9583 3.46566 12.125 3.56299C12.2917 3.65966 12.4443 3.74966 12.583 3.83299L15.021 2.81199L17.375 6.87499L15.312 8.45799V9.54199L17.375 11.125L15.021 15.188L12.583 14.167C12.4443 14.2503 12.2917 14.3407 12.125 14.438C11.9583 14.5347 11.8057 14.6247 11.667 14.708L11.354 17.333H6.646ZM9 11.979C9.81933 11.979 10.5207 11.6873 11.104 11.104C11.6873 10.5207 11.979 9.81933 11.979 8.99999C11.979 8.18066 11.6873 7.47933 11.104 6.89599C10.5207 6.31266 9.81933 6.02099 9 6.02099C8.18067 6.02099 7.47933 6.31266 6.896 6.89599C6.31267 7.47933 6.021 8.18066 6.021 8.99999C6.021 9.81933 6.31267 10.5207 6.896 11.104C7.47933 11.6873 8.18067 11.979 9 11.979Z" fill="black" fill-opacity="0.45"/>
</svg>
