<svg width="45" height="40" viewBox="0 0 45 40" fill="none" xmlns="http://www.w3.org/2000/svg">
<path d="M14.865 32.947L13.7655 34.3372L16.2531 38.2094L15.9938 40H26.5468L27.2774 38.2094L23.0328 32.947H14.865Z" fill="#F7F9FC"/>
<path d="M20.6365 9.38222L16.8193 16.0386L35.4378 37.9874L34.9081 40H43.4485L44.9936 32.8596L25.0711 9.37858L20.6365 9.38222Z" fill="#F7F9FC"/>
<path d="M23.1716 4.37813L21.3561 7.70813H25.8601L33.5895 16.872L38.1847 13.1125V10.7251L36.5884 8.49058L37.7683 7.26776L28.5485 0L23.1716 4.37813Z" fill="#F7F9FC"/>
<path d="M9.31272 22.9278H6.79591L0.166016 31.3129V40H7.27809L8.53466 38.3732L14.0212 31.2947H21.9588L24.4026 27.5644L15.7965 17.3888L9.31272 22.9278Z" fill="#F7F9FC"/>
</svg>
