<svg height="32" viewBox="0 0 36 32" width="36" xmlns="http://www.w3.org/2000/svg"><g fill="#004b80" fill-rule="evenodd"><path d="m11.5197255 26.1503163-.8635306 1.0892615 1.9496674 3.0352708-.2028406 1.4047695h8.2698045l.5715827-1.4047694-3.3235398-4.1245323"/><path d="m16.0419367 7.6788574-2.9904407 5.217346 14.5902655 17.2066496-.416374 1.5768942h6.6917954l1.213155-5.5967952-15.6138649-18.4092616"/><path d="m22.240985.323-4.213965 3.4318358-1.420208 2.6119024h3.5270284l6.0583236 7.181763 3.6022026-2.9461408v-1.87238l-1.2526864-1.7503105.9247716-.9581496"/><path d="m7.166948 18.2954268h-1.9713775l-5.195441 6.5756128v6.8087722h5.573904l.9827724-1.276564 4.3017758-5.5493238h6.2183927l1.9146726-2.9222434-6.7436395-7.977153"/></g></svg>