<svg width="184" height="16" viewBox="0 0 184 16" fill="none" xmlns="http://www.w3.org/2000/svg">
<path fill-rule="evenodd" clip-rule="evenodd" d="M32.7364 10.4215H35.9584V5.42531H32.7364V10.4215ZM35.9401 3.46267H38.4144V12.7414C38.4144 14.2759 38.2542 14.5436 37.8448 14.954C37.5244 15.293 37.0081 15.4536 36.1181 15.4536H32.5044L31.383 14.2046V13.6871H35.9401V12.4202H32.8249C31.8814 12.4202 31.4008 12.2417 31.0091 11.8492C30.4929 11.3139 30.2793 10.154 30.2793 7.95927C30.2793 5.7645 30.5285 4.55113 31.0625 3.99798C31.472 3.60542 31.9704 3.44482 32.8605 3.44482L34.7118 3.46267L35.9401 4.58682V3.46267ZM6.74664 1H9.66603L5.46496 6.3531L9.84404 12.4021H6.74664L3.41782 7.65569H2.63457V12.4021H0V1H2.63457V5.42523H3.41782L6.74664 1ZM25.972 6.28192V5.46111H25.0819C25.0641 5.46111 25.0641 5.46111 25.0463 5.46111H24.3521C24.3343 5.46111 24.3343 5.46111 24.3165 5.46111H22.9458V6.28192V12.3666H20.4892V3.46262H22.1091H22.9458V3.62321V4.58677L24.174 3.46262H24.8861C24.9929 3.44478 25.1175 3.44478 25.2421 3.44478H26.3102C27.0578 3.44478 27.5385 3.60537 27.8767 3.9444C28.2505 4.30127 28.3929 4.76521 28.3929 6.08564V12.3666H25.9364V6.38898C25.972 6.35329 25.972 6.31761 25.972 6.28192ZM13.0301 10.4035H16.2521V5.40731H13.0301V10.4035ZM13.1374 12.3667C12.2473 12.3667 11.7667 12.2239 11.3928 11.8135C10.8232 11.2247 10.5918 10.4217 10.5918 7.90574C10.5918 5.37194 10.8232 4.58682 11.3928 3.98013C11.7667 3.58757 12.2473 3.44482 13.1374 3.44482H16.128C17.018 3.44482 17.4986 3.58757 17.8725 3.98013C18.4421 4.58682 18.6735 5.37194 18.6735 7.90574C18.6735 10.4395 18.4421 11.2247 17.8725 11.8135C17.4808 12.2239 17.018 12.3667 16.128 12.3667H13.1374Z" fill="#121418"/>
<path d="M45.0026 0.968383H46.991L50.3162 10.1252L53.633 0.968383H55.6298L51.1099 13.1329H49.5141L45.0026 0.968383ZM44 0.968383H45.9467L46.2976 9.38162V13.1329H44V0.968383ZM54.6774 0.968383H56.6324V13.1329H54.3348V9.38162L54.6774 0.968383Z" fill="url(#paint0_linear_258_1883)"/>
<path d="M62.865 13.3C62.1799 13.3 61.5645 13.1886 61.0186 12.9658C60.4728 12.743 60.0077 12.4339 59.6234 12.0384C59.2446 11.6374 58.9522 11.1723 58.7461 10.6432C58.5456 10.1085 58.4454 9.53479 58.4454 8.92211V8.58792C58.4454 7.89169 58.5456 7.25951 58.7461 6.69139C58.9467 6.1177 59.2307 5.62477 59.5983 5.2126C59.9659 4.80043 60.406 4.48295 60.9184 4.26016C61.4308 4.03736 61.9961 3.92597 62.6144 3.92597C63.2549 3.92597 63.8203 4.03458 64.3104 4.2518C64.8006 4.46346 65.2099 4.76423 65.5386 5.15412C65.8672 5.544 66.115 6.01187 66.2821 6.55771C66.4492 7.09799 66.5328 7.69675 66.5328 8.35399V9.28137H59.4479V7.7608H64.3605V7.5937C64.3494 7.24281 64.2826 6.92254 64.16 6.63291C64.0375 6.33771 63.8481 6.10377 63.5919 5.93111C63.3357 5.75287 63.0043 5.66376 62.5977 5.66376C62.2691 5.66376 61.9822 5.73616 61.7371 5.88098C61.4976 6.02023 61.2971 6.22074 61.1356 6.48252C60.9797 6.73873 60.8627 7.04508 60.7847 7.40155C60.7067 7.75801 60.6677 8.15347 60.6677 8.58792V8.92211C60.6677 9.30086 60.7179 9.65176 60.8181 9.97481C60.924 10.2979 61.0771 10.5791 61.2776 10.8186C61.4837 11.0526 61.7288 11.2364 62.0129 11.3701C62.3025 11.4982 62.6311 11.5622 62.9987 11.5622C63.461 11.5622 63.8787 11.4731 64.2519 11.2949C64.6307 11.1111 64.9593 10.8409 65.2378 10.4845L66.349 11.6374C66.1596 11.9159 65.9034 12.1833 65.5803 12.4395C65.2629 12.6957 64.8785 12.9045 64.4274 13.0661C63.9762 13.222 63.4554 13.3 62.865 13.3Z" fill="url(#paint1_linear_258_1883)"/>
<path d="M72.9826 10.6599C72.9826 10.4705 72.9325 10.3006 72.8323 10.1503C72.732 9.99987 72.5426 9.86341 72.2641 9.74088C71.9912 9.61277 71.5902 9.49302 71.0611 9.38162C70.5932 9.28137 70.1615 9.15604 69.7661 9.00566C69.3706 8.85527 69.0308 8.67425 68.7468 8.4626C68.4627 8.24538 68.2399 7.99195 68.0784 7.70232C67.9225 7.40711 67.8445 7.06736 67.8445 6.68304C67.8445 6.30986 67.9252 5.95896 68.0868 5.63034C68.2483 5.29615 68.4822 5.00373 68.7886 4.75309C69.0949 4.49688 69.4681 4.29636 69.9081 4.15155C70.3481 4.00116 70.8438 3.92597 71.3952 3.92597C72.1639 3.92597 72.8239 4.05129 73.3753 4.30193C73.9323 4.55257 74.3584 4.8979 74.6536 5.33792C74.9488 5.77237 75.0964 6.26251 75.0964 6.80836H72.8907C72.8907 6.56885 72.835 6.35163 72.7237 6.15669C72.6178 5.96174 72.4535 5.80579 72.2307 5.68882C72.0079 5.56628 71.7267 5.50502 71.3869 5.50502C71.0805 5.50502 70.8216 5.55514 70.6099 5.6554C70.4038 5.75566 70.2479 5.88655 70.142 6.04807C70.0362 6.2096 69.9833 6.38784 69.9833 6.58278C69.9833 6.72759 70.0111 6.85849 70.0668 6.97545C70.1281 7.08685 70.2256 7.18989 70.3593 7.28458C70.4929 7.37927 70.674 7.4656 70.9023 7.54358C71.1362 7.62155 71.4231 7.69675 71.7629 7.76915C72.4368 7.90283 73.0244 8.08107 73.5257 8.30386C74.0326 8.52108 74.428 8.81071 74.7121 9.17275C74.9961 9.53479 75.1382 9.99709 75.1382 10.5596C75.1382 10.9607 75.0518 11.3283 74.8792 11.6625C74.7065 11.9911 74.4559 12.2779 74.1273 12.523C73.7986 12.7681 73.406 12.9602 72.9492 13.0995C72.4925 13.2332 71.9773 13.3 71.4036 13.3C70.5737 13.3 69.8719 13.1524 69.2982 12.8572C68.7245 12.5564 68.2901 12.1777 67.9949 11.721C67.6997 11.2587 67.5521 10.7797 67.5521 10.2839H69.6658C69.6825 10.6348 69.7772 10.9161 69.9499 11.1278C70.1225 11.3394 70.3398 11.4926 70.6015 11.5873C70.8689 11.6764 71.1502 11.721 71.4454 11.721C71.7796 11.721 72.0608 11.6764 72.2892 11.5873C72.5176 11.4926 72.6902 11.3673 72.8072 11.2113C72.9242 11.0498 72.9826 10.866 72.9826 10.6599Z" fill="url(#paint2_linear_258_1883)"/>
<path d="M78.9814 0.300003V13.1329H76.7674V0.300003H78.9814ZM78.6305 8.28715H77.9788C77.9788 7.65776 78.0623 7.07849 78.2294 6.54936C78.3965 6.02023 78.6333 5.56071 78.9396 5.17083C79.2459 4.77537 79.6108 4.46903 80.0341 4.2518C80.4629 4.03458 80.9364 3.92597 81.4544 3.92597C81.9 3.92597 82.3038 3.99002 82.6658 4.11813C83.0334 4.24066 83.3481 4.43839 83.6099 4.71131C83.8717 4.98424 84.0722 5.34071 84.2114 5.78072C84.3563 6.21517 84.4287 6.7443 84.4287 7.36813V13.1329H82.2063V7.35142C82.2063 6.93368 82.145 6.60506 82.0225 6.36556C81.9 6.12048 81.7245 5.94503 81.4961 5.83921C81.2734 5.73338 80.9976 5.68047 80.669 5.68047C80.3126 5.68047 80.0062 5.75009 79.75 5.88933C79.4938 6.02301 79.2821 6.2096 79.115 6.4491C78.9535 6.68861 78.831 6.96431 78.7474 7.27622C78.6695 7.58813 78.6305 7.92511 78.6305 8.28715Z" fill="url(#paint3_linear_258_1883)"/>
<defs>
<linearGradient id="paint0_linear_258_1883" x1="73.6694" y1="4.59839" x2="67.6609" y2="21.6416" gradientUnits="userSpaceOnUse">
<stop stop-color="#11A06B"/>
<stop offset="1" stop-color="#286FEB"/>
</linearGradient>
<linearGradient id="paint1_linear_258_1883" x1="73.6694" y1="4.59839" x2="67.6609" y2="21.6416" gradientUnits="userSpaceOnUse">
<stop stop-color="#11A06B"/>
<stop offset="1" stop-color="#286FEB"/>
</linearGradient>
<linearGradient id="paint2_linear_258_1883" x1="73.6694" y1="4.59839" x2="67.6609" y2="21.6416" gradientUnits="userSpaceOnUse">
<stop stop-color="#11A06B"/>
<stop offset="1" stop-color="#286FEB"/>
</linearGradient>
<linearGradient id="paint3_linear_258_1883" x1="73.6694" y1="4.59839" x2="67.6609" y2="21.6416" gradientUnits="userSpaceOnUse">
<stop stop-color="#11A06B"/>
<stop offset="1" stop-color="#286FEB"/>
</linearGradient>
</defs>
</svg>
