<svg fill="none" height="41" viewBox="0 0 200 41" width="200" xmlns="http://www.w3.org/2000/svg" xmlns:xlink="http://www.w3.org/1999/xlink"><clipPath id="a"><path d="m0 0h200v40.8463h-200z"/></clipPath><g clip-path="url(#a)" fill="#003459"><path clip-rule="evenodd" d="m14.861 33.5673h8.2969l4.3112 5.4249-.7307 1.8541h-10.7318l.2649-1.8509-2.5306-3.9952zm5.9419-23.85354h4.4675l20.0052 23.87914-1.5573 7.2534h-8.5841l.5329-2.0455-18.6936-22.3187zm7.8661-9.71376 9.3053 7.31723-1.1903 1.23177 1.5956 2.2338v2.4061l-4.6272 3.7974-7.7959-9.22551h-4.5377l1.8285-3.35386zm-19.52007 23.4387 6.48757-5.645 8.616 10.3743-2.4444 3.8006h-7.9459l-5.4919 7.2183-1.25411 1.6594h-7.11619v-8.8554l6.63433-8.5522zm68.71427 6.9854c-1.6115 0-2.4444-.2617-3.1336-.9861-1.034-1.0435-1.4392-2.489-1.4392-6.9789s.402-5.9355 1.4392-7.0205c.6605-.6956 1.5221-.9573 3.1336-.9573h5.3739c1.5955 0 2.4412.2617 3.1305.9573 1.0339 1.0722 1.436 2.4891 1.436 7.0205s-.4021 5.9354-1.436 6.9789c-.6893.7244-1.5222.9861-3.1305.9861zm-.2042-3.5102h5.7791v-8.916h-5.7823v8.9192zm23.212-7.3811v-1.4743h-5.4056v1.4775 10.8881h-4.3941v-15.9269h4.3782v2.0136l2.2178-2.0136h1.2764c.217-.0191.434-.0287.6542-.0287h1.9151c1.349 0 2.211.2904 2.817.8999.661.6382.919 1.4743.919 3.8294v11.2231h-4.378v-10.7126c0-.0606 0-.118 0-.1723zm-34.4639-9.4457h5.2335l-7.4992 9.5893 7.8342 10.8051h-5.5589l-5.9578-8.4915h-1.4137v8.4915h-4.7133v-20.3912h4.7037v7.9044h1.4105zm52.3339 4.4038h4.436v16.5938c0 2.7507-.287 3.2166-1.005 3.9697-.575.6095-1.494.8999-3.105.8999h-6.484l-1.998-2.2338v-.9382h8.172v-2.272h-5.587c-1.698 0-2.553-.3192-3.271-1.0148-.919-.9574-1.293-3.0475-1.293-6.9566 0-3.9092.46-6.0887 1.408-7.0716.718-.6956 1.64-.986 3.22-.986l3.302.0287 2.215 2.0136v-2.0296zm-5.744 12.4262h5.776v-8.9352h-5.776z" fill-rule="evenodd"/><path d="m141.95 9.9978c2.553 0 3.935.4212 5.106 1.4711 1.382 1.2765 2.042 3.874 2.042 9.0404 0 5.1665-.66 7.78-2.042 9.0405-1.171 1.0498-2.553 1.4711-5.106 1.4711h-9.129v-21.0231zm2.553 3.5453c-.66-.6031-1.26-.6605-2.553-.6605h-5.766v15.2567h5.766c1.293 0 1.953-.0925 2.553-.6606.811-.7531 1.171-2.1923 1.171-6.9375 0-4.8377-.36-6.2482-1.171-6.9981z"/><path d="m165.255 15.7354c-.66-.6606-1.621-.9318-3.213-.9318h-4.787c-1.596 0-2.553.2712-3.214.9318-1.049 1.0499-1.349 2.3104-1.349 7.1768 0 4.8665.3 6.127 1.349 7.1768.661.6638 1.622.9318 3.214.9318h4.787c1.595 0 2.553-.268 3.213-.9318 1.05-1.0498 1.35-2.3103 1.35-7.1768 0-4.8664-.3-6.1269-1.35-7.1768zm-1.771 12.4932h-7.659v-10.6328h7.659z"/><path d="m180.569 25.1045c.016.7246-.015 1.4493-.092 2.17v.9573h-7.021v-10.636h7.021v2.0232c0 .2553.022.5489.035.8903h3.032c0-3.0316-.3-4.1133-1.082-4.8952-.511-.5105-1.171-.8105-2.643-.8105h-4.923c-1.596 0-2.553.2712-3.214.9318-1.053 1.0499-1.353 2.3104-1.353 7.1768 0 4.8665.3 6.127 1.353 7.1768.661.6638 1.621.9318 3.214.9318h4.952c1.414 0 2.164-.3191 2.646-.8105.81-.8105 1.11-1.7424 1.11-5.1058z"/><path d="m199.25 22.5229c-.45-.4499-1.082-.6606-2.342-.7818l-5.588-.5712c-.718-.0894-.9-.15-1.11-.3606-.211-.2106-.24-.5712-.24-1.5956 0-.217 0-.3989 0-.5584v-1.2382h6.922v1.7711h-.029c0 .1755.019.3765.029.5999h2.872c-.061-2.7922-.3-3.6347-.957-4.2952-.482-.4787-1.203-.6893-2.432-.6893h-5.926c-1.26 0-1.915.2393-2.432.7499-.66.6606-.989 1.803-.989 3.8293 0 2.1636.179 3.0635.839 3.7241.482.4786 1.111.6605 2.403.8105l5.495.5712c.661.0607.843.15 1.022.3191.178.1692.261.4468.29 1.1137v.0383.501.5872 1.353h-7.371v-2.3295c0-.051 0-.1021 0-.1563h-2.873c.061 2.9454.269 3.724.958 4.4165.478.4786 1.471.6892 2.581.6892h6.249c1.2 0 1.914-.2106 2.431-.7212.693-.6892.958-1.7423.958-3.992-.01-2.1349-.16-3.1848-.76-3.7847z"/></g></svg>