<svg width="92" height="32" viewBox="0 0 92 32" xmlns="http://www.w3.org/2000/svg"><title>logo-debian.svg</title><desc>Created with Sketch Beta.</desc><g fill="none" fill-rule="evenodd"><g><path d="M15.267 16.85c-.513.006.097.263.767.367.186-.146.353-.29.503-.433-.417.102-.842.104-1.27.066zm2.755-.687c.307-.423.53-.885.608-1.362-.07.34-.253.635-.428.946-.96.604-.09-.36 0-.726-1.032 1.3-.142.78-.18 1.143zm1.018-2.647c.062-.925-.182-.633-.264-.28.096.05.17.652.264.28zM13.32.878c.274.05.592.086.546.152.3-.066.37-.126-.546-.152zm.546.152l-.192.04.18-.016.012-.024zm8.546 12.836c.03.83-.243 1.234-.49 1.947l-.444.22c-.363.706.036.45-.224 1.01-.568.504-1.72 1.577-2.09 1.675-.27-.006.183-.32.242-.44-.758.52-.61.782-1.77 1.1l-.033-.077c-2.863 1.348-6.84-1.32-6.786-4.962-.03.23-.088.173-.15.266-.148-1.873.865-3.754 2.573-4.523 1.67-.826 3.63-.487 4.826.63-.657-.862-1.966-1.775-3.516-1.69-1.52.024-2.94.99-3.415 2.038-.777.49-.87 1.888-1.207 2.145-.457 3.353.858 4.8 3.082 6.506.35.235.098.27.145.45-.74-.345-1.415-.868-1.972-1.507.296.432.615.852 1.027 1.18-.698-.234-1.628-1.686-1.9-1.746 1.2 2.15 4.872 3.77 6.795 2.967-.89.033-2.02.02-3.02-.35-.42-.217-.99-.664-.888-.748 2.624.98 5.333.742 7.603-1.078.578-.45 1.21-1.215 1.39-1.225-.273.413.048.2-.162.563.574-.928-.25-.378.594-1.602l.312.43c-.117-.772.957-1.708.848-2.926.246-.372.274.4.013 1.26.363-.953.096-1.105.188-1.89.1.264.234.544.3.823-.235-.92.243-1.547.362-2.08-.118-.052-.365.405-.422-.68.01-.47.132-.247.18-.363-.093-.053-.336-.415-.484-1.108.105-.164.285.422.43.445-.093-.55-.254-.97-.26-1.394-.427-.89-.152.12-.497-.38-.453-1.415.376-.33.432-.97.687.994 1.078 2.537 1.26 3.175-.14-.78-.36-1.534-.63-2.264.208.09-.338-1.6.27-.48-.65-2.388-2.775-4.618-4.732-5.664.24.22.54.494.433.537-.974-.58-.803-.625-.942-.87-.792-.322-.845.028-1.37.002-1.494-.793-1.782-.71-3.157-1.205l.062.292c-.99-.33-1.154.125-2.224 0-.065-.05.343-.183.68-.232-.958.127-.914-.188-1.85.035.23-.162.475-.27.72-.407-.78.048-1.862.455-1.528.084-1.273.57-3.534 1.366-4.803 2.556l-.04-.267c-.582.7-2.536 2.085-2.69 2.99l-.157.036c-.302.513-.498 1.093-.738 1.62-.396.674-.58.26-.524.365C1.288 9.66.9 10.986.566 12.074c.24.355.007 2.14.097 3.57-.39 7.06 4.954 13.912 10.796 15.494.855.307 2.128.296 3.21.326-1.276-.366-1.44-.193-2.687-.627-.897-.423-1.094-.906-1.73-1.458l.25.444c-1.246-.44-.724-.546-1.74-.867l.27-.35c-.404-.032-1.07-.682-1.253-1.043l-.443.018c-.53-.655-.814-1.13-.793-1.495l-.143.255c-.16-.278-1.955-2.46-1.024-1.952-.173-.157-.403-.257-.652-.71l.19-.216c-.448-.576-.825-1.315-.796-1.56.24.32.404.382.57.437-1.132-2.806-1.196-.155-2.05-2.856l.18-.014c-.14-.21-.224-.437-.335-.66l.08-.785c-.815-.94-.23-4-.11-5.68.08-.682.68-1.41 1.133-2.55L3.31 9.75c.53-.925 3.023-3.71 4.18-3.568.56-.703-.112-.003-.222-.18 1.23-1.272 1.617-.9 2.447-1.128.894-.53-.768.207-.345-.203 1.548-.393 1.097-.896 3.114-1.097.214.12-.493.187-.67.344 1.288-.63 4.078-.487 5.89.35 2.102.983 4.465 3.887 4.56 6.62l.105.03c-.054 1.085.165 2.34-.216 3.496l.258-.547zm-12.75 3.688l-.072.36c.338.458.606.955 1.036 1.312-.31-.604-.54-.854-.964-1.672zm.798-.03c-.18-.2-.283-.437-.403-.673.114.417.346.775.56 1.14l-.157-.467zm14.117-3.07l-.075.19c-.138.982-.438 1.954-.895 2.855.505-.952.83-1.992.97-3.045zM13.422.633c.346-.127.852-.07 1.22-.154-.48.04-.957.065-1.43.125l.21.03zM1.234 7.112c.08.74-.557 1.028.14.54.375-.843-.145-.233-.14-.54zm-.82 3.428c.16-.494.19-.79.25-1.076-.444.568-.204.69-.25 1.076zM68.79 7.836l-2.116 2.116-2.117-2.116 2.117-2.117 2.117 2.116z" fill="#A80030"/><path d="M39.28 15.545c-.025.026-.025 4.14-.076 5.215-.05.87-.128 2.735-1.97 2.735-1.89 0-2.35-2.173-2.504-3.12-.18-1.046-.18-1.917-.18-2.3 0-1.226.078-4.653 2.967-4.653.87 0 1.355.256 1.738.46l.025 1.663zm-7.414 3.017c0 7.21 3.836 7.21 4.398 7.21 1.585 0 2.608-.87 3.042-2.378l.05 2.274c.487-.026.973-.077 1.765-.077.282 0 .512 0 .717.027.205 0 .41.025.64.05-.41-.816-.716-2.657-.716-6.647 0-3.886 0-10.455.333-12.45-.92.436-1.713.717-3.452.87.69.742.69 1.125.69 4.5-.484-.154-1.098-.333-2.146-.333-4.576 0-5.318 3.99-5.318 6.955zm13.865-1.305c.027-2.123.462-4.015 2.277-4.015 1.994 0 2.146 2.2 2.096 4.015H45.73zm6.903.256c0-2.992-.587-5.932-4.37-5.932-5.216 0-5.216 5.78-5.216 7.006 0 5.19 2.326 7.235 6.238 7.235 1.737 0 2.582-.253 3.042-.383-.025-.92.102-1.508.257-2.3-.538.333-1.228.768-2.762.768-3.99 0-4.04-3.632-4.04-4.885h6.802l.05-1.507zm8.318 1.1c0 2.376-.434 5.572-3.4 5.572-.408 0-.92-.077-1.252-.153-.05-.92-.05-2.505-.05-4.346 0-2.2.23-3.348.41-3.912.535-1.814 1.736-1.84 1.966-1.84 1.943 0 2.327 2.685 2.327 4.678zm-7.336 2.786c0 1.892 0 2.965-.307 3.782 1.048.41 2.35.64 3.912.64.996 0 3.885 0 5.444-3.196.74-1.483.997-3.477.997-4.986 0-.92-.102-2.94-.843-4.218-.715-1.2-1.866-1.815-3.092-1.815-2.455 0-3.17 2.045-3.553 3.094 0-1.304.024-5.854.23-8.18-1.663.767-2.686.894-3.785.997.997.408.997 2.096.997 7.594v6.29zm14.96 4.268c-.51-.077-.87-.128-1.61-.128-.817 0-1.38.052-1.968.128.255-.486.357-.716.434-2.377.103-2.275.128-8.36-.05-9.638-.13-.972-.358-1.125-.716-1.38 2.096-.205 2.684-.358 3.655-.818-.205 1.124-.232 1.688-.232 3.4-.05 8.82-.076 9.766.487 10.814zm8.188-7.235c-.05 1.61-.077 2.735-.512 3.63-.537 1.15-1.43 1.483-2.096 1.483-1.536 0-1.867-1.278-1.867-2.53 0-2.403 2.148-2.583 3.12-2.583h1.355zm-7.03 3.145c0 1.61.485 3.22 1.917 3.912.638.28 1.277.28 1.482.28 2.353 0 3.144-1.738 3.63-2.812-.025 1.125 0 1.815.077 2.71.46-.026.92-.077 1.687-.077.434 0 .843.052 1.278.078-.282-.434-.435-.69-.512-1.687-.05-.97-.05-1.942-.05-3.298l.025-5.215c0-1.943-.512-3.86-4.347-3.86-2.53 0-4.012.767-4.753 1.15.307.563.562 1.048.792 2.148.997-.87 2.3-1.33 3.63-1.33 2.122 0 2.122 1.407 2.122 3.4-.486-.024-.895-.076-1.586-.076-3.248 0-5.395 1.25-5.395 4.678zm21.755 1.56c.026.87.026 1.79.384 2.53-.562-.05-.895-.127-1.942-.127-.614 0-.946.053-1.432.13.102-.333.154-.46.205-.896.077-.588.13-2.557.13-3.247v-2.76c0-1.203 0-2.942-.08-3.555-.05-.434-.177-1.61-1.66-1.61-1.458 0-1.944 1.073-2.123 1.943-.203.894-.203 1.866-.203 5.65.024 3.272.024 3.578.28 4.473-.434-.05-.97-.1-1.738-.1-.614 0-1.023.023-1.533.1.178-.41.28-.614.332-2.045.052-1.406.154-8.31-.078-9.945-.127-.998-.383-1.227-.664-1.483 2.07-.102 2.735-.435 3.375-.766v2.708c.306-.793.945-2.557 3.503-2.557 3.197 0 3.222 2.327 3.247 3.86v7.697z" fill="#000"/></g></g></svg>