<svg width="130" height="32" viewBox="0 0 130 32" xmlns="http://www.w3.org/2000/svg"><title>logo-centOS</title><desc>Created with Sketch Beta.</desc><g fill="none" fill-rule="evenodd"><g><g fill="#262577"><path d="M51.725 25.017h-7.568c-.767 0-1.526-.106-2.277-.318-1.454-.442-2.605-1.455-3.454-3.038-.767-1.437-1.15-3.11-1.15-5.02 0-1.846.342-3.48 1.028-4.9.75-1.567 1.82-2.636 3.208-3.208 1.078-.44 2.18-.66 3.306-.66h6.858v3.28H44.55c-1.16 0-2 .63-2.524 1.887-.408.98-.612 2.262-.612 3.846 0 1.34.26 2.473.784 3.404.604 1.094 1.453 1.64 2.547 1.64l6.98-.024v3.11z"/><path d="M64.616 25.09H58.64c-1.453 0-2.72-.62-3.796-1.86-1.062-1.258-1.592-2.703-1.592-4.336 0-1.78.58-3.314 1.74-4.604 1.174-1.306 2.48-1.96 3.917-1.96h5.68v2.62H60.43c-.523 0-.972.05-1.347.148-.36.082-.693.253-1.003.514-.572.49-.858 1.223-.858 2.056h7.347v2.645h-7.323c0 .392.04.655.122.932.098.26.286.53.564.808.277.262.604.44.98.54.39.08.865.122 1.42.122h4.286v2.375z"/><path d="M78.87 25.017h-3.406v-8.352c0-.212-.05-.4-.147-.563-.098-.18-.236-.35-.416-.514-.325-.278-.7-.416-1.125-.416h-3.33v9.845h-3.406V12.33h6.514c1.16 0 2 .066 2.523.196.816.196 1.47.63 1.96 1.298.554.784.832 1.64.832 2.572v8.62z"/><path d="M89.165 14.976h-3.307v5.755c0 .523.18.956.54 1.3.407.342.946.513 1.615.513h1.005v2.474h-3.16c-.947 0-1.987-.343-2.656-1.03-.392-.407-.645-.856-.76-1.346-.113-.49-.17-1.068-.17-1.738v-5.926h-2.156V12.33h2.155V7.874h3.588v4.458h3.307v2.646z"/><path d="M109.458 16.42c0 3.33-.923 5.715-2.768 7.152-1.502 1.16-3.69 1.74-6.564 1.74-3.183 0-5.535-.67-7.053-2.01-1.665-1.47-2.498-3.828-2.498-7.077 0-2.662.743-4.735 2.23-6.22 1.615-1.618 4.03-2.426 7.248-2.426 3.543 0 6.04.775 7.494 2.326 1.274 1.37 1.91 3.543 1.91 6.515zm-4.36-.097c0-1.682-.4-3.02-1.2-4.017-.898-1.11-2.23-1.665-3.992-1.665-1.73 0-3.037.597-3.92 1.79-.733.994-1.1 2.292-1.1 3.893 0 1.845.293 3.208.88 4.09.817 1.224 2.328 1.836 4.532 1.836 1.86 0 3.167-.597 3.918-1.788.588-.93.882-2.31.882-4.14z"/><path d="M129.444 19.702c0 1.502-.498 2.768-1.494 3.796-.996 1.03-2.26 1.543-3.796 1.543l-12.123-.023V21.93h9.993c.67 0 1.233-.154 1.69-.464.523-.36.784-.85.784-1.47 0-1.453-1.03-2.18-3.086-2.18h-5.044c-1.453 0-2.727-.45-3.82-1.347-1.095-.9-1.642-2.042-1.642-3.43 0-1.534.53-2.775 1.592-3.722 1.078-.963 2.49-1.445 4.237-1.445h11.585v2.94h-10.213c-.457 0-.923.195-1.396.587-.458.375-.687.824-.687 1.347 0 .588.22 1.086.66 1.494.458.393 1.005.59 1.642.59h5.56c1.73 0 3.086.448 4.065 1.346.996.88 1.494 2.057 1.494 3.526z"/></g><path d="M14.42 16.065l-6.69 6.59-6.59-6.692 6.692-6.59 6.59 6.692z" stroke="#fff" fill="#932279"/><path d="M15.845 14.645l-6.59-6.63 6.63-6.59 6.59 6.63-6.63 6.59z" stroke="#fff" fill="#EFA724"/><path d="M22.42 24.066l-6.69 6.59-6.59-6.69 6.692-6.59 6.59 6.69z" stroke="#fff" fill="#9CCD2A"/><path d="M23.844 22.646l-6.59-6.63 6.63-6.59 6.59 6.63-6.63 6.59z" stroke="#fff" fill="#262577"/><path fill="#FCE94F" d="M5.51 5.637h9v8.958h-9z"/><path fill="#EFA724" d="M17.176 17.32h8.934v9h-8.934z"/><path fill="#932279" d="M17.212 5.7h8.964v8.954h-8.964z"/><path stroke="#fff" fill="#9CCD2A" d="M5.176 5.32h9.333v9.28H5.175z"/><path stroke="#fff" d="M17.176 17.32h9.276v9.333h-9.276z"/><path stroke="#fff" d="M17.21 5.375h9.3v9.28h-9.3z"/><path stroke="#fff" fill="#262577" d="M5.177 17.32h9.333v9.334H5.177z"/><path d="M14.42 16.065l-6.69 6.59-6.59-6.692 6.692-6.59 6.59 6.692z" stroke="#fff"/><path d="M15.845 14.645l-6.59-6.63 6.63-6.59 6.59 6.63-6.63 6.59z" stroke="#fff"/><path d="M22.42 24.066l-6.69 6.59-6.59-6.69 6.692-6.59 6.59 6.69z" stroke="#fff"/><path d="M23.844 22.646l-6.59-6.63 6.63-6.59 6.59 6.63-6.63 6.59z" stroke="#fff"/></g></g></svg>