<svg xmlns="http://www.w3.org/2000/svg" xmlns:xlink="http://www.w3.org/1999/xlink" preserveAspectRatio="xMidYMid" width="105" height="27" viewBox="0 0 105 27">
  <defs>
    <style>

      .cls-2 {
        fill: #430098;
      }
    </style>
  </defs>
  <path d="M97.446,22.949 C95.153,22.949 94.018,21.425 94.018,19.289 C94.018,19.289 94.018,9.452 94.018,9.452 C94.018,9.452 96.761,9.452 96.761,9.452 C96.761,9.452 96.761,19.635 96.761,19.635 C96.761,20.335 97.196,20.586 97.793,20.586 C100.321,20.586 102.252,19.575 102.252,19.575 C102.252,19.575 102.252,9.452 102.252,9.452 C102.252,9.452 104.998,9.452 104.998,9.452 C104.998,9.452 104.998,20.922 104.998,20.922 C104.998,20.922 101.438,22.949 97.446,22.949 ZM91.957,22.945 C91.957,22.945 89.067,22.945 89.067,22.945 C87.744,20.465 86.421,18.488 85.096,16.875 C85.096,16.875 83.038,16.875 83.038,16.875 C83.038,16.875 83.038,22.948 83.038,22.948 C83.038,22.948 80.292,22.948 80.292,22.948 C80.292,22.948 80.292,4.054 80.292,4.054 C80.292,4.054 83.038,4.054 83.038,4.054 C83.038,4.054 83.038,14.851 83.038,14.851 C83.038,14.851 85.096,14.851 85.096,14.851 C86.448,13.276 87.589,11.458 88.562,9.452 C88.562,9.452 91.413,9.452 91.413,9.452 C90.575,11.336 89.114,13.484 87.318,15.774 C87.318,15.774 87.318,15.774 87.318,15.774 C89.167,17.971 90.658,20.396 91.957,22.945 ZM72.057,22.948 C67.804,22.948 65.881,20.910 65.881,16.256 C65.881,11.328 68.421,9.452 72.057,9.452 C76.308,9.452 78.234,11.489 78.234,16.141 C78.234,21.072 75.691,22.948 72.057,22.948 ZM72.057,11.475 C70.085,11.475 68.644,12.730 68.644,16.181 C68.644,19.439 69.750,20.922 72.057,20.922 C74.030,20.922 75.471,19.670 75.471,16.219 C75.471,12.961 74.365,11.475 72.057,11.475 ZM59.704,12.825 C59.704,12.825 59.704,22.949 59.704,22.949 C59.704,22.949 56.959,22.949 56.959,22.949 C56.959,22.949 56.959,11.475 56.959,11.475 C56.959,11.475 60.151,9.475 64.508,9.475 C64.508,9.475 64.508,11.813 64.508,11.813 C62.350,11.839 60.701,12.288 59.704,12.825 ZM49.386,20.601 C50.964,20.601 52.749,20.066 54.121,19.532 C54.121,19.532 54.577,21.622 54.577,21.622 C53.113,22.298 51.332,22.949 49.203,22.949 C44.629,22.949 43.921,20.304 43.921,16.236 C43.921,14.004 44.082,12.126 44.609,10.264 C45.978,9.732 47.810,9.452 50.118,9.452 C53.660,9.452 54.900,11.761 54.900,15.456 C54.900,15.456 54.900,16.875 54.900,16.875 C54.900,16.875 46.643,16.875 46.643,16.875 C46.734,20.196 47.375,20.601 49.386,20.601 ZM52.499,14.851 C52.499,12.920 51.949,11.776 50.118,11.776 C48.286,11.776 46.902,12.062 46.902,12.062 C46.902,12.062 46.711,13.432 46.666,14.851 C46.666,14.851 52.499,14.851 52.499,14.851 ZM39.140,12.793 C39.140,12.094 38.638,11.793 38.044,11.793 C36.853,11.793 34.975,12.094 33.625,12.698 C33.625,12.698 33.625,22.948 33.625,22.948 C33.625,22.948 30.882,22.948 30.882,22.948 C30.882,22.948 30.882,4.054 30.882,4.054 C30.882,4.054 33.625,4.054 33.625,4.054 C33.625,4.054 33.625,10.374 33.625,10.374 C34.931,9.888 36.877,9.469 38.432,9.469 C40.925,9.469 41.863,11.027 41.863,13.163 C41.863,13.163 41.863,22.948 41.863,22.948 C41.863,22.948 39.140,22.948 39.140,22.948 C39.140,22.948 39.140,12.793 39.140,12.793 ZM22.000,27.000 C22.000,27.000 2.472,26.996 2.472,26.996 C1.108,26.996 -0.000,25.909 -0.000,24.567 C-0.000,24.567 -0.000,2.436 -0.000,2.436 C-0.000,1.092 1.108,0.004 2.472,0.004 C2.472,0.004 21.000,0.000 21.000,0.000 C21.000,0.000 22.236,0.004 22.236,0.004 C23.601,0.004 25.000,1.656 25.000,3.000 C25.000,3.000 25.000,24.000 25.000,24.000 C25.000,25.342 23.365,27.000 22.000,27.000 ZM23.000,2.000 C23.000,2.000 2.000,2.000 2.000,2.000 C2.000,2.000 2.000,25.000 2.000,25.000 C2.000,25.000 23.000,25.000 23.000,25.000 C23.000,25.000 23.000,2.000 23.000,2.000 ZM6.176,22.949 C6.176,22.949 6.176,17.549 6.176,17.549 C6.176,17.549 9.266,20.248 9.266,20.248 C9.266,20.248 6.176,22.949 6.176,22.949 ZM6.176,15.759 C6.176,15.759 6.176,4.054 6.176,4.054 C6.176,4.054 8.922,4.054 8.922,4.054 C8.922,4.054 8.922,11.715 8.922,11.715 C10.292,11.279 12.209,10.801 14.070,10.801 C15.766,10.801 16.780,11.458 17.336,12.007 C18.515,13.181 18.532,14.678 18.529,14.851 C18.529,14.851 18.529,22.948 18.529,22.948 C18.529,22.948 15.786,22.948 15.786,22.948 C15.786,22.948 15.786,14.886 15.786,14.886 C15.772,14.256 15.463,13.501 14.070,13.501 C11.277,13.501 8.149,14.880 8.116,14.895 C8.116,14.895 6.176,15.759 6.176,15.759 ZM13.726,8.440 C14.805,7.046 15.481,5.584 15.786,4.054 C15.786,4.054 18.529,4.054 18.529,4.054 C18.344,5.586 17.712,7.058 16.471,8.440 C16.471,8.440 13.726,8.440 13.726,8.440 Z" id="path-1" class="cls-2" fill-rule="evenodd"/>
</svg>
