<?xml version="1.0" encoding="UTF-8" standalone="no"?>
<svg width="133px" height="21px" viewBox="0 0 133 21" version="1.1" xmlns="http://www.w3.org/2000/svg" xmlns:xlink="http://www.w3.org/1999/xlink" xmlns:sketch="http://www.bohemiancoding.com/sketch/ns">
    <!-- Generator: Sketch Beta 3.4 (14718) - http://www.bohemiancoding.com/sketch -->
    <title>logo - digital ocean</title>
    <desc>Created with Sketch Beta.</desc>
    <defs>
        <path id="path-1" d="M0,0.0954947368 L132.234347,0.0954947368 L132.234347,21 L0,21"></path>
        <path id="path-3" d="M0,0.0954947368 L132.234347,0.0954947368 L132.234347,21 L0,21"></path>
        <path id="path-5" d="M0,0.0954947368 L132.234347,0.0954947368 L132.234347,21 L0,21 L0,0.0954947368 Z"></path>
    </defs>
    <g id="Page-1" stroke="none" stroke-width="1" fill="none" fill-rule="evenodd" sketch:type="MSPage">
        <g id="logo---digital-ocean" sketch:type="MSLayerGroup">
            <g id="Group-3">
                <mask id="mask-2" sketch:name="Clip 2" fill="white">
                    <use xlink:href="#path-1"></use>
                </mask>
                <g id="Clip-2"></g>
                <path d="M2.27686421,20.1222884 C7.51470632,18.4042674 15.3202958,18.8972147 20.6441274,21.0000884 C16.8004642,18.8952253 9.08418,15.7498674 2.27686421,20.1222884" id="Fill-1" fill="#098CCC" sketch:type="MSShapeGroup" mask="url(#mask-2)"></path>
            </g>
            <path d="M8.25591789,10.2153063 C8.24552842,10.1781695 8.23558105,10.1414747 8.22607579,10.1045589 C8.24906526,10.1819274 8.26431789,10.2245905 8.26431789,10.2245905 C8.26431789,10.2245905 7.89604421,7.00849579 10.1870337,5.40188526 C12.4786863,3.79571684 15.8676442,4.77520105 15.8676442,4.77520105 C15.8676442,4.77520105 12.3011811,2.67122211 9.62710737,4.58023263 C9.56211789,4.62643263 9.50044421,4.67418 9.43965474,4.72281158 C10.5701179,3.36864316 12.2817284,2.50587474 14.1973705,2.50587474 C16.1455074,2.50587474 17.8823179,3.39870632 19.0116758,4.79200105 L21.5705811,4.79200105 C20.3134547,2.02375895 17.4983495,0.0955168421 14.2274337,0.0955168421 C9.78449684,0.0955168421 6.18310737,3.65203263 6.18310737,8.03948526 C6.18310737,8.53022211 6.22864421,9.01034842 6.31507579,9.47676947 C7.04012842,9.54640105 7.70638105,9.81055895 8.25591789,10.2153063" id="Fill-4" fill="#098CCC" sketch:type="MSShapeGroup"></path>
            <path d="M31.9243768,19.3591263 C26.3962926,20.7316421 21.8434926,17.6822211 14.6897874,15.4405263 C9.98269263,13.9654421 6.06762947,16.0090737 3.93999789,17.5796526 C2.83407158,18.3962211 2.21070316,19.0850211 2.21070316,19.0850211 C2.21070316,19.1146421 2.85396632,18.7247053 3.93999789,18.2664632 C6.19584,17.3150526 10.3648926,16.0696421 14.6721032,17.6753684 C21.0538926,20.0543368 26.0713453,21.1036737 31.5178611,20.1677368 C35.8622084,19.4212421 37.3609453,16.5592737 37.7902295,15.4303579 C37.4104611,16.3300421 36.1184084,18.3179684 31.9243768,19.3591263" id="Fill-6" fill="#098CCC" sketch:type="MSShapeGroup"></path>
            <path id="Fill-8" fill="#098CCC" sketch:type="MSShapeGroup" d="M37.79034,15.4304021 C37.9112558,15.1441389 37.9404347,14.9670758 37.9404347,14.9670758 C37.9404347,14.9670758 37.8993189,15.1439179 37.79034,15.4304021"></path>
            <g id="Group-12">
                <mask id="mask-4" sketch:name="Clip 11" fill="white">
                    <use xlink:href="#path-3"></use>
                </mask>
                <g id="Clip-11"></g>
                <path d="M3.93999789,16.8874705 C4.33568211,16.6202179 4.73998737,16.3677758 5.10980842,16.1759021 C4.92920842,16.0607337 4.75988211,15.9294284 4.60735579,15.7795547 C4.32330316,15.5003653 4.10578737,15.1891232 3.93999789,14.8677126 C3.22290316,13.47906 3.47004,11.9031758 3.47004,11.9031758 C3.47004,11.9031758 2.25579789,14.6868916 3.93999789,16.3447863 L3.98354526,16.3876705 C4.05450316,16.4546495 4.12921895,16.5174284 4.20570316,16.5755653 C4.11507158,16.53246 4.02642947,16.4858179 3.93999789,16.4363021 C2.81859789,15.7914916 2.06502947,14.59206 2.06502947,13.21866 C2.06502947,11.8448179 2.81859789,10.6449442 3.93999789,10.0003547 C4.45217684,9.70613368 5.04061895,9.52774421 5.66907158,9.50121789 C5.58639789,9.02617579 5.54329263,8.53764947 5.54329263,8.03939684 C5.54329263,7.74274421 5.55832421,7.44940737 5.58794526,7.16071263 C5.01298737,7.18635474 4.46013474,7.29378632 3.93999789,7.47151263 C1.64679789,8.25580737 -4.42105263e-05,10.4066495 -4.42105263e-05,12.9379232 C-4.42105263e-05,14.9766916 1.06874526,16.7689863 2.68287158,17.7984284 C3.04738737,17.5187968 3.48838737,17.1931863 3.93999789,16.8874705" id="Fill-10" fill="#098CCC" sketch:type="MSShapeGroup" mask="url(#mask-4)"></path>
            </g>
            <path d="M21.9318695,16.4919853 C21.9318695,16.4919853 25.3464695,18.2400695 28.55748,17.9553537 C31.7684905,17.6706379 32.7439958,16.5326589 32.7439958,16.5326589 C32.7439958,16.5326589 31.5653432,18.7073747 28.4761326,18.8293958 C25.3869221,18.9514168 21.9318695,16.5735537 21.9318695,16.4919853" id="Fill-13" fill="#5FB0E2" sketch:type="MSShapeGroup"></path>
            <mask id="mask-6" sketch:name="Clip 16" fill="white">
                <use xlink:href="#path-5"></use>
            </mask>
            <g id="Clip-16"></g>
            <path d="M19.3138105,5.44850526 L22.1839579,5.44850526 L22.1839579,8.31843158 L19.3138105,8.31843158 L19.3138105,5.44850526 Z" id="Fill-15" fill="#5FB0E2" sketch:type="MSShapeGroup" mask="url(#mask-6)"></path>
            <path d="M30.7119474,13.4002105 L32.9317579,13.4002105 L32.9317579,15.6200211 L30.7119474,15.6200211 L30.7119474,13.4002105 Z" id="Fill-17" fill="#0088CF" sketch:type="MSShapeGroup" mask="url(#mask-6)"></path>
            <path d="M22.7726211,2.81886316 L26.5999263,2.81886316 L26.5999263,6.64550526 L22.7726211,6.64550526 L22.7726211,2.81886316 Z" id="Fill-18" fill="#5FB0E2" sketch:type="MSShapeGroup" mask="url(#mask-6)"></path>
            <path d="M33.8836105,9.44137895 L37.7113579,9.44137895 L37.7113579,13.2680211 L33.8836105,13.2680211 L33.8836105,9.44137895 Z" id="Fill-19" fill="#0088CF" sketch:type="MSShapeGroup" mask="url(#mask-6)"></path>
            <path d="M26.9668737,6.93972632 L29.1004737,6.93972632 L29.1004737,9.07310526 L26.9668737,9.07310526 L26.9668737,6.93972632 Z" id="Fill-20" fill="#5FB0E2" sketch:type="MSShapeGroup" mask="url(#mask-6)"></path>
            <path d="M28.3937684,11.1421579 L30.5273684,11.1421579 L30.5273684,13.2753158 L28.3937684,13.2753158 L28.3937684,11.1421579 Z" id="Fill-21" fill="#5FB0E2" sketch:type="MSShapeGroup" mask="url(#mask-6)"></path>
            <path d="M23.9022,11.3548105 L26.0360211,11.3548105 L26.0360211,13.4884105 L23.9022,13.4884105 L23.9022,11.3548105 Z" id="Fill-22" fill="#0088CF" sketch:type="MSShapeGroup" mask="url(#mask-6)"></path>
            <path d="M31.3819579,7.01311579 L33.5155579,7.01311579 L33.5155579,9.14671579 L31.3819579,9.14671579 L31.3819579,7.01311579 Z" id="Fill-23" fill="#0088CF" sketch:type="MSShapeGroup" mask="url(#mask-6)"></path>
            <path d="M52.7474905,11.2849137 C52.7474905,10.6153453 52.6575221,10.0145242 52.4773642,9.48267158 C52.2972063,8.95081895 52.0412274,8.50075579 51.7092063,8.13226105 C51.3771853,7.76376632 50.9735432,7.48104 50.4980589,7.28386105 C50.0223537,7.08690316 49.4865221,6.98853474 48.8901221,6.98853474 L46.5182274,6.98853474 L46.5182274,15.5812926 L48.8901221,15.5812926 C49.4865221,15.5812926 50.0223537,15.4829242 50.4980589,15.2859663 C50.9735432,15.0890084 51.3771853,14.8062821 51.7092063,14.4375663 C52.0412274,14.0690716 52.2972063,13.6187874 52.4773642,13.0869347 C52.6575221,12.5550821 52.7474905,11.9544821 52.7474905,11.2849137 M55.0687642,11.2849137 C55.0687642,12.1795137 54.9195537,13.0013874 54.6213537,13.7494295 C54.3231537,14.4981347 53.9038168,15.1422821 53.3637853,15.6827558 C52.8235326,16.2227874 52.1734168,16.6419032 51.41388,16.9403242 C50.6541221,17.2387453 49.8127958,17.3875137 48.8901221,17.3875137 L44.2307747,17.3875137 L44.2307747,5.18209263 L48.8901221,5.18209263 C49.8127958,5.18209263 50.6541221,5.33262947 51.41388,5.63370316 C52.1734168,5.93477684 52.8235326,6.35411368 53.3637853,6.89127158 C53.9038168,7.42887158 54.3231537,8.07169263 54.6213537,8.82017684 C54.9195537,9.56866105 55.0687642,10.3900926 55.0687642,11.2849137" id="Fill-24" fill="#098CCC" sketch:type="MSShapeGroup" mask="url(#mask-6)"></path>
            <path d="M58.1074421,17.3875579 L56.0224737,17.3875579 L56.0224737,8.72715789 L58.1074421,8.72715789 L58.1074421,17.3875579 Z M58.4197895,6.2034 C58.4197895,6.38355789 58.3830947,6.55244211 58.3101474,6.70983158 C58.2369789,6.86744211 58.1397158,7.00537895 58.0188,7.12342105 C57.8976632,7.24168421 57.7557474,7.33585263 57.5926105,7.40614737 C57.4292526,7.47666316 57.2550632,7.51181053 57.0691579,7.51181053 C56.889,7.51181053 56.7190105,7.47666316 56.5585263,7.40614737 C56.3982632,7.33585263 56.259,7.24168421 56.1407368,7.12342105 C56.0226947,7.00537895 55.9283053,6.86744211 55.8580105,6.70983158 C55.7877158,6.55244211 55.7525684,6.38355789 55.7525684,6.2034 C55.7525684,6.01771579 55.7877158,5.84352632 55.8580105,5.68016842 C55.9283053,5.51681053 56.0226947,5.37622105 56.1407368,5.25817895 C56.259,5.13991579 56.3982632,5.04574737 56.5585263,4.97523158 C56.7190105,4.90493684 56.889,4.86978947 57.0691579,4.86978947 C57.2550632,4.86978947 57.4292526,4.90493684 57.5926105,4.97523158 C57.7557474,5.04574737 57.8976632,5.13991579 58.0188,5.25817895 C58.1397158,5.37622105 58.2369789,5.51681053 58.3101474,5.68016842 C58.3830947,5.84352632 58.4197895,6.01771579 58.4197895,6.2034 L58.4197895,6.2034 Z" id="Fill-25" fill="#098CCC" sketch:type="MSShapeGroup" mask="url(#mask-6)"></path>
            <path d="M62.6147716,12.8463189 C62.8734032,12.8463189 63.0986558,12.8113926 63.2900874,12.7408768 C63.4812979,12.6705821 63.6402347,12.57354 63.7668979,12.4497505 C63.8935611,12.3259611 63.9890558,12.1769716 64.0538242,12.00234 C64.1185926,11.8279295 64.1510874,11.6364979 64.1510874,11.4282663 C64.1510874,11.0007505 64.0228768,10.6616558 63.7668979,10.4112032 C63.5106979,10.1609716 63.1267295,10.0354137 62.6147716,10.0354137 C62.1025926,10.0354137 61.7186242,10.1609716 61.4626453,10.4112032 C61.2064453,10.6616558 61.0784558,11.0007505 61.0784558,11.4282663 C61.0784558,11.6309716 61.1107295,11.8195295 61.1754979,11.9937189 C61.2402663,12.1685716 61.3359821,12.3188874 61.4626453,12.4453295 C61.5890874,12.5722137 61.7495716,12.6705821 61.9436558,12.7408768 C62.13774,12.8113926 62.3614453,12.8463189 62.6147716,12.8463189 M64.9022242,17.7510347 C64.9022242,17.5788347 64.8516032,17.4380242 64.7503611,17.3290453 C64.6491189,17.2198453 64.5109611,17.1351821 64.3367716,17.0748347 C64.16214,17.0142663 63.9581084,16.9698347 63.7246768,16.9410979 C63.4910242,16.9125821 63.2436663,16.8979926 62.98194,16.8979926 L62.1715611,16.8979926 C61.8930347,16.8979926 61.6242347,16.8670453 61.3656032,16.8051505 C61.1290768,16.9346874 60.9391926,17.0878768 60.7957295,17.2651611 C60.6522663,17.4424453 60.5804242,17.6464768 60.5804242,17.8772558 C60.5804242,18.0291189 60.6184453,18.1712558 60.6944874,18.3032242 C60.7703084,18.4356347 60.8914453,18.5496979 61.0574558,18.6451926 C61.2232453,18.7409084 61.4385505,18.8154032 61.7031505,18.8688979 C61.9675295,18.9223926 62.2911505,18.94914 62.6737926,18.94914 C63.0619611,18.94914 63.3968558,18.9190768 63.6782558,18.8587295 C63.9596558,18.7983821 64.1917611,18.7150453 64.3745716,18.6087189 C64.5576032,18.5023926 64.69134,18.3761716 64.7755611,18.2293926 C64.8600032,18.0828347 64.9022242,17.9234558 64.9022242,17.7510347 M62.6147716,8.57536105 C62.98614,8.57536105 63.3349611,8.61316105 63.6614558,8.68920316 C63.9877295,8.76524526 64.2861505,8.87643474 64.5560558,9.02277158 L67.0462137,9.02277158 L67.0462137,9.79932947 C67.0462137,9.92886632 67.0123926,10.0301084 66.9447505,10.1032768 C66.8775505,10.1764453 66.76194,10.2268453 66.5988032,10.2549189 L65.8222453,10.3986032 C65.8783926,10.54494 65.9221611,10.6996768 65.9531084,10.8628137 C65.9840558,11.0261716 65.9995295,11.1977084 65.9995295,11.3776453 C65.9995295,11.8053821 65.9137611,12.1922242 65.7420032,12.5381716 C65.5704663,12.88434 65.33394,13.1785611 65.0330874,13.4203926 C64.7320137,13.6622242 64.3745716,13.8494558 63.9609821,13.9818663 C63.5473926,14.1138347 63.0986558,14.1799295 62.6147716,14.1799295 C62.2882768,14.1799295 61.9704032,14.1494242 61.6609295,14.0870874 C61.3908032,14.2515505 61.25574,14.4359084 61.25574,14.6397189 C61.25574,14.8156768 61.3359821,14.9445505 61.4962453,15.0267821 C61.6567295,15.1087926 61.8678347,15.1669295 62.12934,15.2009716 C62.3910663,15.2352347 62.68794,15.2520347 63.01974,15.2520347 C63.3519821,15.2520347 63.6924032,15.2661821 64.0412242,15.2942558 C64.3900453,15.3225505 64.7304663,15.3720663 65.0627084,15.4425821 C65.3945084,15.5130979 65.6913821,15.6245084 65.9531084,15.7772558 C66.2148347,15.9295611 66.4257189,16.1371295 66.5859821,16.3995189 C66.7464663,16.6621295 66.8267084,16.9994558 66.8267084,17.4114979 C66.8267084,17.7954663 66.73254,18.16794 66.5439821,18.5293611 C66.3552032,18.8905611 66.0826453,19.2124137 65.7252032,19.4946979 C65.3677611,19.7767611 64.9302979,20.0042242 64.4125926,20.1764242 C63.8948874,20.3486242 63.3040137,20.4348347 62.6399716,20.4348347 C61.9816768,20.4348347 61.4104768,20.3713926 60.9265926,20.2449505 C60.4424874,20.1180663 60.0414979,19.9494032 59.7236242,19.7385189 C59.4057505,19.5274137 59.1678979,19.2838137 59.0105084,19.0081611 C58.8528979,18.7325084 58.7739821,18.4455821 58.7739821,18.1471611 C58.7739821,17.7419716 58.8979926,17.4015505 59.1455716,17.1258979 C59.3931505,16.8502453 59.7364453,16.63074 60.1752347,16.4676032 C59.9614768,16.3495611 59.7897189,16.1919505 59.6604032,15.9947716 C59.5308663,15.7978137 59.4663189,15.5418347 59.4663189,15.2266137 C59.4663189,15.0975189 59.4886453,14.9637821 59.53374,14.8258453 C59.5788347,14.6879084 59.6478032,14.5515189 59.7406453,14.4162347 C59.8334874,14.2813926 59.9502032,14.1534032 60.0907926,14.0322663 C60.2316032,13.9113505 60.3976137,13.8030347 60.5890453,13.7073189 C60.1500347,13.4710137 59.8051926,13.1557926 59.5549611,12.7618768 C59.3045084,12.3681821 59.1791716,11.9066242 59.1791716,11.3776453 C59.1791716,10.9501295 59.26494,10.5632874 59.4366979,10.2168979 C59.6082347,9.87095053 59.8474137,9.57562421 60.1542347,9.33069789 C60.4608347,9.08599263 60.8238032,8.89898211 61.24314,8.76944526 C61.6622558,8.64012947 62.1193926,8.57536105 62.6147716,8.57536105" id="Fill-26" fill="#098CCC" sketch:type="MSShapeGroup" mask="url(#mask-6)"></path>
            <path d="M69.7299474,17.3875579 L67.6449789,17.3875579 L67.6449789,8.72715789 L69.7299474,8.72715789 L69.7299474,17.3875579 Z M70.0425158,6.2034 C70.0425158,6.38355789 70.0058211,6.55244211 69.9324316,6.70983158 C69.8594842,6.86744211 69.7624421,7.00537895 69.6415263,7.12342105 C69.5206105,7.24168421 69.3784737,7.33585263 69.2153368,7.40614737 C69.0517579,7.47666316 68.8777895,7.51181053 68.6921053,7.51181053 C68.5117263,7.51181053 68.3415158,7.47666316 68.1812526,7.40614737 C68.0207684,7.33585263 67.8817263,7.24168421 67.7634632,7.12342105 C67.6452,7.00537895 67.5510316,6.86744211 67.4807368,6.70983158 C67.4102211,6.55244211 67.3752947,6.38355789 67.3752947,6.2034 C67.3752947,6.01771579 67.4102211,5.84352632 67.4807368,5.68016842 C67.5510316,5.51681053 67.6452,5.37622105 67.7634632,5.25817895 C67.8817263,5.13991579 68.0207684,5.04574737 68.1812526,4.97523158 C68.3415158,4.90493684 68.5117263,4.86978947 68.6921053,4.86978947 C68.8777895,4.86978947 69.0517579,4.90493684 69.2153368,4.97523158 C69.3784737,5.04574737 69.5206105,5.13991579 69.6415263,5.25817895 C69.7624421,5.37622105 69.8594842,5.51681053 69.9324316,5.68016842 C70.0058211,5.84352632 70.0425158,6.01771579 70.0425158,6.2034 L70.0425158,6.2034 Z" id="Fill-27" fill="#098CCC" sketch:type="MSShapeGroup" mask="url(#mask-6)"></path>
            <path d="M74.0856568,17.5227316 C73.3369516,17.5227316 72.7604463,17.3103 72.3552568,16.8852158 C71.9500674,16.4605737 71.7473621,15.8739 71.7473621,15.1254158 L71.7473621,10.2887842 L70.8695621,10.2887842 C70.7568253,10.2887842 70.6597832,10.2523105 70.5784358,10.1789211 C70.4968674,10.1059737 70.4559726,9.99611053 70.4559726,9.84999474 L70.4559726,9.02259474 L71.8488253,8.79491053 L72.2876147,6.43141579 C72.3101621,6.3189 72.3621095,6.23158421 72.4436779,6.16968947 C72.5252463,6.10779474 72.6280358,6.07684737 72.7520463,6.07684737 L73.8323305,6.07684737 L73.8323305,8.80331053 L76.1113832,8.80331053 L76.1113832,10.2887842 L73.8323305,10.2887842 L73.8323305,14.9819526 C73.8323305,15.2520789 73.8997516,15.4631842 74.0350358,15.6150474 C74.1700989,15.7671316 74.3500358,15.8427316 74.5750674,15.8427316 C74.7046042,15.8427316 74.8126989,15.8274789 74.9002358,15.7963105 C74.9873305,15.7655842 75.0633726,15.7330895 75.1281411,15.6994895 C75.1926884,15.6656684 75.2506042,15.6333947 75.3010042,15.6022263 C75.3518463,15.5715 75.4022463,15.5560263 75.4530884,15.5560263 C75.5149832,15.5560263 75.5653832,15.5715 75.6049516,15.6022263 C75.6442989,15.6333947 75.6862989,15.6798158 75.7313937,15.7414895 L76.3563095,16.7543526 C76.0523621,17.0076789 75.70332,17.1991105 75.3094042,17.3284263 C74.9154884,17.4579632 74.5076463,17.5227316 74.0856568,17.5227316" id="Fill-28" fill="#098CCC" sketch:type="MSShapeGroup" mask="url(#mask-6)"></path>
            <path d="M79.6648705,16.0876137 C79.8788495,16.0876137 80.0755863,16.0683821 80.2557442,16.0294768 C80.4356811,15.9907926 80.6061126,15.9326558 80.7663758,15.8550663 C80.92686,15.7774768 81.0815968,15.6819821 81.2308074,15.5683611 C81.3797968,15.4549611 81.5303337,15.32034 81.6821968,15.1653821 L81.6821968,13.71594 C81.0745232,13.71594 80.5665442,13.7539611 80.1587021,13.8304453 C79.7506389,13.9071505 79.4228179,14.0048558 79.1752389,14.1237821 C78.92766,14.2429295 78.7519232,14.3817505 78.6478074,14.5404663 C78.5436916,14.6991821 78.4915232,14.8720453 78.4915232,15.0590558 C78.4915232,15.4275505 78.60006,15.6910453 78.8166916,15.8497611 C79.0333232,16.0084768 79.3160495,16.0876137 79.6648705,16.0876137 L79.6648705,16.0876137 Z M83.7165442,17.3876242 L82.7797232,17.3876242 C82.5825442,17.3876242 82.4278074,17.3580032 82.3152916,17.2989821 C82.2025547,17.2399611 82.1183337,17.1203716 82.0621863,16.9402137 L81.8765021,16.3239189 C81.6569968,16.5210979 81.4416916,16.6941821 81.2308074,16.8431716 C81.0197021,16.9923821 80.8015232,17.1174979 80.5764916,17.21874 C80.3512389,17.3199821 80.1122811,17.3960242 79.8591758,17.4466453 C79.6058495,17.4972663 79.3244495,17.5226874 79.0147547,17.5226874 C78.6491337,17.5226874 78.3115863,17.4733926 78.0018916,17.3745821 C77.6924179,17.2757716 77.4267126,17.1274453 77.2043337,16.9300453 C76.9819547,16.7324242 76.8090916,16.4868347 76.6850811,16.1932768 C76.5615126,15.8997189 76.4996179,15.5579716 76.4996179,15.1682558 C76.4996179,14.8406558 76.5851653,14.5176979 76.7571442,14.1984979 C76.9286811,13.87974 77.21406,13.5917084 77.6139442,13.3348453 C78.0131653,13.0779821 78.5450179,12.8646663 79.20906,12.69534 C79.8728811,12.5260137 80.6974074,12.4413505 81.6821968,12.4413505 L81.6821968,11.93094 C81.6821968,11.3469189 81.5597337,10.91454 81.3152495,10.6338032 C81.0703232,10.3532874 80.7144284,10.2129189 80.2473442,10.2129189 C79.9095758,10.2129189 79.6281758,10.2524874 79.4031442,10.3309611 C79.1781126,10.4100979 78.9824811,10.4985189 78.8166916,10.5968874 C78.65046,10.6954768 78.4972705,10.7841189 78.3566811,10.8628137 C78.2158705,10.9417295 78.0611337,10.9808558 77.8922495,10.9808558 C77.75166,10.9808558 77.6307442,10.9443821 77.5295021,10.8712137 C77.4280389,10.7980453 77.3464705,10.7080768 77.2845758,10.6013084 L76.9048074,9.93439263 C77.9008705,9.02277158 79.1020705,8.56696105 80.5088495,8.56696105 C81.0152811,8.56696105 81.4668916,8.65007684 81.8636811,8.81586632 C82.2604705,8.98187684 82.5966916,9.21265579 82.8725653,9.50798211 C83.1482179,9.80352947 83.3577758,10.1567716 83.5012389,10.5672663 C83.6449232,10.9782032 83.7165442,11.4282663 83.7165442,11.9178979 L83.7165442,17.3876242 Z" id="Fill-29" fill="#098CCC" sketch:type="MSShapeGroup" mask="url(#mask-6)"></path>
            <path d="M87.1435895,17.3875579 L85.0586211,17.3875579 L85.0586211,4.84436842 L87.1435895,4.84436842 L87.1435895,17.3875579 Z" id="Fill-30" fill="#098CCC" sketch:type="MSShapeGroup" mask="url(#mask-6)"></path>
            <path d="M98.1503968,11.2849137 C98.1503968,10.6153453 98.0619758,10.0145242 97.8846916,9.48267158 C97.7074074,8.95081895 97.4527547,8.49942947 97.1207337,8.12806105 C96.7887126,7.75669263 96.3850705,7.47241895 95.9093653,7.27546105 C95.4338811,7.07850316 94.8978284,6.97991368 94.3014284,6.97991368 C93.7050284,6.97991368 93.1674284,7.07850316 92.6892916,7.27546105 C92.2109337,7.47241895 91.8041968,7.75669263 91.4695232,8.12806105 C91.1346284,8.49942947 90.8773232,8.95081895 90.6971653,9.48267158 C90.5170074,10.0145242 90.4270389,10.6153453 90.4270389,11.2849137 C90.4270389,11.9544821 90.5170074,12.5550821 90.6971653,13.0869347 C90.8773232,13.6187874 91.1346284,14.0690716 91.4695232,14.4375663 C91.8041968,14.8062821 92.2109337,15.0890084 92.6892916,15.2859663 C93.1674284,15.4829242 93.7050284,15.5812926 94.3014284,15.5812926 C94.8978284,15.5812926 95.4338811,15.4829242 95.9093653,15.2859663 C96.3850705,15.0890084 96.7887126,14.8062821 97.1207337,14.4375663 C97.4527547,14.0690716 97.7074074,13.6187874 97.8846916,13.0869347 C98.0619758,12.5550821 98.1503968,11.9544821 98.1503968,11.2849137 M100.480071,11.2849137 C100.480071,12.1795137 100.33086,13.00824 100.032881,13.7706505 C99.73446,14.5332821 99.3153442,15.1931242 98.7750916,15.7499558 C98.2348389,16.3072295 97.5849442,16.74204 96.8254074,17.0541663 C96.0654284,17.3665137 95.2243232,17.5227979 94.3014284,17.5227979 C93.3785337,17.5227979 92.5358811,17.3665137 91.7732495,17.0541663 C91.0108389,16.74204 90.3580705,16.3072295 89.8151653,15.7499558 C89.2720389,15.1931242 88.8515968,14.5332821 88.5531758,13.7706505 C88.2547547,13.00824 88.1057653,12.1795137 88.1057653,11.2849137 C88.1057653,10.3900926 88.2547547,9.56158737 88.5531758,8.79895579 C88.8515968,8.03654526 89.2720389,7.37670316 89.8151653,6.81965053 C90.3580705,6.26259789 91.0108389,5.82778737 91.7732495,5.51544 C92.5358811,5.20309263 93.3785337,5.04702947 94.3014284,5.04702947 C95.2243232,5.04702947 96.0654284,5.20464 96.8254074,5.51964 C97.5849442,5.83486105 98.2348389,6.26967158 98.7750916,6.82385053 C99.3153442,7.37825053 99.73446,8.03654526 100.032881,8.79895579 C100.33086,9.56158737 100.480071,10.3900926 100.480071,11.2849137" id="Fill-31" fill="#098CCC" sketch:type="MSShapeGroup" mask="url(#mask-6)"></path>
            <path d="M107.39316,10.5589326 C107.331265,10.6376274 107.270697,10.6997432 107.211897,10.7446168 C107.152655,10.7897116 107.066665,10.8120379 106.954371,10.8120379 C106.847381,10.8120379 106.743265,10.7797642 106.641802,10.7149958 C106.54056,10.6504484 106.419644,10.57728 106.279055,10.4957116 C106.138244,10.4141432 105.970907,10.3409747 105.776823,10.2762063 C105.582518,10.2116589 105.342234,10.1789432 105.055086,10.1789432 C104.689244,10.1789432 104.368497,10.2452589 104.092844,10.3774484 C103.816971,10.5096379 103.587739,10.6997432 103.404928,10.9473221 C103.222118,11.1949011 103.085507,11.4944274 102.995539,11.8461221 C102.905349,12.1978168 102.860476,12.5961537 102.860476,13.0406905 C102.860476,13.5020274 102.909771,13.9129642 103.008139,14.2730589 C103.106507,14.6331537 103.248865,14.9355537 103.434549,15.1802589 C103.620234,15.4251853 103.845044,15.6108695 104.109644,15.7375326 C104.374244,15.8639747 104.672223,15.9271958 105.004465,15.9271958 C105.336486,15.9271958 105.605065,15.8867432 105.810644,15.8047326 C106.015781,15.7233853 106.189086,15.6334168 106.329676,15.5348274 C106.470265,15.4362379 106.592728,15.3462695 106.697065,15.2647011 C106.80096,15.1831326 106.917676,15.1422379 107.046992,15.1422379 C107.215876,15.1422379 107.342539,15.2070063 107.426981,15.3363221 L108.026255,16.09608 C107.795476,16.3662063 107.545023,16.5927853 107.275118,16.7755958 C107.004992,16.9586274 106.724918,17.1047432 106.435118,17.2143853 C106.145318,17.3242484 105.845571,17.4016168 105.536318,17.4467116 C105.226623,17.4915853 104.920023,17.5143537 104.616076,17.5143537 C104.081349,17.5143537 103.578013,17.4142168 103.105181,17.2143853 C102.632571,17.0147747 102.220307,16.7236484 101.868834,16.3407853 C101.516918,15.9583642 101.238392,15.4899537 101.033034,14.9355537 C100.827676,14.3813747 100.724886,13.7496063 100.724886,13.0406905 C100.724886,12.4047221 100.816402,11.8153958 100.999213,11.2722695 C101.182023,10.7291432 101.450823,10.2594063 101.805392,9.86261684 C102.15996,9.46582737 102.598749,9.15502737 103.122202,8.92977474 C103.645434,8.70474316 104.247581,8.59222737 104.928644,8.59222737 C105.575444,8.59222737 106.142665,8.69634316 106.629423,8.90457474 C107.11596,9.11280632 107.553644,9.41100632 107.941813,9.79917474 L107.39316,10.5589326 Z" id="Fill-32" fill="#098CCC" sketch:type="MSShapeGroup" mask="url(#mask-6)"></path>
            <path d="M112.136927,10.0863884 C111.529254,10.0863884 111.053548,10.2579253 110.710475,10.60122 C110.366959,10.9445147 110.147675,11.4312726 110.051959,12.0614937 L113.968569,12.0614937 C113.968569,11.7913674 113.931875,11.5369358 113.858927,11.2975358 C113.785538,11.0585779 113.673022,10.8487989 113.521159,10.6686411 C113.369296,10.4884832 113.177864,10.3465674 112.947306,10.2424516 C112.716306,10.1383358 112.44618,10.0863884 112.136927,10.0863884 M112.094706,8.59229368 C112.640485,8.59229368 113.142717,8.67960947 113.601401,8.85379895 C114.059864,9.02843053 114.455106,9.28308316 114.787348,9.61775684 C115.119148,9.95265158 115.378222,10.3635884 115.563906,10.8501253 C115.749591,11.3368832 115.842433,11.8926095 115.842433,12.5173042 C115.842433,12.6749147 115.835138,12.8057779 115.821433,12.9098937 C115.807064,13.0137884 115.781864,13.0953568 115.745391,13.1545989 C115.708696,13.2133989 115.659622,13.2558411 115.597506,13.2810411 C115.535612,13.3062411 115.457138,13.3190621 115.361422,13.3190621 L110.009738,13.3190621 C110.071633,14.2083568 110.310812,14.8611253 110.727275,15.2773674 C111.143738,15.6938305 111.695043,15.9020621 112.381633,15.9020621 C112.719401,15.9020621 113.010527,15.8627147 113.255454,15.7837989 C113.500159,15.7051042 113.713917,15.6177884 113.896727,15.5222937 C114.079538,15.4265779 114.240022,15.3394832 114.377959,15.2603463 C114.515896,15.1818726 114.649412,15.1423042 114.778948,15.1423042 C114.863391,15.1423042 114.936338,15.1591042 114.998233,15.1931463 C115.060348,15.2267463 115.113622,15.2747147 115.158717,15.3363884 L115.766391,16.0961463 C115.535612,16.3662726 115.27698,16.5928516 114.989833,16.7756621 C114.702906,16.9586937 114.40338,17.1048095 114.091033,17.2144516 C113.778685,17.3243147 113.460591,17.4016832 113.136969,17.4467779 C112.813569,17.4916516 112.499896,17.51442 112.196169,17.51442 C111.593801,17.51442 111.033875,17.4140621 110.516169,17.2144516 C109.998464,17.0148411 109.548401,16.7195147 109.165759,16.3282516 C108.782896,15.9372095 108.482043,15.4533253 108.262538,14.8763779 C108.043033,14.2998726 107.933169,13.6314095 107.933169,12.8718726 C107.933169,12.2809989 108.028885,11.7252726 108.220317,11.2046937 C108.411527,10.6841147 108.686075,10.2311779 109.043296,9.84566211 C109.400517,9.46036737 109.836875,9.15509368 110.351706,8.92984105 C110.866538,8.70480947 111.447464,8.59229368 112.094706,8.59229368" id="Fill-33" fill="#098CCC" sketch:type="MSShapeGroup" mask="url(#mask-6)"></path>
            <path d="M119.42952,16.0876137 C119.643499,16.0876137 119.840236,16.0683821 120.020394,16.0294768 C120.200331,15.9907926 120.370762,15.9326558 120.531025,15.8550663 C120.691509,15.7774768 120.846246,15.6819821 120.995457,15.5683611 C121.144446,15.4549611 121.294983,15.32034 121.446846,15.1653821 L121.446846,13.71594 C120.839173,13.71594 120.331194,13.7539611 119.923352,13.8304453 C119.515288,13.9071505 119.187467,14.0048558 118.939888,14.1237821 C118.692309,14.2429295 118.516573,14.3817505 118.412457,14.5404663 C118.308341,14.6991821 118.256173,14.8720453 118.256173,15.0590558 C118.256173,15.4275505 118.364709,15.6910453 118.581341,15.8497611 C118.797973,16.0084768 119.080699,16.0876137 119.42952,16.0876137 L119.42952,16.0876137 Z M123.481194,17.3876242 L122.544373,17.3876242 C122.347194,17.3876242 122.192457,17.3580032 122.079941,17.2989821 C121.967204,17.2399611 121.882983,17.1203716 121.826836,16.9402137 L121.641152,16.3239189 C121.421646,16.5210979 121.206341,16.6941821 120.995457,16.8431716 C120.784352,16.9923821 120.566173,17.1174979 120.341141,17.21874 C120.115888,17.3199821 119.876931,17.3960242 119.623825,17.4466453 C119.370499,17.4972663 119.089099,17.5226874 118.779625,17.5226874 C118.413783,17.5226874 118.076236,17.4733926 117.766762,17.3745821 C117.457067,17.2757716 117.191362,17.1274453 116.968983,16.9300453 C116.746604,16.7324242 116.573741,16.4868347 116.449952,16.1932768 C116.326162,15.8997189 116.264267,15.5579716 116.264267,15.1682558 C116.264267,14.8406558 116.349815,14.5176979 116.521794,14.1984979 C116.693331,13.87974 116.978709,13.5917084 117.378594,13.3348453 C117.777815,13.0779821 118.309888,12.8646663 118.973709,12.69534 C119.637531,12.5260137 120.462057,12.4413505 121.446846,12.4413505 L121.446846,11.93094 C121.446846,11.3469189 121.324383,10.91454 121.079899,10.6338032 C120.834973,10.3532874 120.479078,10.2129189 120.011994,10.2129189 C119.674225,10.2129189 119.392825,10.2524874 119.167794,10.3309611 C118.942762,10.4100979 118.747131,10.4985189 118.581341,10.5968874 C118.415109,10.6954768 118.26192,10.7841189 118.121331,10.8628137 C117.98052,10.9417295 117.825783,10.9808558 117.656899,10.9808558 C117.516309,10.9808558 117.395394,10.9443821 117.294152,10.8712137 C117.192688,10.7980453 117.11112,10.7080768 117.049225,10.6013084 L116.669457,9.93439263 C117.66552,9.02277158 118.86672,8.56696105 120.273499,8.56696105 C120.779931,8.56696105 121.231541,8.65007684 121.628331,8.81586632 C122.02512,8.98187684 122.361341,9.21265579 122.637215,9.50798211 C122.912867,9.80352947 123.122425,10.1567716 123.265888,10.5672663 C123.409573,10.9782032 123.481194,11.4282663 123.481194,11.9178979 L123.481194,17.3876242 Z" id="Fill-34" fill="#098CCC" sketch:type="MSShapeGroup" mask="url(#mask-6)"></path>
            <path d="M124.688141,17.3876021 L124.688141,8.72720211 L125.962952,8.72720211 C126.232857,8.72720211 126.410141,8.85386526 126.494583,9.10697053 L126.638046,9.79090737 C126.812236,9.61074947 126.996815,9.44761263 127.190899,9.30127579 C127.384983,9.15493895 127.590562,9.02849684 127.806973,8.92150737 C128.023825,8.81451789 128.255931,8.73294947 128.503509,8.67658105 C128.751088,8.62043368 129.021215,8.59213895 129.313888,8.59213895 C129.78672,8.59213895 130.205615,8.67238105 130.571457,8.83286526 C130.937299,8.99312842 131.242573,9.21816 131.487499,9.50796 C131.731983,9.79798105 131.917888,10.1439284 132.044331,10.5462442 C132.171215,10.94856 132.234436,11.3917705 132.234436,11.8756547 L132.234436,17.3876021 L130.149467,17.3876021 L130.149467,11.8756547 C130.149467,11.3468968 130.027004,10.9372863 129.782299,10.6477074 C129.537373,10.3576863 129.170204,10.2128968 128.680794,10.2128968 C128.320699,10.2128968 127.982931,10.2944653 127.667709,10.4576021 C127.352709,10.62096 127.054509,10.8433389 126.773109,11.1245179 L126.773109,17.3876021 L124.688141,17.3876021 Z" id="Fill-35" fill="#098CCC" sketch:type="MSShapeGroup" mask="url(#mask-6)"></path>
        </g>
    </g>
</svg>