<svg width="33" height="32" viewBox="0 0 33 32" fill="none" xmlns="http://www.w3.org/2000/svg">
<g clip-path="url(#clip0_1702_2951)">
<path fill-rule="evenodd" clip-rule="evenodd" d="M16.485 -0.00799942C7.38 -0.00799942 0 7.306 0 16.33C0 23.545 4.722 29.668 11.275 31.83C12.099 31.978 12.4 31.474 12.4 31.04C12.4 30.653 12.386 29.626 12.378 28.263C7.791 29.25 6.824 26.073 6.824 26.073C6.074 24.186 4.994 23.683 4.994 23.683C3.496 22.67 5.106 22.69 5.106 22.69C6.761 22.806 7.632 24.374 7.632 24.374C9.102 26.87 11.492 26.149 12.43 25.731C12.58 24.676 13.006 23.957 13.477 23.548C9.817 23.136 5.967 21.735 5.967 15.475C5.967 13.691 6.609 12.233 7.664 11.091C7.494 10.678 6.929 9.017 7.826 6.768C7.826 6.768 9.21 6.328 12.36 8.443C13.675 8.08 15.085 7.899 16.487 7.893C17.887 7.899 19.297 8.08 20.615 8.443C23.763 6.329 25.145 6.768 25.145 6.768C26.045 9.018 25.478 10.678 25.309 11.091C26.364 12.233 27.002 13.691 27.002 15.475C27.002 21.75 23.147 23.131 19.474 23.535C20.066 24.04 20.594 25.037 20.594 26.561C20.594 28.745 20.574 30.507 20.574 31.041C20.574 31.479 20.87 31.987 21.707 31.828C28.253 29.663 32.973 23.544 32.973 16.33C32.973 7.306 25.59 -0.00799942 16.483 -0.00799942H16.485Z" fill="white"/>
</g>
<defs>
<clipPath id="clip0_1702_2951">
<rect width="33" height="32" fill="white"/>
</clipPath>
</defs>
</svg>
