<svg width="98" height="22" viewBox="0 0 98 22" xmlns="http://www.w3.org/2000/svg"><title>logo-ubuntu</title><desc>Created with Sketch Beta.</desc><g fill="none" fill-rule="evenodd"><g><path d="M91.907.1c3.22 0 5.832 2.61 5.832 5.83 0 3.222-2.612 5.833-5.833 5.833-3.22 0-5.832-2.61-5.832-5.832 0-3.22 2.61-5.83 5.832-5.83" fill="#DD4813"/><path d="M88.27 5.23c-.388 0-.7.313-.7.7 0 .387.312.7.7.7.387 0 .7-.313.7-.7 0-.387-.313-.7-.7-.7zm5.002 3.185c-.335.192-.45.62-.256.955.193.336.62.45.957.257.335-.193.45-.62.256-.956-.194-.334-.623-.45-.958-.255zm-3.48-2.484c0-.692.343-1.304.87-1.674l-.512-.86c-.613.41-1.07 1.037-1.26 1.77.222.18.363.456.363.765 0 .308-.14.582-.363.764.19.733.647 1.36 1.26 1.768l.51-.858c-.525-.37-.868-.98-.868-1.673zm2.046-2.047c1.07 0 1.947.82 2.04 1.867l.997-.017c-.05-.77-.386-1.464-.904-1.973-.266.1-.574.086-.84-.07-.265-.152-.433-.41-.48-.693-.258-.07-.53-.11-.812-.11-.484 0-.942.113-1.348.315l.486.872c.262-.123.555-.19.862-.19zm0 4.093c-.308 0-.6-.067-.862-.19l-.486.872c.406.203.864.315 1.348.315.282 0 .554-.038.813-.11.047-.282.214-.54.48-.694.267-.155.574-.17.84-.07.52-.51.856-1.202.905-1.974l-.998-.014c-.092 1.045-.97 1.864-2.04 1.864zm1.434-4.53c.335.193.764.08.957-.257.192-.335.077-.764-.257-.957-.336-.193-.764-.08-.957.256-.193.334-.08.763.256.956z" fill="#fff"/><path d="M11.962 21.232c-.593.15-1.375.306-2.347.472-.972.166-2.097.25-3.374.25-1.11 0-2.045-.162-2.804-.486-.76-.323-1.37-.78-1.833-1.374-.463-.593-.796-1.292-1-2.097C.4 17.192.3 16.3.3 15.317v-8.11H2.88v7.555c0 1.76.278 3.017.834 3.776.555.76 1.49 1.14 2.805 1.14.277 0 .563-.01.86-.03.295-.017.574-.04.833-.07.26-.027.495-.054.708-.082.214-.027.367-.06.46-.097V7.207h2.582v14.024zm6.303-13.385c.314-.204.792-.417 1.43-.64.64-.22 1.375-.332 2.208-.332 1.036 0 1.958.186 2.763.556.805.37 1.486.89 2.04 1.555.556.667.977 1.463 1.265 2.388.287.927.43 1.945.43 3.056 0 1.165-.17 2.216-.512 3.15-.344.935-.83 1.726-1.458 2.374-.63.648-1.39 1.148-2.278 1.5-.888.35-1.888.527-3 .527-1.203 0-2.267-.082-3.192-.25-.926-.166-1.685-.332-2.277-.5V.545L18.265.1v7.747zm0 11.552c.26.073.625.143 1.097.207.472.065 1.06.097 1.763.097 1.39 0 2.5-.458 3.332-1.374.834-.917 1.25-2.217 1.25-3.9 0-.742-.074-1.436-.222-2.085-.148-.648-.39-1.208-.722-1.68-.333-.472-.764-.842-1.29-1.11-.53-.27-1.163-.403-1.903-.403-.705 0-1.352.12-1.944.36-.594.242-1.047.492-1.36.75V19.4zm24.548 1.832c-.593.15-1.375.306-2.347.472-.972.166-2.097.25-3.374.25-1.11 0-2.045-.162-2.804-.486-.76-.323-1.37-.78-1.833-1.374-.463-.593-.796-1.292-1-2.097-.204-.805-.305-1.698-.305-2.68v-8.11h2.582v7.555c0 1.76.278 3.017.833 3.776.556.76 1.49 1.14 2.805 1.14.278 0 .565-.01.86-.03.296-.017.574-.04.834-.07.26-.027.495-.054.71-.082.21-.027.364-.06.456-.097V7.207h2.583v14.024zm3.72-13.607c.593-.148 1.38-.305 2.36-.472.98-.167 2.11-.25 3.388-.25 1.15 0 2.103.162 2.86.486.76.323 1.367.776 1.82 1.36.453.582.773 1.282.958 2.096.185.816.278 1.713.278 2.694v8.108h-2.582v-7.553c0-.888-.06-1.647-.18-2.277-.122-.63-.32-1.14-.598-1.527-.278-.388-.648-.67-1.11-.846-.463-.177-1.038-.264-1.722-.264-.28 0-.565.01-.86.027-.297.02-.58.042-.848.07-.27.028-.51.06-.722.097-.213.037-.365.065-.458.083v12.19h-2.583V7.626zm17.633-.417h5.47v2.166h-5.47v6.665c0 .72.055 1.32.167 1.79.11.472.278.843.5 1.11.222.27.5.46.833.57.333.11.72.167 1.166.167.795 0 1.425-.088 1.888-.265.462-.175.778-.3.945-.374l.555 2.11c-.26.13-.718.297-1.375.5-.657.204-1.402.306-2.235.306-.982 0-1.792-.125-2.43-.375-.64-.25-1.152-.625-1.54-1.126-.39-.5-.663-1.115-.82-1.846-.158-.73-.236-1.578-.236-2.54V3.18l2.582-.444v4.47zm19.522 14.024c-.594.15-1.375.306-2.347.472-.97.166-2.096.25-3.372.25-1.11 0-2.046-.162-2.806-.486-.76-.323-1.37-.78-1.832-1.374-.463-.593-.796-1.292-1-2.097-.204-.805-.306-1.698-.306-2.68v-8.11h2.584v7.555c0 1.76.277 3.017.833 3.776.556.76 1.49 1.14 2.805 1.14.278 0 .564-.01.86-.03.296-.017.574-.04.834-.07.258-.027.494-.054.707-.082.212-.027.366-.06.46-.097V7.207h2.58v14.024z" fill="#000"/></g></g></svg>