<svg width="120" height="28" viewBox="0 0 120 28" xmlns="http://www.w3.org/2000/svg"><title>logo-docker.svg</title><desc>Created with Sketch Beta.</desc><g fill="none" fill-rule="evenodd"><g><path d="M28.795 8.83h4.445v4.513h2.248c1.038 0 2.105-.184 3.09-.515.482-.163 1.023-.39 1.5-.673-.628-.814-.948-1.842-1.042-2.854-.128-1.377.15-3.17 1.09-4.248l.467-.537.557.445c1.402 1.12 2.58 2.68 2.788 4.463 1.69-.492 3.67-.376 5.16.477l.61.35-.323.622c-1.258 2.44-3.888 3.195-6.46 3.06-3.85 9.52-12.228 14.028-22.387 14.028-5.25 0-10.064-1.95-12.806-6.572l-.045-.077-.4-.806c-.926-2.036-1.234-4.266-1.025-6.494l.062-.667h3.802V8.83h4.445V4.414h8.89V0h5.335v8.83" fill="#364548"/><path d="M43.197 10.5c.298-2.302-1.436-4.11-2.51-4.966-1.24 1.422-1.433 5.15.51 6.72-1.084.957-3.37 1.824-5.71 1.824H7c-.228 2.426.2 4.66 1.18 6.573l.324.59c.206.346.43.68.672 1 1.172.075 2.25.1 3.24.08 1.94-.043 3.525-.27 4.726-.684.18-.062.373.033.435.21s-.033.37-.21.432c-.16.055-.327.106-.5.156-.945.268-1.96.448-3.267.528.077 0-.08.012-.08.012-.045.003-.1.01-.146.01-.515.03-1.07.037-1.638.037-.622 0-1.234-.01-1.918-.046l-.017.01c2.375 2.65 6.086 4.24 10.738 4.24 9.846 0 18.198-4.334 21.895-14.067 2.624.268 5.146-.396 6.293-2.62-1.827-1.047-4.177-.713-5.53-.038" fill="#22A0C8"/><path d="M43.197 10.5c.298-2.302-1.436-4.11-2.51-4.966-1.24 1.422-1.433 5.15.51 6.72-1.084.957-3.37 1.824-5.71 1.824h-26.8c-.117 3.715 1.27 6.536 3.728 8.242 1.942-.043 3.526-.27 4.727-.684.18-.062.373.033.435.21s-.033.37-.21.432c-.16.055-.327.106-.5.156-.945.268-2.046.47-3.354.55l-.03-.03c3.35 1.708 8.208 1.702 13.78-.423 6.244-2.382 12.057-6.922 16.112-12.115-.06.028-.12.055-.178.084" fill="#37B1D9"/><path d="M7.053 17.026c.177 1.3.56 2.517 1.127 3.625l.324.59c.206.346.43.68.672 1 1.172.075 2.25.1 3.24.08 1.94-.043 3.525-.27 4.726-.684.18-.062.373.033.435.21s-.033.37-.21.432c-.16.055-.327.106-.5.156-.945.268-2.04.46-3.348.54-.045.003-.124.003-.17.006-.514.03-1.064.046-1.632.046-.62 0-1.256-.012-1.94-.046 2.374 2.65 6.108 4.244 10.76 4.244 8.43 0 15.763-3.177 20.02-10.198H7.052" fill="#1B81A5"/><path d="M8.943 17.026c.504 2.282 1.715 4.073 3.472 5.294 1.942-.043 3.526-.27 4.727-.684.18-.062.373.033.435.21s-.033.37-.21.432c-.16.055-.327.106-.5.156-.945.268-2.063.46-3.37.54 3.35 1.707 8.194 1.682 13.765-.443 3.37-1.285 6.612-3.2 9.522-5.504H8.944" fill="#1D91B4"/><path d="M10.866 9.565h3.853v3.826h-3.854V9.566zm.32.32h.305v3.188h-.303v-3.19zm.572 0h.317v3.188h-.317v-3.19zm.584 0h.317v3.188h-.318v-3.19zm.584 0h.317v3.188h-.317v-3.19zm.584 0h.316v3.188h-.316v-3.19zm.583 0h.305v3.188h-.305v-3.19z" fill="#23A3C2"/><path d="M15.31 5.15h3.854v3.827H15.31V5.15zm.322.32h.304v3.188h-.304v-3.19zm.572 0h.316v3.188h-.316v-3.19zm.583 0h.317v3.188h-.317v-3.19zm.584 0h.317v3.188h-.316v-3.19zm.585 0h.316v3.188h-.315v-3.19zm.584 0h.303v3.188h-.304v-3.19z" fill="#23A3C2"/><path d="M15.31 9.565h3.854v3.826H15.31V9.566zm.322.32h.304v3.188h-.304v-3.19zm.572 0h.316v3.188h-.316v-3.19zm.583 0h.317v3.188h-.317v-3.19zm.584 0h.317v3.188h-.316v-3.19zm.585 0h.316v3.188h-.315v-3.19zm.584 0h.303v3.188h-.304v-3.19z" fill="#34BBDE"/><path d="M19.757 9.565h3.852v3.826h-3.853V9.566zm.32.32h.305v3.188h-.305v-3.19zm.572 0h.315v3.188h-.316v-3.19zm.583 0h.316v3.188h-.317v-3.19zm.584 0h.316v3.188h-.316v-3.19zm.583 0h.317v3.188H22.4v-3.19zm.584 0h.304v3.188h-.304v-3.19z" fill="#23A3C2"/><path d="M19.757 5.15h3.852v3.827h-3.853V5.15zm.32.32h.305v3.188h-.305v-3.19zm.572 0h.315v3.188h-.316v-3.19zm.583 0h.316v3.188h-.317v-3.19zm.584 0h.316v3.188h-.316v-3.19zm.583 0h.317v3.188H22.4v-3.19zm.584 0h.304v3.188h-.304v-3.19z" fill="#34BBDE"/><path d="M24.202 9.565h3.853v3.826h-3.853V9.566zm.32.32h.305v3.188h-.304v-3.19zm.573 0h.316v3.188h-.315v-3.19zm.583 0h.316v3.188h-.316v-3.19zm.584 0h.316v3.188h-.316v-3.19zm.584 0h.316v3.188h-.316v-3.19zm.583 0h.304v3.188h-.305v-3.19z" fill="#34BBDE"/><path d="M24.202 5.15h3.853v3.827h-3.853V5.15zm.32.32h.305v3.188h-.304v-3.19zm.573 0h.316v3.188h-.315v-3.19zm.583 0h.316v3.188h-.316v-3.19zm.584 0h.316v3.188h-.316v-3.19zm.584 0h.316v3.188h-.316v-3.19zm.583 0h.304v3.188h-.305v-3.19z" fill="#23A3C2"/><path d="M24.202.736h3.853v3.826h-3.853V.736zm.32.318h.305v3.19h-.304v-3.19zm.573 0h.316v3.19h-.315v-3.19zm.583 0h.316v3.19h-.316v-3.19zm.584 0h.316v3.19h-.316v-3.19zm.584 0h.316v3.19h-.316v-3.19zm.583 0h.304v3.19h-.305v-3.19z" fill="#34BBDE"/><path d="M28.647 9.565H32.5v3.826h-3.853V9.566zm.32.32h.305v3.188h-.304v-3.19zm.573 0h.315v3.188h-.315v-3.19zm.583 0h.317v3.188h-.317v-3.19zm.584 0h.316v3.188h-.316v-3.19zm.584 0h.317v3.188h-.316v-3.19zm.584 0h.304v3.188h-.304v-3.19z" fill="#23A3C2"/><path d="M18.923 19.595c.587 0 1.063.473 1.063 1.055 0 .584-.476 1.056-1.063 1.056-.588 0-1.063-.472-1.063-1.056 0-.582.475-1.055 1.063-1.055" fill="#D3ECEC"/><path d="M18.923 19.894c.097 0 .19.02.275.052-.092.053-.155.153-.155.267 0 .17.14.308.31.308.118 0 .22-.063.273-.16.037.09.058.187.058.29 0 .418-.34.757-.76.757s-.763-.34-.763-.757.343-.756.763-.756" fill="#364548"/><path d="M.123 17.407h49.442c-1.077-.27-3.406-.637-3.022-2.038-1.958 2.25-6.68 1.577-7.87.468-1.326 1.91-9.05 1.184-9.59-.305-1.662 1.94-6.816 1.94-8.48 0-.538 1.49-8.26 2.216-9.588.305-1.192 1.11-5.912 1.78-7.87-.47C3.53 16.77 1.2 17.137.124 17.41" fill="#364548"/><path d="M21.748 27.202c-2.632-1.24-4.077-2.927-4.88-4.768-.98.277-2.154.454-3.52.53-.514.03-1.054.043-1.623.043-.654 0-1.344-.02-2.068-.057 2.414 2.396 5.383 4.24 10.88 4.274.407 0 .81-.007 1.21-.022" fill="#BDD9D7"/><path d="M17.845 24.133c-.364-.49-.717-1.108-.977-1.7-.98.278-2.154.455-3.52.53.938.507 2.28.975 4.497 1.17" fill="#D3ECEC"/><path d="M61.66 12.342V8.045c0-.565.356-1.02.945-1.02h.163c.59 0 .942.455.942 1.02v9.048c0 2.206-1.097 3.96-3.01 5.08-.886.517-1.867.784-2.895.784H57.4c-2.222 0-3.988-1.09-5.115-2.99-.524-.88-.79-1.853-.79-2.874v-.404c0-2.208 1.098-3.962 3.01-5.083.886-.52 1.865-.785 2.894-.785h.405c1.504 0 2.78.58 3.856 1.52zm-8.116 4.548c0 1.595.778 2.792 2.184 3.557.568.308 1.186.474 1.835.474 1.575 0 2.743-.736 3.55-2.062.373-.617.548-1.292.548-2.01 0-1.38-.658-2.46-1.78-3.26-.678-.485-1.443-.73-2.277-.73-1.717 0-2.953.863-3.695 2.393-.25.52-.364 1.068-.364 1.64zm17.276-6.068h.284c2.374 0 4.18 1.145 5.324 3.203.458.824.703 1.722.703 2.664v.403c0 2.206-1.095 3.964-3.01 5.08-.887.516-1.867.784-2.894.784h-.406c-2.222 0-3.987-1.09-5.115-2.99-.524-.88-.79-1.853-.79-2.874v-.404c0-2.208 1.102-3.957 3.008-5.083.886-.523 1.867-.785 2.897-.785zm-3.856 6.068c0 1.547.765 2.685 2.08 3.485.618.376 1.298.546 2.02.546 1.54 0 2.677-.774 3.47-2.064.376-.615.547-1.29.547-2.007 0-1.44-.696-2.538-1.89-3.335-.653-.437-1.38-.656-2.167-.656-1.717 0-2.953.86-3.694 2.39-.252.52-.366 1.068-.366 1.64zm18.685-3.868c-.31-.144-.89-.192-1.223-.204-1.712-.064-2.95.893-3.678 2.393-.252.518-.366 1.067-.366 1.64 0 1.742.92 2.963 2.49 3.707.57.27 1.31.323 1.935.323.55 0 1.327-.335 1.815-.565l.085-.04h.378l.042.008c.467.097.818.39.818.888v.203c0 1.24-2.28 1.523-3.15 1.583-3.07.21-5.367-1.464-6.243-4.372-.152-.506-.22-1.007-.22-1.533v-.403c0-2.206 1.102-3.955 3.008-5.08.888-.522 1.867-.784 2.897-.784h.406c1.092 0 2.098.308 3 .92l.074.05.046.077c.098.16.182.346.182.537v.2c0 .52-.39.8-.864.89l-.04.007h-.12c-.306 0-1-.314-1.275-.442zm6.647 1.378c.796-.79 1.595-1.58 2.403-2.36.225-.217 1.077-1.137 1.413-1.137h.367l.042.01c.467.096.818.39.818.888v.203c0 .34-.402.736-.623.97-.47.494-.967.974-1.45 1.46l-2.474 2.495c1.065 1.06 2.13 2.123 3.188 3.193.293.296.586.593.874.893.102.106.253.238.338.385.09.14.148.295.148.46v.21l-.013.05c-.115.464-.41.84-.93.84h-.163c-.34 0-.72-.383-.953-.6-.478-.448-.94-.92-1.41-1.377l-1.573-1.533V21.9c0 .563-.356 1.017-.944 1.017h-.162c-.587 0-.942-.454-.942-1.018V8.083c0-.565.355-1.017.943-1.017h.163c.588 0 .944.452.944 1.017V14.4zm25.54-3.497h.204c.616 0 1.027.412 1.027 1.02 0 .842-.81 1.058-1.513 1.058-.92 0-1.8.553-2.434 1.174-.79.775-1.137 1.766-1.137 2.857v4.928c0 .566-.355 1.02-.943 1.02h-.162c-.59 0-.945-.454-.945-1.02v-5.21c0-2 .98-3.633 2.616-4.78.976-.683 2.093-1.045 3.288-1.045zm-14.564 9.765c.745.26 1.596.222 2.36.09.392-.166 1.394-.6 1.76-.536l.06.01.052.025c.224.11.44.262.554.49.268.532.138 1.067-.388 1.368l-.176.102c-1.943 1.114-4.01.96-5.95-.08-.925-.498-1.634-1.237-2.157-2.138l-.123-.21c-1.248-2.147-1.08-4.405.328-6.446.486-.705 1.12-1.25 1.863-1.677l.28-.16c1.832-1.05 3.794-.978 5.674-.057 1.01.495 1.83 1.234 2.394 2.204l.102.175c.41.705-.122 1.32-.67 1.74-.637.487-1.28 1.074-1.89 1.597-1.358 1.166-2.715 2.334-4.075 3.5zm-1.76-1.227c1.52-1.295 3.042-2.59 4.56-3.892.517-.443 1.085-.903 1.6-1.37-.413-.516-1.102-.89-1.688-1.11-1.182-.448-2.347-.298-3.43.323-1.42.815-2.025 2.11-1.972 3.723.022.635.193 1.247.533 1.787.12.19.253.37.397.54z" fill="#364548"/></g></g></svg>