<?xml version="1.0" encoding="UTF-8" standalone="no"?>
<svg width="191px" height="24px" viewBox="0 0 191 24" version="1.1" xmlns="http://www.w3.org/2000/svg" xmlns:xlink="http://www.w3.org/1999/xlink" xmlns:sketch="http://www.bohemiancoding.com/sketch/ns">
    <!-- Generator: Sketch Beta 3.4 (14718) - http://www.bohemiancoding.com/sketch -->
    <title>logo - google cloud</title>
    <desc>Created with Sketch Beta.</desc>
    <defs>
        <path id="path-1" d="M0,0.0161012658 L190.246076,0.0161012658 L190.246076,24 L0,24"></path>
        <path id="path-3" d="M0,0.0161012658 L190.246076,0.0161012658 L190.246076,24 L0,24 L0,0.0161012658 Z"></path>
    </defs>
    <g id="Page-1" stroke="none" stroke-width="1" fill="none" fill-rule="evenodd" sketch:type="MSPage">
        <g id="logo---google-cloud" sketch:type="MSLayerGroup">
            <path d="M8.60835443,20.1763949 L3.85098734,11.9364962 L8.60835443,3.69659747 L18.1228861,3.69659747 L22.8802532,11.9364962 L18.1228861,20.1763949 L8.60835443,20.1763949 Z" id="Fill-1" fill="#CECDCB" sketch:type="MSShapeGroup"></path>
            <g id="Group-53">
                <path d="M9.41572658,19.1396962 L5.18615696,11.9084051 L2.86727089,7.9438481 C2.69835949,7.65129114 2.62797975,7.25088608 2.65491646,6.86749367 L0.218663291,11.0872405 C-0.0728810127,11.5921519 -0.0728810127,12.4183797 0.218663291,12.9233924 L6.08053671,23.0763038 C6.37197975,23.5812152 7.08762532,23.9942785 7.67071392,23.9942785 L14.6474228,23.9942785 C14.9265114,23.8291139 15.1696506,23.6052152 15.3117266,23.3591392 L17.6998785,19.1396962 L9.41572658,19.1396962 Z" id="Fill-2" fill="#F4B419" sketch:type="MSShapeGroup"></path>
                <path d="M90.2028354,11.6874025 C90.499443,11.5646684 90.5228354,11.5428962 90.4133671,11.2299848 C89.7868354,9.44233924 87.4295696,8.47737722 85.4218734,9.31444051 C83.8379747,9.97509873 82.6913418,11.6496304 82.6913418,13.5225418 C82.6913418,16.0460861 84.5129114,18.290238 86.987443,18.290238 C88.1217215,18.290238 88.9284051,18.1332759 89.6465823,17.677681 C89.8,17.5346937 90.6679494,16.8409215 90.6762532,16.692162 C90.6778734,16.6576304 90.5543291,16.7655797 90.3655696,16.8699848 C89.8063797,17.163757 88.9683038,17.2767696 88.3105823,17.2889215 C86.9806582,17.3131241 85.9183797,16.4067949 85.2252152,15.3310481 C84.7796456,14.6381873 84.4911392,13.8465924 84.4198481,12.9965671 C84.3097722,11.6898329 84.628962,10.1867443 86.1051139,9.81783291 C87.0870886,9.57236456 88.0171139,10.122643 88.3787342,11.0682633 C88.5426835,11.4975291 88.4437468,11.720719 88.0467848,11.8838582 L84.496,13.3675038 L85.7065316,13.4450734 C87.1482532,12.8464911 88.761519,12.285681 90.2028354,11.6874025" id="Fill-4" fill="#7F8081" sketch:type="MSShapeGroup"></path>
                <path d="M79.2717671,4.40951899 L81.9226025,4.40951899 C81.5539949,4.64860759 81.4297418,4.7475443 81.271362,4.99868354 C81.157843,5.17863291 81.1280709,5.52 81.1080203,5.82774684 C80.9531848,9.36708861 81.0479696,12.9336709 81.024881,16.4736203 C81.0397671,17.4382785 81.4190076,17.324557 82.6738937,17.2881013 C82.4845266,17.4483038 82.1775899,17.7654684 81.9401215,17.9016709 C80.8081722,17.9016709 79.7278684,17.8772658 78.5957165,17.8772658 C79.0223494,17.4373671 79.2405772,17.1532152 79.2116152,16.0524557 C79.2342987,12.3531139 79.0881722,8.80324051 79.3131848,5.24060759 C78.7826532,5.2563038 78.3005266,5.24850633 77.7694886,5.26359494 C78.2707544,5.00546835 78.7451848,4.64141772 79.2717671,4.40951899" id="Fill-6" fill="#7F8081" sketch:type="MSShapeGroup"></path>
                <g id="Group-10">
                    <mask id="mask-2" sketch:name="Clip 9" fill="white">
                        <use xlink:href="#path-1"></use>
                    </mask>
                    <g id="Clip-9"></g>
                    <path d="M75.4322633,12.6579342 C75.6341873,13.8832506 75.3224911,15.0450734 74.2153519,15.3514025 C73.0815797,15.6648203 71.8276051,14.7828962 71.424162,13.2039595 C70.9820354,11.4719089 71.4393519,10.3723646 72.5077063,10.0403139 C73.7722127,9.64679494 75.1235038,10.7876557 75.4322633,12.6579342 M78.2854278,9.29246582 L77.1519595,10.0264405 L75.8615291,10.0264405 C76.4063392,10.4073013 76.824162,10.955757 77.0544405,11.5668962 C77.2993013,12.2176304 77.3335291,12.9387443 77.084719,13.6029468 C76.8494785,14.2293772 76.3736304,14.7688203 75.6733772,15.1787443 C75.2753013,15.411757 75.0745924,15.7065418 75.0525165,15.9903899 C74.9875038,16.8173266 75.9978329,17.4183392 76.5820354,17.8555038 C77.8601114,18.8123646 78.3590481,20.3822886 77.5132759,21.8988456 C76.7054785,23.346643 74.7810228,23.9932253 72.7372759,24.0000101 C70.1989468,23.9885671 68.5975291,22.8257316 68.5130734,21.2424405 C68.4041114,19.1962633 70.5036557,18.2221873 72.4006684,18.0003139 C72.9317063,17.9380354 73.4061367,17.9479595 73.8525165,17.9800608 C73.1811241,17.5380354 72.9304911,16.6374785 73.2730734,16.0360608 C73.3621873,15.8788962 73.3054785,15.9329722 73.1363646,15.9586937 C71.5848709,16.1933266 69.9864911,15.180162 69.6124152,13.6498329 C69.4228456,12.8725165 69.5409215,12.0613772 69.836719,11.4256304 C70.4792506,10.0460861 71.9077063,9.27909873 73.4931241,9.27909873 C75.1420354,9.27909873 76.668719,9.28001013 78.2854278,9.29246582 M74.4802633,18.5073519 C74.6707443,18.6466937 74.8692253,18.7826937 75.0739848,18.9118076 C76.1876051,19.6175291 76.5423392,20.4794025 76.4519089,21.2754532 C76.342643,22.2349468 75.4225418,22.9907949 73.8460354,23.0865924 C72.1625924,23.1891747 69.8969722,22.5225418 70.316719,20.3085671 C70.5402127,19.1294278 72.1048709,18.5205165 73.3993519,18.477681 C73.7573266,18.4656304 74.121681,18.4952 74.4802633,18.5073519" id="Fill-8" fill="#7F8081" sketch:type="MSShapeGroup" mask="url(#mask-2)"></path>
                </g>
                <path d="M66.7421975,13.7318076 C66.9166785,15.4678076 66.3340962,17.0802633 64.7760203,17.4406684 C63.1820962,17.8098835 61.4922734,16.4871494 61.0702987,14.2402633 C60.6072101,11.775757 61.3725772,10.1530734 62.8771848,9.75378228 C64.6596658,9.28127595 66.4765772,11.0809722 66.7421975,13.7318076 M63.8675646,9.03661772 C66.9092861,9.03661772 68.4962228,11.0592 68.6384,13.4282127 C68.7792608,15.7885165 66.8329316,17.8999089 64.4511595,18.1529722 C61.5870582,18.4567696 59.0861975,16.4839089 59.0861975,13.6063392 C59.0861975,11.0893772 61.2341468,9.03661772 63.8675646,9.03661772" id="Fill-11" fill="#7F8081" sketch:type="MSShapeGroup"></path>
                <path d="M56.3493975,13.7318076 C56.5256,15.4678076 55.9364354,17.0802633 54.3603342,17.4406684 C52.7476759,17.8098835 51.0378025,16.4871494 50.6107646,14.2402633 C50.1420051,11.775757 50.9165873,10.1530734 52.439119,9.75378228 C54.2424608,9.28127595 56.080638,11.0809722 56.3493975,13.7318076 M53.440638,9.03661772 C56.5187139,9.03661772 58.1242835,11.0592 58.2681823,13.4282127 C58.410562,15.7885165 56.4415494,17.8999089 54.0314228,18.1529722 C51.1336,18.4567696 48.6031696,16.4839089 48.6031696,13.6063392 C48.6031696,11.0893772 50.7763342,9.03661772 53.440638,9.03661772" id="Fill-13" fill="#7F8081" sketch:type="MSShapeGroup"></path>
                <path d="M45.7926278,7.77047089 L47.1757165,6.35983797 C44.8272608,4.41583797 40.7993114,4.16074937 38.1302481,5.51031899 C35.8087291,6.68398987 34.1208304,9.01543291 34.0382987,11.6187747 C33.9515139,14.3588253 35.5437165,16.5265215 37.1601215,17.6167494 C39.8278684,19.4154329 44.4533873,19.0152304 47.2397165,17.6084456 L47.2389063,17.347281 L47.2392101,17.347281 L47.2392101,14.4754835 L47.8878177,13.7160911 L43.828881,13.7160911 L42.3256911,14.5625722 L45.2449823,14.4754835 L45.2449823,17.0068253 C45.2449823,17.3660152 45.249843,17.4237367 44.657843,17.6148253 C43.8248304,17.8334582 42.8844759,17.8766987 42.0251342,17.8046987 C39.1101975,17.5616608 36.8880203,15.2584709 36.3613367,12.3848506 C35.8619949,9.65887595 37.1474633,7.0803443 39.3211342,6.01644557 C40.3828051,5.49705316 41.6563241,5.25269873 43.0363747,5.69472405 C43.9019949,5.97158481 44.6876152,6.47052152 45.3725772,7.15831899 L44.8953114,8.02566076 L45.7926278,7.77047089 Z" id="Fill-15" fill="#7F8081" sketch:type="MSShapeGroup"></path>
                <path d="M101.214603,8.30072911 C99.897843,8.30072911 98.8612861,8.72219747 98.1049316,9.56452658 C97.3484759,10.407362 96.9704506,11.5609823 96.9704506,13.0260962 C96.9704506,14.5244253 97.3270076,15.6877671 98.0403241,16.5162228 C98.7536405,17.3442734 99.7734886,17.7581468 101.099565,17.7581468 C101.980375,17.7581468 102.78959,17.6459443 103.526805,17.4208304 L103.526805,18.0671089 C102.832729,18.311362 101.966096,18.4335899 100.927109,18.4335899 C99.4526785,18.4335899 98.2917671,17.9571342 97.4443747,17.0041215 C96.596881,16.0518177 96.1733873,14.7205772 96.1733873,13.0116152 C96.1733873,11.9441722 96.3754127,11.0032101 96.7800709,10.1893367 C97.1846278,9.37546329 97.7662987,8.74700759 98.5250835,8.30437468 C99.2839696,7.86174177 100.165995,7.63996962 101.171362,7.63996962 C102.195868,7.63996962 103.112628,7.83156456 103.921742,8.21465316 L103.627261,8.87521013 C102.861387,8.49252658 102.05683,8.30072911 101.214603,8.30072911" id="Fill-17" fill="#7F8081" sketch:type="MSShapeGroup"></path>
                <mask id="mask-4" sketch:name="Clip 20" fill="white">
                    <use xlink:href="#path-3"></use>
                </mask>
                <g id="Clip-20"></g>
                <path d="M106.27281,18.2896203 L105.562127,18.2896203 L105.562127,7.11594937 L106.27281,7.11594937 L106.27281,18.2896203 Z" id="Fill-19" fill="#7F8081" sketch:type="MSShapeGroup" mask="url(#mask-4)"></path>
                <path d="M109.139109,14.3759899 C109.139109,15.4483949 109.374856,16.2852557 109.846552,16.8859646 C110.318147,17.4866734 110.984881,17.7872304 111.846349,17.7872304 C112.708122,17.7872304 113.374856,17.4866734 113.846349,16.8859646 C114.317944,16.2852557 114.553691,15.4483949 114.553691,14.3759899 C114.553691,13.2988253 114.315514,12.4634835 113.839261,11.8700658 C113.362805,11.2763443 112.693944,10.9794329 111.83197,10.9794329 C110.9704,10.9794329 110.305995,11.2750278 109.839261,11.8661165 C109.372527,12.4575089 109.139109,13.2939646 109.139109,14.3759899 M115.300729,14.3759899 C115.300729,15.6497114 114.991767,16.6443443 114.374046,17.3596861 C113.75683,18.0755342 112.904577,18.4335089 111.817894,18.4335089 C111.132932,18.4335089 110.529894,18.268243 110.008172,17.9377114 C109.486046,17.6075848 109.086451,17.1334582 108.808982,16.516243 C108.531109,15.8982177 108.392273,15.1853063 108.392273,14.3759899 C108.392273,13.1026734 108.701033,12.1103696 109.318653,11.3995848 C109.936375,10.6885975 110.783666,10.3329519 111.86083,10.3329519 C112.933235,10.3329519 113.774552,10.693357 114.384982,11.4135595 C114.995311,12.1342684 115.300729,13.1216101 115.300729,14.3759899" id="Fill-21" fill="#7F8081" sketch:type="MSShapeGroup" mask="url(#mask-4)"></path>
                <path d="M117.826997,10.4838785 L117.826997,15.5393722 C117.826997,16.3244861 117.992162,16.8952203 118.322491,17.252081 C118.652922,17.6087392 119.165023,17.7871696 119.8592,17.7871696 C120.78801,17.7871696 121.471554,17.5525367 121.90963,17.0833722 C122.347808,16.6141063 122.566744,15.8504608 122.566744,14.7923342 L122.566744,10.4838785 L123.270441,10.4838785 L123.270441,18.2896506 L122.6672,18.2896506 L122.537985,17.2126886 L122.494947,17.2126886 C121.987403,18.026562 121.084922,18.4335494 119.787605,18.4335494 C118.011301,18.4335494 117.123301,17.4829671 117.123301,15.5826127 L117.123301,10.4838785 L117.826997,10.4838785 Z" id="Fill-22" fill="#7F8081" sketch:type="MSShapeGroup" mask="url(#mask-4)"></path>
                <path d="M128.48958,10.9794329 C127.637327,10.9794329 126.997124,11.2786734 126.568668,11.8769519 C126.140314,12.4755342 125.925934,13.3441924 125.925934,14.4839392 C125.925934,16.6957873 126.785478,17.8017114 128.504061,17.8017114 C129.38477,17.8017114 130.031149,17.5453063 130.442896,17.0331038 C130.854643,16.5211038 131.060618,15.6757367 131.060618,14.4981165 L131.060618,14.3759899 C131.060618,13.1694076 130.858289,12.301762 130.453732,11.7726481 C130.049276,11.243838 129.394491,10.9794329 128.48958,10.9794329 M128.48958,10.3329519 C129.054643,10.3329519 129.542947,10.4361418 129.954592,10.6420152 C130.366137,10.8475848 130.735048,11.1994835 131.060618,11.6974076 L131.103453,11.6974076 C131.074795,11.0942684 131.060618,10.5028759 131.060618,9.92363544 L131.060618,7.11604051 L131.764111,7.11604051 L131.764111,18.2896101 L131.29758,18.2896101 L131.117934,17.0979139 L131.060618,17.0979139 C130.466795,17.988243 129.614542,18.4335089 128.504061,18.4335089 C127.426896,18.4335089 126.603301,18.098319 126.033884,17.4280405 C125.463858,16.7579646 125.179099,15.7812557 125.179099,14.4981165 C125.179099,13.148243 125.461529,12.1163443 126.026592,11.4030278 C126.591251,10.6898127 127.412415,10.3329519 128.48958,10.3329519" id="Fill-23" fill="#7F8081" sketch:type="MSShapeGroup" mask="url(#mask-4)"></path>
                <path d="M138.528344,13.3206076 L139.971585,13.3206076 C141.153762,13.3206076 142.008749,13.1252658 142.535433,12.7352911 C143.062015,12.3450127 143.325003,11.7115949 143.325003,10.8357468 C143.325003,10.0268354 143.07599,9.42724051 142.57837,9.03655696 C142.080142,8.64668354 141.309813,8.45164557 140.266066,8.45164557 L138.528344,8.45164557 L138.528344,13.3206076 Z M144.114977,10.8070886 C144.114977,11.8219747 143.770066,12.5998987 143.080749,13.1410633 C142.391433,13.6818228 141.415028,13.9524051 140.151129,13.9524051 L138.528344,13.9524051 L138.528344,18.2896203 L137.795585,18.2896203 L137.795585,7.79098734 L140.366522,7.79098734 C142.865559,7.79098734 144.114977,8.79625316 144.114977,10.8070886 L144.114977,10.8070886 Z" id="Fill-24" fill="#7F8081" sketch:type="MSShapeGroup" mask="url(#mask-4)"></path>
                <path d="M146.550886,18.2896203 L145.84,18.2896203 L145.84,7.11594937 L146.550886,7.11594937 L146.550886,18.2896203 Z" id="Fill-25" fill="#7F8081" sketch:type="MSShapeGroup" mask="url(#mask-4)"></path>
                <path d="M150.779139,17.7871899 C151.612456,17.7871899 152.269468,17.5489114 152.750481,17.0724557 C153.231696,16.5963038 153.472405,15.9345316 153.472405,15.0871392 L153.472405,14.3185316 L152.107646,14.3759494 C151.011342,14.4289114 150.229873,14.6000506 149.763139,14.8896709 C149.296304,15.1792911 149.062987,15.6303291 149.062987,16.2431899 C149.062987,16.7313924 149.212456,17.1111392 149.511899,17.3814177 C149.810734,17.652 150.233418,17.7871899 150.779139,17.7871899 L150.779139,17.7871899 Z M153.651949,18.2896709 L153.472405,17.0546329 L153.414785,17.0546329 C153.022177,17.5573165 152.618532,17.912962 152.204759,18.120962 C151.79038,18.3291646 151.301063,18.4335696 150.736203,18.4335696 C149.970228,18.4335696 149.374076,18.2370127 148.948051,17.8446076 C148.522025,17.4522025 148.308759,16.9086076 148.308759,16.2145316 C148.308759,15.4532152 148.626025,14.8618228 149.260354,14.4403544 C149.894684,14.0195949 150.812759,13.7968101 152.014481,13.7728101 L153.501063,13.7298734 L153.501063,13.2126076 C153.501063,12.4704304 153.350177,11.9105316 153.048506,11.5323038 C152.746734,11.1541772 152.260962,10.9649114 151.590684,10.9649114 C150.867747,10.9649114 150.118278,11.1662278 149.34319,11.5683544 L149.077367,10.9503291 C149.934177,10.5483038 150.781671,10.3474937 151.619342,10.3474937 C152.476557,10.3474937 153.116759,10.5699747 153.540456,11.015038 C153.964253,11.4603038 154.176101,12.1548861 154.176101,13.0977722 L154.176101,18.2896709 L153.651949,18.2896709 Z" id="Fill-26" fill="#7F8081" sketch:type="MSShapeGroup" mask="url(#mask-4)"></path>
                <path d="M158.764496,17.8017215 C159.214623,17.8017215 159.607028,17.7632405 159.942522,17.686481 L159.942522,18.2611646 C159.597813,18.3761013 159.200243,18.433519 158.750218,18.433519 C158.061003,18.433519 157.552243,18.2491139 157.224142,17.8802025 C156.896446,17.5121013 156.732294,16.9324557 156.732294,16.142481 L156.732294,11.1015696 L155.576243,11.1015696 L155.576243,10.684962 L156.732294,10.3617215 L157.091484,8.59524051 L157.457559,8.59524051 L157.457559,10.4838481 L159.748699,10.4838481 L159.748699,11.1015696 L157.457559,11.1015696 L157.457559,16.0421266 C157.457559,16.6407089 157.562775,17.0833418 157.773813,17.3705316 C157.984243,17.6577215 158.314775,17.8017215 158.764496,17.8017215" id="Fill-27" fill="#7F8081" sketch:type="MSShapeGroup" mask="url(#mask-4)"></path>
                <path d="M164.531119,11.1015595 L162.692739,11.1015595 L162.692739,18.2896101 L161.981853,18.2896101 L161.981853,11.1015595 L160.531322,11.1015595 L160.531322,10.6849519 L161.981853,10.4192304 L161.981853,9.81609114 C161.981853,8.85862278 162.157853,8.15593924 162.509752,7.70814177 C162.861651,7.26074937 163.437347,7.03705316 164.237043,7.03705316 C164.667828,7.03705316 165.098613,7.10145823 165.529296,7.23047089 L165.364435,7.8484962 C164.981246,7.72869873 164.600385,7.6689519 164.222359,7.6689519 C163.666815,7.6689519 163.273195,7.8328 163.040992,8.1608 C162.80879,8.4888 162.692739,9.0212557 162.692739,9.75857215 L162.692739,10.483838 L164.531119,10.483838 L164.531119,11.1015595 Z" id="Fill-28" fill="#7F8081" sketch:type="MSShapeGroup" mask="url(#mask-4)"></path>
                <path d="M166.038825,14.3759899 C166.038825,15.4483949 166.274572,16.2852557 166.746268,16.8859646 C167.217863,17.4866734 167.884192,17.7872304 168.745863,17.7872304 C169.608041,17.7872304 170.27437,17.4866734 170.746066,16.8859646 C171.217661,16.2852557 171.45361,15.4483949 171.45361,14.3759899 C171.45361,13.2988253 171.21523,12.4634835 170.738775,11.8700658 C170.262319,11.2763443 169.593661,10.9794329 168.731889,10.9794329 C167.870319,10.9794329 167.205711,11.2750278 166.738977,11.8661165 C166.272243,12.4575089 166.038825,13.2939646 166.038825,14.3759899 M172.200243,14.3759899 C172.200243,15.6497114 171.891281,16.6443443 171.273965,17.3596861 C170.656547,18.0755342 169.804091,18.4335089 168.717408,18.4335089 C168.032648,18.4335089 167.429408,18.268243 166.907686,17.9377114 C166.385965,17.6075848 165.986167,17.1334582 165.708699,16.516243 C165.430623,15.8982177 165.29199,15.1853063 165.29199,14.3759899 C165.29199,13.1026734 165.600547,12.1103696 166.21837,11.3995848 C166.835686,10.6885975 167.683382,10.3329519 168.760344,10.3329519 C169.832952,10.3329519 170.674066,10.693357 171.284901,11.4135595 C171.894825,12.1342684 172.200243,13.1216101 172.200243,14.3759899" id="Fill-29" fill="#7F8081" sketch:type="MSShapeGroup" mask="url(#mask-4)"></path>
                <path d="M177.435382,10.3329722 C177.766116,10.3329722 178.120142,10.3665924 178.498268,10.4336304 L178.361559,11.1156557 C178.036294,11.0344405 177.698673,10.9938329 177.349509,10.9938329 C176.683787,10.9938329 176.137762,11.2762633 175.712041,11.8410228 C175.285813,12.4060861 175.072851,13.1193013 175.072851,13.9811747 L175.072851,18.2896304 L174.361762,18.2896304 L174.361762,10.4838582 L174.965205,10.4838582 L175.037003,11.8912506 L175.087129,11.8912506 C175.407939,11.3167696 175.750015,10.9134278 176.114167,10.6812253 C176.477914,10.4490228 176.91842,10.3329722 177.435382,10.3329722" id="Fill-30" fill="#7F8081" sketch:type="MSShapeGroup" mask="url(#mask-4)"></path>
                <path d="M189.542187,18.2896608 L189.542187,13.169357 C189.542187,12.4081418 189.394035,11.8531038 189.097124,11.5036354 C188.800314,11.1541671 188.345428,10.9794835 187.732871,10.9794835 C186.933175,10.9794835 186.341782,11.1994329 185.959099,11.6399392 C185.575808,12.0804456 185.384719,12.7721924 185.384719,13.7153823 L185.384719,18.2896608 L184.659048,18.2896608 L184.659048,12.9541671 C184.659048,11.6378127 184.05601,10.9794835 182.849732,10.9794835 C182.030694,10.9794835 181.434744,11.2176608 181.061377,11.6937114 C180.687909,12.1702684 180.501276,12.9324962 180.501276,13.9812051 L180.501276,18.2896608 L179.79039,18.2896608 L179.79039,10.4838886 L180.379453,10.4838886 L180.529934,11.553762 L180.572871,11.553762 C180.788668,11.1662177 181.094592,10.8656608 181.492162,10.6525975 C181.889529,10.4394329 182.327605,10.3330025 182.80639,10.3330025 C184.036871,10.3330025 184.826643,10.7949772 185.176111,11.7188253 L185.205175,11.7188253 C185.458542,11.2738633 185.799706,10.9315848 186.228061,10.6921924 C186.656922,10.4526987 187.143808,10.3330025 187.689529,10.3330025 C188.54158,10.3330025 189.181073,10.5603443 189.607099,11.0150278 C190.032922,11.470319 190.246086,12.1929519 190.246086,13.1839392 L190.246086,18.2896608 L189.542187,18.2896608 Z" id="Fill-31" fill="#7F8081" sketch:type="MSShapeGroup" mask="url(#mask-4)"></path>
                <path d="M26.846319,11.0871899 L20.9844456,0.934177215 L23.3660152,5.05903797 L26.846319,11.0871899 Z" id="Fill-32" fill="#DD452E" sketch:type="MSShapeGroup" mask="url(#mask-4)"></path>
                <path d="M26.846319,11.0871899 L23.3660152,5.05903797 C23.0650532,4.87432911 22.7186228,4.75716456 22.4091544,4.75716456 L17.6909772,4.75716456 L21.7705722,11.9478481 L17.6998886,19.1396456 L15.3117367,23.3591899 C15.1695595,23.6052658 14.9265215,23.8290633 14.6474329,23.9943291 L19.3942684,23.9943291 C19.977357,23.9943291 20.6929013,23.5811646 20.9844456,23.0763544 L23.3157873,19.038481 L26.846319,12.9233418 C27.1378633,12.4184304 27.1378633,11.5922025 26.846319,11.0871899" id="Fill-33" fill="#DD452E" sketch:type="MSShapeGroup" mask="url(#mask-4)"></path>
                <path d="M20.9844759,0.934167089 C20.6929316,0.429255696 19.9773873,0.0160911392 19.3941975,0.0160911392 L14.7838684,0.0160911392 L7.67065316,0.0160911392 C7.08766582,0.0160911392 6.37202025,0.429255696 6.08047595,0.934167089 L2.65495696,6.86753418 C2.62802025,7.25082532 2.6984,7.65123038 2.86731139,7.94388861 L5.1860962,11.9084456 L9.32553924,4.75715443 L17.6910076,4.75715443 L22.4091848,4.75715443 C22.7186532,4.75715443 23.0650835,4.87431899 23.3660456,5.05902785 L20.9844759,0.934167089 Z" id="Fill-34" fill="#507CBE" sketch:type="MSShapeGroup" mask="url(#mask-4)"></path>
                <path d="M5.18613671,11.9084051 L9.41570633,19.1396962 L17.6998582,19.1396962 L21.7705418,11.9478987 L17.6910481,4.75711392 L9.32557975,4.75711392 L5.18613671,11.9084051 Z" id="Fill-35" fill="#CECDCB" sketch:type="MSShapeGroup" mask="url(#mask-4)"></path>
                <path d="M2.80381772,6.60781772 L2.6539443,6.86746329 C2.62700759,7.2508557 2.69738734,7.65126076 2.86629873,7.94381772 L5.18518481,11.9083747 L6.41880506,9.77713418 L2.80381772,6.60781772 Z" id="Fill-36" fill="#4E70A8" sketch:type="MSShapeGroup" mask="url(#mask-4)"></path>
                <path d="M23.5231494,5.32938734 L23.3670987,5.05900759 C23.066238,4.87429873 22.7199089,4.75713418 22.4103392,4.75713418 L17.6922633,4.75713418 L18.9203139,6.92179241 L23.5231494,5.32938734 Z" id="Fill-37" fill="#C3422E" sketch:type="MSShapeGroup" mask="url(#mask-4)"></path>
                <path d="M14.2508253,23.994319 L14.6564962,23.994319 C14.9356861,23.8290532 15.1787241,23.6052557 15.3208,23.3591797 L17.7090532,19.1397367 L15.165762,19.1397367 L14.2508253,23.994319 Z" id="Fill-38" fill="#D19D2A" sketch:type="MSShapeGroup" mask="url(#mask-4)"></path>
                <path d="M13.5245367,15.6976709 C11.4798785,15.6976709 9.81638481,14.0341772 9.81638481,11.989519 C9.81638481,9.94486076 11.4798785,8.28136709 13.5245367,8.28136709 C15.5691949,8.28136709 17.2326886,9.94486076 17.2326886,11.989519 C17.2326886,14.0341772 15.5691949,15.6976709 13.5245367,15.6976709" id="Fill-39" fill="#FEFEFE" sketch:type="MSShapeGroup" mask="url(#mask-4)"></path>
                <path d="M13.5245367,8.22838481 C11.4506127,8.22838481 9.76332152,9.91557468 9.76332152,11.9894987 C9.76332152,14.0634228 11.4506127,15.7506127 13.5245367,15.7506127 C15.5983595,15.7506127 17.2856506,14.0634228 17.2856506,11.9894987 C17.2856506,9.91557468 15.5983595,8.22838481 13.5245367,8.22838481 M13.5245367,8.33430886 C15.5431696,8.33430886 17.1797266,9.97086582 17.1797266,11.9894987 C17.1797266,14.0082329 15.5431696,15.6446886 13.5245367,15.6446886 C11.5058025,15.6446886 9.86934684,14.0082329 9.86934684,11.9894987 C9.86934684,9.97086582 11.5058025,8.33430886 13.5245367,8.33430886" id="Fill-40" fill="#CAC8C6" sketch:type="MSShapeGroup" mask="url(#mask-4)"></path>
                <path d="M7.97284051,3.06420253 C7.57841013,3.06420253 7.25739747,2.74318987 7.25739747,2.34875949 C7.25739747,1.95422785 7.57841013,1.63331646 7.97284051,1.63331646 C8.36737215,1.63331646 8.68828354,1.95422785 8.68828354,2.34875949 C8.68828354,2.74318987 8.36737215,3.06420253 7.97284051,3.06420253" id="Fill-41" fill="#FEFEFE" sketch:type="MSShapeGroup" mask="url(#mask-4)"></path>
                <path d="M7.97284051,1.58029367 C7.5491443,1.58029367 7.20443544,1.92500253 7.20443544,2.34869873 C7.20443544,2.7724962 7.5491443,3.11720506 7.97284051,3.11720506 C8.39653671,3.11720506 8.74124557,2.7724962 8.74124557,2.34869873 C8.74124557,1.92500253 8.39653671,1.58029367 7.97284051,1.58029367 M7.97284051,1.68621772 C8.33871392,1.68621772 8.63532152,1.98282532 8.63532152,2.34869873 C8.63532152,2.71467342 8.33871392,3.01117975 7.97284051,3.01117975 C7.60696709,3.01117975 7.31035949,2.71467342 7.31035949,2.34869873 C7.31035949,1.98282532 7.60696709,1.68621772 7.97284051,1.68621772" id="Fill-42" fill="#4472B8" sketch:type="MSShapeGroup" mask="url(#mask-4)"></path>
                <path d="M19.6962532,2.34873924 C19.6962532,2.71461266 19.3996456,3.01122025 19.0337722,3.01122025 C18.668,3.01122025 18.3712911,2.71461266 18.3712911,2.34873924 C18.3712911,1.98286582 18.668,1.68625823 19.0337722,1.68625823 C19.3996456,1.68625823 19.6962532,1.98286582 19.6962532,2.34873924" id="Fill-43" fill="#FEFEFE" sketch:type="MSShapeGroup" mask="url(#mask-4)"></path>
                <path d="M19.6962532,2.34873924 C19.6962532,2.71461266 19.3996456,3.01122025 19.0337722,3.01122025 C18.668,3.01122025 18.3712911,2.71461266 18.3712911,2.34873924 C18.3712911,1.98286582 18.668,1.68625823 19.0337722,1.68625823 C19.3996456,1.68625823 19.6962532,1.98286582 19.6962532,2.34873924 L19.6962532,2.34873924 Z" id="Stroke-44" stroke="#4472B8" sketch:type="MSShapeGroup" mask="url(#mask-4)"></path>
                <path d="M7.97284051,22.2406076 C7.57841013,22.2406076 7.25739747,21.9196962 7.25739747,21.5251646 C7.25739747,21.1306329 7.57841013,20.8097215 7.97284051,20.8097215 C8.36737215,20.8097215 8.68828354,21.1306329 8.68828354,21.5251646 C8.68828354,21.9196962 8.36737215,22.2406076 7.97284051,22.2406076" id="Fill-45" fill="#FEFEFE" sketch:type="MSShapeGroup" mask="url(#mask-4)"></path>
                <path d="M7.97284051,20.7567392 C7.5491443,20.7567392 7.20443544,21.1014481 7.20443544,21.5251443 C7.20443544,21.9489418 7.5491443,22.2935494 7.97284051,22.2935494 C8.39653671,22.2935494 8.74124557,21.9489418 8.74124557,21.5251443 C8.74124557,21.1014481 8.39653671,20.7567392 7.97284051,20.7567392 M7.97284051,20.8626633 C8.33871392,20.8626633 8.63532152,21.1592709 8.63532152,21.5251443 C8.63532152,21.8910177 8.33871392,22.1876253 7.97284051,22.1876253 C7.60696709,22.1876253 7.31035949,21.8910177 7.31035949,21.5251443 C7.31035949,21.1592709 7.60696709,20.8626633 7.97284051,20.8626633" id="Fill-46" fill="#F2B01B" sketch:type="MSShapeGroup" mask="url(#mask-4)"></path>
                <path d="M19.0337924,22.2406076 C18.6392608,22.2406076 18.3183494,21.9196962 18.3183494,21.5251646 C18.3183494,21.1306329 18.6392608,20.8097215 19.0337924,20.8097215 C19.4283241,20.8097215 19.7492354,21.1306329 19.7492354,21.5251646 C19.7492354,21.9196962 19.4283241,22.2406076 19.0337924,22.2406076" id="Fill-47" fill="#FEFEFE" sketch:type="MSShapeGroup" mask="url(#mask-4)"></path>
                <path d="M19.0337924,20.7567392 C18.6099949,20.7567392 18.2653873,21.1014481 18.2653873,21.5251443 C18.2653873,21.9489418 18.6099949,22.2935494 19.0337924,22.2935494 C19.4575899,22.2935494 19.8021975,21.9489418 19.8021975,21.5251443 C19.8021975,21.1014481 19.4575899,20.7567392 19.0337924,20.7567392 M19.0337924,20.8626633 C19.3996658,20.8626633 19.6962734,21.1592709 19.6962734,21.5251443 C19.6962734,21.8910177 19.3996658,22.1876253 19.0337924,22.1876253 C18.667919,22.1876253 18.3713114,21.8910177 18.3713114,21.5251443 C18.3713114,21.1592709 18.667919,20.8626633 19.0337924,20.8626633" id="Fill-48" fill="#DD472E" sketch:type="MSShapeGroup" mask="url(#mask-4)"></path>
                <path d="M24.6016709,12.7049418 C24.2072405,12.7049418 23.8862278,12.3840304 23.8862278,11.9894987 C23.8862278,11.5949671 24.2072405,11.2740557 24.6016709,11.2740557 C24.9962025,11.2740557 25.3171139,11.5949671 25.3171139,11.9894987 C25.3171139,12.3840304 24.9962025,12.7049418 24.6016709,12.7049418" id="Fill-49" fill="#FEFEFE" sketch:type="MSShapeGroup" mask="url(#mask-4)"></path>
                <path d="M24.6016709,11.2210734 C24.1779747,11.2210734 23.8332658,11.5657823 23.8332658,11.9894785 C23.8332658,12.4132759 24.1779747,12.7579848 24.6016709,12.7579848 C25.0253671,12.7579848 25.3700759,12.4132759 25.3700759,11.9894785 C25.3700759,11.5657823 25.0253671,11.2210734 24.6016709,11.2210734 M24.6016709,11.3269975 C24.9675443,11.3269975 25.2641519,11.6236051 25.2641519,11.9894785 C25.2641519,12.3554532 24.9675443,12.6519595 24.6016709,12.6519595 C24.2357975,12.6519595 23.9391899,12.3554532 23.9391899,11.9894785 C23.9391899,11.6236051 24.2357975,11.3269975 24.6016709,11.3269975" id="Fill-50" fill="#DD472E" sketch:type="MSShapeGroup" mask="url(#mask-4)"></path>
                <path d="M2.39498734,12.7049418 C2.0004557,12.7049418 1.6795443,12.3840304 1.6795443,11.9894987 C1.6795443,11.5949671 2.0004557,11.2740557 2.39498734,11.2740557 C2.78951899,11.2740557 3.11043038,11.5949671 3.11043038,11.9894987 C3.11043038,12.3840304 2.78951899,12.7049418 2.39498734,12.7049418" id="Fill-51" fill="#FEFEFE" sketch:type="MSShapeGroup" mask="url(#mask-4)"></path>
                <path d="M2.39498734,11.2210734 C1.97129114,11.2210734 1.62658228,11.5657823 1.62658228,11.9894785 C1.62658228,12.4132759 1.97129114,12.7579848 2.39498734,12.7579848 C2.81878481,12.7579848 3.16339241,12.4132759 3.16339241,11.9894785 C3.16339241,11.5657823 2.81878481,11.2210734 2.39498734,11.2210734 M2.39498734,11.3269975 C2.76086076,11.3269975 3.05746835,11.6236051 3.05746835,11.9894785 C3.05746835,12.3554532 2.76086076,12.6519595 2.39498734,12.6519595 C2.02911392,12.6519595 1.73250633,12.3554532 1.73250633,11.9894785 C1.73250633,11.6236051 2.02911392,11.3269975 2.39498734,11.3269975" id="Fill-52" fill="#F2B01B" sketch:type="MSShapeGroup" mask="url(#mask-4)"></path>
            </g>
        </g>
    </g>
</svg>
