<svg xmlns="http://www.w3.org/2000/svg" preserveAspectRatio="xMidYMid" width="32" height="32" viewBox="0 0 32 32"><defs><style>.cls-3 { fill: #4585f1; } .cls-4 { fill: #ffffff; }</style></defs><g id="icn-google-groupssvg"><circle id="circle-1" class="cls-3" cx="16" cy="16" r="16"/><path d="M17.972 8.754c.49.4 1.516 1.238 1.516 2.834 0 1.554-.898 2.29-1.795 2.982-.278.272-.598.567-.598 1.03 0 .46.32.712.555.902l.77.587c.94.776 1.794 1.49 1.794 2.94 0 1.972-1.945 3.967-5.62 3.967-3.098 0-4.593-1.45-4.593-3.003 0-.756.385-1.826 1.647-2.56 1.324-.8 3.12-.903 4.08-.968-.3-.377-.64-.776-.64-1.427 0-.357.107-.568.213-.82-.236.02-.47.042-.684.042-2.264 0-3.546-1.66-3.546-3.295 0-.966.45-2.038 1.367-2.814 1.218-.987 2.67-1.155 3.825-1.155h4.4l-1.366.756h-1.324zm-1.518 9.322c-.17-.02-.278-.02-.49-.02-.193 0-1.348.04-2.245.335-.47.17-1.838.672-1.838 2.164 0 1.49 1.475 2.562 3.76 2.562 2.05 0 3.142-.968 3.142-2.268 0-1.073-.705-1.638-2.33-2.772zm.62-3.99c.49-.483.533-1.154.533-1.532 0-1.512-.918-3.863-2.69-3.863-.557 0-1.155.274-1.498.694-.364.44-.47 1.007-.47 1.554 0 1.406.833 3.737 2.67 3.737.535 0 1.11-.252 1.454-.588z" id="path-1" class="cls-4" fill-rule="evenodd"/></g></svg>