<svg xmlns="http://www.w3.org/2000/svg" preserveAspectRatio="xMidYMid" width="82" height="24" viewBox="0 0 82 24"><defs><style>.cls-3 { fill: #393e40; } .cls-4 { fill: #8a9399; }</style></defs><g id="othersvg" fill-rule="evenodd"><path d="M78.088 13.626v5.707h-1.783V9.718h1.405l.306 1.963c.72-1.097 1.872-2.088 3.51-2.16l.29 1.693c-1.658.072-3.062 1.152-3.728 2.413zm-8.19 4.393c1.423 0 2.503-.54 3.583-1.37l.254 1.585c-1.045.81-2.34 1.296-3.962 1.296-2.61 0-4.61-1.51-4.61-5.04 0-3.08 1.874-4.97 4.376-4.97 2.88 0 4.214 2.16 4.214 4.808v.378h-6.806c.072 2.27 1.17 3.313 2.952 3.313zm2.053-4.646c-.197-1.567-.953-2.467-2.43-2.467-1.206 0-2.196.828-2.484 2.467h4.915zm-11.07-.595c0-1.01-.467-1.675-1.583-1.675-1.01 0-2.017.63-2.953 1.566v6.663H54.56V5.055l1.784-.27v6.212c.846-.72 1.998-1.477 3.403-1.477 1.908 0 2.917 1.08 2.917 2.827v6.986H60.88V12.78zM51 17.93c.342 0 .648-.02.883-.073l.235 1.512c-.307.07-.757.125-1.405.125-1.71 0-2.845-.612-2.845-2.538v-5.744h-1.512V9.718h1.512V6.514l1.73-.27v3.474h2.195l.235 1.495h-2.43v5.438c0 .793.36 1.28 1.403 1.28zM38.38 19.584c-3.798 0-6.21-2.718-6.21-6.752 0-4.05 2.448-6.788 6.247-6.788 3.817 0 6.23 2.72 6.23 6.752 0 4.016-2.45 6.788-6.266 6.788zm.02-11.883c-2.702 0-4.376 1.98-4.376 5.113 0 3.115 1.692 5.114 4.375 5.114 2.718 0 4.392-2 4.392-5.115 0-3.133-1.692-5.113-4.393-5.113z" id="path-1" class="cls-3"/><path d="M22 24H2c-1.105 0-2-.895-2-2V2C0 .895.895 0 2 0h20c1.105 0 2 .895 2 2v20c0 1.105-.895 2-2 2zM8 19h8v-2H8v2zm6-4v-2h-4v2h4zM4 19h2v-2H4v2zm0-4h4v-2H4v2zm0-4h2V9H4v2zm4-6H4v2h4V5zm6 0h-4v2h4V5zm2 4H8v2h8V9zm4 0h-2v2h2V9zm0 4h-4v2h4v-2z" id="path-2" class="cls-4"/></g></svg>