<svg width="18" height="17" viewBox="0 0 16 17" xmlns="http://www.w3.org/2000/svg" role="img">
  <path d="M14.9 1.2c0-.2274282.0464128-.4254599.1335664-.5884229.0871535-.1629629.2150478-.2908572.3780107-.3780107C15.5745401.1464128 15.7725718.1 16 .1c.2274282 0 .4254599.0464128.5884229.1335664.1629629.0871535.2908572.2150478.3780107.3780107C17.0535872.7745401 17.1.9725718 17.1 1.2V15c0 .2274282-.0464128.4254599-.1335664.5884229-.0871535.1629629-.2150478.2908572-.3780107.3780107C16.4254599 16.0535872 16.2274282 16.1 16 16.1c-.2274282 0-.4254599-.0464128-.5884229-.1335664-.1629629-.0871535-.2908572-.2150478-.3780107-.3780107C14.9464128 15.4254599 14.9 15.2274282 14.9 15V1.2zm-4.6666667 3c0-.2274282.0464128-.4254599.1335664-.5884229.0871535-.1629629.2150478-.2908572.3780108-.3780107.1629629-.0871536.3609946-.1335664.5884228-.1335664.2274283 0 .4254599.0464128.5884229.1335664.1629629.0871535.2908572.2150478.3780108.3780107.0871535.162963.1335663.3609947.1335663.5884229V15c0 .2274282-.0464128.4254599-.1335663.5884229-.0871536.1629629-.2150479.2908572-.3780108.3780107-.162963.0871536-.3609946.1335664-.5884229.1335664-.2274282 0-.4254599-.0464128-.5884228-.1335664-.162963-.0871535-.2908573-.2150478-.3780108-.3780107-.0871536-.162963-.1335664-.3609947-.1335664-.5884229V4.2zm-4.6666666 5c0-.2274282.0464128-.4254599.1335663-.5884229.0871536-.1629629.2150479-.2908572.3780108-.3780107C6.2412068 8.1464128 6.4392384 8.1 6.6666667 8.1c.2274282 0 .4254599.0464128.5884228.1335664.162963.0871535.2908573.2150478.3780108.3780107.0871536.162963.1335664.3609947.1335664.5884229V15c0 .2274282-.0464128.4254599-.1335664.5884229-.0871535.1629629-.2150478.2908572-.3780108.3780107-.1629629.0871536-.3609946.1335664-.5884228.1335664-.2274283 0-.4254599-.0464128-.5884229-.1335664-.1629629-.0871535-.2908572-.2150478-.3780108-.3780107-.0871535-.162963-.1335663-.3609947-.1335663-.5884229V9.2zM.9 13.2c0-.2274282.0464128-.4254599.1335664-.5884229.0871535-.1629629.2150478-.2908572.3780107-.3780107C1.5745401 12.1464128 1.7725718 12.1 2 12.1c.2274282 0 .4254599.0464128.5884229.1335664.1629629.0871535.2908572.2150478.3780107.3780107C3.0535872 12.7745401 3.1 12.9725718 3.1 13.2V15c0 .2274282-.0464128.4254599-.1335664.5884229-.0871535.1629629-.2150478.2908572-.3780107.3780107C2.4254599 16.0535872 2.2274282 16.1 2 16.1c-.2274282 0-.4254599-.0464128-.5884229-.1335664-.1629629-.0871535-.2908572-.2150478-.3780107-.3780107C.9464128 15.4254599.9 15.2274282.9 15v-1.8z" fill="#B9B9B9" fill-rule="nonzero">
  </path>
</svg>
