<?xml version="1.0" encoding="utf-8"?><!-- Uploaded to: SVG Repo, www.svgrepo.com, Generator: SVG Repo Mixer Tools -->
<svg width="800px" height="800px" viewBox="0 0 24 24" fill="none" xmlns="http://www.w3.org/2000/svg">
<path d="M2 20V4C2 3.44772 2.44772 3 3 3H8.44792C8.79153 3 9.11108 3.17641 9.29416 3.46719L10.5947 5.53281C10.7778 5.82359 11.0974 6 11.441 6H21C21.5523 6 22 6.44772 22 7V20C22 20.5523 21.5523 21 21 21H3C2.44772 21 2 20.5523 2 20Z" stroke="#200E32" stroke-width="2"/>
<path d="M10.1833 11.5697C10.2383 11.1301 10.4368 10.7209 10.7481 10.4056C11.0594 10.0903 11.466 9.8865 11.9049 9.82585C12.3438 9.7652 12.7904 9.85107 13.1755 10.0701C13.5607 10.2892 13.8627 10.6292 14.0349 11.0375C14.2071 11.4457 14.2397 11.8994 14.1278 12.3281C14.0159 12.7568 13.7656 13.1365 13.4159 13.4085C13.2977 13.5004 13.1508 13.5782 12.991 13.6411C12.4794 13.8425 12.0212 14.2761 12.0212 14.8259L12.0212 14.9733" stroke="#200E32" stroke-width="2" stroke-linecap="round"/>
<circle cx="12.0212" cy="17.2707" r="0.91897" fill="#200E32"/>
</svg>