<svg width="16" height="17" viewBox="0 0 16 17" xmlns="http://www.w3.org/2000/svg" role="img">
  <path d="M14.9 14c.2274282 0 .4254599.0464128.5884229.1335664.1629629.0871535.2908572.2150478.3780107.3780107C15.9535872 14.6745401 16 14.8725718 16 15.1c0 .2274282-.0464128.4254599-.1335664.5884229-.0871535.1629629-.2150478.2908572-.3780107.3780107C15.3254599 16.1535872 15.1274282 16.2 14.9 16.2H1.1c-.2274282 0-.4254599-.0464128-.5884229-.1335664-.1629629-.0871535-.2908572-.2150478-.3780107-.3780107C.0464128 15.5254599 0 15.3274282 0 15.1c0-.2274282.0464128-.4254599.1335664-.5884229.0871535-.1629629.2150478-.2908572.3780107-.3780107C.6745401 14.0464128.8725718 14 1.1 14h13.8zm-3-4.6666667c.2274282 0 .4254599.0464128.5884229.1335664.1629629.0871535.2908572.2150478.3780107.3780108.0871536.1629629.1335664.3609946.1335664.5884228 0 .2274283-.0464128.4254599-.1335664.5884229-.0871535.1629629-.2150478.2908572-.3780107.3780108-.162963.0871535-.3609947.1335663-.5884229.1335663H1.1c-.2274282 0-.4254599-.0464128-.5884229-.1335663-.1629629-.0871536-.2908572-.2150479-.3780107-.3780108C.0464128 10.8587932 0 10.6607616 0 10.4333333c0-.2274282.0464128-.4254599.1335664-.5884228.0871535-.162963.2150478-.2908573.3780107-.3780108.162963-.0871536.3609947-.1335664.5884229-.1335664h10.8zm-5-4.6666666c.2274282 0 .4254599.0464128.5884229.1335663.1629629.0871536.2908572.2150479.3780107.3780108C7.9535872 5.3412068 8 5.5392384 8 5.7666667c0 .2274282-.0464128.4254599-.1335664.5884228-.0871535.162963-.2150478.2908573-.3780107.3780108-.162963.0871536-.3609947.1335664-.5884229.1335664H1.1c-.2274282 0-.4254599-.0464128-.5884229-.1335664-.1629629-.0871535-.2908572-.2150478-.3780107-.3780108C.0464128 6.1921266 0 5.9940949 0 5.7666667c0-.2274283.0464128-.4254599.1335664-.5884229.0871535-.1629629.2150478-.2908572.3780107-.3780108.162963-.0871535.3609947-.1335663.5884229-.1335663h5.8zM14.9 0c.2274282 0 .4254599.0464128.5884229.1335664.1629629.0871535.2908572.2150478.3780107.3780107C15.9535872.6745401 16 .8725718 16 1.1c0 .2274282-.0464128.4254599-.1335664.5884229-.0871535.1629629-.2150478.2908572-.3780107.3780107C15.3254599 2.1535872 15.1274282 2.2 14.9 2.2H1.1c-.2274282 0-.4254599-.0464128-.5884229-.1335664-.1629629-.0871535-.2908572-.2150478-.3780107-.3780107C.0464128 1.5254599 0 1.3274282 0 1.1 0 .8725718.0464128.6745401.1335664.5115771.2207199.3486142.3486142.2207199.5115771.1335664.6745401.0464128.8725718 0 1.1 0h13.8z" fill="#B9B9B9" fill-rule="nonzero">
  </path>
</svg>
