<svg width="16" height="16" viewBox="0 0 16 16" xmlns="http://www.w3.org/2000/svg">
  <path d="M8.63962039 0c.2152152 0 .40628463.13771505.47434165.34188612l.63997656 1.91853291c.3708976.11319954.7265407.26136452 1.0630881.4406537l1.8103874-.9038671c.1924944-.09624716.4249801-.05851992.5771602.09366021l.9045599.90455983c.1521801.15218013.1899073.38466585.0936602.57716018l-.904073 1.81000104c.1795192.33691975.3278441.69298066.44112 1.06432821l1.9182725.63912286C15.862285 6.95409498 16 7.14516441 16 7.36037961v1.27924078c0 .2152152-.137715.40628463-.3418861.47434165l-1.918532.63997355c-.1132072.37092351-.2613848.72659041-.4406907 1.06315871l.9039032 1.8103198c.0962471.1924944.0585199.4249801-.0936602.5771602l-.9045599.9045599c-.1521801.1521801-.3846658.1899073-.5771602.0936602l-1.8103171-.9039046c-.3365681.179306-.692235.3274837-1.0631584.4406912l-.63997656 1.9185329C9.04590502 15.862285 8.85483559 16 8.63962039 16H7.36037961c-.2152152 0-.40628463-.137715-.47434165-.3418861L6.2460614 13.739581c-.3708976-.1131996-.72654071-.2613646-1.06308807-.4406537l-1.81038748.9038671c-.19249433.0962471-.42498005.0585199-.57716018-.0936602l-.90455983-.9045599c-.15218013-.1521801-.18990737-.3846658-.09366021-.5771602l.90407299-1.810001c-.17951921-.3369197-.32784407-.6929806-.44112007-1.0643282L.34188612 9.11396204C.13771505 9.04590502 0 8.85483559 0 8.63962039V7.36037961c0-.2152152.13771505-.40628463.34188612-.47434165l1.918532-.63997355c.11320723-.37092352.26138479-.72659044.44069063-1.06315869l-.90390312-1.81031987c-.09624716-.19249433-.05851992-.42498005.09366021-.57716018l.90455983-.90455983c.15218013-.15218013.38466585-.18990737.57716018-.09366021l1.81031714.90390458c.33656815-.17930601.69223497-.32748375 1.06315841-.44069118L6.88603796.34188612C6.95409498.13771505 7.14516441 0 7.36037961 0h1.27924078zM8 6c-1.1045695 0-2 .8954305-2 2s.8954305 2 2 2 2-.8954305 2-2-.8954305-2-2-2z" fill="#7d91b3" fill-rule="evenodd" />
</svg>
