<svg width="30" height="28" viewBox="0 0 30 28" fill="none" xmlns="http://www.w3.org/2000/svg">
<path d="M18.0003 22.0001V19.3334H22.667C23.4364 19.3333 24.1938 19.143 24.8718 18.7794C25.5499 18.4157 26.1275 17.8901 26.5533 17.2493C26.979 16.6085 27.2398 15.8723 27.3122 15.1063C27.3847 14.3404 27.2667 13.5684 26.9687 12.8591C26.6706 12.1497 26.2018 11.5251 25.604 11.0408C25.0062 10.5564 24.2979 10.2274 23.5422 10.083C22.7865 9.93861 22.0068 9.98329 21.2726 10.2131C20.5383 10.4429 19.8722 10.8506 19.3337 11.4001V11.3334C19.3337 9.21169 18.4908 7.17686 16.9905 5.67656C15.4902 4.17627 13.4554 3.33342 11.3337 3.33342C9.21193 3.33342 7.1771 4.17627 5.67681 5.67656C4.17652 7.17686 3.33366 9.21169 3.33366 11.3334V11.3428H0.666996V11.3334C0.664977 8.84429 1.53353 6.43283 3.12224 4.51665C4.71095 2.60047 6.91978 1.30024 9.3662 0.84112C11.8126 0.382001 14.3426 0.79291 16.5179 2.00269C18.6933 3.21247 20.3771 5.14493 21.2777 7.46542C22.2808 7.27248 23.3132 7.29123 24.3086 7.52049C25.3041 7.74975 26.2406 8.18445 27.0583 8.79673C27.876 9.40901 28.5567 10.1854 29.0569 11.0761C29.5571 11.9667 29.8656 12.9521 29.9628 13.969C30.06 14.9858 29.9437 16.0118 29.6213 16.9811C29.299 17.9504 28.7776 18.8417 28.0908 19.5978C27.4039 20.3539 26.5666 20.9581 25.6326 21.3718C24.6986 21.7855 23.6885 21.9995 22.667 22.0001H18.0003ZM7.33366 24.6667H20.667V27.3334H7.33366V24.6667ZM7.33366 14.0001H18.0003V16.6667H7.33366V14.0001ZM2.00033 19.3334H15.3337V22.0001H2.00033V19.3334Z" fill="#1155CB"/>
</svg>
