<svg fill="none" height="20" viewBox="0 0 20 20" width="20" xmlns="http://www.w3.org/2000/svg"><path d="m9.95 16c.35 0 .6458-.1208.8875-.3625s.3625-.5375.3625-.8875-.1208-.6458-.3625-.8875-.5375-.3625-.8875-.3625-.64583.1208-.8875.3625-.3625.5375-.3625.8875.12083.6458.3625.8875.5375.3625.8875.3625zm-.9-3.85h1.85c0-.55.0625-.9833.1875-1.3s.4792-.75 1.0625-1.3c.4333-.43333.775-.84583 1.025-1.2375s.375-.8625.375-1.4125c0-.93333-.3417-1.65-1.025-2.15s-1.4917-.75-2.425-.75c-.95 0-1.72083.25-2.3125.75s-1.00417 1.1-1.2375 1.8l1.65.65c.08333-.3.27083-.625.5625-.975s.7375-.525 1.3375-.525c.5333 0 .9333.14583 1.2.4375s.4.6125.4.9625c0 .33333-.1.64583-.3.9375s-.45.5625-.75.8125c-.73333.65-1.18333 1.14167-1.35 1.475-.16667.3333-.25.9417-.25 1.825zm.95 7.85c-1.38333 0-2.68333-.2625-3.9-.7875s-2.275-1.2375-3.175-2.1375-1.6125-1.9583-2.1375-3.175-.7875-2.5167-.7875-3.9c0-1.38333.2625-2.68333.7875-3.9s1.2375-2.275 2.1375-3.175 1.95833-1.6125 3.175-2.1375 2.51667-.7875 3.9-.7875c1.3833 0 2.6833.2625 3.9.7875s2.275 1.2375 3.175 2.1375 1.6125 1.95833 2.1375 3.175.7875 2.51667.7875 3.9c0 1.3833-.2625 2.6833-.7875 3.9s-1.2375 2.275-2.1375 3.175-1.9583 1.6125-3.175 2.1375-2.5167.7875-3.9.7875z" fill="#1155CB"/></svg>