<svg width="18" height="19" viewBox="0 0 18 19" fill="none" xmlns="http://www.w3.org/2000/svg">
<g clip-path="url(#clip0_1801_2951)">
<path d="M2.16667 2.33341V7.35425V7.33341V15.6667V2.33341ZM3.83333 10.6667H6.75C6.875 10.3473 7.02778 10.0487 7.20833 9.77092C7.38889 9.49314 7.59722 9.23619 7.83333 9.00008H3.83333V10.6667ZM3.83333 14.0001H6.47917C6.40972 13.7223 6.36458 13.4445 6.34375 13.1667C6.32292 12.889 6.32639 12.6112 6.35417 12.3334H3.83333V14.0001ZM2.16667 17.3334C1.70833 17.3334 1.31597 17.1702 0.989583 16.8438C0.663194 16.5174 0.5 16.1251 0.5 15.6667V2.33341C0.5 1.87508 0.663194 1.48272 0.989583 1.15633C1.31597 0.829943 1.70833 0.666748 2.16667 0.666748H8.83333L13.8333 5.66675V7.75008C13.5694 7.63897 13.2986 7.55216 13.0208 7.48966C12.7431 7.42716 12.4583 7.38203 12.1667 7.35425V6.50008H8V2.33341H2.16667V15.6667H7.1875C7.40972 16.0001 7.65972 16.3091 7.9375 16.5938C8.21528 16.8786 8.52083 17.1251 8.85417 17.3334H2.16667ZM11.75 14.8334C12.3333 14.8334 12.8264 14.632 13.2292 14.2292C13.6319 13.8265 13.8333 13.3334 13.8333 12.7501C13.8333 12.1667 13.6319 11.6737 13.2292 11.2709C12.8264 10.8681 12.3333 10.6667 11.75 10.6667C11.1667 10.6667 10.6736 10.8681 10.2708 11.2709C9.86806 11.6737 9.66667 12.1667 9.66667 12.7501C9.66667 13.3334 9.86806 13.8265 10.2708 14.2292C10.6736 14.632 11.1667 14.8334 11.75 14.8334ZM16 18.1667L13.75 15.9167C13.4583 16.1112 13.1424 16.257 12.8021 16.3542C12.4618 16.4515 12.1111 16.5001 11.75 16.5001C10.7083 16.5001 9.82292 16.1355 9.09375 15.4063C8.36458 14.6772 8 13.7917 8 12.7501C8 11.7084 8.36458 10.823 9.09375 10.0938C9.82292 9.36466 10.7083 9.00008 11.75 9.00008C12.7917 9.00008 13.6771 9.36466 14.4062 10.0938C15.1354 10.823 15.5 11.7084 15.5 12.7501C15.5 13.1112 15.4514 13.4619 15.3542 13.8022C15.2569 14.1424 15.1111 14.4584 14.9167 14.7501L17.1667 17.0001L16 18.1667Z" fill="#1155CB"/>
</g>
<defs>
<clipPath id="clip0_1801_2951">
<rect width="18" height="19" fill="white"/>
</clipPath>
</defs>
</svg>
