<svg width="48" height="48" viewBox="0 0 48 48" fill="none" xmlns="http://www.w3.org/2000/svg">
<rect x="0.5" y="0.5" width="47" height="47" rx="9.5" fill="white" stroke="url(#paint0_linear_1566_7565)"/>
<path fill-rule="evenodd" clip-rule="evenodd" d="M15 14C13.4858 14 12.25 15.2358 12.25 16.75V31.75C12.25 33.2642 13.4858 34.5 15 34.5H20C20.4142 34.5 20.75 34.1642 20.75 33.75C20.75 33.3358 20.4142 33 20 33H15C14.3142 33 13.75 32.4358 13.75 31.75V16.75C13.75 16.0642 14.3142 15.5 15 15.5H20.6893L23.4697 18.2803C23.6103 18.421 23.8011 18.5 24 18.5H33C33.6858 18.5 34.25 19.0642 34.25 19.75V31.75C34.25 32.4358 33.6858 33 33 33H28C27.5858 33 27.25 33.3358 27.25 33.75C27.25 34.1642 27.5858 34.5 28 34.5H33C34.5142 34.5 35.75 33.2642 35.75 31.75V19.75C35.75 18.2358 34.5142 17 33 17H24.3107L21.5303 14.2197C21.3897 14.079 21.1989 14 21 14H15ZM23.4697 23.2197C23.5416 23.1478 23.6245 23.0935 23.7129 23.0569C23.8013 23.0202 23.8983 23 24 23C24.1919 23 24.3839 23.0732 24.5303 23.2197L28.5303 27.2197C28.8232 27.5126 28.8232 27.9874 28.5303 28.2803C28.2374 28.5732 27.7626 28.5732 27.4697 28.2803L24.75 25.5607V33.75C24.75 34.1642 24.4142 34.5 24 34.5C23.5858 34.5 23.25 34.1642 23.25 33.75V25.5607L20.5303 28.2803C20.2374 28.5732 19.7626 28.5732 19.4697 28.2803C19.1768 27.9874 19.1768 27.5126 19.4697 27.2197L23.4697 23.2197Z" fill="black"/>
<defs>
<linearGradient id="paint0_linear_1566_7565" x1="48" y1="1.5" x2="-1.32557" y2="46.5486" gradientUnits="userSpaceOnUse">
<stop offset="0.0500911" stop-color="#E9EEF7"/>
<stop offset="0.359305" stop-color="#11A06B"/>
<stop offset="0.651214" stop-color="#286FEB"/>
<stop offset="1" stop-color="#E9EEF7"/>
</linearGradient>
</defs>
</svg>
