<svg width="64" height="64" viewBox="0 0 64 64" fill="none" xmlns="http://www.w3.org/2000/svg">
<path fill-rule="evenodd" clip-rule="evenodd" d="M48.6667 12C50.5083 12 52 13.4917 52 15.3333V48.6667C52 50.5083 50.5083 52 48.6667 52H15.3333C13.4917 52 12 50.5083 12 48.6667V15.3333C12 13.4917 13.4917 12 15.3333 12H48.6667ZM48.6667 25.3333H15.3333V48.6667H48.6667V25.3333ZM48.6667 15.3333H15.3333V22H48.6667V15.3333ZM22 17V20.3333H18.6667V17H22ZM28.6667 17V20.3333H25.3333V17H28.6667ZM45.3333 17V20.3333H32V17H45.3333Z" fill="#1B4B7C"/>
<path d="M31.9996 30.7656C35.4406 30.7656 38.2301 33.5551 38.2301 36.9961V41.5469C38.2301 41.7126 38.1643 41.8716 38.047 41.9888C37.9298 42.106 37.7709 42.1719 37.6051 42.1719H26.3942C26.2284 42.1719 26.0694 42.106 25.9522 41.9888C25.835 41.8716 25.7692 41.7126 25.7692 41.5469V36.9961C25.7692 33.5551 28.5586 30.7656 31.9996 30.7656ZM31.4528 27.3281H32.5465C32.5879 27.3281 32.6277 27.3446 32.657 27.3739C32.6863 27.4032 32.7028 27.4429 32.7028 27.4844V29.3594C32.7028 29.4008 32.6863 29.4406 32.657 29.4699C32.6277 29.4992 32.5879 29.5156 32.5465 29.5156H31.4528C31.4113 29.5156 31.3716 29.4992 31.3423 29.4699C31.313 29.4406 31.2965 29.4008 31.2965 29.3594V27.4844C31.2965 27.4429 31.313 27.4032 31.3423 27.3739C31.3716 27.3446 31.4113 27.3281 31.4528 27.3281ZM25.4615 29.7434C25.4761 29.7288 25.4933 29.7173 25.5123 29.7094C25.5312 29.7016 25.5516 29.6975 25.5721 29.6975C25.5926 29.6975 25.613 29.7016 25.6319 29.7094C25.6509 29.7173 25.6681 29.7288 25.6826 29.7434L27.0084 31.0691C27.0377 31.0984 27.0542 31.1382 27.0542 31.1796C27.0542 31.221 27.0377 31.2607 27.0084 31.29L26.235 32.0635C26.2057 32.0928 26.166 32.1092 26.1245 32.1092C26.0831 32.1092 26.0434 32.0928 26.0141 32.0635L24.6883 30.7377C24.659 30.7084 24.6426 30.6687 24.6426 30.6272C24.6426 30.5858 24.659 30.5461 24.6883 30.5168L25.4615 29.7434ZM38.5397 29.7434L39.3131 30.5168C39.3423 30.5461 39.3587 30.5858 39.3587 30.6271C39.3587 30.6685 39.3423 30.7082 39.3131 30.7375L37.9873 32.0637C37.9728 32.0782 37.9556 32.0897 37.9366 32.0976C37.9176 32.1055 37.8973 32.1095 37.8768 32.1095C37.8562 32.1095 37.8359 32.1055 37.8169 32.0976C37.798 32.0897 37.7807 32.0782 37.7662 32.0637L36.9928 31.2902C36.9783 31.2757 36.9667 31.2585 36.9589 31.2395C36.951 31.2206 36.947 31.2002 36.947 31.1797C36.947 31.1592 36.951 31.1388 36.9589 31.1199C36.9667 31.1009 36.9783 31.0837 36.9928 31.0691L38.3188 29.7434C38.3481 29.7141 38.3878 29.6976 38.4292 29.6976C38.4706 29.6976 38.5104 29.7141 38.5397 29.7434ZM25.7496 43.4219H38.2496C38.4154 43.4219 38.5744 43.4877 38.6916 43.6049C38.8088 43.7221 38.8746 43.8811 38.8746 44.0469V44.5156C38.8746 44.5571 38.8582 44.5968 38.8289 44.6261C38.7996 44.6554 38.7598 44.6719 38.7184 44.6719H25.2809C25.2394 44.6719 25.1997 44.6554 25.1704 44.6261C25.1411 44.5968 25.1246 44.5571 25.1246 44.5156V44.0469C25.1246 43.8811 25.1905 43.7221 25.3077 43.6049C25.4249 43.4877 25.5839 43.4219 25.7496 43.4219Z" fill="#1155CB"/>
</svg>
