<svg width="72" height="72" viewBox="0 0 72 72" fill="none" xmlns="http://www.w3.org/2000/svg">
<path d="M66.375 1.125H5.625C3.14325 1.125 1.125 3.14325 1.125 5.625V48.375C1.125 50.8568 3.14325 52.875 5.625 52.875H27V61.875H24.75C22.2682 61.875 20.25 63.8932 20.25 66.375V69.75C20.25 70.371 20.7529 70.875 21.375 70.875H50.625C51.2471 70.875 51.75 70.371 51.75 69.75V66.375C51.75 63.8932 49.7318 61.875 47.25 61.875H45V52.875H66.375C68.8568 52.875 70.875 50.8568 70.875 48.375V5.625C70.875 3.14325 68.8568 1.125 66.375 1.125ZM49.5 66.375V68.625H22.5V66.375C22.5 65.1341 23.5091 64.125 24.75 64.125H47.25C48.4909 64.125 49.5 65.1341 49.5 66.375ZM42.75 61.875H29.25V52.875H42.75V61.875ZM68.625 48.375C68.625 49.6159 67.6159 50.625 66.375 50.625H5.625C4.38412 50.625 3.375 49.6159 3.375 48.375V5.625C3.375 4.38412 4.38412 3.375 5.625 3.375H66.375C67.6159 3.375 68.625 4.38412 68.625 5.625V48.375Z" fill="url(#paint0_linear)"/>
<path d="M65.25 5.625H6.75C6.12788 5.625 5.625 6.129 5.625 6.75V42.75C5.625 43.371 6.12788 43.875 6.75 43.875H65.25C65.8721 43.875 66.375 43.371 66.375 42.75V6.75C66.375 6.129 65.8721 5.625 65.25 5.625ZM64.125 41.625H7.875V7.875H64.125V41.625Z" fill="url(#paint1_linear)"/>
<path d="M64.125 46.125H66.375V48.375H64.125V46.125Z" fill="url(#paint2_linear)"/>
<path d="M59.625 46.125H61.875V48.375H59.625V46.125Z" fill="url(#paint3_linear)"/>
<path d="M11.25 23.625H22.5C23.1221 23.625 23.625 23.121 23.625 22.5V11.25C23.625 10.629 23.1221 10.125 22.5 10.125H11.25C10.6279 10.125 10.125 10.629 10.125 11.25V22.5C10.125 23.121 10.6279 23.625 11.25 23.625ZM12.375 21.375V16.875H21.375V21.375H12.375ZM21.375 12.375V14.625H12.375V12.375H21.375Z" fill="url(#paint4_linear)"/>
<path d="M27 23.625H38.25C38.8721 23.625 39.375 23.121 39.375 22.5V11.25C39.375 10.629 38.8721 10.125 38.25 10.125H27C26.3779 10.125 25.875 10.629 25.875 11.25V22.5C25.875 23.121 26.3779 23.625 27 23.625ZM28.125 21.375V16.875H37.125V21.375H28.125ZM37.125 12.375V14.625H28.125V12.375H37.125Z" fill="url(#paint5_linear)"/>
<path d="M42.75 23.625H49.5V21.375H43.875V16.875H47.25V14.625H43.875V12.375H46.125V10.125H42.75C42.1279 10.125 41.625 10.629 41.625 11.25V22.5C41.625 23.121 42.1279 23.625 42.75 23.625Z" fill="url(#paint6_linear)"/>
<path d="M11.25 39.375H22.5C23.1221 39.375 23.625 38.871 23.625 38.25V27C23.625 26.379 23.1221 25.875 22.5 25.875H11.25C10.6279 25.875 10.125 26.379 10.125 27V38.25C10.125 38.871 10.6279 39.375 11.25 39.375ZM12.375 37.125V32.625H21.375V37.125H12.375ZM21.375 28.125V30.375H12.375V28.125H21.375Z" fill="url(#paint7_linear)"/>
<path d="M27 39.375H38.25C38.8721 39.375 39.375 38.871 39.375 38.25V27C39.375 26.379 38.8721 25.875 38.25 25.875H27C26.3779 25.875 25.875 26.379 25.875 27V38.25C25.875 38.871 26.3779 39.375 27 39.375ZM28.125 37.125V32.625H37.125V37.125H28.125ZM37.125 28.125V30.375H28.125V28.125H37.125Z" fill="url(#paint8_linear)"/>
<path d="M42.75 39.375H54C54.6221 39.375 55.125 38.871 55.125 38.25V27C55.125 26.379 54.6221 25.875 54 25.875H42.75C42.1279 25.875 41.625 26.379 41.625 27V38.25C41.625 38.871 42.1279 39.375 42.75 39.375ZM43.875 37.125V32.625H52.875V37.125H43.875ZM52.875 28.125V30.375H43.875V28.125H52.875Z" fill="url(#paint9_linear)"/>
<path d="M51.7979 22.8228C51.9351 23.2818 52.3469 23.6024 52.825 23.6238C52.843 23.6249 52.8588 23.6249 52.8756 23.6249C53.3335 23.6249 53.7486 23.3459 53.9208 22.9184L55.9919 17.7411L61.1692 15.67C61.6147 15.4923 61.8959 15.0535 61.8757 14.5754C61.8554 14.0973 61.5325 13.6855 61.0746 13.5471L49.8246 10.1721C49.4275 10.054 48.9989 10.162 48.7064 10.4545C48.4139 10.747 48.3059 11.1768 48.424 11.5728L51.7979 22.8228ZM57.3419 14.7768L54.7083 15.8309C54.4214 15.9456 54.1953 16.1718 54.0805 16.4575L53.0264 19.0911L51.1769 12.9284L57.3419 14.7768Z" fill="url(#paint10_linear)"/>
<defs>
<linearGradient id="paint0_linear" x1="36" y1="1.125" x2="36" y2="70.875" gradientUnits="userSpaceOnUse">
<stop stop-color="#F1A1A0"/>
<stop offset="0.145833" stop-color="#AA8DCD"/>
<stop offset="1" stop-color="#2656C4"/>
</linearGradient>
<linearGradient id="paint1_linear" x1="36" y1="5.625" x2="36" y2="43.875" gradientUnits="userSpaceOnUse">
<stop stop-color="#F1A1A0"/>
<stop offset="0.145833" stop-color="#AA8DCD"/>
<stop offset="1" stop-color="#2656C4"/>
</linearGradient>
<linearGradient id="paint2_linear" x1="65.25" y1="46.125" x2="65.25" y2="48.375" gradientUnits="userSpaceOnUse">
<stop stop-color="#F1A1A0"/>
<stop offset="0.145833" stop-color="#AA8DCD"/>
<stop offset="1" stop-color="#2656C4"/>
</linearGradient>
<linearGradient id="paint3_linear" x1="60.75" y1="46.125" x2="60.75" y2="48.375" gradientUnits="userSpaceOnUse">
<stop stop-color="#F1A1A0"/>
<stop offset="0.145833" stop-color="#AA8DCD"/>
<stop offset="1" stop-color="#2656C4"/>
</linearGradient>
<linearGradient id="paint4_linear" x1="16.875" y1="10.125" x2="16.875" y2="23.625" gradientUnits="userSpaceOnUse">
<stop stop-color="#F1A1A0"/>
<stop offset="0.145833" stop-color="#AA8DCD"/>
<stop offset="1" stop-color="#2656C4"/>
</linearGradient>
<linearGradient id="paint5_linear" x1="32.625" y1="10.125" x2="32.625" y2="23.625" gradientUnits="userSpaceOnUse">
<stop stop-color="#F1A1A0"/>
<stop offset="0.145833" stop-color="#AA8DCD"/>
<stop offset="1" stop-color="#2656C4"/>
</linearGradient>
<linearGradient id="paint6_linear" x1="45.5625" y1="10.125" x2="45.5625" y2="23.625" gradientUnits="userSpaceOnUse">
<stop stop-color="#F1A1A0"/>
<stop offset="0.145833" stop-color="#AA8DCD"/>
<stop offset="1" stop-color="#2656C4"/>
</linearGradient>
<linearGradient id="paint7_linear" x1="16.875" y1="25.875" x2="16.875" y2="39.375" gradientUnits="userSpaceOnUse">
<stop stop-color="#F1A1A0"/>
<stop offset="0.145833" stop-color="#AA8DCD"/>
<stop offset="1" stop-color="#2656C4"/>
</linearGradient>
<linearGradient id="paint8_linear" x1="32.625" y1="25.875" x2="32.625" y2="39.375" gradientUnits="userSpaceOnUse">
<stop stop-color="#F1A1A0"/>
<stop offset="0.145833" stop-color="#AA8DCD"/>
<stop offset="1" stop-color="#2656C4"/>
</linearGradient>
<linearGradient id="paint9_linear" x1="48.375" y1="25.875" x2="48.375" y2="39.375" gradientUnits="userSpaceOnUse">
<stop stop-color="#F1A1A0"/>
<stop offset="0.145833" stop-color="#AA8DCD"/>
<stop offset="1" stop-color="#2656C4"/>
</linearGradient>
<linearGradient id="paint10_linear" x1="55.1268" y1="10.1251" x2="55.1268" y2="23.6249" gradientUnits="userSpaceOnUse">
<stop stop-color="#F1A1A0"/>
<stop offset="0.145833" stop-color="#AA8DCD"/>
<stop offset="1" stop-color="#2656C4"/>
</linearGradient>
</defs>
</svg>
