<svg width="228" height="199" viewBox="0 0 228 199" fill="none" xmlns="http://www.w3.org/2000/svg">
<path fill-rule="evenodd" clip-rule="evenodd" d="M71.6758 170.266L77.1057 163.281H117.287L138.231 189.951L134.508 198.999H82.6908L83.9319 189.951L71.6758 170.266Z" fill="#EBF0FA"/>
<path fill-rule="evenodd" clip-rule="evenodd" d="M83.9609 79.3295L103.363 45.9224H125.972L227.311 163.239L219.454 198.999H176L178.726 188.961L83.9609 79.3295Z" fill="#EBF0FA"/>
<path fill-rule="evenodd" clip-rule="evenodd" d="M107.511 39.5757L116.801 22.4532L144.671 0L192.426 37.3143L186.232 43.6141L194.544 55.083V67.3595L170.749 86.7436L130.818 39.5757H107.511Z" fill="#EBF0FA"/>
<path fill-rule="evenodd" clip-rule="evenodd" d="M33.7137 114.184H46.3363L79.2511 86.7437L122.871 137.259L110.568 155.657H70.3034L42.5016 190.893L36.1104 199H0V155.812L33.7137 114.184Z" fill="#EBF0FA"/>
</svg>
