<svg width="64" height="64" viewBox="0 0 64 64" fill="none" xmlns="http://www.w3.org/2000/svg">
<path d="M9.59249 19.3105L11.3637 21.0827C11.2689 21.2833 11.1822 21.4824 11.1036 21.6775H9.29007C8.72051 21.6775 8.25781 22.1387 8.25781 22.7097V28.9033C8.25781 29.4743 8.72051 29.9355 9.29007 29.9355H11.0975C11.1772 30.1387 11.2629 30.3423 11.3546 30.5404L9.59249 32.3025C9.18876 32.7062 9.18876 33.3584 9.59249 33.7622L13.7215 37.8912C14.1253 38.2949 14.7775 38.2949 15.1812 37.8912L16.9433 36.1291C17.1424 36.2198 17.3435 36.3055 17.5481 36.3851V38.1936C17.5481 38.5878 17.7765 38.9184 18.1016 39.0928L18.095 39.1049L33.5789 47.363L33.5854 47.3509C33.7296 47.428 33.8879 47.4839 34.0643 47.4839H35.6353C35.7291 47.7501 35.8344 48.0117 35.9514 48.2662L35.3989 48.8186C35.2049 49.0117 35.0965 49.2738 35.0965 49.5484C35.0965 49.8231 35.2049 50.0852 35.3989 50.2783L38.4957 53.3751C38.8994 53.7788 39.5517 53.7788 39.9554 53.3751L40.5078 52.8237C40.7623 52.9396 41.0239 53.0459 41.2901 53.1387V54.7097C41.2901 55.2808 41.7528 55.742 42.3223 55.742H46.4514C47.0209 55.742 47.4836 55.2808 47.4836 54.7097V53.1367C47.7467 53.0439 48.0068 52.9376 48.2618 52.8196L48.8183 53.3751C49.0113 53.5691 49.2744 53.6775 49.5481 53.6775C49.8218 53.6775 50.0849 53.5691 50.278 53.3751L53.3747 50.2783C53.7785 49.8746 53.7785 49.2223 53.3747 48.8186L52.8193 48.2632C52.9372 48.0071 53.0436 47.748 53.1373 47.4839H54.7094C55.279 47.4839 55.7417 47.0227 55.7417 46.4517V42.3226C55.7417 41.7516 55.279 41.2904 54.7094 41.2904H53.1384C53.0446 41.0232 52.9393 40.7617 52.8223 40.5081L53.3747 39.9557C53.5688 39.7627 53.6772 39.5006 53.6772 39.2259C53.6772 38.9512 53.5688 38.6891 53.3747 38.496L50.278 35.3993C49.8742 34.9955 49.222 34.9955 48.8183 35.3993L48.2659 35.9507C48.0113 35.8347 47.7497 35.7284 47.4836 35.6346V34.0646C47.4836 33.4935 47.0209 33.0323 46.4514 33.0323H42.8475L34.8994 22.1029L34.8848 22.113C34.6968 21.8559 34.407 21.6775 34.0643 21.6775H32.2568C32.1772 21.4743 32.0915 21.2707 31.9997 21.0726L33.7618 19.3105C34.1656 18.9068 34.1656 18.2546 33.7618 17.8509L29.6328 13.7218C29.2291 13.3181 28.5769 13.3181 28.1731 13.7218L26.411 15.4839C26.2119 15.3932 26.0108 15.3075 25.8062 15.2279V13.4194C25.8062 12.8483 25.3435 12.3871 24.7739 12.3871H18.5804C18.0108 12.3871 17.5481 12.8483 17.5481 13.4194V15.2329C17.3531 15.3115 17.155 15.3992 16.9524 15.494L15.1812 13.7218C14.9882 13.5278 14.7251 13.4194 14.4514 13.4194C14.1777 13.4194 13.9146 13.5278 13.7215 13.7218L9.59249 17.8509C9.18876 18.2546 9.18876 18.9068 9.59249 19.3105ZM33.7618 32.3025L31.9907 30.5303C32.0854 30.3287 32.1721 30.1306 32.2508 29.9355H34.0643C34.6338 29.9355 35.0965 29.4743 35.0965 28.9033V25.8841L41.2901 34.4003V35.6377C41.027 35.7319 40.7669 35.8378 40.5118 35.9557L39.9554 35.4003C39.7623 35.2052 39.4992 35.0968 39.2256 35.0968C38.9519 35.0968 38.6888 35.2052 38.4957 35.3993L35.3989 38.496C34.9952 38.8998 34.9952 39.552 35.3989 39.9557L35.9544 40.5111C35.8364 40.7672 35.7301 41.0263 35.6363 41.2904H34.0643C33.4947 41.2904 33.032 41.7516 33.032 42.3226V44.7309L22.7104 39.2259H24.7739C25.3435 39.2259 25.8062 38.7647 25.8062 38.1936V36.3801C26.0013 36.3015 26.1993 36.2138 26.402 36.119L28.1731 37.8912C28.3662 38.0852 28.6293 38.1936 28.903 38.1936C29.1767 38.1936 29.4398 38.0852 29.6328 37.8912L33.7618 33.7622C34.1656 33.3584 34.1656 32.7062 33.7618 32.3025ZM43.3546 35.0968H45.4191V36.3998C45.4191 36.87 45.7371 37.2813 46.1933 37.3987C46.8188 37.561 47.4115 37.8005 47.9544 38.1089C48.3591 38.3393 48.8667 38.2702 49.1953 37.9416L49.5481 37.5888L51.1842 39.2259L50.8314 39.5787C50.5018 39.9073 50.4337 40.4159 50.6641 40.8196C50.9735 41.3625 51.2119 41.9552 51.3742 42.5807C51.4917 43.0358 51.9025 43.3549 52.3732 43.3549H53.6772V45.4194H52.3742C51.904 45.4194 51.4927 45.7385 51.3753 46.1946C51.2185 46.8025 50.9791 47.3932 50.661 47.9497C50.4307 48.3539 50.4987 48.862 50.8284 49.1901L51.1852 49.5484L49.5481 51.1855L49.1908 50.8272C48.8627 50.5001 48.3551 50.429 47.9514 50.6603C47.3929 50.9779 46.8012 51.2178 46.1943 51.3736C45.7382 51.492 45.4191 51.9028 45.4191 52.3736V53.6775H43.3546V52.3736C43.3546 51.9028 43.0355 51.492 42.5794 51.3736C41.9559 51.2133 41.3632 50.9739 40.8193 50.6644C40.4156 50.436 39.908 50.5031 39.5784 50.8317L39.2256 51.1855L37.5895 49.5484L37.9423 49.1956C38.2709 48.867 38.34 48.3584 38.1096 47.9547C37.8001 47.4108 37.5607 46.8171 37.3994 46.1936C37.282 45.7385 36.8697 45.4194 36.3994 45.4194H35.0965V43.3549H36.3994C36.8697 43.3549 37.281 43.0358 37.3984 42.5797C37.5552 41.9718 37.7946 41.3811 38.1126 40.8247C38.343 40.4204 38.2749 39.9124 37.9453 39.5842L37.5885 39.2259L39.2256 37.5888L39.5829 37.9471C39.911 38.2743 40.4201 38.3443 40.8223 38.114C41.3808 37.7974 41.9715 37.5565 42.5814 37.3987C43.0365 37.2803 43.3546 36.87 43.3546 36.3998V35.0968ZM14.4514 15.9113L16.0234 17.4834C16.3475 17.8065 16.845 17.8786 17.2477 17.6598C17.8359 17.3388 18.3727 17.1044 18.8899 16.9426C19.3203 16.8075 19.6127 16.4078 19.6127 15.9577V14.4517H23.7417V15.9577C23.7417 16.4088 24.034 16.806 24.4635 16.9426C25.0391 17.124 25.5965 17.3604 26.1202 17.6467C26.5244 17.8655 27.0209 17.7939 27.3445 17.4698L28.903 15.9113L31.5723 18.5807L30.0139 20.1392C29.6898 20.4628 29.6182 20.9623 29.8369 21.3645C30.1242 21.8902 30.3606 22.4466 30.5401 23.0192C30.6751 23.4486 31.0748 23.742 31.526 23.742H33.032V27.871H31.526C31.0748 27.871 30.6762 28.1644 30.5411 28.5948C30.3793 29.112 30.1449 29.6487 29.8248 30.2359C29.6061 30.6387 29.6772 31.1361 30.0013 31.4602L31.5723 33.0323L28.903 35.7017L27.3309 34.1296C27.0078 33.8075 26.5083 33.7334 26.1066 33.9532C25.5184 34.2743 24.9816 34.5086 24.4645 34.6704C24.034 34.8055 23.7417 35.2052 23.7417 35.6553V37.1613H19.6127V35.6553C19.6127 35.2042 19.3203 34.807 18.8909 34.6704C18.3153 34.489 17.7578 34.2526 17.2341 33.9663C16.8309 33.7465 16.3334 33.8191 16.0098 34.1432L14.4514 35.7017L11.782 33.0323L13.3405 31.4738C13.6646 31.1503 13.7361 30.6508 13.5174 30.2485C13.2301 29.7238 12.9937 29.1664 12.8133 28.5928C12.6782 28.1624 12.2795 27.87 11.8284 27.87H10.3223V23.741H11.8284C12.2795 23.741 12.6782 23.4486 12.8133 23.0182C12.9761 22.5001 13.2104 21.9633 13.5305 21.3761C13.7492 20.9733 13.6782 20.4759 13.3541 20.1518L11.782 18.5807L14.4514 15.9113Z" fill="url(#paint0_linear)"/>
<path d="M21.677 33.0322C25.6613 33.0322 28.9028 29.7898 28.9028 25.8064C28.9028 21.8231 25.6613 18.5806 21.677 18.5806C17.6926 18.5806 14.4512 21.8231 14.4512 25.8064C14.4512 29.7898 17.6926 33.0322 21.677 33.0322ZM21.677 20.6451C24.5227 20.6451 26.8383 22.9607 26.8383 25.8064C26.8383 28.6522 24.5227 30.9677 21.677 30.9677C18.8312 30.9677 16.5157 28.6522 16.5157 25.8064C16.5157 22.9607 18.8312 20.6451 21.677 20.6451Z" fill="url(#paint1_linear)"/>
<path d="M39.2256 44.3871C39.2256 47.2329 41.5411 49.5484 44.3869 49.5484C47.2326 49.5484 49.5482 47.2329 49.5482 44.3871C49.5482 41.5413 47.2326 39.2258 44.3869 39.2258C41.5411 39.2258 39.2256 41.5413 39.2256 44.3871ZM44.3869 41.2903C46.094 41.2903 47.4837 42.68 47.4837 44.3871C47.4837 46.0943 46.094 47.4839 44.3869 47.4839C42.6797 47.4839 41.2901 46.0943 41.2901 44.3871C41.2901 42.68 42.6797 41.2903 44.3869 41.2903Z" fill="url(#paint2_linear)"/>
<path d="M62.9677 4.12903H59.871V1.03226C59.871 0.46119 59.4083 0 58.8387 0H1.03226C0.462702 0 0 0.46119 0 1.03226V60.9032C0 61.4743 0.462702 61.9355 1.03226 61.9355H4.12903V62.9677C4.12903 63.5388 4.59173 64 5.16129 64H62.9677C63.5373 64 64 63.5388 64 62.9677V5.16129C64 4.59022 63.5373 4.12903 62.9677 4.12903ZM2.06452 59.871V2.06452H57.8064V4.12903H11.3548C11.0691 4.12903 10.811 4.24446 10.624 4.43246L4.43246 10.624C4.24446 10.811 4.12903 11.0691 4.12903 11.3548V59.871H2.06452ZM10.3226 7.65323V10.3226H7.65323L10.3226 7.65323ZM61.9355 61.9355H6.19355V12.3871H11.3548C11.9244 12.3871 12.3871 11.9259 12.3871 11.3548V6.19355H61.9355V61.9355Z" fill="url(#paint3_linear)"/>
<path d="M50.5811 18.5807H58.8392C59.4087 18.5807 59.8714 18.1195 59.8714 17.5484V9.29038C59.8714 8.71931 59.4087 8.25812 58.8392 8.25812H50.5811C50.0115 8.25812 49.5488 8.71931 49.5488 9.29038V17.5484C49.5488 18.1195 50.0115 18.5807 50.5811 18.5807ZM51.6133 10.3226H57.8069V16.5162H51.6133V10.3226Z" fill="url(#paint4_linear)"/>
<path d="M50.5811 30.9678H58.8392C59.4087 30.9678 59.8714 30.5066 59.8714 29.9356V21.6775C59.8714 21.1064 59.4087 20.6452 58.8392 20.6452H50.5811C50.0115 20.6452 49.5488 21.1064 49.5488 21.6775V29.9356C49.5488 30.5066 50.0115 30.9678 50.5811 30.9678ZM51.6133 22.7098H57.8069V28.9033H51.6133V22.7098Z" fill="url(#paint5_linear)"/>
<path d="M17.5481 49.5484H9.29007C8.72051 49.5484 8.25781 50.0096 8.25781 50.5806V58.8387C8.25781 59.4098 8.72051 59.871 9.29007 59.871H17.5481C18.1177 59.871 18.5804 59.4098 18.5804 58.8387V50.5806C18.5804 50.0096 18.1177 49.5484 17.5481 49.5484ZM16.5159 57.8064H10.3223V51.6129H16.5159V57.8064Z" fill="url(#paint6_linear)"/>
<path d="M20.6455 57.8065H33.0326V59.871H20.6455V57.8065Z" fill="url(#paint7_linear)"/>
<path d="M20.6455 53.6774H33.0326V55.7419H20.6455V53.6774Z" fill="url(#paint8_linear)"/>
<path d="M20.6455 49.5484H33.0326V51.6129H20.6455V49.5484Z" fill="url(#paint9_linear)"/>
<path d="M35.0967 16.5162H47.4838V18.5807H35.0967V16.5162Z" fill="url(#paint10_linear)"/>
<path d="M35.0967 12.3871H47.4838V14.4517H35.0967V12.3871Z" fill="url(#paint11_linear)"/>
<path d="M35.0967 8.25812H47.4838V10.3226H35.0967V8.25812Z" fill="url(#paint12_linear)"/>
<defs>
<linearGradient id="paint0_linear" x1="31.9997" y1="12.3871" x2="31.9997" y2="55.742" gradientUnits="userSpaceOnUse">
<stop stop-color="#F1A1A0"/>
<stop offset="0.145833" stop-color="#AA8DCD"/>
<stop offset="1" stop-color="#2656C4"/>
</linearGradient>
<linearGradient id="paint1_linear" x1="21.677" y1="18.5806" x2="21.677" y2="33.0322" gradientUnits="userSpaceOnUse">
<stop stop-color="#F1A1A0"/>
<stop offset="0.145833" stop-color="#AA8DCD"/>
<stop offset="1" stop-color="#2656C4"/>
</linearGradient>
<linearGradient id="paint2_linear" x1="44.3869" y1="39.2258" x2="44.3869" y2="49.5484" gradientUnits="userSpaceOnUse">
<stop stop-color="#F1A1A0"/>
<stop offset="0.145833" stop-color="#AA8DCD"/>
<stop offset="1" stop-color="#2656C4"/>
</linearGradient>
<linearGradient id="paint3_linear" x1="32" y1="0" x2="32" y2="64" gradientUnits="userSpaceOnUse">
<stop stop-color="#F1A1A0"/>
<stop offset="0.145833" stop-color="#AA8DCD"/>
<stop offset="1" stop-color="#2656C4"/>
</linearGradient>
<linearGradient id="paint4_linear" x1="54.7101" y1="8.25812" x2="54.7101" y2="18.5807" gradientUnits="userSpaceOnUse">
<stop stop-color="#F1A1A0"/>
<stop offset="0.145833" stop-color="#AA8DCD"/>
<stop offset="1" stop-color="#2656C4"/>
</linearGradient>
<linearGradient id="paint5_linear" x1="54.7101" y1="20.6452" x2="54.7101" y2="30.9678" gradientUnits="userSpaceOnUse">
<stop stop-color="#F1A1A0"/>
<stop offset="0.145833" stop-color="#AA8DCD"/>
<stop offset="1" stop-color="#2656C4"/>
</linearGradient>
<linearGradient id="paint6_linear" x1="13.4191" y1="49.5484" x2="13.4191" y2="59.871" gradientUnits="userSpaceOnUse">
<stop stop-color="#F1A1A0"/>
<stop offset="0.145833" stop-color="#AA8DCD"/>
<stop offset="1" stop-color="#2656C4"/>
</linearGradient>
<linearGradient id="paint7_linear" x1="26.8391" y1="57.8065" x2="26.8391" y2="59.871" gradientUnits="userSpaceOnUse">
<stop stop-color="#F1A1A0"/>
<stop offset="0.145833" stop-color="#AA8DCD"/>
<stop offset="1" stop-color="#2656C4"/>
</linearGradient>
<linearGradient id="paint8_linear" x1="26.8391" y1="53.6774" x2="26.8391" y2="55.7419" gradientUnits="userSpaceOnUse">
<stop stop-color="#F1A1A0"/>
<stop offset="0.145833" stop-color="#AA8DCD"/>
<stop offset="1" stop-color="#2656C4"/>
</linearGradient>
<linearGradient id="paint9_linear" x1="26.8391" y1="49.5484" x2="26.8391" y2="51.6129" gradientUnits="userSpaceOnUse">
<stop stop-color="#F1A1A0"/>
<stop offset="0.145833" stop-color="#AA8DCD"/>
<stop offset="1" stop-color="#2656C4"/>
</linearGradient>
<linearGradient id="paint10_linear" x1="41.2902" y1="16.5162" x2="41.2902" y2="18.5807" gradientUnits="userSpaceOnUse">
<stop stop-color="#F1A1A0"/>
<stop offset="0.145833" stop-color="#AA8DCD"/>
<stop offset="1" stop-color="#2656C4"/>
</linearGradient>
<linearGradient id="paint11_linear" x1="41.2902" y1="12.3871" x2="41.2902" y2="14.4517" gradientUnits="userSpaceOnUse">
<stop stop-color="#F1A1A0"/>
<stop offset="0.145833" stop-color="#AA8DCD"/>
<stop offset="1" stop-color="#2656C4"/>
</linearGradient>
<linearGradient id="paint12_linear" x1="41.2902" y1="8.25812" x2="41.2902" y2="10.3226" gradientUnits="userSpaceOnUse">
<stop stop-color="#F1A1A0"/>
<stop offset="0.145833" stop-color="#AA8DCD"/>
<stop offset="1" stop-color="#2656C4"/>
</linearGradient>
</defs>
</svg>
