<svg width="64" height="64" viewBox="0 0 64 64" fill="none" xmlns="http://www.w3.org/2000/svg">
<path fill-rule="evenodd" clip-rule="evenodd" d="M48.6667 12C50.5083 12 52 13.4917 52 15.3333V48.6667C52 50.5083 50.5083 52 48.6667 52H15.3333C13.4917 52 12 50.5083 12 48.6667V15.3333C12 13.4917 13.4917 12 15.3333 12H48.6667ZM48.6667 25.3333H15.3333V48.6667H48.6667V25.3333ZM48.6667 15.3333H15.3333V22H48.6667V15.3333ZM22 17V20.3333H18.6667V17H22ZM28.6667 17V20.3333H25.3333V17H28.6667ZM45.3333 17V20.3333H32V17H45.3333Z" fill="#1B4B7C"/>
<path d="M24.6667 45.6667C25.2189 45.6667 25.6667 45.219 25.6667 44.6667V40C25.6667 39.4477 25.2189 39 24.6667 39H20C19.4477 39 19 39.4477 19 40V44.6667C19 45.2189 19.4477 45.6667 20 45.6667H24.6667Z" fill="#1155CB"/>
<path d="M24.6667 35.6667C25.2189 35.6667 25.6667 35.219 25.6667 34.6667V30C25.6667 29.4477 25.2189 29 24.6667 29H20C19.4477 29 19 29.4477 19 30V34.6667C19 35.219 19.4477 35.6667 20 35.6667H24.6667Z" fill="#1155CB"/>
<path d="M34.6667 35.6667C35.2189 35.6667 35.6667 35.219 35.6667 34.6667V30C35.6667 29.4477 35.2189 29 34.6667 29H30C29.4477 29 29 29.4477 29 30V34.6667C29 35.219 29.4477 35.6667 30 35.6667H34.6667Z" fill="#1155CB"/>
<path d="M44.6667 35.6667C45.2189 35.6667 45.6667 35.219 45.6667 34.6667V30C45.6667 29.4477 45.2189 29 44.6667 29H40C39.4477 29 39 29.4477 39 30V34.6667C39 35.219 39.4477 35.6667 40 35.6667H44.6667Z" fill="#1155CB"/>
</svg>
