<svg xmlns="http://www.w3.org/2000/svg" width="53" height="39" viewBox="0 0 53 39">
    <g fill="none" fill-rule="evenodd" stroke-width="2">
        <path stroke="#C2D6FF" d="M51 1v37h-1.594H1.594 0v-1.542V1" transform="translate(1)"/>
        <path stroke="#0573E3" d="M22.286 1L4 1.191 4.202 34 47 33.809 46.798 1H28.714c-.996 0-1.875.457-2.428 1.16l-.786 1-.786-1C24.16 1.457 23.282 1 22.286 1z" transform="translate(1)"/>
        <path stroke="#0573E3" stroke-linecap="square" d="M25.5 2.5L25.5 14.5" transform="translate(1)"/>
        <path stroke="#004B80" stroke-linecap="square" d="M17.5 17.5L17.5 21M36.5 17.5L36.5 21" transform="translate(1)"/>
        <path stroke="#0573E3" stroke-linecap="square" d="M25.5 24.5L25.5 33.5" transform="translate(1)"/>
        <path stroke="#004B80" d="M11 19.522L15.167 17h25l.833.833v3.334l-.833.833h-25L11 19.522z" transform="translate(1)"/>
    </g>
</svg>
