<svg xmlns="http://www.w3.org/2000/svg" width="26" height="24" viewBox="0 0 26 24">
    <g fill="none" fill-rule="evenodd" transform="translate(1 1)">
        <path fill="#FFF" fill-rule="nonzero" stroke="#1155cb" stroke-width="2" d="M12 4c1.105 0 2-.895 2-2s-.895-2-2-2-2 .895-2 2 .895 2 2 2z"/>
        <path fill="#1155cb" d="M11 4H13V20H11z"/>
        <path fill="#1155cb" d="M6 7H18V9H6zM2 13H22V15H2zM6 19H18V21H6z"/>
        <circle cx="1.5" cy="13.75" r="1.5" fill="#FFF" fill-rule="nonzero" stroke="#1155cb" stroke-width="2"/>
        <circle cx="22.5" cy="13.75" r="1.5" fill="#FFF" fill-rule="nonzero" stroke="#1155cb" stroke-width="2"/>
        <path fill="#FFF" fill-rule="nonzero" stroke="#1155cb" stroke-width="2" d="M5.25 9.25c.828 0 1.5-.672 1.5-1.5s-.672-1.5-1.5-1.5-1.5.672-1.5 1.5.672 1.5 1.5 1.5zM18.75 9.25c.828 0 1.5-.672 1.5-1.5s-.672-1.5-1.5-1.5-1.5.672-1.5 1.5.672 1.5 1.5 1.5zM5.25 21.25c.828 0 1.5-.672 1.5-1.5s-.672-1.5-1.5-1.5-1.5.672-1.5 1.5.672 1.5 1.5 1.5zM18.75 21.25c.828 0 1.5-.672 1.5-1.5s-.672-1.5-1.5-1.5-1.5.672-1.5 1.5.672 1.5 1.5 1.5z"/>
    </g>
</svg>
