<svg width="26" height="28" viewBox="0 0 26 28" fill="none" xmlns="http://www.w3.org/2000/svg">
<g clip-path="url(#clip0_2146_4)">
<path d="M25.1226 14.43V14.9353C18.6918 14.9353 16.9623 20.4597 16.9623 24.9669H16.4569C16.4569 20.4597 14.4323 14.9353 8.29663 14.9353V14.43C15.368 14.43 16.4569 8.90552 16.4569 4.39829H16.9623C16.9623 8.90552 18.0691 14.43 25.1226 14.43ZM6.05198 12.8977C6.05198 10.3335 7.03656 7.19066 10.6945 7.19066V6.90375C6.6812 6.90375 6.05198 3.76092 6.05198 1.19678H5.76509C5.76509 3.76092 5.14564 6.90375 1.12256 6.90375V7.19066C4.61423 7.19066 5.76509 10.3335 5.76509 12.8977H6.05198ZM8.93885 17.4358H8.69437C8.69437 19.6201 8.16622 22.2985 4.73812 22.2985V22.5429C7.71306 22.5429 8.69437 25.2211 8.69437 27.4056H8.93885C8.93885 25.2211 9.77683 22.5429 12.8951 22.5429V22.2985C9.47522 22.2985 8.93885 19.6201 8.93885 17.4358Z" fill="#1155CB" stroke="#1155CB" stroke-width="0.5" stroke-miterlimit="10"/>
</g>
<defs>
<clipPath id="clip0_2146_4">
<rect width="26" height="28" fill="white"/>
</clipPath>
</defs>
</svg>
