<svg xmlns="http://www.w3.org/2000/svg" width="38" height="37" viewBox="0 0 50 49">
    <g fill="none" fill-rule="evenodd" stroke-width="4">
        <path stroke="#1155CB" d="M11.897 3.5l5.777 9.149m-5.136 4.889L3 12.09m42 22.037L35.907 29.5m-5.635 5.363l4.856 8.636" transform="translate(1 1)"/>
        <path stroke="#004B80" d="M36.103 3.5l-5.777 9.149m5.136 4.889L45 12.09M3 34.127l9.093-4.626m5.635 5.363L12.872 43.5" transform="translate(1 1)"/>
        <g stroke="#3A8FE6">
            <path d="M48 22.94c0 12.669-10.745 22.938-24 22.938S0 35.608 0 22.94C0 10.27 10.745 0 24 0s24 10.27 24 22.94z" transform="translate(1 1) translate(0 .5)"/>
            <path d="M37.274 22.94c0 7.006-5.943 12.686-13.274 12.686-7.33 0-13.274-5.68-13.274-12.687 0-7.006 5.943-12.687 13.274-12.687 7.33 0 13.274 5.68 13.274 12.687z" transform="translate(1 1) translate(0 .5)"/>
        </g>
    </g>
</svg>
