<svg width="26" height="24" viewBox="0 0 26 24" fill="none" xmlns="http://www.w3.org/2000/svg">
<g clip-path="url(#clip0_1234_2)">
<path fill-rule="evenodd" clip-rule="evenodd" d="M11.2061 1L1.99263 1.11495C1.44324 1.1218 1.00228 1.57061 1.00512 2.12003L1.10759 21.9998C1.11044 22.5522 1.56056 22.9976 2.11291 22.9947L24.0002 22.878C24.5524 22.8751 24.9977 22.4251 24.9948 21.8729L24.8924 1.99484C24.8895 1.44458 24.4427 1 23.8924 1H14.7939C14.238 1 13.7473 1.30467 13.4387 1.77333V1.77333C13.2312 2.08864 12.7688 2.08864 12.5613 1.77333V1.77333C12.2521 1.30467 11.762 1 11.2061 1Z" stroke="#1155cb" stroke-width="1.8"/>
<path d="M12.9693 3.21271L13 8.46154" stroke="#1155cb" stroke-width="2" stroke-linecap="square"/>
<path d="M8.7 10.6812V13.7812M19.3294 10.6812V13.7812" stroke="#1155cb" stroke-width="1.5" stroke-linecap="square"/>
<path d="M13 16L12.9739 22.4999" stroke="#1155cb" stroke-width="2" stroke-linecap="square"/>
<path d="M5.45927 11.9064L4.61635 12.5186L5.46435 13.1237L7.54785 14.6105L7.74334 14.75H7.9835H20.4835H20.8348L21.0597 14.4801L21.4762 13.9803L21.65 13.7717V13.5002V11.4998V11.2283L21.4762 11.0197L21.0597 10.5199L20.8348 10.25H20.4835H7.9835H7.73988L7.54277 10.3932L5.45927 11.9064Z" stroke="#1155cb" stroke-width="1.5"/>
</g>
<defs>
<clipPath id="clip0_1234_2">
<rect width="26" height="24" fill="white"/>
</clipPath>
</defs>
</svg>
