<svg xmlns="http://www.w3.org/2000/svg" xmlns:xlink="http://www.w3.org/1999/xlink" preserveAspectRatio="xMidYMid" width="24" height="24" viewBox="0 0 24 24">
  <defs>
    <style>

      .cls-2 {
        fill: #9daab3;
      }
    </style>
  </defs>
  <path data-v-77239f42="" d="M19.593 5.493l-2.842 2.842A6.002 6.002 0 0 1 13 17.917l-.001 4.034c5.053-.502 9-4.766 9-9.951a9.96 9.96 0 0 0-2.407-6.507zM18.146 4.11A9.95 9.95 0 0 0 13 2.05v4.034c.83.14 1.604.45 2.281.893l2.865-2.865zM2.05 13A10.003 10.003 0 0 0 11 21.95v-4.033A6.005 6.005 0 0 1 6.083 13H2.049zm0-2h4.034A6.005 6.005 0 0 1 11 6.083V2.049A10.003 10.003 0 0 0 2.05 11zM12 24C5.373 24 0 18.627 0 12S5.373 0 12 0s12 5.373 12 12-5.373 12-12 12zm0-8a4 4 0 1 0 0-8 4 4 0 0 0 0 8z" fill="#1155cb" fill-rule="evenodd"/></svg>
