<?xml version="1.0" encoding="UTF-8"?>
<svg width="32px" height="29px" viewBox="0 0 32 29" version="1.1" xmlns="http://www.w3.org/2000/svg" xmlns:xlink="http://www.w3.org/1999/xlink">
    <title>Slice 1</title>
    <g id="Page-1" stroke="none" stroke-width="1" fill="none" fill-rule="evenodd">
        <g id="icn-enterprise" fill="#1155cb" fill-rule="nonzero">
            <path d="M14,15 L14,13 L18,13 L18,15 L30,15 L30,9 C30,7.8954305 29.1045695,7 28,7 L4,7 C2.8954305,7 2,7.8954305 2,9 L2,15 L14,15 Z M14,17 L3,17 L3,25 C3,26.1045695 3.8954305,27 5,27 L27,27 C28.1045695,27 29,26.1045695 29,25 L29,17 L18,17 L18,19 L14,19 L14,17 Z M10,5 L10,2 C10,0.8954305 10.8954305,0 12,0 L20,0 C21.1045695,0 22,0.8954305 22,2 L22,5 L28,5 C30.209139,5 32,6.790861 32,9 L32,17 L31,17 L31,25 C31,27.209139 29.209139,29 27,29 L5,29 C2.790861,29 1,27.209139 1,25 L1,17 L0,17 L0,9 C0,6.790861 1.790861,5 4,5 L10,5 Z M12,2 L12,5 L20,5 L20,2 L12,2 Z" id="icn-enterprise.svg"></path>
        </g>
    </g>
</svg>
