<svg xmlns="http://www.w3.org/2000/svg" width="37" height="36" viewBox="0 0 37 36">
    <g fill="none" fill-rule="evenodd" stroke-width="2">
        <path stroke="#004B80" d="M1 23.129L6.568 23.129 12.297 28 15 28 15 18.669 10.818 18.669 9.21 17.636 8.107 17.636 8.107 16.382 13.291 12.891 13.291 4 6.568 4M30 4L23.439 9.768 23.439 12.975 24.856 13.573 30 13.573 24.603 13.573 22 16.254 22 18.309 24.446 20.827 27.723 20.827 30 28" transform="translate(1 1)"/>
        <path stroke="#0573E3" d="M35 17c0 9.39-7.835 17-17.5 17S0 26.39 0 17 7.835 0 17.5 0 35 7.61 35 17z" transform="translate(1 1)"/>
    </g>
</svg>
