<svg width="20" height="19" viewBox="0 0 20 19" fill="none" xmlns="http://www.w3.org/2000/svg">
<g clip-path="url(#clip0_1101_2)">
<path d="M3.83331 8.43333V12.1002C3.83331 12.1869 3.87011 12.2687 3.9339 12.3223C5.63897 13.7697 7.78154 14.5667 9.96665 14.5667C11.4399 14.5667 12.8943 14.2036 14.2081 13.524L14.7453 13.2231C15.1828 12.9589 15.6032 12.6588 15.999 12.3223C16.0628 12.2687 16.1 12.1869 16.1 12.1002V8.43333" stroke="#1155cb" stroke-width="1.5"/>
<path fill-rule="evenodd" clip-rule="evenodd" d="M0.716797 4.84019L9.91073 0.87619L19.3835 4.84019V6.82218L9.91073 11.1167L0.716797 6.82218V4.84019Z" stroke="#1155cb" stroke-width="1.5"/>
<path d="M9.70319 5.87778L12.9299 7.8086V16.1" stroke="#1155cb" stroke-width="1.5"/>
<path d="M13.4167 17.6333C14.0515 17.6333 14.5667 17.1181 14.5667 16.4833C14.5667 15.8485 14.0515 15.3333 13.4167 15.3333C12.7814 15.3333 12.2667 15.8485 12.2667 16.4833C12.2667 17.1181 12.7814 17.6333 13.4167 17.6333Z" fill="white" stroke="#1155cb" stroke-width="1.5"/>
</g>
<defs>
<clipPath id="clip0_1101_2">
<rect width="20" height="18.4" fill="white"/>
</clipPath>
</defs>
</svg>
