<svg xmlns="http://www.w3.org/2000/svg" width="24" height="20" viewBox="0 0 24 20">
    <path fill="#1155cb" fill-rule="evenodd" d="M17 0c1.435 0 2.635 1.008 2.93 2.355L23 12l.06.08c.591.821.94 1.83.94 2.92 0 2.761-2.239 5-5 5s-5-2.239-5-5v-3l-.005-.15C13.918 10.817 13.055 10 12 10c-1.105 0-2 .895-2 2v3c0 2.761-2.239 5-5 5s-5-2.239-5-5c0-1.09.349-2.099.94-2.92L1 12l3.07-9.645C4.365 1.008 5.565 0 7 0c1.598 0 2.904 1.249 2.995 2.824L10 3v2.535C10.588 5.195 11.27 5 12 5c.729 0 1.412.195 2 .535V3l.005-.176C14.096 1.249 15.402 0 17 0zM5 12c-1.657 0-3 1.343-3 3s1.343 3 3 3 3-1.343 3-3-1.343-3-3-3zm14 0c-1.657 0-3 1.343-3 3s1.343 3 3 3 3-1.343 3-3-1.343-3-3-3zM6.85 2c-.635 0-1.15.448-1.15 1h-.024l-2.08 7 .005-.003-.065.22C3.999 10.078 4.49 10 5 10c1.126 0 2.165.372 3.001 1V9H8l.001-.03V5.829L8 3c0-.552-.515-1-1.15-1zm10.3 0C16.515 2 16 2.448 16 3l-.001 6v2c.836-.628 1.875-1 3.001-1 .51 0 1.001.076 1.464.218l-.065-.221.006.003-2.081-7H18.3c0-.552-.515-1-1.15-1zM12 7c-.932 0-1.715.637-1.936 1.5C10.637 8.18 11.298 8 12 8s1.363.181 1.937.5C13.715 7.637 12.932 7 12 7z"/>
</svg>
