<?xml version="1.0" encoding="UTF-8"?>
<svg width="33px" height="32px" viewBox="0 0 33 32" version="1.1" xmlns="http://www.w3.org/2000/svg" xmlns:xlink="http://www.w3.org/1999/xlink">
    <title>icn-monitoring-grey 2</title>
    <g id="Page-1" stroke="none" stroke-width="1" fill="none" fill-rule="evenodd">
        <g id="icn-monitoring-grey" fill="#000000" fill-rule="nonzero">
            <path d="M31.4846226,23.1847232 L18.7446226,1.73272316 C18.2286685,0.674221256 17.1549832,0.00191708523 15.9774302,-2.13162821e-14 C14.7998771,-0.00190889945 13.7240131,0.666903224 13.2046226,1.72372316 L0.542622578,23.1997232 C-0.128571375,24.1724619 -0.181142122,25.4443065 0.407484544,26.469119 C0.996111211,27.4939315 2.12119683,28.0893597 3.29962258,27.9997232 L12.0166226,27.9997232 L16.0166226,31.9997232 L20.0166226,27.9997232 L28.7356226,27.9997232 C29.9171404,28.0889528 31.0444811,27.4900643 31.6319562,26.4610748 C32.2194312,25.4320852 32.1620845,24.15683 31.4846226,23.1847232 Z M28.7356226,25.9997232 L19.0166226,25.9997232 L16.0166226,28.9997232 L13.0166226,25.9997232 L3.29962258,25.9997232 C2.84032632,26.0911291 2.37392817,25.879223 2.1406584,25.4731524 C1.90738863,25.0670818 1.95928726,24.5574369 2.26962258,24.2067232 L14.9266226,2.73972316 C15.0824133,2.29575351 15.5016124,1.99859337 15.9721226,1.99859337 C16.4426327,1.99859337 16.8618318,2.29575351 17.0176226,2.73972316 L29.7656226,24.2067232 C30.0759579,24.5574369 30.1278565,25.0670818 29.8945868,25.4731524 C29.661317,25.879223 29.1949188,26.0911291 28.7356226,25.9997232 Z M16.0166226,20.9997232 C16.5689073,20.9997232 17.0166226,21.4474384 17.0166226,21.9997232 C17.0166226,22.5520079 16.5689073,22.9997232 16.0166226,22.9997232 C15.4643378,22.9997232 15.0166226,22.5520079 15.0166226,21.9997232 C15.0166226,21.4474384 15.4643378,20.9997232 16.0166226,20.9997232 Z M16.0166226,8.99972316 C16.5689073,8.99972316 17.0166226,9.44743841 17.0166226,9.99972316 L17.0166226,17.9997232 C17.0166226,18.5520079 16.5689073,18.9997232 16.0166226,18.9997232 C15.4643378,18.9997232 15.0166226,18.5520079 15.0166226,17.9997232 L15.0166226,9.99972316 C15.0166226,9.44743841 15.4643378,8.99972316 16.0166226,8.99972316 Z" id="icn"></path>
        </g>
    </g>
</svg>