<svg height="49" preserveAspectRatio="xMidYMid" viewBox="0 0 49 49" width="49" xmlns="http://www.w3.org/2000/svg"><g fill-rule="evenodd"><path d="m24 0s25 25 25 25v24s-49-49-49-49z" fill="#bfbfbf"/><path d="m43.116 26.369s-4.749 4.749-4.749 4.749-1.15-1.15-1.15-1.15.815-5.126.815-5.126-2.971 2.971-2.971 2.971-1.116-1.116-1.116-1.116 4.75-4.749 4.75-4.749 1.2 1.2 1.2 1.2-.77 4.98-.77 4.98 2.875-2.875 2.875-2.875 1.116 1.116 1.116 1.116zm-12.667-2.962c-1.479-1.479-1.44-3.547-.015-4.971 1.433-1.434 3.492-1.464 4.971.015 1.471 1.471 1.449 3.539.016 4.972-1.425 1.425-3.501 1.455-4.972-.016zm3.955-3.954c-.829-.829-2-.722-2.838.115-.829.829-.944 2.009-.115 2.838.82.82 2.008.713 2.837-.116.838-.837.936-2.017.116-2.837zm-9.58-1.67c-1.479-1.479-1.44-3.547-.015-4.972 1.433-1.433 3.493-1.464 4.972.016 1.471 1.47 1.449 3.538.015 4.972-1.424 1.424-3.501 1.455-4.972-.016zm3.955-3.955c-.828-.828-2-.722-2.837.116-.829.829-.944 2.009-.116 2.837.82.82 2.009.714 2.838-.115.837-.838.935-2.018.115-2.838zm-5.014-5.1c-.44-.44-.917-.52-1.193-.244-.709.708 2.549 2.912.735 4.725-.915.915-2.23.827-3.532-.475-.887-.888-1.295-1.917-1.295-2.729 0 0 1.362-.347 1.362-.347-.007.649.3 1.543.917 2.16.575.575 1.062.595 1.347.31.803-.803-2.506-2.938-.71-4.734.803-.803 2.203-.749 3.336.384.794.794 1.178 1.696 1.22 2.584 0 0-1.319.27-1.319.27-.027-.683-.412-1.448-.868-1.904z" fill="#fff"/></g></svg>