<svg width="50" height="50" viewBox="0 0 50 50" xmlns="http://www.w3.org/2000/svg"><g transform="translate(1 1)" fill="none" fill-rule="evenodd"><path stroke-opacity=".85" stroke="#000" stroke-width="2" opacity=".091" d="M6 24h18V6M42 24H24v18"/><path d="M24 48a3 3 0 1 0 0-6 3 3 0 0 0 0 6z" stroke-opacity=".7" stroke="#000"/><circle stroke-opacity=".7" stroke="#000" cx="3" cy="24" r="3"/><circle stroke-opacity=".7" stroke="#000" cx="45" cy="24" r="3"/><path d="M24 6a3 3 0 1 0 0-6 3 3 0 0 0 0 6z" stroke-opacity=".7" stroke="#000"/><path stroke="#9FB35C" d="M5.964 8.5L9.5 4.964 13.036 8.5 9.5 12.036z"/><path stroke="#EF485D" d="M5.965 38.536L9.5 35l3.536 3.536L9.5 42.07z"/><path stroke="#9FB35C" d="M34.964 8.5L38.5 4.964 42.036 8.5 38.5 12.036z"/><path stroke="#FF5D8C" fill="#FF5D8C" d="M17.843 24.379l5.657-5.657 5.657 5.657-5.657 5.657z"/><path stroke="#302EF8" d="M34.965 38.536L38.5 35l3.536 3.536L38.5 42.07z"/></g></svg>