<svg width="25" height="24" viewBox="0 0 25 24" fill="none" xmlns="http://www.w3.org/2000/svg">
<mask id="mask0_477_240" style="mask-type:alpha" maskUnits="userSpaceOnUse" x="0" y="0" width="25" height="24">
<path d="M24.5 0H0.5V24H24.5V0Z" fill="#D9D9D9"/>
</mask>
<g mask="url(#mask0_477_240)">
<path d="M21.2455 12.3624V12.7124C16.7914 12.7124 15.5935 16.5387 15.5935 19.6605H15.2435C15.2435 16.5387 13.8412 12.7124 9.59148 12.7124V12.3624C14.4893 12.3624 15.2435 8.53603 15.2435 5.41422H15.5935C15.5935 8.53603 16.3601 12.3624 21.2455 12.3624ZM8.03679 11.3011C8.03679 9.52507 8.71873 7.34828 11.2523 7.34828V7.14956C8.4726 7.14956 8.03679 4.97276 8.03679 3.19678H7.83808C7.83808 4.97276 7.40904 7.14956 4.62256 7.14956V7.34828C7.04097 7.34828 7.83808 9.52507 7.83808 11.3011H8.03679ZM10.0363 14.4443H9.86697C9.86697 15.9572 9.50116 17.8123 7.12678 17.8123V17.9816C9.18729 17.9816 9.86697 19.8366 9.86697 21.3496H10.0363C10.0363 19.8366 10.6167 17.9816 12.7765 17.9816V17.8123C10.4078 17.8123 10.0363 15.9572 10.0363 14.4443Z" fill="#B6B6BD" stroke="#B6B6BD" stroke-width="0.5" stroke-miterlimit="10"/>
</g>
</svg>
