<svg width="25" height="24" viewBox="0 0 25 24" fill="none" xmlns="http://www.w3.org/2000/svg">
<g id="list_alt">
<mask id="mask0_331_4281" style="mask-type:alpha" maskUnits="userSpaceOnUse" x="0" y="0" width="25" height="24">
<rect id="Bounding box" x="0.5" width="24" height="24" fill="#D9D9D9"/>
</mask>
<g mask="url(#mask0_331_4281)">
<path id="list_alt_2" d="M8.5 17C8.78333 17 9.02083 16.9042 9.2125 16.7125C9.40417 16.5208 9.5 16.2833 9.5 16C9.5 15.7167 9.40417 15.4792 9.2125 15.2875C9.02083 15.0958 8.78333 15 8.5 15C8.21667 15 7.97917 15.0958 7.7875 15.2875C7.59583 15.4792 7.5 15.7167 7.5 16C7.5 16.2833 7.59583 16.5208 7.7875 16.7125C7.97917 16.9042 8.21667 17 8.5 17ZM8.5 13C8.78333 13 9.02083 12.9042 9.2125 12.7125C9.40417 12.5208 9.5 12.2833 9.5 12C9.5 11.7167 9.40417 11.4792 9.2125 11.2875C9.02083 11.0958 8.78333 11 8.5 11C8.21667 11 7.97917 11.0958 7.7875 11.2875C7.59583 11.4792 7.5 11.7167 7.5 12C7.5 12.2833 7.59583 12.5208 7.7875 12.7125C7.97917 12.9042 8.21667 13 8.5 13ZM8.5 9C8.78333 9 9.02083 8.90417 9.2125 8.7125C9.40417 8.52083 9.5 8.28333 9.5 8C9.5 7.71667 9.40417 7.47917 9.2125 7.2875C9.02083 7.09583 8.78333 7 8.5 7C8.21667 7 7.97917 7.09583 7.7875 7.2875C7.59583 7.47917 7.5 7.71667 7.5 8C7.5 8.28333 7.59583 8.52083 7.7875 8.7125C7.97917 8.90417 8.21667 9 8.5 9ZM11.5 17H17.5V15H11.5V17ZM11.5 13H17.5V11H11.5V13ZM11.5 9H17.5V7H11.5V9ZM5.5 21C4.95 21 4.47917 20.8042 4.0875 20.4125C3.69583 20.0208 3.5 19.55 3.5 19V5C3.5 4.45 3.69583 3.97917 4.0875 3.5875C4.47917 3.19583 4.95 3 5.5 3H19.5C20.05 3 20.5208 3.19583 20.9125 3.5875C21.3042 3.97917 21.5 4.45 21.5 5V19C21.5 19.55 21.3042 20.0208 20.9125 20.4125C20.5208 20.8042 20.05 21 19.5 21H5.5Z" fill="#B6B6BD"/>
</g>
</g>
</svg>
