<svg width="24" height="24" viewBox="0 0 24 24" fill="none" xmlns="http://www.w3.org/2000/svg">
<g id="lock_person">
<mask id="mask0_331_4240" style="mask-type:alpha" maskUnits="userSpaceOnUse" x="0" y="0" width="24" height="24">
<rect id="Bounding box" width="24" height="24" fill="#D9D9D9"/>
</mask>
<g mask="url(#mask0_331_4240)">
<path id="lock_person_2" d="M9 8H15V6C15 5.16667 14.7083 4.45833 14.125 3.875C13.5417 3.29167 12.8333 3 12 3C11.1667 3 10.4583 3.29167 9.875 3.875C9.29167 4.45833 9 5.16667 9 6V8ZM18 23C16.6167 23 15.4375 22.5125 14.4625 21.5375C13.4875 20.5625 13 19.3833 13 18C13 16.6167 13.4875 15.4375 14.4625 14.4625C15.4375 13.4875 16.6167 13 18 13C19.3833 13 20.5625 13.4875 21.5375 14.4625C22.5125 15.4375 23 16.6167 23 18C23 19.3833 22.5125 20.5625 21.5375 21.5375C20.5625 22.5125 19.3833 23 18 23ZM12.25 22H6C5.45 22 4.97917 21.8042 4.5875 21.4125C4.19583 21.0208 4 20.55 4 20V10C4 9.45 4.19583 8.97917 4.5875 8.5875C4.97917 8.19583 5.45 8 6 8H7V6C7 4.61667 7.4875 3.4375 8.4625 2.4625C9.4375 1.4875 10.6167 1 12 1C13.3833 1 14.5625 1.4875 15.5375 2.4625C16.5125 3.4375 17 4.61667 17 6V8H18C18.55 8 19.0208 8.19583 19.4125 8.5875C19.8042 8.97917 20 9.45 20 10V11.3C19.6667 11.1833 19.3333 11.1042 19 11.0625C18.6667 11.0208 18.3333 11 18 11C16.05 11 14.3958 11.6792 13.0375 13.0375C11.6792 14.3958 11 16.05 11 18C11 18.7167 11.1125 19.4125 11.3375 20.0875C11.5625 20.7625 11.8667 21.4 12.25 22ZM18 18C18.4167 18 18.7708 17.8542 19.0625 17.5625C19.3542 17.2708 19.5 16.9167 19.5 16.5C19.5 16.0833 19.3542 15.7292 19.0625 15.4375C18.7708 15.1458 18.4167 15 18 15C17.5833 15 17.2292 15.1458 16.9375 15.4375C16.6458 15.7292 16.5 16.0833 16.5 16.5C16.5 16.9167 16.6458 17.2708 16.9375 17.5625C17.2292 17.8542 17.5833 18 18 18ZM18 21C18.5 21 18.9667 20.8833 19.4 20.65C19.8333 20.4167 20.1917 20.0917 20.475 19.675C20.0917 19.4417 19.6917 19.2708 19.275 19.1625C18.8583 19.0542 18.4333 19 18 19C17.5667 19 17.1417 19.0542 16.725 19.1625C16.3083 19.2708 15.9083 19.4417 15.525 19.675C15.8083 20.0917 16.1667 20.4167 16.6 20.65C17.0333 20.8833 17.5 21 18 21Z" fill="#B6B6BD"/>
</g>
</g>
</svg>
