<svg width="25" height="24" viewBox="0 0 25 24" fill="none" xmlns="http://www.w3.org/2000/svg">
<g id="route">
<mask id="mask0_331_4254" style="mask-type:alpha" maskUnits="userSpaceOnUse" x="0" y="0" width="25" height="24">
<rect id="Bounding box" x="0.5" width="24" height="24" fill="#D9D9D9"/>
</mask>
<g mask="url(#mask0_331_4254)">
<path id="route_2" d="M9.5 21C8.4 21 7.45833 20.6083 6.675 19.825C5.89167 19.0417 5.5 18.1 5.5 17V8.825C4.91667 8.60833 4.4375 8.24583 4.0625 7.7375C3.6875 7.22917 3.5 6.65 3.5 6C3.5 5.16667 3.79167 4.45833 4.375 3.875C4.95833 3.29167 5.66667 3 6.5 3C7.33333 3 8.04167 3.29167 8.625 3.875C9.20833 4.45833 9.5 5.16667 9.5 6C9.5 6.65 9.3125 7.22917 8.9375 7.7375C8.5625 8.24583 8.08333 8.60833 7.5 8.825V17C7.5 17.55 7.69583 18.0208 8.0875 18.4125C8.47917 18.8042 8.95 19 9.5 19C10.05 19 10.5208 18.8042 10.9125 18.4125C11.3042 18.0208 11.5 17.55 11.5 17V7C11.5 5.9 11.8917 4.95833 12.675 4.175C13.4583 3.39167 14.4 3 15.5 3C16.6 3 17.5417 3.39167 18.325 4.175C19.1083 4.95833 19.5 5.9 19.5 7V15.175C20.0833 15.3917 20.5625 15.7542 20.9375 16.2625C21.3125 16.7708 21.5 17.35 21.5 18C21.5 18.8333 21.2083 19.5417 20.625 20.125C20.0417 20.7083 19.3333 21 18.5 21C17.6667 21 16.9583 20.7083 16.375 20.125C15.7917 19.5417 15.5 18.8333 15.5 18C15.5 17.35 15.6875 16.7667 16.0625 16.25C16.4375 15.7333 16.9167 15.375 17.5 15.175V7C17.5 6.45 17.3042 5.97917 16.9125 5.5875C16.5208 5.19583 16.05 5 15.5 5C14.95 5 14.4792 5.19583 14.0875 5.5875C13.6958 5.97917 13.5 6.45 13.5 7V17C13.5 18.1 13.1083 19.0417 12.325 19.825C11.5417 20.6083 10.6 21 9.5 21Z" fill="#B6B6BD"/>
</g>
</g>
</svg>
