<svg width="22" height="22" viewBox="0 0 22 22" fill="none" xmlns="http://www.w3.org/2000/svg">
<path fill-rule="evenodd" clip-rule="evenodd" d="M5.45711 0.292893C5.06658 -0.097631 4.43342 -0.097631 4.04289 0.292893C3.65237 0.683417 3.65237 1.31658 4.04289 1.70711L19.5429 17.2071C19.9334 17.5976 20.5666 17.5976 20.9571 17.2071C21.3476 16.8166 21.3476 16.1834 20.9571 15.7929L18.5468 13.3826C18.5211 13.3497 18.493 13.318 18.4625 13.2875C18.432 13.257 18.4003 13.2289 18.3674 13.2032L17.1642 12H17.75C18.0333 12 18.2708 11.9042 18.4625 11.7125C18.6542 11.5208 18.75 11.2833 18.75 11V4C18.75 3.71667 18.6542 3.47917 18.4625 3.2875C18.2708 3.09583 18.0333 3 17.75 3H8.16421L5.45711 0.292893ZM1.75 3H2.83586L6.08179 6.24593C5.83966 6.08197 5.5624 6 5.25 6C4.83333 6 4.47917 6.14583 4.1875 6.4375C3.89583 6.72917 3.75 7.08333 3.75 7.5C3.75 7.91667 3.89583 8.27083 4.1875 8.5625C4.47917 8.85417 4.83333 9 5.25 9C5.66667 9 6.02083 8.85417 6.3125 8.5625C6.60417 8.27083 6.75 7.91667 6.75 7.5C6.75 7.1876 6.66802 6.91034 6.50407 6.66821L11.8359 12H1.75C1.46667 12 1.22917 11.9042 1.0375 11.7125C0.845833 11.5208 0.75 11.2833 0.75 11V4C0.75 3.71667 0.845833 3.47917 1.0375 3.2875C1.22917 3.09583 1.46667 3 1.75 3ZM18.75 18.9141L12.8359 13H1.75C1.46667 13 1.22917 13.0958 1.0375 13.2875C0.845833 13.4792 0.75 13.7167 0.75 14V21C0.75 21.2833 0.845833 21.5208 1.0375 21.7125C1.22917 21.9042 1.46667 22 1.75 22H17.75C18.0333 22 18.2708 21.9042 18.4625 21.7125C18.6542 21.5208 18.75 21.2833 18.75 21V18.9141ZM5.25 16C4.83333 16 4.47917 16.1458 4.1875 16.4375C3.89583 16.7292 3.75 17.0833 3.75 17.5C3.75 17.9167 3.89583 18.2708 4.1875 18.5625C4.47917 18.8542 4.83333 19 5.25 19C5.66667 19 6.02083 18.8542 6.3125 18.5625C6.60417 18.2708 6.75 17.9167 6.75 17.5C6.75 17.0833 6.60417 16.7292 6.3125 16.4375C6.02083 16.1458 5.66667 16 5.25 16Z" fill="#B6B6BD"/>
</svg>
