<svg width="67" height="21" viewBox="0 0 67 21" fill="none" xmlns="http://www.w3.org/2000/svg">
<path d="M9.10409 0C11.6498 0 13.0277 0.420765 14.1955 1.46949C15.5734 2.74454 16.2321 5.33925 16.2321 10.5C16.2321 15.6607 15.5734 18.2714 14.1955 19.5305C13.0277 20.5792 11.6498 21 9.10409 21H0V0H9.10409ZM11.6498 3.54144C10.9911 2.93898 10.3929 2.8816 9.10409 2.8816H3.35398V18.1216H9.10409C10.3929 18.1216 11.0516 18.0291 11.6498 17.4617C12.4581 16.7095 12.8176 15.2719 12.8176 10.5319C12.8176 5.69945 12.4581 4.29053 11.6498 3.54144Z" fill="#7D91B3"/>
<path d="M32.3432 5.73132C31.6845 5.07148 30.7267 4.80054 29.1388 4.80054H24.3656C22.7746 4.80054 21.8199 5.07148 21.1612 5.73132C20.1143 6.78005 19.8152 8.03915 19.8152 12.9003C19.8152 17.7614 20.1143 19.0205 21.1612 20.0692C21.8199 20.7322 22.7778 21 24.3656 21H29.1388C30.7299 21 31.6845 20.7322 32.3432 20.0692C33.3902 19.0205 33.6893 17.7614 33.6893 12.9003C33.6893 8.03915 33.3902 6.78005 32.3432 5.73132ZM30.5772 18.2108H22.94V7.5897H30.5772V18.2108Z" fill="#7D91B3"/>
<path d="M47.6145 15.0902C47.6297 15.8139 47.5989 16.5379 47.5223 17.2577V18.214H40.5216V7.5897H47.5223V9.61065C47.5223 9.86566 47.5445 10.1589 47.5573 10.5H50.5803C50.5803 7.47176 50.2812 6.39116 49.5016 5.61019C48.9924 5.10017 48.3337 4.80054 46.8667 4.80054H41.9567C40.3656 4.80054 39.411 5.07148 38.7523 5.73132C37.7022 6.78005 37.4031 8.03915 37.4031 12.9003C37.4031 17.7614 37.7022 19.0205 38.7523 20.0692C39.411 20.7322 40.3688 21 41.9567 21H46.8954C48.3051 21 49.0529 20.6812 49.5334 20.1903C50.3416 19.3807 50.6408 18.4499 50.6408 15.0902H47.6145Z" fill="#7D91B3"/>
<path d="M66.2425 12.5114C65.7939 12.0619 65.1638 11.8515 63.9068 11.7304L58.3349 11.1598C57.6189 11.0706 57.4376 11.01 57.2275 10.7996C57.0175 10.5892 56.9889 10.229 56.9889 9.20582C56.9889 8.98906 56.9889 8.80737 56.9889 8.64799V7.41119H63.8909V9.18032H63.8623C63.8623 9.35564 63.8814 9.55646 63.8909 9.77959H66.7549C66.6944 6.99043 66.4557 6.1489 65.8002 5.48906C65.3197 5.01092 64.6006 4.80054 63.3754 4.80054H57.4662C56.2093 4.80054 55.5569 5.03961 55.0414 5.54963C54.3827 6.20946 54.055 7.35063 54.055 9.37476C54.055 11.536 54.2331 12.4349 54.8918 13.0947C55.3724 13.5729 55.9992 13.7545 57.288 13.9044L62.7676 14.4749C63.4263 14.5355 63.6077 14.6248 63.7859 14.7937C63.9641 14.9626 64.0469 15.24 64.0755 15.9062V15.9444V16.4449C64.0755 16.4449 64.0755 16.8657 64.0755 17.0314V18.383H56.7248V16.056C56.7248 16.005 56.7248 15.954 56.7248 15.8998H53.8608C53.9213 18.842 54.1281 19.6198 54.8155 20.3115C55.2928 20.7896 56.2825 21 57.3898 21H63.6205C64.8169 21 65.5297 20.7896 66.0453 20.2796C66.7358 19.5911 66.9999 18.5392 66.9999 16.2919C66.9903 14.1594 66.8408 13.1106 66.2425 12.5114V12.5114Z" fill="#7D91B3"/>
</svg>
