<svg width="48" height="17" viewBox="0 0 48 17" fill="none" xmlns="http://www.w3.org/2000/svg">
<path d="M5.19824 16H1.79297L1.81445 13.4863H5.19824C6.04329 13.4863 6.75586 13.2965 7.33594 12.917C7.91602 12.5303 8.35286 11.9681 8.64648 11.2305C8.94727 10.4928 9.09766 9.60124 9.09766 8.55566V7.79297C9.09766 6.99089 9.01172 6.28548 8.83984 5.67676C8.67513 5.06803 8.42806 4.55599 8.09863 4.14062C7.76921 3.72526 7.36458 3.41374 6.88477 3.20605C6.40495 2.99121 5.85352 2.88379 5.23047 2.88379H1.72852V0.359375H5.23047C6.27604 0.359375 7.2321 0.538411 8.09863 0.896484C8.97233 1.2474 9.72786 1.75228 10.3652 2.41113C11.0026 3.06999 11.4932 3.85775 11.8369 4.77441C12.1878 5.68392 12.3633 6.69727 12.3633 7.81445V8.55566C12.3633 9.66569 12.1878 10.679 11.8369 11.5957C11.4932 12.5124 11.0026 13.3001 10.3652 13.959C9.73503 14.6107 8.97949 15.1156 8.09863 15.4736C7.22493 15.8245 6.25814 16 5.19824 16ZM3.61914 0.359375V16H0.396484V0.359375H3.61914ZM14.0176 10.3066V10.0811C14.0176 9.22884 14.1393 8.44466 14.3828 7.72852C14.6263 7.00521 14.9808 6.37858 15.4463 5.84863C15.9118 5.31868 16.4847 4.9069 17.165 4.61328C17.8454 4.3125 18.626 4.16211 19.5068 4.16211C20.3877 4.16211 21.1719 4.3125 21.8594 4.61328C22.5469 4.9069 23.1234 5.31868 23.5889 5.84863C24.0615 6.37858 24.4196 7.00521 24.6631 7.72852C24.9066 8.44466 25.0283 9.22884 25.0283 10.0811V10.3066C25.0283 11.1517 24.9066 11.9359 24.6631 12.6592C24.4196 13.3753 24.0615 14.002 23.5889 14.5391C23.1234 15.069 22.5505 15.4808 21.8701 15.7744C21.1898 16.068 20.4092 16.2148 19.5283 16.2148C18.6475 16.2148 17.8633 16.068 17.1758 15.7744C16.4954 15.4808 15.9189 15.069 15.4463 14.5391C14.9808 14.002 14.6263 13.3753 14.3828 12.6592C14.1393 11.9359 14.0176 11.1517 14.0176 10.3066ZM17.1113 10.0811V10.3066C17.1113 10.7936 17.1543 11.2484 17.2402 11.6709C17.3262 12.0934 17.4622 12.4658 17.6484 12.7881C17.8418 13.1032 18.0924 13.3503 18.4004 13.5293C18.7083 13.7083 19.0843 13.7979 19.5283 13.7979C19.958 13.7979 20.3268 13.7083 20.6348 13.5293C20.9427 13.3503 21.1898 13.1032 21.376 12.7881C21.5622 12.4658 21.6982 12.0934 21.7842 11.6709C21.8773 11.2484 21.9238 10.7936 21.9238 10.3066V10.0811C21.9238 9.6084 21.8773 9.16439 21.7842 8.74902C21.6982 8.3265 21.5586 7.9541 21.3652 7.63184C21.179 7.30241 20.932 7.0446 20.624 6.8584C20.3161 6.6722 19.9437 6.5791 19.5068 6.5791C19.07 6.5791 18.6976 6.6722 18.3896 6.8584C18.0889 7.0446 17.8418 7.30241 17.6484 7.63184C17.4622 7.9541 17.3262 8.3265 17.2402 8.74902C17.1543 9.16439 17.1113 9.6084 17.1113 10.0811ZM31.7314 13.7979C32.111 13.7979 32.4476 13.7262 32.7412 13.583C33.0348 13.4326 33.264 13.2249 33.4287 12.96C33.6006 12.6878 33.6901 12.3691 33.6973 12.0039H36.6084C36.6012 12.8203 36.3828 13.5472 35.9531 14.1846C35.5234 14.8148 34.9469 15.3125 34.2236 15.6777C33.5003 16.0358 32.6911 16.2148 31.7959 16.2148C30.8936 16.2148 30.1058 16.0645 29.4326 15.7637C28.7666 15.4629 28.2116 15.0475 27.7676 14.5176C27.3236 13.9805 26.9906 13.3574 26.7686 12.6484C26.5465 11.9323 26.4355 11.166 26.4355 10.3496V10.0381C26.4355 9.21452 26.5465 8.44824 26.7686 7.73926C26.9906 7.02311 27.3236 6.40007 27.7676 5.87012C28.2116 5.33301 28.7666 4.91406 29.4326 4.61328C30.0986 4.3125 30.8792 4.16211 31.7744 4.16211C32.7269 4.16211 33.5612 4.34473 34.2773 4.70996C35.0007 5.0752 35.5664 5.59798 35.9746 6.27832C36.39 6.9515 36.6012 7.75 36.6084 8.67383H33.6973C33.6901 8.28711 33.6077 7.9362 33.4502 7.62109C33.2998 7.30599 33.0778 7.05534 32.7842 6.86914C32.4977 6.67578 32.1432 6.5791 31.7207 6.5791C31.2695 6.5791 30.9007 6.67578 30.6143 6.86914C30.3278 7.05534 30.1058 7.31315 29.9482 7.64258C29.7907 7.96484 29.6797 8.33366 29.6152 8.74902C29.5579 9.15723 29.5293 9.58691 29.5293 10.0381V10.3496C29.5293 10.8008 29.5579 11.234 29.6152 11.6494C29.6725 12.0648 29.7799 12.4336 29.9375 12.7559C30.1022 13.0781 30.3278 13.3324 30.6143 13.5186C30.9007 13.7048 31.2731 13.7979 31.7314 13.7979ZM44.6865 12.7881C44.6865 12.5661 44.6221 12.3656 44.4932 12.1865C44.3643 12.0075 44.1243 11.8428 43.7734 11.6924C43.4297 11.5348 42.932 11.3916 42.2803 11.2627C41.693 11.1338 41.1452 10.9727 40.6367 10.7793C40.1354 10.5788 39.6986 10.3389 39.3262 10.0596C38.9609 9.78027 38.6745 9.45085 38.4668 9.07129C38.2591 8.68457 38.1553 8.24414 38.1553 7.75C38.1553 7.26302 38.2591 6.80469 38.4668 6.375C38.6816 5.94531 38.986 5.56576 39.3799 5.23633C39.7809 4.89974 40.2679 4.63835 40.8408 4.45215C41.4209 4.25879 42.0726 4.16211 42.7959 4.16211C43.8057 4.16211 44.6722 4.32324 45.3955 4.64551C46.126 4.96777 46.6846 5.41178 47.0713 5.97754C47.4652 6.53613 47.6621 7.1735 47.6621 7.88965H44.5684C44.5684 7.58887 44.5039 7.32031 44.375 7.08398C44.2533 6.84049 44.0599 6.65072 43.7949 6.51465C43.5371 6.37142 43.2005 6.2998 42.7852 6.2998C42.4414 6.2998 42.1442 6.36068 41.8936 6.48242C41.6429 6.59701 41.4495 6.75456 41.3135 6.95508C41.1846 7.14844 41.1201 7.36328 41.1201 7.59961C41.1201 7.77865 41.1559 7.93978 41.2275 8.08301C41.3063 8.21908 41.4316 8.3444 41.6035 8.45898C41.7754 8.57357 41.9974 8.68099 42.2695 8.78125C42.5488 8.87435 42.8926 8.96029 43.3008 9.03906C44.1387 9.21094 44.887 9.43652 45.5459 9.71582C46.2048 9.98796 46.7275 10.3604 47.1143 10.833C47.501 11.2985 47.6943 11.9108 47.6943 12.6699C47.6943 13.1855 47.5798 13.6582 47.3506 14.0879C47.1214 14.5176 46.792 14.8936 46.3623 15.2158C45.9326 15.5309 45.417 15.778 44.8154 15.957C44.221 16.1289 43.5514 16.2148 42.8066 16.2148C41.7253 16.2148 40.8086 16.0215 40.0566 15.6348C39.3118 15.248 38.7461 14.7575 38.3594 14.1631C37.9798 13.5615 37.79 12.9456 37.79 12.3154H40.7227C40.737 12.738 40.8444 13.0781 41.0449 13.3359C41.2526 13.5938 41.514 13.7799 41.8291 13.8945C42.1514 14.0091 42.4987 14.0664 42.8711 14.0664C43.2721 14.0664 43.6051 14.0127 43.8701 13.9053C44.1351 13.7907 44.3356 13.6403 44.4717 13.4541C44.6149 13.2607 44.6865 13.0387 44.6865 12.7881Z" fill="url(#paint0_linear_210_3930)"/>
<defs>
<linearGradient id="paint0_linear_210_3930" x1="1" y1="15.5" x2="49" y2="-2" gradientUnits="userSpaceOnUse">
<stop stop-color="#AAB4BB"/>
<stop offset="1" stop-color="white"/>
</linearGradient>
</defs>
</svg>
