<svg width="184" height="16" viewBox="0 0 184 16" fill="none" xmlns="http://www.w3.org/2000/svg">
<g clip-path="url(#clip0_2246_9544)">
<path fill-rule="evenodd" clip-rule="evenodd" d="M32.7364 10.4215H35.9584V5.42531H32.7364V10.4215ZM35.9401 3.46267H38.4144V12.7414C38.4144 14.2759 38.2542 14.5436 37.8448 14.954C37.5244 15.293 37.0081 15.4536 36.1181 15.4536H32.5044L31.383 14.2046V13.6871H35.9401V12.4202H32.8249C31.8814 12.4202 31.4008 12.2417 31.0091 11.8492C30.4929 11.3139 30.2793 10.154 30.2793 7.95927C30.2793 5.7645 30.5285 4.55113 31.0625 3.99798C31.472 3.60542 31.9704 3.44482 32.8605 3.44482L34.7118 3.46267L35.9401 4.58682V3.46267ZM6.74664 1H9.66603L5.46496 6.3531L9.84404 12.4021H6.74664L3.41782 7.65569H2.63457V12.4021H0V1H2.63457V5.42523H3.41782L6.74664 1ZM25.972 6.28192V5.46111H25.0819C25.0641 5.46111 25.0641 5.46111 25.0463 5.46111H24.3521C24.3343 5.46111 24.3343 5.46111 24.3165 5.46111H22.9458V6.28192V12.3666H20.4892V3.46262H22.1091H22.9458V3.62321V4.58677L24.174 3.46262H24.8861C24.9929 3.44478 25.1175 3.44478 25.2421 3.44478H26.3102C27.0578 3.44478 27.5385 3.60537 27.8767 3.9444C28.2505 4.30127 28.3929 4.76521 28.3929 6.08564V12.3666H25.9364V6.38898C25.972 6.35329 25.972 6.31761 25.972 6.28192ZM13.0301 10.4035H16.2521V5.40731H13.0301V10.4035ZM13.1374 12.3667C12.2473 12.3667 11.7667 12.2239 11.3928 11.8135C10.8232 11.2247 10.5918 10.4217 10.5918 7.90574C10.5918 5.37194 10.8232 4.58682 11.3928 3.98013C11.7667 3.58757 12.2473 3.44482 13.1374 3.44482H16.128C17.018 3.44482 17.4986 3.58757 17.8725 3.98013C18.4421 4.58682 18.6735 5.37194 18.6735 7.90574C18.6735 10.4395 18.4421 11.2247 17.8725 11.8135C17.4808 12.2239 17.018 12.3667 16.128 12.3667H13.1374Z" fill="#121418"/>
<path d="M46.3463 0.0772619V12.5H44V0.0772619H46.3463Z" fill="url(#paint0_linear_2246_9544)"/>
<path d="M50.822 5.23919V12.5H48.5695V3.26827H50.6855L50.822 5.23919ZM50.4637 7.55139H49.7982C49.8039 6.8802 49.8949 6.27157 50.0712 5.72552C50.2475 5.17946 50.495 4.7102 50.8135 4.31772C51.1377 3.92524 51.5216 3.62378 51.9653 3.41332C52.409 3.20286 52.9039 3.09763 53.4499 3.09763C53.8936 3.09763 54.2946 3.1602 54.6529 3.28534C55.0113 3.41047 55.3184 3.60956 55.5744 3.88258C55.8361 4.15561 56.0351 4.51396 56.1716 4.95763C56.3139 5.39561 56.385 5.93598 56.385 6.57873V12.5H54.1154V6.56167C54.1154 6.14075 54.0528 5.808 53.9277 5.56341C53.8083 5.31882 53.6319 5.14534 53.3987 5.04295C53.1712 4.94057 52.8896 4.88937 52.554 4.88937C52.2071 4.88937 51.9028 4.96047 51.6411 5.10268C51.3851 5.23919 51.169 5.42974 50.9927 5.67433C50.822 5.91891 50.6912 6.20047 50.6002 6.51901C50.5092 6.83754 50.4637 7.18167 50.4637 7.55139Z" fill="url(#paint1_linear_2246_9544)"/>
<path d="M64.3407 3.13358H66.3884V12.0838C66.3884 12.9199 66.2063 13.6281 65.8423 14.2083C65.484 14.7941 64.9806 15.2378 64.3321 15.5393C63.6837 15.8464 62.93 16 62.0711 16C61.7014 16 61.3004 15.9488 60.8681 15.8464C60.4415 15.744 60.0291 15.5819 59.6309 15.3601C59.2385 15.1439 58.9114 14.8624 58.6497 14.5154L59.6651 13.1844C59.9722 13.5428 60.3192 13.8129 60.706 13.995C61.0928 14.1827 61.5108 14.2765 61.9602 14.2765C62.4152 14.2765 62.802 14.1912 63.1206 14.0206C63.4448 13.8556 63.6922 13.611 63.8629 13.2868C64.0392 12.9683 64.1274 12.5758 64.1274 12.1094V5.24101L64.3407 3.13358ZM58.1037 7.86037V7.6812C58.1037 6.97588 58.189 6.33597 58.3596 5.76147C58.5303 5.18129 58.7749 4.68358 59.0934 4.26835C59.4176 3.85312 59.8073 3.53175 60.2623 3.30422C60.723 3.0767 61.2407 2.96294 61.8151 2.96294C62.4238 2.96294 62.9357 3.07386 63.3509 3.29569C63.7718 3.51753 64.1188 3.83322 64.3918 4.24276C64.6706 4.6523 64.8867 5.13863 65.0403 5.70175C65.1996 6.25918 65.3218 6.87349 65.4072 7.54468V8.03101C65.3275 8.68514 65.1996 9.28523 65.0232 9.83129C64.8526 10.3773 64.6251 10.8551 64.3407 11.2647C64.0563 11.6685 63.7036 11.9814 63.2827 12.2032C62.8618 12.4251 62.3669 12.536 61.7981 12.536C61.2293 12.536 60.7174 12.4194 60.2623 12.1862C59.8073 11.9529 59.4176 11.6259 59.0934 11.205C58.7749 10.784 58.5303 10.2892 58.3596 9.72037C58.189 9.15156 58.1037 8.53156 58.1037 7.86037ZM60.3562 7.6812V7.86037C60.3562 8.25854 60.396 8.63111 60.4756 8.97808C60.5552 9.32505 60.6775 9.63221 60.8425 9.89955C61.0074 10.1612 61.2151 10.366 61.4653 10.5139C61.7156 10.6617 62.0142 10.7357 62.3612 10.7357C62.8276 10.7357 63.2087 10.639 63.5045 10.4456C63.806 10.2465 64.0335 9.97633 64.1871 9.63505C64.3463 9.28808 64.4487 8.89845 64.4942 8.46615V7.12661C64.4658 6.78533 64.4032 6.46964 64.3065 6.17955C64.2155 5.88945 64.0875 5.63918 63.9226 5.42872C63.7576 5.21826 63.5472 5.05331 63.2912 4.93386C63.0352 4.81441 62.7309 4.75468 62.3783 4.75468C62.037 4.75468 61.7384 4.83147 61.4824 4.98505C61.2264 5.13294 61.016 5.34055 60.851 5.60789C60.6861 5.87523 60.5609 6.18523 60.4756 6.53789C60.396 6.89055 60.3562 7.27166 60.3562 7.6812Z" fill="url(#paint2_linear_2246_9544)"/>
<path d="M70.6715 5.16716V12.5133H68.419V3.28156H70.552L70.6715 5.16716ZM73.4785 3.22184L73.4444 5.32074C73.3193 5.29798 73.1771 5.28092 73.0178 5.26954C72.8642 5.25817 72.7192 5.25248 72.5827 5.25248C72.2357 5.25248 71.9314 5.30083 71.6697 5.39753C71.4081 5.48853 71.1891 5.6222 71.0128 5.79853C70.8421 5.97486 70.7113 6.19101 70.6203 6.44697C70.5293 6.69725 70.4781 6.98165 70.4667 7.30019L69.9804 7.24046C69.9804 6.65459 70.0401 6.11138 70.1596 5.61083C70.279 5.11028 70.4525 4.6723 70.68 4.29688C70.9075 3.92147 71.1919 3.63138 71.5332 3.42661C71.8802 3.21615 72.2784 3.11092 72.7277 3.11092C72.8529 3.11092 72.9865 3.1223 73.1287 3.14505C73.2766 3.16211 73.3932 3.18771 73.4785 3.22184Z" fill="url(#paint3_linear_2246_9544)"/>
<path d="M78.6917 12.6839C77.992 12.6839 77.3635 12.5702 76.8061 12.3427C76.2486 12.1151 75.7737 11.7995 75.3812 11.3956C74.9944 10.9861 74.6958 10.5111 74.4853 9.97074C74.2806 9.42468 74.1782 8.83881 74.1782 8.21312V7.87184C74.1782 7.16083 74.2806 6.51523 74.4853 5.93505C74.6901 5.34918 74.9802 4.84578 75.3556 4.42487C75.731 4.00395 76.1804 3.67973 76.7037 3.45221C77.227 3.22468 77.8043 3.11092 78.4357 3.11092C79.0898 3.11092 79.6672 3.22184 80.1677 3.44367C80.6683 3.65982 81.0863 3.96698 81.4219 4.36514C81.7575 4.76331 82.0107 5.2411 82.1813 5.79854C82.3519 6.35028 82.4373 6.96175 82.4373 7.63294V8.58H75.202V7.02716H80.2189V6.85652C80.2075 6.49817 80.1393 6.1711 80.0141 5.87532C79.889 5.57386 79.6956 5.33496 79.434 5.15863C79.1723 4.97661 78.8339 4.8856 78.4186 4.8856C78.083 4.8856 77.7901 4.95954 77.5398 5.10743C77.2952 5.24964 77.0905 5.45441 76.9255 5.72175C76.7663 5.9834 76.6468 6.29624 76.5672 6.66028C76.4875 7.02431 76.4477 7.42817 76.4477 7.87184V8.21312C76.4477 8.59991 76.4989 8.95826 76.6013 9.28817C76.7094 9.61808 76.8658 9.90532 77.0706 10.1499C77.281 10.3888 77.5313 10.5765 77.8214 10.713C78.1172 10.8439 78.4528 10.9093 78.8282 10.9093C79.3003 10.9093 79.7269 10.8183 80.108 10.6362C80.4948 10.4485 80.8304 10.1727 81.1148 9.80863L82.2496 10.9861C82.0562 11.2705 81.7945 11.5435 81.4646 11.8051C81.1404 12.0668 80.7479 12.2801 80.2872 12.445C79.8264 12.6043 79.2946 12.6839 78.6917 12.6839Z" fill="url(#paint4_linear_2246_9544)"/>
<path d="M89.0241 9.9878C89.0241 9.79441 88.9729 9.62092 88.8705 9.46734C88.7681 9.31377 88.5747 9.17441 88.2903 9.04927C88.0116 8.91844 87.602 8.79615 87.0617 8.68239C86.5839 8.58 86.143 8.45202 85.7392 8.29844C85.3353 8.14487 84.9884 7.96 84.6983 7.74386C84.4082 7.52202 84.1807 7.26321 84.0157 6.96743C83.8564 6.66597 83.7768 6.31899 83.7768 5.92652C83.7768 5.54542 83.8593 5.18707 84.0242 4.85147C84.1892 4.51019 84.4281 4.21156 84.7409 3.9556C85.0538 3.69395 85.4349 3.48918 85.8842 3.34129C86.3336 3.18771 86.8398 3.11092 87.403 3.11092C88.1879 3.11092 88.8619 3.2389 89.4251 3.49487C89.9939 3.75083 90.429 4.10349 90.7305 4.55285C91.0319 4.99652 91.1827 5.49707 91.1827 6.0545H88.9302C88.9302 5.80991 88.8733 5.58808 88.7596 5.38899C88.6515 5.18991 88.4837 5.03065 88.2562 4.9112C88.0286 4.78606 87.7414 4.72349 87.3944 4.72349C87.0816 4.72349 86.8171 4.77468 86.6009 4.87707C86.3905 4.97945 86.2312 5.11312 86.1231 5.27808C86.0151 5.44303 85.961 5.62505 85.961 5.82413C85.961 5.97202 85.9895 6.10569 86.0463 6.22514C86.1089 6.3389 86.2085 6.44413 86.345 6.54083C86.4815 6.63753 86.6663 6.72569 86.8996 6.80532C87.1385 6.88496 87.4314 6.96175 87.7784 7.03569C88.4666 7.17221 89.0667 7.35422 89.5786 7.58175C90.0963 7.80358 90.5001 8.09936 90.7902 8.46909C91.0803 8.83881 91.2253 9.31092 91.2253 9.88542C91.2253 10.295 91.1372 10.6704 90.9608 11.0117C90.7845 11.3473 90.5286 11.6402 90.193 11.8905C89.8574 12.1407 89.4563 12.337 88.9899 12.4792C88.5235 12.6157 87.9974 12.6839 87.4115 12.6839C86.564 12.6839 85.8473 12.5332 85.2614 12.2317C84.6755 11.9246 84.2319 11.5378 83.9304 11.0714C83.6289 10.5993 83.4782 10.1101 83.4782 9.60386H85.6368C85.6539 9.96221 85.7506 10.2495 85.9269 10.4656C86.1032 10.6817 86.3251 10.8382 86.5924 10.9349C86.8654 11.0259 87.1527 11.0714 87.4541 11.0714C87.7954 11.0714 88.0827 11.0259 88.3159 10.9349C88.5491 10.8382 88.7254 10.7102 88.8449 10.5509C88.9643 10.386 89.0241 10.1983 89.0241 9.9878Z" fill="url(#paint5_linear_2246_9544)"/>
<path d="M98.0169 9.9878C98.0169 9.79441 97.9657 9.62092 97.8633 9.46734C97.7609 9.31377 97.5675 9.17441 97.2831 9.04927C97.0044 8.91844 96.5949 8.79615 96.0545 8.68239C95.5767 8.58 95.1359 8.45202 94.732 8.29844C94.3282 8.14487 93.9812 7.96 93.6911 7.74386C93.401 7.52202 93.1735 7.26321 93.0086 6.96743C92.8493 6.66597 92.7697 6.31899 92.7697 5.92652C92.7697 5.54542 92.8521 5.18707 93.0171 4.85147C93.182 4.51019 93.4209 4.21156 93.7338 3.9556C94.0466 3.69395 94.4277 3.48918 94.8771 3.34129C95.3264 3.18771 95.8327 3.11092 96.3958 3.11092C97.1808 3.11092 97.8548 3.2389 98.4179 3.49487C98.9867 3.75083 99.4219 4.10349 99.7233 4.55285C100.025 4.99652 100.176 5.49707 100.176 6.0545H97.923C97.923 5.80991 97.8662 5.58808 97.7524 5.38899C97.6443 5.18991 97.4765 5.03065 97.249 4.9112C97.0215 4.78606 96.7342 4.72349 96.3873 4.72349C96.0744 4.72349 95.8099 4.77468 95.5938 4.87707C95.3833 4.97945 95.2241 5.11312 95.116 5.27808C95.0079 5.44303 94.9539 5.62505 94.9539 5.82413C94.9539 5.97202 94.9823 6.10569 95.0392 6.22514C95.1018 6.3389 95.2013 6.44413 95.3378 6.54083C95.4743 6.63753 95.6592 6.72569 95.8924 6.80532C96.1313 6.88496 96.4242 6.96175 96.7712 7.03569C97.4595 7.17221 98.0596 7.35422 98.5715 7.58175C99.0891 7.80358 99.493 8.09936 99.783 8.46909C100.073 8.83881 100.218 9.31092 100.218 9.88542C100.218 10.295 100.13 10.6704 99.9537 11.0117C99.7774 11.3473 99.5214 11.6402 99.1858 11.8905C98.8502 12.1407 98.4492 12.337 97.9828 12.4792C97.5163 12.6157 96.9902 12.6839 96.4043 12.6839C95.5568 12.6839 94.8401 12.5332 94.2542 12.2317C93.6684 11.9246 93.2247 11.5378 92.9232 11.0714C92.6218 10.5993 92.471 10.1101 92.471 9.60386H94.6297C94.6467 9.96221 94.7434 10.2495 94.9197 10.4656C95.0961 10.6817 95.3179 10.8382 95.5853 10.9349C95.8583 11.0259 96.1455 11.0714 96.447 11.0714C96.7883 11.0714 97.0755 11.0259 97.3087 10.9349C97.5419 10.8382 97.7183 10.7102 97.8377 10.5509C97.9572 10.386 98.0169 10.1983 98.0169 9.9878Z" fill="url(#paint6_linear_2246_9544)"/>
<path d="M113.725 8.51505H116.071C116.008 9.34551 115.778 10.0821 115.38 10.7249C114.982 11.3619 114.427 11.8625 113.716 12.2265C113.005 12.5906 112.143 12.7726 111.131 12.7726C110.351 12.7726 109.649 12.6361 109.023 12.363C108.403 12.0843 107.871 11.689 107.428 11.1771C106.99 10.6595 106.654 10.0395 106.421 9.31707C106.188 8.589 106.071 7.77276 106.071 6.86835V5.92129C106.071 5.01688 106.191 4.20065 106.43 3.47257C106.668 2.7445 107.01 2.1245 107.453 1.61257C107.903 1.09496 108.44 0.696793 109.066 0.418077C109.697 0.139362 110.403 3.8147e-06 111.182 3.8147e-06C112.194 3.8147e-06 113.05 0.18771 113.75 0.563123C114.45 0.932848 114.993 1.44193 115.38 2.09037C115.767 2.73881 116 3.48395 116.079 4.32578H113.733C113.688 3.80248 113.574 3.35881 113.392 2.99477C113.215 2.63074 112.948 2.35487 112.59 2.16716C112.237 1.97377 111.768 1.87707 111.182 1.87707C110.727 1.87707 110.326 1.96239 109.979 2.13303C109.638 2.30367 109.353 2.55964 109.126 2.90092C108.898 3.23652 108.728 3.65743 108.614 4.16367C108.5 4.66422 108.443 5.24441 108.443 5.90422V6.86835C108.443 7.49973 108.494 8.06569 108.597 8.56624C108.699 9.06679 108.858 9.49055 109.075 9.83753C109.291 10.1845 109.569 10.449 109.911 10.631C110.252 10.813 110.659 10.904 111.131 10.904C111.705 10.904 112.172 10.813 112.53 10.631C112.894 10.449 113.17 10.1817 113.358 9.829C113.551 9.47634 113.673 9.03835 113.725 8.51505Z" fill="url(#paint7_linear_2246_9544)"/>
<path d="M117.317 8.01211V7.83294C117.317 7.15606 117.413 6.53321 117.607 5.96441C117.8 5.38991 118.082 4.8922 118.451 4.47129C118.821 4.05037 119.273 3.72331 119.808 3.49009C120.343 3.2512 120.951 3.13175 121.634 3.13175C122.328 3.13175 122.942 3.2512 123.477 3.49009C124.017 3.72331 124.472 4.05037 124.842 4.47129C125.212 4.8922 125.493 5.38991 125.687 5.96441C125.88 6.53321 125.977 7.15606 125.977 7.83294V8.01211C125.977 8.68331 125.88 9.30615 125.687 9.88065C125.493 10.4495 125.212 10.9472 124.842 11.3738C124.472 11.7947 124.02 12.1217 123.485 12.355C122.951 12.5882 122.339 12.7048 121.651 12.7048C120.968 12.7048 120.357 12.5882 119.816 12.355C119.276 12.1217 118.821 11.7947 118.451 11.3738C118.082 10.9472 117.8 10.4495 117.607 9.88065C117.413 9.30615 117.317 8.68331 117.317 8.01211ZM119.569 7.83294V8.01211C119.569 8.41597 119.609 8.79422 119.688 9.14688C119.768 9.49954 119.89 9.80954 120.055 10.0769C120.22 10.3442 120.434 10.5547 120.695 10.7083C120.963 10.8561 121.281 10.9301 121.651 10.9301C122.015 10.9301 122.328 10.8561 122.589 10.7083C122.851 10.5547 123.064 10.3442 123.229 10.0769C123.4 9.80954 123.525 9.49954 123.605 9.14688C123.684 8.79422 123.724 8.41597 123.724 8.01211V7.83294C123.724 7.43477 123.684 7.0622 123.605 6.71523C123.525 6.36257 123.4 6.05257 123.229 5.78523C123.064 5.51221 122.848 5.2989 122.581 5.14532C122.319 4.98606 122.004 4.90642 121.634 4.90642C121.27 4.90642 120.957 4.98606 120.695 5.14532C120.434 5.2989 120.22 5.51221 120.055 5.78523C119.89 6.05257 119.768 6.36257 119.688 6.71523C119.609 7.0622 119.569 7.43477 119.569 7.83294Z" fill="url(#paint8_linear_2246_9544)"/>
<path d="M129.825 5.23918V12.5H127.572V3.26826H129.688L129.825 5.23918ZM129.466 7.55138H128.801C128.806 6.88019 128.897 6.27156 129.074 5.72551C129.25 5.17945 129.498 4.71019 129.816 4.31771C130.14 3.92523 130.524 3.62376 130.968 3.41331C131.412 3.20285 131.906 3.09762 132.453 3.09762C132.896 3.09762 133.297 3.16019 133.656 3.28532C134.014 3.41046 134.321 3.60954 134.577 3.88257C134.839 4.1556 135.038 4.51395 135.174 4.95762C135.316 5.3956 135.388 5.93597 135.388 6.57872V12.5H133.118V6.56165C133.118 6.14074 133.055 5.80798 132.93 5.5634C132.811 5.31881 132.635 5.14532 132.401 5.04294C132.174 4.94055 131.892 4.88936 131.557 4.88936C131.21 4.88936 130.905 4.96046 130.644 5.10266C130.388 5.23918 130.172 5.42973 129.995 5.67431C129.825 5.9189 129.694 6.20046 129.603 6.51899C129.512 6.83753 129.466 7.18165 129.466 7.55138Z" fill="url(#paint9_linear_2246_9544)"/>
<path d="M141.744 3.26955V4.89065H136.454V3.26955H141.744ZM137.87 1H140.131V9.83927C140.131 10.1123 140.168 10.3228 140.242 10.4706C140.316 10.6185 140.427 10.7181 140.575 10.7693C140.723 10.8205 140.899 10.8461 141.104 10.8461C141.252 10.8461 141.388 10.8375 141.514 10.8205C141.639 10.8034 141.744 10.7863 141.829 10.7693L141.838 12.4586C141.65 12.5212 141.437 12.5724 141.198 12.6122C140.965 12.652 140.7 12.6719 140.404 12.6719C139.898 12.6719 139.455 12.5866 139.073 12.416C138.692 12.2396 138.397 11.9581 138.186 11.5713C137.976 11.1788 137.87 10.6612 137.87 10.0184V1Z" fill="url(#paint10_linear_2246_9544)"/>
<path d="M145.498 5.15386V12.5H143.246V3.26826H145.379L145.498 5.15386ZM148.305 3.20854L148.271 5.30743C148.146 5.28468 148.004 5.26762 147.844 5.25624C147.691 5.24487 147.546 5.23918 147.409 5.23918C147.062 5.23918 146.758 5.28753 146.496 5.38422C146.235 5.47523 146.016 5.6089 145.839 5.78523C145.669 5.96156 145.538 6.17771 145.447 6.43367C145.356 6.68395 145.305 6.96835 145.293 7.28688L144.807 7.22716C144.807 6.64129 144.867 6.09808 144.986 5.59753C145.106 5.09698 145.279 4.65899 145.507 4.28358C145.734 3.90817 146.019 3.61808 146.36 3.41331C146.707 3.20285 147.105 3.09762 147.554 3.09762C147.679 3.09762 147.813 3.10899 147.955 3.13175C148.103 3.14881 148.22 3.17441 148.305 3.20854Z" fill="url(#paint11_linear_2246_9544)"/>
<path d="M148.902 7.97927V7.8001C148.902 7.12321 148.999 6.50037 149.193 5.93156C149.386 5.35707 149.667 4.85936 150.037 4.43844C150.407 4.01753 150.859 3.69046 151.394 3.45725C151.928 3.21835 152.537 3.0989 153.22 3.0989C153.914 3.0989 154.528 3.21835 155.063 3.45725C155.603 3.69046 156.058 4.01753 156.428 4.43844C156.797 4.85936 157.079 5.35707 157.272 5.93156C157.466 6.50037 157.563 7.12321 157.563 7.8001V7.97927C157.563 8.65046 157.466 9.27331 157.272 9.8478C157.079 10.4166 156.797 10.9143 156.428 11.3409C156.058 11.7618 155.606 12.0889 155.071 12.3221C154.536 12.5553 153.925 12.6719 153.237 12.6719C152.554 12.6719 151.943 12.5553 151.402 12.3221C150.862 12.0889 150.407 11.7618 150.037 11.3409C149.667 10.9143 149.386 10.4166 149.193 9.8478C148.999 9.27331 148.902 8.65046 148.902 7.97927ZM151.155 7.8001V7.97927C151.155 8.38312 151.195 8.76138 151.274 9.11404C151.354 9.4667 151.476 9.7767 151.641 10.044C151.806 10.3114 152.019 10.5218 152.281 10.6754C152.548 10.8233 152.867 10.8973 153.237 10.8973C153.601 10.8973 153.914 10.8233 154.175 10.6754C154.437 10.5218 154.65 10.3114 154.815 10.044C154.986 9.7767 155.111 9.4667 155.191 9.11404C155.27 8.76138 155.31 8.38312 155.31 7.97927V7.8001C155.31 7.40193 155.27 7.02936 155.191 6.68239C155.111 6.32973 154.986 6.01973 154.815 5.75239C154.65 5.47936 154.434 5.26606 154.167 5.11248C153.905 4.95321 153.589 4.87358 153.22 4.87358C152.856 4.87358 152.543 4.95321 152.281 5.11248C152.019 5.26606 151.806 5.47936 151.641 5.75239C151.476 6.01973 151.354 6.32973 151.274 6.68239C151.195 7.02936 151.155 7.40193 151.155 7.8001Z" fill="url(#paint12_linear_2246_9544)"/>
<path d="M161.59 -0.499985V12.6053H159.329V-0.499985H161.59Z" fill="url(#paint13_linear_2246_9544)"/>
<path d="M166.129 -0.499985V12.6053H163.868V-0.499985H166.129Z" fill="url(#paint14_linear_2246_9544)"/>
<path d="M172.425 12.7048C171.726 12.7048 171.097 12.591 170.54 12.3635C169.982 12.136 169.507 11.8203 169.115 11.4164C168.728 11.0069 168.43 10.5319 168.219 9.99156C168.014 9.44551 167.912 8.85964 167.912 8.23395V7.89266C167.912 7.18165 168.014 6.53606 168.219 5.95587C168.424 5.37 168.714 4.86661 169.089 4.44569C169.465 4.02477 169.914 3.70055 170.437 3.47303C170.961 3.24551 171.538 3.13175 172.169 3.13175C172.824 3.13175 173.401 3.24266 173.902 3.4645C174.402 3.68065 174.82 3.9878 175.156 4.38597C175.491 4.78413 175.744 5.26193 175.915 5.81936C176.086 6.3711 176.171 6.98257 176.171 7.65376V8.60083H168.936V7.04799H173.953V6.87734C173.941 6.51899 173.873 6.19193 173.748 5.89615C173.623 5.59468 173.429 5.35578 173.168 5.17945C172.906 4.99743 172.568 4.90642 172.152 4.90642C171.817 4.90642 171.524 4.98037 171.274 5.12826C171.029 5.27046 170.824 5.47523 170.659 5.74257C170.5 6.00422 170.381 6.31707 170.301 6.6811C170.221 7.04514 170.182 7.44899 170.182 7.89266V8.23395C170.182 8.62074 170.233 8.97909 170.335 9.30899C170.443 9.6389 170.6 9.92615 170.804 10.1707C171.015 10.4096 171.265 10.5973 171.555 10.7339C171.851 10.8647 172.187 10.9301 172.562 10.9301C173.034 10.9301 173.461 10.8391 173.842 10.6571C174.229 10.4694 174.564 10.1935 174.849 9.82945L175.983 11.0069C175.79 11.2913 175.528 11.5643 175.198 11.826C174.874 12.0876 174.482 12.3009 174.021 12.4659C173.56 12.6251 173.028 12.7048 172.425 12.7048Z" fill="url(#paint15_linear_2246_9544)"/>
<path d="M179.934 5.15387V12.5H177.681V3.26827H179.814L179.934 5.15387ZM182.741 3.20855L182.707 5.30745C182.581 5.28469 182.439 5.26763 182.28 5.25625C182.126 5.24488 181.981 5.23919 181.845 5.23919C181.498 5.23919 181.194 5.28754 180.932 5.38423C180.67 5.47524 180.451 5.60891 180.275 5.78524C180.104 5.96157 179.974 6.17772 179.883 6.43368C179.792 6.68396 179.74 6.96836 179.729 7.28689L179.243 7.22717C179.243 6.6413 179.302 6.09809 179.422 5.59754C179.541 5.09699 179.715 4.65901 179.942 4.28359C180.17 3.90818 180.454 3.61809 180.795 3.41332C181.142 3.20286 181.541 3.09763 181.99 3.09763C182.115 3.09763 182.249 3.10901 182.391 3.13176C182.539 3.14882 182.655 3.17442 182.741 3.20855Z" fill="url(#paint16_linear_2246_9544)"/>
</g>
<defs>
<linearGradient id="paint0_linear_2246_9544" x1="145.818" y1="4.95566" x2="142.7" y2="28.8694" gradientUnits="userSpaceOnUse">
<stop stop-color="#11A06B"/>
<stop offset="1" stop-color="#286FEB"/>
</linearGradient>
<linearGradient id="paint1_linear_2246_9544" x1="145.818" y1="4.95566" x2="142.7" y2="28.8694" gradientUnits="userSpaceOnUse">
<stop stop-color="#11A06B"/>
<stop offset="1" stop-color="#286FEB"/>
</linearGradient>
<linearGradient id="paint2_linear_2246_9544" x1="145.818" y1="4.95566" x2="142.7" y2="28.8694" gradientUnits="userSpaceOnUse">
<stop stop-color="#11A06B"/>
<stop offset="1" stop-color="#286FEB"/>
</linearGradient>
<linearGradient id="paint3_linear_2246_9544" x1="145.818" y1="4.95566" x2="142.7" y2="28.8694" gradientUnits="userSpaceOnUse">
<stop stop-color="#11A06B"/>
<stop offset="1" stop-color="#286FEB"/>
</linearGradient>
<linearGradient id="paint4_linear_2246_9544" x1="145.818" y1="4.95566" x2="142.7" y2="28.8694" gradientUnits="userSpaceOnUse">
<stop stop-color="#11A06B"/>
<stop offset="1" stop-color="#286FEB"/>
</linearGradient>
<linearGradient id="paint5_linear_2246_9544" x1="145.818" y1="4.95566" x2="142.7" y2="28.8694" gradientUnits="userSpaceOnUse">
<stop stop-color="#11A06B"/>
<stop offset="1" stop-color="#286FEB"/>
</linearGradient>
<linearGradient id="paint6_linear_2246_9544" x1="145.818" y1="4.95566" x2="142.7" y2="28.8694" gradientUnits="userSpaceOnUse">
<stop stop-color="#11A06B"/>
<stop offset="1" stop-color="#286FEB"/>
</linearGradient>
<linearGradient id="paint7_linear_2246_9544" x1="145.818" y1="4.95566" x2="142.7" y2="28.8694" gradientUnits="userSpaceOnUse">
<stop stop-color="#11A06B"/>
<stop offset="1" stop-color="#286FEB"/>
</linearGradient>
<linearGradient id="paint8_linear_2246_9544" x1="145.818" y1="4.95566" x2="142.7" y2="28.8694" gradientUnits="userSpaceOnUse">
<stop stop-color="#11A06B"/>
<stop offset="1" stop-color="#286FEB"/>
</linearGradient>
<linearGradient id="paint9_linear_2246_9544" x1="145.818" y1="4.95566" x2="142.7" y2="28.8694" gradientUnits="userSpaceOnUse">
<stop stop-color="#11A06B"/>
<stop offset="1" stop-color="#286FEB"/>
</linearGradient>
<linearGradient id="paint10_linear_2246_9544" x1="145.818" y1="4.95566" x2="142.7" y2="28.8694" gradientUnits="userSpaceOnUse">
<stop stop-color="#11A06B"/>
<stop offset="1" stop-color="#286FEB"/>
</linearGradient>
<linearGradient id="paint11_linear_2246_9544" x1="145.818" y1="4.95566" x2="142.7" y2="28.8694" gradientUnits="userSpaceOnUse">
<stop stop-color="#11A06B"/>
<stop offset="1" stop-color="#286FEB"/>
</linearGradient>
<linearGradient id="paint12_linear_2246_9544" x1="145.818" y1="4.95566" x2="142.7" y2="28.8694" gradientUnits="userSpaceOnUse">
<stop stop-color="#11A06B"/>
<stop offset="1" stop-color="#286FEB"/>
</linearGradient>
<linearGradient id="paint13_linear_2246_9544" x1="145.818" y1="4.95566" x2="142.7" y2="28.8694" gradientUnits="userSpaceOnUse">
<stop stop-color="#11A06B"/>
<stop offset="1" stop-color="#286FEB"/>
</linearGradient>
<linearGradient id="paint14_linear_2246_9544" x1="145.818" y1="4.95566" x2="142.7" y2="28.8694" gradientUnits="userSpaceOnUse">
<stop stop-color="#11A06B"/>
<stop offset="1" stop-color="#286FEB"/>
</linearGradient>
<linearGradient id="paint15_linear_2246_9544" x1="145.818" y1="4.95566" x2="142.7" y2="28.8694" gradientUnits="userSpaceOnUse">
<stop stop-color="#11A06B"/>
<stop offset="1" stop-color="#286FEB"/>
</linearGradient>
<linearGradient id="paint16_linear_2246_9544" x1="145.818" y1="4.95566" x2="142.7" y2="28.8694" gradientUnits="userSpaceOnUse">
<stop stop-color="#11A06B"/>
<stop offset="1" stop-color="#286FEB"/>
</linearGradient>
<clipPath id="clip0_2246_9544">
<rect width="184" height="16" fill="white"/>
</clipPath>
</defs>
</svg>
