<svg width="126" height="40" viewBox="0 0 126 40" fill="none" xmlns="http://www.w3.org/2000/svg">
<path d="M14.699 32.947L13.5995 34.3372L16.0871 38.2094L15.8277 40H26.3808L27.1113 38.2094L22.8668 32.947H14.699Z" fill="url(#paint0_linear_2289_9519)"/>
<path d="M20.4705 9.38222L16.6533 16.0386L35.2718 37.9874L34.7421 40H43.2825L44.8276 32.8596L24.905 9.37858L20.4705 9.38222Z" fill="url(#paint1_linear_2289_9519)"/>
<path d="M23.0056 4.37813L21.1901 7.70813H25.694L33.4235 16.872L38.0187 13.1125V10.7251L36.4224 8.49058L37.6023 7.26776L28.3825 0L23.0056 4.37813Z" fill="url(#paint2_linear_2289_9519)"/>
<path d="M9.1467 22.9278H6.6299L0 31.3129V40H7.11207L8.36865 38.3732L13.8552 31.2947H21.7928L24.2366 27.5644L15.6305 17.3888L9.1467 22.9278Z" fill="url(#paint3_linear_2289_9519)"/>
<path fill-rule="evenodd" clip-rule="evenodd" d="M77.1215 27.387H83.3136V17.9263H77.1215V27.387ZM77.3384 31.1712C75.6148 31.1712 74.7195 30.8919 73.982 30.1248C72.8737 29.0155 72.4438 27.4735 72.4438 22.694C72.4438 17.9145 72.8737 16.3725 73.982 15.2317C74.6919 14.4921 75.6148 14.2128 77.3384 14.2128H83.0966C84.8202 14.2128 85.7155 14.4921 86.453 15.2317C87.5613 16.3725 87.9912 17.883 87.9912 22.694C87.9912 27.505 87.5613 29.0155 86.453 30.1248C85.7155 30.8959 84.8202 31.1712 83.0966 31.1712H77.3384Z" fill="#F7F9FC"/>
<path fill-rule="evenodd" clip-rule="evenodd" d="M101.997 19.5589C101.997 19.6179 101.997 19.6769 101.997 19.7398V31.1674H106.706V19.1852C106.706 16.699 106.43 15.8061 105.72 15.1295C105.073 14.4843 104.146 14.1932 102.699 14.1932L98.5574 14.205L96.1831 16.3411V14.205H94.5937H91.4897V31.1634H96.1989V17.9185H101.989V19.551L101.997 19.5589Z" fill="#F7F9FC"/>
<path fill-rule="evenodd" clip-rule="evenodd" d="M65.0766 9.53949H70.685L62.6313 19.7043L71.0242 31.1672H65.0766L58.6913 22.1629L57.1768 22.155V31.1672H52.1284V9.53949H57.1768V17.9223H58.6913L65.0766 9.53949Z" fill="#F7F9FC"/>
<path fill-rule="evenodd" clip-rule="evenodd" d="M121.16 14.2091V16.3452L118.786 14.2091L115.252 14.1973C113.56 14.1973 112.566 14.4884 111.797 15.224C110.78 16.2665 110.287 18.5481 110.287 22.7257C110.287 26.9033 110.689 29.0905 111.671 30.1054C112.44 30.841 113.355 31.1675 115.173 31.1675H121.148L121.156 33.5946L112.862 33.6104L112.87 34.6056L115.012 36.9737H121.496C123.219 36.9737 124.205 36.6669 124.82 36.0218C125.589 35.2232 125.897 34.7276 125.897 31.8127V14.2131H121.156L121.16 14.2091ZM121.192 27.3675H115V17.9226H121.188V27.3675H121.192Z" fill="#F7F9FC"/>
<defs>
<linearGradient id="paint0_linear_2289_9519" x1="32.8977" y1="13.2258" x2="3.42555" y2="43.3513" gradientUnits="userSpaceOnUse">
<stop stop-color="#11A06B"/>
<stop offset="1" stop-color="#286FEB"/>
</linearGradient>
<linearGradient id="paint1_linear_2289_9519" x1="32.8977" y1="13.2258" x2="3.42555" y2="43.3513" gradientUnits="userSpaceOnUse">
<stop stop-color="#11A06B"/>
<stop offset="1" stop-color="#286FEB"/>
</linearGradient>
<linearGradient id="paint2_linear_2289_9519" x1="32.8977" y1="13.2258" x2="3.42555" y2="43.3513" gradientUnits="userSpaceOnUse">
<stop stop-color="#11A06B"/>
<stop offset="1" stop-color="#286FEB"/>
</linearGradient>
<linearGradient id="paint3_linear_2289_9519" x1="32.8977" y1="13.2258" x2="3.42555" y2="43.3513" gradientUnits="userSpaceOnUse">
<stop stop-color="#11A06B"/>
<stop offset="1" stop-color="#286FEB"/>
</linearGradient>
</defs>
</svg>
