<svg width="190" height="16" viewBox="0 0 190 16" fill="none" xmlns="http://www.w3.org/2000/svg">
<g clip-path="url(#clip0_3465_21306)">
<path fill-rule="evenodd" clip-rule="evenodd" d="M32.7364 10.4215H35.9584V5.42531H32.7364V10.4215ZM35.9401 3.46267H38.4144V12.7414C38.4144 14.2759 38.2542 14.5436 37.8448 14.954C37.5244 15.293 37.0081 15.4536 36.1181 15.4536H32.5044L31.383 14.2046V13.6871H35.9401V12.4202H32.8249C31.8814 12.4202 31.4008 12.2417 31.0091 11.8492C30.4929 11.3139 30.2793 10.154 30.2793 7.95927C30.2793 5.7645 30.5285 4.55113 31.0625 3.99798C31.472 3.60542 31.9704 3.44482 32.8605 3.44482L34.7118 3.46267L35.9401 4.58682V3.46267ZM6.74664 1H9.66603L5.46496 6.3531L9.84404 12.4021H6.74664L3.41782 7.65569H2.63457V12.4021H0V1H2.63457V5.42523H3.41782L6.74664 1ZM25.972 6.28192V5.46111H25.0819C25.0641 5.46111 25.0641 5.46111 25.0463 5.46111H24.3521C24.3343 5.46111 24.3343 5.46111 24.3165 5.46111H22.9458V6.28192V12.3666H20.4892V3.46262H22.1091H22.9458V3.62321V4.58677L24.174 3.46262H24.8861C24.9929 3.44478 25.1175 3.44478 25.2421 3.44478H26.3102C27.0578 3.44478 27.5385 3.60537 27.8767 3.9444C28.2505 4.30127 28.3929 4.76521 28.3929 6.08564V12.3666H25.9364V6.38898C25.972 6.35329 25.972 6.31761 25.972 6.28192ZM13.0301 10.4035H16.2521V5.40731H13.0301V10.4035ZM13.1374 12.3667C12.2473 12.3667 11.7667 12.2239 11.3928 11.8135C10.8232 11.2247 10.5918 10.4217 10.5918 7.90574C10.5918 5.37194 10.8232 4.58682 11.3928 3.98013C11.7667 3.58757 12.2473 3.44482 13.1374 3.44482H16.128C17.018 3.44482 17.4986 3.58757 17.8725 3.98013C18.4421 4.58682 18.6735 5.37194 18.6735 7.90574C18.6735 10.4395 18.4421 11.2247 17.8725 11.8135C17.4808 12.2239 17.018 12.3667 16.128 12.3667H13.1374Z" fill="#121418"/>
<path d="M171.29 12.394V3.4657H169.104V12.394H171.29Z" fill="url(#paint0_linear_3465_21306)"/>
<path d="M169.285 0.321815C169.065 0.536358 168.955 0.805913 168.955 1.13048C168.955 1.44954 169.065 1.71635 169.285 1.93089C169.511 2.14544 169.813 2.25271 170.193 2.25271C170.572 2.25271 170.872 2.14544 171.092 1.93089C171.318 1.71635 171.431 1.44954 171.431 1.13048C171.431 0.805913 171.318 0.536358 171.092 0.321815C170.872 0.107271 170.572 0 170.193 0C169.813 0 169.511 0.107271 169.285 0.321815Z" fill="url(#paint1_linear_3465_21306)"/>
<path fill-rule="evenodd" clip-rule="evenodd" d="M186.077 12.559C185.4 12.559 184.793 12.449 184.253 12.229C183.714 12.0089 183.255 11.7036 182.875 11.313C182.501 10.917 182.213 10.4576 182.009 9.93501C181.811 9.4069 181.712 8.84028 181.712 8.23516V7.90509C181.712 7.21745 181.811 6.59308 182.009 6.03196C182.207 5.46535 182.488 4.9785 182.851 4.57142C183.214 4.16433 183.648 3.85077 184.154 3.63073C184.661 3.41068 185.219 3.30066 185.829 3.30066C186.462 3.30066 187.02 3.40793 187.505 3.62247C187.989 3.83152 188.393 4.12858 188.718 4.51366C189.042 4.89873 189.287 5.36083 189.452 5.89994C189.617 6.43355 189.7 7.02492 189.7 7.67405V8.58998H183.922C183.944 8.83085 183.988 9.05915 184.055 9.27487C184.16 9.59394 184.311 9.87174 184.509 10.1083C184.713 10.3393 184.955 10.5209 185.235 10.6529C185.521 10.7794 185.846 10.8427 186.209 10.8427C186.666 10.8427 187.078 10.7547 187.447 10.5786C187.821 10.3971 188.145 10.1303 188.421 9.77822L189.518 10.917C189.331 11.192 189.078 11.4561 188.759 11.7091C188.445 11.9622 188.066 12.1685 187.62 12.328C187.175 12.482 186.66 12.559 186.077 12.559ZM184.022 6.73336C183.997 6.84758 183.976 6.96585 183.96 7.08818H187.554V6.92314C187.543 6.57657 187.477 6.26026 187.356 5.9742C187.235 5.68264 187.048 5.4516 186.795 5.28106C186.542 5.10503 186.215 5.01701 185.813 5.01701C185.488 5.01701 185.205 5.08852 184.963 5.23155C184.727 5.36908 184.528 5.56712 184.369 5.82567C184.215 6.07872 184.099 6.38128 184.022 6.73336Z" fill="url(#paint2_linear_3465_21306)"/>
<path d="M178.279 9.95152C178.279 9.76448 178.23 9.5967 178.131 9.44817C178.032 9.29964 177.845 9.16486 177.57 9.04384C177.3 8.91731 176.904 8.79904 176.382 8.68901C175.919 8.58999 175.493 8.46622 175.103 8.31769C174.712 8.16916 174.376 7.99037 174.096 7.78133C173.815 7.56679 173.595 7.31649 173.436 7.03043C173.282 6.73887 173.205 6.4033 173.205 6.02372C173.205 5.65515 173.284 5.30858 173.444 4.98401C173.604 4.65394 173.835 4.36514 174.137 4.11759C174.44 3.86453 174.808 3.66649 175.243 3.52347C175.677 3.37493 176.167 3.30067 176.712 3.30067C177.471 3.30067 178.123 3.42444 178.667 3.672C179.217 3.91955 179.638 4.26061 179.93 4.6952C180.221 5.12429 180.367 5.60839 180.367 6.1475H178.189C178.189 5.91095 178.134 5.69641 178.024 5.50387C177.919 5.31133 177.757 5.1573 177.537 5.04177C177.317 4.92075 177.039 4.86024 176.703 4.86024C176.401 4.86024 176.145 4.90975 175.936 5.00877C175.732 5.10779 175.578 5.23706 175.474 5.3966C175.369 5.55613 175.317 5.73216 175.317 5.9247C175.317 6.06773 175.345 6.19701 175.4 6.31253C175.46 6.42255 175.556 6.52432 175.688 6.61784C175.82 6.71136 175.999 6.79663 176.225 6.87365C176.456 6.95066 176.739 7.02493 177.075 7.09644C177.74 7.22847 178.321 7.4045 178.816 7.62455C179.316 7.83909 179.707 8.12515 179.988 8.48272C180.268 8.84029 180.408 9.29689 180.408 9.8525C180.408 10.2486 180.323 10.6117 180.153 10.9417C179.982 11.2663 179.734 11.5496 179.41 11.7916C179.085 12.0337 178.698 12.2235 178.246 12.361C177.795 12.493 177.287 12.5591 176.72 12.5591C175.9 12.5591 175.207 12.4133 174.64 12.1217C174.074 11.8247 173.645 11.4506 173.353 10.9995C173.062 10.5429 172.916 10.0698 172.916 9.5802H175.004C175.02 9.92677 175.114 10.2046 175.284 10.4136C175.455 10.6227 175.669 10.7739 175.928 10.8675C176.192 10.9555 176.47 10.9995 176.761 10.9995C177.091 10.9995 177.369 10.9555 177.595 10.8675C177.82 10.7739 177.991 10.6502 178.106 10.4961C178.222 10.3366 178.279 10.1551 178.279 9.95152Z" fill="url(#paint3_linear_3465_21306)"/>
<path d="M165.069 12.394V6.4012C165.152 6.20786 165.262 6.04077 165.399 5.89995C165.569 5.72941 165.781 5.60014 166.034 5.51212C166.287 5.4186 166.581 5.37184 166.917 5.37184C167.049 5.37184 167.189 5.37734 167.338 5.38834C167.492 5.39935 167.629 5.41585 167.75 5.43785L167.783 3.40794C167.701 3.37493 167.588 3.35018 167.445 3.33368C167.307 3.31167 167.178 3.30067 167.057 3.30067C166.623 3.30067 166.238 3.40244 165.902 3.60598C165.572 3.80402 165.297 4.08458 165.077 4.44765C165.058 4.47885 165.039 4.51048 165.021 4.54257L164.953 3.4657H162.89V12.394H165.069Z" fill="url(#paint4_linear_3465_21306)"/>
<path fill-rule="evenodd" clip-rule="evenodd" d="M155.485 4.37821C155.741 4.05905 156.042 3.80715 156.388 3.62249C156.795 3.40794 157.271 3.30067 157.815 3.30067C158.382 3.30067 158.88 3.40794 159.309 3.62249C159.743 3.83703 160.109 4.14509 160.406 4.54667C160.703 4.94825 160.926 5.42685 161.075 5.98246C161.223 6.53808 161.298 7.15695 161.298 7.83909V8.01238C161.298 8.66151 161.221 9.26388 161.066 9.81949C160.918 10.3696 160.698 10.851 160.406 11.2635C160.115 11.6706 159.752 11.9897 159.317 12.2207C158.888 12.4463 158.393 12.5591 157.832 12.5591C157.282 12.5591 156.803 12.4545 156.396 12.2455C156.08 12.079 155.802 11.8595 155.563 11.587V15.8267H153.376V3.4657H155.398L155.485 4.37821ZM155.563 9.83237C155.705 10.1317 155.905 10.3722 156.165 10.5539C156.446 10.7464 156.809 10.8427 157.254 10.8427C157.59 10.8427 157.876 10.7684 158.112 10.6199C158.349 10.4714 158.541 10.2678 158.69 10.0093C158.839 9.74523 158.946 9.44267 159.012 9.1016C159.078 8.76053 159.111 8.39746 159.111 8.01238V7.83909C159.111 7.44301 159.075 7.07719 159.004 6.74162C158.932 6.40055 158.822 6.10349 158.673 5.85044C158.525 5.59189 158.332 5.39109 158.096 5.24806C157.859 5.10504 157.573 5.03352 157.238 5.03352C156.902 5.03352 156.613 5.08853 156.371 5.19856C156.129 5.30858 155.931 5.46536 155.777 5.6689C155.697 5.77533 155.625 5.89228 155.563 6.01976V9.83237Z" fill="url(#paint5_linear_3465_21306)"/>
<path d="M149.473 12.394V6.4012C149.557 6.20786 149.667 6.04077 149.803 5.89995C149.973 5.72941 150.185 5.60014 150.438 5.51212C150.691 5.4186 150.986 5.37184 151.321 5.37184C151.453 5.37184 151.594 5.37734 151.742 5.38834C151.896 5.39935 152.034 5.41585 152.155 5.43785L152.188 3.40794C152.105 3.37493 151.992 3.35018 151.849 3.33368C151.712 3.31167 151.583 3.30067 151.462 3.30067C151.027 3.30067 150.642 3.40244 150.306 3.60598C149.976 3.80402 149.701 4.08458 149.481 4.44765C149.462 4.47885 149.444 4.51048 149.426 4.54257L149.357 3.4657H147.294V12.394H149.473Z" fill="url(#paint6_linear_3465_21306)"/>
<path fill-rule="evenodd" clip-rule="evenodd" d="M140.388 12.229C140.927 12.449 141.535 12.5591 142.211 12.5591C142.795 12.5591 143.309 12.482 143.754 12.328C144.2 12.1685 144.58 11.9622 144.893 11.7091C145.212 11.4561 145.465 11.192 145.652 10.917L144.555 9.77823C144.28 10.1303 143.955 10.3971 143.581 10.5786C143.213 10.7547 142.8 10.8427 142.343 10.8427C141.98 10.8427 141.656 10.7794 141.37 10.6529C141.089 10.5209 140.847 10.3393 140.644 10.1083C140.446 9.87175 140.294 9.59395 140.19 9.27488C140.123 9.05916 140.078 8.83086 140.057 8.58999H145.834V7.67406C145.834 7.02493 145.751 6.43356 145.586 5.89995C145.421 5.36084 145.177 4.89874 144.852 4.51367C144.527 4.12859 144.123 3.83153 143.639 3.62249C143.155 3.40794 142.596 3.30067 141.964 3.30067C141.353 3.30067 140.795 3.41069 140.289 3.63074C139.783 3.85078 139.348 4.16435 138.985 4.57143C138.622 4.97851 138.341 5.46536 138.143 6.03197C137.945 6.59309 137.846 7.21746 137.846 7.9051V8.23517C137.846 8.84029 137.945 9.40691 138.143 9.93502C138.347 10.4576 138.636 10.917 139.01 11.313C139.389 11.7036 139.849 12.0089 140.388 12.229ZM143.688 7.08819H140.094C140.111 6.96586 140.132 6.84759 140.157 6.73337C140.234 6.3813 140.349 6.07873 140.503 5.82568C140.663 5.56713 140.861 5.36909 141.097 5.23156C141.339 5.08853 141.623 5.01702 141.947 5.01702C142.349 5.01702 142.676 5.10504 142.929 5.28107C143.182 5.45161 143.369 5.68265 143.49 5.97421C143.611 6.26027 143.677 6.57659 143.688 6.92316V7.08819Z" fill="url(#paint7_linear_3465_21306)"/>
<path d="M136.749 3.4657V5.03352H135.189V9.81949C135.189 10.0835 135.225 10.2871 135.297 10.4301C135.368 10.5731 135.475 10.6694 135.618 10.7189C135.761 10.7684 135.932 10.7932 136.13 10.7932C136.273 10.7932 136.405 10.7849 136.526 10.7684C136.647 10.7519 136.749 10.7354 136.831 10.7189L136.84 12.3528C136.658 12.4133 136.452 12.4628 136.221 12.5013C135.995 12.5398 135.739 12.5591 135.453 12.5591C134.964 12.5591 134.535 12.4765 134.166 12.3115C133.797 12.141 133.511 11.8687 133.308 11.4946C133.104 11.115 133.003 10.6144 133.003 9.99278V5.03352H131.633V3.4657H133.003V1.27076H135.189V3.4657H136.749Z" fill="url(#paint8_linear_3465_21306)"/>
<path d="M125.164 4.54264C125.18 4.52177 125.196 4.50111 125.213 4.48066C125.527 4.10108 125.898 3.80952 126.327 3.60598C126.756 3.40244 127.235 3.30067 127.763 3.30067C128.192 3.30067 128.58 3.36118 128.926 3.48221C129.273 3.60323 129.57 3.79577 129.817 4.05982C130.07 4.32388 130.263 4.67045 130.395 5.09954C130.533 5.52312 130.601 6.04573 130.601 6.66735V12.394H128.406V6.65085C128.406 6.24377 128.346 5.92195 128.225 5.6854C128.109 5.44886 127.939 5.28107 127.713 5.18205C127.493 5.08303 127.221 5.03352 126.896 5.03352C126.561 5.03352 126.266 5.10229 126.013 5.23981C125.766 5.37184 125.557 5.55613 125.386 5.79268C125.326 5.87885 125.271 5.96977 125.221 6.06544V12.394H123.043V3.4657H125.089L125.164 4.54264Z" fill="url(#paint9_linear_3465_21306)"/>
<path d="M121.673 10.6117V12.394H113.71V0.379577H121.648V2.17019H115.979V5.33883H120.84V7.07994H115.979V10.6117H121.673Z" fill="url(#paint10_linear_3465_21306)"/>
<path d="M103.172 12.4031L100.021 3.4657H102.372L104.176 9.33403L105.945 3.4657H108.281L104.699 13.7473C104.617 13.9673 104.51 14.2066 104.377 14.4652C104.251 14.7237 104.08 14.9685 103.866 15.1996C103.651 15.4361 103.382 15.6287 103.057 15.7772C102.738 15.9257 102.35 16 101.894 16C101.696 16 101.52 15.9862 101.366 15.9587C101.212 15.9312 101.049 15.8955 100.879 15.8515V14.2176C100.934 14.2231 100.997 14.2259 101.069 14.2259C101.146 14.2314 101.212 14.2341 101.267 14.2341C101.586 14.2341 101.85 14.1956 102.059 14.1186C102.268 14.0471 102.436 13.9288 102.562 13.7638C102.694 13.6043 102.804 13.3952 102.892 13.1367L103.172 12.4031Z" fill="url(#paint11_linear_3465_21306)"/>
<path fill-rule="evenodd" clip-rule="evenodd" d="M96.7282 11.7999C96.8228 11.7138 96.9108 11.6253 96.992 11.5342L96.9922 11.5358C97.0472 11.8824 97.127 12.1685 97.2315 12.394H99.4512V12.2537C99.3357 12.0227 99.2477 11.7504 99.1872 11.4368C99.1322 11.1178 99.1047 10.7354 99.1047 10.2898V6.39505C99.1047 5.70191 98.9506 5.12704 98.6426 4.67045C98.34 4.21386 97.9219 3.87279 97.3883 3.64724C96.8602 3.41619 96.2578 3.30067 95.5812 3.30067C95.0091 3.30067 94.492 3.37493 94.0299 3.52347C93.5733 3.672 93.18 3.87829 92.8499 4.14234C92.5253 4.40089 92.275 4.69795 92.099 5.03352C91.923 5.36359 91.8349 5.71291 91.8349 6.08148H94.0216C94.0216 5.85044 94.0794 5.6469 94.1949 5.47086C94.3104 5.28932 94.4755 5.14904 94.69 5.05002C94.9101 4.951 95.1659 4.90149 95.4574 4.90149C95.7875 4.90149 96.0598 4.96201 96.2743 5.08303C96.4889 5.20406 96.6484 5.37459 96.7529 5.59464C96.8575 5.81468 96.9097 6.07598 96.9097 6.37855V6.95616H95.7462C95.0806 6.95616 94.4892 7.02218 93.9721 7.1542C93.4605 7.28073 93.0314 7.47052 92.6849 7.72357C92.3383 7.97112 92.077 8.27643 91.901 8.6395C91.7249 9.00258 91.6369 9.42066 91.6369 9.89376C91.6369 10.4054 91.7689 10.862 92.033 11.2635C92.297 11.6651 92.6574 11.9814 93.1139 12.2125C93.5705 12.4435 94.0876 12.5591 94.6653 12.5591C95.1164 12.5591 95.5124 12.4875 95.8535 12.3445C96.1946 12.2015 96.4861 12.0199 96.7282 11.7999ZM96.9097 9.8748V8.25168H95.8535C95.5124 8.25168 95.2126 8.28743 94.9541 8.35895C94.6955 8.42496 94.4837 8.52398 94.3187 8.65601C94.1537 8.78253 94.0299 8.93656 93.9474 9.1181C93.8649 9.29414 93.8236 9.49493 93.8236 9.72047C93.8236 9.94052 93.8731 10.1386 93.9721 10.3146C94.0766 10.4906 94.2252 10.6309 94.4177 10.7354C94.6158 10.8344 94.8468 10.884 95.1109 10.884C95.4959 10.884 95.8315 10.8069 96.1176 10.6529C96.4036 10.4934 96.6264 10.3008 96.7859 10.0753C96.8339 10.0075 96.8752 9.94064 96.9097 9.8748Z" fill="url(#paint12_linear_3465_21306)"/>
<path d="M81.1408 12.394L78.7973 3.4657H80.918L82.2186 9.48667L83.9546 3.4657H85.5554L87.2983 9.50291L88.592 3.4657H90.7045L88.3775 12.394H86.5539L84.7475 6.41279L82.9561 12.394H81.1408Z" fill="url(#paint13_linear_3465_21306)"/>
<path fill-rule="evenodd" clip-rule="evenodd" d="M74.4322 12.5591C73.7555 12.5591 73.1477 12.449 72.6085 12.229C72.0694 12.0089 71.6101 11.7036 71.2305 11.313C70.8564 10.917 70.5676 10.4576 70.3641 9.93502C70.1661 9.40691 70.067 8.84029 70.067 8.23517V7.9051C70.067 7.21746 70.1661 6.59309 70.3641 6.03197C70.5621 5.46536 70.8427 4.97851 71.2058 4.57143C71.5688 4.16435 72.0034 3.85078 72.5095 3.63074C73.0156 3.41069 73.574 3.30067 74.1846 3.30067C74.8172 3.30067 75.3756 3.40794 75.8597 3.62249C76.3438 3.83153 76.7481 4.12859 77.0727 4.51367C77.3973 4.89874 77.6421 5.36084 77.8071 5.89995C77.9721 6.43356 78.0547 7.02493 78.0547 7.67406V8.58999H72.2776C72.2992 8.83086 72.3436 9.05916 72.4105 9.27488C72.515 9.59395 72.6663 9.87175 72.8644 10.1083C73.0679 10.3393 73.3099 10.5209 73.5905 10.6529C73.8766 10.7794 74.2011 10.8427 74.5642 10.8427C75.0208 10.8427 75.4334 10.7547 75.8019 10.5786C76.176 10.3971 76.5006 10.1303 76.7756 9.77823L77.8731 10.917C77.6861 11.192 77.433 11.4561 77.114 11.7091C76.8004 11.9622 76.4208 12.1685 75.9752 12.328C75.5296 12.482 75.0153 12.5591 74.4322 12.5591ZM72.3147 7.08819H75.9092V6.92316C75.8982 6.57659 75.8322 6.26027 75.7112 5.97421C75.5902 5.68265 75.4031 5.45161 75.1501 5.28107C74.897 5.10504 74.5697 5.01702 74.1681 5.01702C73.8435 5.01702 73.5602 5.08853 73.3182 5.23156C73.0816 5.36909 72.8836 5.56713 72.7241 5.82568C72.57 6.07873 72.4545 6.3813 72.3775 6.73337C72.3525 6.84759 72.3316 6.96586 72.3147 7.08819Z" fill="url(#paint14_linear_3465_21306)"/>
<path d="M68.9696 5.03352V3.4657H67.41V1.27076H65.2233V3.4657H63.8535V5.03352H65.2233V9.99278C65.2233 10.6144 65.3251 11.115 65.5286 11.4946C65.7322 11.8687 66.0182 12.141 66.3868 12.3115C66.7554 12.4765 67.1844 12.5591 67.674 12.5591C67.9601 12.5591 68.2159 12.5398 68.4415 12.5013C68.6725 12.4628 68.8788 12.4133 69.0603 12.3528L69.0521 10.7189C68.9696 10.7354 68.8678 10.7519 68.7468 10.7684C68.6257 10.7849 68.4937 10.7932 68.3507 10.7932C68.1526 10.7932 67.9821 10.7684 67.8391 10.7189C67.6961 10.6694 67.5888 10.5731 67.5173 10.4301C67.4457 10.2871 67.41 10.0835 67.41 9.81949V5.03352H68.9696Z" fill="url(#paint15_linear_3465_21306)"/>
<path fill-rule="evenodd" clip-rule="evenodd" d="M60.4043 11.7999C60.499 11.7138 60.5869 11.6253 60.6681 11.5342L60.6684 11.5358C60.7234 11.8824 60.8032 12.1685 60.9077 12.394H63.1274V12.2537C63.0118 12.0227 62.9238 11.7504 62.8633 11.4368C62.8083 11.1178 62.7808 10.7354 62.7808 10.2898V6.39505C62.7808 5.70191 62.6268 5.12704 62.3187 4.67045C62.0161 4.21386 61.5981 3.87279 61.0645 3.64724C60.5363 3.41619 59.934 3.30067 59.2573 3.30067C58.6852 3.30067 58.1681 3.37493 57.706 3.52347C57.2494 3.672 56.8561 3.87829 56.526 4.14234C56.2015 4.40089 55.9512 4.69795 55.7751 5.03352C55.5991 5.36359 55.5111 5.71291 55.5111 6.08148H57.6978C57.6978 5.85044 57.7555 5.6469 57.8711 5.47086C57.9866 5.28932 58.1516 5.14904 58.3662 5.05002C58.5862 4.951 58.842 4.90149 59.1336 4.90149C59.4636 4.90149 59.7359 4.96201 59.9505 5.08303C60.165 5.20406 60.3246 5.37459 60.4291 5.59464C60.5336 5.81468 60.5859 6.07598 60.5859 6.37855V6.95616H59.4224C58.7567 6.95616 58.1654 7.02218 57.6483 7.1542C57.1367 7.28073 56.7076 7.47052 56.361 7.72357C56.0144 7.97112 55.7531 8.27643 55.5771 8.6395C55.4011 9.00258 55.313 9.42066 55.313 9.89376C55.313 10.4054 55.4451 10.862 55.7091 11.2635C55.9732 11.6651 56.3335 11.9814 56.7901 12.2125C57.2467 12.4435 57.7638 12.5591 58.3414 12.5591C58.7925 12.5591 59.1886 12.4875 59.5296 12.3445C59.8707 12.2015 60.1623 12.0199 60.4043 11.7999ZM60.5859 9.8748V8.25168H59.5296C59.1886 8.25168 58.8888 8.28743 58.6302 8.35895C58.3717 8.42496 58.1599 8.52398 57.9948 8.65601C57.8298 8.78253 57.706 8.93656 57.6235 9.1181C57.541 9.29414 57.4997 9.49493 57.4997 9.72047C57.4997 9.94052 57.5492 10.1386 57.6483 10.3146C57.7528 10.4906 57.9013 10.6309 58.0939 10.7354C58.2919 10.8344 58.5229 10.884 58.787 10.884C59.1721 10.884 59.5076 10.8069 59.7937 10.6529C60.0798 10.4934 60.3025 10.3008 60.4621 10.0753C60.5101 10.0075 60.5513 9.94064 60.5859 9.8748Z" fill="url(#paint16_linear_3465_21306)"/>
<path d="M53.6875 10.8592V6.1805H49.0335V7.83909H51.4183V10.0918C51.3247 10.1908 51.1927 10.2926 51.0222 10.3971C50.8516 10.5016 50.6233 10.5924 50.3373 10.6694C50.0567 10.7409 49.7019 10.7767 49.2728 10.7767C48.7997 10.7767 48.3761 10.6914 48.0021 10.5209C47.6335 10.3449 47.3227 10.089 47.0696 9.75348C46.8221 9.41241 46.6323 8.99433 46.5003 8.49923C46.3682 7.99862 46.3022 7.42651 46.3022 6.78288V5.97421C46.3022 5.33608 46.36 4.76947 46.4755 4.27437C46.5965 3.77927 46.7726 3.36393 47.0036 3.02836C47.2347 2.6928 47.5207 2.43699 47.8618 2.26096C48.2029 2.08492 48.5962 1.99691 49.0418 1.99691C49.5699 1.99691 49.999 2.08767 50.329 2.26921C50.6646 2.44525 50.9232 2.6928 51.1047 3.01186C51.2862 3.32543 51.4073 3.69125 51.4678 4.10933H53.6792C53.5912 3.35018 53.3711 2.67904 53.0191 2.09593C52.667 1.50731 52.1609 1.04521 51.5008 0.709644C50.8461 0.374076 50.01 0.206292 48.9923 0.206292C48.2331 0.206292 47.5455 0.335568 46.9293 0.59412C46.3187 0.852673 45.7934 1.2295 45.3533 1.7246C44.9187 2.2197 44.5831 2.82482 44.3466 3.53997C44.1155 4.25511 44 5.07203 44 5.99072V6.78288C44 7.70156 44.1238 8.51848 44.3713 9.23362C44.6189 9.94877 44.9709 10.5539 45.4275 11.049C45.8841 11.5441 46.4287 11.9209 47.0614 12.1795C47.694 12.4325 48.3926 12.5591 49.1573 12.5591C50.0375 12.5591 50.7801 12.4655 51.3852 12.2785C51.9904 12.086 52.48 11.8577 52.854 11.5936C53.2336 11.3295 53.5114 11.0848 53.6875 10.8592Z" fill="url(#paint17_linear_3465_21306)"/>
</g>
<defs>
<linearGradient id="paint0_linear_3465_21306" x1="150.925" y1="5.29032" x2="148.126" y2="28.5367" gradientUnits="userSpaceOnUse">
<stop stop-color="#11A06B"/>
<stop offset="1" stop-color="#286FEB"/>
</linearGradient>
<linearGradient id="paint1_linear_3465_21306" x1="150.925" y1="5.29032" x2="148.126" y2="28.5367" gradientUnits="userSpaceOnUse">
<stop stop-color="#11A06B"/>
<stop offset="1" stop-color="#286FEB"/>
</linearGradient>
<linearGradient id="paint2_linear_3465_21306" x1="150.925" y1="5.29032" x2="148.126" y2="28.5367" gradientUnits="userSpaceOnUse">
<stop stop-color="#11A06B"/>
<stop offset="1" stop-color="#286FEB"/>
</linearGradient>
<linearGradient id="paint3_linear_3465_21306" x1="150.925" y1="5.29032" x2="148.126" y2="28.5367" gradientUnits="userSpaceOnUse">
<stop stop-color="#11A06B"/>
<stop offset="1" stop-color="#286FEB"/>
</linearGradient>
<linearGradient id="paint4_linear_3465_21306" x1="150.925" y1="5.29032" x2="148.126" y2="28.5367" gradientUnits="userSpaceOnUse">
<stop stop-color="#11A06B"/>
<stop offset="1" stop-color="#286FEB"/>
</linearGradient>
<linearGradient id="paint5_linear_3465_21306" x1="150.925" y1="5.29032" x2="148.126" y2="28.5367" gradientUnits="userSpaceOnUse">
<stop stop-color="#11A06B"/>
<stop offset="1" stop-color="#286FEB"/>
</linearGradient>
<linearGradient id="paint6_linear_3465_21306" x1="150.925" y1="5.29032" x2="148.126" y2="28.5367" gradientUnits="userSpaceOnUse">
<stop stop-color="#11A06B"/>
<stop offset="1" stop-color="#286FEB"/>
</linearGradient>
<linearGradient id="paint7_linear_3465_21306" x1="150.925" y1="5.29032" x2="148.126" y2="28.5367" gradientUnits="userSpaceOnUse">
<stop stop-color="#11A06B"/>
<stop offset="1" stop-color="#286FEB"/>
</linearGradient>
<linearGradient id="paint8_linear_3465_21306" x1="150.925" y1="5.29032" x2="148.126" y2="28.5367" gradientUnits="userSpaceOnUse">
<stop stop-color="#11A06B"/>
<stop offset="1" stop-color="#286FEB"/>
</linearGradient>
<linearGradient id="paint9_linear_3465_21306" x1="150.925" y1="5.29032" x2="148.126" y2="28.5367" gradientUnits="userSpaceOnUse">
<stop stop-color="#11A06B"/>
<stop offset="1" stop-color="#286FEB"/>
</linearGradient>
<linearGradient id="paint10_linear_3465_21306" x1="150.925" y1="5.29032" x2="148.126" y2="28.5367" gradientUnits="userSpaceOnUse">
<stop stop-color="#11A06B"/>
<stop offset="1" stop-color="#286FEB"/>
</linearGradient>
<linearGradient id="paint11_linear_3465_21306" x1="150.925" y1="5.29032" x2="148.126" y2="28.5367" gradientUnits="userSpaceOnUse">
<stop stop-color="#11A06B"/>
<stop offset="1" stop-color="#286FEB"/>
</linearGradient>
<linearGradient id="paint12_linear_3465_21306" x1="150.925" y1="5.29032" x2="148.126" y2="28.5367" gradientUnits="userSpaceOnUse">
<stop stop-color="#11A06B"/>
<stop offset="1" stop-color="#286FEB"/>
</linearGradient>
<linearGradient id="paint13_linear_3465_21306" x1="150.925" y1="5.29032" x2="148.126" y2="28.5367" gradientUnits="userSpaceOnUse">
<stop stop-color="#11A06B"/>
<stop offset="1" stop-color="#286FEB"/>
</linearGradient>
<linearGradient id="paint14_linear_3465_21306" x1="150.925" y1="5.29032" x2="148.126" y2="28.5367" gradientUnits="userSpaceOnUse">
<stop stop-color="#11A06B"/>
<stop offset="1" stop-color="#286FEB"/>
</linearGradient>
<linearGradient id="paint15_linear_3465_21306" x1="150.925" y1="5.29032" x2="148.126" y2="28.5367" gradientUnits="userSpaceOnUse">
<stop stop-color="#11A06B"/>
<stop offset="1" stop-color="#286FEB"/>
</linearGradient>
<linearGradient id="paint16_linear_3465_21306" x1="150.925" y1="5.29032" x2="148.126" y2="28.5367" gradientUnits="userSpaceOnUse">
<stop stop-color="#11A06B"/>
<stop offset="1" stop-color="#286FEB"/>
</linearGradient>
<linearGradient id="paint17_linear_3465_21306" x1="150.925" y1="5.29032" x2="148.126" y2="28.5367" gradientUnits="userSpaceOnUse">
<stop stop-color="#11A06B"/>
<stop offset="1" stop-color="#286FEB"/>
</linearGradient>
<clipPath id="clip0_3465_21306">
<rect width="190" height="16" fill="white"/>
</clipPath>
</defs>
</svg>
