<svg width="184" height="16" viewBox="0 0 184 16" fill="none" xmlns="http://www.w3.org/2000/svg">
<path fill-rule="evenodd" clip-rule="evenodd" d="M32.7364 10.4215H35.9584V5.42531H32.7364V10.4215ZM35.9401 3.46267H38.4144V12.7414C38.4144 14.2759 38.2542 14.5436 37.8448 14.954C37.5244 15.293 37.0081 15.4536 36.1181 15.4536H32.5044L31.383 14.2046V13.6871H35.9401V12.4202H32.8249C31.8814 12.4202 31.4008 12.2417 31.0091 11.8492C30.4929 11.3139 30.2793 10.154 30.2793 7.95927C30.2793 5.7645 30.5285 4.55113 31.0625 3.99798C31.472 3.60542 31.9704 3.44482 32.8605 3.44482L34.7118 3.46267L35.9401 4.58682V3.46267ZM6.74664 1H9.66603L5.46496 6.3531L9.84404 12.4021H6.74664L3.41782 7.65569H2.63457V12.4021H0V1H2.63457V5.42523H3.41782L6.74664 1ZM25.972 6.28192V5.46111H25.0819C25.0641 5.46111 25.0641 5.46111 25.0463 5.46111H24.3521C24.3343 5.46111 24.3343 5.46111 24.3165 5.46111H22.9458V6.28192V12.3666H20.4892V3.46262H22.1091H22.9458V3.62321V4.58677L24.174 3.46262H24.8861C24.9929 3.44478 25.1175 3.44478 25.2421 3.44478H26.3102C27.0578 3.44478 27.5385 3.60537 27.8767 3.9444C28.2505 4.30127 28.3929 4.76521 28.3929 6.08564V12.3666H25.9364V6.38898C25.972 6.35329 25.972 6.31761 25.972 6.28192ZM13.0301 10.4035H16.2521V5.40731H13.0301V10.4035ZM13.1374 12.3667C12.2473 12.3667 11.7667 12.2239 11.3928 11.8135C10.8232 11.2247 10.5918 10.4217 10.5918 7.90574C10.5918 5.37194 10.8232 4.58682 11.3928 3.98013C11.7667 3.58757 12.2473 3.44482 13.1374 3.44482H16.128C17.018 3.44482 17.4986 3.58757 17.8725 3.98013C18.4421 4.58682 18.6735 5.37194 18.6735 7.90574C18.6735 10.4395 18.4421 11.2247 17.8725 11.8135C17.4808 12.2239 17.018 12.3667 16.128 12.3667H13.1374Z" fill="#121418"/>
<path d="M53.8635 6.03367V10.7589C53.6857 10.9867 53.4051 11.234 53.0218 11.5006C52.644 11.7673 52.1495 11.9979 51.5383 12.1924C50.9272 12.3812 50.1772 12.4757 49.2882 12.4757C48.5159 12.4757 47.8104 12.3479 47.1714 12.0923C46.5325 11.8312 45.9825 11.4506 45.5213 10.9506C45.0602 10.4506 44.7046 9.83944 44.4546 9.11718C44.2046 8.39492 44.0796 7.56987 44.0796 6.64204V5.84199C44.0796 4.91416 44.1963 4.08912 44.4296 3.36686C44.6685 2.64459 45.0074 2.03345 45.4463 1.53342C45.8908 1.03339 46.4214 0.652814 47.0381 0.391689C47.6603 0.130563 48.3548 0 49.1215 0C50.1494 0 50.9939 0.169454 51.655 0.508362C52.3217 0.84727 52.8329 1.31396 53.1884 1.90844C53.544 2.49736 53.7662 3.17518 53.8551 3.94189H51.6217C51.5606 3.51964 51.4383 3.15018 51.255 2.83349C51.0716 2.51125 50.8105 2.26124 50.4716 2.08345C50.1383 1.90011 49.7049 1.80843 49.1715 1.80843C48.7215 1.80843 48.3243 1.89733 47.9798 2.07512C47.6353 2.2529 47.3464 2.51125 47.1131 2.85016C46.8797 3.18907 46.702 3.60854 46.5797 4.10856C46.4631 4.60859 46.4047 5.18085 46.4047 5.82533V6.64204C46.4047 7.29208 46.4714 7.86989 46.6047 8.37547C46.7381 8.8755 46.9297 9.29774 47.1798 9.64221C47.4353 9.98112 47.7492 10.2395 48.1215 10.4173C48.4993 10.5895 48.9271 10.6756 49.4049 10.6756C49.8382 10.6756 50.1966 10.6395 50.4799 10.5673C50.7689 10.4895 50.9994 10.3978 51.1717 10.2922C51.3439 10.1867 51.4772 10.0839 51.5717 9.98389V7.70877H49.1632V6.03367H53.8635Z" fill="url(#paint0_linear_2083_8687)"/>
<path d="M60.8305 10.3922V6.23368C60.8305 5.92811 60.7777 5.66421 60.6722 5.44197C60.5666 5.21974 60.4055 5.04751 60.1888 4.92528C59.9721 4.80305 59.6971 4.74193 59.3638 4.74193C59.0693 4.74193 58.811 4.79194 58.5887 4.89194C58.3721 4.99195 58.2054 5.13362 58.0887 5.31696C57.972 5.49475 57.9137 5.70032 57.9137 5.93367H55.7052C55.7052 5.56142 55.7941 5.20863 55.9719 4.87527C56.1497 4.53637 56.4025 4.23635 56.7303 3.97522C57.0637 3.70854 57.4609 3.5002 57.922 3.35019C58.3887 3.20018 58.911 3.12518 59.4888 3.12518C60.1722 3.12518 60.7805 3.24185 61.3139 3.47519C61.8528 3.70299 62.2751 4.04745 62.5806 4.50859C62.8918 4.96972 63.0473 5.55031 63.0473 6.25035V10.1839C63.0473 10.6339 63.0751 11.0201 63.1307 11.3423C63.1918 11.659 63.2807 11.934 63.3973 12.1673V12.309H61.1555C61.05 12.0812 60.9694 11.7923 60.9139 11.4423C60.8583 11.0867 60.8305 10.7367 60.8305 10.3922ZM61.1389 6.81705L61.1555 8.12546H59.7638C59.4193 8.12546 59.1165 8.16157 58.8554 8.2338C58.5943 8.30047 58.3804 8.40047 58.2137 8.53381C58.047 8.6616 57.922 8.81716 57.8387 9.0005C57.7554 9.17829 57.7137 9.38108 57.7137 9.60887C57.7137 9.83111 57.7637 10.0311 57.8637 10.2089C57.9693 10.3867 58.1193 10.5284 58.3137 10.6339C58.5137 10.7339 58.7471 10.7839 59.0138 10.7839C59.4027 10.7839 59.7416 10.7062 60.0305 10.5506C60.3194 10.3895 60.5444 10.195 60.7055 9.96723C60.8666 9.73944 60.9528 9.52276 60.9639 9.31719L61.5972 10.2672C61.5195 10.495 61.4028 10.7367 61.2472 10.9923C61.0917 11.2479 60.8916 11.4868 60.6472 11.709C60.4027 11.9312 60.1083 12.1146 59.7638 12.259C59.4193 12.4035 59.0193 12.4757 58.5637 12.4757C57.9804 12.4757 57.4581 12.359 56.997 12.1257C56.5358 11.8923 56.1719 11.5729 55.9053 11.1673C55.6386 10.7617 55.5052 10.3006 55.5052 9.78388C55.5052 9.30608 55.5941 8.88383 55.7719 8.51714C55.9497 8.15046 56.2136 7.84211 56.5636 7.59209C56.9136 7.33652 57.347 7.14485 57.8637 7.01706C58.3859 6.88372 58.9832 6.81705 59.6555 6.81705H61.1389Z" fill="url(#paint1_linear_2083_8687)"/>
<path d="M69.2977 3.29185V4.87527H64.1307V3.29185H69.2977ZM65.5141 1.07506H67.7226V9.70888C67.7226 9.97556 67.7587 10.1811 67.8309 10.3256C67.9031 10.47 68.0115 10.5673 68.1559 10.6173C68.3004 10.6673 68.4726 10.6923 68.6726 10.6923C68.8171 10.6923 68.9504 10.6839 69.0727 10.6673C69.1949 10.6506 69.2977 10.6339 69.381 10.6173L69.3893 12.2674C69.206 12.3285 68.9977 12.3785 68.7643 12.4174C68.5365 12.4563 68.2782 12.4757 67.9893 12.4757C67.4948 12.4757 67.0614 12.3924 66.6892 12.2257C66.3169 12.0535 66.028 11.7784 65.8225 11.4006C65.6169 11.0173 65.5141 10.5117 65.5141 9.88389V1.07506Z" fill="url(#paint2_linear_2083_8687)"/>
<path d="M74.8146 12.4757C74.1313 12.4757 73.5173 12.3646 72.9729 12.1423C72.4284 11.9201 71.9645 11.6118 71.5811 11.2173C71.2033 10.8173 70.9116 10.3534 70.7061 9.82555C70.5061 9.29219 70.4061 8.71993 70.4061 8.10879V7.77544C70.4061 7.08095 70.5061 6.45036 70.7061 5.88366C70.9061 5.31141 71.1894 4.81971 71.5561 4.40858C71.9228 3.99745 72.3617 3.68076 72.8729 3.45853C73.384 3.23629 73.9479 3.12518 74.5646 3.12518C75.2036 3.12518 75.7675 3.23351 76.2564 3.45019C76.7453 3.66132 77.1537 3.96133 77.4815 4.35024C77.8093 4.73915 78.0565 5.20585 78.2232 5.75032C78.3898 6.28924 78.4732 6.8865 78.4732 7.54209V8.46714H71.4061V6.95039H76.3064V6.78371C76.2953 6.43369 76.2286 6.11423 76.1064 5.82533C75.9842 5.53087 75.7953 5.29752 75.5397 5.12529C75.2841 4.9475 74.9535 4.85861 74.548 4.85861C74.2202 4.85861 73.934 4.93083 73.6896 5.07528C73.4507 5.21418 73.2507 5.41419 73.0895 5.67532C72.934 5.93089 72.8173 6.23646 72.7395 6.59204C72.6617 6.94761 72.6229 7.34208 72.6229 7.77544V8.10879C72.6229 8.48659 72.6729 8.83661 72.7729 9.15885C72.8784 9.48109 73.0312 9.76166 73.2312 10.0006C73.4368 10.2339 73.6812 10.4173 73.9646 10.5506C74.2535 10.6784 74.5813 10.7423 74.948 10.7423C75.4091 10.7423 75.8258 10.6534 76.1981 10.4756C76.5759 10.2922 76.9036 10.0228 77.1814 9.66721L78.2898 10.8173C78.1009 11.0951 77.8454 11.3617 77.5231 11.6173C77.2064 11.8729 76.8231 12.0812 76.3731 12.2424C75.923 12.3979 75.4036 12.4757 74.8146 12.4757Z" fill="url(#paint3_linear_2083_8687)"/>
<path d="M82.4567 10.1422L84.4318 3.29185H85.8319L85.4152 5.65865L83.4235 12.309H82.2151L82.4567 10.1422ZM81.365 3.29185L82.8484 10.1589L82.9818 12.309H81.59L79.2232 3.29185H81.365ZM87.6654 10.0589L89.1154 3.29185H91.2489L88.8988 12.309H87.507L87.6654 10.0589ZM86.0486 3.29185L88.007 10.0756L88.2654 12.309H87.057L85.0485 5.65865L84.6402 3.29185H86.0486Z" fill="url(#paint4_linear_2083_8687)"/>
<path d="M97.5159 10.3922V6.23368C97.5159 5.92811 97.4631 5.66421 97.3576 5.44197C97.252 5.21974 97.0909 5.04751 96.8742 4.92528C96.6575 4.80305 96.3825 4.74193 96.0492 4.74193C95.7547 4.74193 95.4964 4.79194 95.2741 4.89194C95.0574 4.99195 94.8908 5.13362 94.7741 5.31696C94.6574 5.49475 94.5991 5.70032 94.5991 5.93367H92.3906C92.3906 5.56142 92.4795 5.20863 92.6573 4.87527C92.8351 4.53637 93.0879 4.23635 93.4157 3.97522C93.749 3.70854 94.1463 3.5002 94.6074 3.35019C95.0741 3.20018 95.5964 3.12518 96.1742 3.12518C96.8575 3.12518 97.4659 3.24185 97.9993 3.47519C98.5382 3.70299 98.9604 4.04745 99.266 4.50859C99.5771 4.96972 99.7327 5.55031 99.7327 6.25035V10.1839C99.7327 10.6339 99.7605 11.0201 99.816 11.3423C99.8772 11.659 99.9661 11.934 100.083 12.1673V12.309H97.8409C97.7354 12.0812 97.6548 11.7923 97.5993 11.4423C97.5437 11.0867 97.5159 10.7367 97.5159 10.3922ZM97.8243 6.81705L97.8409 8.12546H96.4492C96.1047 8.12546 95.8019 8.16157 95.5408 8.2338C95.2797 8.30047 95.0658 8.40047 94.8991 8.53381C94.7324 8.6616 94.6074 8.81716 94.5241 9.0005C94.4407 9.17829 94.3991 9.38108 94.3991 9.60887C94.3991 9.83111 94.4491 10.0311 94.5491 10.2089C94.6546 10.3867 94.8046 10.5284 94.9991 10.6339C95.1991 10.7339 95.4325 10.7839 95.6991 10.7839C96.0881 10.7839 96.427 10.7062 96.7159 10.5506C97.0048 10.3895 97.2298 10.195 97.3909 9.96723C97.552 9.73944 97.6381 9.52276 97.6493 9.31719L98.2826 10.2672C98.2048 10.495 98.0882 10.7367 97.9326 10.9923C97.777 11.2479 97.577 11.4868 97.3326 11.709C97.0881 11.9312 96.7937 12.1146 96.4492 12.259C96.1047 12.4035 95.7047 12.4757 95.2491 12.4757C94.6658 12.4757 94.1435 12.359 93.6824 12.1257C93.2212 11.8923 92.8573 11.5729 92.5906 11.1673C92.324 10.7617 92.1906 10.3006 92.1906 9.78388C92.1906 9.30608 92.2795 8.88383 92.4573 8.51714C92.6351 8.15046 92.899 7.84211 93.249 7.59209C93.599 7.33652 94.0324 7.14485 94.5491 7.01706C95.0713 6.88372 95.6686 6.81705 96.3408 6.81705H97.8243Z" fill="url(#paint5_linear_2083_8687)"/>
<path d="M104.225 11.309L106.641 3.29185H109L105.383 13.6758C105.3 13.898 105.191 14.1397 105.058 14.4008C104.93 14.6619 104.758 14.9092 104.541 15.1425C104.325 15.3814 104.052 15.5759 103.725 15.7259C103.402 15.8759 103.011 15.9509 102.55 15.9509C102.35 15.9509 102.172 15.937 102.016 15.9092C101.861 15.8814 101.697 15.8453 101.524 15.8009V14.1508C101.58 14.1563 101.644 14.1591 101.716 14.1591C101.794 14.1647 101.861 14.1675 101.916 14.1675C102.238 14.1675 102.505 14.1286 102.716 14.0508C102.927 13.9786 103.097 13.8591 103.225 13.6924C103.358 13.5313 103.469 13.3202 103.558 13.0591L104.225 11.309ZM103.033 3.29185L105.075 9.93389L105.433 12.259L103.916 12.534L100.658 3.29185H103.033Z" fill="url(#paint6_linear_2083_8687)"/>
<defs>
<linearGradient id="paint0_linear_2083_8687" x1="91.7227" y1="5.27409" x2="85.8178" y2="27.1944" gradientUnits="userSpaceOnUse">
<stop stop-color="#11A06B"/>
<stop offset="1" stop-color="#286FEB"/>
</linearGradient>
<linearGradient id="paint1_linear_2083_8687" x1="91.7227" y1="5.27409" x2="85.8178" y2="27.1944" gradientUnits="userSpaceOnUse">
<stop stop-color="#11A06B"/>
<stop offset="1" stop-color="#286FEB"/>
</linearGradient>
<linearGradient id="paint2_linear_2083_8687" x1="91.7227" y1="5.27409" x2="85.8178" y2="27.1944" gradientUnits="userSpaceOnUse">
<stop stop-color="#11A06B"/>
<stop offset="1" stop-color="#286FEB"/>
</linearGradient>
<linearGradient id="paint3_linear_2083_8687" x1="91.7227" y1="5.27409" x2="85.8178" y2="27.1944" gradientUnits="userSpaceOnUse">
<stop stop-color="#11A06B"/>
<stop offset="1" stop-color="#286FEB"/>
</linearGradient>
<linearGradient id="paint4_linear_2083_8687" x1="91.7227" y1="5.27409" x2="85.8178" y2="27.1944" gradientUnits="userSpaceOnUse">
<stop stop-color="#11A06B"/>
<stop offset="1" stop-color="#286FEB"/>
</linearGradient>
<linearGradient id="paint5_linear_2083_8687" x1="91.7227" y1="5.27409" x2="85.8178" y2="27.1944" gradientUnits="userSpaceOnUse">
<stop stop-color="#11A06B"/>
<stop offset="1" stop-color="#286FEB"/>
</linearGradient>
<linearGradient id="paint6_linear_2083_8687" x1="91.7227" y1="5.27409" x2="85.8178" y2="27.1944" gradientUnits="userSpaceOnUse">
<stop stop-color="#11A06B"/>
<stop offset="1" stop-color="#286FEB"/>
</linearGradient>
</defs>
</svg>
