<svg width="184" height="16" viewBox="0 0 184 16" fill="none" xmlns="http://www.w3.org/2000/svg">
<path fill-rule="evenodd" clip-rule="evenodd" d="M32.7364 10.4215H35.9584V5.42531H32.7364V10.4215ZM35.9401 3.46267H38.4144V12.7414C38.4144 14.2759 38.2542 14.5436 37.8448 14.954C37.5244 15.293 37.0081 15.4536 36.1181 15.4536H32.5044L31.383 14.2046V13.6871H35.9401V12.4202H32.8249C31.8814 12.4202 31.4008 12.2417 31.0091 11.8492C30.4929 11.3139 30.2793 10.154 30.2793 7.95927C30.2793 5.7645 30.5285 4.55113 31.0625 3.99798C31.472 3.60542 31.9704 3.44482 32.8605 3.44482L34.7118 3.46267L35.9401 4.58682V3.46267ZM6.74664 1H9.66603L5.46496 6.3531L9.84404 12.4021H6.74664L3.41782 7.65569H2.63457V12.4021H0V1H2.63457V5.42523H3.41782L6.74664 1ZM25.972 6.28192V5.46111H25.0819C25.0641 5.46111 25.0641 5.46111 25.0463 5.46111H24.3521C24.3343 5.46111 24.3343 5.46111 24.3165 5.46111H22.9458V6.28192V12.3666H20.4892V3.46262H22.1091H22.9458V3.62321V4.58677L24.174 3.46262H24.8861C24.9929 3.44478 25.1175 3.44478 25.2421 3.44478H26.3102C27.0578 3.44478 27.5385 3.60537 27.8767 3.9444C28.2505 4.30127 28.3929 4.76521 28.3929 6.08564V12.3666H25.9364V6.38898C25.972 6.35329 25.972 6.31761 25.972 6.28192ZM13.0301 10.4035H16.2521V5.40731H13.0301V10.4035ZM13.1374 12.3667C12.2473 12.3667 11.7667 12.2239 11.3928 11.8135C10.8232 11.2247 10.5918 10.4217 10.5918 7.90574C10.5918 5.37194 10.8232 4.58682 11.3928 3.98013C11.7667 3.58757 12.2473 3.44482 13.1374 3.44482H16.128C17.018 3.44482 17.4986 3.58757 17.8725 3.98013C18.4421 4.58682 18.6735 5.37194 18.6735 7.90574C18.6735 10.4395 18.4421 11.2247 17.8725 11.8135C17.4808 12.2239 17.018 12.3667 16.128 12.3667H13.1374Z" fill="#121418"/>
<path d="M46.292 1V13.135H44V1H46.292ZM53.5763 1L48.709 6.91747L45.9253 9.89288L45.5169 7.66758L47.4505 5.1589L50.7676 1H53.5763ZM51.026 13.135L47.2504 7.45088L48.8923 5.96734L53.7513 13.135H51.026Z" fill="url(#paint0_linear_258_1882)"/>
<path d="M54.0264 8.71772V8.5427C54.0264 7.88149 54.1208 7.27308 54.3097 6.71745C54.4987 6.15626 54.7737 5.67008 55.1349 5.25891C55.496 4.84775 55.9377 4.52826 56.46 4.30045C56.9823 4.06708 57.5769 3.9504 58.2436 3.9504C58.9215 3.9504 59.5216 4.06708 60.0439 4.30045C60.5717 4.52826 61.0162 4.84775 61.3774 5.25891C61.7385 5.67008 62.0136 6.15626 62.2025 6.71745C62.3914 7.27308 62.4859 7.88149 62.4859 8.5427V8.71772C62.4859 9.37336 62.3914 9.98178 62.2025 10.543C62.0136 11.0986 61.7385 11.5848 61.3774 12.0015C61.0162 12.4127 60.5745 12.7322 60.0522 12.96C59.5299 13.1878 58.9326 13.3017 58.2603 13.3017C57.5935 13.3017 56.9962 13.1878 56.4684 12.96C55.9405 12.7322 55.496 12.4127 55.1349 12.0015C54.7737 11.5848 54.4987 11.0986 54.3097 10.543C54.1208 9.98178 54.0264 9.37336 54.0264 8.71772ZM56.2267 8.5427V8.71772C56.2267 9.11222 56.2656 9.48171 56.3434 9.8262C56.4211 10.1707 56.5406 10.4735 56.7017 10.7347C56.8629 10.9958 57.0712 11.2014 57.3268 11.3514C57.588 11.4959 57.8991 11.5681 58.2603 11.5681C58.6159 11.5681 58.9215 11.4959 59.1771 11.3514C59.4327 11.2014 59.641 10.9958 59.8022 10.7347C59.9688 10.4735 60.0911 10.1707 60.1689 9.8262C60.2467 9.48171 60.2856 9.11222 60.2856 8.71772V8.5427C60.2856 8.15375 60.2467 7.78981 60.1689 7.45088C60.0911 7.10639 59.9688 6.80357 59.8022 6.54242C59.641 6.27572 59.4299 6.06736 59.1687 5.91734C58.9131 5.76176 58.6048 5.68397 58.2436 5.68397C57.888 5.68397 57.5824 5.76176 57.3268 5.91734C57.0712 6.06736 56.8629 6.27572 56.7017 6.54242C56.5406 6.80357 56.4211 7.10639 56.3434 7.45088C56.2656 7.78981 56.2267 8.15375 56.2267 8.5427Z" fill="url(#paint1_linear_258_1882)"/>
<path d="M66.2447 6.04235V13.135H64.0444V4.11709H66.1113L66.2447 6.04235ZM65.8947 8.301H65.2446C65.2501 7.64535 65.339 7.05082 65.5113 6.51742C65.6835 5.98401 65.9252 5.52562 66.2364 5.14223C66.5531 4.75885 66.9281 4.46436 67.3615 4.25878C67.7949 4.05319 68.2783 3.9504 68.8117 3.9504C69.2451 3.9504 69.6368 4.01152 69.9869 4.13376C70.3369 4.256 70.637 4.45047 70.887 4.71717C71.1426 4.98388 71.3371 5.33392 71.4704 5.76732C71.6093 6.19515 71.6788 6.723 71.6788 7.35087V13.135H69.4618V7.3342C69.4618 6.92303 69.4007 6.59799 69.2784 6.35906C69.1618 6.12014 68.9895 5.95068 68.7617 5.85066C68.5395 5.75065 68.2644 5.70064 67.9366 5.70064C67.5977 5.70064 67.3004 5.77009 67.0448 5.909C66.7948 6.04235 66.5836 6.22849 66.4114 6.46741C66.2447 6.70633 66.1169 6.98137 66.028 7.29252C65.9391 7.60368 65.8947 7.93984 65.8947 8.301Z" fill="url(#paint2_linear_258_1882)"/>
<path d="M75.7793 6.04235V13.135H73.579V4.11709H75.646L75.7793 6.04235ZM75.4293 8.301H74.7792C74.7848 7.64535 74.8737 7.05082 75.0459 6.51742C75.2181 5.98401 75.4598 5.52562 75.771 5.14223C76.0877 4.75885 76.4628 4.46436 76.8962 4.25878C77.3295 4.05319 77.8129 3.9504 78.3464 3.9504C78.7797 3.9504 79.1715 4.01152 79.5215 4.13376C79.8716 4.256 80.1716 4.45047 80.4216 4.71717C80.6772 4.98388 80.8717 5.33392 81.005 5.76732C81.144 6.19515 81.2134 6.723 81.2134 7.35087V13.135H78.9964V7.3342C78.9964 6.92303 78.9353 6.59799 78.8131 6.35906C78.6964 6.12014 78.5242 5.95068 78.2963 5.85066C78.0741 5.75065 77.7991 5.70064 77.4712 5.70064C77.1323 5.70064 76.835 5.77009 76.5794 5.909C76.3294 6.04235 76.1183 6.22849 75.946 6.46741C75.7793 6.70633 75.6515 6.98137 75.5626 7.29252C75.4737 7.60368 75.4293 7.93984 75.4293 8.301Z" fill="url(#paint3_linear_258_1882)"/>
<path d="M87.2059 13.3017C86.5225 13.3017 85.9085 13.1906 85.364 12.9683C84.8195 12.746 84.3555 12.4377 83.9721 12.0432C83.5943 11.6431 83.3026 11.1792 83.097 10.6513C82.897 10.1179 82.797 9.54561 82.797 8.93441V8.60104C82.797 7.9065 82.897 7.27586 83.097 6.70911C83.297 6.13681 83.5804 5.64508 83.9471 5.23391C84.3138 4.82274 84.7528 4.50603 85.264 4.28378C85.7751 4.06153 86.3391 3.9504 86.9559 3.9504C87.5948 3.9504 88.1588 4.05875 88.6478 4.27545C89.1367 4.48659 89.5451 4.78663 89.8729 5.17557C90.2007 5.56451 90.448 6.03124 90.6147 6.57576C90.7814 7.11472 90.8647 7.71203 90.8647 8.36767V9.2928H83.7971V7.77592H88.6978V7.60923C88.6867 7.25919 88.62 6.9397 88.4977 6.65077C88.3755 6.35629 88.1866 6.12292 87.931 5.95068C87.6754 5.77287 87.3448 5.68397 86.9392 5.68397C86.6114 5.68397 86.3252 5.7562 86.0807 5.90067C85.8418 6.03958 85.6418 6.2396 85.4807 6.50075C85.3251 6.75634 85.2084 7.06194 85.1306 7.41754C85.0528 7.77315 85.0139 8.16764 85.0139 8.60104V8.93441C85.0139 9.31224 85.0639 9.66229 85.1639 9.98456C85.2695 10.3068 85.4223 10.5874 85.6223 10.8263C85.8279 11.0597 86.0724 11.2431 86.3558 11.3764C86.6447 11.5042 86.9725 11.5681 87.3392 11.5681C87.8004 11.5681 88.2171 11.4792 88.5894 11.3014C88.9672 11.118 89.2951 10.8486 89.5729 10.493L90.6814 11.6431C90.4925 11.9209 90.2369 12.1876 89.9146 12.4432C89.5979 12.6988 89.2145 12.9072 88.7644 13.0683C88.3144 13.2239 87.7949 13.3017 87.2059 13.3017Z" fill="url(#paint4_linear_258_1882)"/>
<path d="M96.0404 11.5681C96.3516 11.5681 96.6294 11.507 96.8739 11.3847C97.1184 11.2625 97.3128 11.0903 97.4573 10.868C97.6073 10.6458 97.6879 10.3874 97.699 10.0929H99.7743C99.7632 10.7041 99.5909 11.2514 99.2575 11.7348C98.9242 12.2182 98.4797 12.6016 97.924 12.885C97.3739 13.1628 96.7572 13.3017 96.0738 13.3017C95.3792 13.3017 94.7736 13.185 94.2569 12.9516C93.7401 12.7183 93.3095 12.3932 92.965 11.9765C92.6261 11.5598 92.3705 11.0764 92.1982 10.5263C92.0316 9.97622 91.9482 9.38725 91.9482 8.75939V8.49269C91.9482 7.86482 92.0316 7.27586 92.1982 6.72578C92.3705 6.17571 92.6261 5.69231 92.965 5.27558C93.3095 4.85886 93.7401 4.53382 94.2569 4.30045C94.7736 4.06708 95.3765 3.9504 96.0654 3.9504C96.7933 3.9504 97.4323 4.09209 97.9824 4.37546C98.538 4.65883 98.9714 5.05889 99.2825 5.57562C99.5993 6.09236 99.7632 6.70078 99.7743 7.40087H97.699C97.6879 7.07861 97.6156 6.78968 97.4823 6.53409C97.3489 6.2785 97.16 6.07291 96.9156 5.91734C96.6711 5.76176 96.3738 5.68397 96.0238 5.68397C95.6515 5.68397 95.3403 5.76176 95.0903 5.91734C94.8458 6.07291 94.6541 6.28683 94.5152 6.55909C94.3819 6.82579 94.2874 7.12583 94.2319 7.45921C94.1818 7.78704 94.1568 8.13153 94.1568 8.49269V8.75939C94.1568 9.12611 94.1818 9.47616 94.2319 9.80953C94.2874 10.1429 94.3819 10.443 94.5152 10.7097C94.6541 10.9708 94.8458 11.1792 95.0903 11.3347C95.3403 11.4903 95.657 11.5681 96.0404 11.5681Z" fill="url(#paint5_linear_258_1882)"/>
<path d="M105.508 4.11709V5.70064H100.341V4.11709H105.508ZM101.725 1.90012H103.933V10.5346C103.933 10.8013 103.969 11.0069 104.042 11.1514C104.114 11.2958 104.222 11.3931 104.367 11.4431C104.511 11.4931 104.683 11.5181 104.883 11.5181C105.028 11.5181 105.161 11.5098 105.283 11.4931C105.406 11.4764 105.508 11.4598 105.592 11.4431L105.6 13.0933C105.417 13.1544 105.208 13.2044 104.975 13.2433C104.747 13.2822 104.489 13.3017 104.2 13.3017C103.705 13.3017 103.272 13.2183 102.9 13.0516C102.527 12.8794 102.238 12.6044 102.033 12.2265C101.827 11.8431 101.725 11.3375 101.725 10.7097V1.90012Z" fill="url(#paint6_linear_258_1882)"/>
<defs>
<linearGradient id="paint0_linear_258_1882" x1="89.2065" y1="5.06749" x2="85.4181" y2="22.3702" gradientUnits="userSpaceOnUse">
<stop stop-color="#11A06B"/>
<stop offset="1" stop-color="#286FEB"/>
</linearGradient>
<linearGradient id="paint1_linear_258_1882" x1="89.2065" y1="5.06749" x2="85.4181" y2="22.3702" gradientUnits="userSpaceOnUse">
<stop stop-color="#11A06B"/>
<stop offset="1" stop-color="#286FEB"/>
</linearGradient>
<linearGradient id="paint2_linear_258_1882" x1="89.2065" y1="5.06749" x2="85.4181" y2="22.3702" gradientUnits="userSpaceOnUse">
<stop stop-color="#11A06B"/>
<stop offset="1" stop-color="#286FEB"/>
</linearGradient>
<linearGradient id="paint3_linear_258_1882" x1="89.2065" y1="5.06749" x2="85.4181" y2="22.3702" gradientUnits="userSpaceOnUse">
<stop stop-color="#11A06B"/>
<stop offset="1" stop-color="#286FEB"/>
</linearGradient>
<linearGradient id="paint4_linear_258_1882" x1="89.2065" y1="5.06749" x2="85.4181" y2="22.3702" gradientUnits="userSpaceOnUse">
<stop stop-color="#11A06B"/>
<stop offset="1" stop-color="#286FEB"/>
</linearGradient>
<linearGradient id="paint5_linear_258_1882" x1="89.2065" y1="5.06749" x2="85.4181" y2="22.3702" gradientUnits="userSpaceOnUse">
<stop stop-color="#11A06B"/>
<stop offset="1" stop-color="#286FEB"/>
</linearGradient>
<linearGradient id="paint6_linear_258_1882" x1="89.2065" y1="5.06749" x2="85.4181" y2="22.3702" gradientUnits="userSpaceOnUse">
<stop stop-color="#11A06B"/>
<stop offset="1" stop-color="#286FEB"/>
</linearGradient>
</defs>
</svg>
