<svg fill="none" height="41" viewBox="0 0 124 41" width="124" xmlns="http://www.w3.org/2000/svg"><path clip-rule="evenodd" d="m14.861 33.5673h8.2969l4.3112 5.4249-.7307 1.8541h-10.7318l.2649-1.8509-2.5306-3.9952zm5.9419-23.85354h4.4675l20.0052 23.87914-1.5573 7.2534h-8.5841l.5329-2.0455-18.6936-22.3187zm7.8661-9.71376 9.3053 7.31723-1.1903 1.23177 1.5956 2.2338v2.4061l-4.6272 3.7974-7.7959-9.22551h-4.5377l1.8285-3.35386zm-19.52007 23.4387 6.48757-5.645 8.616 10.3743-2.4444 3.8006h-7.9459l-5.4919 7.2183-1.25411 1.6594h-7.11619v-8.8554l6.63433-8.5522zm68.71427 6.9854c-1.6115 0-2.4444-.2617-3.1336-.9861-1.034-1.0435-1.4392-2.489-1.4392-6.9789s.402-5.9355 1.4392-7.0205c.6605-.6956 1.5221-.9573 3.1336-.9573h5.3739c1.5955 0 2.4412.2617 3.1305.9573 1.0339 1.0722 1.436 2.4891 1.436 7.0205s-.4021 5.9354-1.436 6.9789c-.6893.7244-1.5222.9861-3.1305.9861zm-.2042-3.5102h5.7791v-8.916h-5.7823v8.9192zm23.212-7.3811v-1.4743h-5.4056v1.4775 10.8881h-4.3941v-15.9269h4.3782v2.0136l2.2178-2.0136h1.2764c.217-.0191.434-.0287.6542-.0287h1.9151c1.349 0 2.211.2904 2.817.8999.661.6382.919 1.4743.919 3.8294v11.2231h-4.378v-10.7126c0-.0606 0-.118 0-.1723zm-34.4639-9.4457h5.2335l-7.4992 9.5893 7.8342 10.8051h-5.5589l-5.9578-8.4915h-1.4137v8.4915h-4.7133v-20.3912h4.7037v7.9044h1.4105zm52.3339 4.4038h4.436v16.5938c0 2.7507-.287 3.2166-1.005 3.9697-.575.6095-1.494.8999-3.105.8999h-6.484l-1.998-2.2338v-.9382h8.172v-2.272h-5.587c-1.698 0-2.553-.3192-3.271-1.0148-.919-.9574-1.293-3.0475-1.293-6.9566 0-3.9092.46-6.0887 1.408-7.0716.718-.6956 1.64-.986 3.22-.986l3.302.0287 2.215 2.0136v-2.0296zm-5.744 12.4262h5.776v-8.9352h-5.776z" fill="#003459" fill-rule="evenodd"/></svg>