<svg width="45" height="40" viewBox="0 0 45 40" fill="none" xmlns="http://www.w3.org/2000/svg">
<path d="M14.699 32.947L13.5995 34.3372L16.0871 38.2094L15.8277 40H26.3808L27.1113 38.2094L22.8668 32.947H14.699Z" fill="url(#paint0_linear_2289_9547)"/>
<path d="M20.4705 9.38222L16.6533 16.0386L35.2718 37.9874L34.7421 40H43.2825L44.8276 32.8596L24.905 9.37858L20.4705 9.38222Z" fill="url(#paint1_linear_2289_9547)"/>
<path d="M23.0056 4.37813L21.1901 7.70813H25.694L33.4235 16.872L38.0187 13.1125V10.7251L36.4224 8.49058L37.6023 7.26776L28.3825 0L23.0056 4.37813Z" fill="url(#paint2_linear_2289_9547)"/>
<path d="M9.1467 22.9278H6.6299L0 31.3129V40H7.11207L8.36865 38.3732L13.8552 31.2947H21.7928L24.2366 27.5644L15.6305 17.3888L9.1467 22.9278Z" fill="url(#paint3_linear_2289_9547)"/>
<defs>
<linearGradient id="paint0_linear_2289_9547" x1="32.8977" y1="13.2258" x2="3.42555" y2="43.3513" gradientUnits="userSpaceOnUse">
<stop stop-color="#11A06B"/>
<stop offset="1" stop-color="#286FEB"/>
</linearGradient>
<linearGradient id="paint1_linear_2289_9547" x1="32.8977" y1="13.2258" x2="3.42555" y2="43.3513" gradientUnits="userSpaceOnUse">
<stop stop-color="#11A06B"/>
<stop offset="1" stop-color="#286FEB"/>
</linearGradient>
<linearGradient id="paint2_linear_2289_9547" x1="32.8977" y1="13.2258" x2="3.42555" y2="43.3513" gradientUnits="userSpaceOnUse">
<stop stop-color="#11A06B"/>
<stop offset="1" stop-color="#286FEB"/>
</linearGradient>
<linearGradient id="paint3_linear_2289_9547" x1="32.8977" y1="13.2258" x2="3.42555" y2="43.3513" gradientUnits="userSpaceOnUse">
<stop stop-color="#11A06B"/>
<stop offset="1" stop-color="#286FEB"/>
</linearGradient>
</defs>
</svg>
