<svg fill="none" height="31" viewBox="0 0 115 31" width="115" xmlns="http://www.w3.org/2000/svg"><path clip-rule="evenodd" d="m17.6798.299988h7.7458l-11.1271 14.078812 11.598 15.8799h-8.2167l-8.98856-12.7122h-1.92491v12.7122h-6.976291v-29.958712h6.976291v11.940312h1.83995zm19.6787 24.732612h5.583v-18.30733h6.5782v23.54563h-6.5904v-3.1265c-2.9953 2.6847-3.9809 3.1556-6.1194 3.1556h-2.8667c-2.0536 0-3.3401-.4272-4.2382-1.3254-.9418-.9855-1.3691-2.2259-1.3691-5.6509v-16.60571h6.5831v15.87511c0 .983.1311 1.5389.5146 1.9249.3835.3859.7695.5146 1.9249.5146zm50.5089-17.03782c-.8981-.89813-2.1846-1.32535-4.1945-1.32535h-2.0098c-2.226 0-3.2115.47092-6.4205 3.42257-.1467-.79651-.5348-1.52867-1.1117-2.09722-.9006-.89813-2.1846-1.32535-4.1945-1.32535h-2.0123c-2.1847 0-3.1241.42722-6.1631 3.1556v-3.10705h-6.554v23.54562h6.537v-18.3632h4.7188c1.1554 0 1.5826.17 1.9686.5559.3423.3423.5122.8981.5122 1.9249v15.8799h6.5539v-18.3607h4.6242c1.1554 0 1.5826.17 1.9686.5559.3422.3423.5146.8981.5146 1.9249v15.8799h6.634v-16.6081c0-3.4736-.3859-4.70911-1.3715-5.65822zm20.4606-1.27194c2.396 0 3.809.42964 4.663 1.32778 1.071 1.07047 1.423 2.31088 1.43 6.29178v15.9236h-6.554v-3.1216c-2.969 2.6677-3.954 3.1362-6.085 3.1362h-2.8671c-2.0536 0-3.3377-.4297-4.2382-1.3278-.9419-.9855-1.3691-2.2259-1.3691-5.6485v-.8957c.0753-2.4493.5122-4.0149 1.4419-4.947 1.0705-1.0705 2.4395-1.5827 6.6775-1.5827 2.165-.0018 4.324.2277 6.44.6845v-1.2452c0-2.3109-.133-2.7357-.432-3.0779-.301-.2573-.728-.3423-1.714-.3423l-10.7433-.0194v-2.15066c2.9541-2.68954 3.9444-3.0051 6.0853-3.0051zm-7.923 17.78786c.386.3859.77.5146 1.925.5146l5.527-.0049v-2.6021-2.5925l-7.9663.0365v2.7235c0 .9855.1283 1.5389.5143 1.9249z" fill="#290b53" fill-rule="evenodd"/></svg>