<svg width="64" height="64" viewBox="0 0 64 64" fill="none" xmlns="http://www.w3.org/2000/svg">
<path d="M32 10C19.8497 10 10 19.8497 10 32C10 44.1503 19.8497 54 32 54C44.1503 54 54 44.1503 54 32C54 19.8497 44.1503 10 32 10ZM32 12.2373C42.9146 12.2373 51.7627 21.0854 51.7627 32C51.7627 42.9146 42.9146 51.7627 32 51.7627C21.0854 51.7627 12.2373 42.9146 12.2373 32C12.2373 21.0854 21.0854 12.2373 32 12.2373Z" fill="#1B4B7C" stroke="#1B4B7C"/>
<path fill-rule="evenodd" clip-rule="evenodd" d="M31.9999 17C40.2843 17 47 23.7157 47 32C47 40.2843 40.2843 47 31.9999 47C23.7157 47 17 40.2843 17 32C17 29.9754 17.4011 28.0445 18.1282 26.2823C19.1899 27.728 20.902 28.6666 22.8333 28.6666C26.055 28.6666 28.6666 26.055 28.6666 22.8333C28.6666 20.902 27.7281 19.1899 26.2822 18.1282C28.0444 17.4011 29.9754 17 31.9999 17Z" fill="#1155CB"/>
</svg>
