<svg width="64" height="64" viewBox="0 0 64 64" fill="none" xmlns="http://www.w3.org/2000/svg">
<path fill-rule="evenodd" clip-rule="evenodd" d="M29.6817 8.83575C30.7785 8.30761 32.0562 8.30771 33.1529 8.83601L35.0829 9.76566C35.8736 10.1465 36.2957 11.0236 36.1001 11.8791C35.831 13.0561 34.5383 13.6782 33.4506 13.1543L32.5698 12.73C31.8402 12.3786 30.9904 12.3786 30.2608 12.7299L16.835 19.1955C15.7383 19.7237 14.9417 20.7225 14.6708 21.9093L11.4982 35.8091C11.2273 36.9958 11.5115 38.2413 12.2704 39.193L21.159 50.3407C21.9179 51.2925 23.0691 51.847 24.2865 51.847H38.5441C39.7615 51.847 40.9127 51.2925 41.6716 50.3407L50.5603 39.1929C51.3191 38.2412 51.6033 36.9958 51.3325 35.8092L49.6314 28.3552C49.5252 27.8897 49.6095 27.4011 49.8656 26.9981C50.2503 26.3929 50.9593 26.076 51.6668 26.1932L51.7639 26.2092C52.5398 26.3377 53.161 26.9224 53.336 27.6891L55.4019 36.7377C55.6728 37.9245 55.3886 39.17 54.6297 40.1218L43.4831 54.1014C42.7241 55.0532 41.573 55.6077 40.3556 55.6077H22.4769C21.2596 55.6077 20.1086 55.0533 19.3496 54.1016L8.201 40.1217C7.44205 39.17 7.15776 37.9244 7.42861 36.7377L11.4068 19.307C11.6777 18.1202 12.4743 17.1213 13.5712 16.5931L29.6817 8.83575ZM44.9165 8.83591C46.0133 8.30767 47.291 8.30767 48.3878 8.83591L51.443 10.3073C52.5395 10.8354 53.3359 11.8339 53.6069 13.0204L54.3623 16.3271C54.6334 17.5139 54.3492 18.7597 53.5902 19.7115L51.4762 22.3629C50.7172 23.3148 49.566 23.8692 48.3486 23.8692H44.9557C43.7383 23.8692 42.5872 23.3148 41.8282 22.3629L39.7141 19.7115C38.9551 18.7597 38.671 17.5139 38.9421 16.3271L39.6974 13.0204C39.9684 11.8339 40.7648 10.8354 41.8613 10.3073L44.9165 8.83591Z" fill="#1B4B7C"/>
<path d="M53.1787 11.143L46.6528 8L40.1269 11.143L38.5137 18.2052L43.0298 23.8692H50.2758L54.7919 18.2052L53.1787 11.143Z" fill="#1155CB"/>
<path d="M29.1739 32.369V25H25V42.8038H29.1739V36.543H31.2609L35.0508 42.8038H39.4167L32.9117 32.9096L39.233 25H34.721L29.1739 32.369Z" fill="#1155CB"/>
</svg>
