<svg width="16" height="16" xmlns="http://www.w3.org/2000/svg"><path d="M16 2.486c0-.916-1-1.833-2-1.833H2s-2 0-2 1.833v10.993c0 .399 0 1.832 2 1.832h12c1 0 2-.916 2-1.832V2.486zM2 3.402h12v9.16H2v-9.16zm6.496.647c-.53.51-.945 2.433-1.068 3.281-.198-.173-.425-.597-.548-.83-.151-.27-.312-.572-.473-.84-.132-.234-.311-.572-.434-.624-.227-.087-1.106-.035-1.37.19-.105.97-.17 3.88.292 4.45.473.105 1.087-.06 1.314-.181.028-.433-.047-.892-.095-1.316.34.554.936 1.272 1.144 1.49.217.025 1.418-.018 1.521-.14.17-.675.086-1.878.208-3.047.199.251.86 2.96 1.295 3.636.312-.06 1.002-.181 1.2-.233-.132-.373-1.285-5.152-1.672-5.75a3.55 3.55 0 0 0-1.314-.086z" fill="#AAB4BB" fill-rule="evenodd"/></svg>