<svg width="16" height="13" xmlns="http://www.w3.org/2000/svg"><path d="M16 1.98c-.589.239-1.22.4-1.885.473.677-.372 1.198-.962 1.443-1.664a6.95 6.95 0 0 1-2.084.73 3.428 3.428 0 0 0-2.397-.95c-1.813 0-3.282 1.347-3.282 3.008 0 .235.028.465.084.685-2.728-.126-5.146-1.323-6.766-3.142-.282.444-.444.96-.444 1.512 0 1.043.58 1.963 1.46 2.503A3.504 3.504 0 0 1 .643 4.76v.038c0 1.457 1.13 2.673 2.632 2.949a3.589 3.589 0 0 1-1.482.052c.418 1.194 1.63 2.063 3.066 2.088a6.976 6.976 0 0 1-4.076 1.288c-.265 0-.526-.014-.783-.042a9.926 9.926 0 0 0 5.032 1.35c6.037 0 9.34-4.582 9.34-8.556a8.4 8.4 0 0 0-.01-.39A6.38 6.38 0 0 0 16 1.98z" fill="#AAB4BB" fill-rule="evenodd"/></svg>