<?xml version="1.0" encoding="UTF-8" standalone="no"?>
<svg width="16px" height="16px" viewBox="0 0 16 16" version="1.1" xmlns="http://www.w3.org/2000/svg" xmlns:xlink="http://www.w3.org/1999/xlink">
    <!-- Generator: Sketch 3.7.2 (28276) - http://www.bohemiancoding.com/sketch -->
    <title>icn-meetup</title>
    <desc>Created with Sketch.</desc>
    <defs></defs>
    <g id="finals" stroke="none" stroke-width="1" fill="none" fill-rule="evenodd">
        <g id="Tablet-Portrait" transform="translate(-675.000000, -377.000000)" fill="#000000">
            <g id="└-subfooter" transform="translate(41.000000, 355.000000)">
                <g id="social-icons" transform="translate(562.000000, 22.000000)">
                    <path d="M88,2 C88,1 87,0 86,0 L74,0 C74,0 72,0 72,2 L72,14 C72,14.4350625 72,16 74,16 L86,16 C87,16 88,15 88,14 L88,2 Z M74,3 L86,3 L86,13 L74,13 L74,3 Z M80.4959375,4.70640625 C79.9668125,5.264125 79.5509063,7.362125 79.4282188,8.28840625 C79.2297188,8.09940625 79.0029063,7.63628125 78.879875,7.3810625 C78.728875,7.088 78.5680938,6.75728125 78.407375,6.46440625 C78.2752188,6.2091875 78.0955938,5.840625 77.9725625,5.783875 C77.7460938,5.68928125 76.8670938,5.7460625 76.6025313,5.9918125 C76.498375,7.05034375 76.4323438,10.2257812 76.8954375,10.849375 C77.3679688,10.962875 77.982375,10.7835 78.2091875,10.6510625 C78.2375,10.178125 78.1616875,9.6778125 78.1144688,9.21465625 C78.454875,9.819375 79.0500938,10.6034375 79.2580625,10.84025 C79.4754375,10.8682812 80.675625,10.8213437 80.7794063,10.6889062 C80.9495938,9.95178125 80.8646875,8.63803125 80.987375,7.362125 C81.185875,7.63625 81.8474375,10.5943125 82.28225,11.3314375 C82.5940313,11.2655625 83.2839375,11.133125 83.4824063,11.076375 C83.3502813,10.67 82.1973125,5.45315625 81.8097188,4.801 C81.3749063,4.68746875 80.9307188,4.64034375 80.4959375,4.70640625 L80.4959375,4.70640625 L80.4959375,4.70640625 Z" id="icn-meetup"></path>
                </g>
            </g>
        </g>
    </g>
</svg>