<svg xmlns="http://www.w3.org/2000/svg" viewBox="0 0 324.39 79.1"><style type="text/css">.mash { fill: #333; } .ape { fill: #66b942; }</style><path d="M0 64.443V20.118h4.638c1.112 0 1.812.537 2.1 1.612l.575 4.55c1.637-2.012 3.462-3.662 5.487-4.95 2.025-1.287 4.387-1.925 7.063-1.925 3 0 5.437.838 7.287 2.5 1.85 1.663 3.188 3.913 4 6.738.613-1.6 1.425-2.988 2.425-4.163 1.012-1.162 2.137-2.125 3.387-2.887s2.588-1.313 4-1.663c1.413-.35 2.85-.525 4.313-.525 2.338 0 4.412.375 6.238 1.113 1.825.75 3.375 1.825 4.637 3.262 1.275 1.425 2.238 3.188 2.913 5.275.675 2.088 1.012 4.475 1.012 7.15v28.213h-7.787V36.206c0-3.475-.763-6.1-2.275-7.9-1.513-1.8-3.725-2.688-6.6-2.688-1.288 0-2.5.225-3.65.675-1.163.475-2.188 1.138-3.05 2.013-.888.875-1.575 1.975-2.088 3.3-.512 1.325-.762 2.862-.762 4.625v28.214h-7.788V36.23c0-3.562-.712-6.212-2.137-7.962s-3.513-2.625-6.25-2.625c-1.925 0-3.713.513-5.363 1.55-1.663 1.025-3.163 2.438-4.538 4.225v33.025H0zM81.843 59.675c1.375 0 2.625-.138 3.762-.413 1.138-.275 2.213-.675 3.213-1.187 1.013-.513 1.975-1.138 2.888-1.863.912-.725 1.812-1.562 2.687-2.487v-9.15c-3.587 0-6.637.225-9.137.688-2.513.45-4.55 1.05-6.125 1.775-1.573.737-2.723 1.612-3.436 2.6-.712 1-1.062 2.112-1.062 3.35 0 1.175.188 2.187.576 3.037.362.85.875 1.55 1.512 2.088.65.537 1.413.937 2.288 1.187.875.25 1.812.375 2.837.375m20.213 4.763h-3.463c-.762 0-1.362-.113-1.837-.35-.463-.238-.775-.725-.925-1.488l-.862-4.112c-1.16 1.05-2.3 2-3.41 2.825-1.114.837-2.276 1.537-3.5 2.1-1.226.575-2.526 1-3.914 1.3-1.387.287-2.925.437-4.612.437-1.724 0-3.337-.237-4.837-.725-1.5-.487-2.812-1.212-3.912-2.175-1.112-.962-1.987-2.187-2.65-3.662-.65-1.475-.987-3.225-.987-5.25 0-1.763.488-3.45 1.45-5.075.963-1.625 2.513-3.063 4.663-4.325 2.15-1.263 4.95-2.288 8.426-3.1 3.476-.813 7.713-1.213 12.738-1.213V36.15c0-3.462-.737-6.087-2.212-7.862-1.475-1.775-3.65-2.663-6.538-2.663-1.9 0-3.487.238-4.787.725-1.3.475-2.424 1.025-3.362 1.613-.95.6-1.762 1.137-2.45 1.612-.687.475-1.362.725-2.037.725-.524 0-.987-.137-1.374-.412-.388-.275-.713-.625-.938-1.025l-1.4-2.488c2.45-2.362 5.088-4.125 7.925-5.3 2.826-1.162 5.964-1.75 9.4-1.75 2.476 0 4.69.413 6.614 1.225 1.925.813 3.55 1.95 4.85 3.413 1.312 1.462 2.3 3.225 2.975 5.3.675 2.075 1.012 4.35 1.012 6.825v28.35zM138.694 27.432c-.35.637-.887.963-1.613.963-.435 0-.935-.163-1.485-.488-.55-.325-1.238-.675-2.038-1.075-.8-.388-1.762-.763-2.862-1.1-1.113-.338-2.425-.5-3.938-.5-1.312 0-2.5.162-3.55.5-1.05.337-1.95.8-2.687 1.375-.74.587-1.314 1.262-1.7 2.037-.39.775-.59 1.613-.59 2.513 0 1.137.326 2.087.99 2.837.66.763 1.524 1.413 2.6 1.963 1.074.55 2.3 1.05 3.674 1.462 1.375.423 2.775.873 4.225 1.35 1.45.473 2.85 1.01 4.223 1.6 1.375.586 2.6 1.31 3.675 2.186 1.074.875 1.95 1.95 2.6 3.212.66 1.262.986 2.787.986 4.574 0 2.038-.362 3.925-1.087 5.663-.726 1.737-1.814 3.237-3.24 4.5-1.424 1.275-3.174 2.263-5.25 3-2.074.725-4.46 1.087-7.174 1.087-3.087 0-5.887-.5-8.4-1.512-2.512-1.012-4.637-2.3-6.387-3.875l1.836-2.975c.238-.375.513-.675.838-.875.325-.2.75-.312 1.262-.312.525 0 1.075.2 1.663.612.586.413 1.286.863 2.124 1.363.836.5 1.836.95 3.024 1.35 1.174.412 2.66.612 4.436.612 1.513 0 2.85-.2 3.988-.587 1.137-.4 2.087-.926 2.85-1.6.762-.676 1.325-1.438 1.687-2.326.364-.876.55-1.813.55-2.8 0-1.226-.324-2.238-.986-3.038-.65-.8-1.526-1.488-2.6-2.05-1.076-.576-2.314-1.064-3.7-1.488-1.39-.425-2.8-.863-4.24-1.338-1.45-.462-2.86-1-4.25-1.6-1.386-.6-2.61-1.35-3.7-2.25-1.074-.9-1.95-2.025-2.6-3.35-.65-1.325-.986-2.938-.986-4.838 0-1.688.35-3.325 1.05-4.875.7-1.562 1.724-2.937 3.06-4.112 1.34-1.175 2.99-2.125 4.95-2.825 1.95-.7 4.19-1.05 6.7-1.05 2.914 0 5.54.463 7.85 1.375 2.264.988 4.276 2.25 5.964 3.85l-1.75 2.85zM148.394 64.443V-.007h7.788v26.075c1.9-2.013 4-3.625 6.3-4.838 2.3-1.212 4.962-1.812 7.962-1.812 2.425 0 4.55.4 6.413 1.2 1.85.8 3.4 1.937 4.637 3.412 1.238 1.475 2.188 3.238 2.825 5.313.635 2.075.96 4.362.96 6.875V64.43h-7.787V36.218c0-3.35-.762-5.963-2.3-7.813-1.525-1.85-3.875-2.775-7.025-2.775-2.3 0-4.45.55-6.45 1.663s-3.85 2.613-5.54 4.513v32.637h-7.786z" class="mash"/><path d="M209.8 57.705c1.113 0 2.125-.1 3.063-.3.937-.2 1.812-.5 2.65-.9.825-.413 1.625-.9 2.4-1.487.775-.588 1.562-1.288 2.35-2.088v-7.512c-3.15 0-5.788.187-7.9.587-2.113.4-3.813.9-5.1 1.525-1.288.613-2.188 1.338-2.738 2.163-.538.812-.8 1.712-.8 2.675 0 1.912.563 3.275 1.688 4.1 1.112.825 2.574 1.237 4.387 1.237m21 6.738h-4.85c-1.025 0-1.825-.15-2.4-.463-.588-.3-1.025-.925-1.313-1.862l-.975-3.188c-1.137 1.025-2.25 1.925-3.35 2.688-1.087.775-2.225 1.425-3.387 1.95-1.162.525-2.4.925-3.712 1.187-1.313.263-2.775.388-4.375.388-1.9 0-3.65-.263-5.25-.775-1.6-.513-2.975-1.275-4.138-2.3-1.15-1.025-2.05-2.3-2.688-3.825-.637-1.525-.962-3.288-.962-5.313 0-1.7.45-3.375 1.338-5.025.887-1.65 2.375-3.15 4.437-4.475 2.075-1.337 4.825-2.437 8.263-3.312 3.437-.875 7.712-1.325 12.825-1.325v-2.65c0-3.025-.638-5.275-1.9-6.725-1.276-1.45-3.113-2.188-5.538-2.188-1.75 0-3.212.2-4.375.613-1.163.412-2.175.862-3.038 1.375-.862.512-1.65.975-2.387 1.375-.725.412-1.538.612-2.412.612-.725 0-1.35-.187-1.875-.575-.525-.375-.95-.85-1.263-1.4l-1.962-3.45c5.162-4.725 11.387-7.087 18.675-7.087 2.625 0 4.962.425 7.025 1.287 2.062.863 3.8 2.063 5.225 3.588 1.425 1.525 2.512 3.362 3.262 5.487s1.113 4.463 1.113 7v28.35zM259.393 27.256c-2.25 0-4.162.475-5.75 1.425-1.588.95-3.075 2.277-4.438 4v20.127c1.225 1.525 2.563 2.575 4 3.175 1.438.6 3 .9 4.663.9 1.638 0 3.113-.3 4.438-.912 1.325-.612 2.45-1.55 3.375-2.8.926-1.25 1.626-2.837 2.126-4.75.5-1.912.75-4.162.75-6.762 0-2.625-.212-4.85-.637-6.675-.426-1.824-1.026-3.3-1.814-4.436-.787-1.138-1.737-1.963-2.862-2.488-1.15-.54-2.425-.8-3.85-.8m-21 51.836v-59.55h6.612c.7 0 1.3.163 1.8.475.5.326.813.814.963 1.49l.874 4.15c1.813-2.076 3.887-3.75 6.238-5.04 2.35-1.286 5.1-1.924 8.25-1.924 2.45 0 4.688.513 6.713 1.525 2.025 1.026 3.775 2.5 5.25 4.44 1.475 1.936 2.612 4.324 3.412 7.174.8 2.838 1.2 6.1 1.2 9.776 0 3.35-.45 6.462-1.35 9.312-.9 2.863-2.2 5.338-3.875 7.438-1.675 2.1-3.7 3.737-6.087 4.925-2.375 1.188-5.038 1.776-7.987 1.776-2.538 0-4.688-.387-6.45-1.162-1.763-.775-3.35-1.85-4.75-3.212v18.376h-10.8zM305.18 26.6c-3.15 0-5.612.886-7.387 2.66-1.775 1.776-2.912 4.3-3.412 7.576h20.3c0-1.4-.186-2.712-.56-3.962-.388-1.238-.976-2.325-1.763-3.25-.787-.937-1.775-1.675-2.975-2.212-1.2-.538-2.6-.813-4.2-.813m-.212-7.75c2.825 0 5.438.45 7.813 1.36 2.376.9 4.426 2.226 6.15 3.963 1.726 1.738 3.063 3.863 4.026 6.388.96 2.526 1.45 5.4 1.45 8.638 0 .812-.04 1.5-.114 2.037-.075.537-.2.962-.387 1.262-.19.312-.45.524-.764.65-.325.137-.725.2-1.225.2h-27.74c.326 4.612 1.563 7.987 3.713 10.15 2.163 2.162 5.013 3.237 8.575 3.237 1.75 0 3.263-.2 4.525-.613 1.263-.41 2.375-.86 3.325-1.35.95-.5 1.775-.95 2.5-1.36.713-.414 1.413-.614 2.075-.614.438 0 .813.087 1.138.262.327.175.6.425.84.737l3.15 3.937c-1.2 1.4-2.538 2.575-4.026 3.525-1.487.95-3.037 1.712-4.662 2.275-1.612.562-3.262.962-4.95 1.2-1.674.237-3.3.35-4.874.35-3.125 0-6.025-.513-8.7-1.55-2.688-1.038-5.013-2.563-7-4.6-1.988-2.025-3.538-4.538-4.675-7.525-1.137-2.988-1.712-6.45-1.712-10.388 0-3.064.5-5.94 1.49-8.638.986-2.7 2.41-5.05 4.26-7.05 1.85-2 4.114-3.588 6.79-4.75 2.66-1.163 5.674-1.75 9.036-1.75" class="ape"/></svg>