<svg width="64" height="64" viewBox="0 0 64 64" fill="none" xmlns="http://www.w3.org/2000/svg">
<path fill-rule="evenodd" clip-rule="evenodd" d="M48.6667 12C50.5083 12 52 13.4917 52 15.3333V48.6667C52 50.5083 50.5083 52 48.6667 52H15.3333C13.4917 52 12 50.5083 12 48.6667V15.3333C12 13.4917 13.4917 12 15.3333 12H48.6667ZM48.6667 25.3333H15.3333V48.6667H48.6667V25.3333ZM48.6667 15.3333H15.3333V22H48.6667V15.3333ZM22 17V20.3333H18.6667V17H22ZM28.6667 17V20.3333H25.3333V17H28.6667ZM45.3333 17V20.3333H32V17H45.3333Z" fill="#1B4B7C"/>
<path d="M30 33.25C30 31.75 29.532 31 27.971 31C26.471 31 26 31.812 26 33.25V34H25C23.44 34 23 34.75 23 36.25V42.25C23 43.779 23.44 44.042 25 44.042H39C40.563 44.042 41.004 43.779 41.004 42.25V36.25C41.004 34.75 40.563 34 39 34H38V33.25C38 31.812 37.471 31 35.971 31C34.409 31 34 31.75 34 33.25V34H30V33.25Z" fill="#1155CB"/>
</svg>
