<svg width="48" height="48" viewBox="0 0 48 48" fill="none" xmlns="http://www.w3.org/2000/svg">
<rect x="0.5" y="0.5" width="47" height="47" rx="9.5" fill="white" stroke="url(#paint0_linear_1912_8350)"/>
<path fill-rule="evenodd" clip-rule="evenodd" d="M20.9613 13.7395C21.1217 12.7286 22.0021 12 23.0116 12H24.7516C25.7718 12 26.6297 12.7381 26.8007 13.733L26.8012 13.7357L27.1193 15.6278C27.9059 15.9433 28.6337 16.3718 29.286 16.8858L31.077 16.2182C31.0775 16.218 31.078 16.2178 31.0785 16.2176C32.0385 15.8566 33.0978 16.2539 33.6077 17.1192L33.6115 17.1256L34.4856 18.6428C34.9795 19.5226 34.7849 20.6436 33.9976 21.2895C33.9975 21.2897 33.9978 21.2894 33.9976 21.2895L32.5238 22.5028C32.5826 22.9155 32.6116 23.3387 32.6116 23.76C32.6116 24.1839 32.5822 24.6029 32.5233 25.0167L33.9982 26.231C34.7868 26.8804 34.998 28.0039 34.4798 28.8872L33.6078 30.4008C33.0978 31.2661 32.0384 31.6635 31.0785 31.3023C31.078 31.3021 31.0775 31.302 31.077 31.3018L29.2886 30.6352C28.6331 31.1559 27.9041 31.5794 27.1192 31.8927L26.8018 33.7805C26.6415 34.7914 25.7611 35.52 24.7516 35.52H23.0116C21.9913 35.52 21.1334 34.7819 20.9624 33.787L20.962 33.7843L20.6439 31.8922C19.8572 31.5767 19.1295 31.1482 18.4772 30.6342L16.6862 31.3018C16.6857 31.302 16.6852 31.3021 16.6847 31.3023C15.7248 31.6635 14.6654 31.2661 14.1554 30.4008L14.1517 30.3944L13.2776 28.8772C12.7836 27.9973 12.9783 26.8762 13.7657 26.2303C13.7656 26.2304 13.7658 26.2302 13.7657 26.2303L15.2394 25.0172C15.1806 24.6045 15.1516 24.1813 15.1516 23.76C15.1516 23.3361 15.181 22.9171 15.2399 22.5033L13.7649 21.289C12.9763 20.6396 12.7652 19.5161 13.2834 18.6328L14.1554 17.1192C14.6653 16.2539 15.7247 15.8565 16.6847 16.2177C16.6852 16.2178 16.6857 16.218 16.6862 16.2182L18.4746 16.8848C19.13 16.3641 19.8591 15.9406 20.644 15.6273L20.9613 13.7395ZM23.0116 13.5C22.7227 13.5 22.4843 13.7091 22.4426 13.9758L22.4413 13.9843L22.0512 16.3043C22.0055 16.5763 21.8141 16.8013 21.553 16.8901C20.6472 17.1981 19.824 17.6776 19.1185 18.3017C18.911 18.4853 18.6192 18.5395 18.3596 18.4428L16.1596 17.6228L16.157 17.6218C15.8982 17.5242 15.5996 17.6259 15.4492 17.8782L14.5778 19.3908C14.4386 19.6269 14.488 19.9413 14.7182 20.131C14.7182 20.1309 14.7183 20.131 14.7182 20.131L16.5282 21.621C16.741 21.7961 16.8406 22.0739 16.7876 22.3443C16.6971 22.8058 16.6516 23.2775 16.6516 23.76C16.6516 24.244 16.6973 24.7245 16.787 25.1729C16.8413 25.4442 16.7418 25.7232 16.5282 25.899L14.7171 27.39C14.5056 27.5634 14.4401 27.8804 14.5839 28.1399L15.4492 29.6417C15.5995 29.8941 15.8982 29.9958 16.157 29.8982L16.1596 29.8972L18.3596 29.0772C18.6174 28.9812 18.9071 29.0339 19.1144 29.2147C19.8253 29.8344 20.6509 30.3232 21.553 30.6299C21.8141 30.7187 22.0055 30.9437 22.0512 31.2157L22.4407 33.533C22.4408 33.5333 22.4409 33.5337 22.4409 33.534C22.4904 33.8186 22.7322 34.02 23.0116 34.02H24.7516C25.0405 34.02 25.2789 33.8109 25.3206 33.5442L25.3219 33.5357L25.712 31.2157C25.7577 30.9437 25.949 30.7187 26.2102 30.6299C27.116 30.3219 27.9391 29.8424 28.6446 29.2183C28.8521 29.0347 29.1439 28.9805 29.4035 29.0772L31.6035 29.8972L31.6062 29.8982C31.865 29.9958 32.1636 29.8942 32.3139 29.6418L33.1854 28.1292C33.3245 27.8931 33.2752 27.5787 33.0449 27.389C33.0449 27.389 33.045 27.3891 33.0449 27.389L31.2349 25.899C31.0221 25.7239 30.9226 25.4461 30.9756 25.1757C31.0661 24.7142 31.1116 24.2425 31.1116 23.76C31.1116 23.276 31.0658 22.7955 30.9761 22.3471C30.9219 22.0758 31.0214 21.7968 31.2349 21.621L33.046 20.13C33.2575 19.9566 33.3231 19.6396 33.1792 19.3801L32.3139 17.8782C32.1636 17.6259 31.865 17.5242 31.6062 17.6218L31.6035 17.6228L29.4035 18.4428C29.1458 18.5388 28.8561 18.4861 28.6487 18.3053C27.9379 17.6856 27.1123 17.1968 26.2102 16.8901C25.949 16.8013 25.7577 16.5763 25.712 16.3043L25.3224 13.987C25.3224 13.9867 25.3223 13.9863 25.3222 13.986C25.2728 13.7014 25.031 13.5 24.7516 13.5H23.0116Z" fill="black"/>
<path fill-rule="evenodd" clip-rule="evenodd" d="M23.8711 21.51C22.6285 21.51 21.6211 22.5174 21.6211 23.76C21.6211 25.0027 22.6285 26.01 23.8711 26.01C25.1137 26.01 26.1211 25.0027 26.1211 23.76C26.1211 22.5174 25.1137 21.51 23.8711 21.51ZM20.1211 23.76C20.1211 21.6889 21.8 20.01 23.8711 20.01C25.9422 20.01 27.6211 21.6889 27.6211 23.76C27.6211 25.8311 25.9422 27.51 23.8711 27.51C21.8 27.51 20.1211 25.8311 20.1211 23.76Z" fill="black"/>
<defs>
<linearGradient id="paint0_linear_1912_8350" x1="48" y1="1.5" x2="-1.32557" y2="46.5486" gradientUnits="userSpaceOnUse">
<stop offset="0.0500911" stop-color="#E9EEF7"/>
<stop offset="0.359305" stop-color="#11A06B"/>
<stop offset="0.651214" stop-color="#286FEB"/>
<stop offset="1" stop-color="#E9EEF7"/>
</linearGradient>
</defs>
</svg>
