<svg width="48" height="48" viewBox="0 0 48 48" fill="none" xmlns="http://www.w3.org/2000/svg">
<rect x="0.5" y="0.5" width="47" height="47" rx="9.5" fill="white" stroke="url(#paint0_linear_1912_8601)"/>
<path fill-rule="evenodd" clip-rule="evenodd" d="M27.2368 13.4743C27.8496 12.5081 29.2691 12.5081 29.8819 13.4743L34.437 20.6594C35.1018 21.7085 34.3242 23.0352 33.1144 23.0352H24.0043C22.7964 23.0352 22.0143 21.7098 22.6819 20.659C22.6819 20.659 22.682 20.6589 22.6819 20.659L27.2368 13.4743ZM28.5035 14.2777L23.9485 21.4626C23.9404 21.4753 23.94 21.4817 23.94 21.4831C23.94 21.4868 23.941 21.4949 23.9467 21.5049C23.9524 21.515 23.9601 21.5225 23.9675 21.527C23.973 21.5303 23.9831 21.5352 24.0043 21.5352H33.1144C33.1355 21.5352 33.1455 21.5303 33.1508 21.5271C33.1581 21.5227 33.1658 21.5153 33.1715 21.5052C33.1771 21.4951 33.1783 21.487 33.1782 21.4831C33.1782 21.4814 33.1782 21.4753 33.1702 21.4626M33.1702 21.4626L28.6152 14.2777C28.6077 14.2659 28.6009 14.2609 28.5946 14.2576C28.5865 14.2533 28.5743 14.2497 28.5593 14.2497C28.5443 14.2497 28.5321 14.2533 28.5241 14.2576C28.5177 14.2609 28.511 14.2659 28.5035 14.2777" fill="black"/>
<path fill-rule="evenodd" clip-rule="evenodd" d="M18.3093 24.9876C16.0278 24.9876 14.1782 26.8372 14.1782 29.1188C14.1782 31.4003 16.0278 33.2499 18.3093 33.2499C20.5909 33.2499 22.4405 31.4003 22.4405 29.1188C22.4405 26.8372 20.5909 24.9876 18.3093 24.9876ZM12.6782 29.1188C12.6782 26.0088 15.1994 23.4876 18.3093 23.4876C21.4193 23.4876 23.9405 26.0088 23.9405 29.1188C23.9405 32.2287 21.4193 34.7499 18.3093 34.7499C15.1994 34.7499 12.6782 32.2287 12.6782 29.1188Z" fill="black"/>
<path fill-rule="evenodd" clip-rule="evenodd" d="M26.3457 26.9712C26.3457 26.1255 27.031 25.4402 27.8767 25.4402H34.1245C34.9702 25.4402 35.6555 26.1255 35.6555 26.9712V33.219C35.6555 34.0647 34.9702 34.75 34.1245 34.75H27.8767C27.031 34.75 26.3457 34.0647 26.3457 33.219V26.9712ZM34.1245 26.9402H27.8767C27.8594 26.9402 27.8457 26.9539 27.8457 26.9712V33.219C27.8457 33.2363 27.8594 33.25 27.8767 33.25H34.1245C34.1418 33.25 34.1555 33.2363 34.1555 33.219V26.9712C34.1555 26.9539 34.1418 26.9402 34.1245 26.9402Z" fill="black"/>
<defs>
<linearGradient id="paint0_linear_1912_8601" x1="48" y1="1.5" x2="-1.32557" y2="46.5486" gradientUnits="userSpaceOnUse">
<stop offset="0.0500911" stop-color="#E9EEF7"/>
<stop offset="0.359305" stop-color="#11A06B"/>
<stop offset="0.651214" stop-color="#286FEB"/>
<stop offset="1" stop-color="#E9EEF7"/>
</linearGradient>
</defs>
</svg>
