<svg width="48" height="48" viewBox="0 0 48 48" fill="none" xmlns="http://www.w3.org/2000/svg">
<rect x="0.5" y="0.5" width="47" height="47" rx="9.5" fill="white" stroke="url(#paint0_linear_2998_5384)"/>
<path fill-rule="evenodd" clip-rule="evenodd" d="M26.843 13.0946C27.1314 13.0369 27.4314 13 27.7501 13C30.6443 13 33.0001 15.3558 33.0001 18.25C33.0001 21.1442 30.6443 23.5 27.7501 23.5C27.4299 23.5 27.1296 23.4519 26.8915 23.4138L26.8716 23.4106C26.4626 23.3451 26.1841 22.9605 26.2496 22.5515C26.315 22.1425 26.6996 21.864 27.1086 21.9294C27.3674 21.9708 27.5593 22 27.7501 22C29.8159 22 31.5001 20.3158 31.5001 18.25C31.5001 16.1842 29.8159 14.5 27.7501 14.5C27.5489 14.5 27.3489 14.5231 27.1372 14.5654C26.7311 14.6467 26.3359 14.3833 26.2547 13.9771C26.1735 13.5709 26.4369 13.1758 26.843 13.0946ZM19.75 26C17.6688 26 15.7548 26.6489 14.3456 27.7315C12.9357 28.8146 12 30.3633 12 32.13V33.75C12 34.1642 12.3358 34.5 12.75 34.5C13.1642 34.5 13.5 34.1642 13.5 33.75V32.13C13.5 30.9267 14.1343 29.7854 15.2594 28.921C16.3852 28.0561 17.9712 27.5 19.75 27.5C21.528 27.5 23.1141 28.0582 24.2402 28.9245C25.3661 29.7905 26 30.9322 26 32.13V33.75C26 34.1642 26.3358 34.5 26.75 34.5C27.1642 34.5 27.5 34.1642 27.5 33.75V32.13C27.5 30.3678 26.5639 28.8195 25.1548 27.7355C23.7459 26.6518 21.832 26 19.75 26ZM28.8983 26.0753C28.487 26.0264 28.1139 26.3201 28.0649 26.7314C28.0159 27.1427 28.3097 27.5159 28.721 27.5648C31.8747 27.9403 33.9996 29.9702 33.9996 32.1301V33.7501C33.9996 34.1643 34.3354 34.5001 34.7496 34.5001C35.1639 34.5001 35.4996 34.1643 35.4996 33.7501V32.1301C35.4996 28.9099 32.4646 26.4999 28.8983 26.0753ZM16 18.25C16 16.1789 17.6789 14.5 19.75 14.5C21.8211 14.5 23.5 16.1789 23.5 18.25C23.5 20.3211 21.8211 22 19.75 22C17.6789 22 16 20.3211 16 18.25ZM19.75 13C16.8505 13 14.5 15.3505 14.5 18.25C14.5 21.1495 16.8505 23.5 19.75 23.5C22.6495 23.5 25 21.1495 25 18.25C25 15.3505 22.6495 13 19.75 13Z" fill="black"/>
<defs>
<linearGradient id="paint0_linear_2998_5384" x1="48" y1="1.5" x2="-1.32557" y2="46.5486" gradientUnits="userSpaceOnUse">
<stop offset="0.0500911" stop-color="#E9EEF7"/>
<stop offset="0.359305" stop-color="#11A06B"/>
<stop offset="0.651214" stop-color="#286FEB"/>
<stop offset="1" stop-color="#E9EEF7"/>
</linearGradient>
</defs>
</svg>
