<svg width="48" height="48" viewBox="0 0 48 48" fill="none" xmlns="http://www.w3.org/2000/svg">
<rect x="0.5" y="0.5" width="47" height="47" rx="9.5" fill="white" stroke="url(#paint0_linear_428_2628)"/>
<path fill-rule="evenodd" clip-rule="evenodd" d="M14.4605 27.018C14.7874 27.2723 14.8463 27.7435 14.592 28.0704C14.0488 28.7688 13.75 29.5505 13.75 30.38V33C13.75 33.4142 13.4142 33.75 13 33.75C12.5858 33.75 12.25 33.4142 12.25 33V30.38C12.25 29.1695 12.6912 28.0712 13.408 27.1495C13.6623 26.8226 14.1335 26.7637 14.4605 27.018Z" fill="black"/>
<path fill-rule="evenodd" clip-rule="evenodd" d="M33.5396 27.018C33.8665 26.7637 34.3377 26.8226 34.592 27.1495C35.3089 28.0712 35.75 29.1695 35.75 30.38V33C35.75 33.4142 35.4142 33.75 35 33.75C34.5858 33.75 34.25 33.4142 34.25 33V30.38C34.25 29.5505 33.9512 28.7688 33.408 28.0704C33.1537 27.7435 33.2126 27.2723 33.5396 27.018Z" fill="black"/>
<path fill-rule="evenodd" clip-rule="evenodd" d="M20.25 18.5C20.25 16.4289 21.9289 14.75 24 14.75C26.0711 14.75 27.75 16.4289 27.75 18.5C27.75 20.5711 26.0711 22.25 24 22.25C21.9289 22.25 20.25 20.5711 20.25 18.5ZM24 13.25C21.1005 13.25 18.75 15.6005 18.75 18.5C18.75 21.3995 21.1005 23.75 24 23.75C26.8995 23.75 29.25 21.3995 29.25 18.5C29.25 15.6005 26.8995 13.25 24 13.25ZM24 26.25C21.9188 26.25 20.0048 26.8989 18.5956 27.9815C17.1857 29.0646 16.25 30.6133 16.25 32.38V34C16.25 34.4142 16.5858 34.75 17 34.75C17.4142 34.75 17.75 34.4142 17.75 34V32.38C17.75 31.1767 18.3843 30.0354 19.5094 29.171C20.6352 28.3061 22.2212 27.75 24 27.75C25.778 27.75 27.3641 28.3082 28.4902 29.1745C29.6161 30.0405 30.25 31.1822 30.25 32.38V34C30.25 34.4142 30.5858 34.75 31 34.75C31.4142 34.75 31.75 34.4142 31.75 34V32.38C31.75 30.6178 30.8139 29.0695 29.4048 27.9855C27.9959 26.9018 26.082 26.25 24 26.25Z" fill="black"/>
<path fill-rule="evenodd" clip-rule="evenodd" d="M31.7624 17.0094C31.9616 16.6462 32.4174 16.5132 32.7806 16.7124C33.9313 17.3434 34.75 18.5647 34.75 20C34.75 21.9922 33.207 23.5911 31.2627 23.7282C30.8496 23.7573 30.491 23.446 30.4618 23.0328C30.4327 22.6196 30.7441 22.261 31.1572 22.2319C32.333 22.149 33.25 21.1878 33.25 20C33.25 19.1553 32.7687 18.4166 32.0594 18.0276C31.6962 17.8285 31.5632 17.3726 31.7624 17.0094Z" fill="black"/>
<path fill-rule="evenodd" clip-rule="evenodd" d="M16.2376 17.0094C16.4368 17.3726 16.3038 17.8285 15.9406 18.0276C15.2313 18.4166 14.75 19.1553 14.75 20C14.75 21.1878 15.667 22.149 16.8428 22.2319C17.2559 22.261 17.5673 22.6196 17.5381 23.0328C17.509 23.446 17.1504 23.7573 16.7372 23.7282C14.793 23.5911 13.25 21.9922 13.25 20C13.25 18.5647 14.0687 17.3434 15.2194 16.7124C15.5826 16.5132 16.0384 16.6462 16.2376 17.0094Z" fill="black"/>
<defs>
<linearGradient id="paint0_linear_428_2628" x1="48" y1="1.5" x2="-1.32557" y2="46.5486" gradientUnits="userSpaceOnUse">
<stop offset="0.0500911" stop-color="#E9EEF7"/>
<stop offset="0.359305" stop-color="#11A06B"/>
<stop offset="0.651214" stop-color="#286FEB"/>
<stop offset="1" stop-color="#E9EEF7"/>
</linearGradient>
</defs>
</svg>
