<?xml version="1.0" encoding="UTF-8"?>
<svg width="437px" height="392px" viewBox="0 0 437 392" version="1.1" xmlns="http://www.w3.org/2000/svg" xmlns:xlink="http://www.w3.org/1999/xlink">
    <!-- Generator: Sketch 63.1 (92452) - https://sketch.com -->
    <title>diagram-connectivity</title>
    <desc>Created with Sketch.</desc>
    <defs>
        <linearGradient x1="52.1847788%" y1="0%" x2="54.2278997%" y2="100%" id="linearGradient-1">
            <stop stop-color="#EE485D" offset="0%"></stop>
            <stop stop-color="#00AB60" stop-opacity="0.2" offset="17.2462777%"></stop>
            <stop stop-color="#FF0020" offset="48.9178632%"></stop>
            <stop stop-color="#008FFF" stop-opacity="0.5" offset="79.8298942%"></stop>
            <stop stop-color="#EE485D" offset="100%"></stop>
        </linearGradient>
    </defs>
    <g id="Page-1" stroke="none" stroke-width="1" fill="none" fill-rule="evenodd">
        <g id="Homepage" transform="translate(-775.000000, -1929.000000)">
            <g id="---Feature--02" transform="translate(164.000000, 1865.001161)">
                <g id="diagram-connectivity" transform="translate(611.000000, 64.000000)">
                    <path d="M226,112.5 C202.942112,112.5 182.067112,121.846056 166.956584,136.956584 C151.846056,152.067112 142.5,172.942112 142.5,196 C142.5,219.057888 151.846056,239.932888 166.956584,255.043416 C182.067112,270.153944 202.942112,279.5 226,279.5 C249.057888,279.5 269.932888,270.153944 285.043416,255.043416 C300.153944,239.932888 309.5,219.057888 309.5,196 C309.5,172.942112 300.153944,152.067112 285.043416,136.956584 C269.932888,121.846056 249.057888,112.5 226,112.5 Z" id="bg" stroke="url(#linearGradient-1)" fill="#FFFFFF"></path>
                    <g id="Group-25" transform="translate(176.000000, 0.000000)">
                        <rect id="Rectangle-3" stroke="#AFC1CD" fill="#FFFFFF" x="36.5" y="104.5" width="30" height="17" rx="2"></rect>
                        <rect id="Rectangle" stroke="#AFC1CD" fill="#FFFFFF" x="0.5" y="0.5" width="102" height="87" rx="2"></rect>
                        <rect id="Rectangle" stroke="#AFC1CD" fill="#FFFFFF" x="36.5" y="67.5" width="30" height="17" rx="2"></rect>
                        <rect id="Rectangle" stroke="#AFC1CD" fill="#FFFFFF" x="3.5" y="67.5" width="30" height="17" rx="2"></rect>
                        <rect id="Rectangle" stroke="#AFC1CD" fill="#FFFFFF" x="69.5" y="67.5" width="30" height="17" rx="2"></rect>
                        <rect id="Rectangle" stroke="#AFC1CD" fill="#FFFFFF" x="36.5" y="47.5" width="30" height="17" rx="2"></rect>
                        <g id="Group-26" transform="translate(35.000000, 14.000000)">
                            <path d="M28.594124,10.627 C28.006124,10.627 27.418124,10.559 26.853124,10.423 C26.287124,10.287 25.847124,10.141 25.553124,9.971 C25.372124,9.869 25.247124,9.756 25.202124,9.654 C25.157124,9.553 25.134124,9.44 25.134124,9.338 L25.134124,8.762 C25.134124,8.523 25.225124,8.411 25.395124,8.411 C25.462124,8.411 25.531124,8.422 25.598124,8.444 C25.666124,8.468 25.768124,8.513 25.881124,8.558 C26.265124,8.728 26.683124,8.863 27.124124,8.953 C27.576124,9.044 28.017124,9.089 28.469124,9.089 C29.182124,9.089 29.736124,8.965 30.120124,8.716 C30.504124,8.468 30.708124,8.106 30.708124,7.642 C30.708124,7.325 30.606124,7.065 30.403124,6.851 C30.199124,6.636 29.815124,6.443 29.261124,6.263 L27.621124,5.754 C26.796124,5.494 26.186124,5.109 25.813124,4.601 C25.440124,4.104 25.247124,3.55 25.247124,2.962 C25.247124,2.487 25.349124,2.068 25.553124,1.707 C25.756124,1.346 26.028124,1.028 26.366124,0.78 C26.706124,0.52 27.090124,0.328 27.542124,0.192 C27.994124,0.057 28.469124,8.8817842e-16 28.967124,8.8817842e-16 C29.215124,8.8817842e-16 29.476124,0.012 29.724124,0.045 C29.985124,0.079 30.222124,0.124 30.459124,0.17 C30.685124,0.226 30.900124,0.282 31.104124,0.351 C31.307124,0.418 31.465124,0.486 31.578124,0.554 C31.737124,0.645 31.850124,0.734 31.917124,0.837 C31.986124,0.927 32.019124,1.052 32.019124,1.21 L32.019124,1.741 C32.019124,1.979 31.929124,2.103 31.759124,2.103 C31.669124,2.103 31.522124,2.058 31.329124,1.967 C30.685124,1.673 29.962124,1.526 29.159124,1.526 C28.515124,1.526 28.006124,1.628 27.656124,1.843 C27.305124,2.058 27.124124,2.386 27.124124,2.849 C27.124124,3.165 27.238124,3.437 27.463124,3.651 C27.690124,3.866 28.108124,4.081 28.707124,4.273 L30.312124,4.782 C31.126124,5.042 31.714124,5.403 32.065124,5.867 C32.415124,6.331 32.584124,6.862 32.584124,7.45 C32.584124,7.936 32.483124,8.377 32.290124,8.762 C32.087124,9.146 31.816124,9.484 31.465124,9.756 C31.115124,10.039 30.697124,10.242 30.210124,10.389 C29.701124,10.548 29.170124,10.627 28.594124,10.627 L28.594124,10.627 Z M14.067124,10.321 C13.864124,10.321 13.728124,10.287 13.638124,10.208 C13.547124,10.141 13.468124,9.982 13.400124,9.768 L10.743124,1.028 C10.676124,0.803 10.642124,0.655 10.642124,0.576 C10.642124,0.396 10.732124,0.294 10.913124,0.294 L12.021124,0.294 C12.236124,0.294 12.383124,0.328 12.462124,0.407 C12.552124,0.475 12.620124,0.633 12.688124,0.848 L14.587124,8.332 L16.351124,0.848 C16.407124,0.622 16.475124,0.475 16.566124,0.407 C16.656124,0.339 16.814124,0.294 17.018124,0.294 L17.922124,0.294 C18.137124,0.294 18.283124,0.328 18.374124,0.407 C18.465124,0.475 18.544124,0.633 18.589124,0.848 L20.375124,8.422 L22.331124,0.848 C22.399124,0.622 22.478124,0.475 22.557124,0.407 C22.648124,0.339 22.794124,0.294 22.998124,0.294 L24.049124,0.294 C24.230124,0.294 24.332124,0.385 24.332124,0.576 C24.332124,0.633 24.321124,0.689 24.309124,0.758 C24.298124,0.825 24.276124,0.916 24.230124,1.04 L21.506124,9.778 C21.438124,10.005 21.359124,10.151 21.268124,10.22 C21.178124,10.287 21.031124,10.333 20.839124,10.333 L19.866124,10.333 C19.652124,10.333 19.505124,10.299 19.414124,10.22 C19.323124,10.141 19.244124,9.993 19.199124,9.768 L17.448124,2.476 L15.706124,9.756 C15.650124,9.982 15.582124,10.129 15.491124,10.208 C15.401124,10.287 15.242124,10.321 15.039124,10.321 L14.067124,10.321 Z M4.99012396,9.101 C5.36312396,9.101 5.74612396,9.032 6.15412396,8.897 C6.56112396,8.762 6.92212396,8.513 7.22812396,8.174 C7.40812396,7.959 7.54412396,7.722 7.61212396,7.45 C7.68012396,7.179 7.72512396,6.851 7.72512396,6.467 L7.72512396,5.991 C7.39712396,5.912 7.04712396,5.845 6.68512396,5.8 C6.32312396,5.754 5.97312396,5.731 5.62212396,5.731 C4.86512396,5.731 4.31112396,5.879 3.93812396,6.184 C3.56512396,6.489 3.38412396,6.919 3.38412396,7.483 C3.38412396,8.015 3.52012396,8.411 3.80212396,8.682 C4.07312396,8.965 4.46912396,9.101 4.99012396,9.101 L4.99012396,9.101 Z M9.57912396,7.382 C9.57912396,7.801 9.62412396,8.14 9.70312396,8.388 C9.79412396,8.637 9.90712396,8.908 10.065124,9.202 C10.121124,9.293 10.144124,9.383 10.144124,9.462 C10.144124,9.575 10.076124,9.689 9.93012396,9.802 L9.21712396,10.276 C9.11512396,10.344 9.01412396,10.378 8.92312396,10.378 C8.81012396,10.378 8.69812396,10.321 8.58412396,10.22 C8.42612396,10.05 8.29012396,9.869 8.17712396,9.689 C8.06412396,9.496 7.95112396,9.281 7.82612396,9.022 C6.94512396,10.062 5.83712396,10.581 4.50312396,10.581 C3.55412396,10.581 2.79612396,10.31 2.24212396,9.768 C1.68812396,9.225 1.40612396,8.501 1.40612396,7.597 C1.40612396,6.636 1.74412396,5.856 2.43512396,5.268 C3.12412396,4.681 4.03912396,4.387 5.20412396,4.387 C5.58812396,4.387 5.98412396,4.42 6.40312396,4.477 C6.82112396,4.533 7.25012396,4.624 7.70212396,4.726 L7.70212396,3.9 C7.70212396,3.041 7.52212396,2.441 7.17112396,2.092 C6.80912396,1.741 6.19812396,1.571 5.32812396,1.571 C4.93312396,1.571 4.52612396,1.616 4.10812396,1.719 C3.68912396,1.82 3.28212396,1.944 2.88712396,2.103 C2.70512396,2.182 2.57012396,2.227 2.49012396,2.25 C2.41112396,2.273 2.35512396,2.283 2.31012396,2.283 C2.15212396,2.283 2.07312396,2.171 2.07312396,1.933 L2.07312396,1.379 C2.07312396,1.198 2.09512396,1.063 2.15212396,0.983 C2.20812396,0.904 2.31012396,0.825 2.46812396,0.746 C2.86412396,0.543 3.33912396,0.373 3.89312396,0.237 C4.44712396,0.091 5.03412396,0.023 5.65712396,0.023 C7.00112396,0.023 7.98512396,0.328 8.61812396,0.939 C9.24012396,1.549 9.55712396,2.476 9.55712396,3.72 L9.55712396,7.382 L9.57912396,7.382 Z" id="Fill-73" fill="#252F3E"></path>
                            <path d="M30.730824,16.1211 C27.010824,18.8681 21.607824,20.3261 16.960824,20.3261 C10.449824,20.3261 4.58282396,17.9181 0.150823957,13.9161 C-0.200176043,13.6001 0.116823957,13.1701 0.535823957,13.4191 C5.32882396,16.2001 11.240824,17.8841 17.356824,17.8841 C21.482824,17.8841 26.015824,17.0251 30.187824,15.2621 C30.809824,14.9781 31.340824,15.6691 30.730824,16.1211" id="Fill-75" fill="#FF9900"></path>
                            <path d="M32.279624,14.3575 C31.803624,13.7475 29.135624,14.0635 27.926624,14.2105 C27.564624,14.2555 27.508624,13.9385 27.836624,13.7015 C29.962624,12.2095 33.455624,12.6385 33.861624,13.1355 C34.268624,13.6445 33.749624,17.1375 31.758624,18.8115 C31.454624,19.0715 31.160624,18.9355 31.296624,18.5965 C31.748624,17.4775 32.754624,14.9565 32.279624,14.3575" id="Fill-77" fill="#FF9900"></path>
                        </g>
                        <rect id="Rectangle" stroke="#AFC1CD" fill="#FFFFFF" x="3.5" y="47.5" width="30" height="17" rx="2"></rect>
                        <rect id="Rectangle" stroke="#AFC1CD" fill="#FFFFFF" x="69.5" y="47.5" width="30" height="17" rx="2"></rect>
                        <rect id="Rectangle" fill="#B64288" x="53" y="108" width="10" height="10"></rect>
                        <rect id="Rectangle" fill="#B64288" x="53" y="71" width="10" height="10"></rect>
                        <rect id="Rectangle" fill="#B64288" x="20" y="71" width="10" height="10"></rect>
                        <rect id="Rectangle" fill="#B64288" x="86" y="71" width="10" height="10"></rect>
                        <rect id="Rectangle" fill="#B64288" x="53" y="51" width="10" height="10"></rect>
                        <rect id="Rectangle" fill="#B64288" x="20" y="51" width="10" height="10"></rect>
                        <rect id="Rectangle" fill="#B64288" x="86" y="51" width="10" height="10"></rect>
                        <polygon id="Rectangle" fill="#B64288" opacity="0.6" points="58 57 59 57 59 113 58 113"></polygon>
                        <polygon id="Rectangle" fill="#B64288" opacity="0.6" points="90 57 91 57 91 80 90 80"></polygon>
                        <polygon id="Rectangle" fill="#B64288" opacity="0.6" points="25 57 26 57 26 80 25 80"></polygon>
                        <polygon id="Rectangle" fill="#B64288" opacity="0.6" transform="translate(60.500000, 55.500000) rotate(-270.000000) translate(-60.500000, -55.500000) " points="60 24 61 24 61 87 60 87"></polygon>
                        <polygon id="Rectangle" fill="#B64288" opacity="0.6" transform="translate(42.500000, 66.500000) rotate(-246.000000) translate(-42.500000, -66.500000) " points="42 50 43 50 43 83 42 83"></polygon>
                        <polygon id="Rectangle" fill="#B64288" opacity="0.6" transform="translate(75.276868, 66.500000) rotate(-246.000000) translate(-75.276868, -66.500000) " points="74.7768684 50 75.7768684 50 75.7768684 83 74.7768684 83"></polygon>
                        <polygon id="Rectangle" fill="#B64288" opacity="0.6" transform="translate(41.500000, 66.500000) scale(-1, 1) rotate(-246.000000) translate(-41.500000, -66.500000) " points="41 50 42 50 42 83 41 83"></polygon>
                        <polygon id="Rectangle" fill="#B64288" opacity="0.6" transform="translate(74.276868, 66.500000) scale(-1, 1) rotate(-246.000000) translate(-74.276868, -66.500000) " points="73.7768684 50 74.7768684 50 74.7768684 83 73.7768684 83"></polygon>
                        <polygon id="Rectangle" fill="#B64288" opacity="0.6" transform="translate(60.500000, 76.500000) rotate(-270.000000) translate(-60.500000, -76.500000) " points="60 45 61 45 61 108 60 108"></polygon>
                    </g>
                    <g id="Group-25" transform="translate(0.000000, 138.000000)">
                        <rect id="Rectangle-3" stroke="#AFC1CD" fill="#FFFFFF" x="120.5" y="46.5" width="30" height="17" rx="2"></rect>
                        <rect id="Rectangle" stroke="#AFC1CD" fill="#FFFFFF" x="0.5" y="0.5" width="102" height="87" rx="2"></rect>
                        <rect id="Rectangle" stroke="#AFC1CD" fill="#FFFFFF" x="36.5" y="67.5" width="30" height="17" rx="2"></rect>
                        <rect id="Rectangle" stroke="#AFC1CD" fill="#FFFFFF" x="3.5" y="67.5" width="30" height="17" rx="2"></rect>
                        <rect id="Rectangle" stroke="#AFC1CD" fill="#FFFFFF" x="69.5" y="67.5" width="30" height="17" rx="2"></rect>
                        <rect id="Rectangle" stroke="#AFC1CD" fill="#FFFFFF" x="36.5" y="47.5" width="30" height="17" rx="2"></rect>
                        <rect id="Rectangle" stroke="#AFC1CD" fill="#FFFFFF" x="3.5" y="47.5" width="30" height="17" rx="2"></rect>
                        <rect id="Rectangle" stroke="#AFC1CD" fill="#FFFFFF" x="69.5" y="47.5" width="30" height="17" rx="2"></rect>
                        <rect id="Rectangle" fill="#B64288" x="137" y="50" width="10" height="10"></rect>
                        <rect id="Rectangle" fill="#B64288" x="53" y="71" width="10" height="10"></rect>
                        <rect id="Rectangle" fill="#B64288" x="20" y="71" width="10" height="10"></rect>
                        <rect id="Rectangle" fill="#B64288" x="86" y="71" width="10" height="10"></rect>
                        <rect id="Rectangle" fill="#B64288" x="53" y="51" width="10" height="10"></rect>
                        <rect id="Rectangle" fill="#B64288" x="20" y="51" width="10" height="10"></rect>
                        <rect id="Rectangle" fill="#B64288" x="86" y="51" width="10" height="10"></rect>
                        <polygon id="Rectangle" fill="#B64288" opacity="0.6" transform="translate(118.500000, 55.000000) rotate(-90.000000) translate(-118.500000, -55.000000) " points="118 27 119 27 119 83 118 83"></polygon>
                        <polygon id="Rectangle" fill="#B64288" opacity="0.6" points="90 57 91 57 91 80 90 80"></polygon>
                        <polygon id="Rectangle" fill="#B64288" opacity="0.6" points="25 57 26 57 26 80 25 80"></polygon>
                        <polygon id="Rectangle" fill="#B64288" opacity="0.6" transform="translate(60.500000, 55.500000) rotate(-270.000000) translate(-60.500000, -55.500000) " points="60 24 61 24 61 87 60 87"></polygon>
                        <polygon id="Rectangle" fill="#B64288" opacity="0.6" transform="translate(42.500000, 66.500000) rotate(-246.000000) translate(-42.500000, -66.500000) " points="42 50 43 50 43 83 42 83"></polygon>
                        <polygon id="Rectangle" fill="#B64288" opacity="0.6" transform="translate(75.276868, 66.500000) rotate(-246.000000) translate(-75.276868, -66.500000) " points="74.7768684 50 75.7768684 50 75.7768684 83 74.7768684 83"></polygon>
                        <polygon id="Rectangle" fill="#B64288" opacity="0.6" transform="translate(41.500000, 66.500000) scale(-1, 1) rotate(-246.000000) translate(-41.500000, -66.500000) " points="41 50 42 50 42 83 41 83"></polygon>
                        <polygon id="Rectangle" fill="#B64288" opacity="0.6" transform="translate(74.276868, 66.500000) scale(-1, 1) rotate(-246.000000) translate(-74.276868, -66.500000) " points="73.7768684 50 74.7768684 50 74.7768684 83 73.7768684 83"></polygon>
                        <polygon id="Rectangle" fill="#B64288" opacity="0.6" transform="translate(60.500000, 76.500000) rotate(-270.000000) translate(-60.500000, -76.500000) " points="60 45 61 45 61 108 60 108"></polygon>
                        <polygon id="Rectangle" fill="#B64288" opacity="0.6" points="58 57 59 57 59 80 58 80"></polygon>
                    </g>
                    <g id="Group-25" transform="translate(287.000000, 138.000000)">
                        <rect id="Rectangle-3" stroke="#AFC1CD" fill="#FFFFFF" x="0.5" y="46.5" width="30" height="17" rx="2"></rect>
                        <rect id="Rectangle" stroke="#AFC1CD" fill="#FFFFFF" x="47.5" y="0.5" width="102" height="87" rx="2"></rect>
                        <rect id="Rectangle" stroke="#AFC1CD" fill="#FFFFFF" x="83.5" y="67.5" width="30" height="17" rx="2"></rect>
                        <rect id="Rectangle" stroke="#AFC1CD" fill="#FFFFFF" x="50.5" y="67.5" width="30" height="17" rx="2"></rect>
                        <rect id="Rectangle" stroke="#AFC1CD" fill="#FFFFFF" x="116.5" y="67.5" width="30" height="17" rx="2"></rect>
                        <rect id="Rectangle" stroke="#AFC1CD" fill="#FFFFFF" x="83.5" y="47.5" width="30" height="17" rx="2"></rect>
                        <rect id="Rectangle" stroke="#AFC1CD" fill="#FFFFFF" x="50.5" y="47.5" width="30" height="17" rx="2"></rect>
                        <rect id="Rectangle" stroke="#AFC1CD" fill="#FFFFFF" x="116.5" y="47.5" width="30" height="17" rx="2"></rect>
                        <rect id="Rectangle" fill="#B64288" x="17" y="50" width="10" height="10"></rect>
                        <rect id="Rectangle" fill="#B64288" x="100" y="71" width="10" height="10"></rect>
                        <rect id="Rectangle" fill="#B64288" x="67" y="71" width="10" height="10"></rect>
                        <rect id="Rectangle" fill="#B64288" x="133" y="71" width="10" height="10"></rect>
                        <rect id="Rectangle" fill="#B64288" x="100" y="51" width="10" height="10"></rect>
                        <rect id="Rectangle" fill="#B64288" x="67" y="51" width="10" height="10"></rect>
                        <rect id="Rectangle" fill="#B64288" x="133" y="51" width="10" height="10"></rect>
                        <polygon id="Rectangle" fill="#B64288" opacity="0.6" transform="translate(45.500000, 55.000000) rotate(-90.000000) translate(-45.500000, -55.000000) " points="45 27 46 27 46 83 45 83"></polygon>
                        <polygon id="Rectangle" fill="#B64288" opacity="0.6" points="137 57 138 57 138 80 137 80"></polygon>
                        <polygon id="Rectangle" fill="#B64288" opacity="0.6" points="72 57 73 57 73 80 72 80"></polygon>
                        <polygon id="Rectangle" fill="#B64288" opacity="0.6" transform="translate(107.500000, 55.500000) rotate(-270.000000) translate(-107.500000, -55.500000) " points="107 24 108 24 108 87 107 87"></polygon>
                        <polygon id="Rectangle" fill="#B64288" opacity="0.6" transform="translate(89.500000, 66.500000) rotate(-246.000000) translate(-89.500000, -66.500000) " points="89 50 90 50 90 83 89 83"></polygon>
                        <polygon id="Rectangle" fill="#B64288" opacity="0.6" transform="translate(122.276868, 66.500000) rotate(-246.000000) translate(-122.276868, -66.500000) " points="121.776868 50 122.776868 50 122.776868 83 121.776868 83"></polygon>
                        <polygon id="Rectangle" fill="#B64288" opacity="0.6" transform="translate(88.500000, 66.500000) scale(-1, 1) rotate(-246.000000) translate(-88.500000, -66.500000) " points="88 50 89 50 89 83 88 83"></polygon>
                        <polygon id="Rectangle" fill="#B64288" opacity="0.6" transform="translate(121.276868, 66.500000) scale(-1, 1) rotate(-246.000000) translate(-121.276868, -66.500000) " points="120.776868 50 121.776868 50 121.776868 83 120.776868 83"></polygon>
                        <polygon id="Rectangle" fill="#B64288" opacity="0.6" transform="translate(107.500000, 76.500000) rotate(-270.000000) translate(-107.500000, -76.500000) " points="107 45 108 45 108 108 107 108"></polygon>
                    </g>
                    <g id="google-cloud-seeklogo.com" transform="translate(40.000000, 151.000000)" fill-rule="nonzero">
                        <path d="M15.8193311,5.33346155 L17.8637541,3.24460945 L18,2.36506313 C14.2745068,-1.09614406 8.35235896,-0.70368054 4.99398546,3.1839705 C4.06111924,4.26373798 3.369049,5.6099038 3,7 L3.73221821,6.89458586 L7.82097249,6.20568613 L8.13664398,5.8758328 C9.95542993,3.83494742 13.0306546,3.56038253 15.1306601,5.2968529 L15.8193311,5.33346155 Z" id="Path" fill="#EA4335"></path>
                        <path d="M20.9154425,6.85597937 C20.4192193,4.97865029 19.4004822,3.29098766 17.9839904,2 L14.9540697,5.11280218 C16.2334817,6.18681461 16.9623429,7.80480995 16.9311046,9.50184129 L16.9311046,10.0543956 C18.4203564,10.0543956 19.6277844,11.2947524 19.6277844,12.8247417 C19.6277844,14.3548306 18.4203564,15.5640913 16.9311046,15.5640913 L11.5302749,15.5640913 L11,16.1555157 L11,19.4784161 L11.5302749,19.9997746 L16.9311046,19.9997746 C20.8048473,20.0307711 23.9696165,16.8608597 23.9997877,12.8811532 C24.0180262,10.4689109 22.860366,8.20746495 20.9154425,6.85597937" id="Path" fill="#4285F4"></path>
                        <path d="M6.95831318,19.9999317 L12,19.9999317 L12,15.2657184 L6.95831318,15.2657184 C6.59909311,15.2656121 6.25120919,15.1750891 5.92454655,15 L5.20928053,15.2574214 L3.17702539,17.624528 L3,18.4301931 C4.13969166,19.4395615 5.53022975,20.007165 6.95831318,19.9999317" id="Path" fill="#34A853"></path>
                        <path d="M6.66008977,6 C2.95975736,6.0239177 -0.0219334551,9.29002895 0.000121567666,13.2949369 C0.0124464333,15.5313866 0.977492683,17.6366463 2.61540246,19 L5.60376538,15.7656833 C4.30724512,15.1316982 3.73112715,13.480288 4.31688261,12.0771159 C4.9025454,10.6739438 6.42841937,10.0503898 7.7247543,10.6842745 C8.29605352,10.9636051 8.75355625,11.4588777 9.01163708,12.0771159 L12,8.84279919 C10.7285001,7.04375 8.7528149,5.99192256 6.66008977,6" id="Path" fill="#FBBC05"></path>
                    </g>
                    <g id="Group-25" transform="translate(227.500000, 331.000000) scale(-1, 1) rotate(-180.000000) translate(-227.500000, -331.000000) translate(176.000000, 270.000000)">
                        <rect id="Rectangle-3" stroke="#AFC1CD" fill="#FFFFFF" x="36.5" y="104.5" width="30" height="17" rx="2"></rect>
                        <rect id="Rectangle" stroke="#AFC1CD" fill="#FFFFFF" x="0.5" y="0.5" width="102" height="87" rx="2"></rect>
                        <rect id="Rectangle" stroke="#AFC1CD" fill="#FFFFFF" x="36.5" y="67.5" width="30" height="17" rx="2"></rect>
                        <rect id="Rectangle" stroke="#AFC1CD" fill="#FFFFFF" x="3.5" y="67.5" width="30" height="17" rx="2"></rect>
                        <rect id="Rectangle" stroke="#AFC1CD" fill="#FFFFFF" x="69.5" y="67.5" width="30" height="17" rx="2"></rect>
                        <rect id="Rectangle" stroke="#AFC1CD" fill="#FFFFFF" x="36.5" y="47.5" width="30" height="17" rx="2"></rect>
                        <path d="M52.748,16.89 L49.149,27.033 L56.049,35.701 L42.664,38 L64.601,38 L52.748,16.89 Z M51.626,15.179 L43.194,22.491 L36,35.406 L42.487,35.406 L51.626,15.179 Z" id="Fill-176" fill="#0072C6" transform="translate(50.300500, 26.589500) scale(-1, -1) translate(-50.300500, -26.589500) "></path>
                        <rect id="Rectangle" stroke="#AFC1CD" fill="#FFFFFF" x="3.5" y="47.5" width="30" height="17" rx="2"></rect>
                        <rect id="Rectangle" stroke="#AFC1CD" fill="#FFFFFF" x="69.5" y="47.5" width="30" height="17" rx="2"></rect>
                        <rect id="Rectangle" fill="#B64288" x="53" y="108" width="10" height="10"></rect>
                        <rect id="Rectangle" fill="#B64288" x="53" y="71" width="10" height="10"></rect>
                        <rect id="Rectangle" fill="#B64288" x="20" y="71" width="10" height="10"></rect>
                        <rect id="Rectangle" fill="#B64288" x="86" y="71" width="10" height="10"></rect>
                        <rect id="Rectangle" fill="#B64288" x="53" y="51" width="10" height="10"></rect>
                        <rect id="Rectangle" fill="#B64288" x="20" y="51" width="10" height="10"></rect>
                        <rect id="Rectangle" fill="#B64288" x="86" y="51" width="10" height="10"></rect>
                        <polygon id="Rectangle" fill="#B64288" opacity="0.6" points="58 57 59 57 59 113 58 113"></polygon>
                        <polygon id="Rectangle" fill="#B64288" opacity="0.6" points="90 57 91 57 91 80 90 80"></polygon>
                        <polygon id="Rectangle" fill="#B64288" opacity="0.6" points="25 57 26 57 26 80 25 80"></polygon>
                        <polygon id="Rectangle" fill="#B64288" opacity="0.6" transform="translate(60.500000, 55.500000) rotate(-270.000000) translate(-60.500000, -55.500000) " points="60 24 61 24 61 87 60 87"></polygon>
                        <polygon id="Rectangle" fill="#B64288" opacity="0.6" transform="translate(42.500000, 66.500000) rotate(-246.000000) translate(-42.500000, -66.500000) " points="42 50 43 50 43 83 42 83"></polygon>
                        <polygon id="Rectangle" fill="#B64288" opacity="0.6" transform="translate(75.276868, 66.500000) rotate(-246.000000) translate(-75.276868, -66.500000) " points="74.7768684 50 75.7768684 50 75.7768684 83 74.7768684 83"></polygon>
                        <polygon id="Rectangle" fill="#B64288" opacity="0.6" transform="translate(41.500000, 66.500000) scale(-1, 1) rotate(-246.000000) translate(-41.500000, -66.500000) " points="41 50 42 50 42 83 41 83"></polygon>
                        <polygon id="Rectangle" fill="#B64288" opacity="0.6" transform="translate(74.276868, 66.500000) scale(-1, 1) rotate(-246.000000) translate(-74.276868, -66.500000) " points="73.7768684 50 74.7768684 50 74.7768684 83 73.7768684 83"></polygon>
                        <polygon id="Rectangle" fill="#B64288" opacity="0.6" transform="translate(60.500000, 76.500000) rotate(-270.000000) translate(-60.500000, -76.500000) " points="60 45 61 45 61 108 60 108"></polygon>
                    </g>
                    <g id="Kuma-logo" transform="translate(199.000000, 175.000000)" fill-rule="nonzero">
                        <path d="M7.03414634,36.1914815 C7.21170732,35.2322222 8.4,25.4888889 23.4243902,24.4885185 C38.7219512,23.7074074 40.1697561,33.3274074 40.1697561,36.2051852 L46.8214634,36.2051852 C47.5180488,31.1759259 43.7892683,12.6348148 21.5258537,15.54 C5.54536585,17.6092593 4.98536585,35.1911111 4.98536585,36.2051852 L7.03414634,36.1914815 Z" id="Path" fill="#EE485D"></path>
                        <path d="M24.7629268,36.1914815 C24.7629268,36.1914815 18.2887805,20.3362963 40.5385366,3.30259259 C41.2760976,-0.315185185 43.0380488,2.2337037 43.0380488,2.2337037 L45.6468293,3.00111111 C45.6468293,3.00111111 50.1678049,4.22074074 50.5092683,4.78259259 C51.0556098,5.68703704 51.2058537,6.56407407 51.6839024,6.71481481 C52.1619512,6.86555556 55.1941463,8.08518519 55.1941463,8.08518519 L54.2790244,10.497037 C50.1021545,11.6721518 46.1729365,13.5991456 42.6829268,16.1840741 C35.9356098,21.6655556 29.2429268,30.4359259 30.0214634,36.2462963 L24.7629268,36.1914815 Z" id="Path" fill="#3DB664" style="mix-blend-mode: multiply;"></path>
                        <path d="M51.6839024,6.74222222 C51.2058537,6.59148148 51.0829268,5.74185185 50.5229268,4.85111111 C50.195122,4.28925926 43.0380488,2.24740741 43.0380488,2.24740741 C43.0380488,2.24740741 41.2760976,-0.274074074 40.5385366,3.33 C40.5385366,3.33 36.2907317,3.75481481 31.7970732,4.27555556 C25.7736585,4.97444444 17.9063415,3.94666667 11.0087805,9.03074074 C-0.259512195,17.3351852 1.44780488,34.272963 1.44780488,36.2051852 L3.22341463,36.2051852 C3.22341463,35.4925926 3.41463415,18.1025926 17.9063415,13.2925926 C34.8019512,7.49592593 42.6829268,16.1292593 42.6829268,16.1292593 C46.1952075,13.5845941 50.1178392,11.665466 54.2790244,10.4559259 L55.1941463,8.04407407 C55.1941463,8.04407407 52.1482927,6.85185185 51.6839024,6.74222222 Z" id="Path" fill="#00CDDE" style="mix-blend-mode: multiply;"></path>
                        <path d="M14.0273171,36.1914815 L19.9141463,36.1914815 C20.610789,34.7254949 21.2219012,33.220116 21.7443902,31.682963 C23.52,26.4755556 26.3063415,18.4862963 20.2965854,16.4033333 C10.8312195,13.6625926 7.38926829,21.4325926 6.05073171,24.0774074 C4.27903572,27.8742777 3.31609439,32.0001477 3.22341463,36.1914815 L4.98536585,36.1914815 C5.14370462,33.8452666 5.65009328,31.5358883 6.48780488,29.3396296 C9.04195122,23.5703704 13.2078049,22.9537037 15.3795122,23.6251852 C18.7531707,24.6666667 14.4234146,35.3144444 14.0273171,36.1914815 Z" id="Path" fill="#006ED9" opacity="0.9" style="mix-blend-mode: multiply;"></path>
                        <path d="M18.7941463,16.0881481 C19.6908006,15.8382538 20.6035232,15.6505269 21.5258537,15.5262963 C23.9425861,15.1890746 26.3901209,15.133892 28.8195122,15.3618519 C29.724008,14.0018431 30.7092008,12.6976373 31.7697561,11.4562963 C27.0655495,11.0270835 22.3251141,11.6543659 17.8926829,13.2925926 C14.3877791,14.4328218 11.2858475,16.5647191 8.96,19.4318519 C11.3479426,16.5467819 15.1499748,15.2540546 18.7941463,16.0881481 L18.7941463,16.0881481 Z" id="Path" fill="#00E8C2"></path>
                    </g>
                    <g id="VMware_logo" transform="translate(359.000000, 158.000000)" fill="#7498BF" fill-rule="nonzero">
                        <path d="M11.3838076,-5.77315973e-14 C10.5498645,-5.77315973e-14 9.82920114,0.32647191 9.27845528,0.880898876 C9.20243902,0.37105618 8.84248027,0.0719100548 8.27235772,0.0719101124 C8.23882114,0.0719101124 6.05521799,0.0719100548 6.0552168,0.0719101124 C5.43292683,0.0719101124 5.17879344,0.504089888 5.06775068,0.826966292 L3.63313008,4.96179775 L3.61449864,4.96179775 L2.17987805,0.826966292 C2.07107046,0.504089888 1.79756157,0.0719100548 1.17378049,0.0719101124 C0.568631436,0.0719101124 0,0.424269663 0,1.09662921 C0,1.28431461 0.0417338211,1.44611236 0.149051491,1.70786517 L2.40345528,7.13707865 C2.62107046,7.67496629 2.85061095,8 3.61449864,8 C4.37764228,8 4.60867268,7.67496572 4.82554201,7.13707865 L7.15447154,1.61797753 L7.15447154,6.8494382 C7.15447154,7.54696629 7.61876753,8 8.27235772,8 C8.92222222,8 9.39024331,7.54696629 9.3902439,6.8494382 L9.3902439,3.2 C9.3902439,2.35649438 9.78746732,1.74382022 10.7130759,1.74382022 C11.529878,1.74382022 12.0359085,2.35649438 12.0359079,3.2 L12.0359079,6.8494382 C12.0359079,7.54696629 12.5031837,8 13.153794,8 C13.8044038,8 14.2716796,7.54696629 14.2716802,6.8494382 L14.2716802,3.2 C14.2716802,2.35649438 14.7635507,1.74382022 15.5945122,1.74382022 C16.4105691,1.74382022 16.917343,2.35649438 16.9173442,3.2 L16.9173442,6.8494382 C16.9173442,7.54696629 17.3846224,8 18.0352304,8 C18.6865854,8 19.1531165,7.54696629 19.1531165,6.8494382 L19.1531165,2.82247191 C19.1531165,0.991640449 17.9212078,-5.77315973e-14 16.097561,-5.77315973e-14 C15.32771,-5.77315973e-14 14.3327907,0.391191011 13.7127371,1.06067416 C13.1210027,0.362426966 12.3235784,-5.77315973e-14 11.3838076,-5.77315973e-14 Z M20.4759485,0.0719101124 C20.0079268,0.0719101124 19.8238482,0.397662921 19.8238482,0.647191011 C19.8238482,0.778067416 19.8722894,0.960719101 19.9356369,1.1505618 L22.2086721,7.33483146 C22.3949864,7.82957303 22.6207989,8 23.0098238,8 C23.3839431,8 23.6045393,7.82957361 23.7737127,7.33483146 L25.5623306,2.10337079 L25.5809621,2.10337079 L27.3695799,7.33483146 C27.5394986,7.82957303 27.7608401,8 28.1334688,8 C28.524729,8 28.7490539,7.82957361 28.9346206,7.33483146 L31.2076558,1.1505618 C31.2687669,0.962157303 31.3194444,0.778067416 31.3194444,0.647191011 C31.3194444,0.398382022 31.1361099,0.0719101124 30.6673442,0.0719101124 C30.3729675,0.0719101124 30.0890244,0.182651685 29.9034553,0.737078652 L28.1334688,6.04044944 L28.1148374,6.04044944 L26.3821138,0.934831461 C26.1957995,0.380404494 26.0601626,0.0719101124 25.5623306,0.0719101124 C25.0637534,0.0719101124 24.950476,0.380404494 24.7611789,0.934831461 L23.0284553,6.04044944 L22.9911924,6.04044944 L21.2398374,0.737078652 C21.050542,0.181932584 20.7718163,0.0719101124 20.4759485,0.0719101124 Z M35.5301491,0.0719101124 C33.1892936,0.0719101124 31.8783875,1.984 31.8783875,4.04494382 C31.8783875,6.10588707 33.1892954,8 35.5301491,8 C36.4199847,8 37.2107046,7.62894382 37.8031843,6.8494382 L37.8218157,6.8494382 L37.8218157,7.38876404 C37.8218157,7.83820225 38.1907182,8 38.473916,8 C38.7392276,8 39.1073848,7.83820225 39.1073848,7.38876404 L39.1073848,0.701123596 C39.1073848,0.253123423 38.7392276,0.0719101124 38.473916,0.0719101124 C38.1907182,0.0719101124 37.8218157,0.253123596 37.8218157,0.701123596 L37.8218157,1.11460674 L37.8031843,1.11460674 C37.1644986,0.464539326 36.4833333,0.0719101124 35.5301491,0.0719101124 Z M49.0379404,0.0719101124 C46.7142276,0.0719101124 45.3116531,1.93582022 45.3116531,4.04494382 C45.3116531,6.10301181 46.4809621,8 49.1310976,8 C50.750542,8 52.4474932,7.06301124 52.4474932,6.43595506 C52.4474932,6.07137021 52.1941057,5.86067416 51.9444444,5.86067416 C51.4317073,5.86067416 50.9562331,6.90337079 49.1310976,6.90337079 C47.5906504,6.90337079 46.6903794,5.87721348 46.6903794,4.54831461 L51.8512873,4.54831461 C52.4430217,4.54831461 52.6151762,4.31820225 52.6151762,3.86516854 C52.6151762,1.99119101 51.297561,0.0719101124 49.0379404,0.0719101124 Z M54.0870596,0.0719101124 C53.5825203,0.0719101124 53.1741192,0.447280899 53.1741192,0.916853933 C53.1741192,1.38714607 53.5825203,1.76179775 54.0870596,1.76179775 C54.5901084,1.76179775 55,1.38714607 55,0.916853933 C55,0.447280899 54.5901084,0.0719101124 54.0870596,0.0719101124 Z M41.6039973,0.0898876404 C41.1829268,0.0898876404 40.9146341,0.350202247 40.9146341,0.773033708 L40.9146341,7.31685393 C40.9146341,7.74040449 41.1829268,8 41.6039973,8 C42.0250678,8 42.274729,7.74040449 42.274729,7.31685393 L42.274729,3.63146067 C42.274729,2.13141573 43.2711382,1.56979775 44.0819783,1.43820225 C44.6588076,1.33680899 44.9390244,1.10166292 44.9390244,0.737078652 C44.9390244,0.373932584 44.674458,0.0898876404 44.1937669,0.0898876404 C43.3985772,0.0898876404 42.622019,0.821932584 42.3119919,1.42022472 L42.274729,1.42022472 L42.274729,0.773033708 C42.274729,0.350202247 42.0250678,0.0898876404 41.6039973,0.0898876404 Z M54.0870596,0.251685393 C54.4693767,0.251685393 54.7764228,0.545078652 54.7764228,0.916853933 C54.7764228,1.28862921 54.4693767,1.58202247 54.0870596,1.58202247 C53.7039973,1.58202247 53.379065,1.28862921 53.379065,0.916853933 C53.379065,0.545078652 53.7039973,0.251685393 54.0870596,0.251685393 Z M53.7144309,0.449438202 C53.7051122,0.457258571 53.6957995,0.467775281 53.6957995,0.485393258 L53.6957995,1.33033708 C53.6957995,1.37707865 53.7338076,1.40224719 53.7889566,1.40224719 C53.8441057,1.40224719 53.8634883,1.37707865 53.8634824,1.33033708 L53.8634824,1.00674157 L54.0311653,1.00674157 L54.273374,1.36629213 C54.2987127,1.40440449 54.316593,1.40224719 54.3665312,1.40224719 C54.4097561,1.40224719 54.4596824,1.39217978 54.4596883,1.36629213 C54.4596883,1.34975281 54.4514905,1.32674157 54.4410569,1.31235955 L54.2174797,0.988764045 C54.3620596,0.972224719 54.4783198,0.90247191 54.4783198,0.719101124 C54.4783198,0.506966292 54.3397079,0.449438202 54.0870596,0.449438202 L53.7516938,0.449438202 C53.7315718,0.449438202 53.7237496,0.441617834 53.7144309,0.449438202 Z M53.8634824,0.575280899 L54.0684282,0.575280899 C54.1772358,0.575280899 54.3106369,0.583910112 54.3106369,0.701123596 C54.3106369,0.840629213 54.1966125,0.862921348 54.0684282,0.862921348 L53.8634824,0.862921348 L53.8634824,0.575280899 Z M35.5301491,1.18651685 C37.2151762,1.18651685 37.8218157,2.72898876 37.8218157,4.04494382 C37.8218157,5.3608983 37.2151762,6.90337079 35.5301491,6.90337079 C33.8451202,6.90337079 33.2571138,5.36089888 33.2571138,4.04494382 C33.2571138,2.72898819 33.845122,1.18651685 35.5301491,1.18651685 Z M48.7398374,1.18651685 C48.8377106,1.1800599 48.9316488,1.18292135 49.0379404,1.18651685 C50.5500678,1.18651685 51.2364499,2.46507865 51.2364499,3.57752809 L46.6903794,3.57752809 C46.7357924,2.46584262 47.2717816,1.28337172 48.7398374,1.18651685 Z" id="path2985"></path>
                    </g>
                </g>
            </g>
        </g>
    </g>
</svg>