<svg fill="none" height="16" viewBox="0 0 184 16" width="184" xmlns="http://www.w3.org/2000/svg" xmlns:xlink="http://www.w3.org/1999/xlink"><linearGradient id="a" gradientUnits="userSpaceOnUse" x1="73.6694" x2="67.6609" y1="4.59839" y2="21.6416"><stop offset="0" stop-color="#11a06b"/><stop offset="1" stop-color="#286feb"/></linearGradient><path clip-rule="evenodd" d="m32.7364 10.4215h3.222v-4.99619h-3.222zm3.2037-6.95883h2.4743v9.27873c0 1.5345-.1602 1.8022-.5696 2.2126-.3204.339-.8367.4996-1.7267.4996h-3.6137l-1.1214-1.249v-.5175h4.5571v-1.2669h-3.1152c-.9435 0-1.4241-.1785-1.8158-.571-.5162-.5353-.7298-1.6952-.7298-3.88993 0-2.19477.2492-3.40814.7832-3.96129.4095-.39256.9079-.55316 1.798-.55316l1.8513.01785 1.2283 1.12415zm-29.19346-2.46267h2.91939l-4.20107 5.3531 4.37908 6.049h-3.0974l-3.32882-4.74641h-.78325v4.74641h-2.63457v-11.4021h2.63457v4.42523h.78325zm19.22536 5.28192v-.82081h-.8901c-.0178 0-.0178 0-.0356 0h-.6942c-.0178 0-.0178 0-.0356 0h-1.3707v.82081 6.08468h-2.4566v-8.90398h1.6199.8367v.16059.96356l1.2282-1.12415h.7121c.1068-.01784.2314-.01784.356-.01784h1.0681c.7476 0 1.2283.16059 1.5665.49962.3738.35687.5162.82081.5162 2.14124v6.28096h-2.4565v-5.97762c.0356-.03569.0356-.07137.0356-.10706zm-12.9419 4.12158h3.222v-4.99619h-3.222zm.1073 1.9632c-.8901 0-1.3707-.1428-1.7446-.5532-.5696-.5888-.801-1.3918-.801-3.90776 0-2.5338.2314-3.31892.801-3.92561.3739-.39256.8545-.53531 1.7446-.53531h2.9906c.89 0 1.3706.14275 1.7445.53531.5696.60669.801 1.39181.801 3.92561 0 2.53376-.2314 3.31896-.801 3.90776-.3917.4104-.8545.5532-1.7445.5532z" fill="#121518" fill-rule="evenodd"/><g fill="url(#a)"><path d="m45.0026.968383h1.9884l3.3252 9.156817 3.3168-9.156817h1.9968l-4.5199 12.164517h-1.5958zm-1.0026 0h1.9467l.3509 8.413237v3.75128h-2.2976zm10.6774 0h1.955v12.164517h-2.2976v-3.75128z"/><path d="m62.865 13.3c-.6851 0-1.3005-.1114-1.8464-.3342-.5458-.2228-1.0109-.5319-1.3952-.9274-.3788-.401-.6712-.8661-.8773-1.3952-.2005-.5347-.3007-1.10841-.3007-1.72109v-.33419c0-.69623.1002-1.32841.3007-1.89653.2006-.57369.4846-1.06662.8522-1.47879s.8077-.72965 1.3201-.95244c.5124-.2228 1.0777-.33419 1.696-.33419.6405 0 1.2059.10861 1.696.32583.4902.21166.8995.51243 1.2282.90232.3286.38988.5764.85775.7435 1.40359.1671.54028.2507 1.13904.2507 1.79628v.92738h-7.0849v-1.52057h4.9126v-.1671c-.0111-.35089-.0779-.67116-.2005-.96079-.1225-.2952-.3119-.52914-.5681-.7018-.2562-.17824-.5876-.26735-.9942-.26735-.3286 0-.6155.0724-.8606.21722-.2395.13925-.44.33976-.6015.60154-.1559.25621-.2729.56256-.3509.91903-.078.35646-.117.75192-.117 1.18637v.33419c0 .37875.0502.72965.1504 1.0527.1059.32309.259.60429.4595.84379.2061.234.4512.4178.7353.5515.2896.1281.6182.1921.9858.1921.4623 0 .88-.0891 1.2532-.2673.3788-.1838.7074-.454.9859-.8104l1.1112 1.1529c-.1894.2785-.4456.5459-.7687.8021-.3174.2562-.7018.465-1.1529.6266-.4512.1559-.972.2339-1.5624.2339z"/><path d="m72.9826 10.6599c0-.1894-.0501-.3593-.1503-.5096-.1003-.15043-.2897-.28689-.5682-.40942-.2729-.12811-.6739-.24786-1.203-.35926-.4679-.10025-.8996-.22558-1.295-.37596-.3955-.15039-.7353-.33141-1.0193-.54306-.2841-.21722-.5069-.47065-.6684-.76028-.1559-.29521-.2339-.63496-.2339-1.01928 0-.37318.0807-.72408.2423-1.0527.1615-.33419.3954-.62661.7018-.87725.3063-.25621.6795-.45673 1.1195-.60154.44-.15039.9357-.22558 1.4871-.22558.7687 0 1.4287.12532 1.9801.37596.557.25064.9831.59597 1.2783 1.03599.2952.43445.4428.92459.4428 1.47044h-2.2057c0-.23951-.0557-.45673-.167-.65167-.1059-.19495-.2702-.3509-.493-.46787-.2228-.12254-.504-.1838-.8438-.1838-.3064 0-.5653.05012-.777.15038-.2061.10026-.362.23115-.4679.39267-.1058.16153-.1587.33977-.1587.53471 0 .14481.0278.27571.0835.39267.0613.1114.1588.21444.2925.30913.1336.09469.3147.18102.543.259.2339.07797.5208.15317.8606.22557.6739.13368 1.2615.31192 1.7628.53471.5069.21722.9023.50685 1.1864.86889.284.36204.4261.82434.4261 1.38685 0 .4011-.0864.7687-.259 1.1029-.1727.3286-.4233.6154-.7519.8605-.3287.2451-.7213.4372-1.1781.5765-.4567.1337-.9719.2005-1.5456.2005-.8299 0-1.5317-.1476-2.1054-.4428-.5737-.3008-1.0081-.6795-1.3033-1.1362-.2952-.4623-.4428-.9413-.4428-1.4371h2.1137c.0167.3509.1114.6322.2841.8439.1726.2116.3899.3648.6516.4595.2674.0891.5487.1337.8439.1337.3342 0 .6154-.0446.8438-.1337.2284-.0947.401-.22.518-.376.117-.1615.1754-.3453.1754-.5514z"/><path d="m78.9814.300003v12.832897h-2.214v-12.832897zm-.3509 7.987147h-.6517c0-.62939.0835-1.20866.2506-1.73779s.4039-.98865.7102-1.37853c.3063-.39546.6712-.7018 1.0945-.91903.4288-.21722.9023-.32583 1.4203-.32583.4456 0 .8494.06405 1.2114.19216.3676.12253.6823.32026.9441.59318.2618.27293.4623.6294.6015 1.06941.1449.43445.2173.96358.2173 1.58741v5.76477h-2.2224v-5.78148c0-.41774-.0613-.74636-.1838-.98586-.1225-.24508-.298-.42053-.5264-.52635-.2227-.10583-.4985-.15874-.8271-.15874-.3564 0-.6628.06962-.919.20886-.2562.13368-.4679.32027-.635.55977-.1615.23951-.284.51521-.3676.82712-.0779.31191-.1169.64889-.1169 1.01093z"/></g></svg>