<svg width="20" height="20" viewBox="0 0 20 20" fill="none" xmlns="http://www.w3.org/2000/svg">
<mask id="mask0_1557_21631" style="mask-type:alpha" maskUnits="userSpaceOnUse" x="0" y="0" width="20" height="20">
<rect width="20" height="20" fill="#ffffff"/>
</mask>
<g mask="url(#mask0_1557_21631)">
<path d="M4 18C3.16667 18 2.45833 17.7083 1.875 17.125C1.29167 16.5417 1 15.8333 1 15C1 14.1667 1.29167 13.4583 1.875 12.875C2.45833 12.2917 3.16667 12 4 12C4.83333 12 5.54167 12.2917 6.125 12.875C6.70833 13.4583 7 14.1667 7 15C7 15.8333 6.70833 16.5417 6.125 17.125C5.54167 17.7083 4.83333 18 4 18ZM16 18C15.1667 18 14.4583 17.7083 13.875 17.125C13.2917 16.5417 13 15.8333 13 15C13 14.1667 13.2917 13.4583 13.875 12.875C14.4583 12.2917 15.1667 12 16 12C16.8333 12 17.5417 12.2917 18.125 12.875C18.7083 13.4583 19 14.1667 19 15C19 15.8333 18.7083 16.5417 18.125 17.125C17.5417 17.7083 16.8333 18 16 18ZM10 8C9.16667 8 8.45833 7.70833 7.875 7.125C7.29167 6.54167 7 5.83333 7 5C7 4.16667 7.29167 3.45833 7.875 2.875C8.45833 2.29167 9.16667 2 10 2C10.8333 2 11.5417 2.29167 12.125 2.875C12.7083 3.45833 13 4.16667 13 5C13 5.83333 12.7083 6.54167 12.125 7.125C11.5417 7.70833 10.8333 8 10 8Z" fill="#1155cb"/>
</g>
</svg>
