<svg width="20" height="20" fill="none" xmlns="http://www.w3.org/2000/svg">
  <title>Organization</title>
  <path d="M16.191 10.947H12.82l2.122 1.977v5.11l4.777.018v-4.019l-3.528-3.086ZM4.11 10.107 0 13.194v4.838h12.99v-4.838l-3.848-3.087H4.11ZM6.476 8.216c1.74 0 3.151-1.403 3.151-3.134a3.143 3.143 0 0 0-3.15-3.135 3.143 3.143 0 0 0-3.151 3.135 3.143 3.143 0 0 0 3.15 3.134ZM13.333 9.526a2.85 2.85 0 0 0 2.857-2.842 2.85 2.85 0 0 0-2.857-2.842 2.85 2.85 0 0 0-2.857 2.842 2.85 2.85 0 0 0 2.857 2.842Z" fill="#A3BBCC"/>
</svg>
