<svg width="20" height="20" fill="none" xmlns="http://www.w3.org/2000/svg">
  <title>Settings</title>
  <path d="m18.417 4.27-2.695-2.694c-.404.223-.821.452-1.239.68-.445.243-.883.492-1.32.735-.169.094-.337.027-.398-.155-.27-.903-.545-1.805-.815-2.701-.013-.047-.027-.095-.047-.135h-3.82a239.015 239.015 0 0 0-.774 2.83c-.054.195-.222.269-.398.168-.815-.452-1.63-.903-2.438-1.354-.074-.04-.128-.074-.216.006-.875.863-1.758 1.718-2.64 2.574-.014.013-.02.027-.04.047.275.498.558 1.003.835 1.509.195.357.397.714.592 1.07.095.176.04.317-.148.371-.91.276-1.812.546-2.721.822A.792.792 0 0 0 0 8.09v3.82l1.819.505c.33.094.66.182.99.27.243.067.303.195.182.417-.451.808-.896 1.617-1.347 2.425-.02.04-.04.08-.054.101l2.782 2.782c.202-.114.438-.242.673-.37l1.866-1.038c.203-.114.337-.053.398.169.242.896.492 1.785.74 2.68.014.048.028.095.048.149h3.82l.404-1.34c.155-.506.303-1.011.451-1.516.06-.189.195-.25.37-.148.816.451 1.63.902 2.439 1.354.047.027.101.053.088.006.437-.404.882-.795 1.306-1.212.458-.445.89-.916 1.348-1.368.094-.094.08-.155.027-.256-.452-.808-.903-1.616-1.348-2.425-.1-.175-.027-.343.169-.397.896-.243 1.785-.492 2.68-.741.048-.014.095-.027.149-.047V8.09c-.445-.134-.89-.27-1.34-.404-.506-.155-1.011-.303-1.516-.451a.248.248 0 0 1-.148-.37c.451-.816.902-1.63 1.354-2.44.02-.06.047-.114.067-.154Zm-3.59 5.686c.013 2.64-2.109 4.77-4.777 4.796-2.68.02-4.796-2.081-4.802-4.782a4.78 4.78 0 0 1 4.782-4.803c2.62 0 4.783 2.155 4.796 4.79Z" fill="#A3BBCC"/>
</svg>
