<svg height="18" width="18" viewBox="0 0 18 14" xmlns="http://www.w3.org/2000/svg" role="img">
    <path fill-rule="evenodd" clip-rule="evenodd" d="M14 12.9123C14 13.513 13.5171 14 12.9102 14L11.817 14C11.2152 14 10.7273 13.5058 10.7273 12.9123L10.7273 5.26949C10.7273 4.66879 11.2102 4.18182 11.817 4.18182L12.9102 4.18182C13.5121 4.18182 14 4.67604 14 5.26949L14 12.9123ZM9.63636 12.9141C9.63636 13.5138 9.15346 14 8.54659 14L7.45341 14C6.85154 14 6.36364 13.5029 6.36364 12.9141L6.36364 3.08589C6.36364 2.48617 6.84654 2 7.45341 2L8.54659 2C9.14846 2 9.63636 2.49709 9.63636 3.08589L9.63636 12.9141ZM5.27273 12.9192C5.27273 13.5161 4.78983 14 4.18296 14L3.08977 14C2.48791 14 2 13.508 2 12.9192L2 7.44449C2 6.84755 2.4829 6.36364 3.08977 6.36364L4.18296 6.36364C4.78482 6.36364 5.27273 6.85561 5.27273 7.44449L5.27273 12.9192Z" fill="#7d91b3">
    </path>
</svg>
