<svg width="44" height="44" viewBox="0 0 44 56" xmlns="http://www.w3.org/2000/svg" role="img">
  <title>Markdown File</title>
  <path fill="A3BBCC" fill-rule="evenodd" clip-rule="evenodd" d="M2 0C.895431 0 0 .89543 0 2v52c0 1.1046.895431 2 2 2h40c1.1046 0 2-.8954 2-2V4l-4-4H2zm37 1H1v54h42V5h-4V1z"></path>
  <path fill="A3BBCC" d="M16.1133 43.3369c0-.2187.0638-.401.1914-.5469.1321-.1458.3281-.2187.5879-.2187.2597 0 .4557.0729.5879.2187.1367.1459.205.3282.205.5469 0 .2096-.0683.3851-.205.5264-.1322.1413-.3282.2119-.5879.2119-.2598 0-.4558-.0706-.5879-.2119-.1276-.1413-.1914-.3168-.1914-.5264zm4.8535-6.7334l.0342.8203c.5423-.638 1.2737-.957 2.1943-.957 1.0345 0 1.7386.3965 2.1123 1.1894.2461-.3554.5651-.6425.957-.8613.3965-.2187.8637-.3281 1.4014-.3281 1.6224 0 2.4473.859 2.4746 2.5771V44H28.876v-4.8809c0-.5286-.1208-.9228-.3623-1.1826-.2416-.2643-.6472-.3965-1.2168-.3965-.4694 0-.8591.1413-1.169.4239-.3099.278-.4899.6539-.54 1.1279V44h-1.2715v-4.8467c0-1.0755-.5264-1.6133-1.5791-1.6133-.8294 0-1.3968.3532-1.7021 1.0596V44h-1.2647v-7.3965h1.1963zm10.7803 3.6367c0-1.1347.2689-2.0462.8066-2.7343.5378-.6927 1.2419-1.0391 2.1123-1.0391.8659 0 1.5518.2962 2.0576.8887V33.5h1.2647V44h-1.1621l-.0616-.793c-.5058.6198-1.2099.9297-2.1123.9297-.8567 0-1.5563-.3509-2.0986-1.0527-.5377-.7018-.8066-1.6179-.8066-2.7481v-.0957zm1.2646.1436c0 .8385.1732 1.4948.5195 1.9687.3464.474.8249.711 1.4356.711.8021 0 1.3877-.36 1.7568-1.0801v-3.3975c-.3782-.6972-.9593-1.0459-1.7431-1.0459-.6198 0-1.1029.2393-1.4493.7178-.3463.4785-.5195 1.1872-.5195 2.126z"></path>
</svg>
