<svg width="16" height="16" viewBox="0 0 16 16" xmlns="http://www.w3.org/2000/svg" role="img">
  <path d="M12.2017301 6.92326993c.703125 0 1.4690288.10044643 2.2977122.30133928.8286827.20089286 1.5945866.52734408 2.2977116.979353.703125.45200893 1.0546875.96679672 1.0546875 1.54436336v4.99637293h-4.8214286V9.74832557c0-1.10491071-.5273434-2.03403986-1.5820309-2.78738807.1757809-.02511193.426897-.03766757.7533482-.03766757zm-6.40346017 0c.703125 0 1.4690295.10044643 2.29771221.30133928.82868272.20089286 1.58830907.52734408 2.27887846.979353.6905693.45200893 1.0358537.96679672 1.0358537 1.54436336v4.99637293H.14815864V9.74832557c0-.57756664.3515625-1.09235443 1.0546875-1.54436336.703125-.45200892 1.46902886-.77846014 2.29771157-.979353.82868336-.20089285 1.59458722-.30133928 2.29771222-.30133928zm0-1.58203093c-.65290179 0-1.21791279-.23856043-1.69503364-.71568129-.47712022-.47712021-.71568065-1.04213121-.71568065-1.695033 0-.65290178.23856043-1.21791342.71568065-1.69503364C4.58035714.75837086 5.14536814.51981043 5.79826993.51981043c.65290178 0 1.21163528.23856043 1.67619986.71568064.46456457.47712022.6968475 1.04213186.6968475 1.69503364 0 .65290179-.23228293 1.21791279-.6968475 1.695033-.46456458.47712086-1.02329808.71568129-1.67619986.71568129zm6.40346017 0c-.6529018 0-1.2179128-.23856043-1.6950337-.71568129-.4771208-.47712021-.71568061-1.04213121-.71568061-1.695033 0-.65290178.23855981-1.21791342.71568061-1.69503364.4771209-.47712021 1.0421319-.71568064 1.6950337-.71568064s1.2179128.23856043 1.6950336.71568064c.4771202.47712022.7156807 1.04213186.7156807 1.69503364 0 .65290179-.2385605 1.21791279-.7156807 1.695033-.4771208.47712086-1.0421318.71568129-1.6950336.71568129z" fill="#7d91b3" fill-rule="evenodd" />
  </svg>
