<svg height="18" width="18" viewBox="0 0 18 18" xmlns="http://www.w3.org/2000/svg">
  <title>sharedConfig</title>
  <g>
    <path fill-rule="evenodd" clip-rule="evenodd" d="M9.0904 12.8495C8.74379 12.9475 8.37806 12.9999 8.00008 12.9999C7.62205 12.9999 7.25627 12.9475 6.90961 12.8495C6.76183 13.5328 6.43943 14.1512 5.99146 14.6555C6.61945 14.8785 7.29558 14.9999 8.00008 14.9999C8.70453 14.9999 9.38062 14.8785 10.0086 14.6555C9.5606 14.1512 9.23819 13.5329 9.0904 12.8495ZM13.0001 15C12.219 15 11.5076 14.7015 10.9738 14.2123C10.9738 14.2123 10.9738 14.2124 10.9738 14.2124C10.4788 13.7587 10.1364 13.1412 10.0329 12.4456C10.0329 12.4456 10.0329 12.4456 10.0329 12.4456C10.0113 12.3002 10.0001 12.1514 10.0001 12C10.0001 10.6951 10.8332 9.58485 11.9964 9.17199C11.9964 9.17198 11.9964 9.17197 11.9964 9.17196C12.3102 9.06061 12.648 9 13 9C14.6569 9 16 10.3431 16 12C16 13.6568 14.6569 15 13.0001 15ZM11.9097 8.1504C12.2563 8.05242 12.622 8 13 8C13.3218 8 13.6347 8.038 13.9345 8.10975C13.7085 6.59053 12.9131 5.25717 11.7722 4.33374C11.5429 4.9822 11.1512 5.55389 10.6459 5.9999C11.2737 6.55401 11.7262 7.30211 11.9097 8.1504ZM2.06567 8.10971C2.36542 8.03798 2.67827 8 3 8C3.37803 8 3.74381 8.05244 4.09047 8.15044C4.27392 7.30217 4.72643 6.55408 5.35422 5.99997C4.84889 5.55397 4.45712 4.98229 4.22782 4.33385C3.08702 5.25726 2.29162 6.59056 2.06567 8.10971ZM6 12C6 13.6568 4.65692 15 3.00008 15C1.34322 15 7.92724e-05 13.6569 7.94172e-05 12C7.95315e-05 10.6929 0.836015 9.58104 2.00244 9.16987L2.00244 9.16984C2.31453 9.05984 2.65028 9 3 9C4.65686 9 6 10.3431 6 12ZM8 -6.26882e-05C7.90942 -5.98351e-05 7.81977 0.00395703 7.73124 0.0118201C6.20034 0.147782 5.00008 1.43369 5.00008 2.99994C5.00008 3.25865 5.03283 3.50971 5.0944 3.7492L5.09433 3.74924C5.26866 4.42721 5.67401 5.01248 6.22148 5.41614L6.22152 5.41611C6.65095 5.73275 7.16782 5.93764 7.72922 5.98788C7.77778 5.99222 7.82667 5.99541 7.87586 5.99741C7.91706 5.99909 7.95847 5.99994 8.00008 5.99994C8.0833 5.99994 8.16573 5.99655 8.24724 5.9899C9.78844 5.86418 11 4.57354 11 2.99994C11 1.34308 9.65685 -6.25434e-05 8 -6.26882e-05Z" fill="#7d91b3">
    </path>
  </g>
</svg>
