<svg width="40" height="40" viewBox="0 0 40 40" fill="none" xmlns="http://www.w3.org/2000/svg">
<path fill-rule="evenodd" clip-rule="evenodd" d="M36.6667 0C38.5083 0 40 1.4917 40 3.3333V36.6667C40 38.5083 38.5083 40 36.6667 40H3.3333C1.4917 40 0 38.5083 0 36.6667V3.3333C0 1.4917 1.4917 0 3.3333 0H36.6667ZM36.6667 13.3333H3.3333V36.6667H36.6667V13.3333ZM36.6667 3.3333H3.3333V10H36.6667V3.3333ZM10 5V8.3333H6.6667V5H10ZM16.6667 5V8.3333H13.3333V5H16.6667ZM33.3333 5V8.3333H20V5H33.3333Z" fill="#1155cb"/>
<path d="M12.6667 33.6667C13.2189 33.6667 13.6667 33.219 13.6667 32.6667V28C13.6667 27.4477 13.2189 27 12.6667 27H8C7.4477 27 7 27.4477 7 28V32.6667C7 33.2189 7.4477 33.6667 8 33.6667H12.6667Z" fill="#1155cb"/>
<path d="M12.6667 23.6667C13.2189 23.6667 13.6667 23.219 13.6667 22.6667V18C13.6667 17.4477 13.2189 17 12.6667 17H8C7.4477 17 7 17.4477 7 18V22.6667C7 23.219 7.4477 23.6667 8 23.6667H12.6667Z" fill="#1155cb"/>
<path d="M22.6667 23.6667C23.2189 23.6667 23.6667 23.219 23.6667 22.6667V18C23.6667 17.4477 23.2189 17 22.6667 17H18C17.4477 17 17 17.4477 17 18V22.6667C17 23.219 17.4477 23.6667 18 23.6667H22.6667Z" fill="#1155cb"/>
<path d="M32.6667 23.6667C33.2189 23.6667 33.6667 23.219 33.6667 22.6667V18C33.6667 17.4477 33.2189 17 32.6667 17H28C27.4477 17 27 17.4477 27 18V22.6667C27 23.219 27.4477 23.6667 28 23.6667H32.6667Z" fill="#1155cb"/>
</svg>
