<svg xmlns="http://www.w3.org/2000/svg" width="26" height="32" viewBox="0 0 26 32">
    <path fill="#1155cb" fill-rule="evenodd" d="M16 0c1.105 0 2 .895 2 2v2c0 1.105-.895 2-2 2v.348C21.735 7.703 26 12.853 26 19c0 7.18-5.82 13-13 13S0 26.18 0 19C0 12.853 4.267 7.702 10 6.348V6c-1.105 0-2-.895-2-2V2c0-1.105.895-2 2-2h6zm-3 8C6.925 8 2 12.925 2 19s4.925 11 11 11 11-4.925 11-11S19.075 8 13 8zm6.536 4.464c.39.391.39 1.024 0 1.415l-5.657 5.657c-.39.39-1.024.39-1.415 0-.39-.391-.39-1.024 0-1.415l5.657-5.657c.39-.39 1.024-.39 1.415 0zM13 6c.337 0 .67.013 1 .038V4h1c.552 0 1-.448 1-1s-.448-1-1-1h-4c-.552 0-1 .448-1 1 0 .513.386.936.883.993L11 4h1v2.038c.33-.025.664-.038 1-.038z"/>
</svg>
