<svg xmlns="http://www.w3.org/2000/svg" xmlns:xlink="http://www.w3.org/1999/xlink" preserveAspectRatio="xMidYMid" width="32" height="32" viewBox="0 0 32 32">
  <defs>
    <style>

      .cls-2 {
        fill: #acb7bf;
      }
    </style>
  </defs>
  <path d="M31.000,32.000 C31.000,32.000 1.000,32.000 1.000,32.000 C1.000,32.000 0.000,31.000 0.000,31.000 C0.000,31.000 0.000,8.000 0.000,8.000 C0.000,8.000 4.000,0.000 4.000,0.000 C4.000,0.000 28.000,0.000 28.000,0.000 C28.000,0.000 32.000,8.000 32.000,8.000 C32.000,8.000 32.000,31.063 32.000,31.063 C32.000,31.063 31.000,32.000 31.000,32.000 ZM14.000,2.000 C14.000,2.000 6.000,2.000 6.000,2.000 C6.000,2.000 3.000,8.000 3.000,8.000 C3.000,8.000 14.000,8.000 14.000,8.000 C14.000,8.000 14.000,2.000 14.000,2.000 ZM26.000,2.000 C26.000,2.000 18.000,2.000 18.000,2.000 C18.000,2.000 18.000,8.000 18.000,8.000 C18.000,8.000 29.000,8.000 29.000,8.000 C29.000,8.000 26.000,2.000 26.000,2.000 ZM30.000,10.000 C30.000,10.000 18.000,10.000 18.000,10.000 C18.000,10.000 18.000,13.000 18.000,13.000 C18.000,13.000 14.000,13.000 14.000,13.000 C14.000,13.000 14.000,10.000 14.000,10.000 C14.000,10.000 2.000,10.000 2.000,10.000 C2.000,10.000 2.000,30.000 2.000,30.000 C2.000,30.000 30.000,30.000 30.000,30.000 C30.000,30.000 30.000,10.000 30.000,10.000 ZM7.000,16.000 C7.000,16.000 10.000,16.000 10.000,16.000 C10.552,16.000 11.000,16.448 11.000,17.000 C11.000,17.552 10.552,18.000 10.000,18.000 C10.000,18.000 7.000,18.000 7.000,18.000 C6.448,18.000 6.000,17.552 6.000,17.000 C6.000,16.448 6.448,16.000 7.000,16.000 ZM7.000,20.000 C7.000,20.000 14.000,20.000 14.000,20.000 C14.552,20.000 15.000,20.448 15.000,21.000 C15.000,21.552 14.552,22.000 14.000,22.000 C14.000,22.000 7.000,22.000 7.000,22.000 C6.448,22.000 6.000,21.552 6.000,21.000 C6.000,20.448 6.448,20.000 7.000,20.000 ZM7.000,24.000 C7.000,24.000 14.000,24.000 14.000,24.000 C14.552,24.000 15.000,24.448 15.000,25.000 C15.000,25.552 14.552,26.000 14.000,26.000 C14.000,26.000 7.000,26.000 7.000,26.000 C6.448,26.000 6.000,25.552 6.000,25.000 C6.000,24.448 6.448,24.000 7.000,24.000 Z" id="path-1" class="cls-2" fill-rule="evenodd"/>
</svg>
