<?xml version="1.0" encoding="UTF-8"?>
<svg width="33px" height="33px" viewBox="0 0 33 33" version="1.1" xmlns="http://www.w3.org/2000/svg" xmlns:xlink="http://www.w3.org/1999/xlink">
    <!-- Generator: Sketch 51.3 (57544) - http://www.bohemiancoding.com/sketch -->
    <title>icn-marketplace-04-pro</title>
    <desc>Created with Sketch.</desc>
    <defs></defs>
    <g id="Page-1" stroke="none" stroke-width="1" fill="none" fill-rule="evenodd">
        <g id="iconography" transform="translate(-990.000000, -659.000000)" fill="#6C6C6C">
            <g id="icn-marketplace-04-pro" transform="translate(990.000000, 659.000000)">
                <path d="M31.9719861,25.7001994 C31.9599861,24.8091994 31.9479861,24.0461994 31.9479861,23.7151994 C31.9480699,23.4933245 31.9112335,23.2729821 31.8389861,23.0631994 C31.1599861,21.0921994 29.2899861,20.4741994 28.1079861,20.0631994 C27.8529861,19.9761994 27.5959861,19.8881994 27.3529861,19.7851994 C26.8259861,19.5621994 26.2779861,19.3251994 25.7239861,19.0851994 C24.7879861,18.6851994 23.8369861,18.2711994 22.9459861,17.9061994 C22.8733679,17.8769963 22.7992658,17.851628 22.7239861,17.8301994 L22.1059861,17.6601994 C21.9489861,17.3831994 21.7649861,16.9831994 21.6809861,16.8021994 L21.6019861,16.6331994 C21.6319861,16.5601994 21.6589861,16.4841994 21.6849861,16.4041994 C21.805799,15.9872679 21.8710294,15.556209 21.8789861,15.1221994 C22.151748,14.9412279 22.3890062,14.7117653 22.5789861,14.4451994 C22.96104,13.860635 23.214002,13.2012973 23.3209861,12.5111994 C23.5920594,11.3913375 23.506043,10.2147317 23.0749861,9.14619938 C23.0239861,9.03919938 22.9749861,8.94619938 22.9279861,8.86119938 C22.9349861,8.52019938 23.0019861,7.80519938 23.0359861,7.43819938 C23.0729861,7.03819938 23.1009861,6.70119938 23.1049861,6.55219938 C23.1563189,5.69674676 23.0547295,4.83899354 22.8049861,4.01919938 C22.7919861,3.96719938 22.7769861,3.91919938 22.7609861,3.86619938 C22.4863211,2.95862573 21.9080044,2.17306121 21.1229861,1.64119938 C20.9188946,1.52303546 20.6954152,1.44210882 20.4629861,1.40219938 L20.1549861,1.34919938 L20.0359861,1.23919938 C19.9397236,1.14977754 19.8348837,1.07005904 19.7229861,1.00119938 C18.6753457,0.337969492 17.458877,-0.00954342009 16.2189861,0.000199378948 C14.6823354,0.0521114909 13.166418,0.370860197 11.7389861,0.942199379 C10.2289861,1.45919938 7.09098611,3.26319938 8.21098611,9.18919938 C7.97716565,9.62479651 7.87305708,10.1182711 7.91098611,10.6111994 L7.93598611,10.9541994 C8.02298611,12.2241994 8.15298611,14.1081994 9.45198611,15.1201994 L9.55198611,16.2201994 C9.56789032,16.390953 9.60552788,16.5589778 9.66398611,16.7201994 C9.69398611,16.8041994 9.72798611,16.8841994 9.76398611,16.9591994 C9.66398611,17.1591994 9.52898611,17.4591994 9.40598611,17.6731994 L8.78898611,17.8431994 C8.71333023,17.8644721 8.63888701,17.8898429 8.56598611,17.9191994 C7.67898611,18.2831994 6.73098611,18.6921994 5.79798611,19.0941994 C5.24098611,19.3341994 4.68898611,19.5721994 4.16098611,19.7941994 C3.91498611,19.8991994 3.66098611,19.9861994 3.40298611,20.0741994 C1.88443356,20.455784 0.66658543,21.5876131 0.174986114,23.0741994 C0.103226194,23.283042 0.0667274762,23.5023722 0.0669861144,23.7231994 C0.0669861144,24.0491994 0.0549861144,24.7941994 0.0419861144,25.6681994 C0.0179861144,27.2621994 -0.0120138856,29.2451994 0.00498611441,30.0471994 C0.02730555,31.1357247 0.916232008,32.0064282 2.00498611,32.0061994 L30.0049861,32.0061994 C31.0952661,32.006386 31.984816,31.1332928 32.0049861,30.0431994 C32.0249861,29.2441994 31.9959861,27.2801994 31.9719861,25.7001994 Z M30.0099861,30.0001994 L2.00998611,30.0001994 C1.98498611,28.8001994 2.07198611,24.6321994 2.07198611,23.7171994 C2.53498611,22.3651994 3.65798611,22.1731994 4.94398611,21.6291994 C6.35598611,21.0291994 7.91998611,20.3401994 9.32998611,19.7621994 C9.72998611,19.6511994 10.1299861,19.5421994 10.5299861,19.4311994 C11.0558946,18.8577473 11.4636605,18.1862929 11.7299861,17.4551994 L12.3019861,17.3171994 C12.1729861,16.5941994 11.7259861,16.5381994 11.5409861,16.0281994 L11.3219861,13.7211994 C11.1161337,13.7046505 10.9139049,13.6574638 10.7219861,13.5811994 C9.97798611,13.1131994 9.96298611,11.2141994 9.88998611,10.4261994 C9.85898611,10.0651994 10.3589861,9.76819938 10.2199861,9.10819938 C9.40398611,5.23219938 10.5719861,3.42019938 12.4199861,2.81919938 C13.7019861,2.29619938 16.4319861,1.33119938 18.6649861,2.70819938 L19.2199861,3.22419938 L20.1199861,3.37919938 C20.4658765,3.67781328 20.7214804,4.06710693 20.8579861,4.50319938 C21.0638676,5.15208703 21.1446321,5.83417364 21.0959861,6.51319938 C21.0869861,6.89119938 20.8699861,8.63619938 20.9289861,9.17019938 C20.9702237,9.47272762 21.0837624,9.76086211 21.2599861,10.0101994 C21.4977976,10.7010602 21.5276991,11.4465106 21.3459861,12.1541994 C21.2868007,12.5537723 21.1509788,12.9381484 20.9459861,13.2861994 C20.6379302,13.4915494 20.3460746,13.7202198 20.0729861,13.9701994 C19.9159059,14.5723734 19.8138202,15.187565 19.7679861,15.8081994 C19.5619861,16.4541994 19.0399861,16.5001994 19.0009861,17.3461994 L19.7679861,17.4551994 C20.0365521,18.1865615 20.4463274,18.8579677 20.9739861,19.4311994 L22.1739861,19.7621994 C23.5829861,20.3401994 25.1469861,21.0321994 26.5589861,21.6291994 C27.8459861,22.1731994 29.4679861,22.3651994 29.9329861,23.7171994 C29.9469861,24.6321994 30.0329861,28.8001994 30.0099861,30.0001994 Z" id="icn"></path>
            </g>
        </g>
    </g>
</svg>
