<svg width="20" height="24" viewBox="0 0 20 24" fill="none" xmlns="http://www.w3.org/2000/svg">
<path fill-rule="evenodd" clip-rule="evenodd" d="M19 0C19.552 0 20 0.448 20 1V23C20 23.552 19.552 24 19 24H1C0.448 24 0 23.552 0 23V12V1C0 0.448 0.448 0 1 0H19ZM18 2H2V12V22H18V2Z" fill="#1155cb"/>
<path d="M9.0332 16.8809C9.0332 16.334 9.09961 15.8984 9.23242 15.5742C9.36523 15.25 9.60742 14.9316 9.95898 14.6191C10.3145 14.3027 10.5508 14.0469 10.668 13.8516C10.7852 13.6523 10.8438 13.4434 10.8438 13.2246C10.8438 12.5645 10.5391 12.2344 9.92969 12.2344C9.64062 12.2344 9.4082 12.3242 9.23242 12.5039C9.06055 12.6797 8.9707 12.9238 8.96289 13.2363H7.26367C7.27148 12.4902 7.51172 11.9062 7.98438 11.4844C8.46094 11.0625 9.10938 10.8516 9.92969 10.8516C10.7578 10.8516 11.4004 11.0527 11.8574 11.4551C12.3145 11.8535 12.543 12.418 12.543 13.1484C12.543 13.4805 12.4688 13.7949 12.3203 14.0918C12.1719 14.3848 11.9121 14.7109 11.541 15.0703L11.0664 15.5215C10.7695 15.8066 10.5996 16.1406 10.5566 16.5234L10.5332 16.8809H9.0332ZM8.86328 18.6797C8.86328 18.418 8.95117 18.2031 9.12695 18.0352C9.30664 17.8633 9.53516 17.7773 9.8125 17.7773C10.0898 17.7773 10.3164 17.8633 10.4922 18.0352C10.6719 18.2031 10.7617 18.418 10.7617 18.6797C10.7617 18.9375 10.6738 19.1504 10.498 19.3184C10.3262 19.4863 10.0977 19.5703 9.8125 19.5703C9.52734 19.5703 9.29688 19.4863 9.12109 19.3184C8.94922 19.1504 8.86328 18.9375 8.86328 18.6797Z" fill="#1155cb"/>
<path d="M16 4H4V8H16V4Z" fill="#1155cb"/>
</svg>
