<svg width="40" height="40" viewBox="0 0 40 40" fill="none" xmlns="http://www.w3.org/2000/svg">
<g clip-path="url(#clip0_618_8264)">
<path fill-rule="evenodd" clip-rule="evenodd" d="M36.6667 0C38.5083 0 40 1.49167 40 3.33333V36.6667C40 38.5083 38.5083 40 36.6667 40H3.33333C1.49167 40 0 38.5083 0 36.6667V3.33333C0 1.49167 1.49167 0 3.33333 0H36.6667ZM36.6667 13.3333H3.33333V36.6667H36.6667V13.3333ZM13.5 16.6667V23.5H6.66667V16.6667H13.5ZM23.7787 16.6667V23.5H16.6667V16.6667H23.7787ZM36.6667 3.33333H3.33333V10H36.6667V3.33333ZM10 5V8.33333H6.66667V5H10ZM16.6667 5V8.33333H13.3333V5H16.6667ZM33.3333 5V8.33333H20V5H33.3333Z" fill="#0070BF"/>
</g>
<defs>
<clipPath id="clip0_618_8264">
<rect width="40" height="40" fill="white"/>
</clipPath>
</defs>
</svg>
