<svg width="40" height="40" viewBox="0 0 40 40" fill="none" xmlns="http://www.w3.org/2000/svg">
<path fill-rule="evenodd" clip-rule="evenodd" d="M36.6667 0C38.5083 0 40 1.4917 40 3.3333V36.6667C40 38.5083 38.5083 40 36.6667 40H3.3333C1.4917 40 0 38.5083 0 36.6667V3.3333C0 1.4917 1.4917 0 3.3333 0H36.6667ZM36.6667 13.3333H3.3333V36.6667H36.6667V13.3333ZM36.6667 3.3333H3.3333V10H36.6667V3.3333ZM10 5V8.3333H6.6667V5H10ZM16.6667 5V8.3333H13.3333V5H16.6667ZM33.3333 5V8.3333H20V5H33.3333Z" fill="#1155cb"/>
<path fill-rule="evenodd" clip-rule="evenodd" d="M17.6002 16.6C17.6002 16.4409 17.6635 16.2883 17.776 16.1757C17.8885 16.0632 18.0411 16 18.2002 16H21.8002C21.9594 16 22.112 16.0632 22.2245 16.1757C22.337 16.2883 22.4002 16.4409 22.4002 16.6C22.4002 16.7591 22.337 16.9117 22.2245 17.0243C22.112 17.1368 21.9594 17.2 21.8002 17.2H20.6002V18.544C21.8805 18.642 23.1154 19.0614 24.1906 19.7632C24.2145 19.7299 24.241 19.6986 24.2698 19.6696L25.4698 18.4696C25.5395 18.3999 25.6222 18.3447 25.7132 18.307C25.8042 18.2693 25.9017 18.2499 26.0002 18.2499C26.0987 18.2499 26.1963 18.2693 26.2873 18.307C26.3783 18.3447 26.461 18.3999 26.5306 18.4696C26.6003 18.5393 26.6555 18.6219 26.6932 18.7129C26.7309 18.804 26.7503 18.9015 26.7503 19C26.7503 19.0985 26.7309 19.196 26.6932 19.2871C26.6555 19.3781 26.6003 19.4607 26.5306 19.5304L25.3606 20.7004C26.6174 21.9257 27.4166 23.5446 27.625 25.2874C27.8334 27.0302 27.4386 28.7919 26.5062 30.279C25.5738 31.7662 24.1601 32.889 22.5006 33.4607C20.841 34.0323 19.0357 34.0183 17.3853 33.4208C15.7348 32.8234 14.3388 31.6786 13.4297 30.1771C12.5206 28.6756 12.1533 26.9081 12.3888 25.1687C12.6244 23.4293 13.4487 21.8231 14.7244 20.6175C16.0001 19.4119 17.6503 18.6797 19.4002 18.5428V17.2H18.2002C18.0411 17.2 17.8885 17.1368 17.776 17.0243C17.6635 16.9117 17.6002 16.7591 17.6002 16.6ZM20.0002 26.2V20.92C19.1319 20.9199 18.2769 21.134 17.5111 21.5432C16.7452 21.9525 16.0921 22.5443 15.6096 23.2663C15.1272 23.9883 14.8302 24.8181 14.745 25.6822C14.6599 26.5464 14.7892 27.4182 15.1215 28.2205C15.4538 29.0227 15.9788 29.7307 16.65 30.2815C17.3213 30.8324 18.118 31.2092 18.9697 31.3786C19.8214 31.548 20.7017 31.5047 21.5326 31.2526C22.3635 31.0004 23.1195 30.5473 23.7334 29.9332L20.0002 26.2Z" fill="#1155cb"/>
</svg>
