<svg width="33" height="32" viewBox="0 0 33 32" fill="none" xmlns="http://www.w3.org/2000/svg">
<g clip-path="url(#clip0_1702_2957)">
<path d="M31.4846 23.1847L18.7446 1.73273C18.2287 0.674225 17.155 0.00192116 15.9774 4.07542e-06C14.7999 -0.00190482 13.724 0.666907 13.2046 1.72373L0.542623 23.1997C-0.128571 24.1725 -0.181142 25.4443 0.407485 26.4691C0.996111 27.4939 2.1212 28.0894 3.29962 27.9997H12.0166L16.0166 31.9997L20.0166 27.9997H28.7356C29.9171 28.089 31.0445 27.4901 31.632 26.4611C32.2194 25.4321 32.1621 24.1568 31.4846 23.1847ZM28.7356 25.9997H19.0166L16.0166 28.9997L13.0166 25.9997H3.29962C2.84033 26.0911 2.37393 25.8792 2.14066 25.4732C1.90739 25.0671 1.95929 24.5574 2.26962 24.2067L14.9266 2.73973C15.0824 2.29576 15.5016 1.9986 15.9721 1.9986C16.4426 1.9986 16.8618 2.29576 17.0176 2.73973L29.7656 24.2067C30.076 24.5574 30.1279 25.0671 29.8946 25.4732C29.6613 25.8792 29.1949 26.0911 28.7356 25.9997ZM16.0166 20.9997C16.5689 20.9997 17.0166 21.4474 17.0166 21.9997C17.0166 22.552 16.5689 22.9997 16.0166 22.9997C15.4643 22.9997 15.0166 22.552 15.0166 21.9997C15.0166 21.4474 15.4643 20.9997 16.0166 20.9997ZM16.0166 8.99973C16.5689 8.99973 17.0166 9.44744 17.0166 9.99973V17.9997C17.0166 18.552 16.5689 18.9997 16.0166 18.9997C15.4643 18.9997 15.0166 18.552 15.0166 17.9997V9.99973C15.0166 9.44744 15.4643 8.99973 16.0166 8.99973Z" fill="white"/>
</g>
<defs>
<clipPath id="clip0_1702_2957">
<rect width="33" height="32" fill="white"/>
</clipPath>
</defs>
</svg>
