<svg width="43" height="38" viewBox="0 0 43 38" fill="none" xmlns="http://www.w3.org/2000/svg">
<path fill-rule="evenodd" clip-rule="evenodd" d="M32 35H10C8.89543 35 8 34.1046 8 33V5C8 3.89543 8.89543 3 10 3H29L34 8V33C34 34.1046 33.1046 35 32 35ZM29 6V8H31L29 6ZM28 10L27 9V5H10V33H32V10H28ZM15 27H23C23.5523 27 24 27.4477 24 28C24 28.5523 23.5523 29 23 29H15C14.4477 29 14 28.5523 14 28C14 27.4477 14.4477 27 15 27ZM15 23H27C27.5523 23 28 23.4477 28 24C28 24.5523 27.5523 25 27 25H15C14.4477 25 14 24.5523 14 24C14 23.4477 14.4477 23 15 23ZM23 19H27C27.5523 19 28 19.4477 28 20C28 20.5523 27.5523 21 27 21H23C22.4477 21 22 20.5523 22 20C22 19.4477 22.4477 19 23 19ZM23 15H27C27.5523 15 28 15.4477 28 16C28 16.5523 27.5523 17 27 17H23C22.4477 17 22 16.5523 22 16C22 15.4477 22.4477 15 23 15ZM23 11H25C25.5523 11 26 11.4477 26 12C26 12.5523 25.5523 13 25 13H23C22.4477 13 22 12.5523 22 12C22 11.4477 22.4477 11 23 11ZM15 11H19C19.5523 11 20 11.4477 20 12V20C20 20.5523 19.5523 21 19 21H15C14.4477 21 14 20.5523 14 20V12C14 11.4477 14.4477 11 15 11ZM16 13H18V19H16V13Z" fill="#1155CB"/>
</svg>
