<?xml version="1.0" encoding="UTF-8"?>
<svg width="31px" height="31px" viewBox="0 0 31 31" version="1.1" xmlns="http://www.w3.org/2000/svg" xmlns:xlink="http://www.w3.org/1999/xlink">
    <!-- Generator: Sketch 55.2 (78181) - https://sketchapp.com -->
    <title>icn-control</title>
    <desc>Created with Sketch.</desc>
    <g id="Page-1" stroke="none" stroke-width="1" fill="none" fill-rule="evenodd">
        <g id="Desktop-HD" transform="translate(-435.000000, -118.000000)">
            <g id="Subnav" transform="translate(0.000000, 80.000000)">
                <g id="01-Products">
                    <g id="Gateway" transform="translate(203.000000, 37.000000)">
                        <g id="Kong-gateway" transform="translate(232.000000, 0.000000)">
                            <g id="Group-10" transform="translate(0.000000, 1.000000)">
                                <g id="icn-control">
                                    <rect id="Rectangle" fill="#3A8FE6" x="15" y="3" width="1" height="25"></rect>
                                    <rect id="Rectangle" fill="#3A8FE6" transform="translate(15.500000, 15.500000) rotate(-270.000000) translate(-15.500000, -15.500000) " x="15" y="3" width="1" height="25"></rect>
                                    <path d="M15.5,30.5 C16.0522847,30.5 16.5,30.0522847 16.5,29.5 C16.5,28.9477153 16.0522847,28.5 15.5,28.5 C14.9477153,28.5 14.5,28.9477153 14.5,29.5 C14.5,30.0522847 14.9477153,30.5 15.5,30.5 Z" id="Oval-3" stroke="#1155CB" fill-rule="nonzero"></path>
                                    <circle id="Oval-3" stroke="#1155CB" fill-rule="nonzero" cx="1.5" cy="15.5" r="1"></circle>
                                    <rect id="Rectangle-9" stroke="#C8A977" fill="#FFFFFF" fill-rule="nonzero" x="13.5" y="13.5" width="4" height="4"></rect>
                                    <circle id="Oval-3" stroke="#1155CB" fill-rule="nonzero" cx="29.5" cy="15.5" r="1"></circle>
                                    <path d="M15.5,2.5 C16.0522847,2.5 16.5,2.05228475 16.5,1.5 C16.5,0.94771525 16.0522847,0.5 15.5,0.5 C14.9477153,0.5 14.5,0.94771525 14.5,1.5 C14.5,2.05228475 14.9477153,2.5 15.5,2.5 Z" id="Oval-3" stroke="#1155CB" fill-rule="nonzero"></path>
                                    <path d="M6,7.5 C6.82842712,7.5 7.5,6.82842712 7.5,6 C7.5,5.17157288 6.82842712,4.5 6,4.5 C5.17157288,4.5 4.5,5.17157288 4.5,6 C4.5,6.82842712 5.17157288,7.5 6,7.5 Z" id="Oval-3" stroke="#C8A977" fill-rule="nonzero"></path>
                                    <path d="M25,7.5 C25.8284271,7.5 26.5,6.82842712 26.5,6 C26.5,5.17157288 25.8284271,4.5 25,4.5 C24.1715729,4.5 23.5,5.17157288 23.5,6 C23.5,6.82842712 24.1715729,7.5 25,7.5 Z" id="Oval-3" stroke="#C8A977" fill-rule="nonzero"></path>
                                    <path d="M6,27.5 C6.82842712,27.5 7.5,26.8284271 7.5,26 C7.5,25.1715729 6.82842712,24.5 6,24.5 C5.17157288,24.5 4.5,25.1715729 4.5,26 C4.5,26.8284271 5.17157288,27.5 6,27.5 Z" id="Oval-3" stroke="#C8A977" fill-rule="nonzero"></path>
                                    <path d="M25,27.5 C25.8284271,27.5 26.5,26.8284271 26.5,26 C26.5,25.1715729 25.8284271,24.5 25,24.5 C24.1715729,24.5 23.5,25.1715729 23.5,26 C23.5,26.8284271 24.1715729,27.5 25,27.5 Z" id="Oval-3" stroke="#C8A977" fill-rule="nonzero"></path>
                                </g>
                            </g>
                        </g>
                    </g>
                </g>
            </g>
        </g>
    </g>
</svg>