<?xml version="1.0" encoding="UTF-8"?>
<svg width="34px" height="33px" viewBox="0 0 34 33" version="1.1" xmlns="http://www.w3.org/2000/svg" xmlns:xlink="http://www.w3.org/1999/xlink">
    <!-- Generator: Sketch 53.2 (72643) - https://sketchapp.com -->
    <title>icn-support</title>
    <desc>Created with Sketch.</desc>
    <g id="Page-1" stroke="none" stroke-width="1" fill="none" fill-rule="evenodd">
        <g id="Desktop-HD" transform="translate(-2605.000000, -1345.000000)" stroke-width="2">
            <g id="Group-13" transform="translate(2199.000000, 1272.000000)">
                <g id="04-Resources">
                    <g id="SCP" transform="translate(407.000000, 38.000000)">
                        <g id="icn-support" transform="translate(0.000000, 36.000000)">
                            <path d="M8.11394647,2 L11.9333917,8.17529568 M8.53796594,11.4754837 L2.23163017,7.79832772 M30,22.6729655 L23.9879708,19.550423 M20.2628127,23.1704786 L23.4729343,29 M29.3181898,7.85489935 L23.4271533,10.9145257 M19.6382287,7.72800971 L23.9879708,2.68467533 M8.20877859,28.3412313 L11.7170219,22.6687358 M7.83217518,18.9180896 L2,22.3192606" id="Stroke-1" stroke="#C2D6FF"></path>
                            <g id="Group-6">
                                <path d="M32,15.459048 C32,23.9972107 24.8369655,30.9180427 16,30.9180427 C7.16303448,30.9180427 0,23.9972107 0,15.459048 C0,6.92088532 7.16303448,5.33068783e-05 16,5.33068783e-05 C24.8369655,5.33068783e-05 32,6.92088532 32,15.459048 Z" id="Stroke-2" stroke="#0573E3"></path>
                                <path d="M24.8491586,15.459048 C24.8491586,20.1809713 20.8872276,24.0089382 16.0000552,24.0089382 C11.1128828,24.0089382 7.15095172,20.1809713 7.15095172,15.459048 C7.15095172,10.7371247 11.1128828,6.9091578 16.0000552,6.9091578 C20.8872276,6.9091578 24.8491586,10.7371247 24.8491586,15.459048 Z" id="Stroke-4" stroke="#004B80"></path>
                            </g>
                        </g>
                    </g>
                </g>
            </g>
        </g>
    </g>
</svg>