<svg height="15" viewBox="0 0 16 15" width="16" xmlns="http://www.w3.org/2000/svg"><g fill="none" fill-rule="evenodd"><path d="m4 3v-1c0-1.105.79555556-2 1.77777778-2h4.44444442c.9822222 0 1.7777778.895 1.7777778 2v1h2c1.105 0 2 .895 2 2v8c0 1.105-.895 2-2 2h-12c-1.105 0-2-.895-2-2v-8c0-1.105.895-2 2-2zm-2 2v4h12v-4zm0 4v4h12v-4zm4-6v-1h4v1z" fill="#0573e3"/><path d="m2 15c-1.105 0-2-.895-2-2v-4h16v4c0 1.105-.895 2-2 2zm0-6v4h12v-4z" fill="#004b80"/><path d="m6 9v-2h4v2z" fill="#0573e3"/></g></svg>