<svg height="17" viewBox="0 0 15 17" width="15" xmlns="http://www.w3.org/2000/svg"><g fill="none" fill-rule="evenodd" transform="translate(0 -1)"><path d="m-.13281309 9.58217873s5-3.026 5-3.026 5.26562619-.11235746 5.26562619-.11235746h2 3s1 1 1 1v4.00000003s-1 1-1 1h-3-2s-5.26562619.1123574-5.26562619.1123574-5-2.97399997-5-2.97399997zm5-1.026s-2 1-2 1 2 .99999997 2 .99999997zm7.26562619 1.88764257h2v-2.00000003h-2zm-5.26562619.1123574s3.26562619-.1123574 3.26562619-.1123574v-2.00000003s-3.26562619.11235746-3.26562619.11235746z" fill="#004b80" transform="matrix(.52991926 -.8480481 .8480481 .52991926 -4.295811 11.250152)"/><path d="m0 16h11v2h-11z" fill="#c2d6ff" fill-rule="nonzero"/></g></svg>