<svg height="16" viewBox="0 0 16 16" width="16" xmlns="http://www.w3.org/2000/svg"><g fill="none" fill-rule="evenodd"><path d="m3 6v-5.00922203c0-.54719156.44748943-.99077797.99850233-.99077797h11.00299537c.5514576 0 .9985023.45097518.9985023.99077797v5.00922203 8.9991283c0 .5527662-.455761 1.0008717-1.0024733 1.0008717h-10.99505341c-.55365071 0-1.00247329-.4446309-1.00247329-1.0008717zm2 0v8h9v-8zm0-4v2h9v-2z" fill="#6c6c6c"/><path d="m-2.5 7.50292933c0-.55390257.45576096-1.00292933 1.00247329-1.00292933h9.99505342c.55365071 0 1.00247329.43788135 1.00247329 1.00292933v5.99707067h-12zm2 .99707067v2h8v-2z" fill="#6c6c6c" transform="matrix(0 -1 1 0 -6.5 13.5)"/><g fill-rule="nonzero"><path d="m2 12h5v2h-5z" fill="#fff"/><path d="m5 6h2v7h-2z" fill="#fff"/><path d="m5 4h9v3h-9z" fill="#fff"/><path d="m7 4h5v4h-5z" fill="#6c6c6c"/><path d="m7 9h5v1h-5z" fill="#6c6c6c"/><path d="m7 11h5v1h-5z" fill="#6c6c6c"/></g></g></svg>