<?xml version="1.0" encoding="UTF-8"?>
<svg width="34px" height="39px" viewBox="0 0 34 39" version="1.1" xmlns="http://www.w3.org/2000/svg" xmlns:xlink="http://www.w3.org/1999/xlink">
    <!-- Generator: Sketch 51.3 (57544) - http://www.bohemiancoding.com/sketch -->
    <title>icn-install</title>
    <desc>Created with Sketch.</desc>
    <defs></defs>
    <g id="Page-1" stroke="none" stroke-width="1" fill="none" fill-rule="evenodd">
        <g id="Desktop-HD" transform="translate(-1835.000000, -240.000000)" stroke-width="2">
            <g id="03-Docs" transform="translate(1797.000000, 187.000000)">
                <g id="icn-install" transform="translate(39.000000, 53.000000)">
                    <path d="M24.5791684,19.1954397 L18.9197211,19.1954397 L18.9197211,1.15916213 C18.9197211,1.062216 18.8598076,1 18.8042523,1 L11.9382063,1 C11.8779574,1 11.8227376,1.05775177 11.8227376,1.15916213 L11.8227376,19.1954397 L6.42400103,19.1954397 C4.7706184,19.1954397 4.56708359,19.6584333 5.68698931,20.8719037 L14.6962634,30.6338752 C15.147317,31.1226129 15.8539638,31.121497 16.3041707,30.6337901 L25.315539,20.8718186 C26.4323678,19.6619634 26.2271879,19.1954397 24.5791684,19.1954397 Z" id="icn---arrow-copy" stroke="#3A8FE6"></path>
                    <path d="M32,31 L32,37.0666667 C32,37.5821324 31.3336331,38 30.5116279,38 L1.48837209,38 C0.666366884,38 0,37.5821324 0,37.0666667 L0,31" id="Rectangle-3" stroke="#004B80" fill-rule="nonzero"></path>
                </g>
            </g>
        </g>
    </g>
</svg>