<?xml version="1.0" encoding="UTF-8"?>
<svg width="54px" height="62px" viewBox="0 0 54 62" version="1.1" xmlns="http://www.w3.org/2000/svg" xmlns:xlink="http://www.w3.org/1999/xlink">
    <!-- Generator: Sketch 51.3 (57544) - http://www.bohemiancoding.com/sketch -->
    <title>icn-kong</title>
    <desc>Created with Sketch.</desc>
    <defs></defs>
    <g id="Page-1" stroke="none" stroke-width="1" fill="none" fill-rule="evenodd">
        <g id="Desktop-HD" transform="translate(-372.000000, -248.000000)">
            <g id="01-Products" transform="translate(335.000000, 187.000000)">
                <g id="offerings" transform="translate(0.000000, 32.000000)">
                    <g id="icn-kong" transform="translate(64.195804, 60.000000) rotate(-180.000000) translate(-64.195804, -60.000000) translate(37.195804, 29.000000)">
                        <path d="M27.1218396,0.701950035 L0.829977699,15.8815636 L0.829977699,46.2407907 L27.1218396,61.4204042 L53.4137015,46.2407907 L53.4137015,15.8815636 L27.1218396,0.701950035 Z" id="Polygon-5" stroke="#C2D6FF"></path>
                        <path d="M27.1218396,6.78428509 L6.09743437,18.9227311 L6.09743437,43.1996231 L27.1218396,55.3380692 L48.1462448,43.1996231 L48.1462448,18.9227311 L27.1218396,6.78428509 Z" id="Polygon-5" stroke="#C2D6FF"></path>
                        <path d="M26.9685315,14.4962545 L12.5048951,22.8128454 L12.5048951,39.4389728 L26.9685315,47.7555637 L41.4321678,39.4389728 L41.4321678,22.8128454 L26.9685315,14.4962545 Z" id="Polygon-5" stroke="#004B80" stroke-width="2" fill="#FFFFFF"></path>
                        <g id="Group-14" transform="translate(26.532168, 32.759545) scale(-1, -1) rotate(-180.000000) translate(-26.532168, -32.759545) translate(16.532168, 23.759545)" fill="#062F4D">
                            <path d="M7.22793061,14.2973067 L10.7175062,14.2973067 L12.5293298,16.6760877 L12.2177322,17.4862739 L7.70945848,17.4862739 L7.82003678,16.6760877 L6.75717795,14.9255269 L7.22793061,14.2973067 Z M9.58846325,3.99739376 L11.4808812,3.99448984 L19.985026,14.3407863 L19.3242769,17.4862739 L15.6795678,17.4862739 L15.9063473,16.6000344 L7.95970959,6.92962485 L9.58846325,3.99739376 Z M12.8635828,0.069607211 L16.6850149,3.24047325 L16.1959182,3.77362295 L16.8584438,4.74756004 L16.8584438,5.78942116 L14.9532973,7.42876214 L11.7491483,3.43256527 L9.88376023,3.43256527 L10.6348853,1.97920675 L12.8635828,0.069607211 Z M4.88769477,9.89183372 L7.65457009,7.42876214 L11.3267982,11.9550822 L10.2841691,13.6131937 L6.89796264,13.6131937 L4.55544388,16.7619381 L4.02027821,17.4862739 L0.985026048,17.4862739 L0.985026048,13.6229052 L3.81418738,9.89183372 L4.88769477,9.89183372 Z" id="Combined-Shape" transform="translate(10.485026, 8.777941) scale(-1, -1) translate(-10.485026, -8.777941) "></path>
                        </g>
                    </g>
                </g>
            </g>
        </g>
    </g>
</svg>