<svg height="16" viewBox="0 0 16 16" width="16" xmlns="http://www.w3.org/2000/svg"><path d="m106 149c-4.418278 0-8-3.581722-8-8s3.581722-8 8-8 8 3.581722 8 8-3.581722 8-8 8zm0-2c3.313708 0 6-2.686292 6-6s-2.686292-6-6-6-6 2.686292-6 6 2.686292 6 6 6zm-1-9.502301c0-.274872.214035-.497699.504684-.497699h.990632c.278729 0 .504684.214844.504684.497699v4.004602c0 .274872-.214035.497699-.504684.497699h-.990632c-.278729 0-.504684-.214844-.504684-.497699zm0 6.006985c0-.278729.214035-.504684.504684-.504684h.990632c.278729 0 .504684.214035.504684.504684v.990632c0 .278729-.214035.504684-.504684.504684h-.990632c-.278729 0-.504684-.214035-.504684-.504684z" fill="#6c6c6c" fill-rule="evenodd" transform="matrix(1 0 0 -1 -98 149)"/></svg>