<svg height="16" viewBox="0 0 16 16" width="16" xmlns="http://www.w3.org/2000/svg"><g fill="none" fill-rule="evenodd"><path d="m8 16c-4.418278 0-8-3.581722-8-8s3.581722-8 8-8 8 3.581722 8 8-3.581722 8-8 8zm0-2c3.3137085 0 6-2.6862915 6-6s-2.6862915-6-6-6-6 2.6862915-6 6 2.6862915 6 6 6z" fill="#0573e3" transform="matrix(-1 0 0 -1 16 16)"/><path d="m9 11.5023012c0 .2748715-.21403503.4976988-.50468445.4976988h-.9906311c-.27872953 0-.50468445-.2148438-.50468445-.4976988v-4.00460242c0-.27487144.21403503-.49769878.50468445-.49769878h.9906311c.27872953 0 .50468445.21484375.50468445.49769878zm0-6.00698565c0 .27872953-.21403503.50468445-.50468445.50468445h-.9906311c-.27872953 0-.50468445-.21403503-.50468445-.50468445v-.9906311c0-.27872953.21403503-.50468445.50468445-.50468445h.9906311c.27872953 0 .50468445.21403503.50468445.50468445z" fill="#004b80"/></g></svg>