<?xml version="1.0" encoding="UTF-8"?>
<svg width="57px" height="54px" viewBox="0 0 57 54" version="1.1" xmlns="http://www.w3.org/2000/svg" xmlns:xlink="http://www.w3.org/1999/xlink">
    <!-- Generator: Sketch 51.3 (57544) - http://www.bohemiancoding.com/sketch -->
    <title>icn-kong-cloud</title>
    <desc>Created with Sketch.</desc>
    <defs></defs>
    <g id="Page-1" stroke="none" stroke-width="1" fill="none" fill-rule="evenodd">
        <g id="Desktop-HD" transform="translate(-956.000000, -255.000000)">
            <g id="01-Products" transform="translate(335.000000, 187.000000)">
                <g id="offerings" transform="translate(0.000000, 32.000000)">
                    <g id="icn-kong-cloud" transform="translate(650.500000, 62.500000) rotate(-180.000000) translate(-650.500000, -62.500000) translate(621.000000, 34.000000)">
                        <g id="Group-17" transform="translate(1.000000, 0.000000)">
                            <g id="Group-2" transform="translate(29.000000, 28.579518) rotate(-180.000000) translate(-29.000000, -28.579518) translate(0.500000, 22.579518)">
                                <path d="M55.3658445,7.8905995 L0.236600146,7.85294325" id="Path-4" stroke="#088BE8"></path>
                                <path d="M56.4454624,4.51224296 L1.31621798,4.47458671" id="Path-4" stroke="#FC6754"></path>
                                <path d="M56.4454624,11.268956 L1.31621798,11.2312998" id="Path-4" stroke="#00BC4C"></path>
                                <path d="M56.4454624,1.02445055 L1.31621798,0.986794294" id="Path-4" stroke="#0043BA"></path>
                            </g>
                            <g id="Group-2" transform="translate(29.145818, 28.375031) rotate(-120.000000) translate(-29.145818, -28.375031) translate(0.645818, 22.375031)">
                                <path d="M55.3658445,7.8905995 L0.236600146,7.85294325" id="Path-4" stroke="#088BE8"></path>
                                <path d="M56.4454624,4.51224296 L1.31621798,4.47458671" id="Path-4" stroke="#FC6754"></path>
                                <path d="M56.4454624,11.268956 L1.31621798,11.2312998" id="Path-4" stroke="#00BC4C"></path>
                                <path d="M56.4454624,1.02445055 L1.31621798,0.986794294" id="Path-4" stroke="#0043BA"></path>
                            </g>
                            <g id="Group-2" transform="translate(29.395818, 28.399069) rotate(-60.000000) translate(-29.395818, -28.399069) translate(0.895818, 22.399069)">
                                <path d="M55.3658445,7.8905995 L0.236600146,7.85294325" id="Path-4" stroke="#088BE8"></path>
                                <path d="M56.4454624,4.51224296 L1.31621798,4.47458671" id="Path-4" stroke="#FC6754"></path>
                                <path d="M56.4454624,11.268956 L1.31621798,11.2312998" id="Path-4" stroke="#00BC4C"></path>
                                <path d="M56.4454624,1.02445055 L1.31621798,0.986794294" id="Path-4" stroke="#0043BA"></path>
                            </g>
                        </g>
                        <path d="M30.5363636,12.5871636 L16.0727273,20.9037545 L16.0727273,37.5298819 L30.5363636,45.8464728 L45,37.5298819 L45,20.9037545 L30.5363636,12.5871636 Z" id="Polygon-5" stroke="#004B80" stroke-width="2" fill="#FFFFFF"></path>
                        <path d="M27.5370215,35.640034 L31.0265971,35.640034 L32.8384208,38.018815 L32.5268231,38.8290012 L28.0185494,38.8290012 L28.1291277,38.018815 L27.0662689,36.2682542 L27.5370215,35.640034 Z M29.8975542,25.340121 L31.7899721,25.3372171 L40.294117,35.6835136 L39.6333678,38.8290012 L35.9886587,38.8290012 L36.2154382,37.9427617 L28.2688005,28.2723521 L29.8975542,25.340121 Z M33.1726737,21.4123345 L36.9941059,24.5832005 L36.5050091,25.1163502 L37.1675347,26.0902873 L37.1675347,27.1321484 L35.2623882,28.7714894 L32.0582392,24.7752925 L30.1928511,24.7752925 L30.9439762,23.321934 L33.1726737,21.4123345 Z M25.1967857,31.234561 L27.963661,28.7714894 L31.6358891,33.2978095 L30.5932601,34.955921 L27.2070535,34.955921 L24.8645348,38.1046653 L24.3293691,38.8290012 L21.294117,38.8290012 L21.294117,34.9656325 L24.1232783,31.234561 L25.1967857,31.234561 Z" id="Combined-Shape" fill="#062F4D" transform="translate(30.794117, 30.120668) scale(-1, -1) translate(-30.794117, -30.120668) "></path>
                    </g>
                </g>
            </g>
        </g>
    </g>
</svg>