<svg height="40" viewBox="0 0 40 40" width="40" xmlns="http://www.w3.org/2000/svg"><g fill="none" stroke-width="2" transform="translate(-4 -4)"><g stroke="#004b80" stroke-linecap="round"><path d="m28 22 11-11"/><path d="m26 30 6 13"/><path d="m15 30 6 13" transform="matrix(-1 0 0 1 36 0)"/><path d="m29 29 14-3" transform="matrix(1 0 0 -1 0 55)"/><path d="m5 29 14-3" transform="matrix(-1 0 0 -1 24 55)"/><path d="m9 21 11-11" transform="matrix(-1 0 0 1 29 0)"/><path d="m24 20v-15"/></g><circle cx="24" cy="25" r="5" stroke="#0573e3"/><circle cx="24" cy="25" r="14" stroke="#0573e3"/></g></svg>