<svg height="34" viewBox="0 0 34 34" width="34" xmlns="http://www.w3.org/2000/svg"><g fill="none" transform="translate(1 1)"><g stroke-width="2"><path d="m0 0h32v32h-32z" stroke="#004b80"/><path d="m8 13v15" stroke="#3a8fe6"/><path d="m8 28c1.1045695 0 2-.8954305 2-2s-.8954305-2-2-2-2 .8954305-2 2 .8954305 2 2 2z" fill="#fff" stroke="#004b80"/><path d="m15 15v14" stroke="#3a8fe6"/><path d="m5 4h14v5h-14z" stroke="#c2d6ff"/><path d="m15 18c1.1045695 0 2-.8954305 2-2s-.8954305-2-2-2-2 .8954305-2 2 .8954305 2 2 2z" fill="#fff" stroke="#004b80"/><path d="m22 4h6" stroke="#c2d6ff"/><path d="m22 9h6" stroke="#c2d6ff"/><path d="m22 14h6" stroke="#c2d6ff"/></g><circle cx="25" cy="27" fill="#c2d6ff" r="2"/></g></svg>