<?xml version="1.0" encoding="UTF-8"?>
<svg width="53px" height="60px" viewBox="0 0 53 60" version="1.1" xmlns="http://www.w3.org/2000/svg" xmlns:xlink="http://www.w3.org/1999/xlink">
    <!-- Generator: Sketch 51.3 (57544) - http://www.bohemiancoding.com/sketch -->
    <title>icn-kong-enterprise</title>
    <desc>Created with Sketch.</desc>
    <defs></defs>
    <g id="Page-1" stroke="none" stroke-width="1" fill="none" fill-rule="evenodd">
        <g id="Desktop-HD" transform="translate(-672.000000, -249.000000)">
            <g id="01-Products" transform="translate(335.000000, 187.000000)">
                <g id="offerings" transform="translate(0.000000, 32.000000)">
                    <g id="icn-kong-enterprise" transform="translate(363.500000, 60.000000) rotate(-180.000000) translate(-363.500000, -60.000000) translate(336.000000, 29.000000)">
                        <path d="M26.7454545,15.0794363 L12.2818182,23.3960272 L12.2818182,40.0221546 L26.7454545,48.3387455 L41.2090909,40.0221546 L41.2090909,23.3960272 L26.7454545,15.0794363 Z" id="Polygon-5" stroke="#004B80" stroke-width="2" fill="#FFFFFF"></path>
                        <g id="Group-14" transform="translate(27.254545, 32.509091) rotate(-180.000000) translate(-27.254545, -32.509091) translate(17.254545, 23.509091)" fill="#062F4D">
                            <path d="M7.22793061,14.2973067 L10.7175062,14.2973067 L12.5293298,16.6760877 L12.2177322,17.4862739 L7.70945848,17.4862739 L7.82003678,16.6760877 L6.75717795,14.9255269 L7.22793061,14.2973067 Z M9.58846325,3.99739376 L11.4808812,3.99448984 L19.985026,14.3407863 L19.3242769,17.4862739 L15.6795678,17.4862739 L15.9063473,16.6000344 L7.95970959,6.92962485 L9.58846325,3.99739376 Z M12.8635828,0.0696072109 L16.6850149,3.24047325 L16.1959182,3.77362295 L16.8584438,4.74756004 L16.8584438,5.78942116 L14.9532973,7.42876214 L11.7491483,3.43256527 L9.88376023,3.43256527 L10.6348853,1.97920675 L12.8635828,0.0696072109 Z M4.88769477,9.89183372 L7.65457009,7.42876214 L11.3267982,11.9550822 L10.2841691,13.6131937 L6.89796264,13.6131937 L4.55544388,16.7619381 L4.02027821,17.4862739 L0.985026048,17.4862739 L0.985026048,13.6229052 L3.81418738,9.89183372 L4.88769477,9.89183372 Z" id="Combined-Shape"></path>
                        </g>
                        <g id="Group-5" transform="translate(1.218182, 25.745455)" stroke-linecap="round">
                            <polyline id="Path-7" stroke="#00BC4C" points="1.07401592 4.05945946 1.07401592 17.0982801 11.1122768 23.0776413 11.1122768 27.217199 23.8882452 34.5764128"></polyline>
                            <path d="M1.53030051,21.2378378 L7.9182847,25.3773956" id="Path-9" stroke="#088BE8"></path>
                            <polyline id="Path-10" stroke="#0043BA" points="13.8499843 24.9174447 25.7133835 31.8167076 37.5767827 24.9174447"></polyline>
                            <path d="M27.9948064,26.7572482 L37.207929,21.1577396" id="Path-13" stroke="#00BC4C"></path>
                            <polyline id="Path-15" stroke="#00BC4C" points="51.2653203 7.65896806 51.2653203 20.777887 43.8773361 25.4574939"></polyline>
                            <path d="M7.46200011,0.37985258 L7.46200011,14.3385749" id="Path-16" stroke="#0043BA"></path>
                            <polyline id="Path-8" stroke="#088BE8" points="4.26800802 2.21965602 4.26800802 14.7985258 23.4319606 26.2972973"></polyline>
                            <polyline id="Path-12" stroke="#088BE8" points="28.451091 34.1164619 41.2270594 26.7572482 41.2270594 19.3827197 44.4210515 17.0982801 44.4210515 11.2813039"></polyline>
                            <polyline id="Path-14" stroke="#0043BA" points="48.0713282 9.03882064 48.0713282 18.4781327 43.4210515 21.777887"></polyline>
                        </g>
                        <g id="Group-5" transform="translate(27.190909, 17.754545) rotate(-180.000000) translate(-27.190909, -17.754545) translate(0.690909, 0.254545)" stroke-linecap="round">
                            <polyline id="Path-7" stroke="#00BC4C" points="1.07401592 5.05945946 1.07401592 16.0982801 11.1122768 22.0776413 11.1122768 26.217199 23.8882452 33.5764128"></polyline>
                            <path d="M1.53030051,20.2378378 L7.9182847,24.3773956" id="Path-9" stroke="#088BE8"></path>
                            <polyline id="Path-10" stroke="#0043BA" points="13.8499843 23.9174447 25.7133835 30.8167076 37.5767827 23.9174447"></polyline>
                            <path d="M27.9948064,25.7572482 L36.207929,21.1577396" id="Path-13" stroke="#00BC4C"></path>
                            <polyline id="Path-15" stroke="#00BC4C" points="51.2653203 9.1990172 51.2653203 19.777887 44.8773361 23.4574939"></polyline>
                            <path d="M8.37456928,1.37985258 L8.37456928,13.3385749" id="Path-16" stroke="#0043BA"></path>
                            <polyline id="Path-8" stroke="#088BE8" points="4.7242926 3.21965602 4.7242926 14.2584767 23.4319606 25.2972973"></polyline>
                            <polyline id="Path-12" stroke="#088BE8" points="28.451091 33.1164619 41.683344 25.2972973 41.683344 17.9227688 45.3336207 15.1783784 45.3336207 11.9014513"></polyline>
                            <polyline id="Path-14" stroke="#0043BA" points="48.5276128 10.1189189 48.5276128 17.0181818 44.4210515 19.777887"></polyline>
                        </g>
                    </g>
                </g>
            </g>
        </g>
    </g>
</svg>