<svg height="34" viewBox="0 0 44 34" width="44" xmlns="http://www.w3.org/2000/svg"><g fill="none" stroke-width="2" transform="translate(2 1)"><path d="m10 2h20v28h-20z" stroke="#c2d6ff"/><path d="m10 2-10 15 10 13" stroke="#3a8fe6"/><path d="m30 2-10 15 10 13" stroke="#3a8fe6"/><path d="m40 2-10 15 10 13" stroke="#3a8fe6" transform="matrix(-1 0 0 1 70 0)"/><path d="m20 2-10 15 10 13" stroke="#3a8fe6" transform="matrix(-1 0 0 1 30 0)"/><g fill="#fff" stroke="#004b80"><circle cx="20" cy="17" r="2"/><circle cx="10" cy="2" r="2"/><circle cx="30" cy="2" r="2"/><circle cx="10" cy="30" r="2"/><circle cx="30" cy="30" r="2"/></g></g></svg>