<?xml version="1.0" encoding="utf-8"?>
<!-- Generator: Adobe Illustrator 23.0.0, SVG Export Plug-In . SVG Version: 6.00 Build 0)  -->
<svg version="1.1" id="Layer_1" xmlns="http://www.w3.org/2000/svg" xmlns:xlink="http://www.w3.org/1999/xlink" x="0px" y="0px"
	 viewBox="0 0 16 16" style="enable-background:new 0 0 16 16;" xml:space="preserve">
<style type="text/css">
	.st0{fill:#6C6C6C;stroke:#6C6C6C;stroke-width:0.75;}
</style>
<path class="st0" d="M2.7,4.4C2.6,4.4,2.6,4.4,2.7,4.4L0,7.9C0,8,0,8.1,0.1,8.2l2.6,2.2c-0.6,0.1-1,0.8-0.8,1.4
	c0.1,0.6,0.8,1,1.4,0.8c0.1,0,0.2-0.1,0.3-0.1c0.1,0.4,0.4,0.8,0.9,0.8c0.1,0,0.2,0,0.2,0l0,0c0,0.5,0.4,0.9,0.9,0.9
	c0.2,0,0.3,0,0.5-0.1c0,0.5,0.5,0.9,1,0.8c0.2,0,0.4-0.1,0.6-0.2c0.2,0.2,0.5,0.2,0.8,0.2s0.6-0.1,0.8-0.4c0.2-0.2,0.3-0.4,0.4-0.7
	C9.5,14,9.7,14,9.8,14c0.5,0,0.9-0.3,1-0.8c0.1,0.1,0.3,0.1,0.4,0.1c0.5,0,0.9-0.4,1-0.9h0.1c0.2,0.1,0.4,0.2,0.6,0.2
	c0.3,0,0.6-0.1,0.8-0.3s0.3-0.5,0.3-0.8c0-0.4-0.2-0.7-0.5-0.9l0,0L9.1,7.2C9,7.1,8.9,7.1,8.8,7.2c0,0-0.3,0.3-0.7,0.5
	C7.8,7.9,7.6,8,7.5,8.1C7.3,8.2,7.2,8.2,7.1,8.3c-0.2,0-0.3,0-0.5-0.1C6.4,8.1,6.3,8,6.2,7.8l1.9-2.1l0,0c0.4-0.3,0.8-0.4,1.2-0.4
	c1.5,0,2.4,0,3.8-0.4L15.5,8L14,9.2c-0.1,0.1-0.2,0.2-0.1,0.3c0.1,0.1,0.2,0.2,0.3,0.1l0,0c0,0,0,0,0.1,0L16,8.2c0-0.1,0-0.2,0-0.3
	l-2.5-3.4c-0.1-0.1-0.1-0.1-0.2-0.1l0,0C11.8,4.9,11,4.8,9.4,4.8C8.9,4.8,8.4,5,8,5.2C7.6,5,7.1,4.8,6.6,4.8C5,4.8,4.2,4.8,2.7,4.4
	C2.8,4.4,2.7,4.4,2.7,4.4z M2.8,4.9c1.4,0.4,2.3,0.4,3.8,0.4c0.4,0,0.7,0.1,1,0.3L5.8,7.7c-0.1,0.1-0.1,0.2,0,0.2
	c0.1,0.3,0.3,0.6,0.7,0.8C6.7,8.8,7,8.8,7.2,8.8s0.4-0.1,0.6-0.2C8,8.5,8.2,8.3,8.4,8.2C8.7,8,8.9,7.8,9,7.7l4.2,3.3l0,0
	c0.2,0.1,0.3,0.3,0.4,0.6c0,0.2-0.1,0.4-0.2,0.5c-0.1,0.1-0.3,0.2-0.4,0.2c-0.1,0-0.2,0-0.3-0.1L12.4,12L12,11.7l-1-0.8L9.5,9.7
	c-0.1-0.1-0.2-0.1-0.3,0l0,0c-0.1,0.1-0.1,0.3,0,0.4l0,0l1.5,1.2l1,0.8l0.1,0.1l-0.1,0.1c0,0.3-0.2,0.6-0.6,0.6
	c-0.1,0-0.2,0-0.3-0.1l-0.1-0.1l-0.2-0.2c-0.2-0.2-0.5-0.4-0.7-0.6c-0.5-0.4-1-0.8-1-0.8S8.7,11,8.6,11c-0.1,0-0.2,0.1-0.2,0.2
	c0,0.1,0,0.1,0.1,0.2l1,0.8c0.3,0.2,0.5,0.4,0.7,0.6c0.1,0.1,0.1,0.1,0.2,0.1c0,0.3-0.2,0.6-0.6,0.6l0,0c-0.1,0-0.2,0-0.3-0.1
	c0,0-1-0.7-1.6-1.2c0,0-0.1-0.1-0.2-0.1s-0.2,0.1-0.2,0.3c0,0.1,0,0.1,0.1,0.2c0.4,0.4,1,0.7,1.3,1v0.2c0,0.2-0.1,0.3-0.2,0.5
	c-0.1,0.1-0.3,0.2-0.5,0.2s-0.4,0-0.5-0.2c0-0.1,0.1-0.2,0.1-0.3c0-0.5-0.4-0.9-0.9-0.9c-0.2,0-0.3,0-0.5,0.1c0-0.5-0.4-0.8-0.9-0.8
	c-0.1,0-0.2,0-0.2,0l0,0c0-0.5-0.4-0.9-0.9-0.9c-0.1,0-0.2,0-0.2,0l0,0c0-0.5-0.3-0.9-0.7-1.1l0,0L0.5,8L2.8,4.9z M3,10.8
	c0.4,0,0.7,0.3,0.7,0.7S3.4,12.2,3,12.2s-0.7-0.3-0.7-0.7S2.6,10.8,3,10.8z M4.3,11.9c0.3,0,0.5,0.2,0.5,0.5s-0.2,0.5-0.5,0.5
	s-0.5-0.2-0.5-0.5C3.9,12.1,4.1,11.9,4.3,11.9z M5.5,12.8C5.8,12.8,6,13,6,13.3s-0.2,0.5-0.5,0.5S5,13.6,5,13.3S5.2,12.8,5.5,12.8z
	 M6.9,13.5c0.3,0,0.5,0.2,0.5,0.5s-0.2,0.5-0.5,0.5S6.4,14.2,6.4,14C6.4,13.7,6.6,13.5,6.9,13.5z"/>
</svg>
