<svg height="33" viewBox="0 0 34 33" width="34" xmlns="http://www.w3.org/2000/svg"><g fill="none" fill-rule="evenodd" transform="translate(1 1)"><path d="m32 15.459048c0 8.5381627-7.1630345 15.4589947-16 15.4589947-8.83696552 0-16-6.920832-16-15.4589947 0-8.53816268 7.16303448-15.45899469 16-15.45899469 8.8369655 0 16 6.92083201 16 15.45899469z" stroke="#0573e3" stroke-width="2"/><path d="m15.427528 18.271279c0-.7502331.0910983-1.3477313.2732978-1.7925123.1821995-.4447811.5157803-.8828571 1.0007524-1.3142412.4849722-.431384.8078355-.7823807.9685998-1.0530005.1607642-.2706198.2411451-.5559721.2411451-.8560653 0-.9056386-.4179808-1.3584511-1.2539548-1.3584511-.3965518 0-.7140564.1219111-.9525234.3657368-.238467.2438258-.3630574.580086-.373775 1.0087906h-2.3310699c.0107176-1.0235323.3416191-1.8246621.9927142-2.4034134.6510952-.5787513 1.5393044-.8681226 2.6646541-.8681226 1.1360673 0 2.017578.2746348 2.6445586.8239126.6269805.5492779.9404661 1.3249537.9404661 2.3270508 0 .4554987-.1018158.8855366-.3054505 1.2901266-.2036347.4045901-.5599901.8533835-1.0690769 1.3463939l-.651092.6189392c-.4072694.391193-.640374.8493642-.6993209 1.3745274l-.0321527.4903285zm-.233107 2.4677188c0-.3590401.121911-.6551098.3657368-.888218.2438258-.2331081.5559717-.3496605.936447-.3496605.3804754 0 .6926213.1165524.9364471.3496605.2438257.2331082.3657368.5291779.3657368.888218 0 .3536814-.1192317.645732-.3576987.8761608-.2384669.2304287-.5532922.3456414-.9444852.3456414s-.7060182-.1152127-.9444852-.3456414c-.2384669-.2304288-.3576986-.5224794-.3576986-.8761608z" fill="#004b80"/></g></svg>