<?xml version="1.0" encoding="UTF-8"?>
<svg width="32px" height="32px" viewBox="0 0 32 32" version="1.1" xmlns="http://www.w3.org/2000/svg" xmlns:xlink="http://www.w3.org/1999/xlink">
    <!-- Generator: Sketch 55.2 (78181) - https://sketchapp.com -->
    <title>icn-manager</title>
    <desc>Created with Sketch.</desc>
    <g id="Page-1" stroke="none" stroke-width="1" fill="none" fill-rule="evenodd">
        <g id="Desktop-HD" transform="translate(-1121.000000, -546.000000)">
            <g id="Subnav" transform="translate(0.000000, 80.000000)">
                <g id="01-Products">
                    <g id="Enterprise" transform="translate(203.000000, 135.000000)">
                        <g id="Enterprise-02" transform="translate(238.000000, 331.000000)">
                            <g id="Group-3" transform="translate(680.000000, 0.000000)">
                                <g id="Group-8">
                                    <g id="icn-manager">
                                        <rect id="Rectangle-11" stroke="#3A8FE6" fill-rule="nonzero" x="0.5" y="0.5" width="31" height="31"></rect>
                                        <rect id="Rectangle-9" stroke="#C8A977" fill-rule="nonzero" x="5.5" y="4.5" width="13" height="5"></rect>
                                        <path d="M7.5,21.5 C8.05228475,21.5 8.5,21.0522847 8.5,20.5 C8.5,19.9477153 8.05228475,19.5 7.5,19.5 C6.94771525,19.5 6.5,19.9477153 6.5,20.5 C6.5,21.0522847 6.94771525,21.5 7.5,21.5 Z" id="Oval-3" stroke="#C8A977" fill-rule="nonzero"></path>
                                        <path d="M16.5,21.5 C17.0522847,21.5 17.5,21.0522847 17.5,20.5 C17.5,19.9477153 17.0522847,19.5 16.5,19.5 C15.9477153,19.5 15.5,19.9477153 15.5,20.5 C15.5,21.0522847 15.9477153,21.5 16.5,21.5 Z" id="Oval-3" stroke="#C8A977" fill-rule="nonzero"></path>
                                        <path d="M11.5,14.5 C12.0522847,14.5 12.5,14.0522847 12.5,13.5 C12.5,12.9477153 12.0522847,12.5 11.5,12.5 C10.9477153,12.5 10.5,12.9477153 10.5,13.5 C10.5,14.0522847 10.9477153,14.5 11.5,14.5 Z" id="Oval-3" stroke="#C8A977" fill-rule="nonzero"></path>
                                        <rect id="Rectangle" fill="#1155CB" x="22" y="10" width="6" height="1"></rect>
                                        <rect id="Rectangle" fill="#1155CB" x="6" y="27" width="14" height="1"></rect>
                                        <polygon id="Rectangle" fill="#1155CB" transform="translate(7.500000, 15.000000) rotate(-270.000000) translate(-7.500000, -15.000000) " points="4.5 14.5 10.5 14.5 10.5 15.5 4.5 15.5"></polygon>
                                        <polygon id="Rectangle" fill="#1155CB" transform="translate(16.500000, 15.000000) rotate(-270.000000) translate(-16.500000, -15.000000) " points="13.5 14.5 19.5 14.5 19.5 15.5 13.5 15.5"></polygon>
                                        <polygon id="Rectangle" fill="#1155CB" transform="translate(11.500000, 19.000000) rotate(-270.000000) translate(-11.500000, -19.000000) " points="8.5 18.5 14.5 18.5 14.5 19.5 8.5 19.5"></polygon>
                                        <rect id="Rectangle" fill="#1155CB" x="22" y="7" width="6" height="1"></rect>
                                        <rect id="Rectangle" fill="#1155CB" x="6" y="25" width="14" height="1"></rect>
                                        <rect id="Rectangle" fill="#1155CB" x="22" y="4" width="6" height="1"></rect>
                                        <circle id="Oval-5" fill-rule="nonzero" cx="25" cy="27" r="2"></circle>
                                    </g>
                                </g>
                            </g>
                        </g>
                    </g>
                </g>
            </g>
        </g>
    </g>
</svg>