<?xml version="1.0" encoding="UTF-8"?>
<svg width="33px" height="32px" viewBox="0 0 33 32" version="1.1" xmlns="http://www.w3.org/2000/svg" xmlns:xlink="http://www.w3.org/1999/xlink">
    <!-- Generator: Sketch 55.2 (78181) - https://sketchapp.com -->
    <title>icn-plugins</title>
    <desc>Created with Sketch.</desc>
    <g id="Page-1" stroke="none" stroke-width="1" fill="none" fill-rule="evenodd">
        <g id="Desktop-HD" transform="translate(-1117.000000, -118.000000)">
            <g id="Subnav" transform="translate(0.000000, 80.000000)">
                <g id="01-Products">
                    <g id="Gateway" transform="translate(203.000000, 37.000000)">
                        <g id="Kong-gateway" transform="translate(232.000000, 0.000000)">
                            <g id="Group" transform="translate(682.000000, 1.000000)">
                                <g id="icn-plugins">
                                    <path d="M17.5,3.5 L17.5,10.5 L31.5,10.5 L31.5,3.5 L28.5,3.5 L28.5,1 C28.5,0.723857625 28.2761424,0.5 28,0.5 L21,0.5 C20.7238576,0.5 20.5,0.723857625 20.5,1 L20.5,3.5 L17.5,3.5 Z" id="Combined-Shape" stroke="#3A8FE6"></path>
                                    <path d="M31.5669643,30.5302119 L31.5669643,23.5 L28.5,23.5 L28.5,21 C28.5,20.7238576 28.2761424,20.5 28,20.5 L21,20.5 C20.7238576,20.5 20.5,20.7238576 20.5,21 L20.5,23.5 L11.5,23.5 L11.5,21 C11.5,20.7238576 11.2761424,20.5 11,20.5 L4,20.5 C3.72385763,20.5 3.5,20.7238576 3.5,21 L3.5,23.5 L0.5,23.5 L0.5,30.5348632 L18.8013123,30.5037385 L18.8031996,30.5037389 L31.5669643,30.5302119 Z" id="Combined-Shape" stroke="#C8A977"></path>
                                    <path d="M0.5,9.5 L0.5,16.5 L14.5,16.5 L14.5,9.5 L11.5,9.5 L11.5,7 C11.5,6.72385763 11.2761424,6.5 11,6.5 L4,6.5 C3.72385763,6.5 3.5,6.72385763 3.5,7 L3.5,9.5 L0.5,9.5 Z" id="Combined-Shape" stroke="#1155CB"></path>
                                </g>
                            </g>
                        </g>
                    </g>
                </g>
            </g>
        </g>
    </g>
</svg>