<svg width="2463" height="824" viewBox="0 0 2463 824" xmlns="http://www.w3.org/2000/svg" xmlns:xlink="http://www.w3.org/1999/xlink"><defs><path id="a" d="M0 0h2473v884H0z"/></defs><g fill="none" fill-rule="evenodd"><mask id="b" fill="#fff"><use xlink:href="#a"/></mask><g mask="url(#b)" stroke-width=".82"><path d="M-109.176-68.126c301.312 191.822 664.051 323.603 1439.404-116.538 676.082-384.566 700.534-768.38 653.197-1140.824l215.276-129.35s514.411 1066.076-556.598 1721.495C614.889 895.272-166.224-33.848-166.224-33.848l57.048-34.278z" stroke="#EE485D"/><path d="M-217.67-.914c108.365 123.72 288.828 313.514 666.034 501.81 417.543 208.825 935.384 334.759 1262.181 22.983C2218.453 39.63 1197.24-354.251 783.071-601.894L502.21-433.136s885.786 599.3 726.073 816.867c-109.58 127.864-513.22 160.563-931.225-59.055A1686.91 1686.91 0 0 1-19.33 107.813 1532.123 1532.123 0 0 1-163.96-33.185L-217.67-.914z" stroke="#006ED9" opacity=".9" style="mix-blend-mode:multiply"/><path d="M1163.582-830.679s762.93 1134.34 1768.495 1165.61c63.414 105.537 69.356 113.53 69.356 113.53l133.877-179.296s172.927-241.032 173.676-279.59c.268-62.374-18.133-111.412 1.174-133.436l160.474-184.855-120.076-93.966s-1307.88 133.606-1990.21-526.225L1163.581-830.68z" stroke="#3DB664" style="mix-blend-mode:multiply"/><path d="M3309.385-144.182c-19.248 22.15-.378 68.455-.736 130.71-.358 62.257-307.04 461.31-307.04 461.31s-5.87-7.871-69.275-113.395c0 0-1121.056 694.116-2040.066 427.899C98.878 532.349-190.562 115.657-269.939 30.15L-218.27-.895S-179.708 41.883-113.435 111C-8.673 220.333 182.77 364.21 423.882 488.342c395.508 203.641 883.467 351.732 1358.084 54.991 569.245-324.287 707.666-998.228 707.666-998.228 76.888 25.286 337.13 40.383 552.731 42.408 163.669 1.477 308.804-10.824 308.804-10.824l119.874 93.576-161.656 185.553z" stroke="#00CDDE" style="mix-blend-mode:multiply"/></g></g></svg>