<?xml version="1.0" encoding="UTF-8"?> <svg xmlns="http://www.w3.org/2000/svg" xmlns:xlink="http://www.w3.org/1999/xlink" id="Layer_1" data-name="Layer 1" viewBox="0 0 400 109.21469"><defs><style>.cls-1{fill:#fff;}.cls-2{clip-path:url(#clip-path);}.cls-3{clip-path:url(#clip-path-2);}.cls-4{clip-path:url(#clip-path-3);}.cls-5{clip-path:url(#clip-path-4);}.cls-6{clip-path:url(#clip-path-5);}.cls-7{clip-path:url(#clip-path-6);}.cls-8{clip-path:url(#clip-path-7);}.cls-9{clip-path:url(#clip-path-8);}.cls-10{clip-path:url(#clip-path-9);}.cls-11{clip-path:url(#clip-path-10);}.cls-12{clip-path:url(#clip-path-11);}.cls-13{clip-path:url(#clip-path-12);}.cls-14{clip-path:url(#clip-path-13);}.cls-15{clip-path:url(#clip-path-14);}</style><clipPath id="clip-path"><path class="cls-1" d="M96.09708,41.88907c-5.28368,0-9.1146,3.17087-9.1146,7.72817v.06715c0,4.95284,3.23719,6.60459,8.918,7.99184,4.95286,1.18907,6.01008,2.17915,6.01008,4.09462v.06552c0,2.04812-1.84994,3.36986-4.75629,3.36986-3.36823,0-5.87822-1.32174-8.45454-3.50089l-2.84,3.36823a16.53556,16.53556,0,0,0,11.229,4.29359c5.61372,0,9.511-2.97267,9.511-7.99184V61.309c0-4.42546-2.97188-6.40726-8.5872-7.79369-5.15184-1.25541-6.34092-2.18079-6.34092-4.22808v-.06633c0-1.78281,1.58624-3.17,4.35994-3.17a12.21281,12.21281,0,0,1,7.26547,2.77449l2.5108-3.56722a15.0077,15.0077,0,0,0-9.43573-3.37146c-.09141,0-.18282.00081-.275.00242"></path></clipPath><clipPath id="clip-path-2"><path class="cls-1" d="M120.27247,52.19356c3.0382,0,4.75548,2.31182,5.08551,5.2837H115.0543c.39636-3.10372,2.379-5.2837,5.21817-5.2837m-9.84181,6.67174v.06554a10.5477,10.5477,0,0,0,18.62639,6.67092l-2.70737-2.37733a7.60711,7.60711,0,0,1-5.48267,2.37733,5.61994,5.61994,0,0,1-5.81271-5.0855h14.79546c0-.46268.06633-.92457.06633-1.32173,0-5.81189-3.23639-10.83188-9.64362-10.83188-5.74719,0-9.84181,4.75548-9.84181,10.50265"></path></clipPath><clipPath id="clip-path-3"><path class="cls-1" d="M139.16334,53.38264V48.82533h-4.62362V68.97081h4.62362V61.309c0-5.35,2.84084-7.99268,6.86832-7.99268h.26531V48.42817c-.1092-.004-.216-.00566-.32274-.00566-3.3836,0-5.5943,2.01495-6.81089,4.96013"></path></clipPath><clipPath id="clip-path-4"><polygon class="cls-1" points="164.263 48.825 158.78 63.62 153.364 48.825 148.411 48.825 156.668 69.103 160.829 69.103 169.085 48.825 164.263 48.825"></polygon></clipPath><clipPath id="clip-path-5"><path class="cls-1" d="M173.24524,68.97081h4.62445V48.82452h-4.62445Zm-.13185-23.31635h4.95366V41.29533h-4.95366Z"></path></clipPath><clipPath id="clip-path-6"><path class="cls-1" d="M193.25887,48.42817h-.19818a10.34584,10.34584,0,0,0-10.23654,10.50267v.06551a10.835,10.835,0,0,0,3.76377,8.059,10.51335,10.51335,0,0,0,14.86262-1.32171L198.676,62.95992a7.18473,7.18473,0,0,1-5.21816,2.51c-3.50089,0-6.01089-2.90634-6.01089-6.47357v-.06551c0-3.50089,2.44448-6.40644,5.8119-6.40644a6.6436,6.6436,0,0,1,5.21816,2.50917l2.84-3.10451a9.94966,9.94966,0,0,0-7.61492-3.5098c-.14722,0-.29523.00244-.44327.00891"></path></clipPath><clipPath id="clip-path-7"><path class="cls-1" d="M213.86784,52.19356c3.03821,0,4.75548,2.31182,5.08631,5.2837H208.64968c.39716-3.10372,2.37733-5.2837,5.21816-5.2837M204.026,58.8653v.06554a10.54824,10.54824,0,0,0,18.62718,6.67092l-2.709-2.37733a7.60662,7.60662,0,0,1-5.48184,2.37733,5.61992,5.61992,0,0,1-5.81271-5.0855h14.79545c0-.46268.06633-.92457.06633-1.32173,0-5.81189-3.23718-10.83188-9.64362-10.83188-5.74638,0-9.8418,4.75548-9.8418,10.50265"></path></clipPath><clipPath id="clip-path-8"><path class="cls-1" d="M229.05966,42.21992h0Zm22.45729,0-9.71,14.59728-9.70913-14.59728h-2.9727V68.97081h2.90637V47.37175L241.74149,61.639h.13184L251.517,47.30542V68.90448h3.0374V42.21992Z"></path></clipPath><clipPath id="clip-path-9"><path class="cls-1" d="M269.81329,51.33451c3.89645,0,5.94455,3.039,6.2746,6.60625h-12.681c.39554-3.7654,3.0374-6.60625,6.40642-6.60625m-9.37911,7.7945c0,6.14355,4.42545,10.30369,9.841,10.30369a10.173,10.173,0,0,0,8.12452-3.69907l-1.84913-1.651a8.26294,8.26294,0,0,1-6.20825,2.7745,7.02309,7.02309,0,0,1-7.00178-6.53908h15.65369a6.82228,6.82228,0,0,0,.06633-1.05723c0-5.81189-3.36823-10.43553-9.18094-10.43553-5.41633,0-9.44544,4.55731-9.44544,10.30368"></path></clipPath><clipPath id="clip-path-10"><path class="cls-1" d="M283.4852,54.50538v.06552c0,3.63355,3.43538,4.69,6.5391,5.5482,2.64266.72718,4.95526,1.51991,4.95526,3.50089v.06633c0,1.91544-1.71727,3.10452-4.09623,3.10452a11.20158,11.20158,0,0,1-6.80279-2.50918l-1.51909,2.11283a12.87952,12.87952,0,0,0,8.19,2.84082c3.89724,0,7.00259-2.18,7.00259-5.94455v-.06633c0-3.50089-3.30353-4.69-6.34174-5.61451-2.64183-.79272-5.08631-1.51912-5.08631-3.36823v-.06633c0-1.651,1.51991-2.84085,3.83172-2.84085a10.897,10.897,0,0,1,5.81271,1.91628L297.29057,51.07a13.48545,13.48545,0,0,0-7.0673-2.17834c-3.89724,0-6.73807,2.24467-6.73807,5.61372"></path></clipPath><clipPath id="clip-path-11"><path class="cls-1" d="M303.23593,41.09637h-.06633V68.97081h2.90555V57.67623a5.86783,5.86783,0,0,1,5.94537-6.20906c3.50008,0,5.48188,2.31182,5.48188,5.94455V68.97081h2.90634V56.75087c0-4.68915-2.77371-7.92554-7.52919-7.92554a7.323,7.323,0,0,0-6.73807,3.83091V41.09637Z"></path></clipPath><clipPath id="clip-path-12"><path class="cls-1" d="M326.22063,55.62812v.06633A13.43888,13.43888,0,0,0,339.4978,69.499c4.75548,0,7.79369-1.84914,10.63452-4.62364l-1.32174-1.32173c-2.70816,2.64265-5.35,4.16174-9.18094,4.16174-6.34171,0-11.29455-5.28367-11.29455-12.02095v-.06633c0-6.73646,4.82181-11.95543,11.22822-11.95543a12.25125,12.25125,0,0,1,8.98437,3.89724l1.38646-1.45276a14.06928,14.06928,0,0,0-10.37083-4.29362c-7.72736,0-13.34268,6.27539-13.34268,13.80457"></path></clipPath><clipPath id="clip-path-13"><path class="cls-1" d="M363.67317,67.58356a8.17115,8.17115,0,0,1-7.99265-8.45455v-.06633A7.9993,7.9993,0,0,1,363.606,50.7408a8.17045,8.17045,0,0,1,7.99268,8.45373v.06633c0,4.584-3.24609,8.32351-7.80581,8.32351-.03965,0-.08008,0-.11973-.00081m-.13266-18.56005a10.03559,10.03559,0,0,0-9.90812,10.171v.2645a9.95117,9.95117,0,0,0,9.97364,9.90813h.13266a10.037,10.037,0,0,0,9.90815-10.17263v-.26369a9.951,9.951,0,0,0-9.97367-9.90733Z"></path></clipPath><clipPath id="clip-path-14"><path class="cls-1" d="M381.24235,53.11813V49.4854h-1.84914V68.97081h1.84914V57.41172a6.612,6.612,0,0,1,6.73725-6.60541c3.9636,0,6.209,2.57633,6.209,6.60541V68.90448h1.84913V57.01537c0-4.62363-2.8408-7.99186-7.79369-7.99186-.059-.00161-.11725-.00242-.17551-.00242a7.77,7.77,0,0,0-6.82622,4.097"></path></clipPath></defs><title>servicemeshcon_logo</title><rect class="cls-1" x="0.11659" y="40.0755" width="55.68106" height="12.48333" transform="translate(-24.56273 33.33465) rotate(-44.99999)"></rect><rect class="cls-1" x="21.78657" y="35.83492" width="12.48332" height="55.68107" transform="translate(-36.81722 38.47201) rotate(-45.00261)"></rect><rect class="cls-1" x="17.56057" y="57.34892" width="55.68105" height="12.4839" transform="translate(-31.66772 50.72796) rotate(-44.9994)"></rect><rect class="cls-1" x="39.42388" y="18.10188" width="12.4836" height="55.68135" transform="translate(-19.11113 45.74678) rotate(-45)"></rect><rect class="cls-1" x="20.47183" y="31.65314" width="31.90298" height="12.48333" transform="translate(-16.12753 36.85431) rotate(-45)"></rect><path class="cls-1" d="M96.09708,41.88907c-5.28368,0-9.1146,3.17087-9.1146,7.72817v.06715c0,4.95284,3.23719,6.60459,8.918,7.99184,4.95286,1.18907,6.01008,2.17915,6.01008,4.09462v.06552c0,2.04812-1.84994,3.36986-4.75629,3.36986-3.36823,0-5.87822-1.32174-8.45454-3.50089l-2.84,3.36823a16.53556,16.53556,0,0,0,11.229,4.29359c5.61372,0,9.511-2.97267,9.511-7.99184V61.309c0-4.42546-2.97188-6.40726-8.5872-7.79369-5.15184-1.25541-6.34092-2.18079-6.34092-4.22808v-.06633c0-1.78281,1.58624-3.17,4.35994-3.17a12.21281,12.21281,0,0,1,7.26547,2.77449l2.5108-3.56722a15.0077,15.0077,0,0,0-9.43573-3.37146c-.09141,0-.18282.00081-.275.00242"></path><g class="cls-2"><rect class="cls-1" x="85.59237" y="41.686" width="21.27474" height="27.88182" transform="matrix(0.99981, -0.0196, 0.0196, 0.99981, -1.07199, 1.89714)"></rect></g><path class="cls-1" d="M120.27247,52.19356c3.0382,0,4.75548,2.31182,5.08551,5.2837H115.0543c.39636-3.10372,2.379-5.2837,5.21817-5.2837m-9.84181,6.67174v.06554a10.5477,10.5477,0,0,0,18.62639,6.67092l-2.70737-2.37733a7.60711,7.60711,0,0,1-5.48267,2.37733,5.61994,5.61994,0,0,1-5.81271-5.0855h14.79546c0-.46268.06633-.92457.06633-1.32173,0-5.81189-3.23639-10.83188-9.64362-10.83188-5.74719,0-9.84181,4.75548-9.84181,10.50265"></path><g class="cls-3"><rect class="cls-1" x="110.22537" y="48.17372" width="19.89603" height="21.5143" transform="translate(-1.13215 2.36713) rotate(-1.12327)"></rect></g><path class="cls-1" d="M139.16334,53.38264V48.82533h-4.62362V68.97081h4.62362V61.309c0-5.35,2.84084-7.99268,6.86832-7.99268h.26531V48.42817c-.1092-.004-.216-.00566-.32274-.00566-3.3836,0-5.5943,2.01495-6.81089,4.96013"></path><g class="cls-4"><rect class="cls-1" x="134.3394" y="48.30925" width="12.15782" height="20.77482" transform="translate(-1.12369 2.76399) rotate(-1.12328)"></rect></g><polygon class="cls-1" points="164.263 48.825 158.78 63.62 153.364 48.825 148.411 48.825 156.668 69.103 160.829 69.103 169.085 48.825 164.263 48.825"></polygon><g class="cls-5"><rect class="cls-1" x="148.21466" y="48.62465" width="21.06721" height="20.67869" transform="translate(-1.12539 3.12333) rotate(-1.12326)"></rect></g><path class="cls-1" d="M173.24524,68.97081h4.62445V48.82452h-4.62445Zm-.13185-23.31635h4.95366V41.29533h-4.95366Z"></path><g class="cls-6"><rect class="cls-1" x="172.84256" y="41.24948" width="5.49527" height="27.76725" transform="matrix(0.99981, -0.01961, 0.01961, 0.99981, -1.0473, 3.45359)"></rect></g><path class="cls-1" d="M193.25887,48.42817h-.19818a10.34584,10.34584,0,0,0-10.23654,10.50267v.06551a10.835,10.835,0,0,0,3.76377,8.059,10.51335,10.51335,0,0,0,14.86262-1.32171L198.676,62.95992a7.18473,7.18473,0,0,1-5.21816,2.51c-3.50089,0-6.01089-2.90634-6.01089-6.47357v-.06551c0-3.50089,2.44448-6.40644,5.8119-6.40644a6.6436,6.6436,0,0,1,5.21816,2.50917l2.84-3.10451a9.94966,9.94966,0,0,0-7.61492-3.5098c-.14722,0-.29523.00244-.44327.00891"></path><g class="cls-7"><rect class="cls-1" x="182.53921" y="48.23741" width="19.12907" height="22.76366" transform="translate(-1.1319 3.77761) rotate(-1.12334)"></rect></g><path class="cls-1" d="M213.86784,52.19356c3.03821,0,4.75548,2.31182,5.08631,5.2837H208.64968c.39716-3.10372,2.37733-5.2837,5.21816-5.2837M204.026,58.8653v.06554a10.54824,10.54824,0,0,0,18.62718,6.67092l-2.709-2.37733a7.60662,7.60662,0,0,1-5.48184,2.37733,5.61992,5.61992,0,0,1-5.81271-5.0855h14.79545c0-.46268.06633-.92457.06633-1.32173,0-5.81189-3.23718-10.83188-9.64362-10.83188-5.74638,0-9.8418,4.75548-9.8418,10.50265"></path><g class="cls-8"><rect class="cls-1" x="203.82072" y="48.17372" width="19.89603" height="21.51431" transform="translate(-1.11417 4.20192) rotate(-1.12327)"></rect></g><path class="cls-1" d="M229.05966,42.21992h0Zm22.45729,0-9.71,14.59728-9.70913-14.59728h-2.9727V68.97081h2.90637V47.37175L241.74149,61.639h.13184L251.517,47.30542V68.90448h3.0374V42.21992Z"></path><g class="cls-9"><rect class="cls-1" x="228.79987" y="41.97259" width="26.01421" height="27.24556" transform="translate(-1.04341 4.75101) rotate(-1.12329)"></rect></g><path class="cls-1" d="M269.81329,51.33451c3.89645,0,5.94455,3.039,6.2746,6.60625h-12.681c.39554-3.7654,3.0374-6.60625,6.40642-6.60625m-9.37911,7.7945c0,6.14355,4.42545,10.30369,9.841,10.30369a10.173,10.173,0,0,0,8.12452-3.69907l-1.84913-1.651a8.26294,8.26294,0,0,1-6.20825,2.7745,7.02309,7.02309,0,0,1-7.00178-6.53908h15.65369a6.82228,6.82228,0,0,0,.06633-1.05723c0-5.81189-3.36823-10.43553-9.18094-10.43553-5.41633,0-9.44544,4.55731-9.44544,10.30368"></path><g class="cls-10"><rect class="cls-1" x="260.23326" y="48.64476" width="19.02814" height="21.03485" transform="translate(-1.10803 5.29976) rotate(-1.12336)"></rect></g><path class="cls-1" d="M283.4852,54.50538v.06552c0,3.63355,3.43538,4.69,6.5391,5.5482,2.64266.72718,4.95526,1.51991,4.95526,3.50089v.06633c0,1.91544-1.71727,3.10452-4.09623,3.10452a11.20158,11.20158,0,0,1-6.80279-2.50918l-1.51909,2.11283a12.87952,12.87952,0,0,0,8.19,2.84082c3.89724,0,7.00259-2.18,7.00259-5.94455v-.06633c0-3.50089-3.30353-4.69-6.34174-5.61451-2.64183-.79272-5.08631-1.51912-5.08631-3.36823v-.06633c0-1.651,1.51991-2.84085,3.83172-2.84085a10.897,10.897,0,0,1,5.81271,1.91628L297.29057,51.07a13.48545,13.48545,0,0,0-7.0673-2.17834c-3.89724,0-6.73807,2.24467-6.73807,5.61372"></path><g class="cls-11"><rect class="cls-1" x="282.36281" y="48.74473" width="15.58983" height="20.70309" transform="translate(-1.10279 5.69975) rotate(-1.12333)"></rect></g><path class="cls-1" d="M303.23593,41.09637h-.06633V68.97081h2.90555V57.67623a5.86783,5.86783,0,0,1,5.94537-6.20906c3.50008,0,5.48188,2.31182,5.48188,5.94455V68.97081h2.90634V56.75087c0-4.68915-2.77371-7.92554-7.52919-7.92554a7.323,7.323,0,0,0-6.73807,3.83091V41.09637Z"></path><g class="cls-12"><rect class="cls-1" x="302.89797" y="40.93007" width="17.7823" height="28.20707" transform="translate(-1.01897 6.12296) rotate(-1.12331)"></rect></g><path class="cls-1" d="M326.22063,55.62812v.06633A13.43888,13.43888,0,0,0,339.4978,69.499c4.75548,0,7.79369-1.84914,10.63452-4.62364l-1.32174-1.32173c-2.70816,2.64265-5.35,4.16174-9.18094,4.16174-6.34171,0-11.29455-5.28367-11.29455-12.02095v-.06633c0-6.73646,4.82181-11.95543,11.22822-11.95543a12.25125,12.25125,0,0,1,8.98437,3.89724l1.38646-1.45276a14.06928,14.06928,0,0,0-10.37083-4.29362c-7.72736,0-13.34268,6.27539-13.34268,13.80457"></path><g class="cls-13"><rect class="cls-1" x="325.95158" y="41.59185" width="24.44966" height="28.1389" transform="translate(-1.02621 6.64039) rotate(-1.12331)"></rect></g><path class="cls-1" d="M363.67317,67.58356a8.17115,8.17115,0,0,1-7.99265-8.45455v-.06633A7.9993,7.9993,0,0,1,363.606,50.7408a8.17045,8.17045,0,0,1,7.99268,8.45373v.06633c0,4.584-3.24609,8.32351-7.80581,8.32351-.03965,0-.08008,0-.11973-.00081m-.13266-18.56005a10.03559,10.03559,0,0,0-9.90812,10.171v.2645a9.95117,9.95117,0,0,0,9.97364,9.90813h.13266a10.037,10.037,0,0,0,9.90815-10.17263v-.26369a9.951,9.951,0,0,0-9.97367-9.90733Z"></path><g class="cls-14"><rect class="cls-1" x="353.36938" y="48.82802" width="20.54124" height="20.73468" transform="translate(-1.09059 7.14024) rotate(-1.12331)"></rect></g><path class="cls-1" d="M381.24235,53.11813V49.4854h-1.84914V68.97081h1.84914V57.41172a6.612,6.612,0,0,1,6.73725-6.60541c3.9636,0,6.209,2.57633,6.209,6.60541V68.90448h1.84913V57.01537c0-4.62363-2.8408-7.99186-7.79369-7.99186-.059-.00161-.11725-.00242-.17551-.00242a7.77,7.77,0,0,0-6.82622,4.097"></path><g class="cls-15"><rect class="cls-1" x="379.1992" y="48.85987" width="17.03246" height="20.27221" transform="translate(-1.08202 7.61192) rotate(-1.12327)"></rect></g></svg> 