<?xml version="1.0" encoding="utf-8"?>
<!-- Generator: Adobe Illustrator 16.0.0, SVG Export Plug-In . SVG Version: 6.00 Build 0)  -->
<!DOCTYPE svg PUBLIC "-//W3C//DTD SVG 1.1//EN" "http://www.w3.org/Graphics/SVG/1.1/DTD/svg11.dtd">
<svg version="1.1"
	 id="Layer_1" xmlns:dc="http://purl.org/dc/elements/1.1/" xmlns:cc="http://creativecommons.org/ns#" xmlns:rdf="http://www.w3.org/1999/02/22-rdf-syntax-ns#" xmlns:svg="http://www.w3.org/2000/svg" xmlns:sodipodi="http://sodipodi.sourceforge.net/DTD/sodipodi-0.dtd" xmlns:inkscape="http://www.inkscape.org/namespaces/inkscape" sodipodi:docname="AJAX.svg" inkscape:version="0.48.1 "
	 xmlns="http://www.w3.org/2000/svg" xmlns:xlink="http://www.w3.org/1999/xlink" x="0px" y="0px" width="273.274px"
	 height="74.559px" viewBox="0 0 273.274 74.559" enable-background="new 0 0 273.274 74.559" xml:space="preserve">
<sodipodi:namedview  id="namedview294" objecttolerance="10" fit-margin-top="0" borderopacity="1" inkscape:cy="-18.205373" showgrid="false" bordercolor="#666666" inkscape:cx="169.34897" pagecolor="#ffffff" inkscape:zoom="2.4350534" guidetolerance="10" fit-margin-left="0" gridtolerance="10" inkscape:current-layer="Layer_1" inkscape:window-y="-8" inkscape:window-x="-8" fit-margin-bottom="0" fit-margin-right="0" inkscape:window-height="1004" inkscape:window-width="1280" inkscape:pageshadow="2" inkscape:pageopacity="0" inkscape:window-maximized="1">
	</sodipodi:namedview>
<polyline id="polyline236" fill="#49166D" points="140.39,12.462 140.39,7.616 123.104,7.616 123.104,32.549 140.39,32.549 
	140.39,27.492 130.103,27.492 130.103,21.965 138.66,21.965 138.66,17.125 130.103,17.125 130.103,12.462 140.39,12.462 "/>
<polyline id="polyline238" fill="#49166D" points="170.875,27.629 160.075,27.629 160.075,7.616 152.99,7.616 152.99,32.549 
	170.875,32.549 170.875,27.629 "/>
<path id="path240" inkscape:connector-curvature="0" fill="#49166D" d="M227.938,17.118c-4.78-1.077-6.453-1.202-6.453-3.104
	c0-1.765,2.369-2.314,3.731-2.314c2.204,0,4.808,0.514,7.46,1.874l1.928-4.588c-2.719-1.482-6.205-2.099-9.561-2.099
	c-6.593,0-11.016,2.675-11.203,7.89c-0.189,4.756,3.68,6.535,7.233,7.269c3.426,0.708,6.901,1.314,6.972,3.349
	c0.063,1.877-1.625,2.681-4.811,2.681c-2.949,0-5.692-0.948-8.494-2.122l-1.637,4.987c3.221,1.37,6.492,2.125,9.862,2.125
	c4.683,0,8.101-0.731,10.618-3.093c1.744-1.622,2.314-3.58,2.314-5.449C235.901,20.583,233.446,18.363,227.938,17.118"/>
<polyline id="polyline242" fill="#49166D" points="113.053,12.538 113.053,7.616 91.309,7.616 91.309,12.538 98.655,12.538 
	98.655,32.549 105.698,32.549 105.698,12.538 113.053,12.538 "/>
<path id="path244" inkscape:connector-curvature="0" fill="#49166D" d="M195.047,7.616v15.841c0,1.241,0,1.584-0.073,2.067
	c-0.229,1.51-1.691,2.386-4.025,2.417c-1.729-0.028-2.994-0.539-3.583-1.442c-0.296-0.464-0.441-1.298-0.441-2.63V7.616h-7.348
	v17.183c0,2.381,0.317,3.456,1.394,4.815c1.773,2.217,5.231,3.383,9.992,3.383c0.053,0,0.1,0,0.157,0c0.024,0,0.067,0,0.103,0
	c6.377,0,9.668-2.486,10.62-4.812c0.476-1.128,0.511-1.662,0.511-3.938V7.616H195.047"/>
<path id="path246" inkscape:connector-curvature="0" fill="#49166D" d="M94.628,0.789L53.421,8.993v2.874l0.131-0.034
	C80.774,5.216,94.627,1.236,94.739,1.208c0.154-0.04,0.208-0.16,0.187-0.261C94.903,0.841,94.792,0.753,94.628,0.789"/>
<path id="path248" inkscape:connector-curvature="0" fill="#66CC00" d="M59.716,2.569V2.565V2.569 M61.125,0.005
	c-2.003,0.114-5.712,3.081-7.748,4.843c-8.107,7.014-14.135,13.461-18.518,20.213c-9.137,4.894-20.788,9.927-32.354,13.855
	L2.226,39.01L0,45.005l1.271-0.492c7.358-2.804,19.639-8.07,30.772-13.924C31.416,32.261,31.1,33.798,31.1,35.2
	c0,1.044,0.175,2.016,0.524,2.9c0.7,1.764,2.08,3.1,3.993,3.86c2.849,1.136,6.736,1.157,11.171-0.185
	c11.33-3.435,24.769-13.979,27.695-16.076l0.112-0.079c0.115-0.083,0.123-0.208,0.075-0.293c-0.064-0.097-0.199-0.123-0.31-0.055
	h-0.001h0.001l-0.144,0.087c-3.14,1.885-18.398,10.944-28.316,13.603c-5.052,1.355-8.902,0.616-10.354-1.416
	c-0.504-0.694-0.747-1.572-0.747-2.596c0-1.999,0.941-4.544,2.753-7.373c1.668-0.949,3.226-1.877,4.63-2.759
	c9.676-5.438,20.824-16.011,21.3-22.465c0.002-0.044,0.002-0.095,0.002-0.143c0-0.557-0.241-1.13-0.664-1.553
	C62.366,0.194,61.768-0.037,61.125,0.005L61.125,0.005z M60.046,3.081c0.635-0.411,0.818-0.154,0.631,0.31
	c-0.302,0.741-1.699,5.199-12.072,13.715c-2.707,2.217-4.632,3.462-8.53,5.77C46.458,13.931,55.777,5.853,60.046,3.081z"/>
<polyline id="polyline250" fill="#49166D" points="53.286,9.02 9.932,18.339 8.26,22.848 53.421,11.866 54.818,11.077 54.779,9.025 
	53.286,9.02 "/>
<path id="path256" inkscape:connector-curvature="0" fill="#49166D" d="M99.931,59.967h2.167v1.094h-2.167v7.182
	c0,0.848,0.123,1.342,1.052,1.404c0.37,0,0.743-0.02,1.115-0.063v1.117c-0.393,0-0.765,0.041-1.158,0.041
	c-1.732,0-2.331-0.578-2.31-2.396v-7.285h-1.858v-1.094h1.858v-3.199h1.3L99.931,59.967"/>
<path id="path258" inkscape:connector-curvature="0" fill="#49166D" d="M103.81,55.882h1.301v5.922h0.041
	c0.475-1.278,1.9-2.146,3.405-2.146c2.993,0,3.901,1.568,3.901,4.105v6.852h-1.302v-6.645c0-1.837-0.597-3.219-2.703-3.219
	c-2.063,0-3.302,1.566-3.342,3.65v6.213h-1.301V55.882"/>
<path id="path260" inkscape:connector-curvature="0" fill="#49166D" d="M122.425,64.55c-0.062-1.964-1.279-3.797-3.385-3.797
	c-2.125,0-3.301,1.856-3.507,3.797H122.425 M115.533,65.643c0.021,1.899,1.01,4.189,3.507,4.189c1.899,0,2.931-1.115,3.344-2.725
	h1.301c-0.559,2.416-1.961,3.816-4.645,3.816c-3.384,0-4.808-2.602-4.808-5.634c0-2.808,1.424-5.634,4.808-5.634
	c3.427,0,4.789,2.992,4.686,5.984h-8.193V65.643z"/>
<path id="path262" inkscape:connector-curvature="0" fill="#49166D" d="M135.037,61.061h-2.106v9.557h-1.301v-9.557h-1.817v-1.094
	h1.817v-0.969c-0.021-1.838,0.494-3.116,2.581-3.116c0.369,0,0.679,0.021,1.093,0.081v1.115c-0.35-0.063-0.64-0.104-0.951-0.104
	c-1.443,0-1.401,0.909-1.421,2.063v0.929h2.106V61.061"/>
<path id="path264" inkscape:connector-curvature="0" fill="#49166D" d="M144.756,70.617h-1.2v-1.92h-0.039
	c-0.682,1.426-2.086,2.229-3.674,2.229c-2.682,0-3.734-1.566-3.734-4.045v-6.913h1.301v6.935c0.063,1.92,0.783,2.932,2.848,2.932
	c2.229,0,3.198-2.105,3.198-4.271v-5.594h1.301V70.617"/>
<path id="path266" inkscape:connector-curvature="0" fill="#49166D" d="M149.131,59.967h2.167v1.094h-2.167v7.182
	c0,0.848,0.123,1.342,1.05,1.404c0.373,0,0.743-0.02,1.117-0.063v1.117c-0.395,0-0.763,0.041-1.156,0.041
	c-1.734,0-2.332-0.578-2.313-2.396v-7.285h-1.857v-1.094h1.857v-3.199h1.302V59.967"/>
<path id="path268" inkscape:connector-curvature="0" fill="#49166D" d="M161.655,70.617h-1.194v-1.92h-0.042
	c-0.684,1.426-2.084,2.229-3.672,2.229c-2.684,0-3.737-1.566-3.737-4.045v-6.913h1.302v6.935c0.063,1.92,0.785,2.932,2.848,2.932
	c2.23,0,3.199-2.105,3.199-4.271v-5.594h1.299v10.648"/>
<path id="path270" inkscape:connector-curvature="0" fill="#49166D" d="M163.968,59.967h1.196v2.5h0.04
	c0.662-1.714,2.105-2.727,4.023-2.643v1.299c-2.351-0.124-3.961,1.609-3.961,3.816v5.676h-1.3L163.968,59.967"/>
<path id="path272" inkscape:connector-curvature="0" fill="#49166D" d="M177.614,64.55c-0.063-1.964-1.28-3.797-3.389-3.797
	c-2.123,0-3.299,1.856-3.504,3.797H177.614 M170.722,65.643c0.021,1.899,1.008,4.189,3.504,4.189c1.901,0,2.934-1.115,3.346-2.725
	h1.303c-0.559,2.416-1.963,3.816-4.646,3.816c-3.383,0-4.807-2.602-4.807-5.634c0-2.808,1.424-5.634,4.807-5.634
	c3.428,0,4.789,2.992,4.687,5.984h-8.192V65.643z"/>
<path id="path274" inkscape:connector-curvature="0" fill="#49166D" d="M186.138,70.617v-10.65h1.301v10.648h-1.301V70.617z
	 M186.138,57.968v-2.086h1.301v2.086H186.138z"/>
<path id="path276" inkscape:connector-curvature="0" fill="#49166D" d="M196.167,63.083c-0.063-1.609-1.302-2.33-2.786-2.33
	c-1.155,0-2.517,0.453-2.517,1.833c0,1.158,1.318,1.57,2.207,1.798l1.732,0.394c1.485,0.227,3.034,1.092,3.034,2.949
	c0,2.313-2.292,3.198-4.271,3.198c-2.479,0-4.17-1.153-4.375-3.754h1.299c0.104,1.755,1.404,2.661,3.135,2.661
	c1.219,0,2.912-0.535,2.912-2.023c0-1.236-1.152-1.648-2.331-1.939l-1.672-0.369c-1.69-0.452-2.974-1.031-2.974-2.85
	c0-2.168,2.127-2.992,4.006-2.992c2.123,0,3.815,1.115,3.899,3.426L196.167,63.083"/>
<path id="path278" inkscape:connector-curvature="0" fill="#49166D" d="M209.271,61.061h-2.104v9.557h-1.303v-9.557h-1.816v-1.094
	h1.816v-0.969c-0.02-1.838,0.496-3.116,2.58-3.116c0.371,0,0.685,0.021,1.093,0.081v1.115c-0.351-0.063-0.638-0.104-0.948-0.104
	c-1.443,0-1.4,0.909-1.422,2.063v0.929h2.104V61.061"/>
<path id="path280" inkscape:connector-curvature="0" fill="#49166D" d="M210.362,59.967h1.199v2.5h0.041
	c0.66-1.714,2.105-2.727,4.022-2.643v1.299c-2.353-0.124-3.96,1.609-3.96,3.816v5.676h-1.303V59.967"/>
<path id="path282" inkscape:connector-curvature="0" fill="#49166D" d="M216.742,70.617v-10.65h1.3v10.648h-1.3V70.617z
	 M216.742,57.968v-2.086h1.3v2.086H216.742z"/>
<path id="path284" inkscape:connector-curvature="0" fill="#49166D" d="M228.051,64.55c-0.063-1.964-1.282-3.797-3.385-3.797
	c-2.126,0-3.304,1.856-3.508,3.797H228.051 M221.159,65.643c0.02,1.899,1.011,4.189,3.508,4.189c1.896,0,2.93-1.115,3.346-2.725
	h1.299c-0.558,2.416-1.961,3.816-4.645,3.816c-3.387,0-4.811-2.602-4.811-5.634c0-2.808,1.424-5.634,4.811-5.634
	c3.428,0,4.79,2.992,4.684,5.984h-8.191V65.643z"/>
<path id="path286" inkscape:connector-curvature="0" fill="#49166D" d="M230.94,59.967h1.299v1.837h0.044
	c0.474-1.278,1.896-2.146,3.405-2.146c2.992,0,3.896,1.568,3.896,4.105v6.852h-1.298v-6.645c0-1.837-0.6-3.219-2.703-3.219
	c-2.063,0-3.301,1.566-3.346,3.65v6.213h-1.299V59.967"/>
<path id="path288" inkscape:connector-curvature="0" fill="#49166D" d="M246.231,69.832c2.768,0,3.736-2.331,3.736-4.541
	c0-2.208-0.97-4.538-3.736-4.538c-2.477,0-3.486,2.33-3.486,4.538C242.745,67.501,243.755,69.832,246.231,69.832 M251.267,70.617
	h-1.195v-2.021h-0.043c-0.557,1.381-2.248,2.329-3.797,2.329c-3.239,0-4.787-2.62-4.787-5.634c0-3.012,1.548-5.633,4.787-5.633
	c1.588,0,3.139,0.805,3.693,2.332h0.043v-6.108h1.299V70.617z"/>
<rect id="rect290" x="253.62" y="55.88" fill="#49166D" width="1.302" height="14.735"/>
<path id="path292" inkscape:connector-curvature="0" fill="#49166D" d="M256.076,59.967h1.384l3.506,9.081l3.282-9.081h1.301
	l-4.622,12.279c-0.742,1.796-1.178,2.313-2.809,2.313c-0.514-0.021-0.784-0.021-0.989-0.104v-1.096
	c0.312,0.063,0.601,0.104,0.888,0.104c1.155,0,1.426-0.681,1.856-1.669l0.455-1.221L256.076,59.967"/>
<path fill-rule="evenodd" clip-rule="evenodd" fill="#49166D" d="M267.354,61.79c0-1.016,0.763-1.776,1.743-1.776
	c0.967,0,1.73,0.761,1.73,1.776c0,1.031-0.764,1.785-1.73,1.785C268.117,63.575,267.354,62.821,267.354,61.79L267.354,61.79z
	 M269.098,63.933c1.162,0,2.161-0.906,2.161-2.143c0-1.229-0.999-2.134-2.161-2.134c-1.176,0-2.171,0.904-2.171,2.134
	C266.927,63.026,267.922,63.933,269.098,63.933L269.098,63.933z M268.642,61.96h0.432l0.651,1.066h0.416l-0.699-1.084
	c0.361-0.047,0.64-0.237,0.64-0.68c0-0.488-0.291-0.702-0.869-0.702h-0.941v2.466h0.371V61.96L268.642,61.96z M268.642,61.642
	v-0.766h0.509c0.264,0,0.542,0.06,0.542,0.365c0,0.378-0.284,0.4-0.603,0.4H268.642L268.642,61.642z"/>
</svg>
