<svg width="20" height="20" viewBox="0 0 20 20" fill="none" xmlns="http://www.w3.org/2000/svg">
<path fill-rule="evenodd" clip-rule="evenodd" d="M2.49992 0.208374C1.23807 0.208374 0.208252 1.2382 0.208252 2.50004V6.66671C0.208252 7.01188 0.488074 7.29171 0.833252 7.29171C1.17843 7.29171 1.45825 7.01188 1.45825 6.66671V2.50004C1.45825 1.92855 1.92843 1.45837 2.49992 1.45837C3.07141 1.45837 3.54158 1.92855 3.54158 2.50004V17.5C3.54158 18.7619 4.57141 19.7917 5.83325 19.7917H17.4999C18.7618 19.7917 19.7916 18.7619 19.7916 17.5V15C19.7916 14.6549 19.5118 14.375 19.1666 14.375H16.4583V2.60421C16.4583 1.32131 15.4636 0.208374 14.1666 0.208374H2.49992ZM4.54014 1.45837C4.70081 1.77123 4.79158 2.12541 4.79158 2.50004V17.5C4.79158 18.0715 5.26176 18.5417 5.83325 18.5417C6.40474 18.5417 6.87492 18.0715 6.87492 17.5V15C6.87492 14.6549 7.15474 14.375 7.49992 14.375H15.2083V2.60421C15.2083 1.93919 14.7029 1.45837 14.1666 1.45837H4.54014ZM8.12492 15.625H18.5416V17.5C18.5416 18.0715 18.0714 18.5417 17.4999 18.5417H7.87347C8.03414 18.2289 8.12492 17.8747 8.12492 17.5V15.625Z" fill="#35363A"/>
<path fill-rule="evenodd" clip-rule="evenodd" d="M6.87492 5.83337C6.87492 5.4882 7.15474 5.20837 7.49992 5.20837H12.4999C12.8451 5.20837 13.1249 5.4882 13.1249 5.83337C13.1249 6.17855 12.8451 6.45837 12.4999 6.45837H7.49992C7.15474 6.45837 6.87492 6.17855 6.87492 5.83337Z" fill="#35363A"/>
<path fill-rule="evenodd" clip-rule="evenodd" d="M6.87492 10C6.87492 9.65486 7.15474 9.37504 7.49992 9.37504H12.4999C12.8451 9.37504 13.1249 9.65486 13.1249 10C13.1249 10.3452 12.8451 10.625 12.4999 10.625H7.49992C7.15474 10.625 6.87492 10.3452 6.87492 10Z" fill="#35363A"/>
</svg>
