<svg width="80" height="80" viewBox="0 0 80 80" fill="none" xmlns="http://www.w3.org/2000/svg">
<path d="M33.75 16.25C26.1687 16.25 20 22.4187 20 30C20 37.5812 26.1687 43.75 33.75 43.75C41.3312 43.75 47.5 37.5812 47.5 30C47.5 22.4187 41.3312 16.25 33.75 16.25ZM33.75 41.25C27.5463 41.25 22.5 36.2025 22.5 30C22.5 23.7975 27.5463 18.75 33.75 18.75C39.9538 18.75 45 23.7975 45 30C45 36.2025 39.9538 41.25 33.75 41.25Z" fill="#A2B7C3"/>
<path d="M77.5 1.25H7.5C6.80875 1.25 6.25 1.81 6.25 2.5V7.5H2.5C1.80875 7.5 1.25 8.06 1.25 8.75V13.75V18.75V23.75C1.25 24.44 1.80875 25 2.5 25H6.25V30H2.5C1.80875 30 1.25 30.56 1.25 31.25V36.25C1.25 36.94 1.80875 37.5 2.5 37.5H6.25V52.5C6.25 53.19 6.80875 53.75 7.5 53.75H28.75V73.75C28.75 76.5075 30.9925 78.75 33.75 78.75C36.5075 78.75 38.75 76.5075 38.75 73.75V53.75H77.5C78.1913 53.75 78.75 53.19 78.75 52.5V2.5C78.75 1.81 78.1913 1.25 77.5 1.25ZM3.75 15H6.25V17.5H3.75V15ZM3.75 10H6.25V12.5H3.75V10ZM3.75 22.5V20H6.25V22.5H3.75ZM3.75 35V32.5H6.25V35H3.75ZM8.75 51.25V36.25V31.25V23.75V18.75V13.75V8.75V3.75H41.25V12.8263C38.9512 11.8187 36.4175 11.25 33.75 11.25C23.4113 11.25 15 19.6613 15 30C15 38.605 20.8337 45.8563 28.75 48.0525V51.25H8.75ZM33.75 46.25C24.79 46.25 17.5 38.96 17.5 30C17.5 21.04 24.79 13.75 33.75 13.75C42.71 13.75 50 21.04 50 30C50 38.96 42.71 46.25 33.75 46.25ZM31.25 68.75H36.25V71.25H31.25V68.75ZM31.25 66.25V48.5638C32.07 48.6738 32.9 48.75 33.75 48.75C34.6 48.75 35.43 48.6738 36.25 48.5638V66.25H31.25ZM33.75 76.25C32.3713 76.25 31.25 75.1288 31.25 73.75H36.25C36.25 75.1288 35.1287 76.25 33.75 76.25ZM38.75 48.0525C39.6087 47.8138 40.445 47.5262 41.25 47.1737V51.25H38.75V48.0525ZM76.25 51.25H43.75V45.8337C48.9987 42.5062 52.5 36.6613 52.5 30C52.5 23.3388 48.9987 17.4937 43.75 14.1663V3.75H76.25V51.25Z" fill="#A2B7C3"/>
<path d="M33.75 6.25H11.25V8.75H33.75V6.25Z" fill="#A2B7C3"/>
<path d="M38.75 6.25H36.25V8.75H38.75V6.25Z" fill="#A2B7C3"/>
<path d="M21.25 11.25H11.25V13.75H21.25V11.25Z" fill="#A2B7C3"/>
<path d="M16.25 16.25H11.25V18.75H16.25V16.25Z" fill="#A2B7C3"/>
<path d="M18.75 43.75H11.25V46.25H18.75V43.75Z" fill="#A2B7C3"/>
<path d="M66.25 6.25H46.25V8.75H66.25V6.25Z" fill="#A2B7C3"/>
<path d="M73.75 6.25H68.75V8.75H73.75V6.25Z" fill="#A2B7C3"/>
<path d="M73.75 11.25H46.25V13.75H73.75V11.25Z" fill="#A2B7C3"/>
<path d="M73.75 16.25H52.5V18.75H73.75V16.25Z" fill="#A2B7C3"/>
<path d="M73.75 43.75H51.25V46.25H73.75V43.75Z" fill="#A2B7C3"/>
<path d="M73.75 38.75H68.75V41.25H73.75V38.75Z" fill="#A2B7C3"/>
<path d="M66.25 38.75H53.75V41.25H66.25V38.75Z" fill="#A2B7C3"/>
<path d="M72.5 23.75H65C64.3088 23.75 63.75 24.31 63.75 25V32.5C63.75 33.19 64.3088 33.75 65 33.75H72.5C73.1912 33.75 73.75 33.19 73.75 32.5V25C73.75 24.31 73.1912 23.75 72.5 23.75ZM71.25 31.25H66.25V26.25H71.25V31.25Z" fill="#A2B7C3"/>
</svg>
