<svg width="41" height="51" xmlns="http://www.w3.org/2000/svg">
  <g fill="none" fill-rule="evenodd">
    <path stroke="#17A956" d="M19 40.3939394l-6.7176334-.1418878L1 28.655062l.140469-16.2587321L12.6214885 1l16.0961448.1418878L40 12.7388774l-.1404689 16.2587321L19 51z"/>
    <path stroke="#1192FF" d="M3.1044622 23.213784l1.8340335.121291 6.9187604 6.4938075v2.7711687l3.2085886 3.0113114h1.4796098v-5.3157767l1.7272728-1.3279122v-4.1255684l-1.8886744-1.8471921h-3.0733498l-1.9085352-1.8196914H7.4545455v-1.3795207l.869319-.8288516h1.7697941L14.402168 14l4.4332258-5V6h-8.19903"/>
    <path stroke="#0070CE" d="M29 6l-3.2708953 3.2896539h-1.3380103v1.2752235h-1.6638217v2.0871542l.9141295.7213808h.7856865l2.1058572-1.661827h1.7543759l2.3121902 1.661827v1.7844823h-6.4757131L21 18.3936018v2.4809473l1.8938607 1.961707 1.0409207 1.0782111h3.9328839v7.3013395l1.2650695 1.3105091h3.1039872v-2.384425l2.0106879-2.1185439v-3.7401528l2.5288068-2.5288068"/>
  </g>
</svg>
