<svg width="38" height="38" viewBox="0 0 38 38" fill="none" xmlns="http://www.w3.org/2000/svg">
<g clip-path="url(#clip0_802_72)">
<path fill-rule="evenodd" clip-rule="evenodd" d="M37.9226 19.5937C37.89 19.5937 37.861 19.6143 37.8489 19.6447C37.7586 19.8717 37.6169 20.0673 37.3902 20.1281C33.4912 21.1902 29.3282 21.5856 24.9811 21.9202C24.6372 21.9466 24.3438 21.6746 24.3438 21.3297V21.3297C24.3438 21.0202 24.5821 20.7629 24.8906 20.7384C28.7305 20.4332 32.4202 20.0475 35.906 19.2445C36.4408 19.1214 36.8125 18.6409 36.8125 18.0921V8.90625C36.8125 8.25015 36.2811 7.71875 35.625 7.71875H2.375C1.71891 7.71875 1.1875 8.25015 1.1875 8.90625V18.2383C1.1875 18.7922 1.56615 19.2759 2.10743 19.3934C5.5927 20.1498 9.27565 20.4736 13.1041 20.7428C13.4149 20.7647 13.6563 21.023 13.6563 21.3346V21.3346C13.6563 21.6777 13.3657 21.9492 13.0234 21.926C8.66993 21.6309 4.49544 21.3135 0.581879 20.2867C-0.194153 20.083 3.73872e-06 20.2748 3.73872e-06 19.687L3.73872e-06 8.90625C3.73872e-06 7.59406 1.06282 6.53125 2.375 6.53125H35.625C36.9372 6.53125 38 7.59406 38 8.90625V19.5164C38 19.5591 37.9654 19.5937 37.9226 19.5937V19.5937ZM14.25 5.34375C13.9221 5.34375 13.6563 5.07791 13.6563 4.75V3.38859C13.6563 3.11977 13.763 2.86196 13.9531 2.67187V2.67187C14.1432 2.48179 14.401 2.375 14.6698 2.375H23.3302C23.599 2.375 23.8568 2.48179 24.0469 2.67187V2.67187C24.237 2.86196 24.3438 3.11977 24.3438 3.38859V4.75C24.3438 5.07791 24.0779 5.34375 23.75 5.34375V5.34375C23.4221 5.34375 23.1563 5.07791 23.1563 4.75V4.45312C23.1563 3.96124 22.7575 3.5625 22.2656 3.5625H15.7344C15.2425 3.5625 14.8438 3.96124 14.8438 4.45312V4.75C14.8438 5.07791 14.5779 5.34375 14.25 5.34375V5.34375ZM25.5313 2.375C25.5313 1.7189 24.9998 1.1875 24.3438 1.1875H13.6563C13.0002 1.1875 12.4688 1.7189 12.4688 2.375V4.75C12.4688 5.07791 12.2029 5.34375 11.875 5.34375V5.34375C11.5471 5.34375 11.2813 5.07791 11.2813 4.75V2.375C11.2813 1.06281 12.3441 -3.8147e-06 13.6563 -3.8147e-06L24.3438 -3.8147e-06C25.6559 -3.8147e-06 26.7188 1.06281 26.7188 2.375V4.75C26.7188 5.07791 26.4529 5.34375 26.125 5.34375V5.34375C25.7971 5.34375 25.5313 5.07791 25.5313 4.75V2.375ZM16.625 25.5312C15.6412 25.5312 14.8438 24.7338 14.8438 23.75V19C14.8438 18.0162 15.6412 17.2187 16.625 17.2187H21.375C22.3588 17.2187 23.1563 18.0162 23.1563 19V23.75C23.1563 24.7338 22.3588 25.5312 21.375 25.5312H16.625ZM21.9688 23.1562V19.5937C21.9688 18.9377 21.4373 18.4062 20.7813 18.4062H17.2188C16.5627 18.4062 16.0313 18.9377 16.0313 19.5937V23.1562C16.0313 23.8117 16.5627 24.3437 17.2188 24.3437H20.7813C21.4373 24.3437 21.9688 23.8117 21.9688 23.1562ZM18.2323 23.1562C17.9635 23.1562 17.7057 23.0495 17.5156 22.8594V22.8594C17.3255 22.6693 17.2188 22.4115 17.2188 22.1426V20.6073C17.2188 20.3385 17.3255 20.0807 17.5156 19.8906V19.8906C17.7057 19.7005 17.9635 19.5937 18.2323 19.5937H19.7677C20.0365 19.5937 20.2943 19.7005 20.4844 19.8906V19.8906C20.6745 20.0807 20.7813 20.3385 20.7813 20.6073V22.1426C20.7813 22.4115 20.6745 22.6693 20.4844 22.8594V22.8594C20.2943 23.0495 20.0365 23.1562 19.7677 23.1562H18.2323ZM19.5938 21.375C19.5938 21.0471 19.3279 20.7812 19 20.7812V20.7812C18.6721 20.7812 18.4063 21.0471 18.4063 21.375V21.375C18.4063 21.7029 18.6721 21.9687 19 21.9687V21.9687C19.3279 21.9687 19.5938 21.7029 19.5938 21.375V21.375ZM1.78125 33.25C1.78125 33.9061 2.31266 34.4375 2.96875 34.4375H35.0312C35.6873 34.4375 36.2187 33.9061 36.2187 33.25V22.5625C36.2187 22.2346 36.4846 21.9687 36.8125 21.9687V21.9687C37.1404 21.9687 37.4062 22.2346 37.4062 22.5625V33.25C37.4062 34.5622 36.3434 35.625 35.0312 35.625H2.96875C1.65657 35.625 0.593754 34.5622 0.593754 33.25V22.5625C0.593754 22.2346 0.859585 21.9687 1.1875 21.9687V21.9687C1.51542 21.9687 1.78125 22.2346 1.78125 22.5625L1.78125 33.25Z" fill="black" stroke="black" stroke-width="0.5"/>
</g>
<defs>
<clipPath id="clip0_802_72">
<rect width="38" height="38" fill="white"/>
</clipPath>
</defs>
</svg>
