<svg xmlns="http://www.w3.org/2000/svg" width="32" height="32" viewBox="0 0 32 32">
  <g fill="none" fill-rule="evenodd" transform="translate(5 1)">
    <polygon stroke="#17A956" points="10.615 22.848 6.654 22.766 0 16.04 .083 6.61 6.854 0 16.346 .082 23 6.809 22.917 16.239 10.615 29"/>
    <polyline stroke="#1192FF" points="1 12.883 2.049 12.952 6.008 16.68 6.008 18.271 7.843 20 8.69 20 8.69 16.948 9.678 16.186 9.678 13.817 8.598 12.757 6.839 12.757 5.747 11.712 3.489 11.712 3.489 10.92 3.986 10.444 4.999 10.444 7.464 7.593 10 4.722 10 3 5.309 3"/>
    <polyline stroke="#0070CE" points="16.564 3 14.698 4.86 13.935 4.86 13.935 5.581 12.985 5.581 12.985 6.762 13.507 7.169 13.955 7.169 15.156 6.23 16.157 6.23 17.476 7.169 17.476 8.179 13.782 8.179 12 10.008 12 11.411 13.08 12.521 13.674 13.13 15.918 13.13 15.918 17.259 16.64 18 18.41 18 18.41 16.652 19.557 15.454 19.557 13.339 21 11.909"/>
  </g>
</svg>
