<svg xmlns="http://www.w3.org/2000/svg" preserveAspectRatio="xMidYMid" width="64" height="64" viewBox="0 0 64 64"><defs><style>.cls-3 { fill: #e8f6ea; } .cls-4 { fill: #bee6c5; } .cls-5 { fill: #39bd4e; }</style></defs><g id="icn-documentsvg" fill-rule="evenodd"><path d="M18 62V2h44v60H18zM2 2h14v60H2V2z" id="path-1" class="cls-3"/><path d="M18 62v-2h44v2H18zM2 62v-2h12V2h2v60H2z" id="path-2" class="cls-4"/><path d="M62 64H2c-1.105 0-2-.895-2-2V2C0 .895.895 0 2 0h60c1.105 0 2 .895 2 2v60c0 1.105-.895 2-2 2zM2 2v60h14V2H2zm60 0H18v60h44V2z" id="path-3" class="cls-5"/><path d="M50 54v-2h4v2h-4zm0-14h4v2h-4v-2zm0-12h4v2h-4v-2zm0-12h4v2h-4v-2zm-4-6h6v2h-6v-2zm-8 0h4v2h-4v-2zm8 8H34v-2h12v2zm-20-8h8v2h-8v-2zM10 52h4v2h-4v-2zm0-6h4v2h-4v-2zm0-6h4v2h-4v-2zm0-6h4v2h-4v-2zm0-6h4v2h-4v-2zm0-6h4v2h-4v-2zm0-6h4v2h-4v-2zm0-6h4v2h-4v-2zm20 8h-4v-2h4v2zm4 6h-8v-2h8v2zm-4 6h-4v-2h4v2zm4 6h-8v-2h8v2zm-4 6h-4v-2h4v2zm4 6h-8v-2h8v2zm-4 6h-4v-2h4v2zm16-8h6v2h-6v-2zm6-10h-6v-2h6v2zm0-12h-6v-2h6v2zM42 34v2h-4v-2h4zm-4 14v-2h4v2h-4zm-4-8h12v2H34v-2zm8-18v2h-4v-2h4zm4 8H34v-2h12v2zm0 24H34v-2h12v2z" id="path-4" class="cls-5"/></g></svg>