<svg height="64" preserveAspectRatio="xMidYMid" viewBox="0 0 64 64" width="64" xmlns="http://www.w3.org/2000/svg"><path d="m0 0h64v64h-64z" fill="#fff"/><path d="m56 53h-15.29c1.147 1.696 3.29 5 3.29 5v1l-1 1h-22l-1-1v-1l3.333-5h-15.333c-1.657 0-3-1.343-3-3v-37c0-1.657 1.343-3 3-3h48c1.657 0 3 1.343 3 3v37c0 1.657-1.343 3-3 3zm-34 5h20l-4-5h-12zm35-45c0-.552-.448-1-1-1h-48c-.552 0-1 .448-1 1v37c0 .552.448 1 1 1h48c.552 0 1-.448 1-1zm-47 36-1-1v-33l1-1h44l1 1v33l-1 1zm43-33h-42v31h42zm-12.962 14.52c1.283.64.962 1.423.962 1.423v1.03s.307.895-.92 1.422l-13.08 5.605h-2v-16h2zm-13.038 7.48 12-5v-1l-12-6z" fill="#23ab5f" fill-rule="evenodd"/></svg>