<svg height="64" preserveAspectRatio="xMidYMid" viewBox="0 0 64 64" width="64" xmlns="http://www.w3.org/2000/svg"><path d="m0 0h64v64h-64z" fill="none"/><path d="m63.778 33c-.15.418-.395.79-.805.9-6.887 1.876-14.263 2.517-21.973 3.1v-2c7.364-.57 14.408-1.28 21-2.958v-17.042c0-1.105-.895-2-2-2h-56c-1.105 0-2 .895-2 2v17.307c6.603 1.6 13.646 2.186 21 2.693v2c-7.717-.52-15.11-1.02-22.02-2.833-1.307-.343-.98-.02-.98-1.01v-18.157c0-2.21 1.79-4 4-4h56c2.21 0 4 1.79 4 4v18zm-40.778-24v-4l1-1h16l1 1v4h-2v-3h-14v3zm20-5c0-1.105-.895-2-2-2h-18c-1.105 0-2 .895-2 2v5h-2v-5c0-2.21 1.79-4 4-4h18c2.21 0 4 1.79 4 4v5h-2zm-15 39c-1.657 0-3-1.343-3-3v-8c0-1.657 1.343-3 3-3h8c1.657 0 3 1.343 3 3v8c0 1.657-1.343 3-3 3zm9-4v-6c0-1.105-.895-2-2-2h-6c-1.105 0-2 .895-2 2v6c0 1.104.895 2 2 2h6c1.105 0 2-.896 2-2zm-7 0-1-1v-4l1-1h4l1 1v4l-1 1zm3-4h-2v2h2zm-30 21c0 1.105.895 2 2 2h54c1.105 0 2-.895 2-2v-19h2v19c0 2.21-1.79 4-4 4h-54c-2.21 0-4-1.79-4-4v-19h2z" fill="#0070bf" fill-rule="evenodd"/></svg>
