<svg height="13" preserveAspectRatio="xMidYMid" viewBox="0 0 16 13" width="16" xmlns="http://www.w3.org/2000/svg"><path d="m16 9c0 2.209-1.791 4-4 4h-8v-.05c-2.247-.252-4-2.136-4-4.45 0-2.017 1.335-3.703 3.163-4.275.578-2.42 2.74-4.225 5.337-4.225 3.038 0 5.5 2.462 5.5 5.5 0 .018-.005.034-.005.052 1.193.692 2.005 1.969 2.005 3.448zm-4-2c-.127 0-.25.015-.37.037.229-.465.37-.983.37-1.537 0-1.933-1.567-3.5-3.5-3.5s-3.5 1.567-3.5 3.5c0 .194.027.382.057.567-.18-.041-.365-.067-.557-.067-1.381 0-2.5 1.119-2.5 2.5 0 1.209.859 2.218 2 2.45v.05h8c1.105 0 2-.895 2-2s-.895-2-2-2z" fill="#ced4d9" fill-rule="evenodd"/></svg>