<svg xmlns="http://www.w3.org/2000/svg" preserveAspectRatio="xMidYMid" width="64" height="64" viewBox="0 0 64 64"><defs><style>.cls-3 { fill: #e8f6ea; } .cls-4 { fill: #bde7c4; } .cls-5 { fill: #39bd4e; }</style></defs><g id="icn-pluginssvg" fill-rule="evenodd"><path d="M7 6V2h6v4h7V2h6v4h12V2h6v4h7V2h6v4h5v56H2V6h5z" id="path-1" class="cls-3"/><path d="M33 62v-2h29v2H33zm0-30h29v2H33v-2zM2 60h29v2H2v-2zm0-28h29v2H2v-2z" id="path-2" class="cls-4"/><path d="M64 38v22c0 2.21-1.79 4-4 4H35c-1.202 0-2.267-.54-3-1.38-.733.84-1.798 1.38-3 1.38H4c-2.21 0-4-1.79-4-4V38c0-1.202.54-2.267 1.38-3C.54 34.267 0 33.202 0 32V8c0-2.21 1.79-4 4-4h1V1l1-1h8l1 1v3h3V1l1-1h8l1 1v3h1c1.202 0 2.267.54 3 1.38.733-.84 1.798-1.38 3-1.38h1V1l1-1h8l1 1v3h3V1l1-1h8l1 1v3h1c2.21 0 4 1.79 4 4v24c0 1.202-.54 2.267-1.38 3 .84.733 1.38 1.798 1.38 3zm-32-2.62c.118-.136.26-.25.394-.368-.146-.126-.28-.26-.406-.406-.123.14-.24.284-.382.406.135.12.276.232.394.368zM2 60c0 1.105.895 2 2 2h25c1.105 0 2-.895 2-2V38c0-1.104-.895-2-2-2H4c-1.105 0-2 .896-2 2v22zM29 6h-3V2h-6v4h-7V2H7v4H4c-1.105 0-2 .895-2 2v24c0 1.105.895 2 2 2h25c1.105 0 2-.895 2-2V8c0-1.105-.895-2-2-2zm33 26V8c0-1.105-.895-2-2-2h-3V2h-6v4h-7V2h-6v4h-3c-1.105 0-2 .895-2 2v24c0 1.105.895 2 2 2h25c1.105 0 2-.895 2-2zm-5 4H35c-1.105 0-2 .896-2 2v22c0 1.105.895 2 2 2h25c1.105 0 2-.895 2-2V38c0-1.104-.895-2-2-2h-3z" id="path-3" class="cls-5"/></g></svg>