<svg height="32" viewBox="0 0 32 32" width="32" xmlns="http://www.w3.org/2000/svg"><path d="m46 44v2 18h-2v-2h-8v2h-2v-14-2-11c0-.5522847.4477153-1 1-1h4v-3c0-.5522847.4477153-1 1-1s1 .4477153 1 1v3h4c.5522847 0 1 .4477153 1 1zm2 0h7c.5522847 0 1 .4477153 1 1v19h-2v-18h-6zm-16 4v2h-6v14h-2v-15c0-.5522847.4477153-1 1-1zm12 12v-2h-8v2zm0-4v-2h-8v2zm0-4v-2h-8v2zm0-4v-2h-8v2zm0-4v-2h-8v2zm0-4v-2h-8v2zm-16 12h4v2h-4zm0 4h4v2h-4zm0 4h4v2h-4zm22-8c-1.1045695 0-2-.8954305-2-2s.8954305-2 2-2 2 .8954305 2 2-.8954305 2-2 2zm0 10c-1.1045695 0-2-.8954305-2-2s.8954305-2 2-2 2 .8954305 2 2-.8954305 2-2 2zm-1-8h2c.5522847 0 1 .4477153 1 1s-.4477153 1-1 1h-2c-.5522847 0-1-.4477153-1-1s.4477153-1 1-1z" fill="#7cc9ff" fill-rule="evenodd" transform="translate(-24 -32)"/></svg>