<svg height="64" preserveAspectRatio="xMidYMid" viewBox="0 0 64 64" width="64" xmlns="http://www.w3.org/2000/svg"><path d="m0 0h64v64h-64z" fill="#fff"/><path d="m61 60h-58c-1.885 0-3-1.146-3-3v-4s.01-1 1-1h27s1-.01 1 1v1h6v-1c0-1.01 1-1 1-1h27s1-.017 1 1.056v3.944c0 1.854-1.114 3-3 3zm1-6h-25c-.22 1.104-.813 2-2 2h-6c-1.186 0-1.78-.896-2-2h-25v3l1 1h58l1-1zm-8-40 1 1v33l-1 1h-44l-1-1v-33l1-1zm-43 33h42v-31h-42zm25-10v-1l4-4-4-4v-1h1l5 5-5 5zm-6 2v-1l3-13h1v1l-3 13zm-8-7 5-5h1v1l-4 4 4 4v1h-1zm35-19c0-.356-.64-1-1-1h-48c-.362 0-1 .644-1 1v37h-2v-37c0-1.748.903-3 2.68-3h48.32c1.776 0 3 1.252 3 3v37h-2z" fill="#23ab5f" fill-rule="evenodd"/></svg>