<svg height="64" preserveAspectRatio="xMidYMid" viewBox="0 0 64 64" width="64" xmlns="http://www.w3.org/2000/svg"><g fill-rule="evenodd"><path d="m18 62v-60h44v60zm-16-60h14v60h-14z" fill="#e8f6ea"/><path d="m18 62v-2h44v2zm-16 0v-2h12v-58h2v60z" fill="#bee6c5"/><g fill="#39bd4e"><path d="m62 64h-60c-1.105 0-2-.895-2-2v-60c0-1.105.895-2 2-2h60c1.105 0 2 .895 2 2v60c0 1.105-.895 2-2 2zm-60-62v60h14v-60zm60 0h-44v60h44z"/><path d="m50 54v-2h4v2zm0-14h4v2h-4zm0-12h4v2h-4zm0-12h4v2h-4zm-4-6h6v2h-6zm-8 0h4v2h-4zm8 8h-12v-2h12zm-20-8h8v2h-8zm-16 42h4v2h-4zm0-6h4v2h-4zm0-6h4v2h-4zm0-6h4v2h-4zm0-6h4v2h-4zm0-6h4v2h-4zm0-6h4v2h-4zm0-6h4v2h-4zm20 8h-4v-2h4zm4 6h-8v-2h8zm-4 6h-4v-2h4zm4 6h-8v-2h8zm-4 6h-4v-2h4zm4 6h-8v-2h8zm-4 6h-4v-2h4zm16-8h6v2h-6zm6-10h-6v-2h6zm0-12h-6v-2h6zm-10 10v2h-4v-2zm-4 14v-2h4v2zm-4-8h12v2h-12zm8-18v2h-4v-2zm4 8h-12v-2h12zm0 24h-12v-2h12z"/></g></g></svg>