<?xml version="1.0" encoding="UTF-8"?>
<svg width="64px" height="50px" viewBox="0 0 64 50" version="1.1" xmlns="http://www.w3.org/2000/svg" xmlns:xlink="http://www.w3.org/1999/xlink">
    <!-- Generator: Sketch 51.3 (57544) - http://www.bohemiancoding.com/sketch -->
    <title>icn-documentation</title>
    <desc>Created with Sketch.</desc>
    <defs></defs>
    <g id="Page-1" stroke="none" stroke-width="1" fill="none" fill-rule="evenodd">
        <g id="iconography" transform="translate(-1422.000000, -865.000000)" fill="#6C6C6C">
            <g id="icn-documentation" transform="translate(1422.000000, 865.000000)">
                <path d="M62,50 C62,50 2,50 2,50 C2,50 0,50 0,50 C0,50 0,48 0,48 C0,48 0,2 0,2 C0,2 2,2 2,2 C2,2 2,48 2,48 C2,48 62,48 62,48 C62,48 62,2 62,2 C62,2 64,2 64,2 C64,2 64,48 64,48 C64,48 64,50 64,50 C64,50 62,50 62,50 Z M33,46 C33,46 33,47 33,47 C33,47 31,47 31,47 C31,47 31,46 31,46 C31,46 5,46 5,46 C5,46 4,45 4,45 C4,45 4,1 4,1 C4,1 5,0 5,0 C5,0 28,0 28,0 C29.643,0 31.089,0.803 32,2.027 C32.911,0.803 34.357,0 36,0 C36,0 59,0 59,0 C59,0 60,1 60,1 C60,1 60,45 60,45 C60,45 59,46 59,46 C59,46 33,46 33,46 Z M58,2 C58,2 36,2 36,2 C34.343,2 33,3.343 33,5 C33,5 33,19 33,19 C33,19 31,19 31,19 C31,19 31,5 31,5 C31,3.343 29.657,2 28,2 C28,2 6,2 6,2 C6,2 6,44 6,44 C6,44 31,44 31,44 C31,44 31,29 31,29 C31,29 33,29 33,29 C33,29 33,44 33,44 C33,44 58,44 58,44 C58,44 58,2 58,2 Z M14,24.026 C14,24.026 19,21 19,21 C19,21 44,21 44,21 C44,21 46,21 46,21 C46,21 49,21 49,21 C49,21 50,22 50,22 C50,22 50,26 50,26 C50,26 49,27 49,27 C49,27 46,27 46,27 C46,27 44,27 44,27 C44,27 19,27 19,27 C19,27 14,24.026 14,24.026 Z M19,23 C19,23 17,24 17,24 C17,24 19,25 19,25 C19,25 19,23 19,23 Z M46,25 C46,25 48,25 48,25 C48,25 48,23 48,23 C48,23 46,23 46,23 C46,23 46,25 46,25 Z M21,25 C21,25 44,25 44,25 C44,25 44,23 44,23 C44,23 21,23 21,23 C21,23 21,25 21,25 Z" id="path-1"></path>
            </g>
        </g>
    </g>
</svg>