<svg enable-background="new 0 0 31 31" viewBox="0 0 31 31" xmlns="http://www.w3.org/2000/svg"><g transform="translate(1)"><path d="m2.7 19.1h23.5v-1.1h-23.5z" fill="#004b80"/><ellipse cx="1.4" cy="18.5" fill="#fff" rx="1.4" ry="1.6" stroke="#1155cb"/><ellipse cx="26.6" cy="18.5" fill="#fff" rx="1.4" ry="1.6" stroke="#1155cb"/><path d="m13.5 6.3v21.3h.9v-21.3z" fill="#1155cb"/><path d="m7.2 11.6h14.5v-1.1h-14.5z" fill="#c8a977"/><g fill="#fff"><path d="m5.9 12.7c.7 0 1.4-.7 1.4-1.6s-.6-1.6-1.4-1.6-1.4.7-1.4 1.6.6 1.6 1.4 1.6z" stroke="#004b80"/><path d="m22.1 12.7c.7 0 1.4-.7 1.4-1.6s-.6-1.6-1.4-1.6-1.4.7-1.4 1.6c.1.9.7 1.6 1.4 1.6z" stroke="#004b80"/><path d="m12.2 1.5h3.6v4.3h-3.6z" stroke="#c8a977"/></g><path d="m7.2 27.6h14.5v-1.1h-14.5z" fill="#c8a977"/><path d="m5.9 28.7c.7 0 1.4-.7 1.4-1.6s-.6-1.6-1.4-1.6-1.4.7-1.4 1.6c0 .8.6 1.6 1.4 1.6z" fill="#fff" stroke="#004b80"/><path d="m22.1 28.7c.7 0 1.4-.7 1.4-1.6s-.6-1.6-1.4-1.6-1.4.7-1.4 1.6c.1.8.7 1.6 1.4 1.6z" fill="#fff" stroke="#004b80"/></g></svg>