<svg height="14" viewBox="0 0 16 14" width="16" xmlns="http://www.w3.org/2000/svg"><path d="m14 14h-12c-1.105 0-2-.896-2-2v-10c0-1.105.895-2 2-2h12c1.105 0 2 .895 2 2v10c0 1.104-.895 2-2 2zm0-9.5-4.26223278 3.8360095c-.40745758.36671183-1.18163204.6639905-1.73776722.6639905-.55228475 0-1.32806396-.29525757-1.73776722-.6639905l-4.26223278-3.8360095v7.5h12zm-11.5-2.5 5.13058921 4.66417201c.20401995.18547268.5280836.19157998.73882158 0l5.13058921-4.66417201z" fill="#0573e3" fill-rule="evenodd"/></svg>