<svg height="34" viewBox="0 0 34 34" width="34" xmlns="http://www.w3.org/2000/svg"><g fill="none" stroke-width="2" transform="translate(1 1)"><path d="m4 16h12v-12" stroke="#3a8fe6"/><path d="m16 28h12v-12" stroke="#3a8fe6" transform="matrix(-1 0 0 -1 44 44)"/><g fill="#fff"><path d="m16 32c1.1045695 0 2-.8954305 2-2s-.8954305-2-2-2-2 .8954305-2 2 .8954305 2 2 2z" stroke="#004b80"/><circle cx="2" cy="16" r="2" stroke="#004b80"/><circle cx="16" cy="16" r="2" stroke="#004b80"/><circle cx="30" cy="16" r="2" stroke="#004b80"/><path d="m16 4c1.1045695 0 2-.8954305 2-2s-.8954305-2-2-2-2 .8954305-2 2 .8954305 2 2 2z" stroke="#004b80"/><path d="m6 8c1.1045695 0 2-.8954305 2-2s-.8954305-2-2-2-2 .8954305-2 2 .8954305 2 2 2z" stroke="#c2d6ff"/><path d="m26 8c1.1045695 0 2-.8954305 2-2s-.8954305-2-2-2-2 .8954305-2 2 .8954305 2 2 2z" stroke="#c2d6ff"/><path d="m6 28c1.1045695 0 2-.8954305 2-2s-.8954305-2-2-2-2 .8954305-2 2 .8954305 2 2 2z" stroke="#c2d6ff"/><path d="m26 28c1.1045695 0 2-.8954305 2-2s-.8954305-2-2-2-2 .8954305-2 2 .8954305 2 2 2z" stroke="#c2d6ff"/></g></g></svg>