<svg height="29" viewBox="0 0 34 29" width="34" xmlns="http://www.w3.org/2000/svg"><g fill="none" stroke-width="2" transform="translate(1 1)"><path d="m4 17h26" stroke="#3a8fe6"/><circle cx="2" cy="17" fill="#fff" r="2" stroke="#004b80"/><circle cx="30" cy="17" fill="#fff" r="2" stroke="#004b80"/><path d="m9 9h16" stroke="#3a8fe6"/><path d="m16 4v20" stroke="#3a8fe6"/><g fill="#fff" stroke="#004b80"><path d="m7 11c1.1045695 0 2-.8954305 2-2s-.8954305-2-2-2-2 .8954305-2 2 .8954305 2 2 2z"/><path d="m25 11c1.1045695 0 2-.8954305 2-2s-.8954305-2-2-2-2 .8954305-2 2 .8954305 2 2 2z"/><path d="m16 4c1.1045695 0 2-.8954305 2-2s-.8954305-2-2-2-2 .8954305-2 2 .8954305 2 2 2z"/></g><path d="m9 25h16" stroke="#3a8fe6"/><path d="m7 27c1.1045695 0 2-.8954305 2-2s-.8954305-2-2-2-2 .8954305-2 2 .8954305 2 2 2z" fill="#fff" stroke="#004b80"/><path d="m25 27c1.1045695 0 2-.8954305 2-2s-.8954305-2-2-2-2 .8954305-2 2 .8954305 2 2 2z" fill="#fff" stroke="#004b80"/></g></svg>