<svg height="16" viewBox="0 0 14 16" width="14" xmlns="http://www.w3.org/2000/svg"><g fill="none" fill-rule="evenodd"><path d="m14 12v2.0059397c0 1.0995465-.8980535 1.9940603-2.0058587 1.9940603h-1.9882826l-.0058587-2h2v-2-10h-2l.0058587-2h1.9882826c1.1078052 0 2.0058587.89451376 2.0058587 1.99406028zm-12 0v2h8l-.00585866 2h-7.98828268c-1.10780515 0-2.00585866-.8945138-2.00585866-1.9940603v-2.0059397-10.00593972c0-1.09954652.89805351-1.99406028 2.00585866-1.99406028h7.98828268l.00585866 2h-8z" fill="#004b80"/><g fill-rule="nonzero"><path d="m4 4h6v4h-6z" fill="#0573e3"/><path d="m4 10h6v2h-6z" fill="#c2d6ff"/></g></g></svg>