<?xml version="1.0" encoding="UTF-8"?>
<svg width="72px" height="72px" viewBox="0 0 72 72" version="1.1" xmlns="http://www.w3.org/2000/svg" xmlns:xlink="http://www.w3.org/1999/xlink">
    <!-- Generator: Sketch 58 (84663) - https://sketch.com -->
    <title>icn-kubernetes</title>
    <desc>Created with Sketch.</desc>
    <g id="Page-1" stroke="none" stroke-width="1" fill="none" fill-rule="evenodd">
        <g id="Artboard" transform="translate(-1258.000000, -735.000000)" fill-rule="nonzero">
            <g id="icn-kubernetes" transform="translate(1259.000000, 736.000000)">
                <path d="M40.4166667,34.0416667 L53.9375,20.5208333" id="Path-9" stroke="#004B80" stroke-linecap="round"></path>
                <path d="M37.9583333,43.875 L45.3333333,59.8541667" id="Path-9" stroke="#004B80" stroke-linecap="round"></path>
                <path d="M24.4375,43.875 L31.8125,59.8541667" id="Path-9" stroke="#004B80" stroke-linecap="round" transform="translate(28.125000, 51.864583) scale(-1, 1) translate(-28.125000, -51.864583) "></path>
                <path d="M41.6458333,42.6458333 L58.8541667,38.9583333" id="Path-9" stroke="#004B80" stroke-linecap="round" transform="translate(50.250000, 40.802083) scale(1, -1) translate(-50.250000, -40.802083) "></path>
                <path d="M12.1458333,42.6458333 L29.3541667,38.9583333" id="Path-9" stroke="#004B80" stroke-linecap="round" transform="translate(20.750000, 40.802083) scale(-1, -1) translate(-20.750000, -40.802083) "></path>
                <path d="M17.0625,32.8125 L30.5833333,19.2916667" id="Path-9" stroke="#004B80" stroke-linecap="round" transform="translate(23.822917, 26.052083) scale(-1, 1) translate(-23.822917, -26.052083) "></path>
                <path d="M35.5,31.5833333 L35.5,13.1458333" id="Path-10" stroke="#004B80" stroke-linecap="round"></path>
                <circle id="Oval-2" stroke="#0573E3" cx="35.5" cy="37.7291667" r="6.14583333"></circle>
                <circle id="Oval-2" stroke="#0573E3" cx="35.5" cy="37.7291667" r="17.2083333"></circle>
                <polygon id="Path-11" stroke="#3A8FE6" points="0 44.0740741 6.25 14.2592593 35 0 62.5 12.962963 70 45.3703704 51.25 70 20 70"></polygon>
            </g>
        </g>
    </g>
</svg>