<?xml version="1.0" encoding="UTF-8"?>
<svg width="48px" height="48px" viewBox="0 0 48 48" version="1.1" xmlns="http://www.w3.org/2000/svg" xmlns:xlink="http://www.w3.org/1999/xlink">
    <!-- Generator: Sketch 63.1 (92452) - https://sketch.com -->
    <title>logo-core-download</title>
    <desc>Created with Sketch.</desc>
    <defs>
        <linearGradient x1="50%" y1="100%" x2="50%" y2="3.061617e-15%" id="linearGradient-1">
            <stop stop-color="#7400E1" offset="0%"></stop>
            <stop stop-color="#4000BF" offset="100%"></stop>
        </linearGradient>
    </defs>
    <g id="Page-1" stroke="none" stroke-width="1" fill="none" fill-rule="evenodd">
        <g id="Layout-fixed" transform="translate(-936.000000, -2675.000000)">
            <g id="block--open-source" transform="translate(-1.000000, 2462.000000)">
                <g id="Group-2">
                    <g transform="translate(878.000000, 213.000000)">
                        <g id="logo-core-download" transform="translate(59.000000, 0.000000)">
                            <circle id="Oval" fill="#FFFFFF" fill-rule="nonzero" cx="24" cy="24" r="24"></circle>
                            <path d="M24.2857143,6 C34.2268398,6 42.2857143,14.0588745 42.2857143,24 C42.2857143,33.9411255 34.2268398,42 24.2857143,42 C14.3445888,42 6.28571429,33.9411255 6.28571429,24 C6.28571429,21.5699471 6.76725691,19.2523645 7.64012448,17.1374699 L7.74425222,17.2774913 C9.02446757,18.9335671 11.0305516,20 13.2857143,20 C17.1517075,20 20.2857143,16.8659932 20.2857143,13 C20.2857143,10.7448373 19.2192814,8.73875328 17.5632056,7.45853793 L17.4231842,7.3544102 C19.5380788,6.48154262 21.8556614,6 24.2857143,6 Z" id="Combined-Shape" fill="url(#linearGradient-1)"></path>
                        </g>
                    </g>
                </g>
            </g>
        </g>
    </g>
</svg>