<svg height="29" viewBox="0 0 30 29" width="30" xmlns="http://www.w3.org/2000/svg"><g fill="none" fill-rule="evenodd" stroke-width="2" transform="translate(1 1)"><path d="m.75855356 18.0599982h4.30394644l4.42909612 3.7916633h2.08926758v-7.2633941h-3.23273333l-1.24340088-.8042205h-.85248706v-.9759997l4.00769557-2.7173921v-6.92118128h-5.197438" stroke="#004b80"/><path d="m23.4400815 3.375-5.3838041 4.47606532v2.48913068l1.1624997.4637861h4.2213044-4.4287235l-2.136358 2.0802824v1.5950366l2.0070894 1.954407h2.6896892l1.8683029 5.5662919" stroke="#004b80"/><path d="m27.2698759 13.1299855c0 7.2518019-6.1042207 13.1299403-13.6349379 13.1299403-7.53071733 0-13.634938-5.8781384-13.634938-13.1299403 0-7.2518018 6.10422067-13.12994022 13.634938-13.12994022 7.5307172 0 13.6349379 5.87813842 13.6349379 13.12994022z" stroke="#0573e3"/></g></svg>