<svg enable-background="new 0 0 30 29" viewBox="0 0 30 29" xmlns="http://www.w3.org/2000/svg"><g fill="none" stroke-miterlimit="10" stroke-width=".75"><path d="m4 22.2c.1-.5.7-5.6 8.5-6 8-.4 8.7 4.6 8.7 6.1h3.5c.4-2.6-1.6-12.2-13.2-10.8-8.4 1.1-8.6 10.2-8.6 10.7z" stroke="#c8a977"/><path d="m13.2 22.2s-3.4-8.2 8.2-17c.4-1.9 1.3-.6 1.3-.6l1.3.5s2.4.6 2.5.9c.3.5.4.9.6 1s1.8.7 1.8.7l-.5 1.2s-2.8.6-6 2.9c-3.5 2.8-7 7.4-6.6 10.4z" opacity=".49" stroke="#3a8fe6"/><path d="m27.2 7c-.2-.1-.3-.5-.6-1-.2-.3-3.9-1.4-3.9-1.4s-.9-1.3-1.3.6c0 0-2.2.2-4.6.5-3.1.3-7.2-.2-10.8 2.4-5.9 4.3-4.9 13.1-4.9 14.1h.9c0-.4.1-9.4 7.6-11.9 8.8-3 12.9 1.5 12.9 1.5 2.4-1.9 6-2.9 6-2.9l.5-1.2s-1.6-.6-1.8-.7z" stroke="#3a8fe6"/><path d="m7.6 22.2h3.1c.4-.8.7-1.5.9-2.3.9-2.7 2.3-6.8-.8-7.9-4.9-1.4-6.7 2.6-7.4 4-.5 1-1.4 3.3-1.4 6.3h.9c0-.5.3-2.4.8-3.6 1.3-3 3.5-3.3 4.6-3 1.7.6-.5 6.1-.7 6.5z" opacity=".9" stroke="#1155cb"/><path d="m10 11.8c.5-.1 1-.2 1.4-.3 1.3-.2 2.5-.2 3.8-.1.5-.7 1-1.4 1.5-2-1.9-.2-4.3-.1-7.2.9-1.8.6-3.4 1.7-4.6 3.2 1.1-1.2 2.7-2.2 5.1-1.7z" opacity=".22" stroke="#3a8fe6"/></g></svg>