<?xml version="1.0" encoding="UTF-8"?>
<svg width="35px" height="40px" viewBox="0 0 35 40" version="1.1" xmlns="http://www.w3.org/2000/svg" xmlns:xlink="http://www.w3.org/1999/xlink">
    <!-- Generator: Sketch 58 (84663) - https://sketch.com -->
    <title>Group 12</title>
    <desc>Created with Sketch.</desc>
    <defs>
        <polygon id="path-1" points="0 0.132271429 34.978522 0.132271429 34.978522 39.5789474 0 39.5789474"></polygon>
    </defs>
    <g id="Page-1" stroke="none" stroke-width="1" fill="none" fill-rule="evenodd">
        <g id="Homepage" transform="translate(-123.000000, -30.000000)">
            <g id="---Header" transform="translate(111.000000, 24.001161)">
                <g id="Group-19">
                    <g id="Group-14" transform="translate(12.000000, 5.998839)">
                        <g id="Group-12" transform="translate(0.000000, 0.044526)">
                            <g id="Group-3" transform="translate(0.000000, 0.000000)">
                                <mask id="mask-2" fill="white">
                                    <use xlink:href="#path-1"></use>
                                </mask>
                                <g id="Clip-2"></g>
                                <path d="M32.0921301,10.4365797 C32.0582053,10.3386925 32.0767579,10.2307338 32.1410737,10.1494556 C33.3445211,8.62973008 34.4380662,6.8795985 34.4380662,5.53691805 C34.4380662,2.55188797 32.7365248,0.132271429 29.0332429,0.132271429 C27.1982992,0.132271429 25.8557955,0.727369173 24.9673895,1.69016241 C24.8850511,1.77939173 24.7601301,1.81473008 24.6447504,1.77709474 C22.8880812,1.20479023 21.2572165,0.941342857 20.4983256,0.840098496 C20.2841752,0.811651128 20.1110173,1.00936917 20.1666752,1.2182188 C20.4709383,2.36441805 22.4569534,9.55965865 23.993818,15.1210308 C24.9193293,18.4703992 22.3926376,21.7775383 18.9176414,21.7662301 L16.8711977,21.7595158 C13.4742992,21.7485609 10.9824158,18.5624556 11.7906038,15.2629143 C13.1557241,9.68740677 14.9553293,2.35116617 15.2671902,1.14453835 C15.3205511,0.938162406 15.1507504,0.743624812 14.9390737,0.768184962 C14.0515511,0.871549624 11.9948594,1.17280902 9.9268594,1.91615113 C9.80529549,1.95979398 9.67189323,1.92145188 9.58849474,1.82303459 C8.7027391,0.782320301 7.32277669,0.132271429 5.40461128,0.132271429 C1.70150602,0.132271429 -3.53383459e-05,2.55188797 -3.53383459e-05,5.53691805 C-3.53383459e-05,7.10258346 1.48700226,9.22253083 2.90106617,10.8846699 C2.97050602,10.9661248 2.99170902,11.0772639 2.95672406,11.1785083 L0.555483459,18.182215 C0.552833083,18.1896361 0.550889474,18.195997 0.548945865,18.2037714 C0.485513534,18.4491962 -0.447242105,22.5714143 6.62272406,29.1496474 C8.73966767,31.1194068 16.1082429,38.2194105 17.4309571,39.4947714 C17.5463368,39.6057338 17.7263857,39.6071474 17.8435323,39.4983053 C19.2054722,38.2337226 26.8480962,31.1370759 28.970694,29.1577752 C36.608194,22.035685 34.7891526,18.1903429 34.7891526,18.1903429 L32.0921301,10.4365797 Z" id="Fill-1" fill="#290B53" mask="url(#mask-2)"></path>
                            </g>
                            <path d="M19.328909,17.1679515 L16.4506008,17.1679515 C15.9735331,17.1679515 15.5865782,16.78135 15.5865782,16.3041056 L15.233018,12.7183237 C15.233018,12.241256 15.6197962,11.8544778 16.0968639,11.8544778 L19.6826459,11.8544778 C20.1597135,11.8544778 20.5464917,12.241256 20.5464917,12.7183237 L20.1929316,16.3041056 C20.1929316,16.78135 19.8059767,17.1679515 19.328909,17.1679515" id="Fill-4" fill="#290B53"></path>
                        </g>
                    </g>
                </g>
            </g>
        </g>
    </g>
</svg>