<svg xmlns="http://www.w3.org/2000/svg" viewBox="0 0 38.95 43.78"><defs><style>.cls-1,.cls-2{fill:none;stroke-miterlimit:10;}.cls-1{stroke:#2c67d1;}.cls-2{stroke:#3a8fe6;}</style></defs><g id="Layer_2" data-name="Layer 2"><g id="Layer_1-2" data-name="Layer 1"><path class="cls-1" d="M35.3,11.68a.34.34,0,0,1,.05-.31c1.31-1.65,2.5-3.55,2.5-5C37.85,3.13,36,.5,32,.5a5.76,5.76,0,0,0-4.41,1.69.32.32,0,0,1-.35.09,31.35,31.35,0,0,0-4.69-1.11.33.33,0,0,0-.37.28.53.53,0,0,0,0,.13c.33,1.25,2.33,9.15,3.93,15.17A5.59,5.59,0,0,1,20.79,24H18.45c-3.8,0-6.12-3.59-5.24-7.17,1.48-6,3.51-13.89,3.84-15.19a.31.31,0,0,0-.23-.39.17.17,0,0,0-.12,0,25.25,25.25,0,0,0-5.44,1.24.33.33,0,0,1-.37-.1A5.65,5.65,0,0,0,6.36.51C2.35.51.5,3.13.5,6.37c0,1.7,1.61,4,3.15,5.8a.37.37,0,0,1,.06.32L1.1,20.08s0,0,0,0C1,20.37,0,24.85,7.68,32,10,34.11,18,41.81,19.41,43.19a.31.31,0,0,0,.44,0L31.93,32c8.28-7.73,6.31-11.9,6.31-11.9Z"/><path class="cls-2" d="M21.19,18.93H18.07a.94.94,0,0,1-.94-.93h0l-.39-3.84a.94.94,0,0,1,.94-.94h3.88a.94.94,0,0,1,.94.93h0L22.13,18a.94.94,0,0,1-.93.94Z"/></g></g></svg>