<svg height="16" viewBox="0 0 16 16" width="16" xmlns="http://www.w3.org/2000/svg"><g fill="none" fill-rule="evenodd"><path d="m16 4v1h-3.5-1.5v-3h-5v3h-2v-3.00593972c0-1.10128908.88743329-1.99406028 1.99961498-1.99406028h6.00038502zm-16-1h2zm16 10.9914698c0 1.1092806-.8970601 2.0085302-2.0058587 2.0085302h-7.98828264c-1.10780515 0-2.00585866-.8945138-2.00585866-1.9940603v-9.0059397h2v9h8v-9h2z" fill="#004b80"/><g fill="#c2d6ff"><path d="m3.99414134 14h-1.98828268c-1.10780515 0-2.00585866-.8945138-2.00585866-1.9940603v-3.0059397h2v3h2z"/><path d="m3.99414134 9h-1.98828268c-1.10780515 0-2.00585866-.89451376-2.00585866-1.99406028v-4.00593972h2v4h2z" transform="matrix(1 0 0 -1 0 12)"/></g></g></svg>