<?xml version="1.0" encoding="UTF-8"?>
<svg width="33px" height="33px" viewBox="0 0 33 33" version="1.1" xmlns="http://www.w3.org/2000/svg" xmlns:xlink="http://www.w3.org/1999/xlink">
    <!-- Generator: Sketch 55.2 (78181) - https://sketchapp.com -->
    <title>icn-proxy</title>
    <desc>Created with Sketch.</desc>
    <g id="Page-1" stroke="none" stroke-width="1" fill="none" fill-rule="evenodd">
        <g id="Desktop-HD" transform="translate(-747.000000, -117.000000)">
            <g id="Subnav" transform="translate(0.000000, 80.000000)">
                <g id="01-Products">
                    <g id="Gateway" transform="translate(203.000000, 37.000000)">
                        <g id="Kong-gateway" transform="translate(232.000000, 0.000000)">
                            <g id="Group-9" transform="translate(311.000000, 0.000000)">
                                <g id="icn-proxy" transform="translate(1.000000, 0.000000)">
                                    <rect id="Rectangle-11" stroke="#3A8FE6" fill-rule="nonzero" x="4.5" y="4.5" width="24" height="24"></rect>
                                    <rect id="Rectangle-9" stroke="#C8A977" fill-rule="nonzero" x="9.5" y="9.5" width="14" height="14"></rect>
                                    <rect id="Rectangle" fill="#1155CB" x="0" y="24" width="4" height="1"></rect>
                                    <g id="Group-11" transform="translate(29.000000, 8.000000)" fill="#1155CB">
                                        <rect id="Rectangle" x="0" y="16" width="4" height="1"></rect>
                                        <rect id="Rectangle" x="0" y="4" width="4" height="1"></rect>
                                        <rect id="Rectangle" x="0" y="12" width="4" height="1"></rect>
                                        <rect id="Rectangle" x="0" y="8" width="4" height="1"></rect>
                                        <rect id="Rectangle" x="0" y="0" width="4" height="1"></rect>
                                    </g>
                                    <g id="Group-11" transform="translate(16.500000, 2.000000) rotate(-90.000000) translate(-16.500000, -2.000000) translate(14.500000, -6.500000)" fill="#1155CB">
                                        <rect id="Rectangle" x="0" y="16" width="4" height="1"></rect>
                                        <rect id="Rectangle" x="0" y="4" width="4" height="1"></rect>
                                        <rect id="Rectangle" x="0" y="12" width="4" height="1"></rect>
                                        <rect id="Rectangle" x="0" y="8" width="4" height="1"></rect>
                                        <rect id="Rectangle" x="0" y="0" width="4" height="1"></rect>
                                    </g>
                                    <g id="Group-11" transform="translate(16.500000, 31.000000) rotate(-90.000000) translate(-16.500000, -31.000000) translate(14.500000, 22.500000)" fill="#1155CB">
                                        <rect id="Rectangle" x="0" y="16" width="4" height="1"></rect>
                                        <rect id="Rectangle" x="0" y="4" width="4" height="1"></rect>
                                        <rect id="Rectangle" x="0" y="12" width="4" height="1"></rect>
                                        <rect id="Rectangle" x="0" y="8" width="4" height="1"></rect>
                                        <rect id="Rectangle" x="0" y="0" width="4" height="1"></rect>
                                    </g>
                                    <rect id="Rectangle" fill="#1155CB" x="0" y="12" width="4" height="1"></rect>
                                    <rect id="Rectangle" fill="#1155CB" x="0" y="20" width="4" height="1"></rect>
                                    <rect id="Rectangle" fill="#1155CB" x="0" y="16" width="4" height="1"></rect>
                                    <rect id="Rectangle" fill="#1155CB" x="0" y="8" width="4" height="1"></rect>
                                </g>
                            </g>
                        </g>
                    </g>
                </g>
            </g>
        </g>
    </g>
</svg>