<svg height="33" viewBox="0 0 34 33" width="34" xmlns="http://www.w3.org/2000/svg"><g fill="none" fill-rule="evenodd" stroke-width="2" transform="translate(1 1)"><path d="m8.11394647 2 3.81944523 6.17529568m-3.39542576 3.30018802-6.30633577-3.67715598m27.76836983 14.87463778-6.0120292-3.1225425m-3.7251581 3.6200556 3.2101216 5.8295214m5.8452555-21.14510065-5.8910365 3.05962635m-3.7889246-3.18651599 4.3497421-5.04333438m-15.77919221 25.65655597 3.50824331-5.6724955m-3.88484672-3.7506462-5.83217518 3.401171" stroke="#c2d6ff"/><path d="m32 15.459048c0 8.5381627-7.1630345 15.4589947-16 15.4589947-8.83696552 0-16-6.920832-16-15.4589947 0-8.53816268 7.16303448-15.45899469 16-15.45899469 8.8369655 0 16 6.92083201 16 15.45899469z" stroke="#0573e3"/><path d="m24.8491586 15.459048c0 4.7219233-3.961931 8.5498902-8.8491034 8.5498902s-8.84910348-3.8279669-8.84910348-8.5498902 3.96193108-8.5498902 8.84910348-8.5498902 8.8491034 3.8279669 8.8491034 8.5498902z" stroke="#004b80"/></g></svg>