<svg height="64" viewBox="0 0 64 64" width="64" xmlns="http://www.w3.org/2000/svg"><g fill="none" fill-rule="evenodd" transform="translate(0 -2)"><path d="m.5 2.5h63v63h-63z" fill-rule="nonzero" stroke="#fff" stroke-opacity=".1"/><path d="m2.5 4.5h28v28h-28z" stroke="#1155cb"/><path d="m5.5 8.5h9v8h-9z" stroke="#3a8fe6"/><path d="m18.5 8.5h9v20h-9z" stroke="#c8a977"/><circle cx="10" cy="24" r="4.5" stroke="#1155cb"/><g transform="matrix(0 -1 1 0 37 61)"><path d="m.5.5h9v8h-9z" stroke="#3a8fe6"/><path d="m13.5.5h9v8h-9z" stroke="#c8a977"/><circle cx="5" cy="16" r="4.5" stroke="#1155cb"/></g><g transform="translate(2 4)"><path d="m31.5.5h28v28h-28z" stroke="#3a8fe6"/><path d="m.5 31.5h59v28h-59z" stroke="#c8a977"/><path d="m35.8029791 17 8.1970209 7.3773188v-7.3773188z" stroke="#c8a977" transform="matrix(0 -1 1 0 18.5 60.5)"/><path d="m16.8029791 47 8.1970209 7.3773188v-7.3773188z" stroke="#3a8fe6" transform="matrix(0 -1 1 0 -30.5 71.5)"/><path d="m47.3029791 35.5 8.1970209 7.3773188v-7.3773188z" stroke="#3a8fe6" transform="matrix(0 -1 -1 0 90.5 90.5)"/><path d="m21 35.618034-4.1674973 3.027864 1.5918423 4.899187h5.15131l1.5918423-4.899187z" stroke="#c8a977"/><g stroke="#1155cb"><path d="m41-2h9v20h-9z" transform="matrix(0 -1 1 0 37.5 53.5)"/><path d="m4.14305 35.564675h9v20h-9z"/></g></g></g></svg>