<svg height="32" preserveAspectRatio="xMidYMid" viewBox="0 0 197 32" width="197" xmlns="http://www.w3.org/2000/svg"><g fill-rule="evenodd"><path d="m195.228 22.463v-5.595c0-.382-.034-.738-.104-1.068-.069-.33-.19-.617-.363-.86-.173-.244-.406-.435-.7-.574s-.66-.208-1.098-.208-.828.078-1.168.234c-.34.157-.628.371-.864.643-.237.272-.421.597-.554.973-.132.377-.204.785-.216 1.225v5.23h-1.089v-8.966h1.089v1.547h.035c.207-.545.576-.982 1.107-1.312.53-.33 1.112-.495 1.746-.495.623 0 1.144.081 1.565.243s.758.391 1.012.686c.253.296.432.658.536 1.086.104.429.156.91.156 1.443v5.768zm-8.854-1.147c-.357.429-.798.768-1.323 1.017s-1.127.374-1.807.374-1.283-.125-1.807-.374c-.525-.249-.966-.588-1.323-1.017-.357-.428-.628-.929-.813-1.503-.184-.573-.276-1.184-.276-1.833 0-.648.092-1.259.276-1.833.185-.573.456-1.074.813-1.503.357-.428.798-.77 1.323-1.025.524-.255 1.127-.382 1.807-.382s1.282.127 1.807.382.966.597 1.323 1.025c.357.429.628.93.813 1.503.184.574.277 1.185.277 1.833 0 .649-.093 1.26-.277 1.833-.185.574-.456 1.075-.813 1.503zm-.199-4.734c-.132-.458-.328-.866-.588-1.225-.259-.359-.585-.649-.977-.869s-.847-.33-1.366-.33-.974.11-1.366.33-.718.51-.977.869c-.26.359-.456.767-.588 1.225-.133.457-.199.923-.199 1.398s.066.942.199 1.399c.132.458.328.866.588 1.225.259.359.585.649.977.869s.847.33 1.366.33.974-.11 1.366-.33.718-.51.977-.869c.26-.359.456-.767.588-1.225.133-.457.199-.924.199-1.399s-.066-.941-.199-1.398zm-9.883-3.085h1.09v8.966h-1.09zm0-3.44h1.09v1.755h-1.09zm-2.559 12.493c-.726 0-1.234-.142-1.522-.426-.288-.283-.426-.808-.415-1.572v-6.134h-1.556v-.921h1.556v-2.693h1.09v2.693h1.815v.921h-1.815v6.047c0 .359.048.64.147.843.097.203.342.316.735.339.311 0 .622-.018.933-.053v.921c-.161 0-.323.006-.484.018-.161.011-.323.017-.484.017zm-4.479-.087c-.277 0-.499-.037-.666-.113-.167-.075-.297-.182-.389-.321s-.153-.304-.181-.495c-.029-.191-.044-.403-.044-.635h-.034c-.196.29-.395.548-.597.774s-.426.414-.674.564c-.248.151-.531.267-.848.348s-.694.122-1.132.122c-.415 0-.804-.05-1.168-.148-.363-.098-.68-.255-.951-.469-.271-.215-.484-.487-.64-.817-.155-.33-.233-.721-.233-1.173 0-.625.138-1.115.415-1.468s.643-.623 1.098-.808.969-.316 1.539-.391c.571-.075 1.15-.148 1.738-.217.231-.023.433-.052.605-.087.173-.035.317-.096.433-.183.115-.086.204-.205.268-.356.063-.15.095-.347.095-.591 0-.37-.061-.674-.182-.912-.121-.237-.288-.425-.501-.564-.214-.139-.461-.235-.744-.287-.282-.052-.585-.078-.908-.078-.691 0-1.256.165-1.694.495-.439.33-.669.86-.692 1.59h-1.09c.035-.522.144-.973.329-1.356.184-.382.435-.695.752-.938s.689-.423 1.116-.539c.426-.115.899-.173 1.418-.173.391 0 .784.037 1.176.113.391.075.743.217 1.054.425.312.209.565.502.761.878s.294.866.294 1.468v4.761c0 .44.214.66.64.66.127 0 .242-.023.346-.069v.921c-.127.023-.239.04-.337.052s-.222.017-.372.017zm-1.366-4.9h-.035c-.069.128-.202.22-.397.278-.197.058-.37.099-.519.122-.461.081-.937.154-1.427.217-.49.064-.937.16-1.34.287-.404.127-.735.31-.994.547-.26.238-.39.577-.39 1.017 0 .278.055.524.165.738.109.215.256.4.441.556.184.157.397.275.64.356.242.082.489.122.743.122.415 0 .813-.064 1.193-.191.381-.127.712-.313.995-.556.282-.243.507-.539.674-.886.167-.348.251-.742.251-1.182zm-8.871-1.129c0-.741-.156-1.306-.467-1.694-.312-.388-.859-.582-1.643-.582-.473 0-.865.09-1.176.269-.311.18-.559.42-.744.721-.184.301-.314.646-.389 1.034s-.112.791-.112 1.208v5.073h-1.09v-6.081c0-.301-.032-.588-.095-.86s-.167-.51-.311-.713c-.144-.202-.337-.362-.579-.478-.242-.115-.536-.173-.882-.173-.462 0-.862.084-1.202.252s-.617.399-.83.695c-.214.295-.372.643-.476 1.042-.104.4-.155.837-.155 1.312v5.004h-1.09v-8.966h1.003v1.512h.052c.288-.556.666-.99 1.133-1.303s1.063-.469 1.79-.469c.587 0 1.121.145 1.599.434.478.29.798.73.96 1.321.265-.591.657-1.031 1.176-1.321.519-.289 1.072-.434 1.66-.434 1.971 0 2.957 1.048 2.957 3.145v6.081h-1.089zm-13.627-1.764c-.404.157-.753.38-1.047.669-.293.29-.521.634-.683 1.034-.161.4-.242.837-.242 1.312v4.778h-1.089v-8.966h1.003v2.103h.034c.277-.73.706-1.292 1.289-1.686.582-.393 1.276-.573 2.084-.538v1.094c-.496-.023-.946.044-1.349.2zm-5.776 6.646c-.358.429-.799.768-1.323 1.017-.525.249-1.127.374-1.807.374-.681 0-1.283-.125-1.807-.374-.525-.249-.966-.588-1.323-1.017-.358-.428-.629-.929-.813-1.503-.185-.573-.277-1.184-.277-1.833 0-.648.092-1.259.277-1.833.184-.573.455-1.074.813-1.503.357-.428.798-.77 1.323-1.025.524-.255 1.126-.382 1.807-.382.68 0 1.282.127 1.807.382.524.255.965.597 1.323 1.025.357.429.628.93.813 1.503.184.574.276 1.185.276 1.833 0 .649-.092 1.26-.276 1.833-.185.574-.456 1.075-.813 1.503zm-.199-4.734c-.133-.458-.329-.866-.588-1.225s-.585-.649-.977-.869-.847-.33-1.366-.33-.975.11-1.366.33c-.392.22-.718.51-.977.869-.26.359-.456.767-.588 1.225-.133.457-.199.923-.199 1.398s.066.942.199 1.399c.132.458.328.866.588 1.225.259.359.585.649.977.869.391.22.847.33 1.366.33s.974-.11 1.366-.33.718-.51.977-.869.455-.767.588-1.225c.132-.457.199-.924.199-1.399s-.067-.941-.199-1.398zm-14.604-1.034h5.914v1.008h-5.914v5.907h-1.176v-12.406h7.834v1.008h-6.658zm-4.462 5.212h-.034c-.116.29-.285.556-.51.8-.225.243-.482.449-.77.617s-.596.298-.925.391c-.329.092-.654.139-.977.139-.68 0-1.271-.125-1.773-.374-.501-.249-.919-.591-1.253-1.025-.335-.435-.583-.939-.744-1.512-.162-.573-.242-1.178-.242-1.816 0-.637.08-1.242.242-1.815.161-.574.409-1.078.744-1.512.334-.435.752-.779 1.253-1.034.502-.255 1.093-.382 1.773-.382.334 0 .66.04.977.121.317.082.614.206.891.374.276.168.521.374.735.617.213.243.377.527.492.851h.035v-5.143h1.089v12.406h-1.003zm-.25-4.161c-.11-.458-.289-.866-.536-1.225-.248-.359-.571-.652-.969-.878-.398-.225-.885-.338-1.461-.338-.519 0-.963.113-1.332.338-.369.226-.671.519-.908.878-.236.359-.409.767-.518 1.225-.11.458-.165.918-.165 1.381 0 .464.055.924.165 1.382.109.457.282.866.518 1.225.237.359.539.651.908.877s.813.339 1.332.339c.576 0 1.063-.113 1.461-.339s.721-.518.969-.877c.247-.359.426-.768.536-1.225.109-.458.164-.918.164-1.382 0-.463-.055-.923-.164-1.381zm-9.658 4.248h-.035c-.288.603-.706 1.063-1.254 1.382-.547.318-1.156.478-1.824.478-.565 0-1.046-.079-1.444-.235s-.721-.379-.969-.669c-.248-.289-.429-.643-.544-1.06-.116-.417-.173-.892-.173-1.425v-5.821h1.089v5.839c.023.811.21 1.424.562 1.841s.96.626 1.825.626c.472 0 .876-.101 1.21-.304s.611-.472.83-.808.381-.721.484-1.156c.104-.434.156-.877.156-1.329v-4.709h1.09v8.966h-1.003zm-8.941.469c-.357.429-.798.768-1.323 1.017s-1.127.374-1.807.374-1.283-.125-1.807-.374c-.525-.249-.966-.588-1.323-1.017-.358-.428-.629-.929-.813-1.503-.184-.573-.276-1.184-.276-1.833 0-.648.092-1.259.276-1.833.184-.573.455-1.074.813-1.503.357-.428.798-.77 1.323-1.025.524-.255 1.127-.382 1.807-.382s1.282.127 1.807.382.966.597 1.323 1.025c.357.429.628.93.813 1.503.184.574.277 1.185.277 1.833 0 .649-.093 1.26-.277 1.833-.185.574-.456 1.075-.813 1.503zm-.199-4.734c-.132-.458-.328-.866-.588-1.225-.259-.359-.585-.649-.977-.869s-.847-.33-1.366-.33-.974.11-1.366.33-.718.51-.977.869c-.26.359-.456.767-.588 1.225-.133.457-.199.923-.199 1.398s.066.942.199 1.399c.132.458.328.866.588 1.225.259.359.585.649.977.869s.847.33 1.366.33.974-.11 1.366-.33.718-.51.977-.869c.26-.359.456-.767.588-1.225.133-.457.199-.924.199-1.399s-.066-.941-.199-1.398zm-9.883-6.525h1.09v12.406h-1.09zm-10.298 9.948c.375.515.856.929 1.444 1.242s1.291.469 2.11.469c.576 0 1.095-.104 1.556-.313.461-.208.859-.492 1.194-.851.334-.359.605-.779.812-1.26.208-.48.34-.999.398-1.555h1.176c-.081.765-.259 1.454-.536 2.068s-.634 1.135-1.072 1.564c-.439.428-.954.758-1.548.99s-1.254.348-1.98.348c-.968 0-1.819-.177-2.551-.53-.732-.354-1.34-.826-1.824-1.417-.484-.59-.848-1.274-1.09-2.05s-.363-1.593-.363-2.45.121-1.674.363-2.45.606-1.462 1.09-2.059c.484-.596 1.092-1.071 1.824-1.425.732-.353 1.583-.53 2.551-.53.588 0 1.161.087 1.721.261.559.174 1.066.432 1.521.773.456.342.836.762 1.142 1.26.305.498.498 1.072.579 1.72h-1.176c-.104-.475-.274-.9-.51-1.277-.236-.376-.525-.692-.865-.947s-.715-.449-1.124-.582-.838-.2-1.288-.2c-.819 0-1.522.157-2.11.469-.588.313-1.069.727-1.444 1.243-.375.515-.651 1.097-.83 1.746s-.268 1.315-.268 1.998c0 .672.089 1.335.268 1.99.179.654.455 1.239.83 1.755zm-14.82-5.708c.271.127.646.255 1.124.382.478.128 1.104.29 1.876.486.231.047.551.131.96.252.409.122.816.316 1.219.582.404.267.753.623 1.047 1.069s.441 1.017.441 1.712c0 .567-.11 1.094-.329 1.581-.219.486-.545.906-.977 1.26-.432.353-.968.628-1.608.825s-1.381.295-2.222.295c-.681 0-1.341-.084-1.981-.252-.639-.167-1.204-.431-1.694-.79s-.879-.817-1.167-1.373c-.289-.556-.427-1.216-.416-1.981h2.629c0 .417.075.771.225 1.06.15.29.348.524.596.704s.539.313.874.399c.334.087.68.131 1.037.131.242 0 .502-.02.778-.061.277-.04.537-.119.779-.235.242-.115.443-.275.605-.477.161-.203.242-.461.242-.774 0-.335-.107-.608-.32-.816-.213-.209-.493-.383-.839-.522-.345-.139-.738-.26-1.176-.364-.438-.105-.881-.22-1.331-.348-.461-.116-.911-.258-1.349-.426-.438-.167-.83-.385-1.176-.651-.346-.267-.625-.6-.839-.999-.213-.4-.319-.884-.319-1.451 0-.637.135-1.19.406-1.66.271-.469.625-.86 1.063-1.173.438-.312.934-.544 1.488-.695.553-.15 1.106-.225 1.66-.225.645 0 1.265.072 1.859.217.593.145 1.121.379 1.582.703.461.325.827.739 1.098 1.243s.407 1.115.407 1.833h-2.629c-.023-.371-.101-.678-.233-.921-.133-.243-.309-.434-.528-.573s-.47-.238-.752-.296c-.283-.058-.591-.087-.925-.087-.219 0-.439.024-.657.07-.22.046-.418.128-.597.243-.179.116-.326.261-.441.435-.115.173-.173.394-.173.66 0 .243.046.44.138.591.093.15.274.289.545.417zm-10.211 8.166s-2.093-8.444-2.093-8.444h-.034s-2.058 8.444-2.058 8.444h-2.75s-3.268-12.406-3.268-12.406h2.715s1.954 8.445 1.954 8.445h.034s2.145-8.445 2.145-8.445h2.542s2.11 8.549 2.11 8.549h.034s2.023-8.549 2.023-8.549h2.664s-3.321 12.406-3.321 12.406zm-12.538 0s-.934-2.762-.934-2.762h-4.617s-.969 2.762-.969 2.762h-2.732s4.669-12.406 4.669-12.406h2.784s4.618 12.406 4.618 12.406zm-3.199-9.348h-.035s-1.608 4.553-1.608 4.553h3.199s-1.556-4.553-1.556-4.553z"/><path d="m25.171 22.022s-11.569 3.823-11.569 3.823-.035-2.363-.035-2.363 7.934-1.971 7.934-1.971.346-.385.346-.385 3.324.896 3.324.896" fill="#b7ca9d"/><path d="m13.875 8.603s7.934 1.856 7.934 1.856 3.49-.166 3.49-.166.181-.351.181-.351-11.055-3.993-11.055-3.993-.55 2.654-.55 2.654" fill="#3c482a"/><path d="m21.576 21.539s3.693.512 3.693.512.207-.361.207-.361v-11.497s-.207-.347-.207-.347-3.693.512-3.693.512z" fill="#4a612c"/><path d="m13.156 31.998s13.14-6.622 13.14-6.622.006-18.748.006-18.748-13.146-6.626-13.146-6.626zm3.866-24.407s7.588 2.278 7.588 2.278v12.261s-7.588 2.279-7.588 2.279z" fill="#759c3e"/><path d="m4.936 21.642s-3.694.511-3.694.511-.103-.378-.103-.378v-11.428s.103-.398.103-.398 3.338.245 3.338.245.356.266.356.266z" fill="#759c3e"/><path d="m12.95 8.602s-7.934 1.857-7.934 1.857-3.67-.517-3.67-.517.138-.218.138-.218 11.415-3.262 11.415-3.262.051 2.14.051 2.14" fill="#3c482a"/><path d="m1.654 22.088s.224.253.224.253 11.329 3.196 11.329 3.196.051-1.981.051-1.981-7.934-1.981-7.934-1.981-.388-.14-.388-.14-3.282.653-3.282.653" fill="#b7ca9d"/><path d="m13.165.002s-13.154 6.625-13.154 6.625.006 18.749.006 18.749 13.148 6.622 13.148 6.622.196-.297.196-.297v-31.314s-.196-.385-.196-.385zm-3.846 24.407s-7.611-2.279-7.611-2.279v-12.261s7.611-2.278 7.611-2.278z" fill="#4a612c"/></g></svg>