<svg height="30" preserveAspectRatio="xMidYMid" viewBox="0 0 185 30" width="185" xmlns="http://www.w3.org/2000/svg"><g fill-rule="evenodd"><path d="m176.009 17.832c0 .451.063.919.189 1.403.126.485.329.919.607 1.304.279.385.631.704 1.056.956.424.252.935.378 1.533.378.915 0 1.632-.239 2.15-.717.517-.478.876-1.115 1.075-1.911h1.254c-.266 1.168-.754 2.07-1.463 2.708-.711.637-1.716.955-3.016.955-.81 0-1.51-.143-2.101-.428-.59-.285-1.072-.677-1.443-1.175-.372-.497-.647-1.075-.826-1.731-.179-.657-.269-1.351-.269-2.081 0-.677.09-1.34.269-1.991.179-.65.454-1.231.826-1.742.371-.51.853-.922 1.443-1.234.591-.312 1.291-.468 2.101-.468.822 0 1.526.166 2.11.498s1.058.766 1.423 1.304c.365.537.627 1.155.787 1.851.159.697.225 1.404.199 2.121zm6.401-2.429c-.153-.438-.369-.826-.647-1.165-.279-.338-.618-.61-1.016-.816s-.849-.309-1.353-.309c-.518 0-.976.103-1.374.309s-.737.478-1.015.816c-.279.339-.502.73-.667 1.175-.166.445-.276.899-.329 1.363h6.649c-.013-.477-.096-.935-.248-1.373zm-16.026 5.096c.298.412.673.744 1.125.996.451.252.975.378 1.572.378.385 0 .75-.073 1.095-.219s.65-.349.916-.607c.265-.259.484-.568.657-.926.172-.358.279-.75.318-1.175h1.255c-.173 1.248-.631 2.22-1.374 2.917s-1.699 1.045-2.867 1.045c-.783 0-1.476-.143-2.08-.428s-1.112-.673-1.523-1.165c-.412-.49-.724-1.065-.936-1.722s-.318-1.356-.318-2.1c0-.743.106-1.443.318-2.1s.524-1.231.936-1.722c.411-.491.919-.883 1.523-1.175s1.297-.438 2.08-.438c1.102 0 2.034.292 2.797.876s1.218 1.467 1.364 2.648h-1.254c-.173-.77-.491-1.374-.956-1.812-.464-.438-1.115-.657-1.951-.657-.597 0-1.121.127-1.572.379-.452.252-.827.584-1.125.995-.299.412-.525.879-.677 1.404-.153.524-.229 1.058-.229 1.602s.076 1.079.229 1.603c.152.524.378.992.677 1.403zm-4.032 2.13c-.318 0-.574-.043-.766-.129-.193-.086-.342-.209-.448-.368-.106-.16-.176-.349-.209-.568s-.05-.461-.05-.726h-.04c-.225.332-.454.627-.686.886-.233.258-.492.474-.777.647-.285.172-.61.305-.975.398-.366.092-.8.139-1.304.139-.478 0-.926-.057-1.344-.169-.418-.113-.783-.292-1.095-.538-.312-.245-.557-.557-.737-.935-.179-.379-.268-.827-.268-1.344 0-.717.159-1.277.477-1.682.319-.405.74-.714 1.265-.926.524-.212 1.114-.362 1.771-.448s1.324-.169 2.001-.249c.265-.026.498-.06.697-.099.199-.04.365-.11.498-.209.132-.1.235-.236.308-.409.073-.172.11-.398.11-.676 0-.425-.07-.773-.209-1.046-.14-.271-.332-.487-.578-.647-.245-.159-.531-.268-.856-.328s-.674-.09-1.045-.09c-.796 0-1.447.189-1.951.568-.504.378-.77.985-.796 1.821h-1.254c.039-.597.165-1.115.378-1.553.212-.437.501-.796.866-1.075.365-.278.793-.484 1.284-.617.491-.132 1.035-.199 1.632-.199.451 0 .903.043 1.354.13.451.086.856.248 1.214.487.359.239.651.575.876 1.006.226.431.339.992.339 1.682v5.455c0 .504.245.756.736.756.146 0 .279-.026.399-.079v1.055c-.147.026-.276.046-.389.059-.112.014-.255.02-.428.02zm-1.572-5.614h-.04c-.08.147-.233.253-.458.319-.226.066-.425.113-.597.139-.531.093-1.079.176-1.643.249s-1.078.183-1.543.329c-.464.146-.846.355-1.144.627-.299.272-.448.66-.448 1.164 0 .319.063.601.189.846.126.246.295.458.508.637.212.18.457.316.736.409s.564.139.856.139c.478 0 .936-.073 1.374-.219s.819-.358 1.145-.637c.325-.279.583-.617.776-1.015.192-.399.289-.85.289-1.354zm-10.432-8.6h1.254v14.214h-1.254zm-3.305 12.89c-.385.498-.866.89-1.443 1.175s-1.258.428-2.041.428c-.371 0-.743-.047-1.114-.139-.372-.093-.717-.232-1.036-.418-.318-.186-.6-.418-.846-.697-.245-.279-.435-.604-.567-.976h-.04v5.734h-1.254v-14.055h1.155v1.951h.039c.292-.717.767-1.271 1.424-1.662.657-.392 1.403-.588 2.239-.588.783 0 1.464.146 2.041.438s1.058.687 1.443 1.185c.385.497.67 1.075.856 1.732s.279 1.35.279 2.08-.093 1.424-.279 2.081c-.186.656-.471 1.234-.856 1.731zm-.308-5.395c-.126-.524-.326-.992-.597-1.403-.273-.411-.621-.747-1.046-1.005-.424-.259-.935-.389-1.533-.389-.69 0-1.267.12-1.731.359-.465.239-.837.557-1.115.955-.279.398-.475.863-.588 1.394s-.169 1.088-.169 1.672c0 .531.063 1.059.189 1.583s.332.992.617 1.403c.286.412.657.747 1.115 1.006.458.258 1.019.388 1.682.388.598 0 1.109-.13 1.533-.388.425-.259.773-.594 1.046-1.006.271-.411.471-.879.597-1.403s.189-1.052.189-1.583-.063-1.058-.189-1.583zm-11.158 6.819c-.837 0-1.421-.162-1.752-.488-.332-.325-.491-.926-.478-1.802v-7.027h-1.792v-1.055h1.792v-3.086h1.254v3.086h2.09v1.055h-2.09v6.928c0 .411.056.733.169.965.113.233.395.362.846.389.359 0 .717-.02 1.075-.06v1.055c-.186 0-.371.007-.557.02s-.372.02-.557.02zm-12.572-3.494c.126.485.328.919.607 1.304s.63.704 1.055.956.936.378 1.533.378c.916 0 1.632-.239 2.15-.717s.876-1.115 1.075-1.911h1.254c-.265 1.168-.753 2.07-1.463 2.708-.71.637-1.715.955-3.016.955-.81 0-1.51-.143-2.1-.428-.591-.285-1.072-.677-1.444-1.175-.371-.497-.647-1.075-.826-1.731-.179-.657-.269-1.351-.269-2.081 0-.677.09-1.34.269-1.991.179-.65.455-1.231.826-1.742.372-.51.853-.922 1.444-1.234.59-.312 1.29-.468 2.1-.468.823 0 1.526.166 2.11.498s1.058.766 1.424 1.304c.365.537.627 1.155.786 1.851.159.697.226 1.404.199 2.121h-7.903c0 .451.062.919.189 1.403zm6.46-2.459c-.013-.477-.097-.935-.249-1.373-.153-.438-.368-.826-.647-1.165-.279-.338-.617-.61-1.015-.816s-.85-.309-1.354-.309c-.518 0-.976.103-1.374.309s-.736.478-1.015.816c-.279.339-.501.73-.667 1.175s-.276.899-.328 1.363zm-10.193 5.853s-4.061-5.594-4.061-5.594-2.031 1.692-2.031 1.692v3.902h-1.254v-14.214h1.254v8.919s5.694-4.977 5.694-4.977h1.672s-4.38 3.802-4.38 3.802 4.679 6.47 4.679 6.47zm-10.292-8.928c-.465.179-.866.435-1.205.766-.338.332-.6.727-.786 1.185s-.279.959-.279 1.503v5.474h-1.254v-10.272h1.155v2.409h.04c.318-.836.812-1.48 1.483-1.931.67-.451 1.469-.657 2.399-.618v1.255c-.571-.027-1.089.049-1.553.229zm-5.913 8.928c-.318 0-.574-.043-.766-.129-.193-.086-.342-.209-.448-.368-.107-.16-.176-.349-.209-.568-.034-.219-.05-.461-.05-.726h-.04c-.226.332-.455.627-.687.886-.232.258-.491.474-.776.647-.286.172-.611.305-.976.398-.365.092-.799.139-1.304.139-.477 0-.925-.057-1.343-.169-.418-.113-.784-.292-1.095-.538-.312-.245-.558-.557-.737-.935-.179-.379-.269-.827-.269-1.344 0-.717.16-1.277.478-1.682.319-.405.74-.714 1.264-.926s1.115-.362 1.772-.448 1.324-.169 2.001-.249c.265-.026.498-.06.697-.099.199-.04.365-.11.497-.209.133-.1.236-.236.309-.409.073-.172.109-.398.109-.676 0-.425-.069-.773-.209-1.046-.139-.271-.331-.487-.577-.647-.246-.159-.531-.268-.856-.328s-.674-.09-1.045-.09c-.796 0-1.447.189-1.951.568-.505.378-.77.985-.796 1.821h-1.255c.04-.597.166-1.115.379-1.553.212-.437.5-.796.866-1.075.364-.278.793-.484 1.284-.617.491-.132 1.035-.199 1.632-.199.451 0 .903.043 1.354.13.451.086.856.248 1.214.487.359.239.65.575.876 1.006s.339.992.339 1.682v5.455c0 .504.245.756.736.756.146 0 .279-.026.398-.079v1.055c-.146.026-.275.046-.388.059-.113.014-.255.02-.428.02zm-1.573-5.614h-.039c-.08.147-.233.253-.458.319-.226.066-.425.113-.597.139-.531.093-1.079.176-1.643.249s-1.078.183-1.543.329c-.464.146-.846.355-1.144.627-.299.272-.448.66-.448 1.164 0 .319.062.601.189.846.126.246.295.458.507.637.213.18.458.316.737.409s.564.139.856.139c.478 0 .936-.073 1.374-.219s.819-.358 1.144-.637.584-.617.777-1.015c.192-.399.288-.85.288-1.354zm-10.411-1.294c0-.849-.179-1.496-.538-1.941-.358-.444-.989-.667-1.891-.667-.544 0-.995.103-1.354.309-.358.206-.644.481-.856.826s-.362.74-.448 1.185c-.086.444-.129.905-.129 1.383v5.813h-1.254v-6.967c0-.345-.037-.674-.11-.986s-.192-.584-.358-.816-.388-.415-.667-.548c-.279-.132-.617-.199-1.015-.199-.531 0-.993.097-1.384.289-.392.193-.71.458-.956.796-.245.339-.428.737-.547 1.195-.12.458-.179.959-.179 1.503v5.733h-1.254v-10.272h1.154v1.732h.06c.332-.637.766-1.135 1.304-1.493.537-.359 1.224-.538 2.06-.538.677 0 1.291.166 1.842.498.55.332.919.836 1.105 1.513.305-.677.756-1.181 1.353-1.513.598-.332 1.235-.498 1.912-.498 2.269 0 3.404 1.202 3.404 3.604v6.967h-1.254z"/><path d="m74.787 13.841c-.065.132-.131.198-.219.198-.044 0-.109-.022-.175-.044-.832-.373-1.598-.57-2.211-.57-.898 0-1.402.395-1.402 1.117 0 .591.241.81 1.445 1.27 1.621.635 2.08.876 2.54 1.314.57.569.898 1.357.898 2.233 0 .942-.372 1.883-1.007 2.54-.657.679-1.533 1.007-2.693 1.007-1.227 0-2.584-.328-3.723-.919-.394-.197-.481-.263-.481-.416 0-.088.022-.132.065-.263 0 0 .504-1.336.504-1.336.066-.153.131-.219.219-.219.044 0 .109.022.197.066 1.16.635 2.146.942 2.978.942.766 0 1.27-.46 1.27-1.139 0-.613-.263-.832-1.686-1.379-1.402-.526-1.883-.811-2.277-1.183-.57-.547-.876-1.292-.876-2.146 0-2.102 1.62-3.569 3.897-3.569 1.38 0 3.35.592 3.35 1.008 0 .065-.022.153-.065.24 0 0-.548 1.248-.548 1.248zm-11.213 8.562c-.087.284-.109.306-.416.306h-1.817c-.307 0-.328-.022-.394-.35 0 0-1.029-5.54-1.029-5.54-.044-.241-.066-.306-.153-1.116 0 0-.088-.811-.088-.811s-.066-.525-.066-.525c-.175 1.204-.175 1.489-.394 2.452 0 0-1.292 5.562-1.292 5.562-.065.306-.109.328-.394.328h-1.795c-.307 0-.307-.022-.394-.328 0 0-2.65-10.072-2.65-10.072-.044-.197-.044-.197-.044-.241 0-.131.088-.175.329-.219 0 0 1.927-.285 1.927-.285.022-.022.131-.022.175-.022.153 0 .219.066.263.307 0 0 1.029 5.036 1.029 5.036.109.547.219 1.27.459 3.438.132-1.467.263-2.562.395-3.153 0 0 1.094-5.124 1.094-5.124.066-.307.088-.328.395-.328h1.97c.285 0 .329.043.394.328 0 0 .986 4.927.986 4.927.109.503.328 2.189.438 3.35.218-2.146.328-2.978.481-3.635 0 0 1.117-4.839 1.117-4.839.066-.241.109-.307.241-.307.044 0 .175 0 .197.022 0 0 1.795.285 1.795.285.241.044.329.109.329.241 0 .044-.022.044-.066.219 0 0-3.022 10.094-3.022 10.094zm-14.233.416c-.066.044-.197.065-.263.065-.197 0-.416-.416-.657-1.291-.876.897-1.664 1.248-2.803 1.248-2.014 0-3.284-1.292-3.284-3.307 0-1.948 1.051-3.087 3.262-3.525.57-.109 1.248-.175 2.453-.197v-.679c0-1.248-.351-1.642-1.445-1.642-.657 0-1.489.197-2.453.569-.087.044-.175.066-.241.066-.109 0-.175-.066-.219-.219 0 0-.459-1.314-.459-1.314-.022-.065-.044-.175-.044-.24 0-.46 1.992-1.008 3.744-1.008 1.73 0 2.912.57 3.416 1.686.219.46.306.986.306 1.818v4.466c0 .964.132 1.599.504 2.365.044.088.066.175.066.241 0 .088-.066.175-.176.219 0 0-1.707.679-1.707.679zm-1.292-5.19c-2.19 0-3.066.482-3.066 1.752 0 .854.613 1.511 1.402 1.511.591 0 1.138-.285 1.664-.854z" fill="#f69731"/><path d="m31.625 7.085s-5.182 16.364-5.182 16.364h-22.091s-4.364-13.364-4.364-13.364h4.364s2.727 9.273 2.727 9.273h16.637s4.636-15.546 4.636-15.546h11.182v3.273zm-23.324 17.716c1.428 0 2.585 1.164 2.585 2.6 0 1.435-1.157 2.599-2.585 2.599s-2.585-1.164-2.585-2.599c0-1.436 1.157-2.6 2.585-2.6zm14.73 0c1.436 0 2.6 1.164 2.6 2.6 0 1.435-1.164 2.599-2.6 2.599-1.435 0-2.599-1.164-2.599-2.599 0-1.436 1.164-2.6 2.599-2.6z" fill="#59595c"/><path d="m10.352 8.722v-5.728s3.818-1.363 3.818-1.363v5.727s-3.818 1.364-3.818 1.364zm-4.091-7.637s3.818-1.091 3.818-1.091 3.273 1.091 3.273 1.091-3.273 1.091-3.273 1.091-3.818-1.091-3.818-1.091zm3.273 7.637s-3.818-1.364-3.818-1.364v-5.727s3.818 1.363 3.818 1.363z" fill="#f69731"/><path d="m15.807 17.449v-5.727s3.818-1.364 3.818-1.364v5.727s-3.818 1.364-3.818 1.364zm-4.091-7.637s3.818-1.09 3.818-1.09 3.273 1.09 3.273 1.09-3.273 1.091-3.273 1.091-3.818-1.091-3.818-1.091zm3.273 7.637s-3.819-1.364-3.819-1.364v-5.727s3.819 1.364 3.819 1.364z" fill="#1a77b7"/><path d="m21.261 8.722v-5.728s3.819-1.363 3.819-1.363v5.727s-3.819 1.364-3.819 1.364zm-4.091-7.637s3.819-1.091 3.819-1.091 3.272 1.091 3.272 1.091-3.272 1.091-3.272 1.091-3.819-1.091-3.819-1.091zm3.273 7.637s-3.818-1.364-3.818-1.364v-5.727s3.818 1.363 3.818 1.363z" fill="#b0d2ed"/></g></svg>