<svg height="27" viewBox="0 0 110 27" width="110" xmlns="http://www.w3.org/2000/svg" xmlns:xlink="http://www.w3.org/1999/xlink"><mask id="a" fill="#fff"><path d="m0 .4453913h109.223739v25.5546087h-109.223739z" fill="#fff" fill-rule="evenodd"/></mask><mask id="b" fill="#fff"><path d="m0 .4453913h109.223739v25.5546087h-109.223739z" fill="#fff" fill-rule="evenodd"/></mask><g fill="none" fill-rule="evenodd"><g fill="#262577"><path d="m43.3314304 20.866187h-6.4163478c-.6505652 0-1.2943478-.0898696-1.9307826-.270174-1.2321739-.3736087-2.2077391-1.2316087-2.9278261-2.5745652-.6505652-1.2180435-.9761304-2.6367391-.9761304-4.2566521 0-1.5645218.2910869-2.9487392.8721304-4.15265222.637-1.32882609 1.5436087-2.236 2.7203913-2.72039131.9133913-.37360869 1.8476957-.56069565 2.8029131-.56069565h5.8143913v2.78256522h-6.0427392c-.982913 0-1.6956521.533-2.1387826 1.59899996-.345913.8303044-.5188695 1.9172174-.5188695 3.2596087 0 1.1349566.2215652 2.0975218.6646956 2.8865653.512087.9269565 1.2316087 1.391 2.1591304 1.391l5.9178261-.0209131z"/><path d="m54.2604739 20.9285304h-5.0666087c-1.2316087 0-2.3043913-.5262174-3.2183478-1.5780869-.8998261-1.066-1.3497391-2.2908261-1.3497391-3.6750435 0-1.5091304.4917391-2.8102609 1.4746521-3.9039565.9964783-1.1072609 2.1037392-1.6611739 3.3217826-1.6611739h4.8173479v2.2218695h-3.5297826c-.4431305 0-.8235218.0418261-1.1417392.1243479-.3046521.0695217-.5883913.2147826-.8517826.4363478-.4843913.4154348-.7263043 1.0366087-.7263043 1.7425652h6.2292608v2.2427826h-6.208913c0 .3323478.0344783.5550435.104.7901739.083087.2215652.2424783.4499131.4776087.6856087.2351304.2215652.512087.3736087.8303043.4566957.3323479.0689565.7336522.104 1.2044783.104h3.6337826z"/><path d="m66.3445957 20.866187h-2.886v-7.0804783c0-.1803044-.0418261-.3391304-.1249131-.4776087-.0830869-.1526087-.2006522-.2978696-.3526956-.4363478-.2769566-.2351305-.595174-.3526957-.9552174-.3526957h-2.8238261v8.3471305h-2.8865652v-10.756087h5.5233043c.9829131 0 1.6956522.0553913 2.1387826.1661739.6923913.1661739 1.2457391.533 1.6611739 1.1004783.4708261.6646956.7059566 1.3915652.7059566 2.1806087z"/><path d="m75.0737 12.3528826h-2.802913v4.8795217c0 .4431305.1520434.8099566.4566956 1.1004783.3459131.2905217.8026087.4363478 1.370087.4363478h.8517826v2.0969566h-2.6785652c-.803174 0-1.6849131-.2905218-2.2523913-.8721305-.3323479-.345913-.5465653-.7268695-.6437827-1.1417391-.0966521-.4154348-.1452608-.9071739-.1452608-1.4746522v-5.0247826h-1.8273479v-2.2427826h1.8273479v-3.77904348h3.0414348v3.77904348h2.802913z"/><path d="m88.5826217 13.4949609c0-1.4260435-.3391304-2.561-1.0173913-3.4054348-.7613478-.94108697-1.8895217-1.41191306-3.3845217-1.41191306-1.4673044 0-2.5745652.50530435-3.3223478 1.51591306-.6228696.8444348-.9343044 1.944913-.9343044 3.3014348 0 1.5645217.2492609 2.7198261.7472174 3.4676087.6923913 1.0383043 1.9726087 1.5571739 3.8417826 1.5571739 1.578087 0 2.6853478-.5053044 3.3217826-1.5159131.4985218-.7890434.7477826-1.9584782.7477826-3.5088695zm3.6959566.0830869c0 2.8238261-.7822609 4.8450435-2.3462174 6.063087-1.2734348.982913-3.1284783 1.4740869-5.5651305 1.4740869-2.698913 0-4.6924347-.5674782-5.98-1.7024347-1.411913-1.2457392-2.1178695-3.2460435-2.1178695-6.0009131 0-2.2563478.6302174-4.0141739 1.8895217-5.27404347 1.3706522-1.37008695 3.4195652-2.05569565 6.1461739-2.05569565 3.0041305 0 5.122.65734783 6.3541739 1.9726087 1.0795653 1.16265217 1.6193479 3.00413042 1.6193479 5.52330432z"/><path d="m109.223796 16.360387c0 1.2734347-.422218 2.3462173-1.266653 3.2183478-.844434.8721304-1.917217 1.3084782-3.218347 1.3084782l-10.2784786-.020913v-2.6163913h8.4720436c.567478 0 1.045087-.1316957 1.432826-.3945217.442565-.3046522.66413-.7195218.66413-1.2457392 0-1.2321739-.87213-1.8482608-2.616391-1.8482608h-4.2769999c-1.2321739 0-2.3117391-.3803913-3.2392609-1.1417392-.9275217-.7613478-1.3915652-1.7301304-1.3915652-2.906913 0-1.30113045.449913-2.35356523 1.3497391-3.15617393.9139566-.81673913 2.111087-1.2253913 3.5925218-1.2253913h9.8212171v2.49204347h-8.658565c-.3877391 0-.7822608.1656087-1.1835652.49795653-.3877391.31821739-.5816087.69917393-.5816087 1.14230433 0 .4979565.187087.9201739.5606957 1.2666522.3877391.3317826.8512174.4979565 1.3915652.4979565h4.713348c1.467304 0 2.616391.3809565 3.446695 1.1423044.844435.7472173 1.266653 1.7442608 1.266653 2.99z" mask="url(#a)"/></g><path d="m11.7481 13.2333217-5.67252174 5.5866087-5.67252174-5.5866087 5.67252174-5.58660866z" fill="#932279"/><path d="m11.7481 13.2333217-5.67252174 5.5866087-5.67252174-5.5866087 5.67252174-5.58660866z" stroke="#fff"/><path d="m12.9291217 12.0897739-5.58773909-5.62165216 5.58773909-5.62221739 5.5877392 5.62221739z" fill="#efa724"/><path d="m12.9291217 12.0897739-5.58773909-5.62165216 5.58773909-5.62221739 5.5877392 5.62221739z" stroke="#fff"/><path d="m18.5300304 20.0168348-5.6725217 5.5866087-5.67252174-5.5866087 5.67252174-5.5866087z" fill="#9ccd2a"/><path d="m18.5300304 20.0168348-5.6725217 5.5866087-5.67252174-5.5866087 5.67252174-5.5866087z" stroke="#fff"/><path d="m19.7109391 18.8732304-5.5877391-5.6216521 5.5877391-5.62221743 5.5877392 5.62221743z" fill="#262577"/><path d="m19.7109391 18.8732304-5.5877391-5.6216521 5.5877391-5.62221743 5.5877392 5.62221743z" stroke="#fff"/><path d="m4.14982609 4.43526087h7.62986961v7.59482613h-7.62986961z" fill="#fce94f" mask="url(#b)"/><path d="m14.0411304 14.3406957h7.5744783v7.6304347h-7.5744783z" fill="#efa724" mask="url(#b)"/><path d="m14.0716522 4.48782609h7.599913v7.59200001h-7.599913z" fill="#932279" mask="url(#b)"/><path d="m3.86721739 4.16678261h7.91247831v7.86669569h-7.91247831z" fill="#9ccd2a" mask="url(#b)"/><path d="m3.86721739 4.16678261h7.91247831v7.86669569h-7.91247831z" mask="url(#b)" stroke="#fff"/><path d="m14.0411304 14.3406957h7.8644348v7.9130434h-7.8644348z" mask="url(#b)" stroke="#fff"/><path d="m14.0693913 4.21313043h7.8847826v7.86669567h-7.8847826z" mask="url(#b)" stroke="#fff"/><path d="m3.86778261 14.3406957h7.91247829v7.9124782h-7.91247829z" fill="#262577" mask="url(#b)"/><path d="m3.86778261 14.3406957h7.91247829v7.9124782h-7.91247829z" mask="url(#b)" stroke="#fff"/><path d="m11.7481 13.2333217-5.67252174 5.5866087-5.67252174-5.5866087 5.67252174-5.58660866z" mask="url(#b)" stroke="#fff"/><path d="m12.9290087 12.0897174-5.58773913-5.62165218 5.58773913-5.62221739 5.5877391 5.62221739z" mask="url(#b)" stroke="#fff"/><path d="m18.5300304 20.0168348-5.6725217 5.5866087-5.67252174-5.5866087 5.67252174-5.5866087z" mask="url(#b)" stroke="#fff"/><path d="m19.7108826 18.8731739-5.5877391-5.6216522 5.5877391-5.62221735 5.5877391 5.62221735z" mask="url(#b)" stroke="#fff"/></g></svg>