<svg height="36" viewBox="0 0 89 36" width="89" xmlns="http://www.w3.org/2000/svg"><g fill="#462785" fill-rule="evenodd"><path d="m86.9588804 14.5881362c0 .1715785.064342.2573678.2359205.2573678h.6219721c.1930258 0 .2573677-.0857893.2573677-.2573678v-1.0509183c0-1.6728904-.965129-3.0240711-4.3109099-3.0240711-3.367228 0-4.3109099 1.3511807-4.3109099 3.0240711v1.1581549c0 1.3511807.9865765 2.2090732 1.844469 2.5307829l3.9892001 1.5442065c.8364452.3217097 1.780127.8364452 1.780127 1.9946001v1.5227592c0 1.2868388-.8149978 2.1876259-3.3457808 2.1876259-2.5093356 0-3.3028861-.9007871-3.3028861-2.1876259v-.9865764c0-.1930258-.0857893-.278815-.2573679-.278815h-.6219721c-.1715784 0-.2573677.0857892-.2573677.278815v1.1152603c0 1.6728903 1.0509184 3.0240711 4.4610411 3.0240711 3.4101228 0 4.4395937-1.3511808 4.4395937-3.0240711v-1.8873635c0-1.4584173-1.0723655-2.2734152-2.1447313-2.6809141l-4.1178839-1.5656539c-.5790775-.2144731-1.3511808-.7292086-1.3511808-1.8230216v-.7935506c0-1.2868387.7077614-2.1876259 3.1956496-2.1876259 2.4878884 0 3.1956496.9007872 3.1956496 2.1876259zm-20.1183437-5.57630134c.0785545 0 .1257028.06123921.1047791.13874128l-4.7523905 17.60314206c-.0206867.0766248-.1022572.1387414-.1796924.1387414h-.8035191c-.0785547 0-.1257028-.0612393-.1047793-.1387414l4.7523907-17.60314206c.0206867-.07662469.1022571-.13874128.1796922-.13874128zm1.5878654 13.44746514c0 1.6728903 1.0294711 3.0240711 4.461041 3.0240711 3.4530175 0 4.5039359-1.3511808 4.5039359-3.0240711v-8.8791875c0-1.6728904-1.0509184-3.0240711-4.5039359-3.0240711-3.4315699 0-4.461041 1.3511807-4.461041 3.0240711zm7.8068219-.1715785c0 1.3082861-.8364452 2.2090732-3.3457809 2.2090732-2.4878882 0-3.3243334-.9007871-3.3243334-2.2090732v-8.5360305c0-1.3082861.8364452-2.2090732 3.3243334-2.2090732 2.5093357 0 3.3457809.9007871 3.3457809 2.2090732zm-16.6216675-1.6299958c0-.3860516-.1286839-.5361828-.4932881-.5361828h-1.7801271c-.3860515 0-.5361827.1501312-.5361827.5361828v.8149979c0 1.0723657-.7506559 1.6085485-2.1876259 1.6085485s-2.1661786-.5361828-2.1661786-1.6085485v-6.9060347c0-1.0723657.7292086-1.6085485 2.1661786-1.6085485s2.1876259.5361828 2.1876259 1.6085485v.5147355c0 .3860516.1501312.5361828.5361827.5361828h1.7801271c.3646042 0 .4932881-.1501312.4932881-.5361828v-1.029471c0-1.8015743-1.1581548-3.495912-5.0401184-3.495912-3.8819637 0-5.0401186 1.6943377-5.0401186 3.495912v7.9355057c0 1.8015743 1.1581549 3.495912 5.0401186 3.495912 3.8819636 0 5.0401184-1.6943377 5.0401184-3.495912zm-17.3294287 4.589725c3.8819636 0 5.2331443-1.6943377 5.2331443-3.495912v-7.5923488c0-1.8015742-1.3511807-3.495912-5.2331443-3.495912h-4.6755142c-.3860517 0-.5147355.1715786-.5147355.5576302v13.4689124c0 .3646044.1072365.5576302.4503935.5576302zm0-12.1820737c1.4584173 0 2.3377571.5361828 2.3377571 1.6085485v6.5628777c0 1.0723656-.8793398 1.6085484-2.3377571 1.6085484h-2.2948625v-9.7799746z"/><path d="m2.10932535 19.2026779-1.98031875 1.9803187c-.1117106.1117107-.1117106.2927934 0 .4045041l14.0184648 14.0184648c.1117107.1117106.2927934.1117106.4045041 0l14.0184648-14.0184648c.1117106-.1117107.1117106-.2927934 0-.4045041l-1.9803576-1.9803576-11.4313102 11.431438c-.4467723.4467723-1.1712758.4467723-1.6180481 0zm12.44438735 2.3735501c-.1127194-.1127195-.2952448-.1127195-.4079643 0l-3.9192899 3.9192899c-.1125764.1125764-.1125764.2952449 0 .4079643l3.9192899 3.9191469c.1127195.1127194.2952449.1127194.4079643 0l3.9192899-3.9191469c.1125765-.1127194.1125765-.2953879 0-.4079643zm5.0483441-5.0483441c-.1125764-.1127194-.2952449-.1127194-.4079643 0l-3.9191469 3.9191469c-.1127194.1127194-.1127194.2953879 0 .4079643l3.9191469 3.9192899c.1127194.1125764.2953879.1125764.4079643 0l3.9192899-3.9192899c.1127195-.1125764.1127195-.2952449 0-.4079643zm-6.1775413 3.9191469-3.91914681-3.9191469c-.11271946-.1127194-.29538793-.1127194-.40796434 0l-3.91928989 3.9191469c-.11271946.1127194-.11271946.2953879 0 .4079643l3.91928989 3.9192899c.11257641.1125764.29524488.1125764.40796434 0l3.91914681-3.9192899c.1127195-.1125764.1127195-.2952449 0-.4079643zm.7212329-12.11619741c.1127195.11271945.2952449.11271945.4079643 0l3.9192899-3.91914685c.1125765-.11271946.1125765-.29538792 0-.40796434l-3.9192899-3.91928989c-.1127194-.11257641-.2952448-.11257641-.4079643 0l-3.9192899 3.91928989c-.1125764.11257642-.1125764.29524488 0 .40796434zm1.1291972 1.85157441 3.9191469 3.9192899c.1127194.1127195.2953879.1127195.4079643 0l3.9192899-3.9192899c.1127195-.1125764.1127195-.29524484 0-.4079643l-3.9192899-3.91914685c-.1125764-.11271945-.2952449-.11271945-.4079643 0l-3.9191469 3.91914685c-.1127194.11271946-.1127194.2953879 0 .4079643zm-6.17754125 3.9192899c.11257641.1127195.29524488.1127195.40796434 0l3.91914681-3.9192899c.1127195-.1125764.1127195-.29524484 0-.4079643l-3.91914681-3.91914685c-.11271946-.11271945-.29538793-.11271945-.40796434 0l-3.91928989 3.91914685c-.11271946.11271946-.11271946.2953879 0 .4079643zm19.47228645 1.296989-3.9191469-3.9192899c-.1127194-.1125764-.2953879-.1125764-.4079643 0l-3.9192899 3.9192899c-.1125764.1125764-.1125764.2952449 0 .4079644l3.9192899 3.9191468c.1125764.1127195.2952449.1127195.4079643 0l3.9191469-3.9191468c.1127194-.1127195.1127194-.295388 0-.4079644zm-14.4239424-3.9192899-3.9192899 3.9192899c-.1125764.1125764-.1125764.2952449 0 .4079644l3.9192899 3.9191468c.1127195.1127195.2952449.1127195.4079643 0l3.9192899-3.9191468c.1125765-.1127195.1125765-.295388 0-.4079644l-3.9192899-3.9192899c-.1127194-.1125764-.2952448-.1125764-.4079643 0zm-5.76957693 4.3272543-3.91928989 3.9191468c-.11257641.1127195-.29524488.1127195-.40796433 0l-3.91914685-3.9191468c-.11271946-.1127195-.11271946-.295388 0-.4079644l3.91914685-3.9192899c.11271945-.1125764.29538792-.1125764.40796433 0l3.91928989 3.9192899c.11257642.1125764.11257642.2952449 0 .4079644z"/></g></svg>