<svg height="21" viewBox="0 0 133 21" width="133" xmlns="http://www.w3.org/2000/svg" xmlns:xlink="http://www.w3.org/1999/xlink"><mask id="a" fill="#fff"><path d="m0 .09549474h132.234347v20.90450526h-132.234347" fill="#fff" fill-rule="evenodd"/></mask><mask id="b" fill="#fff"><path d="m0 .09549474h132.234347v20.90450526h-132.234347" fill="#fff" fill-rule="evenodd"/></mask><mask id="c" fill="#fff"><path d="m0 .09549474h132.234347v20.90450526h-132.234347z" fill="#fff" fill-rule="evenodd"/></mask><g fill="none" fill-rule="evenodd"><path d="m2.27686421 20.1222884c5.23784211-1.718021 13.04343159-1.2250737 18.36726319.8778-3.8436632-2.1048631-11.5599474-5.250221-18.36726319-.8778" fill="#098ccc" mask="url(#a)"/><path d="m8.25591789 10.2153063c-.01038947-.0371368-.02033684-.0738316-.0298421-.1107474.02298947.0773685.0382421.1200316.0382421.1200316s-.36827368-3.21609471 1.92271581-4.82270524c2.2916526-1.60616842 5.6806105-.62668421 5.6806105-.62668421s-3.5664631-2.10397894-6.24053683-.19496842c-.06498948.0462-.12666316.09394737-.18745263.14257895 1.13046316-1.35416842 2.84207366-2.21693684 4.75771576-2.21693684 1.9481369 0 3.6849474.89283158 4.8143053 2.28612631h2.5589053c-1.2571264-2.7682421-4.0722316-4.69648421-7.3431474-4.69648421-4.44293686 0-8.04432633 3.55651579-8.04432633 7.94396842 0 .49073685.04553684.97086316.13196842 1.43728421.72505263.06963158 1.39130526.33378948 1.9408421.73853683" fill="#098ccc"/><path d="m31.9243768 19.3591263c-5.5280842 1.3725158-10.0808842-1.6769052-17.2345894-3.9186-4.70709477-1.4750842-8.62215793.5685474-10.74978951 2.1391263-1.10592631.8165685-1.72929473 1.5053685-1.72929473 1.5053685 0 .029621.64326316-.3603158 1.72929473-.8185579 2.25584211-.9514106 6.42489471-2.1968211 10.73210531-.5910948 6.3817894 2.3789684 11.3992421 3.4283053 16.8457579 2.4923684 4.3443473-.7464947 5.8430842-3.6084631 6.2723684-4.7373789-.3797684.8996842-1.6718211 2.8876105-5.8658527 3.9287684" fill="#098ccc"/><path d="m37.79034 15.4304021c.1209158-.2862632.1500947-.4633263.1500947-.4633263s-.0411158.1768421-.1500947.4633263" fill="#098ccc"/><path d="m3.93999789 16.8874705c.39568422-.2672526.79998948-.5196947 1.16981053-.7115684-.1806-.1151684-.34992631-.2464737-.50245263-.3963474-.28405263-.2791894-.50156842-.5904315-.6673579-.9118421-.71709473-1.3886526-.46995789-2.9645368-.46995789-2.9645368s-1.21424211 2.7837158.46995789 4.4416105l.04354737.0428842c.0709579.066979.14567369.1297579.2221579.1878948-.09063158-.0431053-.17927369-.0897474-.26570527-.1392632-1.1214-.6448105-1.87496842-1.8442421-1.87496842-3.2176421 0-1.3738421.75356842-2.5737158 1.87496842-3.2183053.51217895-.29422102 1.10062106-.47261049 1.72907369-.49913681-.08267369-.4750421-.12577895-.96356842-.12577895-1.46182105 0-.29665263.01503158-.58998947.04465263-.87868421-.57495789.02564211-1.12781052.13307369-1.64794737.3108-2.2932.78429474-3.9400421 2.93513687-3.9400421 5.46641057 0 2.0387684 1.06878947 3.8310631 2.68291579 4.8605052.36451579-.2796316.80551579-.6052421 1.25712631-.9109579" fill="#098ccc" mask="url(#b)"/><path d="m21.9318695 16.4919853s3.4146 1.7480842 6.6256105 1.4633684 4.1865158-1.4226948 4.1865158-1.4226948-1.1786526 2.1747158-4.2678632 2.2967369c-3.0892105.122021-6.5442631-2.2558421-6.5442631-2.3374105" fill="#5fb0e2"/><path d="m19.3138105 5.44850526h2.8701474v2.86992632h-2.8701474z" fill="#5fb0e2" mask="url(#c)"/><path d="m30.7119474 13.4002105h2.2198105v2.2198106h-2.2198105z" fill="#0088cf" mask="url(#c)"/><path d="m22.7726211 2.81886316h3.8273052v3.8266421h-3.8273052z" fill="#5fb0e2" mask="url(#c)"/><path d="m33.8836105 9.44137895h3.8277474v3.82664215h-3.8277474z" fill="#0088cf" mask="url(#c)"/><path d="m26.9668737 6.93972632h2.1336v2.13337894h-2.1336z" fill="#5fb0e2" mask="url(#c)"/><path d="m28.3937684 11.1421579h2.1336v2.1331579h-2.1336z" fill="#5fb0e2" mask="url(#c)"/><path d="m23.9022 11.3548105h2.1338211v2.1336h-2.1338211z" fill="#0088cf" mask="url(#c)"/><path d="m31.3819579 7.01311579h2.1336v2.1336h-2.1336z" fill="#0088cf" mask="url(#c)"/><g fill="#098ccc"><path d="m52.7474905 11.2849137c0-.6695684-.0899684-1.2703895-.2701263-1.80224212-.1801579-.53185263-.4361368-.98191579-.7681579-1.35041053-.332021-.36849473-.7356631-.65122105-1.2111474-.8484-.4757052-.19695789-1.0115368-.29532631-1.6079368-.29532631h-2.3718947v8.59275786h2.3718947c.5964 0 1.1322316-.0983684 1.6079368-.2953263.4754843-.1969579.8791264-.4796842 1.2111474-.8484.3320211-.3684947.588-.8187789.7681579-1.3506316.1801579-.5318526.2701263-1.1324526.2701263-1.802021m2.3212737 0c0 .8946-.1492105 1.7164737-.4474105 2.4645158-.2982.7487052-.7175369 1.3928526-1.2575684 1.9333263-.5402527.5400316-1.1903685.9591474-1.9499053 1.2575684-.7597579.2984211-1.6010842.4471895-2.5237579.4471895h-4.6593474v-12.20542107h4.6593474c.9226737 0 1.764.15053684 2.5237579.45161053.7595368.30107368 1.4096526.72041052 1.9499053 1.25756842.5400315.5376.9593684 1.18042105 1.2575684 1.92890526s.4474105 1.56991576.4474105 2.46473686" mask="url(#c)"/><path d="m58.1074421 17.3875579h-2.0849684v-8.66040001h2.0849684zm.3123474-11.1841579c0 .18015789-.0366948.34904211-.1096421.50643158-.0731685.15761053-.1704316.29554737-.2913474.41358947-.1211368.11826316-.2630526.21243158-.4261895.28272632-.1633579.07051579-.3375473.10566316-.5234526.10566316-.1801579 0-.3501474-.03514737-.5106316-.10566316-.1602631-.07029474-.2995263-.16446316-.4177895-.28272632-.1180421-.1180421-.2124315-.25597894-.2827263-.41358947-.0702947-.15738947-.1054421-.32627369-.1054421-.50643158 0-.18568421.0351474-.35987368.1054421-.52323158.0702948-.16335789.1646842-.30394737.2827263-.42198947.1182632-.11826316.2575264-.21243158.4177895-.28294737.1604842-.07029474.3304737-.10544211.5106316-.10544211.1859053 0 .3600947.03514737.5234526.10544211.1631369.07051579.3050527.16468421.4261895.28294737.1209158.1180421.2181789.25863158.2913474.42198947.0729473.1633579.1096421.33754737.1096421.52323158z" mask="url(#c)"/><path d="m62.6147716 12.8463189c.2586316 0 .4838842-.0349263.6753158-.1054421.1912105-.0702947.3501473-.1673368.4768105-.2911263.1266632-.1237894.2221579-.2727789.2869263-.4474105.0647684-.1744105.0972632-.3658421.0972632-.5740737 0-.4275158-.1282106-.7666105-.3841895-1.0170631-.2562-.2502316-.6401684-.3757895-1.1521263-.3757895-.512179 0-.8961474.1255579-1.1521263.3757895-.2562.2504526-.3841895.5895473-.3841895 1.0170631 0 .2027053.0322737.3912632.0970421.5654526.0647684.1748527.1604842.3251685.2871474.4516106.1264421.1268842.2869263.2252526.4810105.2955473.1940842.0705158.4177895.1054421.6711158.1054421m2.2874526 4.9047158c0-.1722-.050621-.3130105-.1518631-.4219894-.1012422-.1092-.2394-.1938632-.4135895-.2542106-.1746316-.0605684-.3786632-.105-.6120948-.1337368-.2336526-.0285158-.4810105-.0431053-.7427368-.0431053h-.8103789c-.2785264 0-.5473264-.0309473-.8059579-.0928421-.2365264.1295369-.4264106.2827263-.5698737.4600106-.1434632.1772842-.2153053.3813157-.2153053.6120947 0 .1518631.0380211.294.1140632.4259684.075821.1324105.1969579.2464737.3629684.3419684.1657895.0957158.3810947.1702106.6456947.2237053.264379.0534947.588.0802421.9706421.0802421.3881685 0 .7230632-.0300632 1.0044632-.0904105.2814-.0603474.5135053-.1436842.6963158-.2500106.1830316-.1063263.3167684-.2325473.4009895-.3793263.0844421-.1465579.1266631-.3059368.1266631-.4783579m-2.2874526-9.17567365c.3713684 0 .7201895.0378 1.0466842.11384211.3262737.0760421.6246947.18723158.8946.33356842h2.4901579v.77655789c0 .12953685-.0338211.23077893-.1014632.30394733-.0672.0731685-.1828105.1235685-.3459473.1516421l-.7765579.1436843c.0561473.1463368.0999158.3010736.1308631.4642105.0309474.1633579.0464211.3348947.0464211.5148316 0 .4277368-.0857684.8145789-.2575263 1.1605263-.1715369.3461684-.4080632.6403895-.7089158.882221-.3010737.2418316-.6585158.4290632-1.0721053.5614737-.4135895.1319684-.8623263.1980632-1.3462105.1980632-.3264948 0-.6443684-.0305053-.9538421-.0928421-.2701263.1644631-.4051895.348821-.4051895.5526315 0 .1759579.0802421.3048316.2405053.3870632.1604842.0820105.3715894.1401474.6330947.1741895.2617263.0342631.5586.0510631.8904.0510631.3322421 0 .6726632.0141474 1.0214842.0422211.3488211.0282947.6892421.0778105 1.0214842.1483263.3318.0705158.6286737.1819263.8904.3346737.2617263.1523053.4726105.3598737.6328737.6222631.1604842.2626106.2407263.5999369.2407263 1.011979 0 .3839684-.0941684.7564421-.2827263 1.1178632-.1887789.3612-.4613368.6830526-.8187789.9653368-.3574421.2820632-.7949053.5095263-1.3126106.6817263-.5177052.1722-1.1085789.2584105-1.772621.2584105-.6582948 0-1.2294948-.0634421-1.713379-.1898842-.4841052-.1268842-.8850947-.2955473-1.2029684-.5064316-.3178737-.2111052-.5557263-.4547052-.7131158-.7303578-.1576105-.2756527-.2365263-.562579-.2365263-.861 0-.4051895.1240105-.7456106.3715895-1.0212632.2475789-.2756526.5908737-.4951579 1.0296631-.6582947-.2137579-.1180421-.3855158-.2756527-.5148315-.4728316-.1295369-.1969579-.1940843-.4529369-.1940843-.7681579 0-.1290948.0223264-.2628316.0674211-.4007684.0450947-.1379369.1140632-.2743264.2069053-.4096106.0928421-.1348421.2095579-.2628315.3501473-.3839684.1408106-.1209158.3068211-.2292316.4982527-.3249474-.4390106-.2363052-.7838527-.5515263-1.0340842-.9454421-.2504527-.3936947-.3757895-.8552526-.3757895-1.3842315 0-.4275158.0857684-.8143579.2575263-1.1607474.1715368-.34594737.4107158-.64127369.7175368-.88620001.3066-.24470526.6695685-.43171578 1.0889053-.56125263.4191158-.12931579.8762526-.19408421 1.3716316-.19408421" mask="url(#c)"/><path d="m69.7299474 17.3875579h-2.0849685v-8.66040001h2.0849685zm.3125684-11.1841579c0 .18015789-.0366947.34904211-.1100842.50643158-.0729474.15761053-.1699895.29554737-.2909053.41358947-.1209158.11826316-.2630526.21243158-.4261895.28272632-.1635789.07051579-.3375473.10566316-.5232315.10566316-.180379 0-.3505895-.03514737-.5108527-.10566316-.1604842-.07029474-.2995263-.16446316-.4177894-.28272632-.1182632-.1180421-.2124316-.25597894-.2827264-.41358947-.0705157-.15738947-.1054421-.32627369-.1054421-.50643158 0-.18568421.0349264-.35987368.1054421-.52323158.0702948-.16335789.1644632-.30394737.2827264-.42198947.1182631-.11826316.2573052-.21243158.4177894-.28294737.1602632-.07029474.3304737-.10544211.5108527-.10544211.1856842 0 .3596526.03514737.5232315.10544211.1631369.07051579.3052737.16468421.4261895.28294737.1209158.1180421.2179579.25863158.2909053.42198947.0733895.1633579.1100842.33754737.1100842.52323158z" mask="url(#c)"/><path d="m74.0856568 17.5227316c-.7487052 0-1.3252105-.2124316-1.7304-.6375158-.4051894-.4246421-.6078947-1.0113158-.6078947-1.7598v-4.8366316h-.8778c-.1127368 0-.2097789-.0364737-.2911263-.1098631-.0815684-.0729474-.1224632-.18281057-.1224632-.32892636v-.8274l1.3928527-.22768421.4387894-2.36349474c.0225474-.11251579.0744948-.19983158.1560632-.26172632.0815684-.06189473.1843579-.0928421.3083684-.0928421h1.0802842v2.72646316h2.2790527v1.48547367h-2.2790527v4.6931684c0 .2701263.0674211.4812316.2027053.6330948.1350631.1520842.315.2276842.5400316.2276842.1295368 0 .2376315-.0152527.3251684-.0464211.0870947-.0307263.1631368-.063221.2279053-.096821.0645473-.0338211.1224631-.0660948.1728631-.0972632.0508421-.0307263.1012421-.0462.1520842-.0462.0618948 0 .1122948.0154737.1518632.0462.0393473.0311684.0813473.0775895.1264421.1392632l.6249158 1.0128631c-.3039474.2533263-.6529895.4447579-1.0469053.5740737-.3939158.1295369-.8017579.1943053-1.2237474.1943053" mask="url(#c)"/><path d="m79.6648705 16.0876137c.213979 0 .4107158-.0192316.5908737-.0581369.1799369-.0386842.3503684-.096821.5106316-.1744105.1604842-.0775895.315221-.1730842.4644316-.2867052.1489894-.1134.2995263-.2480211.4513894-.402979v-1.4494421c-.6076736 0-1.1156526.0380211-1.5234947.1145053-.4080632.0767052-.7358842.1744105-.9834632.2933368-.2475789.1191474-.4233157.2579684-.5274315.4166842s-.1562842.331579-.1562842.5185895c0 .3684947.1085368.6319895.3251684.7907053.2166316.1587157.4993579.2378526.8481789.2378526zm4.0516737 1.3000105h-.936821c-.197179 0-.3519158-.029621-.4644316-.0886421-.1127369-.059021-.1969579-.1786105-.2531053-.3587684l-.1856842-.6162948c-.2195053.197179-.4348105.3702632-.6456947.5192527-.2111053.1492105-.4292842.2743263-.6543158.3755684-.2252527.1012421-.4642105.1772842-.7173158.2279053-.2533263.050621-.5347263.0760421-.8444211.0760421-.365621 0-.7031684-.0492948-1.0128631-.1481053-.3094737-.0988105-.575179-.2471368-.7975579-.4445368-.222379-.1976211-.3952421-.4432106-.5192526-.7367685-.1235685-.2935579-.1854632-.6353052-.1854632-1.025021 0-.3276.0855474-.6505579.2575263-.9697579.1715369-.3187579.4569158-.6067895.8568-.8636526.3992211-.2568632.9310737-.470179 1.5951158-.6395053.6638211-.1693263 1.4883474-.2539895 2.4731368-.2539895v-.5104105c0-.5840211-.1224631-1.0164-.3669473-1.2971368-.2449263-.2805158-.6008211-.4208843-1.0679053-.4208843-.3377684 0-.6191684.0395685-.8442.1180422-.2250316.0791368-.4206631.1675578-.5864526.2659263-.1662316.0985894-.3194211.1872315-.4600105.2659263-.1408106.0789158-.2955474.1180421-.4644316.1180421-.1405895 0-.2615053-.0364737-.3627474-.1096421-.1014632-.0731684-.1830316-.1631369-.2449263-.2699053l-.3797684-.66691577c.9960631-.91162105 2.1972631-1.36743158 3.6040421-1.36743158.5064316 0 .9580421.08311579 1.3548316.24890527.3967894.16601052.7330105.39678947 1.0088842.69211579.2756526.29554736.4852105.64878949.6286736 1.05928419.1436843.4109369.2153053.861.2153053 1.3506316z" mask="url(#c)"/><path d="m87.1435895 17.3875579h-2.0849684v-12.54318948h2.0849684z" mask="url(#c)"/><path d="m98.1503968 11.2849137c0-.6695684-.088421-1.2703895-.2657052-1.80224212-.1772842-.53185263-.4319369-.98324211-.7639579-1.35461053-.3320211-.37136842-.7356632-.6556421-1.2113684-.8526-.4754842-.19695789-1.0115369-.29554737-1.6079369-.29554737s-1.134.09858948-1.6121368.29554737c-.4783579.1969579-.8850948.48123158-1.2197684.8526-.3348948.37136842-.5922.8227579-.7723579 1.35461053-.1801579.53185262-.2701264 1.13267372-.2701264 1.80224212s.0899685 1.2701684.2701264 1.802021c.1801579.5318527.4374631.9821369.7723579 1.3506316.3346736.3687158.7414105.6514421 1.2197684.8484.4781368.1969579 1.0157368.2953263 1.6121368.2953263s1.1324527-.0983684 1.6079369-.2953263c.4757052-.1969579.8793473-.4796842 1.2113684-.8484.332021-.3684947.5866737-.8187789.7639579-1.3506316.1772842-.5318526.2657052-1.1324526.2657052-1.802021m2.3296742 0c0 .8946-.149211 1.7233263-.44719 2.4857368-.298421.7626316-.7175368 1.4224737-1.2577894 1.9793053-.5402527.5572737-1.1901474.9920842-1.9496842 1.3042105-.759979.3123474-1.6010842.4686316-2.523979.4686316-.9228947 0-1.7655473-.1562842-2.5281789-.4686316-.7624106-.3121263-1.415179-.7469368-1.9580842-1.3042105-.5431264-.5568316-.9635685-1.2166737-1.2619895-1.9793053-.2984211-.7624105-.4474105-1.5911368-.4474105-2.4857368 0-.8948211.1489894-1.72332633.4474105-2.48595791.298421-.76241053.7188631-1.42225263 1.2619895-1.97930526.5429052-.55705264 1.1956736-.99186316 1.9580842-1.30421053.7626316-.31234737 1.6052842-.46841053 2.5281789-.46841053.9228948 0 1.764.15761053 2.523979.47261053.7595368.31522105 1.4094315.75003158 1.9496842 1.30421053.5402526.5544.9593684 1.21269473 1.2577894 1.97510526.297979.76263158.44719 1.59113681.44719 2.48595791" mask="url(#c)"/><path d="m107.39316 10.5589326c-.061895.0786948-.122463.1408106-.181263.1856842-.059242.0450948-.145232.0674211-.257526.0674211-.10699 0-.211106-.0322737-.312569-.0970421-.101242-.0645474-.222158-.1377158-.362747-.2192842-.140811-.0815684-.308148-.1547369-.502232-.2195053-.194305-.0645474-.434589-.0972631-.721737-.0972631-.365842 0-.686589.0663157-.962242.1985052-.275873.1321895-.505105.3222948-.687916.5698737-.18281.247579-.319421.5471053-.409389.8988-.09019.3516947-.135063.7500316-.135063 1.1945684 0 .4613369.049295.8722737.147663 1.2323684.098368.3600948.240726.6624948.42641.9072.185685.2449264.410495.4306106.675095.5572737.2646.1264421.562579.1896632.894821.1896632.332021 0 .6006-.0404526.806179-.1224632.205137-.0813473.378442-.1713158.519032-.2699052.140589-.0985895.263052-.1885579.367389-.2701263.103895-.0815685.220611-.1224632.349927-.1224632.168884 0 .295547.0647684.379989.1940842l.599274.7597579c-.230779.2701263-.481232.4967053-.751137.6795158-.270126.1830316-.5502.3291474-.84.4387895-.2898.1098631-.589547.1872315-.8988.2323263-.309695.0448737-.616295.0676421-.920242.0676421-.534727 0-1.038063-.1001369-1.510895-.2999684-.47261-.1996106-.884874-.4907369-1.236347-.8736-.351916-.3824211-.630442-.8508316-.8358-1.4052316-.205358-.554179-.308148-1.1859474-.308148-1.8948632 0-.6359684.091516-1.2252947.274327-1.768421.18281-.5431263.45161-1.0128632.806179-1.40965266.354568-.39678947.793357-.70758947 1.31681-.9328421.523232-.22503158 1.125379-.33754737 1.806442-.33754737.6468 0 1.214021.10411579 1.700779.31234737.486537.20823158.924221.50643158 1.31239.8946z" mask="url(#c)"/><path d="m112.136927 10.0863884c-.607673 0-1.083379.1715369-1.426452.5148316-.343516.3432947-.5628.8300526-.658516 1.4602737h3.91661c0-.2701263-.036694-.5245579-.109642-.7639579-.073389-.2389579-.185905-.4487369-.337768-.6288947-.151863-.1801579-.343295-.3220737-.573853-.4261895-.231-.1041158-.501126-.1560632-.810379-.1560632m-.042221-1.49409472c.545779 0 1.048011.08731579 1.506695.26150527.458463.17463158.853705.42928421 1.185947.76395789.3318.33489474.590874.74583156.776558 1.23236846.185685.4867579.278527 1.0424842.278527 1.6671789 0 .1576105-.007295.2884737-.021.3925895-.014369.1038947-.039569.1854631-.076042.2447052-.036695.0588-.085769.1012422-.147885.1264422-.061894.0252-.140368.038021-.236084.038021h-5.351684c.061895.8892947.301074 1.5420632.717537 1.9583053.416463.4164631.967768.6246947 1.654358.6246947.337768 0 .628894-.0393474.873821-.1182632.244705-.0786947.458463-.1660105.641273-.2615052.182811-.0957158.343295-.1828105.481232-.2619474.137937-.0784737.271453-.1180421.400989-.1180421.084443 0 .15739.0168.219285.0508421.062115.0336.115389.0815684.160484.1432421l.607674.7597579c-.230779.2701263-.489411.4967053-.776558.6795158-.286927.1830316-.586453.3291474-.8988.4387895-.312348.1098631-.630442.1872316-.954064.2323263-.3234.0448737-.637073.0676421-.9408.0676421-.602368 0-1.162294-.1003579-1.68-.2999684-.517705-.1996105-.967768-.4949369-1.35041-.8862-.382863-.3910421-.683716-.8749263-.903221-1.4518737-.219505-.5765053-.329369-1.2449684-.329369-2.0045053 0-.5908737.095716-1.1466.287148-1.6671789.19121-.520579.465758-.9735158.822979-1.35903159.357221-.38529474.793579-.69056843 1.30841-.91582106.514832-.22503158 1.095758-.33754737 1.743-.33754737" mask="url(#c)"/><path d="m119.42952 16.0876137c.213979 0 .410716-.0192316.590874-.0581369.179937-.0386842.350368-.096821.510631-.1744105.160484-.0775895.315221-.1730842.464432-.2867052.148989-.1134.299526-.2480211.451389-.402979v-1.4494421c-.607673 0-1.115652.0380211-1.523494.1145053-.408064.0767052-.735885.1744105-.983464.2933368-.247579.1191474-.423315.2579684-.527431.4166842s-.156284.331579-.156284.5185895c0 .3684947.108536.6319895.325168.7907053.216632.1587157.499358.2378526.848179.2378526zm4.051674 1.3000105h-.936821c-.197179 0-.351916-.029621-.464432-.0886421-.112737-.059021-.196958-.1786105-.253105-.3587684l-.185684-.6162948c-.219506.197179-.434811.3702632-.645695.5192527-.211105.1492105-.429284.2743263-.654316.3755684-.225253.1012421-.46421.1772842-.717316.2279053-.253326.050621-.534726.0760421-.8442.0760421-.365842 0-.703389-.0492948-1.012863-.1481053-.309695-.0988105-.5754-.2471368-.797779-.4445368-.222379-.1976211-.395242-.4432106-.519031-.7367685-.12379-.2935579-.185685-.6353052-.185685-1.025021 0-.3276.085548-.6505579.257527-.9697579.171537-.3187579.456915-.6067895.8568-.8636526.399221-.2568632.931294-.470179 1.595115-.6395053.663822-.1693263 1.488348-.2539895 2.473137-.2539895v-.5104105c0-.5840211-.122463-1.0164-.366947-1.2971368-.244926-.2805158-.600821-.4208843-1.067905-.4208843-.337769 0-.619169.0395685-.8442.1180422-.225032.0791368-.420663.1675578-.586453.2659263-.166232.0985894-.319421.1872315-.46001.2659263-.140811.0789158-.295548.1180421-.464432.1180421-.14059 0-.261505-.0364737-.362747-.1096421-.101464-.0731684-.183032-.1631369-.244927-.2699053l-.379768-.66691577c.996063-.91162105 2.197263-1.36743158 3.604042-1.36743158.506432 0 .958042.08311579 1.354832.24890527.396789.16601052.73301.39678947 1.008884.69211579.275652.29554736.48521.64878949.628673 1.05928419.143685.4109369.215306.861.215306 1.3506316z" mask="url(#c)"/><path d="m124.688141 17.3876021v-8.66039999h1.274811c.269905 0 .447189.12666315.531631.37976842l.143463.68393684c.17419-.1801579.358769-.34329474.552853-.48963158s.399663-.27277895.616074-.37976842c.216852-.10698948.448958-.1885579.696536-.24492632.247579-.05614737.517706-.0844421.810379-.0844421.472832 0 .891727.0802421 1.257569.24072631.365842.16026316.671116.38529474.916042.67509474.244484.29002105.430389.6359684.556832 1.0382842.126884.4023158.190105.8455263.190105 1.3294105v5.5119474h-2.084969v-5.5119474c0-.5287579-.122463-.9383684-.367168-1.2279473-.244926-.2900211-.612095-.4348106-1.101505-.4348106-.360095 0-.697863.0815685-1.013085.2447053-.315.1633579-.6132.3857368-.8946.6669158v6.2630842z" mask="url(#c)"/></g></g></svg>