<svg height="28" viewBox="0 0 120 28" width="120" xmlns="http://www.w3.org/2000/svg" xmlns:xlink="http://www.w3.org/1999/xlink"><mask id="a" fill="#fff"><path d="m0 .03982609h119.116696v27.96017391h-119.116696z" fill="#fff" fill-rule="evenodd"/></mask><mask id="b" fill="#fff"><path d="m0 .03982609h119.116696v27.96017391h-119.116696z" fill="#fff" fill-rule="evenodd"/></mask><g fill="none" fill-rule="evenodd"><path d="m28.7134957 8.86906087h4.4511304v4.51321743h2.2516522c1.0393043 0 2.1081739-.1836522 3.0928695-.5147826.4836522-.1622609 1.0259131-.3885218 1.5036522-.6730435-.6285217-.8139131-.9492174-1.8413913-1.0438261-2.85391307-.1278261-1.3773913.1514783-3.17078261 1.0918261-4.24869565l.468-.53686957.5573913.44486957c1.4043478 1.11895652 2.5846957 2.6813913 2.7926957 4.46330435 1.6909565-.49286957 3.6751304-.37634783 5.165913.47634782l.6107826.34956525-.321913.6229565c-1.26 2.4387826-3.8942609 3.1949565-6.4702609 3.0608696-3.854087 9.52-12.2448696 14.0271304-22.4187826 14.0271304-5.2565218 0-10.0791304-1.9486957-12.82486958-6.5725217l-.04521739-.0765218-.39982609-.8067826c-.92817391-2.036-1.23669565-4.2664348-1.02730434-6.4946087l.06243478-.6673043h3.80695652v-4.51321743h4.4513043v-4.41408696h8.9029566v-4.41530434h5.3424348z" fill="#394d54" mask="url(#a)"/><path d="m43.1362957 10.5390609c.2984347-2.3008696-1.4375653-4.10800003-2.5146087-4.96556525-1.2408696 1.42226087-1.4337392 5.15026085.5126956 6.72000005-1.0860869.9568695-3.3746087 1.8243478-5.7180869 1.8243478h-28.53043483c-.22765217 2.425913.20191304 4.6601739 1.18278261 6.5732174l.32452174.5885217c.2053913.3462609.42991304.6801739.67286956 1.0010435 1.17286952.0746087 2.25426092.1001739 3.24330432.0793043h.0005218c1.944-.0431304 3.5306087-.2704347 4.7333913-.6843478.1793043-.0615652.3735652.0332174.4356521.2102609.0622609.1770435-.0325217.3711304-.2111304.4323478-.1596522.0549565-.3267826.1057391-.4989565.1554783h-.0008696c-.9464348.268-1.961913.4485217-3.2714782.528.0772174.0015652-.0806957.0121739-.0813913.0121739-.0445218.0027826-.1005218.0086956-.1453913.0111304-.5156522.0292174-1.0718261.0353044-1.6406957.0353044-.6224348 0-1.2351304-.012-1.92-.0464348l-.01773913.0111304c2.37756523 2.650087 6.09408693 4.2387826 10.75339133 4.2387826 9.86 0 18.2238261-4.3342608 21.9269565-14.0666087 2.6276522.2674783 5.1532174-.3965217 6.3022609-2.6205217-1.8299131-1.04695653-4.1831305-.71304349-5.5375652-.0375652" fill="#00aada"/><path d="m43.1362957 10.5390609c.2984347-2.3008696-1.4375653-4.10800003-2.5146087-4.96556525-1.2408696 1.42226087-1.4337392 5.15026085.5126956 6.72000005-1.0860869.9568695-3.3746087 1.8243478-5.7180869 1.8243478h-26.84086961c-.11669566 3.7151304 1.27373913 6.536 3.73391301 8.2420869h.0005218c1.944-.0431304 3.5306087-.2704347 4.7333913-.6843478.1793043-.0615652.3735652.0332174.4356521.2102609.0622609.1770435-.0325217.3711304-.2111304.4323478-.1596522.0549565-.3267826.1057391-.4989565.1554783h-.0008696c-.9464348.268-2.0486956.4713043-3.3586087.5513043-.0008695 0-.0318261-.029913-.0318261-.029913 3.3553044 1.7067826 8.2210435 1.7008695 13.800174-.4238261 6.2549565-2.3833044 12.0756521-6.9238261 16.1366956-12.1168696-.0606956.0281739-.1206956.0554783-.1780869.0846957" fill="#24b8ec"/><path d="m6.93963478 17.0655478c.17686957 1.3001739.56034783 2.5170435 1.12904348 3.6255652l.32452174.5883479c.2053913.3464348.42991304.6803478.67286957 1.0010434 1.17286953.0747827 2.25426083.100174 3.24382613.0793044 1.944-.0431304 3.5306086-.2702609 4.7333913-.6841739.1791304-.0617391.3735652.0330435.4354782.2102609.0624348.1768695-.0325217.3711304-.2109565.4321739-.1596522.0551304-.3267826.105913-.4989565.1556521h-.0008696c-.9466087.268-2.0433043.4598261-3.3530435.54-.0445217.0029566-.1229565.0034783-.1685217.0055653-.5149565.0288695-1.066087.0466087-1.6346087.0466087-.6222609 0-1.2586087-.0116522-1.94365218-.0466087 2.37739128 2.6502608 6.11721738 4.2445217 10.77634778 4.2445217 8.4417392 0 15.7852174-3.1773913 20.048-10.1982609z" fill="#008bb8"/><path d="m8.83238261 17.0655478c.50452174 2.2824348 1.71739129 4.0733913 3.47756519 5.2942609 1.944-.0431304 3.5306087-.2702609 4.7333913-.6841739.1791305-.0617391.3733913.0330435.4354783.2102609.0624348.1768695-.0325217.3711304-.2109565.4321739-.1596522.0551304-.3267826.105913-.4989566.1556521h-.0008695c-.9466087.268-2.0664348.4598261-3.3761739.54 3.3553043 1.7071305 8.2071304 1.6822609 13.785913-.4426087 3.3742609-1.2862608 6.6219131-3.199826 9.5361739-5.5055652z" fill="#039bc6"/><path d="m10.7584348 9.60469565h3.8577391v3.82643475h-3.8577391zm.3212174.31913044h.3046956v3.18886961h-.3046956zm.5721739 0h.3168696v3.18886961h-.3168696zm.5848696 0h.3166956v3.18886961h-.3166956zm.5845217 0h.3170435v3.18886961h-.3170435zm.5845217 0h.3166957v3.18886961h-.3166957zm.5843479 0h.3050434v3.18886961h-.3050434z" fill="#00acd3" mask="url(#b)"/><path d="m15.2097391 5.19026087h3.8584348v3.82626087h-3.8584348zm.3217392.31878261h.3043478v3.18852174h-.3043478zm.5728695 0h.3165218v3.18852174h-.3165218zm.5834783 0h.3170435v3.18852174h-.3170435zm.5850435 0h.3163478v3.18852174h-.3163478zm.5848695 0h.3166957v3.18852174h-.3166957zm.5843479 0h.3048695v3.18852174h-.3048695z" fill="#00acd3" mask="url(#b)"/><path d="m15.2097391 9.60469565h3.8584348v3.82643475h-3.8584348zm.3217392.31913044h.3043478v3.18886961h-.3043478zm.5728695 0h.3165218v3.18886961h-.3165218zm.5834783 0h.3170435v3.18886961h-.3170435zm.5850435 0h.3163478v3.18886961h-.3163478zm.5848695 0h.3166957v3.18886961h-.3166957zm.5843479 0h.3048695v3.18886961h-.3048695z" fill="#1fc2ef" mask="url(#b)"/><path d="m19.6617391 9.60469565h3.8582609v3.82643475h-3.8582609zm.3210435.31913044h.3046957v3.18886961h-.3046957zm.5726957 0h.3166956v3.18886961h-.3166956zm.5850434 0h.3165218v3.18886961h-.3165218zm.5845218 0h.3165217v3.18886961h-.3165217zm.5838261 0h.3170434v3.18886961h-.3170434zm.5850434 0h.3045218v3.18886961h-.3045218z" fill="#00acd3" mask="url(#b)"/><path d="m19.6617391 5.19026087h3.8582609v3.82626087h-3.8582609zm.3210435.31878261h.3046957v3.18852174h-.3046957zm.5726957 0h.3166956v3.18852174h-.3166956zm.5850434 0h.3165218v3.18852174h-.3165218zm.5845218 0h.3165217v3.18852174h-.3165217zm.5838261 0h.3170434v3.18852174h-.3170434zm.5850434 0h.3045218v3.18852174h-.3045218z" fill="#1fc2ef" mask="url(#b)"/><path d="m24.1133913 9.60469565h3.8582609v3.82643475h-3.8582609zm.3212174.31913044h.3048696v3.18886961h-.3048696zm.5728696 0h.3166956v3.18886961h-.3166956zm.5845217 0h.3165217v3.18886961h-.3165217zm.5846957 0h.3165217v3.18886961h-.3165217zm.5843478 0h.3168695v3.18886961h-.3168695zm.5845217 0h.3050435v3.18886961h-.3050435z" fill="#1fc2ef" mask="url(#b)"/><path d="m24.1133913 5.19026087h3.8582609v3.82626087h-3.8582609zm.3212174.31878261h.3048696v3.18852174h-.3048696zm.5728696 0h.3166956v3.18852174h-.3166956zm.5845217 0h.3165217v3.18852174h-.3165217zm.5846957 0h.3165217v3.18852174h-.3165217zm.5843478 0h.3168695v3.18852174h-.3168695zm.5845217 0h.3050435v3.18852174h-.3050435z" fill="#00acd3" mask="url(#b)"/><path d="m24.1133913.77530435h3.8582609v3.82626087h-3.8582609zm.3212174.31843478h.3048696v3.18904348h-.3048696zm.5728696 0h.3166956v3.18904348h-.3166956zm.5845217 0h.3165217v3.18904348h-.3165217zm.5846957 0h.3165217v3.18904348h-.3165217zm.5843478 0h.3168695v3.18904348h-.3168695zm.5845217 0h.3050435v3.18904348h-.3050435z" fill="#1fc2ef" mask="url(#b)"/><path d="m28.5650435 9.60469565h3.8577391v3.82643475h-3.8577391zm.3215652.31913044h.3041739v3.18886961h-.3041739zm.5725217 0h.3161739v3.18886961h-.3161739zm.5843479 0h.3166956v3.18886961h-.3166956zm.5841739 0h.3166956v3.18886961h-.3166956zm.5850435 0h.3165217v3.18886961h-.3165217zm.5845217 0h.3045217v3.18886961h-.3045217z" fill="#00acd3" mask="url(#b)"/><path d="m18.8268522 19.6350261c.5878261 0 1.0646956.4725217 1.0646956 1.0549565 0 .5836522-.4768695 1.0558261-1.0646956 1.0558261-.5881739 0-1.0643479-.4721739-1.0643479-1.0558261 0-.5824348.476174-1.0549565 1.0643479-1.0549565" fill="#d4edf1" mask="url(#b)"/><path d="m18.8268522 19.9335826c.0972174 0 .189913.0189565.2754782.0516522-.0925217.0532174-.1553043.1532174-.1553043.2671304 0 .1704348.1391304.3083478.3111304.3083478.1177392 0 .22-.0643478.2725218-.1605217.0375652.0893913.057913.1869565.057913.289913 0 .4175653-.3410435.7563479-.7617391.7563479-.4210435 0-.7626087-.3387826-.7626087-.7563479 0-.4172173.3415652-.7565217.7626087-.7565217" fill="#394d54" mask="url(#b)"/><path d="m0 17.4471826h23.3154783 2.8833043 23.3147826c-1.0786087-.2714783-3.4114782-.6373913-3.0264348-2.0387826-1.9603478 2.249913-6.6883478 1.5782609-7.8813913.4692174-1.3281739 1.9111304-9.0633043 1.1845217-9.6024348-.3043478-1.6655652 1.9386087-6.8271304 1.9386087-8.4932173 0-.5396522 1.4888695-8.2737392 2.2154782-9.6024348.3043478-1.19356524 1.1090435-5.92086959 1.7806956-7.8810435-.4692174.38452173 1.4013913-1.94834783 1.7673043-3.0266087 2.0387826" fill="#394d54" mask="url(#b)"/><path d="m21.6563478 27.2413391c-2.636-1.2406956-4.0831304-2.9262608-4.8883478-4.7676521-.9789565.2772173-2.1558261.4540869-3.5234783.5304347-.5154782.0290435-1.0568695.0429566-1.6255652.0429566-.6558261 0-1.3466087-.0194783-2.07147824-.0572174 2.41721744 2.396 5.39060874 4.2405217 10.89704344 4.273913.406087 0 .8102609-.0073043 1.2118261-.0224348" fill="#bfdbe0" mask="url(#b)"/><path d="m17.747287 24.1722087c-.3648696-.4907826-.7182609-1.1078261-.9784348-1.6986087-.9798261.2772174-2.1566957.4542609-3.5243479.5304348.9391305.5057391 2.2831305.9740869 4.5027827 1.1681739" fill="#d4edf1" mask="url(#b)"/><path d="m61.6276348 12.3819652v-4.2975652c0-.56469565.3556522-1.01895652.9452174-1.01895652h.1631304c.5895652 0 .9438261.45426087.9438261 1.01895652v9.0478261c0 2.2060869-1.0993044 3.9617391-3.0142609 5.0805217-.8883478.5173913-1.869913.7836522-2.8996521.7836522h-.4067827c-2.2246956 0-3.9928695-1.0907826-5.121913-2.9892174-.5245217-.8812174-.7909565-1.8532174-.7909565-2.8749565v-.4038261c0-2.2064348 1.0993043-3.9608696 3.0135652-5.0815652.8888696-.5203478 1.8688696-.7845218 2.8993043-.7845218h.4067827c1.5060869 0 2.7843478.5787827 3.8617391 1.5196522zm-8.1295652 4.5481739c0 1.5942609.7791304 2.7914783 2.1878261 3.5565218.5690434.3083478 1.1873043.4742608 1.8372173.4742608 1.5772174 0 2.7471305-.7375652 3.5542609-2.0636521.3749565-.6165218.5502609-1.2913044.5502609-2.0086957 0-1.3813913-.6598261-2.4594782-1.7824348-3.2598261-.6801739-.4862608-1.4466087-.7293913-2.2822609-.7293913-1.7194782 0-2.9568695.8610435-3.6998261 2.3918261-.2504347.5170435-.3650434 1.066087-.3650434 1.6389565zm17.3013913-6.0678261h.2846956c2.3779131 0 4.1859131 1.144174 5.332 3.2027827.4582609.8233043.7033044 1.7220869.7033044 2.6633043v.4038261c0 2.2060869-1.0968696 3.9645217-3.0146087 5.0805217-.8885218.5163479-1.8699131.7836522-2.8989565.7836522h-.4064348c-2.2250435 0-3.9932174-1.0907826-5.1226087-2.9892174-.524-.8812174-.7909565-1.8532174-.7909565-2.8749565v-.4038261c0-2.2064348 1.1041739-3.9558261 3.0123478-5.0812174.888-.5229565 1.869913-.7848696 2.9012174-.7848696zm-3.8619131 6.0678261c0 1.5469566.7662609 2.6848696 2.0843479 3.4848696.6177391.3761739 1.2991304.545913 2.0226086.545913 1.5408696 0 2.68-.7747826 3.4735653-2.0653913.3780869-.6147826.5488695-1.2906087.5488695-2.0069565 0-1.4389565-.6982608-2.5370435-1.8928695-3.3337391-.6544348-.4368696-1.3829566-.6554783-2.1713044-.6554783-1.7194782 0-2.9568695.8610435-3.6989565 2.3918261-.2516522.5170435-.3662609 1.066087-.3662609 1.6389565zm18.7130435-3.8685217c-.3090435-.1436522-.8892174-.1913044-1.224-.204-1.7146087-.0641739-2.9551304.8935652-3.6834783 2.3933913-.2509565.5172174-.3650434 1.0652174-.3650434 1.6375652 0 1.7436522.9222608 2.964 2.492 3.708.5728695.2711304 1.3125217.3229565 1.9389565.3229565.5511304 0 1.329913-.3344347 1.8187826-.5648695l.0845217-.0394783h.3791305l.041913.008c.4674783.0966957.8193044.3899131.8193044.8876522v.201913c0 1.2386087-2.2838261 1.5231305-3.1551305 1.5826087-3.0747826.2113044-5.3742608-1.4634782-6.2514782-4.3718261-.1525218-.5055652-.2206957-1.0069565-.2206957-1.5330434v-.4033044c0-2.2067826 1.1036522-3.9551304 3.0128696-5.0793043.8885217-.5229566 1.8695652-.7853913 2.9006956-.7853913h.4066087c1.0937392 0 2.1015652.308 3.0045218.919826l.0747826.0507827.045913.0763478c.0977391.1605217.1819131.3460869.1819131.5370435v.2013913c0 .5196521-.392174.7986087-.8652174.8890434l-.0389566.0064348h-.1210434c-.3066087 0-1.0026087-.3137391-1.2768696-.4417391zm6.6577391 1.3784348c.7966957-.7918261 1.5972174-1.5815652 2.4062609-2.3603479.2250435-.2170434 1.0787826-1.1365217 1.4146087-1.1365217h.3681739l.0412174.0086957c.4685217.0963478.8196522.3902608.8196522.8890434v.202087c0 .34-.4022609.7356522-.6238261.9685217-.4718261.4956522-.968.9749566-1.4506087 1.4606957l-2.4789565 2.4956522c1.0667826 1.0613913 2.1333913 2.1233043 3.1926956 3.1926956.2926957.2954783.5857392.592.8744348.8918261.1013913.105913.2525217.2387826.3379131.3857391.0916521.1386087.1483478.2946087.1483478.4610435v.2093913l-.0123478.0486957c-.1153044.4643478-.4125218.8391304-.9314783.8391304h-.1631304c-.3394783 0-.7229566-.3813913-.9553044-.5986087-.4791304-.4481739-.9424348-.9196522-1.4126956-1.3770435l-1.5749566-1.533913v2.4518261c0 .5638261-.3566956 1.0177391-.9455652 1.0177391h-.1620869c-.5890435 0-.9445218-.453913-.9445218-1.0177391v-13.81478264c0-.56504348.3554783-1.01721739.9445218-1.01721739h.1620869c.5888696 0 .9455652.45217391.9455652 1.01721739zm25.5782606-3.4968696h.203479c.615478 0 1.026608.4116522 1.026608 1.0186087 0 .8427826-.812 1.0584348-1.514435 1.0584348-.922434 0-1.801739.5530435-2.437739 1.1732174-.792347.7753043-1.138956 1.7666087-1.138956 2.8577391v4.9267826c0 .5653913-.356 1.0184348-.94487 1.0184348h-.161739c-.590261 0-.945913-.4530435-.945913-1.0184348v-5.2097391c0-2.0008696.982087-3.6333913 2.619304-4.7796522.978261-.6843478 2.09687-1.0453913 3.294261-1.0453913zm-14.586434 9.7645217c.746434.2587827 1.59826.2219131 2.364521.0895653.391479-.1652174 1.394261-.5987826 1.762783-.5356522l.058087.009913.052348.0257392c.224869.1085217.44.2615652.554956.4883478.269218.5326956.139652 1.0678261-.387652 1.3695652l-.175652.1013913c-1.946783 1.1144348-4.017218.9598261-5.957913-.0808696-.927826-.4973913-1.6372176-1.2361739-2.1610437-2.1365217l-.1224348-.2100869c-1.249913-2.1459131-1.0810435-4.404.3285218-6.4450435.4862607-.7053913 1.1220867-1.2507826 1.8653917-1.6768696l.281565-.1610435c1.833739-1.0495652 3.798435-.977913 5.681565-.0566956 1.012174.4954782 1.831826 1.2340869 2.39687 2.2046956l.102087.1744348c.410608.7064348-.121392 1.3210435-.670435 1.7415652-.637392.4867826-1.280522 1.0737392-1.891305 1.5963479-1.361739 1.165913-2.720869 2.3346087-4.08226 3.5012173zm-1.762609-1.2274782c1.523652-1.2953044 3.046609-2.5913044 4.565217-3.892.519131-.4436522 1.088174-.9038261 1.603826-1.3713044-.413565-.5156521-1.103826-.8885217-1.690434-1.1102608-1.183653-.4471305-2.350609-.2965218-3.436348.3245217-1.420696.8132174-2.026783 2.1093913-1.973566 3.7219131.021566.6346086.193392 1.2464347.533566 1.7869565.119478.1906087.253565.3695652.397739.5401739z" fill="#394d54" mask="url(#b)"/></g></svg>