<svg height="42" viewBox="0 0 116 42" width="116" xmlns="http://www.w3.org/2000/svg" xmlns:xlink="http://www.w3.org/1999/xlink"><mask id="a" fill="#fff"><path d="m0 .0723038h115.037468v41.9276962h-115.037468" fill="#fff" fill-rule="evenodd"/></mask><g fill="none" fill-rule="evenodd"><g fill="#000"><path d="m77.1465038 22.2849873c0 .2966583-.2397722.5358988-.5364304.5358988h-7.2325063c-.2966582 0-.536962-.2392405-.536962-.5358988 0-.2966582.2403038-.536962.536962-.536962h7.2325063c.2966582 0 .5364304.2403038.5364304.536962"/><path d="m75.7187165 25.2759722c0 .2945316-.2376456.5321772-.5316456.5321772s-.5321772-.2376456-.5321772-.5321772c0-.2934684.2381772-.5316456.5321772-.5316456s.5316456.2381772.5316456.5316456"/><path d="m70.2257544 21.7465899c-.294 0-.5316455-.2387089-.5316455-.5321772 0-.0276456.0021265-.0547595.0069114-.0813418h-.7974684v1.0069367h1.3285823v-.3939494c-.0021266 0-.0042532.0005317-.0063798.0005317"/><path d="m69.6941089 23.3212709c0-.294.2376455-.5321772.5316455-.5321772.0021266 0 .0042532.0005316.0063798.0005316v-.3742785h-1.3285823v1.0074684h.8001266c-.0063798-.0324304-.0095696-.0669874-.0095696-.1015443"/><path d="m75.839719 20.9953215c.0308354.0669874.0473164.1408861.0473164.219038 0 .2934683-.2376455.5321772-.5316455.5321772-.0132912 0-.0260507-.0015949-.0393418-.0026582v.5337721h1.1908861v-1.2823291z"/><path d="m72.7718582 17.9274608c-2.4120759 0-4.3669367 1.9553924-4.3669367 4.3674683 0 2.412076 1.9548608 4.3674684 4.3669367 4.3674684 1.0691393 0 2.0473671-.3843798 2.806557-1.0212912l-.7661013-.754405c-.5614177.4428607-1.2701012.7070886-2.0404557.7070886-1.8214177 0-3.2983291-1.4769114-3.2983291-3.2988608s1.4769114-3.2983291 3.2983291-3.2983291c1.822481 0 3.2988608 1.4763797 3.2988608 3.2983291v.0287089h1.0686076c0-.0095696.0010633-.0191393.0010633-.0287089 0-2.4120759-1.9559241-4.3674683-4.3685317-4.3674683"/><path d="m87.1636633 22.2849873c0 .2966583-.2397722.5358988-.5364304.5358988h-7.2325063c-.2966582 0-.5364304-.2392405-.5364304-.5358988 0-.2966582.2397722-.536962.5364304-.536962h7.2325063c.2966582 0 .5364304.2403038.5364304.536962"/><path d="m85.7358759 25.2759722c0 .2945316-.2376455.5321772-.5316455.5321772s-.5321772-.2376456-.5321772-.5321772c0-.2934684.2381772-.5316456.5321772-.5316456s.5316455.2381772.5316455.5316456"/><path d="m80.2429139 21.7465899c-.294 0-.5316455-.2387089-.5316455-.5321772 0-.0276456.0031898-.0547595.0069113-.0813418h-.7974683v1.0069367h1.3285823v-.3939494c-.0026583 0-.0042532.0005317-.0063798.0005317"/><path d="m79.7112684 23.3212709c0-.294.2376455-.5321772.5316455-.5321772.0021266 0 .0037215.0005316.0063798.0005316v-.3742785h-1.3285823v1.0074684h.8001266c-.0063798-.0324304-.0095696-.0669874-.0095696-.1015443"/><path d="m85.8568785 20.9953215c.0303038.0669874.0478481.1408861.0478481.219038 0 .2934683-.2381772.5321772-.5321772.5321772-.0138228 0-.0260507-.0015949-.0393418-.0026582v.5337721h1.1908861v-1.2823291z"/><path d="m82.7890177 17.9274608c-2.4115443 0-4.3674683 1.9553924-4.3674683 4.3674683 0 2.412076 1.955924 4.3674684 4.3674683 4.3674684 1.0696709 0 2.0484304-.3843798 2.806557-1.0212912l-.7661013-.754405c-.5614177.4428607-1.2701012.7070886-2.0404557.7070886-1.8214177 0-3.2977974-1.4769114-3.2977974-3.2988608s1.4763797-3.2983291 3.2977974-3.2983291c1.822481 0 3.2993924 1.4763797 3.2993924 3.2983291 0 .0095696-.0005316.0191393-.0005316.0287089h1.0686076c0-.0095696.0005316-.0191393.0005316-.0287089 0-2.4120759-1.9553924-4.3674683-4.368-4.3674683"/><path d="m64.7421494 18.9346633c.0010633.0042532.0031898.0095696.0053164.0138228-1.0345823.1913924-1.8182278 1.0973164-1.8182278 2.1871898 0 .0404051.0010633.0797469.0031898.1201519v4.857114c0 .3030379-.2461519.5491898-.5491898.5491898-.3041013 0-.5502532-.2461519-.5502532-.5491898v-5.1500507c.1111139-1.5901519 1.3498481-2.8698227 2.9213924-3.0442025.2232912.0606076.387038.2642279.387038.5061266 0 .2466835-.1701266.452962-.3992658.5098481"/><path d="m67.841643 19.5223975c0 .294-.2381772.5321772-.5316455.5321772-.294 0-.5316456-.2381772-.5316456-.5321772 0-.2934684.2376456-.5316456.5316456-.5316456.2934683 0 .5316455.2381772.5316455.5316456"/><path d="m66.9797924 19.9694051c.1983038-.3142026.4348861-.6018228.704962-.8554178-.604481-.7517468-1.5322025-1.2334177-2.5715696-1.2334177-1.7544304 0-3.1888101 1.3700507-3.292481 3.0978988h1.0765823c.1026076-1.1345317 1.0547848-2.0239747 2.2158987-2.0239747.7825823 0 1.47.4045822 1.8666076 1.0149114"/><path d="m102.304663 26.6191215c1.596532-.1834177 3.08195-1.7246582 2.822507-3.3685063-.108988-.6953924-.564608-1.4120506-1.318481-1.9112658-.589595-.3896962-3.468988-1.7512405-3.974051-2.1010633-.310481-.2371139-.9176203-.8873165-.9622785-1.3062532-.1217468-1.1292152.494962-1.6119494 1.1191139-1.9011645.2578486-.1212152.5901266-.1658735.7272916-.1812912 1.164835-.1366329 1.543367.0754937 2.609316.5810886.110051.0521013.219038.0542279.337063.0356203.358329-.0558228.605545-.2131899.549722-.571519-.042532-.2658228-.190329-.3875696-.467848-.5252658-.743241-.3678988-2.136684-.8081013-3.311089-.6236203-.019671.0031899-.038278.0074431-.057949.0106329l-.002658-.0170126c-1.6284309.2711392-2.9192663 1.7443291-2.6624815 3.3786076.1387595.8782784.814481 1.6140759 1.5050886 2.0638481.4625317.3875696 2.1350889 1.0595696 3.7890379 1.9766582.587468.3258987.823519.6470126.909646 1.3748354.089316.7554684-.785241 1.6130127-1.469469 1.8729874-1.063291.3120759-2.312658-.1302532-3.1452149-.5709874-.2488101-.1616202-.3625823-.2472152-.5917215-.2110633-.3583291.0558228-.6028861.3923545-.5465317.7506836.0377469.2381772.1749114.4056456.4083038.5082532 1.4806333.6523291 2.4790633.8793417 3.7326833.7357974"/><path d="m56.6599671 17.5608911c.0047848.0021266.0101013.0042532.0148861.0058481.1993671-1.0797721 1.1456962-1.8979746 2.2823544-1.8979746.0425316 0 .0845316.0015949.126.0037215h2.3280759c.3163292 0 .5736456-.2567848.5736456-.5736456s-.2573164-.5736456-.5736456-.5736456h-2.6337721c-1.6603291.1164304-2.9952911 1.4088608-3.1776456 3.0500507.0637975.2323291.2753924.4024557.5279241.4024557.2578481 0 .4736962-.1775697.5321772-.4168102"/><path d="m55.9689342 20.7403975c0 .3115443.2525316.5640759.5640759.5640759h3.5843545c.3115443 0 .5635443-.2525316.5635443-.5640759 0-.3110127-.252-.5635443-.5635443-.5635443h-3.5843545c-.3115443 0-.5640759.2525316-.5640759.5635443"/><path d="m58.1526152 15.0916633c0 .3062278.2801772.555038.6262785.555038h.4938987c.3461013 0 .6268101-.2488102.6268101-.555038 0-.3072911-.2807088-.5561013-.6268101-.5561013h-.4938987c-.3461013 0-.6262785.2488102-.6262785.5561013"/><path d="m56.1735114 16.5261494c.3168608 0 .5736456.1866076.5736456.4157468v9.2341519c0 .2296709-.2567848.4157468-.5736456.4157468s-.5736456-.1860759-.5736456-.4157468v-8.6934684c0-.2296708.2567848-.9564303.5736456-.9564303"/><path d="m56.8136658 22.1245367c0-.1419494.0356203-.2748608.0988861-.3902278.1392911-.2557216.4093671-.4295697.7209114-.4295697h.2700759v-.8251139h-1.9926076v1.8081266h.9027342z"/><path d="m56.8136658 19.3521114c0 .1414177.0356203.2743291.0988861.3902278.1392911.2562532.4093671.4295697.7209114.4295697h.2700759v.8251139h-1.9926076v-1.8081266h.9027342z"/><path d="m56.7160557 17.8241089c.0499747-1.1286836.9202785-2.0441773 2.0292911-2.1632659v-1.1201772c-1.7257215.1244051-3.0941772 1.5385823-3.1457468 3.2834431z"/><path d="m89.0924203 26.1186304c0-.2987848.2737974-.5422785.6108607-.5422785h4.9570633c.3370633 0 .6108608.2434937.6108608.5422785s-.2737975.5417468-.6108608.5417468h-4.9570633c-.3370633 0-.6108607-.242962-.6108607-.5417468"/><path d="m89.5508582 26.6284785c-.2993164 0-.5417468-.2732658-.5417468-.6103291v-8.2309367c0-.337595.2424304-.6108608.5417468-.6108608.2993165 0 .5422785.2732658.5422785.6108608v8.2309367c0 .3370633-.242962.6103291-.5422785.6103291"/><path d="m94.3761797 19.7653595v1.0601013c1.2940254.0202025 2.337114 1.0749873 2.337114 2.3737974 0 1.2988102-1.0430886 2.353595-2.337114 2.3737975v1.1217721c1.9096709-.0047848 3.4562279-1.554 3.4562279-3.4642025 0-1.9107342-1.546557-3.460481-3.4562279-3.4652658"/><path d="m89.2943924 20.2590987c0 .3035697.2461519.5491899.5491899.5491899h4.4589114c.3030379 0 .5491898-.2456202.5491898-.5491899 0-.3030379-.2461519-.5491898-.5491898-.5491898h-4.4589114c-.303038 0-.5491899.2461519-.5491899.5491898"/><path d="m91.6712203 15.0770962c0 .2987848.1520506.5417468.3397215.5417468h1.3684557c.1866076 0 .3386582-.242962.3386582-.5417468s-.1520506-.5417468-.3386582-.5417468h-1.3684557c-.1876709 0-.3397215.242962-.3397215.5417468"/><path d="m90.1178051 21.4688051c0-.1376962.0350886-.2674178.0967595-.3806583.1350379-.2493417.3997974-.418405.7028354-.418405h.2631646v-.8043798h-1.9431646v1.7624051h.8804051z"/><path d="m90.1178051 18.9517823c0 .1382278.0350886.2679493.0967595.3811899.1350379.2493417.3997974.418405.7028354.418405h.2631646v.8043798h-1.9431646v-1.7624051h.8804051z"/><path d="m93.2568 14.5330101v1.0308608c1.1600506.0042532 2.0989367.9457975 2.0989367 2.1069114s-.9388861 2.1021266-2.0989367 2.1069114v1.0313924c1.729443-.0042532 3.1308608-1.4077975 3.1308608-3.1383038 0-1.731038-1.4014178-3.1340507-3.1308608-3.1377722"/><path d="m93.101081 14.5947873v1.0106583c1.1605823.0047848 2.0994684.9277215 2.0994684 2.065443 0 1.1382532-.9388861 2.0606582-2.0994684 2.0649114v1.0106582c1.7299747-.0037215 3.1308608-1.3790886 3.1308608-3.0755696s-1.4008861-3.0718481-3.1308608-3.0761013"/><path d="m90.0814937 17.7420759c.0483797-1.1005063.896886-1.9931392 1.9793164-2.1095696v-1.0914683c-1.6831898.1201519-3.0176202 1.4992405-3.0681266 3.2010379z"/><path d="m106.320554 26.0215519c0-.2764557.18714-.5008101.418405-.5008101h3.394557c.231266 0 .418406.2243544.418406.5008101 0 .2769873-1.124431.5013418-1.355697.5013418h-2.457266c-.231265 0-.418405-.2243545-.418405-.5013418"/><path d="m107.294529 24.7401797c0 .1376962.035089.2674178.09676.3811899.135038.2488101.398734.4178734.702303.4178734h.263165v.8049114h-1.942633v-1.7629367h.880405z"/><path d="m109.319886 14.7863924c-.052633-.0069114-.095164-.0106329-.123342-.0106329h-1.086683l.000531.0063797h-.027645c-.98195 0-1.787924.7501519-1.876709 1.7092405v9.4207595c0 .337595.242962.6108608.541747.6108608.299316 0 .541747-.2732658.541747-.6108608v-9.3596202c.001063-.1355696.03562-.2626329.096227-.3742785.108988-.2004304.301444-.3487595.530583-.3992658h1.799088c2.453013.3083544 4.349924 2.3737975 4.349924 4.8757215 0 2.6693924-2.157949 4.8411646-4.846481 4.914v.958557c3.226026-.0733671 5.818861-2.6741773 5.818861-5.872557 0-3.1638228-2.538607-5.7433671-5.717848-5.8683038" mask="url(#a)"/><path d="m.57917468.69985823c-2.52691139 2.52691139 3.96607595 13.11782277 5.08306329 14.23427847 1.11698735 1.1180506 4.07134178-.0249873 6.59825313-2.5524304 2.5274431-2.52744301 3.6710127-5.48232908 2.5534937-6.59878478-1.1169873-1.11805063-11.70683543-7.60997468-14.23481012-5.08306329"/></g><path d="m1.19540506 1.01448608c-2.30202531 2.1898481 3.89217722 12.44050632 4.94696203 13.54951902 1.05425316 1.1079493 3.77468354.2328607 6.07724051-1.9569874 2.302557-2.1893164 3.3142785-4.862962 2.2594937-5.97144302-1.0542532-1.10901265-10.98167092-7.80987341-13.28369624-5.6210886" fill="#fff"/><path d="m1.05058481.66142025c-2.24779747 2.13721519 4.26698734 12.63508865 5.35739241 13.78131645 1.09040506 1.1467595 3.79648098.343443 6.04321518-1.7921772 2.2467342-2.1377468 3.1840253-4.79969621 2.0941519-5.94592406-1.0904051-1.14622785-11.24855696-8.17936709-13.49475949-6.04321519" fill="#000"/><path d="m1.34703038.83898987c-1.93678481 2.04577216 4.84435443 11.60901263 5.93741772 12.64359493 1.092 1.033519 3.5471392.2137215 5.4828608-1.8320506 1.9373164-2.04630382 2.6215443-4.54291142 1.5290126-5.57696205-1.0914683-1.03458228-11.01303796-7.28035443-12.94929112-5.23458228" fill="#fff"/><path d="m42.2178152 21.3976709c0 11.3782785-9.2240506 20.6023291-20.6012658 20.6023291-11.3788102 0-20.60232915-9.2240506-20.60232915-20.6023291 0-11.3777468 9.22351895-20.60179748 20.60232915-20.60179748 11.3772152 0 20.6012658 9.22405068 20.6012658 20.60179748" fill="#000"/><path d="m41.6934 21.3976709c0 11.088-8.9890633 20.0770633-20.0770633 20.0770633-11.0885316 0-20.07706328-8.9890633-20.07706328-20.0770633s8.98853168-20.07706331 20.07706328-20.07706331c11.088 0 20.0770633 8.98906331 20.0770633 20.07706331" fill="#fff"/><path d="m40.6426025 20.6106228c0 10.9433924-8.8705063 19.814962-19.8133671 19.814962-10.94392401 0-19.81496198-8.8715696-19.81496198-19.814962 0-10.94339242 8.87103797-19.81496204 19.81496198-19.81496204 10.9428608 0 19.8133671 8.87156962 19.8133671 19.81496204" fill="#000"/><path d="m37.8877747 18.9694329c0 9.8210886-7.9608608 17.7808861-17.7803544 17.7808861-9.8200254 0-17.78088612-7.9597975-17.78088612-17.7808861 0-9.82002531 7.96086072-17.78035442 17.78088612-17.78035442 9.8194936 0 17.7803544 7.96032911 17.7803544 17.78035442" fill="#fff"/><path d="m42.2531165.64063291c2.5157468 2.51521519-4.074 13.18268359-5.2016203 14.31243039-1.1281519 1.1276202-4.083038.0037215-6.5982532-2.512557-2.5162784-2.51521516-3.6407088-5.47010124-2.5125569-6.59825314 1.1286835-1.12868354 11.7961519-7.71736708 14.3124304-5.20162025" fill="#000"/><path d="m41.5947797 1.43033924c2.2983038 2.2983038-3.937367 12.26081016-4.996405 13.31984806-1.0595696 1.059038-3.7821266.0542279-6.0804304-2.2440759-2.2977721-2.2977722-3.3025823-5.01926583-2.2430127-6.0793671 1.0595697-1.05903797 11.0210127-7.29470886 13.3198481-4.99640506" fill="#fff"/><path d="m41.5116835.92256456c2.2068608 2.20792405-4.3222784 12.31769624-5.4105569 13.40544304s-3.7592658.1807595-5.9677215-2.0276962c-2.2079241-2.2073924-3.1154431-4.8789114-2.0282279-5.96718988 1.0888101-1.08881013 11.1980506-7.61848101 13.4065063-5.41055696" fill="#000"/><path d="m41.618119.69257468c2.0255696 2.17070886-5.0889114 12.09865822-6.2346076 13.16726582-1.1451646 1.0675443-3.7151392.1743798-5.7391139-1.9963291-2.0255697-2.17070887-2.739038-4.79650634-1.5938734-5.86405064 1.1456962-1.06913924 11.5425569-7.47706329 13.5675949-5.30688608" fill="#fff"/><path d="m37.0114101 14.4686278c-1.0638228 1.0632912-3.8480506.0026583-6.2191898-2.3679493-2.3706076-2.37060761-3.4296456-5.15430382-2.3668861-6.21865825.2328607-.23232911.898481-.71293671 1.8187595-1.29668354-1.3636709-.54653165-2.5114937-.57843038-3.1266076.03668354-1.2557469 1.25574684.1802278 4.72632912 3.2052911 7.75192405 3.025595 3.0255949 6.4967089 4.4605063 7.7519241 3.2047595.5662025-.5662025.5832152-1.5848354.1557721-2.8086835-.5475949.8575443-.9968354 1.4747848-1.2190633 1.6986075" fill="#000"/></g></svg>