<svg height="30" width="93" xmlns="http://www.w3.org/2000/svg" xmlns:xlink="http://www.w3.org/1999/xlink"><path d="m27.493 22.936c-.569-.13-1.173-.213-1.783-.213-1.045 0-1.995.182-2.696.473-.078.039-.132.12-.132.211 0 .034.007.068.021.096.082.24-.054.499-.732.65-1.006.22-1.641 1.259-2.004 1.602-.427.405-1.631.654-1.45.411.142-.187.684-.776 1.013-1.412.296-.568.559-.73.92-1.273.107-.159.518-.718.638-1.16.134-.432.089-.974.141-1.197.074-.322.377-1.019.4-1.415.013-.221-.931.32-1.379.32s-.885-.269-1.285-.287c-.495-.024-.814.381-1.263.309-.255-.04-.472-.265-.918-.281-.637-.024-1.416.353-2.877.307-1.438-.047-2.766-1.818-2.947-2.099-.213-.329-.473-.329-.755-.069-.283.257-.633.054-.731-.119-.189-.33-.693-1.293-1.474-1.496-1.08-.28-1.627.598-1.556 1.295.072.709.531.908.744 1.285.211.376.32.62.718.787.284.118.389.292.305.524-.074.202-.368.249-.563.258-.411.02-.699-.092-.91-.226-.244-.157-.444-.373-.656-.74-.248-.406-.637-.582-1.09-.582-.216 0-.419.057-.598.148-.71.371-1.556.589-2.466.589l-1.028.001c1.969 5.837 7.492 10.039 13.997 10.039 5.195 0 9.764-2.68 12.396-6.736" fill="#fff"/><path d="m27.493 22.938c-.569-.132-1.173-.214-1.783-.214-1.045 0-1.995.182-2.696.473-.078.039-.132.119-.132.211 0 .033.007.068.021.095.082.241-.054.501-.732.651-1.006.221-1.641 1.258-2.004 1.601-.427.406-1.631.655-1.45.413.142-.189.684-.778 1.013-1.414.296-.567.559-.73.92-1.272.107-.159.518-.719.638-1.16.134-.433.089-.974.141-1.197.074-.322.377-1.019.4-1.414.013-.223-.931.318-1.379.318s-.885-.268-1.285-.286c-.495-.025-.814.381-1.263.309-.255-.04-.472-.265-.918-.282-.637-.023-1.416.354-2.877.307-1.438-.047-2.766-1.816-2.947-2.097-.213-.331-.473-.331-.755-.071-.283.258-.633.055-.731-.118-.189-.331-.693-1.294-1.474-1.497-1.08-.28-1.627.598-1.556 1.296.072.708.531.907.744 1.284.211.376.32.621.718.788.284.117.389.292.305.524-.074.202-.368.249-.563.258-.411.019-.699-.092-.91-.228-.244-.154-.444-.371-.656-.739-.248-.405-.637-.582-1.09-.582-.216 0-.419.058-.598.148-.71.371-1.556.59-2.466.59h-1.028c-.5-1.481-.77-3.068-.77-4.717 0-8.152 6.611-14.759 14.767-14.759 8.154 0 14.766 6.607 14.766 14.759 0 2.958-.871 5.71-2.37 8.022"/><path d="m18.3484 21.5845c.076.073.207.322.047.639-.09.168-.187.285-.359.423-.209.167-.614.359-1.17.005-.3-.189-.319-.253-.732-.199-.295.038-.412-.261-.307-.508.107-.247.542-.447 1.085-.129.245.143.625.447.957.177.139-.109.222-.183.413-.405.009-.009.021-.014.035-.014.012 0 .023.004.031.011"/><path d="m13.9471 7.185c-1.705.123-1.883.307-2.202.646-.45.481-1.044-.621-1.044-.621-.357-.075-.788-.649-.555-1.184.23-.53.654-.372.786-.207.161.201.506.53.954.518s.964-.106 1.685-.106c.73 0 1.22.272 1.247.507.025.199-.059.387-.871.447m1.792-2.817h-.008c-.026 0-.047-.02-.047-.044 0-.018.011-.034.027-.041.331-.174.824-.314 1.388-.37.169-.018.335-.028.494-.028h.085c.947.022 1.704.398 1.693.84-.012.442-.787.783-1.735.763-.305-.008-.593-.052-.84-.124-.031-.007-.051-.032-.051-.062 0-.029.02-.054.052-.062.589-.136.988-.36.96-.571-.038-.279-.809-.431-1.725-.339-.101.01-.198.023-.293.038m7.69 6.621c-.146.49-.353 1.117-1.277 1.591-.135.069-.185-.044-.124-.15.35-.594.411-.742.513-.975.141-.343.217-.83-.066-1.844-.555-1.997-1.715-4.668-2.556-5.533-.813-.836-2.285-1.072-3.617-.73-.49.125-1.449.623-3.227.223-3.077-.693-3.533.847-3.709 1.518-.178.671-.602 2.578-.602 2.578-.141.778-.326 2.128 4.453 3.039 2.226.423 2.338.999 2.438 1.412.177.741.459 1.165.777 1.377s0 .388-.353.423c-.947.099-4.452-.906-6.526-2.083-1.696-1.036-1.724-1.968-1.336-2.76-2.562-.277-4.485.24-4.833 1.453-.599 2.08 4.576 5.634 10.469 7.418 6.184 1.871 12.544.564 13.251-3.321.321-1.765-1.166-3.071-3.675-3.636" fill="#e93442"/><g id="a"><path d="m29.7137 22.1489h.133l.201.33h.13l-.218-.336c.113-.014.198-.073.198-.209 0-.151-.089-.217-.268-.217h-.291v.762h.115zm0-.098v-.237h.157c.079 0 .165.019.165.112 0 .118-.086.125-.184.125z"/><path d="m30.5965 22.0991c0 .411-.334.745-.746.745s-.747-.334-.747-.745.335-.747.747-.747.746.336.746.747m-.746-.614c-.34 0-.615.274-.615.615 0 .337.275.611.615.611.338 0 .613-.274.613-.611 0-.341-.275-.615-.613-.615"/></g><path d="m37.3904 15.8462c0-1.354-.029-2.349-.083-3.249h2.214l.096 1.921h.072c.498-1.424 1.678-2.15 2.769-2.15.249 0 .395.009.601.056v2.408c-.24-.048-.464-.073-.772-.073-1.218 0-2.064.775-2.293 1.934-.042.225-.066.496-.066.771v5.243h-2.559z"/><path d="m46.1473 18.3403c.067 1.832 1.486 2.634 3.124 2.634 1.176 0 2.019-.185 2.791-.468l.379 1.759c-.865.367-2.066.64-3.534.64-3.285 0-5.21-2.027-5.21-5.125 0-2.791 1.693-5.43 4.947-5.43 3.29 0 4.36 2.703 4.36 4.916 0 .476-.042.856-.09 1.094zm4.448-1.781c.012-.937-.396-2.464-2.109-2.464-1.575 0-2.23 1.429-2.345 2.464z"/><path d="m61.4695 18.3237c0 .268-.02.518-.078.746-.257 1.107-1.163 1.819-2.209 1.819-1.61 0-2.532-1.357-2.532-3.214 0-1.876.913-3.329 2.56-3.329 1.151 0 1.975.812 2.2 1.796.044.207.059.463.059.667zm2.556-9.621-2.556-.721v5.704h-.042c-.453-.747-1.451-1.317-2.836-1.317-2.433 0-4.551 2.012-4.535 5.399 0 3.108 1.913 5.167 4.329 5.167 1.459 0 2.681-.695 3.285-1.828h.045l.115 1.601h2.28c-.047-.688-.085-1.8-.085-2.835z"/><path d="m70.7898 12.3569c-.771 0-1.462.222-2.041.58-.602.352-1.091.897-1.383 1.459h-.041v-4.731l-1.001-.296v13.339h1.001v-6.188c0-.411.031-.696.137-.997.432-1.26 1.619-2.292 3.054-2.292 2.072 0 2.79 1.661 2.79 3.483v5.994h1.001v-6.103c0-3.769-2.558-4.248-3.517-4.248"/><path d="m83.2928 20.3042c0 .801.032 1.628.148 2.403h-.922l-.148-1.449h-.047c-.491.78-1.619 1.68-3.228 1.68-2.037 0-2.986-1.433-2.986-2.781 0-2.335 2.064-3.743 6.183-3.699v-.27c0-1.002-.195-2.998-2.591-2.983-.886 0-1.809.237-2.542.754l-.318-.727c.926-.627 2.055-.875 2.971-.875 2.921 0 3.48 2.192 3.48 4zm-1-3.005c-2.206-.063-5.117.271-5.117 2.7 0 1.454.96 2.108 2.015 2.108 1.687 0 2.647-1.044 2.997-2.029.072-.215.105-.433.105-.607z"/><path d="m87.2801 10.3589v2.229h2.887v.812h-2.887v6.577c0 1.287.399 2.093 1.488 2.093.521 0 .891-.068 1.15-.159l.121.775c-.327.138-.786.243-1.397.243-.739 0-1.352-.232-1.748-.716-.458-.532-.615-1.381-.615-2.414v-6.399h-1.708v-.812h1.708v-1.86z"/><use height="30" transform="translate(61.7183 .0205)" width="93" xlink:href="#a"/></svg>