<svg width="25" height="24" viewBox="0 0 25 24" fill="none" xmlns="http://www.w3.org/2000/svg">
<path d="M13.2102 12L9.67018 15.54C9.48393 15.7274 9.37939 15.9808 9.37939 16.245C9.37939 16.5092 9.48393 16.7626 9.67018 16.95C9.76314 17.0437 9.87374 17.1181 9.9956 17.1689C10.1175 17.2197 10.2482 17.2458 10.3802 17.2458C10.5122 17.2458 10.6429 17.2197 10.7648 17.1689C10.8866 17.1181 10.9972 17.0437 11.0902 16.95L15.3302 12.71C15.4239 12.617 15.4983 12.5064 15.5491 12.3846C15.5998 12.2627 15.626 12.132 15.626 12C15.626 11.868 15.5998 11.7373 15.5491 11.6154C15.4983 11.4936 15.4239 11.383 15.3302 11.29L11.0902 7.00001C10.9967 6.90733 10.8859 6.834 10.7641 6.78424C10.6422 6.73447 10.5118 6.70924 10.3802 6.71001C10.2486 6.70924 10.1181 6.73447 9.99627 6.78424C9.87443 6.834 9.76362 6.90733 9.67018 7.00001C9.48393 7.18737 9.37939 7.44082 9.37939 7.70501C9.37939 7.96919 9.48393 8.22264 9.67018 8.41001L13.2102 12Z" fill="#1155CB"/>
</svg>
