<svg width="24" height="24" viewBox="0 0 24 24" fill="none" xmlns="http://www.w3.org/2000/svg">
<path d="M18.4 5.6L17.7 6.3M3 12H4H3ZM12 3V4V3ZM20 12H21H20ZM5.6 5.6L6.3 6.3L5.6 5.6Z" stroke="#043558" stroke-width="1.5" stroke-linecap="round" stroke-linejoin="round"/>
<path d="M9 16C8.16047 15.3704 7.54033 14.4925 7.22743 13.4908C6.91453 12.4892 6.92473 11.4144 7.25658 10.4189C7.58844 9.4233 8.22512 8.55739 9.07645 7.94379C9.92778 7.33019 10.9506 7 12 7C13.0494 7 14.0722 7.33019 14.9236 7.94379C15.7749 8.55739 16.4116 9.4233 16.7434 10.4189C17.0753 11.4144 17.0855 12.4892 16.7726 13.4908C16.4597 14.4925 15.8395 15.3704 15 16C14.6096 16.3865 14.3156 16.8594 14.1419 17.3806C13.9681 17.9018 13.9195 18.4566 14 19C14 19.5304 13.7893 20.0391 13.4142 20.4142C13.0391 20.7893 12.5304 21 12 21C11.4696 21 10.9609 20.7893 10.5858 20.4142C10.2107 20.0391 10 19.5304 10 19C10.0805 18.4566 10.0319 17.9018 9.85813 17.3806C9.6844 16.8594 9.39043 16.3865 9 16" stroke="#043558" stroke-width="1.5" stroke-linecap="round" stroke-linejoin="round"/>
<path d="M9.7002 17H14.3002" stroke="#043558" stroke-width="1.5" stroke-linecap="round" stroke-linejoin="round"/>
</svg>
