<svg height="36" preserveAspectRatio="xMidYMid" viewBox="0 0 36 36" width="36" xmlns="http://www.w3.org/2000/svg"><g fill-rule="evenodd"><path d="m23.243 8.515s4.242-5.071 4.242-5.071 6.071 6.071 6.071 6.071-6.071 3.242-6.071 3.242-4.242-4.242-4.242-4.242zm-20.799 17.97s7.071-4.242 7.071-4.242 4.242 4.242 4.242 4.242-4.242 7.071-4.242 7.071-7.071-7.071-7.071-7.071zm0-16.97s7.071-7.071 7.071-7.071 4.242 7.071 4.242 7.071-4.242 4.242-4.242 4.242-7.071-4.242-7.071-4.242zm31.112 16.97s-7.071 7.071-7.071 7.071-3.242-6.071-3.242-6.071 4.242-4.242 4.242-4.242 6.071 3.242 6.071 3.242z" fill="#e9eaeb"/><path d="m18 36c-9.941 0-18-8.059-18-18s8.059-18 18-18 18 8.059 18 18-8.059 18-18 18zm0-34c-8.837 0-16 7.164-16 16s7.163 16 16 16 16-7.164 16-16-7.163-16-16-16zm0 27c-6.075 0-11-4.925-11-11s4.925-11 11-11 11 4.925 11 11-4.925 11-11 11zm0-20c-4.971 0-9 4.029-9 9 0 4.97 4.029 9 9 9s9-4.03 9-9c0-4.971-4.029-9-9-9z" fill="#d3d6d7"/></g></svg>