<svg height="64" preserveAspectRatio="xMidYMid" viewBox="0 0 64 64" width="64" xmlns="http://www.w3.org/2000/svg"><path d="m2 2h60v8h-60z" fill="#fff"/><path d="m2 10h60v52h-60z" fill="#e8f6ea"/><g fill-rule="evenodd"><path d="m2 60h60c0 1.105-.895 2-2 2h-56c-1.105 0-2-.895-2-2z" fill="#bfe5c6"/><path d="m60 64h-56c-2.209 0-4-1.791-4-4v-48-2-6c0-2.209 1.791-4 4-4h56c2.209 0 4 1.791 4 4v6 2 48c0 2.209-1.791 4-4 4zm2-60c0-1.105-.895-2-2-2h-56c-1.105 0-2 .895-2 2v6h60zm0 8h-60v48c0 1.105.895 2 2 2h56c1.105 0 2-.895 2-2zm-17 38h-8c-.552 0-1-.448-1-1s.448-1 1-1h8c.552 0 1 .448 1 1s-.448 1-1 1zm-8-8h2c.552 0 1 .448 1 1s-.448 1-1 1h-2c-.552 0-1-.448-1-1s.448-1 1-1zm8-10h-8c-.552 0-1-.448-1-1s.448-1 1-1h8c.552 0 1 .448 1 1s-.448 1-1 1zm-10-12h-12c-.552 0-1-.448-1-1s.448-1 1-1h12c.552 0 1 .448 1 1s-.448 1-1 1zm-9 5c0 .552-.448 1-1 1h-6c-.552 0-1-.448-1-1s.448-1 1-1h6c.552 0 1 .448 1 1zm-9-5h-8c-.552 0-1-.448-1-1s.448-1 1-1h8c.552 0 1 .448 1 1s-.448 1-1 1zm-8 4h4c.552 0 1 .448 1 1s-.448 1-1 1h-4c-.552 0-1-.448-1-1s.448-1 1-1zm0 6h12c.552 0 1 .448 1 1s-.448 1-1 1h-12c-.552 0-1-.448-1-1s.448-1 1-1zm0 6h6c.552 0 1 .448 1 1s-.448 1-1 1h-6c-.552 0-1-.448-1-1s.448-1 1-1zm0 6h10c.552 0 1 .448 1 1s-.448 1-1 1h-10c-.552 0-1-.448-1-1s.448-1 1-1zm0 6h12c.552 0 1 .448 1 1s-.448 1-1 1h-12c-.552 0-1-.448-1-1s.448-1 1-1zm16-10h-4c-.552 0-1-.448-1-1s.448-1 1-1h4c.552 0 1 .448 1 1s-.448 1-1 1zm2-8h4c.552 0 1 .448 1 1s-.448 1-1 1h-4c-.552 0-1-.448-1-1s.448-1 1-1zm-2 12h6c.552 0 1 .448 1 1s-.448 1-1 1h-6c-.552 0-1-.448-1-1s.448-1 1-1zm2 6h4c.552 0 1 .448 1 1s-.448 1-1 1h-4c-.552 0-1-.448-1-1s.448-1 1-1zm23-43c.552 0 1 .448 1 1s-.448 1-1 1-1-.448-1-1 .448-1 1-1zm4 0c.552 0 1 .448 1 1s-.448 1-1 1-1-.448-1-1 .448-1 1-1zm4 0c.552 0 1 .448 1 1s-.448 1-1 1-1-.448-1-1 .448-1 1-1z" fill="#40bb53"/></g></svg>