<svg height="64" preserveAspectRatio="xMidYMid" viewBox="0 0 64 64" width="64" xmlns="http://www.w3.org/2000/svg"><circle cx="32" cy="32" fill="none" r="31.453" stroke="#0070bf" stroke-dashoffset="1.668" stroke-width="1.093"/><path d="m50.015 33.7c-.085.237-.224.447-.456.51-3.903 1.063-8.082 1.426-12.45 1.756v-1.133c4.172-.323 8.163-.725 11.898-1.676v-9.657c0-.625-.507-1.132-1.133-1.132h-31.73c-.625 0-1.132.507-1.132 1.133v9.807c3.74.907 7.73 1.24 11.898 1.526v1.133c-4.37-.295-8.56-.578-12.475-1.605-.74-.193-.555-.01-.555-.57v-10.292c0-1.25 1.014-2.265 2.266-2.265h31.73c1.25 0 2.265 1.014 2.265 2.266v10.2h-.125zm-23.105-13.598v-2.266l.568-.567h9.065l.567.566v2.266h-1.134v-1.7h-7.932v1.7h-1.134zm11.333-2.833c0-.627-.507-1.134-1.133-1.134h-10.2c-.625 0-1.132.507-1.132 1.133v2.832h-1.133v-2.83c0-1.253 1.014-2.267 2.266-2.267h10.2c1.252 0 2.266 1.014 2.266 2.266v2.831h-1.133v-2.83zm-8.5 22.096c-.938 0-1.7-.76-1.7-1.7v-4.533c0-.94.762-1.7 1.7-1.7h4.534c.938 0 1.7.76 1.7 1.7v4.533c0 .94-.762 1.7-1.7 1.7h-4.533zm5.1-2.267v-3.4c0-.626-.507-1.133-1.133-1.133h-3.4c-.626 0-1.133.507-1.133 1.133v3.4c0 .625.507 1.132 1.134 1.132h3.4c.626 0 1.133-.507 1.133-1.133zm-3.966 0-.566-.567v-2.267l.567-.566h2.266l.567.566v2.267l-.567.566h-2.266zm1.7-2.267h-1.133v1.133h1.133zm-16.997 11.899c0 .627.507 1.134 1.133 1.134h30.595c.626 0 1.133-.507 1.133-1.133v-10.764h1.134v10.763c0 1.253-1.014 2.267-2.266 2.267h-30.596c-1.252 0-2.267-1.014-2.267-2.266v-10.764h1.134z" fill="#0070bf" fill-rule="evenodd" stroke-width=".173"/></svg>