<svg height="64" viewBox="0 0 64 64" width="64" xmlns="http://www.w3.org/2000/svg"><g fill="none" fill-rule="evenodd"><path d="m8 2h48v60h-48zm50 2h4v56h-4zm-52 0v56h-4v-56z" fill="#e8f6ea"/><path d="m6 2c0-1.1045695.8954305-2 2-2h48c1.1045695 0 2 .8954305 2 2h4c1.1045695 0 2 .8954305 2 2v56c0 1.1045695-.8954305 2-2 2h-4c0 1.1045695-.8954305 2-2 2h-48c-1.1045695 0-2-.8954305-2-2h-4c-1.1045695 0-2-.8954305-2-2v-56c0-1.1045695.8954305-2 2-2zm0 2h-4v56h4zm2-2v2 56 2h48v-2-56-2zm50 2v56h4v-56z" fill="#39bd4e"/><path d="m4 2h2v60h-2zm54 0h2v60h-2z" fill="#000" fill-opacity=".1"/><path d="m13 5h6c.5522847 0 1 .44771525 1 1s-.4477153 1-1 1h-6c-.5522847 0-1-.44771525-1-1s.4477153-1 1-1zm32 0h6c.5522847 0 1 .44771525 1 1s-.4477153 1-1 1h-6c-.5522847 0-1-.44771525-1-1s.4477153-1 1-1zm-16 0h6c.5522847 0 1 .44771525 1 1s-.4477153 1-1 1h-6c-.5522847 0-1-.44771525-1-1s.4477153-1 1-1zm-6 0h2c.5522847 0 1 .44771525 1 1s-.4477153 1-1 1h-2c-.5522847 0-1-.44771525-1-1s.4477153-1 1-1zm16 0h2c.5522847 0 1 .44771525 1 1s-.4477153 1-1 1h-2c-.5522847 0-1-.44771525-1-1s.4477153-1 1-1zm-26 10h6c.5522847 0 1 .4477153 1 1s-.4477153 1-1 1h-6c-.5522847 0-1-.4477153-1-1s.4477153-1 1-1zm32 0h6c.5522847 0 1 .4477153 1 1s-.4477153 1-1 1h-6c-.5522847 0-1-.4477153-1-1s.4477153-1 1-1zm-16 0h6c.5522847 0 1 .4477153 1 1s-.4477153 1-1 1h-6c-.5522847 0-1-.4477153-1-1s.4477153-1 1-1zm-6 0h2c.5522847 0 1 .4477153 1 1s-.4477153 1-1 1h-2c-.5522847 0-1-.4477153-1-1s.4477153-1 1-1zm16 0h2c.5522847 0 1 .4477153 1 1s-.4477153 1-1 1h-2c-.5522847 0-1-.4477153-1-1s.4477153-1 1-1zm-26 37h6c.5522847 0 1 .4477153 1 1s-.4477153 1-1 1h-6c-.5522847 0-1-.4477153-1-1s.4477153-1 1-1zm32 0h6c.5522847 0 1 .4477153 1 1s-.4477153 1-1 1h-6c-.5522847 0-1-.4477153-1-1s.4477153-1 1-1zm-16 0h6c.5522847 0 1 .4477153 1 1s-.4477153 1-1 1h-6c-.5522847 0-1-.4477153-1-1s.4477153-1 1-1zm-6 0h2c.5522847 0 1 .4477153 1 1s-.4477153 1-1 1h-2c-.5522847 0-1-.4477153-1-1s.4477153-1 1-1zm16 0h2c.5522847 0 1 .4477153 1 1s-.4477153 1-1 1h-2c-.5522847 0-1-.4477153-1-1s.4477153-1 1-1zm-1-42h6c.5522847 0 1 .4477153 1 1s-.4477153 1-1 1h-6c-.5522847 0-1-.4477153-1-1s.4477153-1 1-1zm-18 0h6c.5522847 0 1 .4477153 1 1s-.4477153 1-1 1h-6c-.5522847 0-1-.4477153-1-1s.4477153-1 1-1zm-7 0h2c.5522847 0 1 .4477153 1 1s-.4477153 1-1 1h-2c-.5522847 0-1-.4477153-1-1s.4477153-1 1-1zm18 0h2c.5522847 0 1 .4477153 1 1s-.4477153 1-1 1h-2c-.5522847 0-1-.4477153-1-1s.4477153-1 1-1zm18 0h2c.5522847 0 1 .4477153 1 1s-.4477153 1-1 1h-2c-.5522847 0-1-.4477153-1-1s.4477153-1 1-1zm-11 37h6c.5522847 0 1 .4477153 1 1s-.4477153 1-1 1h-6c-.5522847 0-1-.4477153-1-1s.4477153-1 1-1zm-18 0h6c.5522847 0 1 .4477153 1 1s-.4477153 1-1 1h-6c-.5522847 0-1-.4477153-1-1s.4477153-1 1-1zm-7 0h2c.5522847 0 1 .4477153 1 1s-.4477153 1-1 1h-2c-.5522847 0-1-.4477153-1-1s.4477153-1 1-1zm18 0h2c.5522847 0 1 .4477153 1 1s-.4477153 1-1 1h-2c-.5522847 0-1-.4477153-1-1s.4477153-1 1-1zm18 0h2c.5522847 0 1 .4477153 1 1s-.4477153 1-1 1h-2c-.5522847 0-1-.4477153-1-1s.4477153-1 1-1zm-11 10h6c.5522847 0 1 .4477153 1 1s-.4477153 1-1 1h-6c-.5522847 0-1-.4477153-1-1s.4477153-1 1-1zm-18 0h6c.5522847 0 1 .4477153 1 1s-.4477153 1-1 1h-6c-.5522847 0-1-.4477153-1-1s.4477153-1 1-1zm-7 0h2c.5522847 0 1 .4477153 1 1s-.4477153 1-1 1h-2c-.5522847 0-1-.4477153-1-1s.4477153-1 1-1zm18 0h2c.5522847 0 1 .4477153 1 1s-.4477153 1-1 1h-2c-.5522847 0-1-.4477153-1-1s.4477153-1 1-1zm18 0h2c.5522847 0 1 .4477153 1 1s-.4477153 1-1 1h-2c-.5522847 0-1-.4477153-1-1s.4477153-1 1-1z" fill="#39bd4e" opacity=".65"/><path d="m6 20h52v24h-52z" fill="#39bd4e"/><path d="m31.0118666 34.18c-.1010263 2.78-.4243105 3.56-1.2123156 4.26-.464721.42-.9698525.56-2.3033996.56h-3.9198204c-1.3335472 0-1.8386787-.14-2.3033996-.56-.7880052-.7-1.2729314-1.72-1.2729314-6.44s.4849262-5.74 1.2729314-6.44c.4647209-.42.9698524-.56 2.3033996-.56h3.9198204c1.3335471 0 1.8386786.14 2.3033996.56.7880051.7 1.1516998 1.62 1.1921103 4.04h-2.2629891c-.0606158-1.76-.2424631-2.26-.464721-2.46-.161642-.14-.3232841-.22-1.0102629-.22h-3.4348942c-.6869788 0-.8486209.08-1.010263.22-.2222579.2-.5051315.82-.5051315 4.86s.2828736 4.66.5051315 4.86c.1616421.14.3232842.22 1.010263.22h3.4348942c.6869788.02.8486209-.08 1.0102629-.22.2222579-.2.4041052-.6.464721-2.68zm13.4881334 2.9v1.92h-9.6581142v-14h9.6581142v1.92h-7.3951251v3.86h6.1221937v1.92h-6.1221937v4.38z" fill="#fff"/></g></svg>