<svg height="12" viewBox="0 0 13 12" width="13" xmlns="http://www.w3.org/2000/svg"><path d="m25.375 130.375h-9.75c-.8978125 0-1.625-.728-1.625-1.625v-8.125c0-.897813.7271875-1.625 1.625-1.625h9.75c.8978125 0 1.625.727187 1.625 1.625v8.125c0 .897-.7271875 1.625-1.625 1.625zm0-7.71875-3.3173749 2.985637c-.4115212.37037-1.1891635.670613-1.7465051.670613h.37776c-.5530469 0-1.3338314-.299206-1.7465051-.670613l-3.3173749-2.985637v6.09375h9.75zm-9.34375-2.03125 4.1030534 3.730049c.2019687.183607.5354201.178157.7313932 0l4.1030534-3.730049z" fill-opacity=".55" fill-rule="evenodd" transform="translate(-14 -119)"/></svg>