<svg height="64" preserveAspectRatio="xMidYMid" viewBox="0 0 64 64" width="64" xmlns="http://www.w3.org/2000/svg"><g fill-rule="evenodd"><path d="m7 6v-4h6v4h7v-4h6v4h12v-4h6v4h7v-4h6v4h5v56h-60v-56z" fill="#e8f6ea"/><path d="m33 62v-2h29v2zm0-30h29v2h-29zm-31 28h29v2h-29zm0-28h29v2h-29z" fill="#bde7c4"/><path d="m64 38v22c0 2.21-1.79 4-4 4h-25c-1.202 0-2.267-.54-3-1.38-.733.84-1.798 1.38-3 1.38h-25c-2.21 0-4-1.79-4-4v-22c0-1.202.54-2.267 1.38-3-.84-.733-1.38-1.798-1.38-3v-24c0-2.21 1.79-4 4-4h1v-3l1-1h8l1 1v3h3v-3l1-1h8l1 1v3h1c1.202 0 2.267.54 3 1.38.733-.84 1.798-1.38 3-1.38h1v-3l1-1h8l1 1v3h3v-3l1-1h8l1 1v3h1c2.21 0 4 1.79 4 4v24c0 1.202-.54 2.267-1.38 3 .84.733 1.38 1.798 1.38 3zm-32-2.62c.118-.136.26-.25.394-.368-.146-.126-.28-.26-.406-.406-.123.14-.24.284-.382.406.135.12.276.232.394.368zm-30 24.62c0 1.105.895 2 2 2h25c1.105 0 2-.895 2-2v-22c0-1.104-.895-2-2-2h-25c-1.105 0-2 .896-2 2zm27-54h-3v-4h-6v4h-7v-4h-6v4h-3c-1.105 0-2 .895-2 2v24c0 1.105.895 2 2 2h25c1.105 0 2-.895 2-2v-24c0-1.105-.895-2-2-2zm33 26v-24c0-1.105-.895-2-2-2h-3v-4h-6v4h-7v-4h-6v4h-3c-1.105 0-2 .895-2 2v24c0 1.105.895 2 2 2h25c1.105 0 2-.895 2-2zm-5 4h-22c-1.105 0-2 .896-2 2v22c0 1.105.895 2 2 2h25c1.105 0 2-.895 2-2v-22c0-1.104-.895-2-2-2z" fill="#39bd4e"/></g></svg>