<svg height="16" preserveAspectRatio="xMidYMid" viewBox="0 0 16 16" width="16" xmlns="http://www.w3.org/2000/svg"><path d="m9 16h-2s-6.012-3.436-6.012-3.436-.988-1.564-.988-1.564v-6.999s1.004-1.431 1.004-1.431 5.996-2.57 5.996-2.57h2s5.984 2.564 5.984 2.564 1.016 1.436 1.016 1.436v7s-.958 1.548-.958 1.548-6.042 3.452-6.042 3.452zm-6.05-4.314s4.05 2.314 4.05 2.314v-6s-5-2-5-2v4s.95 1.686.95 1.686zm6.05-9.686h-2s-5 2-5 2 5 2 5 2h2s5-2 5-2-5-2-5-2zm0 6v5 1s.985-.591.985-.591 3.006-1.804 3.006-1.804 1.009-1.605 1.009-1.605v-4s-5 2-5 2z" fill="#ced4d9" fill-rule="evenodd"/></svg>