<svg height="64" preserveAspectRatio="xMidYMid" viewBox="0 0 64 64" width="64" xmlns="http://www.w3.org/2000/svg"><g fill-rule="evenodd"><path d="m49 29c-7.732 0-14-6.268-14-14s6.268-14 14-14 14 6.268 14 14-6.268 14-14 14zm-19 18h4v4h-4zm0-34h4v4h-4zm-15 50c-7.732 0-14-6.268-14-14s6.268-14 14-14 14 6.268 14 14-6.268 14-14 14zm2-29h-4v-4h4zm-2-5c-7.732 0-14-6.268-14-14s6.268-14 14-14 14 6.268 14 14-6.268 14-14 14zm32 1h4v4h-4zm2 5c7.732 0 14 6.268 14 14s-6.268 14-14 14-14-6.268-14-14 6.268-14 14-14z" fill="#e8f6ea"/><path d="m53 29.444v5.112c6.34 1.754 11 7.547 11 14.444 0 8.284-6.716 15-15 15-6.897 0-12.692-4.66-14.444-11h-5.112c-1.752 6.34-7.547 11-14.444 11-8.284 0-15-6.716-15-15 0-6.897 4.66-12.69 11-14.444v-5.112c-6.34-1.754-11-7.547-11-14.444 0-8.284 6.716-15 15-15 6.897 0 12.692 4.66 14.444 11h5.112c1.752-6.34 7.547-11 14.444-11 8.284 0 15 6.716 15 15 0 6.897-4.66 12.69-11 14.444zm-4 32.556c7.18 0 13-5.82 13-13s-5.82-13-13-13-13 5.82-13 13 5.82 13 13 13zm2-27.85v-4.3c-.656.09-1.32.15-2 .15s-1.344-.06-2-.15v4.3c.656-.09 1.32-.15 2-.15s1.344.06 2 .15zm-16.85 16.85c-.09-.656-.15-1.32-.15-2s.058-1.345.145-2h-4.29c.087.655.145 1.32.145 2s-.06 1.344-.15 2zm-4.7-6h5.1c1.4-5.06 5.386-9.044 10.45-10.444v-5.112c-5.064-1.4-9.05-5.383-10.45-10.444h-5.1c-1.4 5.06-5.386 9.044-10.45 10.444v5.112c5.064 1.4 9.05 5.383 10.45 10.444zm-27.45 4c0 7.18 5.82 13 13 13s13-5.82 13-13-5.82-13-13-13-13 5.82-13 13zm15-14.85v-4.3c-.656.09-1.32.15-2 .15s-1.344-.06-2-.15v4.3c.656-.09 1.32-.15 2-.15s1.344.06 2 .15zm-2-32.15c-7.18 0-13 5.82-13 13s5.82 13 13 13 13-5.82 13-13-5.82-13-13-13zm14.85 11c.09.656.15 1.32.15 2s-.058 1.345-.145 2h4.29c-.087-.655-.145-1.32-.145-2s.06-1.344.15-2zm19.15-11c-7.18 0-13 5.82-13 13s5.82 13 13 13 13-5.82 13-13-5.82-13-13-13z" fill="#39bd4e"/><path d="m49 28c-6.144 0-11.27-4.27-12.625-10h2.047c1.305 4.616 5.544 8 10.578 8s9.273-3.384 10.578-8h2.047c-1.355 5.73-6.48 10-12.625 10zm-19 21h4v2h-4zm0-34h4v2h-4zm-15 47c-6.144 0-11.27-4.27-12.625-10h2.047c1.305 4.616 5.544 8 10.578 8s9.273-3.384 10.578-8h2.047c-1.355 5.73-6.48 10-12.625 10zm2-28h-4v-2h4zm-2-6c-6.144 0-11.27-4.27-12.625-10h2.047c1.305 4.616 5.544 8 10.578 8s9.273-3.384 10.578-8h2.047c-1.355 5.73-6.48 10-12.625 10zm32 4h4v2h-4zm2 28c5.034 0 9.273-3.384 10.578-8h2.047c-1.355 5.73-6.48 10-12.625 10-6.144 0-11.27-4.27-12.625-10h2.047c1.305 4.616 5.544 8 10.578 8z" fill="#bee6c5"/><path d="m49.5 4c-4.984 0-9.18 3.384-10.474 8h-2.026c1.34-5.73 6.417-10 12.5-10s11.16 4.27 12.5 10h-2.026c-1.294-4.616-5.49-8-10.474-8zm-35 34c-4.984 0-9.18 3.384-10.474 8h-2.026c1.34-5.73 6.417-10 12.5-10s11.16 4.27 12.5 10h-2.026c-1.293-4.616-5.49-8-10.474-8zm0-34c-4.984 0-9.18 3.384-10.474 8h-2.026c1.34-5.73 6.417-10 12.5-10s11.16 4.27 12.5 10h-2.026c-1.294-4.616-5.49-8-10.474-8zm35 32c6.083 0 11.16 4.27 12.5 10h-2.026c-1.293-4.616-5.49-8-10.474-8s-9.18 3.384-10.474 8h-2.026c1.34-5.73 6.417-10 12.5-10z" fill="#fff"/></g></svg>