<svg fill="none" height="20" viewBox="0 0 20 20" width="20" xmlns="http://www.w3.org/2000/svg"><g stroke="#4c6d80" stroke-linecap="round" stroke-linejoin="round" stroke-width="1.5"><path d="m15 3.33331h-10c-1.38071 0-2.5 1.11929-2.5 2.5v1.66667c0 1.38071 1.11929 2.5 2.5 2.5h10c1.3807 0 2.5-1.11929 2.5-2.5v-1.66667c0-1.38071-1.1193-2.5-2.5-2.5z"/><path d="m15 10h-10c-1.38071 0-2.5 1.1193-2.5 2.5v1.6667c0 1.3807 1.11929 2.5 2.5 2.5h10c1.3807 0 2.5-1.1193 2.5-2.5v-1.6667c0-1.3807-1.1193-2.5-2.5-2.5z"/><path d="m5.83301 6.66669v.00833"/><path d="m5.83301 13.3333v.0083"/></g></svg>