<svg width="20" height="20" viewBox="0 0 20 20" fill="none" xmlns="http://www.w3.org/2000/svg">
<path d="M11.667 2.5V5.83333C11.667 6.05435 11.7548 6.26631 11.9111 6.42259C12.0674 6.57887 12.2793 6.66667 12.5003 6.66667H15.8337" stroke="#1155CB" stroke-width="1.5" stroke-linecap="round" stroke-linejoin="round"/>
<path d="M14.167 17.5H5.83366C5.39163 17.5 4.96771 17.3244 4.65515 17.0118C4.34259 16.6993 4.16699 16.2754 4.16699 15.8333V4.16667C4.16699 3.72464 4.34259 3.30072 4.65515 2.98816C4.96771 2.67559 5.39163 2.5 5.83366 2.5H11.667L15.8337 6.66667V15.8333C15.8337 16.2754 15.6581 16.6993 15.3455 17.0118C15.0329 17.3244 14.609 17.5 14.167 17.5Z" stroke="#1155CB" stroke-width="1.5" stroke-linecap="round" stroke-linejoin="round"/>
<path d="M7.5 7.5H8.33333" stroke="#1155CB" stroke-width="1.5" stroke-linecap="round" stroke-linejoin="round"/>
<path d="M7.5 10.8333H12.5" stroke="#1155CB" stroke-width="1.5" stroke-linecap="round" stroke-linejoin="round"/>
<path d="M7.5 14.1667H12.5" stroke="#1155CB" stroke-width="1.5" stroke-linecap="round" stroke-linejoin="round"/>
</svg>
