<svg height="32" viewBox="0 0 32 32" width="32" xmlns="http://www.w3.org/2000/svg"><g fill="none" fill-rule="evenodd" transform="translate(5 1)"><path d="m10.615 22.848-3.961-.082-6.654-6.726.083-9.43 6.771-6.61 9.492.082 6.654 6.727-.083 9.43-12.302 12.761z" stroke="#17a956"/><path d="m1 12.883 1.049.069 3.959 3.728v1.591l1.835 1.729h.847v-3.052l.988-.762v-2.369l-1.08-1.06h-1.759l-1.092-1.045h-2.258v-.792l.497-.476h1.013l2.465-2.851 2.536-2.871v-1.722h-4.691" stroke="#1192ff"/><path d="m16.564 3-1.866 1.86h-.763v.721h-.95v1.181l.522.407h.448l1.201-.939h1.001l1.319.939v1.01h-3.694l-1.782 1.829v1.403l1.08 1.11.594.609h2.244v4.129l.722.741h1.77v-1.348l1.147-1.198v-2.115l1.443-1.43" stroke="#0070ce"/></g></svg>