<svg width="48" height="47" xmlns="http://www.w3.org/2000/svg"><path d="M24 0C10.74 0 0 10.746 0 24c0 10.605 6.876 19.599 16.41 22.77 1.2.225 1.641-.516 1.641-1.155 0-.57-.021-2.079-.03-4.08-6.678 1.449-8.085-3.219-8.085-3.219-1.092-2.772-2.67-3.51-2.67-3.51-2.175-1.488.168-1.458.168-1.458 2.409.168 3.675 2.472 3.675 2.472 2.142 3.669 5.619 2.61 6.99 1.995.216-1.551.834-2.61 1.521-3.21-5.331-.6-10.932-2.664-10.932-11.859 0-2.619.93-4.761 2.469-6.441-.27-.606-1.08-3.045.21-6.351 0 0 2.01-.645 6.6 2.46 1.92-.534 3.96-.798 6-.81 2.04.012 4.08.276 6 .81 4.56-3.105 6.57-2.46 6.57-2.46 1.29 3.306.48 5.745.24 6.351 1.53 1.68 2.46 3.822 2.46 6.441 0 9.219-5.61 11.25-10.95 11.841.84.72 1.62 2.19 1.62 4.44 0 3.21-.03 5.79-.03 6.57 0 .63.42 1.38 1.65 1.14C41.13 43.59 48 34.59 48 24 48 10.746 37.254 0 24 0" fill="#000" fill-rule="evenodd"/></svg>