<svg width="50" height="48" xmlns="http://www.w3.org/2000/svg"><path d="M34.744 32.964c-.07-.425-.316-.725-.736-.902a3.557 3.557 0 0 0-1.325-.278 2.86 2.86 0 0 1-1.3-.332c-.4-.212-.628-.547-.682-1.007-.09-.83.205-2.064.884-3.699a833.064 833.064 0 0 1 2.008-4.798c.66-1.564.946-2.691.857-3.38-.25-1.786-1.294-2.696-3.133-2.731-.803-.018-1.473.123-2.008.424l-.08.053-.135.066-.12.053-.134.053-.134.013-.16-.04-.161-.092-.174-.133a1.615 1.615 0 0 1-.241-.225 2.94 2.94 0 0 0-.241-.239 7.59 7.59 0 0 1-.228-.198 1.876 1.876 0 0 0-.254-.2 5.049 5.049 0 0 0-.255-.145 1.374 1.374 0 0 0-.294-.12 3.146 3.146 0 0 0-.308-.066c-.536-.088-.964-.062-1.286.08-.32.141-.723.415-1.205.822l-.24.225c-.143.133-.255.23-.335.292-.08.062-.215.15-.402.265-.187.115-.335.163-.442.146a33.996 33.996 0 0 1-.455-.08 49.043 49.043 0 0 0-2.25-1.06c-.731-.319-1.57-.274-2.517.132-.946.407-1.624.981-2.035 1.723-.285.495-.651 1.366-1.098 2.612a72.555 72.555 0 0 0-1.164 3.513l-1.072 3.552a102.81 102.81 0 0 0-.575 1.936c-.393 1.22-.228 2.271.495 3.155.723.884 1.71 1.29 2.96 1.22.535-.036.985-.168 1.351-.398s.71-.637 1.031-1.22c.125-.23.83-1.993 2.116-5.289 1.285-3.296 1.972-5.015 2.062-5.157.107-.194.299-.353.575-.477.277-.124.54-.124.79 0 .482.265.67.734.563 1.405-.036.318-.491 1.551-1.366 3.699-.875 2.147-1.321 3.318-1.339 3.513-.107.671.067 1.17.522 1.498.456.327.996.388 1.62.185.625-.203 1.116-.64 1.473-1.312l1.219-2.44c.74-1.484 1.468-2.929 2.182-4.334.714-1.405 1.125-2.187 1.232-2.346.357-.513.723-.76 1.098-.743.517 0 .74.336.67 1.008-.037.282-.621 1.586-1.755 3.91-1.133 2.324-1.763 3.734-1.888 4.229-.214.937-.098 1.847.348 2.73a4.245 4.245 0 0 0 1.982 1.963c.303.159.759.296 1.366.41.607.115 1.245.186 1.914.213.67.026 1.228-.098 1.674-.371.446-.274.625-.703.535-1.286zM9.28 38.69a.948.948 0 0 1-.134.73.913.913 0 0 1-.616.41.923.923 0 0 1-.71-.132.904.904 0 0 1-.415-.61.937.937 0 0 1 .134-.716.891.891 0 0 1 .59-.424.962.962 0 0 1 .722.133.893.893 0 0 1 .429.61zm15.263 6.973c.214.3.29.632.228.994-.063.363-.246.65-.55.862-.303.212-.637.283-1.003.212a1.344 1.344 0 0 1-.87-.557 1.34 1.34 0 0 1-.202-.994c.063-.362.246-.65.55-.862a1.267 1.267 0 0 1 1.004-.212c.366.071.647.257.843.557zM3.762 24.135a1.983 1.983 0 0 1-1.325.875 1.918 1.918 0 0 1-1.54-.345A1.994 1.994 0 0 1 .04 23.34c-.107-.566 0-1.079.322-1.538a1.983 1.983 0 0 1 1.325-.875c.562-.106 1.076 0 1.54.318.464.336.75.782.857 1.339.107.557 0 1.074-.322 1.551zm34.544 17.949c.34.495.455 1.038.348 1.63a2.054 2.054 0 0 1-.91 1.392c-.5.336-1.04.451-1.62.345a2.064 2.064 0 0 1-1.38-.901 2.09 2.09 0 0 1-.348-1.618 2.171 2.171 0 0 1 .884-1.405c.5-.336 1.04-.45 1.62-.345a2.16 2.16 0 0 1 1.406.902zm3-16.014c1.23 1.998 1.61 4.158 1.137 6.483-.473 2.324-1.673 4.158-3.601 5.501-1.607 1.114-3.383 1.644-5.33 1.59-.356 1.415-1.11 2.537-2.262 3.368a6.074 6.074 0 0 1-3.843 1.18c-1.41-.045-2.66-.553-3.749-1.525-.214.16-.33.248-.348.265-1.838 1.255-3.847 1.684-6.025 1.286-2.178-.398-3.9-1.515-5.168-3.354-.893-1.29-1.366-2.74-1.42-4.348-1.48-.247-2.753-.87-3.815-1.869-1.062-.998-1.78-2.13-2.156-3.393-.375-1.264-.392-2.607-.053-4.03s1.062-2.647 2.169-3.672a6.843 6.843 0 0 1-1.018-3.394c-.035-1.202.183-2.306.656-3.314.473-1.007 1.183-1.878 2.13-2.611a6.59 6.59 0 0 1 3.24-1.34A10.302 10.302 0 0 1 14.5 8.97c1.196-1.114 2.504-1.922 3.923-2.426 1.42-.504 2.92-.654 4.499-.45a8.731 8.731 0 0 1 4.271 1.762c1.285-.37 2.535-.525 3.749-.464 1.214.062 2.36.38 3.441.955a10.63 10.63 0 0 1 2.798 2.12c.786.84 1.388 1.857 1.808 3.05a8.888 8.888 0 0 1 .468 3.725 4.897 4.897 0 0 1 2.33 1.511c.625.725 1.031 1.511 1.219 2.36.187.848.138 1.727-.148 2.638a4.929 4.929 0 0 1-1.553 2.32zm-30.1-17.498c.25.354.335.747.255 1.18-.08.433-.299.773-.656 1.02-.34.248-.728.332-1.165.253a1.46 1.46 0 0 1-1.004-.65 1.493 1.493 0 0 1-.254-1.18c.08-.433.299-.773.656-1.02.339-.248.727-.332 1.164-.252.438.08.773.296 1.005.65zm4.258-7.45c.072.283.027.553-.134.809-.16.256-.392.42-.696.49-.303.071-.58.022-.83-.145a1.13 1.13 0 0 1-.482-.703c-.053-.3.005-.574.174-.822.17-.247.397-.406.683-.477.303-.07.58-.022.83.146.25.168.402.402.455.702zm31.759 25.134c.071.354.013.68-.174.981-.187.3-.46.486-.817.557-.339.07-.66.013-.964-.173a1.183 1.183 0 0 1-.562-.808 1.302 1.302 0 0 1 .174-.981c.187-.3.46-.495.817-.583.357-.071.683-.005.977.198.295.204.478.473.549.809zM29.443 2.58a2 2 0 0 1 .227 1.551c-.134.557-.45.977-.95 1.26a2 2 0 0 1-1.54.225 1.927 1.927 0 0 1-1.245-.915 2.05 2.05 0 0 1-.228-1.564 2.01 2.01 0 0 1 .924-1.272c.482-.3 1-.38 1.553-.239.553.141.973.46 1.258.954zm19.976 17.393a.87.87 0 0 1-.107.729c-.143.22-.348.366-.616.437a.942.942 0 0 1-.737-.146.94.94 0 0 1-.415-.596.988.988 0 0 1 .134-.743.902.902 0 0 1 .616-.424.923.923 0 0 1 .71.133.904.904 0 0 1 .415.61zm-5.115-6.39c.268.389.362.822.281 1.3-.08.476-.316.856-.71 1.14-.392.264-.83.353-1.311.264a1.677 1.677 0 0 1-1.125-.715c-.268-.39-.357-.822-.268-1.3.09-.477.33-.857.723-1.14.393-.282.826-.38 1.299-.291.473.088.843.336 1.111.742z" fill="#EF3E5D" fill-rule="nonzero"/></svg>