<svg width="48" height="48" xmlns="http://www.w3.org/2000/svg"><g fill-rule="nonzero" fill="none"><g fill="#E01E5A"><path d="M10.22 30.271a5.006 5.006 0 0 1-4.994 4.994A5.006 5.006 0 0 1 .232 30.27a5.006 5.006 0 0 1 4.994-4.994h4.993v4.994zM12.735 30.271a5.006 5.006 0 0 1 4.994-4.994 5.006 5.006 0 0 1 4.994 4.994v12.503a5.006 5.006 0 0 1-4.994 4.994 5.006 5.006 0 0 1-4.994-4.994V30.271z"/></g><g fill="#36C5F0"><path d="M17.729 10.22a5.006 5.006 0 0 1-4.994-4.994A5.006 5.006 0 0 1 17.73.232a5.006 5.006 0 0 1 4.994 4.994v4.993h-4.994zM17.729 12.735a5.006 5.006 0 0 1 4.994 4.994 5.006 5.006 0 0 1-4.994 4.994H5.226a5.006 5.006 0 0 1-4.994-4.994 5.006 5.006 0 0 1 4.994-4.994h12.503z"/></g><g fill="#2EB67D"><path d="M37.78 17.729a5.006 5.006 0 0 1 4.994-4.994 5.006 5.006 0 0 1 4.994 4.994 5.006 5.006 0 0 1-4.994 4.994h-4.993v-4.994zM35.265 17.729a5.006 5.006 0 0 1-4.994 4.994 5.006 5.006 0 0 1-4.994-4.994V5.226A5.006 5.006 0 0 1 30.271.232a5.006 5.006 0 0 1 4.994 4.994v12.503z"/></g><g fill="#ECB22E"><path d="M30.271 37.78a5.006 5.006 0 0 1 4.994 4.994 5.006 5.006 0 0 1-4.994 4.994 5.006 5.006 0 0 1-4.994-4.994v-4.993h4.994zM30.271 35.265a5.006 5.006 0 0 1-4.994-4.994 5.006 5.006 0 0 1 4.994-4.994h12.503a5.006 5.006 0 0 1 4.994 4.994 5.006 5.006 0 0 1-4.994 4.994H30.271z"/></g></g></svg>